<?xml version="1.0" encoding="UTF-8"?>
<svg width="16" height="16" xmlns="http://www.w3.org/2000/svg">
 <metadata id="metadata7">image/svg+xml</metadata>
 <g>
  <title>Layer 1</title>
  <g id="layer1">
   <path fill="#ffdc92" stroke="#cccccc" stroke-width="0.430158" stroke-linecap="round" stroke-miterlimit="4" d="m11.751034,13.966247l0,-11.796613l-7.438969,5.898306l7.438969,5.898307z" id="path18028"/>
  </g>
  <path d="m771,323.5c0,1 0,2 0,3c0,1 0.923889,2.61731 0,3c-1.30658,0.541199 -1,-3 -1,-4c0,-1 0,-3 0,-4c0,-1 0,-2 0,-3c0,-1 0,-2 0,-3c0,-2 -0.707092,-2.707092 0,-2c1.414185,1.414215 3.770264,2.026764 4,3c0.513733,2.176239 1.486267,2.823761 2,5c0.459534,1.946503 1.414185,3.585785 0,5c-0.707092,0.707092 -1.852722,0.173096 -3,1c-1.813965,1.307465 -2.69342,1.458801 -4,2c-0.923889,0.38269 -3.519287,-0.558197 -6,-4c-1.307434,-1.813995 -2,-4 -3,-5c-1,-1 -1,-3 -1,-4c0,-1 1.69342,-1.458801 3,-2c0.923889,-0.38269 4.21167,0.714111 7,3c1.093689,0.896606 2.710205,3.042908 3,4c1.044861,3.450836 2.458801,3.693451 3,5c0.38269,0.923889 0,2 0,3l0,1" id="svg_1" stroke-width="5" stroke="#000000" fill="none"/>
 </g>
</svg>