<?xml version="1.0" encoding="UTF-8"?>
<svg width="64" height="22" xmlns="http://www.w3.org/2000/svg" xmlns:xlink="http://www.w3.org/1999/xlink">
 <defs>
  <linearGradient id="linearGradient3883">
   <stop stop-color="#282828" offset="0" id="stop3885"/>
   <stop stop-color="#3c3c3c" offset="1" id="stop3887"/>
  </linearGradient>
  <filter color-interpolation-filters="sRGB" height="1.24" y="-0.12" width="1.24" x="-0.12" id="filter4131-3">
   <feGaussianBlur id="feGaussianBlur4133-2" stdDeviation="0.5"/>
  </filter>
  <linearGradient xlink:href="#linearGradient3883" id="linearGradient4641" gradientTransform="matrix(-1,0,0,-1,64.499996,20.499994)" x1="0.65194" y1="0.96875" x2="0.65194" y2="0.96875"/>
 </defs>
 <metadata id="metadata3278">image/svg+xml</metadata>
 <g>
  <title>Layer 1</title>
  <g id="layer2">
   <path fill="url(#linearGradient4641)" stroke-width="1" d="m5,3c-1.122401,0 -2,0.877599 -2,2l0,12c0,1.1224 0.877599,2 2,2l54,0c1.122402,0 2,-0.8776 2,-2l0,-12c0,-1.122401 -0.877598,-2 -2,-2l-54,0z" id="path4619"/>
   <path opacity="0.08" fill="#000000" stroke-width="1" id="rect4052" d="m5,2c-1.662,0 -3,1.338 -3,3l0,12c0,1.662001 1.338,3 3,3l54,0c1.661999,0 3,-1.337999 3,-3l0,-12c0,-1.662 -1.338001,-3 -3,-3l-54,0zm54,3l54,0l0,12l-54,0l0,-12z"/>
   <path opacity="0.12" fill="#000000" stroke-width="1" id="rect4042" d="m5,2c-1.662,0 -3,1.338 -3,3l0,12c0,1.662001 1.338,3 3,3l54,0c1.661999,0 3,-1.337999 3,-3l0,-12c0,-1.662 -1.338001,-3 -3,-3l-54,0zm54,2l54,0c0.582001,0 1,0.4175 1,1l0,12c0,0.5825 -0.417999,1 -1,1l-108,0c-0.5825,0 -1,-0.4175 -1,-1l0,-12c0,-0.5825 0.4175,-1 1,-1l54,0z"/>
   <path opacity="0.2" fill="#ffffff" stroke-width="1" id="rect4038" d="m5,2c-1.662,0 -3,1.338 -3,3l0,12c0,1.662001 1.338,3 3,3l54,0c1.661999,0 3,-1.337999 3,-3l0,-12c0,-1.662 -1.338001,-3 -3,-3l-54,0zm54,1l54,0c1.116997,0 2,0.88261 2,2l0,12c0,1.117399 -0.883003,2 -2,2l-108,0c-1.11739,0 -2,-0.882601 -2,-2l0,-12c0,-1.11739 0.88261,-2 2,-2l54,0z"/>
   <g opacity="0.5" id="g4655">
    <path opacity="0.5" fill="#000000" fill-rule="nonzero" stroke-width="2" filter="url(#filter4131-3)" id="path4125" d="m47,6.5c-2.761425,0 -5,2.238576 -5,5c0,2.761424 2.238575,5 5,5c2.761425,0 5,-2.238576 5,-5c0,-2.761424 -2.238575,-5 -5,-5zm0,2c1.656853,0 3,1.343146 3,3c0,1.656854 -1.343147,3 -3,3c-1.656853,0 -3,-1.343146 -3,-3c0,-1.656854 1.343147,-3 3,-3z"/>
    <path fill="#ffffff" fill-rule="nonzero" stroke-width="2" d="m47,6c-2.761425,0 -5,2.238576 -5,5c0,2.761424 2.238575,5 5,5c2.761425,0 5,-2.238576 5,-5c0,-2.761424 -2.238575,-5 -5,-5zm0,2c1.656853,0 3,1.343146 3,3c0,1.656854 -1.343147,3 -3,3c-1.656853,0 -3,-1.343146 -3,-3c0,-1.656854 1.343147,-3 3,-3z" id="path4120"/>
   </g>
  </g>
  <g opacity="0.25" display="inline" id="layer1">
   <path opacity="0.05" fill="#927842" fill-rule="nonzero" stroke-width="2" d="m5.636872,-0.9375c-3.605092,0 -6.574372,2.68164 -6.574372,5.9375l0,12c0,3.255859 2.96928,5.9375 6.574372,5.9375l26.574302,0c3.605091,0 6.574371,-2.681641 6.574371,-5.9375l0,-12c0,-3.25586 -2.96928,-5.9375 -6.574371,-5.9375l-26.574302,0z" id="path4541"/>
   <path opacity="0.1" fill="#927842" fill-rule="nonzero" stroke-width="2" d="m5.636872,0c-3.029141,0 -5.536313,2.264298 -5.536313,5l0,12c0,2.735703 2.507172,5 5.536313,5l26.574302,0c3.02914,0 5.536312,-2.264297 5.536312,-5l0,-12c0,-2.735702 -2.507172,-5 -5.536312,-5l-26.574302,0z" id="path4537"/>
   <path opacity="0.2" fill="#927842" fill-rule="nonzero" stroke-width="2" d="m5.636872,1.03125c-2.407358,0 -4.394449,1.794597 -4.394449,3.96875l0,12c0,2.174152 1.98709,3.96875 4.394449,3.96875l26.574302,0c2.407356,0 4.394447,-1.794598 4.394447,-3.96875l0,-12c0,-2.174153 -1.987091,-3.96875 -4.394447,-3.96875l-26.574302,0z" id="path4531"/>
   <rect fill="#927842" fill-rule="nonzero" stroke-width="2" ry="3" rx="3" y="2" x="2.315084" height="18.00001" width="33.217889" id="rect3936"/>
   <path opacity="0.6" fill="#927842" fill-rule="nonzero" stroke-width="2" id="rect4059" d="m5.636872,2c-1.840271,0 -3.321788,1.338 -3.321788,3l0,12c0,1.662001 1.481517,3 3.321788,3l26.574302,0c1.840271,0 3.321789,-1.337999 3.321789,-3l0,-12c0,-1.662 -1.481518,-3 -3.321789,-3l-26.574302,0zm26.574302,1l26.574303,0c1.246334,0 2.214527,0.87439 2.214527,2l0,12c0,1.125601 -0.968193,2 -2.214527,2l-53.148605,0c-1.246346,0 -2.214525,-0.874399 -2.214525,-2l0,-12c0,-1.12561 0.968179,-2 2.214525,-2l26.574302,0z"/>
  </g>
 </g>
</svg>