<?xml version="1.0" encoding="UTF-8"?>
<svg width="64" height="22" xmlns="http://www.w3.org/2000/svg" xmlns:xlink="http://www.w3.org/1999/xlink">
 <defs>
  <clipPath id="clipPath3876" clipPathUnits="userSpaceOnUse">
   <rect fill="#ff00ff" stroke-width="1" id="rect3878" y="1" x="-64" ry="2.5" rx="2.5" height="19.999994" width="64"/>
  </clipPath>
  <clipPath id="clipPath3097" clipPathUnits="userSpaceOnUse">
   <rect opacity="0.25" fill="#ff00ff" fill-rule="nonzero" stroke-width="2" id="rect3099" width="48" height="27" x="-8" y="-2"/>
  </clipPath>
  <filter height="1.156" y="-0.078" width="1.52" x="-0.26" id="filter4199-9" color-interpolation-filters="sRGB">
   <feGaussianBlur id="feGaussianBlur4201-6" stdDeviation="0.325"/>
  </filter>
  <linearGradient id="linearGradient3921-5-9">
   <stop stop-color="#282828" id="stop3923-6-1" offset="0"/>
   <stop stop-color="#3c3c3c" id="stop3925-4-6" offset="1"/>
  </linearGradient>
  <linearGradient y2="0.96875" x2="0.65194" y1="0.96875" x1="0.65194" gradientTransform="matrix(-1,0,0,-1,64.499996,20.499994)" id="linearGradient4621" xlink:href="#linearGradient3921-5-9"/>
 </defs>
 <metadata id="metadata3278">image/svg+xml</metadata>
 <g>
  <title>Layer 1</title>
  <g id="layer1">
   <path fill="url(#linearGradient4621)" stroke-width="1" d="m5,3c-1.122401,0 -2,0.877599 -2,2l0,12c0,1.1224 0.877599,2 2,2l54,0c1.122402,0 2,-0.8776 2,-2l0,-12c0,-1.122401 -0.877598,-2 -2,-2l-54,0z" id="path4619"/>
   <path opacity="0.08" fill="#000000" stroke-width="1" id="rect4052" d="m5,2c-1.662,0 -3,1.338 -3,3l0,12c0,1.662001 1.338,3 3,3l54,0c1.661999,0 3,-1.337999 3,-3l0,-12c0,-1.662 -1.338001,-3 -3,-3l-54,0zm54,3l54,0l0,12l-54,0l0,-12z"/>
   <path opacity="0.12" fill="#000000" stroke-width="1" id="rect4042" d="m5,2c-1.662,0 -3,1.338 -3,3l0,12c0,1.662001 1.338,3 3,3l54,0c1.661999,0 3,-1.337999 3,-3l0,-12c0,-1.662 -1.338001,-3 -3,-3l-54,0zm54,2l54,0c0.582001,0 1,0.4175 1,1l0,12c0,0.5825 -0.417999,1 -1,1l-108,0c-0.5825,0 -1,-0.4175 -1,-1l0,-12c0,-0.5825 0.4175,-1 1,-1l54,0z"/>
   <path fill="#787878" stroke-width="1" id="rect4038" d="m5,2c-1.662,0 -3,1.338 -3,3l0,12c0,1.662001 1.338,3 3,3l54,0c1.661999,0 3,-1.337999 3,-3l0,-12c0,-1.662 -1.338001,-3 -3,-3l-54,0zm54,1l54,0c1.116997,0 2,0.88261 2,2l0,12c0,1.117399 -0.883003,2 -2,2l-108,0c-1.11739,0 -2,-0.882601 -2,-2l0,-12c0,-1.11739 0.88261,-2 2,-2l54,0z"/>
   <g id="g4579">
    <rect opacity="0.5" fill="#000000" fill-rule="nonzero" stroke-width="2" filter="url(#filter4199-9)" y="6.5" x="15" height="10" width="3" id="rect4197"/>
    <rect fill="#ffffff" fill-rule="nonzero" stroke-width="2" id="rect4195" width="3" height="10" x="15" y="6"/>
   </g>
  </g>
  <g opacity="0.25" display="inline" id="layer2">
   <path opacity="0.05" fill="#927842" fill-rule="nonzero" stroke-width="2" d="m7.792687,-0.9375c-6.432307,0 -11.730182,2.68164 -11.730182,5.9375l0,12c0,3.255859 5.297875,5.9375 11.730182,5.9375l47.41463,0c6.432312,0 11.730183,-2.681641 11.730183,-5.9375l0,-12c0,-3.25586 -5.297871,-5.9375 -11.730183,-5.9375l-47.41463,0z" id="path4541"/>
   <path opacity="0.1" fill="#927842" fill-rule="nonzero" stroke-width="2" d="m7.792687,0c-5.40468,0 -9.878048,2.264298 -9.878048,5l0,12c0,2.735703 4.473368,5 9.878048,5l47.41463,0c5.404682,0 9.878048,-2.264297 9.878048,-5l0,-12c0,-2.735702 -4.473366,-5 -9.878048,-5l-47.41463,0z" id="path4537"/>
   <path opacity="0.2" fill="#927842" fill-rule="nonzero" stroke-width="2" d="m7.792687,1.03125c-4.295276,0 -7.840701,1.794597 -7.840701,3.96875l0,12c0,2.174152 3.545424,3.96875 7.840701,3.96875l47.41463,0c4.295277,0 7.840702,-1.794598 7.840702,-3.96875l0,-12c0,-2.174153 -3.545425,-3.96875 -7.840702,-3.96875l-47.41463,0z" id="path4531"/>
   <rect fill="#927842" fill-rule="nonzero" stroke-width="2" ry="3" rx="3" y="2" x="1.865859" height="18.00001" width="59.268309" id="rect3936"/>
   <path opacity="0.6" fill="#927842" fill-rule="nonzero" stroke-width="2" id="rect4059" d="m7.792687,2c-3.28346,0 -5.926829,1.338 -5.926829,3l0,12c0,1.662001 2.643368,3 5.926829,3l47.41463,0c3.283463,0 5.92683,-1.337999 5.92683,-3l0,-12c0,-1.662 -2.643368,-3 -5.92683,-3l-47.41463,0zm0,1l47.41463,0c2.223747,0 3.951221,0.87439 3.951221,2l0,12c0,1.125601 -1.727474,2 -3.951221,2l-47.41463,0c-2.223743,0 -3.951219,-0.874399 -3.951219,-2l0,-12c0,-1.12561 1.727476,-2 3.951219,-2z"/>
  </g>
 </g>
</svg>