<?xml version="1.0" encoding="UTF-8" standalone="no"?>
<!-- Generator: Adobe Illustrator 14.0.0, SVG Export Plug-In . SVG Version: 6.00 Build 43363)  -->

<svg
   xmlns:dc="http://purl.org/dc/elements/1.1/"
   xmlns:cc="http://creativecommons.org/ns#"
   xmlns:rdf="http://www.w3.org/1999/02/22-rdf-syntax-ns#"
   xmlns:svg="http://www.w3.org/2000/svg"
   xmlns="http://www.w3.org/2000/svg"
   xmlns:xlink="http://www.w3.org/1999/xlink"
   xmlns:sodipodi="http://sodipodi.sourceforge.net/DTD/sodipodi-0.dtd"
   xmlns:inkscape="http://www.inkscape.org/namespaces/inkscape"
   version="1.1"
   id="Layer_1"
   x="0px"
   y="0px"
   width="133"
   height="53"
   viewBox="0 0 133 53"
   enable-background="new 0 0 133 49"
   xml:space="preserve"
   inkscape:version="0.48.2 r9819"
   sodipodi:docname="grad.svg"><metadata
   id="metadata20"><rdf:RDF><cc:Work
       rdf:about=""><dc:format>image/svg+xml</dc:format><dc:type
         rdf:resource="http://purl.org/dc/dcmitype/StillImage" /><dc:title></dc:title></cc:Work></rdf:RDF></metadata><defs
   id="defs18"><linearGradient
     id="linearGradient4230"><stop
       style="stop-color:#000000;stop-opacity:0.64563107;"
       offset="0"
       id="stop4232" /><stop
       style="stop-color:#000000;stop-opacity:0.5;"
       offset="1"
       id="stop4234" /></linearGradient><linearGradient
     id="linearGradient4222"><stop
       style="stop-color:#010101;stop-opacity:0.74757284;"
       offset="0"
       id="stop4224" /><stop
       style="stop-color:#000000;stop-opacity:0.65048546;"
       offset="1"
       id="stop4226" /></linearGradient><marker
     inkscape:stockid="Arrow1Lstart"
     orient="auto"
     refY="0.0"
     refX="0.0"
     id="Arrow1Lstart"
     style="overflow:visible"><path
       id="path3781"
       d="M 0.0,0.0 L 5.0,-5.0 L -12.5,0.0 L 5.0,5.0 L 0.0,0.0 z "
       style="fill-rule:evenodd;stroke:#000000;stroke-width:1.0pt;marker-start:none"
       transform="scale(0.8) translate(12.5,0)" /></marker><radialGradient
     inkscape:collect="always"
     xlink:href="#linearGradient4222"
     id="radialGradient4228"
     cx="126.3271"
     cy="-25.763458"
     fx="126.3271"
     fy="-25.763458"
     r="64.813611"
     gradientTransform="matrix(0.07862377,0,0,0.07421129,116.39479,9.9703393)"
     gradientUnits="userSpaceOnUse" /><linearGradient
     inkscape:collect="always"
     xlink:href="#linearGradient4230"
     id="linearGradient4236"
     x1="63.243587"
     y1="2.8680892"
     x2="63.243587"
     y2="49.58139"
     gradientUnits="userSpaceOnUse" /></defs><sodipodi:namedview
   pagecolor="#ffffff"
   bordercolor="#666666"
   borderopacity="1"
   objecttolerance="10"
   gridtolerance="10"
   guidetolerance="10"
   inkscape:pageopacity="0"
   inkscape:pageshadow="2"
   inkscape:window-width="1366"
   inkscape:window-height="724"
   id="namedview16"
   showgrid="false"
   inkscape:zoom="5.78"
   inkscape:cx="67.967682"
   inkscape:cy="24.5"
   inkscape:window-x="0"
   inkscape:window-y="26"
   inkscape:window-maximized="1"
   inkscape:current-layer="Layer_1" />
<g
   id="g3"
   transform="translate(0,1.792)">
	<path
   d="m 131.458,44.004 c 0,1.979 -1.62,3.601 -3.601,3.601 H 5.059 c -1.98,0 -3.6,-1.621 -3.6,-3.601 v -38.8 c 0,-1.98 1.62,-3.6 3.6,-3.6 h 122.799 c 1.98,0 3.601,1.62 3.601,3.6 v 38.8 z"
   id="path5"
   inkscape:connector-curvature="0"
   style="fill:none;stroke:#000000" />
	<linearGradient
   id="SVGID_1_"
   gradientUnits="userSpaceOnUse"
   x1="66.459"
   y1="49.1045"
   x2="66.459"
   y2="0.1045">
		<stop
   offset="0"
   style="stop-color:#FFFFFF"
   id="stop8" />
		<stop
   offset="1"
   style="stop-color:#000000"
   id="stop10" />
	</linearGradient>
	<path
   d="M 127.858,49.104 H 5.059 c -2.812,0 -5.1,-2.288 -5.1,-5.101 v -38.8 c 0,-2.812 2.288,-5.1 5.1,-5.1 h 122.799 c 2.812,0 5.101,2.288 5.101,5.1 v 38.8 c -0.001,2.813 -2.289,5.101 -5.101,5.101 l 0,0 z M 5.059,1.104 c -2.261,0 -4.1,1.839 -4.1,4.1 v 38.8 c 0,2.261 1.839,4.101 4.1,4.101 h 122.799 c 2.261,0 4.101,-1.84 4.101,-4.101 v -38.8 c 0,-2.261 -1.84,-4.1 -4.101,-4.1 H 5.059 l 0,0 z"
   id="path12"
   inkscape:connector-curvature="0"
   style="opacity:0.27000002;fill:url(#SVGID_1_)" />
	<path
   d="m 131.458,44.004 c 0,1.979 -1.62,3.601 -3.601,3.601 H 5.059 c -1.98,0 -3.6,-1.621 -3.6,-3.601 v -38.8 c 0,-1.98 1.62,-3.6 3.6,-3.6 h 122.799 c 1.98,0 3.601,1.62 3.601,3.6 v 38.8 z"
   id="path14"
   inkscape:connector-curvature="0"
   style="fill:none;stroke:#000000" />
</g>
<rect
   style="fill:url(#linearGradient4236);fill-opacity:1.0;fill-rule:nonzero;stroke:url(#radialGradient4228);stroke-width:2.07399999999999984;stroke-linejoin:miter;stroke-miterlimit:4;stroke-opacity:1;stroke-dasharray:none"
   id="rect3776"
   width="127.55322"
   height="43.501213"
   x="2.6888938"
   y="4.646894"
   rx="2.2080812"
   ry="1.9117731" /></svg>