#define max_width 16
#define max_height 16
static char max_bits[] = {
  0x1F, 0xF8, 0x07, 0xE0, 0x03, 0xC0, 0x01, 0x80, 0x01, 0x80, 0xE0, 0x07, 
  0x20, 0x04, 0x20, 0x04, 0x20, 0x04, 0x20, 0x04, 0xE0, 0x07, 0x01, 0x80, 
  0x01, 0x80, 0x03, 0xC0, 0x07, 0xE0, 0x1F, 0xF8, };
