#define max_toggled_width 16
#define max_toggled_height 16
static char max_toggled_bits[] = {
  0x1F, 0xF8, 0x07, 0xE0, 0x03, 0xC0, 0x01, 0x80, 0x81, 0x8F, 0xF0, 0x08, 
  0x90, 0x08, 0x90, 0x08, 0x90, 0x0F, 0x10, 0x04, 0x10, 0x04, 0xF1, 0x87, 
  0x01, 0x80, 0x03, 0xC0, 0x07, 0xE0, 0x1F, 0xF8, };
