/* XPM */
static char * close_active_xpm[] = {
"22 24 63 1",
" 	c None",
".	c #333333",
"+	c #323232",
"@	c #313131",
"#	c #323131",
"$	c #302F2F",
"%	c #292929",
"&	c #252525",
"*	c #232222",
"=	c #2C2C2C",
"-	c #232323",
";	c #373737",
">	c #494949",
",	c #565656",
"'	c #545454",
")	c #353434",
"!	c #343333",
"~	c #2D2D2D",
"{	c #282828",
"]	c #494848",
"^	c #555454",
"/	c #252424",
"(	c #464646",
"_	c #525151",
":	c #353535",
"<	c #535252",
"[	c #363636",
"}	c #343434",
"|	c #2B2B2B",
"1	c #4F4F4F",
"2	c #8E8E8E",
"3	c #363535",
"4	c #434343",
"5	c #4D4D4D",
"6	c #878787",
"7	c #888787",
"8	c #373636",
"9	c #262525",
"0	c #4B4A4A",
"a	c #828181",
"b	c #474646",
"c	c #484747",
"d	c #7A7979",
"e	c #7A7A7A",
"f	c #3D3D3D",
"g	c #454545",
"h	c #737373",
"i	c #383838",
"j	c #2E2E2E",
"k	c #6D6D6D",
"l	c #383737",
"m	c #272727",
"n	c #3B3A3A",
"o	c #414040",
"p	c #393939",
"q	c #3E3E3E",
"r	c #393838",
"s	c #282727",
"t	c #3C3B3B",
"u	c #3A3939",
"v	c #2F2E2E",
"w	c #2B2A2A",
"x	c #3A3A3A",
"                      ",
"                      ",
"                      ",
"        .+@@+.        ",
"      .########.      ",
"     +#$%&**&%$#+     ",
"    .+=-;>,'>;-=+.    ",
"   )!~{]^^^^^^]{~!)   ",
"   !#/(_::<_::_(/#!   ",
"  [}|:1122112211:|}[  ",
"  3:{455666766554{:3  ",
"  839]000aaaa000]93[  ",
"  839bcc:dede:ccb938  ",
"  [[{fgghhhhhhggf{[[  ",
"  i;j+44kk::kk44+j;i  ",
"   l3mnoooooooonm3l   ",
"   ii@%pqqqqqqp%@ii   ",
"    rr#s$ltnl$s#ru    ",
"     rr8vwsswv8rr     ",
"      pxxpppxpxp      ",
"        ppxxpp        ",
"                      ",
"                      ",
"                      "};
