/* XPM */
static char *top_right_active[] = {
/* columns rows colors chars-per-pixel */
"10 29 24 1 ",
"  c #3C3B37",
". c #3F3E39",
"X c #41403B",
"o c #44433D",
"O c #47453F",
"+ c #4A4841",
"@ c #4C4A43",
"# c #4F4D44",
"$ c #4F4D45",
"% c #525048",
"& c #525148",
"* c #545249",
"= c #54524A",
"- c #56554D",
"; c #585750",
": c #595750",
"> c #5B5A53",
", c #5C5A52",
"< c #5D5D54",
"1 c #5E5D55",
"2 c #5F5F58",
"3 c #605F58",
"4 c #606059",
"5 c None",
/* pixels */
"3322455555",
"1111111555",
">>>>>>>,55",
":::::::::5",
"---------5",
"==========",
"%%%%%%%%%%",
"$$$$$$$$$$",
"@@@+@+$+@@",
"++++++++++",
"+OOO+OOOOO",
"ooooooooOo",
".o...o..o.",
"..........",
"          ",
"          ",
"          ",
"          ",
"          ",
"          ",
"          ",
"          ",
"          ",
"          ",
"          ",
"          ",
"          ",
"          ",
"          "
};
