#define bullet_width 6
#define bullet_height 6
static unsigned char bullet_bits[] = {
   0x00, 0x08, 0x18, 0x38, 0x18, 0x08 };
