<?xml version="1.0" encoding="UTF-8" standalone="no"?>
<svg xmlns:rdf="http://www.w3.org/1999/02/22-rdf-syntax-ns#" xmlns="http://www.w3.org/2000/svg" height="28" width="28" version="1.1" xmlns:cc="http://creativecommons.org/ns#" xmlns:dc="http://purl.org/dc/elements/1.1/">
	<rect fill-rule="evenodd" rx="3.3939" ry="3.3939" height="27.152" width="27.152" stroke="#707070" y=".42424" x=".42424" stroke-width=".84848" fill="#444"/>
	<path d="m7.1471 7.1372h1.7294c0.0178-0.000205 0.036-0.000795 0.05404 0 0.4409 0.01939 0.88174 0.22241 1.1889 0.54054l3.9449 3.9457 3.9992-3.9457c0.46-0.3987 0.773-0.5284 1.19-0.5405h1.7294v1.7297c0 0.49551-0.05941 0.95247-0.43234 1.2973l-3.9449 3.9457 3.8911 3.8919c0.32544 0.32548 0.48637 0.78435 0.48637 1.2432v1.7297h-1.7294c-0.45879-0.000018-0.91758-0.16103-1.243-0.48647l-3.9427-3.9434-3.9461 3.9457c-0.32553 0.32585-0.78424 0.48518-1.2432 0.48518h-1.7292v-1.7297c-0.000005-0.45888 0.16094-0.91776 0.48637-1.2432l3.945-3.891-3.9449-3.946c-0.3646-0.3365-0.5244-0.8115-0.4863-1.2971v-1.7297z" fill="#fff"/>
</svg>
