<?xml version="1.0" encoding="UTF-8" standalone="no"?>
<svg xmlns:rdf="http://www.w3.org/1999/02/22-rdf-syntax-ns#" xmlns="http://www.w3.org/2000/svg" xml:space="preserve" height="512px" width="512px" version="1.1" xmlns:cc="http://creativecommons.org/ns#" enable-background="new 0 0 512 512" viewBox="0 0 512 512" xmlns:dc="http://purl.org/dc/elements/1.1/"><path d="m452.94 237.3s-7.2765-2.7365-28.328-4.6786c-25.74-2.3796-33.505-12.027-42.067-24.038h-0.1722c-1.0661-2.8547-2.2082-5.6734-3.4653-8.435l0.0994-0.0994c-2.4438-14.544-3.7666-26.861 12.753-46.746 13.503-16.255 16.724-23.34 16.724-23.34-3.1686-8.0413-10.787-15.658-10.787-15.658s-7.6209-7.6194-15.658-10.783-7.0855 3.2124-23.34 16.72c-19.884 16.518-32.203 15.191-46.746 12.753l-0.10021 0.0986c-2.7584-1.2563-5.5732-2.3937-8.4342-3.4653v-0.16751c-12.011-8.5587-21.658-16.332-24.038-42.072-1.9452-21.041-4.6778-28.327-4.6778-28.327-7.9286-3.448-18.699-3.448-18.699-3.448s-10.775 0-18.698 3.448-2.7381 7.2867-4.6801 28.327c-2.3804 25.74-12.033 33.514-24.038 42.072v0.16751c-2.8547 1.0716-5.675 2.2082-8.435 3.4606l-0.0955-0.0939c-14.543 2.4477-26.861 3.769-46.746-12.747-16.253-13.503-23.348-16.722-23.348-16.722-8.0413 3.1725-15.649 10.779-15.649 10.779s-7.6202 7.6264-10.784 15.662 3.2085 7.0863 16.721 23.336c16.516 19.884 15.177 32.202 12.746 46.746l0.10018 0.0994c-1.2579 2.7616-2.3944 5.5803-3.4668 8.435h-0.16675c-8.5532 12.015-16.328 21.658-42.066 24.038-21.043 1.9459-28.337 4.6879-28.337 4.6879-3.441 7.93-3.441 18.69-3.441 18.69s0 10.779 3.448 18.698 7.2773 2.742 28.324 4.6793c25.739 2.3804 33.504 12.039 42.071 24.038h0.16752c1.0724 2.861 2.2082 5.6758 3.4668 8.435l-0.10018 0.0994c2.4485 14.545 3.769 26.861-12.746 46.746-13.504 16.254-16.726 23.349-16.726 23.349 3.1772 8.0374 10.782 15.65 10.782 15.65s7.6256 7.6209 15.663 10.779 7.0816-3.2046 23.336-16.717c19.884-16.516 32.207-15.177 46.745-12.75l0.1002-0.10019c2.76 1.2563 5.5803 2.389 8.435 3.4653v0.1722c12.015 8.554 21.657 16.328 24.038 42.068 1.9452 21.041 4.6832 28.336 4.6832 28.336 7.9333 3.4386 18.694 3.4386 18.694 3.4386s10.779 0 18.699-3.448 2.7428-7.2781 4.6778-28.327c2.3804-25.74 12.038-33.506 24.038-42.068v-0.17221c2.861-1.0763 5.6758-2.2082 8.4342-3.4653l0.10021 0.10018c14.543-2.4438 26.86-3.7666 46.746 12.75 16.256 13.505 23.351 16.727 23.351 16.727 8.0366-3.178 15.647-10.788 15.647-10.788s7.6186-7.6209 10.787-15.658-3.2124-7.0871-16.724-23.34c-16.519-19.884-15.188-32.2-12.753-46.746l-0.0994-0.0994c1.2563-2.7592 2.3984-5.574 3.4653-8.435h0.1722c8.554-12.008 16.327-21.658 42.067-24.038 21.041-1.9452 28.337-4.6793 28.337-4.6793 3.45-7.93 3.45-18.7 3.45-18.7s-0.00078-10.779-3.4488-18.699zm-196.94 112.42c-51.76 0-93.718-41.957-93.718-93.717s41.958-93.717 93.718-93.717c51.759 0 93.717 41.957 93.717 93.717s-41.958 93.717-93.717 93.717z" fill="#7f7f7f"/></svg>
