<?xml version="1.0" encoding="UTF-8" standalone="no"?>
<svg xmlns:rdf="http://www.w3.org/1999/02/22-rdf-syntax-ns#" xmlns="http://www.w3.org/2000/svg" height="20" width="20" version="1.1" xmlns:cc="http://creativecommons.org/ns#" xmlns:dc="http://purl.org/dc/elements/1.1/">
	<g fill-rule="evenodd">
		<rect rx="1.153" ry="1.153" height="19.216" width="19.216" stroke="#444" y=".392" x=".39178" stroke-width=".78401" fill="#222"/>
		<path stroke="#10862d" stroke-width="1.3056" d="m7.9045 15.228c0.37788 0.26882 0.79354 0.14562 1.2357-0.04015 1.8446-1.6563 3.1053-3.6928 4.1735-5.5004 1.1915-2.0591 2.396-4.1102 3.6259-6.1467l0.03197-0.014166c-1.2299 2.0364-2.4344 4.0875-3.6259 6.1467-0.57171 0.96317-0.8531 1.5586-1.4461 2.4882-0.21399 0.33544-0.39747 0.6438-0.61582 0.97641-0.31462 0.47926-0.49924 0.76667-1.0151 1.4073-0.5976 0.658-1.01 0.921-1.5069 1.268-0.3508 0.231-0.7783 0.458-1.2145 0.342-0.2558-0.069-0.3624-0.204-0.5537-0.373-0.5743-0.718-1.0071-1.532-1.5138-2.297-0.4999-0.759-1.0015-1.519-1.5653-2.233-0.2187-0.295-0.437-0.62-0.7422-0.831 2.8081 0.02036 3.0154 2.8633 4.7319 4.8063z" fill="#666"/>
	</g>
</svg>
