<?xml version="1.0" encoding="UTF-8" standalone="no"?>
<!-- Created with Inkscape (http://www.inkscape.org/) -->
<svg id="svg3273" xmlns:rdf="http://www.w3.org/1999/02/22-rdf-syntax-ns#" xmlns="http://www.w3.org/2000/svg" height="22" width="64" version="1.1" xmlns:cc="http://creativecommons.org/ns#" xmlns:xlink="http://www.w3.org/1999/xlink" xmlns:dc="http://purl.org/dc/elements/1.1/">
 <defs id="defs3275">
  <radialGradient id="radialGradient4013-9-2" xlink:href="#linearGradient3988-5-7" gradientUnits="userSpaceOnUse" cy="11" cx="42.5" gradientTransform="matrix(11,0,0,10,-447,-99)"/>
  <linearGradient id="linearGradient3988-5-7">
   <stop id="stop3990-8-2" offset="0"/>
   <stop id="stop3997-5-7" style="stop-opacity:.70588" offset="0.6"/>
   <stop id="stop3993-8-6" style="stop-opacity:0" offset="1"/>
  </linearGradient>
  <radialGradient id="radialGradient4011-7-2" xlink:href="#linearGradient3976-2-0" gradientUnits="userSpaceOnUse" cy="11" cx="42.5" gradientTransform="matrix(11,0,0,10,-446,-99)"/>
  <linearGradient id="linearGradient3976-2-0">
   <stop id="stop3978-8-5" style="stop-color:#fff" offset="0"/>
   <stop id="stop3995-9-0" style="stop-color:#fff;stop-opacity:.70588" offset="0.6"/>
   <stop id="stop3980-6-1" style="stop-color:#fff;stop-opacity:0" offset="1"/>
  </linearGradient>
  <radialGradient id="radialGradient4005-9-8" xlink:href="#linearGradient3988-5-7" gradientUnits="userSpaceOnUse" cy="11" cx="42.5" gradientTransform="matrix(11,0,0,10,-451,-99)"/>
  <radialGradient id="radialGradient4003-1-6" xlink:href="#linearGradient3976-2-0" gradientUnits="userSpaceOnUse" cy="11" cx="42.5" gradientTransform="matrix(11,0,0,10,-450,-99)"/>
  <radialGradient id="radialGradient3986-1-3" xlink:href="#linearGradient3988-5-7" gradientUnits="userSpaceOnUse" cy="11" cx="42.5" gradientTransform="matrix(11,0,0,10,-455,-99)"/>
  <radialGradient id="radialGradient4077-8-1" gradientUnits="userSpaceOnUse" xlink:href="#linearGradient3976-2-0" cx="42.5" cy="11" gradientTransform="matrix(11,0,0,10,-454,-99)"/>
  <linearGradient id="linearGradient3077-4-9-4" y2="28" gradientUnits="userSpaceOnUse" y1="1" gradientTransform="translate(-32,-1)" x2="41" x1="41">
   <stop id="stop3992-5-7-1" style="stop-color:#fff" offset="0"/>
   <stop id="stop3994-0-8-2" style="stop-color:#fff;stop-opacity:0" offset="1"/>
  </linearGradient>
  <linearGradient id="linearGradient3228-0" y2="2" gradientUnits="userSpaceOnUse" y1="21" gradientTransform="translate(-32,-1)" x2="48" x1="48">
   <stop id="stop3940-9-2" style="stop-color:#a0a0a0" offset="0"/>
   <stop id="stop3942-9-2" style="stop-color:#dcdcdc" offset="1"/>
  </linearGradient>
  <linearGradient id="linearGradient4641" y2=".49999" gradientUnits="userSpaceOnUse" y1="18.5" gradientTransform="matrix(-1 0 0 -1 64.5 20.5)" x2="40.812" x1="40.812">
   <stop id="stop3923-6-1-6" style="stop-color:#333" offset="0"/>
   <stop id="stop3925-4-6-6" style="stop-color:#555" offset="1"/>
  </linearGradient>
  <filter id="filter4004" height="1.3893" width="1.1735" y="-.19465" x="-.086737">
   <feGaussianBlur id="feGaussianBlur4006" stdDeviation="0.66285313"/>
  </filter>
  <linearGradient id="linearGradient3900" y2="11" gradientUnits="userSpaceOnUse" x2="62" y1="11" x1="2">
   <stop id="stop3896" style="stop-color:#333" offset="0"/>
   <stop id="stop3898" style="stop-color:#555;stop-opacity:0" offset="1"/>
  </linearGradient>
 </defs>
 <metadata id="metadata3278">
  <rdf:RDF>
   <cc:Work rdf:about="">
    <dc:format>image/svg+xml</dc:format>
    <dc:type rdf:resource="http://purl.org/dc/dcmitype/StillImage"/>
    <dc:title/>
   </cc:Work>
  </rdf:RDF>
 </metadata>
 <g id="layer2">
  <path id="path4619" style="color:#000000;fill:url(#linearGradient4641)" d="m5 3c-1.1224 0-2 0.8776-2 2v12c0 1.1224 0.8776 2 2 2h54c1.1224 0 2-0.8776 2-2v-12c0-1.1224-0.878-2-2-2h-54z"/>
  <path id="rect4052" style="opacity:0.08;color:#000000;fill:url(#linearGradient3900)" d="m5 2c-1.662 0-3 1.338-3 3v12c0 1.662 1.338 3 3 3h54c1.662 0 3-1.338 3-3v-12c0-1.662-1.338-3-3-3zm0 3h54v12h-54z"/>
  <path id="rect4042" style="opacity:0.12;color:#000000" d="m5 2c-1.662 0-3 1.338-3 3v12c0 1.662 1.338 3 3 3h54c1.662 0 3-1.338 3-3v-12c0-1.662-1.338-3-3-3zm0 2h54c0.5825 0 1 0.4175 1 1v12c0 0.5825-0.4175 1-1 1h-54c-0.5825 0-1-0.418-1-1v-12c0-0.5825 0.4175-1 1-1z"/>
  <path id="rect4038" style="opacity:.2;color:#000000;fill:#fff" d="m5 2c-1.662 0-3 1.338-3 3v12c0 1.662 1.338 3 3 3h54c1.662 0 3-1.338 3-3v-12c0-1.662-1.338-3-3-3zm0 1h54c1.1174 0 2 0.88261 2 2v12c0 1.1174-0.88261 2-2 2h-54c-1.1174 0-2-0.883-2-2v-12c0-1.1174 0.8826-2 2-2z"/>
  <g id="g3996" style="opacity:.5;filter:url(#filter4004)" transform="translate(-.056827 .79971)">
   <path id="path3998" d="m41.288 14.821c-0.594 0-1.1073-0.10267-1.54-0.308-0.43267-0.20533-0.78834-0.48767-1.067-0.847-0.27867-0.36667-0.48767-0.79566-0.627-1.287-0.132-0.49866-0.198-1.0413-0.198-1.628-0.000001-0.58666 0.066-1.1293 0.198-1.628 0.13933-0.50599 0.34833-0.94233 0.627-1.309 0.27866-0.36666 0.63433-0.65266 1.067-0.858 0.43266-0.20533 0.946-0.30799 1.54-0.308 0.594 0.000008 1.1073 0.10267 1.54 0.308 0.43266 0.20534 0.78833 0.49134 1.067 0.858 0.27866 0.36667 0.48399 0.80301 0.616 1.309 0.13933 0.49867 0.20899 1.0413 0.209 1.628-0.000008 0.58667-0.06967 1.1293-0.209 1.628-0.13201 0.49134-0.33734 0.92033-0.616 1.287-0.27867 0.35933-0.63434 0.64167-1.067 0.847-0.43267 0.20533-0.946 0.308-1.54 0.308m0-1.342c1.1367 0.000001 1.705-0.90933 1.705-2.728-0.000006-0.90933-0.13934-1.5913-0.418-2.046-0.27134-0.45466-0.69667-0.68199-1.276-0.682-1.1513 0.0000066-1.727 0.90934-1.727 2.728-0.000003 1.8187 0.572 2.728 1.716 2.728"/>
   <path id="path4000" d="m46.057 6.7804h4.488c0.044 0.22001 0.066 0.44367 0.066 0.671-0.000005 0.24201-0.02201 0.47301-0.066 0.693h-2.882v1.859h2.288c0.044 0.23467 0.066 0.462 0.066 0.682-0.000005 0.23467-0.02201 0.46567-0.066 0.693h-2.288v3.311c-0.27867 0.044-0.54267 0.066-0.792 0.066-0.27134 0-0.54267-0.022-0.814-0.066v-7.909"/>
   <path id="path4002" d="m51.643 6.7804h4.488c0.04399 0.22001 0.06599 0.44367 0.066 0.671-0.000006 0.24201-0.02201 0.47301-0.066 0.693h-2.882v1.859h2.288c0.04399 0.23467 0.066 0.462 0.066 0.682-0.000005 0.23467-0.02201 0.46567-0.066 0.693h-2.288v3.311c-0.27867 0.044-0.54267 0.066-0.792 0.066-0.27134 0-0.54267-0.022-0.814-0.066v-7.909"/>
  </g>
  <g id="text4327" style="opacity:.5;fill:#fff" transform="translate(-.056827)">
   <path id="path4489" style="fill:#fff" d="m41.288 14.821c-0.594 0-1.1073-0.10267-1.54-0.308-0.43267-0.20533-0.78834-0.48767-1.067-0.847-0.27867-0.36667-0.48767-0.79566-0.627-1.287-0.132-0.49866-0.198-1.0413-0.198-1.628-0.000001-0.58666 0.066-1.1293 0.198-1.628 0.13933-0.50599 0.34833-0.94233 0.627-1.309 0.27866-0.36666 0.63433-0.65266 1.067-0.858 0.43266-0.20533 0.946-0.30799 1.54-0.308 0.594 0.000008 1.1073 0.10267 1.54 0.308 0.43266 0.20534 0.78833 0.49134 1.067 0.858 0.27866 0.36667 0.48399 0.80301 0.616 1.309 0.13933 0.49867 0.20899 1.0413 0.209 1.628-0.000008 0.58667-0.06967 1.1293-0.209 1.628-0.13201 0.49134-0.33734 0.92033-0.616 1.287-0.27867 0.35933-0.63434 0.64167-1.067 0.847-0.43267 0.20533-0.946 0.308-1.54 0.308m0-1.342c1.1367 0.000001 1.705-0.90933 1.705-2.728-0.000006-0.90933-0.13934-1.5913-0.418-2.046-0.27134-0.45466-0.69667-0.68199-1.276-0.682-1.1513 0.0000066-1.727 0.90934-1.727 2.728-0.000003 1.8187 0.572 2.728 1.716 2.728"/>
   <path id="path4491" style="fill:#fff" d="m46.057 6.7804h4.488c0.044 0.22001 0.066 0.44367 0.066 0.671-0.000005 0.24201-0.02201 0.47301-0.066 0.693h-2.882v1.859h2.288c0.044 0.23467 0.066 0.462 0.066 0.682-0.000005 0.23467-0.02201 0.46567-0.066 0.693h-2.288v3.311c-0.27867 0.044-0.54267 0.066-0.792 0.066-0.27134 0-0.54267-0.022-0.814-0.066v-7.909"/>
   <path id="path4493" style="fill:#fff" d="m51.643 6.7804h4.488c0.04399 0.22001 0.06599 0.44367 0.066 0.671-0.000006 0.24201-0.02201 0.47301-0.066 0.693h-2.882v1.859h2.288c0.04399 0.23467 0.066 0.462 0.066 0.682-0.000005 0.23467-0.02201 0.46567-0.066 0.693h-2.288v3.311c-0.27867 0.044-0.54267 0.066-0.792 0.066-0.27134 0-0.54267-0.022-0.814-0.066v-7.909"/>
  </g>
 </g>
 <g id="layer1">
  <path id="path4541" style="opacity:.05;color:#000000" d="m5-0.9375c-3.2559 0-5.9375 2.6816-5.9375 5.9375v12c0 3.2559 2.6816 5.9375 5.9375 5.9375h24c3.2559 0 5.9375-2.6816 5.9375-5.9375v-12c0-3.2559-2.6816-5.9375-5.9375-5.9375h-24z"/>
  <path id="path4537" style="opacity:.1;color:#000000" d="m5 0c-2.7357 0-5 2.2643-5 5v12c0 2.7357 2.2643 5 5 5h24c2.7357 0 5-2.2643 5-5v-12c0-2.7357-2.264-5-5-5h-24z"/>
  <path id="path4531" style="opacity:.2;color:#000000" d="m5 1.0312c-2.1742 0-3.9688 1.7946-3.9688 3.9688v12c0 2.1742 1.7946 3.9688 3.9688 3.9688h24c2.1742 0 3.9688-1.7946 3.9688-3.9688v-12c0-2.1742-1.795-3.9688-3.969-3.9688h-24z"/>
  <rect id="rect3936" style="color:#000000;fill:url(#linearGradient3228-0)" rx="3" ry="3" height="18" width="30" y="2" x="2"/>
  <path id="rect4059" style="opacity:.6;color:#000000;fill:url(#linearGradient3077-4-9-4)" d="m5 2c-1.662 0-3 1.338-3 3v12c0 1.662 1.338 3 3 3h24c1.662 0 3-1.338 3-3v-12c0-1.662-1.338-3-3-3zm0 1h24c1.1256 0 2 0.87439 2 2v12c0 1.1256-0.87439 2-2 2h-24c-1.1256 0-2-0.874-2-2v-12c0-1.1256 0.8744-2 2-2z"/>
  <rect id="rect3206" style="opacity:.4;color:#000000;fill:url(#radialGradient4077-8-1)" height="10" width="1" y="6" x="13"/>
  <rect id="rect3984" style="opacity:.2;color:#000000;fill:url(#radialGradient3986-1-3)" height="10" width="1" y="6" x="12"/>
  <rect id="rect3999" style="opacity:.4;color:#000000;fill:url(#radialGradient4003-1-6)" height="10" width="1" y="6" x="17"/>
  <rect id="rect4001" style="opacity:.2;color:#000000;fill:url(#radialGradient4005-9-8)" height="10" width="1" y="6" x="16"/>
  <rect id="rect4007" style="opacity:.4;color:#000000;fill:url(#radialGradient4011-7-2)" height="10" width="1" y="6" x="21"/>
  <rect id="rect4009" style="opacity:.2;color:#000000;fill:url(#radialGradient4013-9-2)" height="10" width="1" y="6" x="20"/>
 </g>
</svg>
