/* XPM */
static char *close_pressed[] = {
/* columns rows colors chars-per-pixel */
"24 24 38 1 ",
"  c #007659",
". c #01775A",
"X c #02775A",
"o c #097A5E",
"O c #0A7A5F",
"+ c #0B7B5F",
"@ c #0C7C60",
"# c #0D7C61",
"$ c #288871",
"% c #298971",
"& c #2A8972",
"* c #2B8A73",
"= c #69A697",
"- c #6AA697",
"; c #6AA798",
": c #6BA798",
"> c #84BDAF",
", c #91B8AF",
"< c #92B9AF",
"1 c #87BFB1",
"2 c #93B9B0",
"3 c #8CC1B4",
"4 c #8DC2B5",
"5 c #8FC3B6",
"6 c #92C4B8",
"7 c #93C5B9",
"8 c #94C6B9",
"9 c #99C8BD",
"0 c #9AC9BD",
"q c #9ECBC0",
"w c #C6D0CE",
"e c #C7D1CE",
"r c #C8D1CF",
"t c gray85",
"y c #EEEEEE",
"u c #F9FCFB",
"i c #FBFDFC",
"p c white",
/* pixels */
"yyyyyyyyyyyyyyyyyyyyyyyy",
"tttttttttttttttttttttttt",
"tttttttttttttttttttttttt",
"tttttttttttttttttttttttt",
"tttttttttttttttttttttttt",
"ttttttttw=%oo&;wtttttttt",
"ttttttt,+      +<ttttttt",
"tttttt,.        .<tttttt",
"tttttw+          @ettttt",
"ttttt=   u1  >i   -ttttt",
"ttttt$   6p43p0   &ttttt",
"tttttO   .8ppqX   +ttttt",
"ttttt+   .5pp9.   @ttttt",
"ttttt%   3p77p4   &ttttt",
"ttttt;   u4..4u   :ttttt",
"tttttw+          #rttttt",
"tttttt<.        .2tttttt",
"ttttttt<@      #2ttttttt",
"tttttttte-*OO*:rtttttttt",
"tttttttttttttttttttttttt",
"tttttttttttttttttttttttt",
"tttttttttttttttttttttttt",
"tttttttttttttttttttttttt",
"tttttttttttttttttttttttt"
};
