/* XPM */
static char *close_active[] = {
/* columns rows colors chars-per-pixel */
"24 24 43 1 ",
"  c #00A87F",
". c #01A87F",
"X c #04AA81",
"o c #07A982",
"O c #06AA82",
"+ c #09AA83",
"@ c #0AAA83",
"# c #0BAA84",
"$ c #0CAB84",
"% c #0DAB85",
"& c #19B08B",
"* c #1BB08C",
"= c #28B190",
"- c #29B190",
"; c #2AB291",
": c #2BB291",
"> c #69C0AB",
", c #6AC0AB",
"< c #6BC0AB",
"1 c #91C9BB",
"2 c #92C9BC",
"3 c #93C9BC",
"4 c #ACDACF",
"5 c #B2DCD3",
"6 c #B3DCD3",
"7 c #B8DED6",
"8 c #BBDFD7",
"9 c #BEE0D8",
"0 c #C6D4D1",
"q c #C7D5D1",
"w c #C8D5D2",
"e c gray85",
"r c #C7E3DC",
"t c #CBE5DE",
"y c #CCE5DF",
"u c #CDE5DF",
"i c #CEE6E0",
"p c #CFE6E0",
"a c #D5E8E4",
"s c #EEEEEE",
"d c #F4F5F6",
"f c #F7F7F8",
"g c #F8F8F9",
/* pixels */
"ssssssssssssssssssssssss",
"eeeeeeeeeeeeeeeeeeeeeeee",
"eeeeeeeeeeeeeeeeeeeeeeee",
"eeeeeeeeeeeeeeeeeeeeeeee",
"eeeeeeeeeeeeeeeeeeeeeeee",
"eeeeeeee0>-++;,0eeeeeeee",
"eeeeeee1#      #2eeeeeee",
"eeeeee1.        .2eeeeee",
"eeeee0#  *    &  $qeeeee",
"eeeee>   ftXXrg   ,eeeee",
"eeeee=   6giug8   ;eeeee",
"eeeee#    7gg9    #eeeee",
"eeeee#   Opggao   $eeeee",
"eeeee-   yg55gy   ;eeeee",
"eeeee,   d4  4d   <eeeee",
"eeeee0#          %weeeee",
"eeeeee2.        .3eeeeee",
"eeeeeee2$      %3eeeeeee",
"eeeeeeeeq,:@@:<weeeeeeee",
"eeeeeeeeeeeeeeeeeeeeeeee",
"eeeeeeeeeeeeeeeeeeeeeeee",
"eeeeeeeeeeeeeeeeeeeeeeee",
"eeeeeeeeeeeeeeeeeeeeeeee",
"eeeeeeeeeeeeeeeeeeeeeeee"
};
