<?xml version="1.0" encoding="UTF-8" standalone="no"?>
<!-- Created with Inkscape (http://www.inkscape.org/) -->

<svg
   xmlns:dc="http://purl.org/dc/elements/1.1/"
   xmlns:cc="http://creativecommons.org/ns#"
   xmlns:rdf="http://www.w3.org/1999/02/22-rdf-syntax-ns#"
   xmlns:svg="http://www.w3.org/2000/svg"
   xmlns="http://www.w3.org/2000/svg"
   xmlns:sodipodi="http://sodipodi.sourceforge.net/DTD/sodipodi-0.dtd"
   xmlns:inkscape="http://www.inkscape.org/namespaces/inkscape"
   id="svg2"
   version="1.1"
   inkscape:version="0.48.4 r9939"
   width="226"
   height="150"
   sodipodi:docname="trash.svg"
   inkscape:export-filename="/home/wolffire/.themes/Cristal-Zaphyr/cinnamon/trash.png"
   inkscape:export-xdpi="90"
   inkscape:export-ydpi="90">
  <metadata
     id="metadata8">
    <rdf:RDF>
      <cc:Work
         rdf:about="">
        <dc:format>image/svg+xml</dc:format>
        <dc:type
           rdf:resource="http://purl.org/dc/dcmitype/StillImage" />
        <dc:title></dc:title>
      </cc:Work>
    </rdf:RDF>
  </metadata>
  <defs
     id="defs6">
    <filter
       inkscape:collect="always"
       id="filter3938">
      <feGaussianBlur
         inkscape:collect="always"
         stdDeviation="0.37426939"
         id="feGaussianBlur3940" />
    </filter>
  </defs>
  <sodipodi:namedview
     pagecolor="#ffffff"
     bordercolor="#666666"
     borderopacity="1"
     objecttolerance="10"
     gridtolerance="10"
     guidetolerance="10"
     inkscape:pageopacity="0"
     inkscape:pageshadow="2"
     inkscape:window-width="1366"
     inkscape:window-height="707"
     id="namedview4"
     showgrid="false"
     inkscape:zoom="1.6269714"
     inkscape:cx="167.97164"
     inkscape:cy="116.36226"
     inkscape:window-x="0"
     inkscape:window-y="24"
     inkscape:window-maximized="1"
     inkscape:current-layer="svg2" />
  <rect
     style="opacity:0.44047618;fill:#cccccc;fill-opacity:1;stroke:#9faeb4;stroke-opacity:1;filter:url(#filter3938)"
     id="rect3856"
     width="224.71802"
     height="149.55138"
     x="0.5"
     y="-0.051376343"
     rx="3.2004645"
     ry="3.9373794"
     transform="matrix(0.99813309,0,0,0.99169964,0.46034325,1.221888)" />
  <g
     id="g3850"
     transform="translate(39.222255,-6.180891)">
    <path
       inkscape:connector-curvature="0"
       id="rect2987"
       d="m 51.194358,71.950952 0,39.593748 c 0,2.5474 1.6746,4.59375 3.78125,4.59375 l 36.59375,0 c 2.10665,0 3.8125,-2.04635 3.8125,-4.59375 l 0,-39.593748 -44.1875,0 z m 9.96875,5.40625 0.875,0 c 0.99321,0 1.78125,2.046347 1.78125,4.59375 l 0,23.937498 c 0,2.5474 -0.78804,4.59375 -1.78125,4.59375 l -0.875,0 c -0.99321,0 -1.78125,-2.04635 -1.78125,-4.59375 l 0,-23.937498 c 0,-2.547403 0.78804,-4.59375 1.78125,-4.59375 z m 8,0 0.875,0 c 0.99321,0 1.78125,2.046347 1.78125,4.59375 l 0,23.937498 c 0,2.5474 -0.78804,4.59375 -1.78125,4.59375 l -0.875,0 c -0.99321,0 -1.78125,-2.04635 -1.78125,-4.59375 l 0,-23.937498 c 0,-2.547403 0.78804,-4.59375 1.78125,-4.59375 z m 8,0 0.875,0 c 0.99321,0 1.78125,2.046347 1.78125,4.59375 l 0,23.937498 c 0,2.5474 -0.78804,4.59375 -1.78125,4.59375 l -0.875,0 c -0.99321,0 -1.78125,-2.04635 -1.78125,-4.59375 l 0,-23.937498 c 0,-2.547403 0.78804,-4.59375 1.78125,-4.59375 z m 8,0 0.875,0 c 0.99321,0 1.78125,2.046347 1.78125,4.59375 l 0,23.937498 c 0,2.5474 -0.78804,4.59375 -1.78125,4.59375 l -0.875,0 c -0.99321,0 -1.78125,-2.04635 -1.78125,-4.59375 l 0,-23.937498 c 0,-2.547403 0.78804,-4.59375 1.78125,-4.59375 z"
       style="fill:#ffffff;fill-opacity:1;stroke:none" />
    <g
       id="g3846">
      <path
         style="fill:#ffffff;fill-opacity:1;stroke:none"
         d="m 50.338569,61.351688 c -2.270116,0 -4.09375,1.781294 -4.09375,4 l 0,2.90625 c 0,0.166665 0.04246,0.30754 0.0625,0.46875 l 52.75,0 c 0.02004,-0.16121 0.0625,-0.302085 0.0625,-0.46875 l 0,-2.90625 c 0,-2.218706 -1.823634,-4 -4.09375,-4 l -44.6875,0 z"
         id="rect3799"
         inkscape:connector-curvature="0" />
      <path
         style="fill:#ffffff;fill-opacity:1;stroke:none"
         d="m 63.334601,53.96875 c -2.270116,0 -4.09375,1.781294 -4.09375,4 l 0,3.8125 c 0,2.218706 1.823634,4 4.09375,4 l 17.625,0 c 2.270116,0 4.09375,-1.781294 4.09375,-4 l 0,-3.8125 c 0,-2.218706 -1.823634,-4 -4.09375,-4 l -17.625,0 z m 1.90625,2.375 14.09375,0 c 1.360728,0 2.5,0.787271 2.5,1.78125 l 0,3.0625 -19.09375,0 0,-3.0625 c 0,-0.993979 1.139273,-1.78125 2.5,-1.78125 z"
         id="rect3804"
         inkscape:connector-curvature="0" />
    </g>
  </g>
</svg>
