<?xml version="1.0" encoding="utf-8"?>
<!-- Generator: Adobe Illustrator 16.0.2, SVG Export Plug-In . SVG Version: 6.00 Build 0)  -->
<!DOCTYPE svg PUBLIC "-//W3C//DTD SVG 1.1//EN" "http://www.w3.org/Graphics/SVG/1.1/DTD/svg11.dtd">
<svg version="1.1"
	 id="svg2" xmlns:dc="http://purl.org/dc/elements/1.1/" xmlns:cc="http://creativecommons.org/ns#" xmlns:rdf="http://www.w3.org/1999/02/22-rdf-syntax-ns#" xmlns:svg="http://www.w3.org/2000/svg" xmlns:sodipodi="http://sodipodi.sourceforge.net/DTD/sodipodi-0.dtd" xmlns:inkscape="http://www.inkscape.org/namespaces/inkscape" sodipodi:docname="radiobutton.svg" inkscape:version="0.48.3.1 r9886"
	 xmlns="http://www.w3.org/2000/svg" xmlns:xlink="http://www.w3.org/1999/xlink" x="0px" y="0px" width="24px" height="24px"
	 viewBox="0 0 24 24" enable-background="new 0 0 24 24" xml:space="preserve">
<filter  id="filter4352" color-interpolation-filters="sRGB">
	<feGaussianBlur  stdDeviation="0.75" id="feGaussianBlur4354"></feGaussianBlur>
</filter>
<sodipodi:namedview  fit-margin-left="0" fit-margin-top="0" guidetolerance="10" gridtolerance="10" objecttolerance="10" showgrid="false" inkscape:cy="10.092769" inkscape:cx="25.874779" inkscape:zoom="4.4402956" borderopacity="1" bordercolor="#666666" pagecolor="#ffffff" id="namedview20" inkscape:window-maximized="0" inkscape:window-y="382" inkscape:window-x="92" inkscape:window-height="522" inkscape:window-width="707" inkscape:current-layer="g9" inkscape:pageshadow="2" inkscape:pageopacity="0" fit-margin-bottom="0" fit-margin-right="0">
	</sodipodi:namedview>
<title  id="title11">Layer 1</title>
<g id="path4346" inkscape:connector-curvature="0" filter="url(#filter4352)">
	<circle fill="#333333" cx="11.998" cy="12" r="10.006"/>
	<circle fill="none" stroke="#000000" stroke-miterlimit="10" cx="11.998" cy="12" r="10.006"/>
</g>
<path id="path4337" inkscape:connector-curvature="0" fill="#333333" stroke="#000000" stroke-miterlimit="10" stroke-opacity="0" d="
	M21.885,11.881c0,5.525-4.479,10.006-10.005,10.006c-5.526,0-10.006-4.48-10.006-10.006c0-5.526,4.48-10.005,10.006-10.005
	C17.406,1.875,21.885,6.355,21.885,11.881z"/>
<g id="g18353" transform="matrix(0.186326,0,0,0.186326,-2198.53,-1179.12)">
</g>
<g id="g18355" transform="matrix(0.186326,0,0,0.186326,-2198.53,-1179.12)">
</g>
<g id="g18357" transform="matrix(0.186326,0,0,0.186326,-2198.53,-1179.12)">
</g>
<g id="g18359" transform="matrix(0.186326,0,0,0.186326,-2198.53,-1179.12)">
</g>
<path id="path3787" inkscape:connector-curvature="0" fill="#FFFFFF" stroke="#FFFFFF" stroke-miterlimit="10" d="M16.438,12
	c0,2.452-1.987,4.438-4.438,4.438c-2.452,0-4.438-1.985-4.438-4.438c0-2.451,1.987-4.438,4.438-4.438
	C14.449,7.562,16.438,9.548,16.438,12z"/>
</svg>
