<?xml version="1.0" encoding="UTF-8" standalone="no"?>
<!-- Created with Inkscape (http://www.inkscape.org/) -->

<svg
   xmlns:dc="http://purl.org/dc/elements/1.1/"
   xmlns:cc="http://creativecommons.org/ns#"
   xmlns:rdf="http://www.w3.org/1999/02/22-rdf-syntax-ns#"
   xmlns:svg="http://www.w3.org/2000/svg"
   xmlns="http://www.w3.org/2000/svg"
   xmlns:sodipodi="http://sodipodi.sourceforge.net/DTD/sodipodi-0.dtd"
   xmlns:inkscape="http://www.inkscape.org/namespaces/inkscape"
   width="35"
   height="24"
   id="svg2"
   version="1.1"
   inkscape:version="0.91 r13725"
   sodipodi:docname="add-workspace-lighter.svg">
  <defs
     id="defs4" />
  <sodipodi:namedview
     id="base"
     pagecolor="#ffffff"
     bordercolor="#666666"
     borderopacity="1.0"
     inkscape:pageopacity="0.0"
     inkscape:pageshadow="2"
     inkscape:zoom="15.839192"
     inkscape:cx="15.954639"
     inkscape:cy="11.038265"
     inkscape:document-units="px"
     inkscape:current-layer="layer1"
     showgrid="false"
     fit-margin-top="0"
     fit-margin-left="0"
     fit-margin-right="0"
     fit-margin-bottom="0"
     inkscape:window-width="1280"
     inkscape:window-height="966"
     inkscape:window-x="0"
     inkscape:window-y="0"
     inkscape:window-maximized="1" />
  <metadata
     id="metadata7">
    <rdf:RDF>
      <cc:Work
         rdf:about="">
        <dc:format>image/svg+xml</dc:format>
        <dc:type
           rdf:resource="http://purl.org/dc/dcmitype/StillImage" />
        <dc:title />
      </cc:Work>
    </rdf:RDF>
  </metadata>
  <g
     inkscape:label="Layer 1"
     inkscape:groupmode="layer"
     id="layer1"
     transform="translate(5.6805248e-4,-1028.3437)">
    <path
       style="color:#000000;display:inline;overflow:visible;visibility:visible;fill:#000000;fill-opacity:1;fill-rule:nonzero;stroke:#000000;stroke-width:0;stroke-linejoin:round;stroke-miterlimit:4;stroke-dasharray:none;stroke-opacity:1;marker:none;enable-background:accumulate"
       d="m 7.2720675,1039.2476 c -0.15025,0.1519 -0.2713836,0.3435 -0.2717309,0.5735 l -8.997e-4,3.0188 c 3.95e-4,0.461 0.3834106,0.8441 0.844344,0.8443 l 6.8156101,0.029 -0.0026,6.7864 c 1.56e-4,0.4613 0.382851,0.8441 0.844235,0.8442 l 3.018933,0 c 0.461385,10e-5 0.845071,-0.3836 0.844914,-0.8449 l 0.0026,-6.786 6.786142,0 c 0.46093,2e-4 0.845305,-0.384 0.844913,-0.845 l 8.99e-4,-3.0189 c -2.81e-4,-0.461 -0.383411,-0.844 -0.844235,-0.8444 l -6.786139,0 -0.02763,-6.8165 c -1.58e-4,-0.4615 -0.382958,-0.8442 -0.844341,-0.8443 l -3.018937,0 c -0.230625,0 -0.452875,0.1517 -0.603357,0.302 -0.150483,0.1517 -0.241036,0.3128 -0.241554,0.5429 l -0.0026,6.7861 -6.7854439,0 c -0.2303554,-10e-5 -0.4229252,0.1213 -0.5731788,0.2718 z"
       id="rect2987-5"
       inkscape:connector-curvature="0"
       sodipodi:nodetypes="cccccccccccccccccccccccc" />
    <path
       style="color:#000000;display:inline;overflow:visible;visibility:visible;fill:#ffffff;fill-opacity:1;fill-rule:nonzero;stroke:#000000;stroke-width:0;stroke-linejoin:round;stroke-miterlimit:4;stroke-dasharray:none;stroke-opacity:1;marker:none;enable-background:accumulate"
       d="m 8.2720678,1038.2475 c -0.1502507,0.1519 -0.2713839,0.3436 -0.2717312,0.5736 l -8.997e-4,3.0187 c 3.95e-4,0.4611 0.3834103,0.8441 0.8443442,0.8444 l 6.8156109,0.029 -0.0026,6.7864 c 1.56e-4,0.4614 0.38285,0.8442 0.844234,0.8442 l 3.018932,0 c 0.461386,10e-5 0.845071,-0.3836 0.844915,-0.8448 l 0.0026,-6.7861 6.786143,0 c 0.46093,2e-4 0.845305,-0.3839 0.844912,-0.8449 l 8.99e-4,-3.019 c -2.81e-4,-0.461 -0.383411,-0.844 -0.844235,-0.8443 l -6.786139,0 -0.02763,-6.8166 c -1.58e-4,-0.4614 -0.382958,-0.8442 -0.844342,-0.8443 l -3.018935,0 c -0.230625,0 -0.452876,0.1517 -0.603358,0.302 -0.150483,0.1517 -0.241036,0.3128 -0.241554,0.5429 l -0.0026,6.7861 -6.7854451,0 c -0.2303544,-10e-5 -0.4229252,0.1213 -0.5731789,0.2718 z"
       id="rect2987"
       inkscape:connector-curvature="0"
       sodipodi:nodetypes="cccccccccccccccccccccccc" />
  </g>
</svg>
