<?xml version="1.0" encoding="UTF-8" standalone="no"?>
<!-- Created with Inkscape (http://www.inkscape.org/) -->

<svg
   xmlns:dc="http://purl.org/dc/elements/1.1/"
   xmlns:cc="http://creativecommons.org/ns#"
   xmlns:rdf="http://www.w3.org/1999/02/22-rdf-syntax-ns#"
   xmlns:svg="http://www.w3.org/2000/svg"
   xmlns="http://www.w3.org/2000/svg"
   xmlns:xlink="http://www.w3.org/1999/xlink"
   xmlns:sodipodi="http://sodipodi.sourceforge.net/DTD/sodipodi-0.dtd"
   xmlns:inkscape="http://www.inkscape.org/namespaces/inkscape"
   inkscape:export-ydpi="90.000000"
   inkscape:export-xdpi="90.000000"
   width="16"
   height="16"
   id="svg11300"
   sodipodi:version="0.32"
   inkscape:version="0.48.4 r9939"
   sodipodi:docname="radiobutton-checked-focused.svg"
   inkscape:output_extension="org.inkscape.output.svg.inkscape"
   version="1.0"
   style="display:inline;enable-background:new">
  <sodipodi:namedview
     stroke="#ef2929"
     fill="#f57900"
     id="base"
     pagecolor="#8c8c8c"
     bordercolor="#ff5e00"
     borderopacity="1"
     inkscape:pageopacity="1"
     inkscape:pageshadow="2"
     inkscape:zoom="15.431818"
     inkscape:cx="12"
     inkscape:cy="8.3342918"
     inkscape:current-layer="layer1"
     showgrid="true"
     inkscape:grid-bbox="true"
     inkscape:document-units="px"
     inkscape:showpageshadow="false"
     inkscape:window-width="1600"
     inkscape:window-height="846"
     inkscape:window-x="0"
     inkscape:window-y="25"
     width="400px"
     height="300px"
     inkscape:snap-nodes="true"
     inkscape:snap-bbox="true"
     gridtolerance="10000"
     inkscape:object-nodes="true"
     inkscape:snap-grids="true"
     showguides="true"
     inkscape:guide-bbox="true"
     inkscape:window-maximized="1"
     inkscape:bbox-nodes="true"
     inkscape:bbox-paths="false"
     inkscape:snap-bbox-edge-midpoints="false"
     inkscape:snap-bbox-midpoints="false"
     objecttolerance="10000"
     guidetolerance="10000"
     borderlayer="true"
     showborder="true"
     guidecolor="#ff0b00"
     guideopacity="1"
     guidehicolor="#001aff"
     guidehiopacity="0.49803922"
     inkscape:snap-smooth-nodes="true">
    <inkscape:grid
       type="xygrid"
       id="grid3123"
       empspacing="4"
       visible="true"
       enabled="true"
       snapvisiblegridlinesonly="true" />
  </sodipodi:namedview>
  <defs
     id="defs3">
    <linearGradient
       id="linearGradient3771">
      <stop
         style="stop-color:#ffffff;stop-opacity:1;"
         offset="0"
         id="stop3773" />
      <stop
         style="stop-color:#eaeaea;stop-opacity:1;"
         offset="1"
         id="stop3775" />
    </linearGradient>
    <linearGradient
       inkscape:collect="always"
       xlink:href="#linearGradient3771"
       id="linearGradient4044"
       x1="17.333334"
       y1="13.83333"
       x2="17.333334"
       y2="0.99999666"
       gradientUnits="userSpaceOnUse" />
  </defs>
  <metadata
     id="metadata4">
    <rdf:RDF>
      <cc:Work
         rdf:about="">
        <dc:format>image/svg+xml</dc:format>
        <dc:type
           rdf:resource="http://purl.org/dc/dcmitype/StillImage" />
        <dc:creator>
          <cc:Agent>
            <dc:title />
          </cc:Agent>
        </dc:creator>
        <dc:source />
        <cc:license
           rdf:resource="" />
        <dc:title></dc:title>
        <dc:subject>
          <rdf:Bag />
        </dc:subject>
        <dc:date />
        <dc:rights>
          <cc:Agent>
            <dc:title />
          </cc:Agent>
        </dc:rights>
        <dc:publisher>
          <cc:Agent>
            <dc:title />
          </cc:Agent>
        </dc:publisher>
        <dc:identifier />
        <dc:relation />
        <dc:language />
        <dc:coverage />
        <dc:description />
        <dc:contributor>
          <cc:Agent>
            <dc:title />
          </cc:Agent>
        </dc:contributor>
      </cc:Work>
      <cc:Work
         rdf:about="">
        <dc:format>image/svg+xml</dc:format>
        <dc:type
           rdf:resource="http://purl.org/dc/dcmitype/StillImage" />
      </cc:Work>
    </rdf:RDF>
  </metadata>
  <g
     style="display:inline"
     inkscape:groupmode="layer"
     inkscape:label="Base"
     id="layer1"
     transform="translate(0,-284)">
    <path
       sodipodi:type="arc"
       style="opacity:0.4;fill:#000000;fill-opacity:1;stroke:none"
       id="path4034"
       sodipodi:cx="8"
       sodipodi:cy="8"
       sodipodi:rx="7"
       sodipodi:ry="7"
       d="M 15,8 A 7,7 0 1 1 1,8 7,7 0 1 1 15,8 z"
       transform="translate(0,284)" />
    <path
       transform="matrix(0.85714286,0,0,0.85714286,1.1428571,285.14286)"
       d="M 15,8 A 7,7 0 1 1 1,8 7,7 0 1 1 15,8 z"
       sodipodi:ry="7"
       sodipodi:rx="7"
       sodipodi:cy="8"
       sodipodi:cx="8"
       id="path4036"
       style="opacity:1;fill:#ffffff;fill-opacity:1;stroke:none"
       sodipodi:type="arc" />
    <path
       style="opacity:0.07999998;fill:#000000;fill-opacity:1;stroke:none"
       d="m 8,286 c -3.3137085,0 -6,2.68629 -6,6 0,0.12447 0.023779,0.25241 0.03125,0.375 C 2.33851,289.34946 4.8933983,287 8,287 c 3.106602,0 5.66149,2.34946 5.96875,5.375 C 13.976221,292.25241 14,292.12447 14,292 c 0,-3.31371 -2.686291,-6 -6,-6 z"
       id="path4046"
       inkscape:connector-curvature="0" />
    <path
       style="opacity:0.03999999;fill:#000000;fill-opacity:1;stroke:none"
       d="m 8,286 c -3.3137085,0 -6,2.68629 -6,6 0,0.33809 0.040011,0.67716 0.09375,1 0.4729774,-2.84141 2.9306293,-5 5.90625,-5 2.975621,0 5.433273,2.15859 5.90625,5 C 13.959989,292.67716 14,292.33809 14,292 c 0,-3.31371 -2.686291,-6 -6,-6 z"
       id="path4055"
       inkscape:connector-curvature="0" />
    <path
       inkscape:connector-curvature="0"
       id="path4064"
       d="m 8,298 c -3.3137085,0 -6,-2.68629 -6,-6 0,-0.12447 0.023779,-0.25241 0.03125,-0.375 C 2.33851,294.65054 4.8933983,297 8,297 c 3.106602,0 5.66149,-2.34946 5.96875,-5.375 C 13.97625,291.74759 14,291.87553 14,292 c 0,3.31371 -2.686291,6 -6,6 z"
       style="opacity:0.07999998;fill:#000000;fill-opacity:1;stroke:none" />
    <path
       style="opacity:0.29999999999999999;fill:#ffffff;fill-opacity:0.29803923;stroke:none"
       d="M 1.03125 8.5 C 1.0195795 8.6652555 1 8.8317746 1 9 C 1 12.865993 4.1340068 16 8 16 C 11.865993 16 15 12.865993 15 9 C 15 8.8317746 14.98042 8.6652555 14.96875 8.5 C 14.712221 12.132486 11.697768 15 8 15 C 4.3022322 15 1.2877786 12.132486 1.03125 8.5 z "
       transform="translate(0,284)"
       id="path4087" />
  </g>
</svg>
