<?xml version="1.0" encoding="UTF-8" standalone="no"?>
<!-- Created with Inkscape (http://www.inkscape.org/) -->
<svg id="svg3273" xmlns:rdf="http://www.w3.org/1999/02/22-rdf-syntax-ns#" xmlns="http://www.w3.org/2000/svg" height="22" width="64" version="1.1" xmlns:cc="http://creativecommons.org/ns#" xmlns:xlink="http://www.w3.org/1999/xlink" xmlns:dc="http://purl.org/dc/elements/1.1/">
 <defs id="defs3275">
  <radialGradient id="radialGradient4013-9-2" xlink:href="#linearGradient3988-5-7" gradientUnits="userSpaceOnUse" cy="11" cx="42.5" gradientTransform="matrix(11,0,0,10,-417,-99)"/>
  <linearGradient id="linearGradient3988-5-7">
   <stop id="stop3990-8-2" offset="0"/>
   <stop id="stop3997-5-7" style="stop-opacity:.70588" offset="0.6"/>
   <stop id="stop3993-8-6" style="stop-opacity:0" offset="1"/>
  </linearGradient>
  <radialGradient id="radialGradient4011-7-2" xlink:href="#linearGradient3976-2-0" gradientUnits="userSpaceOnUse" cy="11" cx="42.5" gradientTransform="matrix(11,0,0,10,-416,-99)"/>
  <linearGradient id="linearGradient3976-2-0">
   <stop id="stop3978-8-5" style="stop-color:#fff" offset="0"/>
   <stop id="stop3995-9-0" style="stop-color:#fff;stop-opacity:.70588" offset="0.6"/>
   <stop id="stop3980-6-1" style="stop-color:#fff;stop-opacity:0" offset="1"/>
  </linearGradient>
  <radialGradient id="radialGradient4005-9-8" xlink:href="#linearGradient3988-5-7" gradientUnits="userSpaceOnUse" cy="11" cx="42.5" gradientTransform="matrix(11,0,0,10,-421,-99)"/>
  <radialGradient id="radialGradient4003-1-6" xlink:href="#linearGradient3976-2-0" gradientUnits="userSpaceOnUse" cy="11" cx="42.5" gradientTransform="matrix(11,0,0,10,-420,-99)"/>
  <radialGradient id="radialGradient3986-1-3" xlink:href="#linearGradient3988-5-7" gradientUnits="userSpaceOnUse" cy="11" cx="42.5" gradientTransform="matrix(11,0,0,10,-425,-99)"/>
  <radialGradient id="radialGradient4077-8-1" gradientUnits="userSpaceOnUse" xlink:href="#linearGradient3976-2-0" cx="42.5" cy="11" gradientTransform="matrix(11,0,0,10,-424,-99)"/>
  <linearGradient id="linearGradient3077-4-9-4" y2="28" gradientUnits="userSpaceOnUse" y1="1" gradientTransform="translate(-2,-1)" x2="41" x1="41">
   <stop id="stop3992-5-7-1" style="stop-color:#fff" offset="0"/>
   <stop id="stop3994-0-8-2" style="stop-color:#fff;stop-opacity:0" offset="1"/>
  </linearGradient>
  <linearGradient id="linearGradient3228-0" y2="2" gradientUnits="userSpaceOnUse" y1="21" gradientTransform="translate(-2,-1)" x2="48" x1="48">
   <stop id="stop3940-9-2" style="stop-color:#a0a0a0" offset="0"/>
   <stop id="stop3942-9-2" style="stop-color:#dcdcdc" offset="1"/>
  </linearGradient>
  <linearGradient id="linearGradient4621" y2=".49999" gradientUnits="userSpaceOnUse" x2="40.812" gradientTransform="matrix(-1 0 0 -1 64.5 20.5)" y1="18.5" x1="40.812">
   <stop id="stop3923-6-1" style="stop-color:#333" offset="0"/>
   <stop id="stop3925-4-6" style="stop-color:#555" offset="1"/>
  </linearGradient>
  <filter id="filter4125" height="1.3257" width="1.19" y="-.16284" x="-.095004">
   <feGaussianBlur id="feGaussianBlur4127" stdDeviation="0.55455469"/>
  </filter>
 </defs>
 <metadata id="metadata3278">
  <rdf:RDF>
   <cc:Work rdf:about="">
    <dc:format>image/svg+xml</dc:format>
    <dc:type rdf:resource="http://purl.org/dc/dcmitype/StillImage"/>
    <dc:title/>
   </cc:Work>
  </rdf:RDF>
 </metadata>
 <g id="layer1">
  <path id="path4619" style="color:#000000;fill:url(#linearGradient4621)" d="m5 3c-1.1224 0-2 0.8776-2 2v12c0 1.1224 0.8776 2 2 2h54c1.1224 0 2-0.8776 2-2v-12c0-1.1224-0.878-2-2-2h-54z"/>
  <path id="rect4052" style="opacity:.08;color:#000000" d="m5 2c-1.662 0-3 1.338-3 3v12c0 1.662 1.338 3 3 3h54c1.662 0 3-1.338 3-3v-12c0-1.662-1.338-3-3-3zm0 3h54v12h-54z"/>
  <path id="rect4042" style="opacity:.12;color:#000000" d="m5 2c-1.662 0-3 1.338-3 3v12c0 1.662 1.338 3 3 3h54c1.662 0 3-1.338 3-3v-12c0-1.662-1.338-3-3-3zm0 2h54c0.5825 0 1 0.4175 1 1v12c0 0.5825-0.4175 1-1 1h-54c-0.5825 0-1-0.418-1-1v-12c0-0.5825 0.4175-1 1-1z"/>
  <path id="rect4038" style="opacity:.2;color:#000000;fill:#fff" d="m5 2c-1.662 0-3 1.338-3 3v12c0 1.662 1.338 3 3 3h54c1.662 0 3-1.338 3-3v-12c0-1.662-1.338-3-3-3zm0 1h54c1.1174 0 2 0.88261 2 2v12c0 1.1174-0.88261 2-2 2h-54c-1.1174 0-2-0.883-2-2v-12c0-1.1174 0.8826-2 2-2z"/>
  <g id="g3351" style="opacity:.5;filter:url(#filter4125)" transform="translate(0.875 1.1169)">
   <path id="path3353" d="m12.055 14.753c-0.594-0.000001-1.1073-0.10267-1.54-0.308-0.43267-0.20533-0.78834-0.48767-1.067-0.847-0.27867-0.36667-0.48767-0.79566-0.627-1.287-0.132-0.49866-0.198-1.0413-0.198-1.628-6e-7 -0.58666 0.065999-1.1293 0.198-1.628 0.13933-0.50599 0.34833-0.94233 0.627-1.309 0.27866-0.36666 0.63433-0.65266 1.067-0.858 0.43266-0.20533 0.946-0.30799 1.54-0.308 0.594 0.0000081 1.1073 0.10267 1.54 0.308 0.43266 0.20534 0.78833 0.49134 1.067 0.858 0.27866 0.36667 0.48399 0.80301 0.616 1.309 0.13933 0.49867 0.20899 1.0413 0.209 1.628-0.000008 0.58667-0.06967 1.1293-0.209 1.628-0.13201 0.49134-0.33734 0.92033-0.616 1.287-0.27867 0.35933-0.63434 0.64167-1.067 0.847-0.43267 0.20533-0.946 0.308-1.54 0.308m0-1.342c1.1367 0.000001 1.705-0.90933 1.705-2.728-0.000006-0.90933-0.13934-1.5913-0.418-2.046-0.27134-0.45466-0.69667-0.68199-1.276-0.682-1.1513 0.0000067-1.727 0.90934-1.727 2.728-0.000002 1.8187 0.572 2.728 1.716 2.728"/>
   <path id="path3355" d="m16.824 6.7121c0.22733-0.043992 0.44367-0.065992 0.649-0.066 0.22 0.000008 0.44733 0.022008 0.682 0.066l3.058 5.038v-5.038c0.264-0.043992 0.517-0.065992 0.759-0.066 0.22733 0.000008 0.44733 0.022008 0.66 0.066v7.909c-0.23467 0.044-0.44734 0.066-0.638 0.066-0.20534-0.000001-0.429-0.022-0.671-0.066l-3.08-5.027v5.027c-0.23467 0.044-0.473 0.066-0.715 0.066-0.242-0.000001-0.47667-0.022-0.704-0.066v-7.909"/>
  </g>
  <g id="text4327-4" style="fill:#fff;fill-opacity:.98413" transform="translate(0.875 .31688)">
   <path id="path5129" style="fill:#fff;fill-opacity:.98413" d="m12.055 14.753c-0.594-0.000001-1.1073-0.10267-1.54-0.308-0.43267-0.20533-0.78834-0.48767-1.067-0.847-0.27867-0.36667-0.48767-0.79566-0.627-1.287-0.132-0.49866-0.198-1.0413-0.198-1.628-6e-7 -0.58666 0.065999-1.1293 0.198-1.628 0.13933-0.50599 0.34833-0.94233 0.627-1.309 0.27866-0.36666 0.63433-0.65266 1.067-0.858 0.43266-0.20533 0.946-0.30799 1.54-0.308 0.594 0.0000081 1.1073 0.10267 1.54 0.308 0.43266 0.20534 0.78833 0.49134 1.067 0.858 0.27866 0.36667 0.48399 0.80301 0.616 1.309 0.13933 0.49867 0.20899 1.0413 0.209 1.628-0.000008 0.58667-0.06967 1.1293-0.209 1.628-0.13201 0.49134-0.33734 0.92033-0.616 1.287-0.27867 0.35933-0.63434 0.64167-1.067 0.847-0.43267 0.20533-0.946 0.308-1.54 0.308m0-1.342c1.1367 0.000001 1.705-0.90933 1.705-2.728-0.000006-0.90933-0.13934-1.5913-0.418-2.046-0.27134-0.45466-0.69667-0.68199-1.276-0.682-1.1513 0.0000067-1.727 0.90934-1.727 2.728-0.000002 1.8187 0.572 2.728 1.716 2.728"/>
   <path id="path5131" style="fill:#fff;fill-opacity:.98413" d="m16.824 6.7121c0.22733-0.043992 0.44367-0.065992 0.649-0.066 0.22 0.000008 0.44733 0.022008 0.682 0.066l3.058 5.038v-5.038c0.264-0.043992 0.517-0.065992 0.759-0.066 0.22733 0.000008 0.44733 0.022008 0.66 0.066v7.909c-0.23467 0.044-0.44734 0.066-0.638 0.066-0.20534-0.000001-0.429-0.022-0.671-0.066l-3.08-5.027v5.027c-0.23467 0.044-0.473 0.066-0.715 0.066-0.242-0.000001-0.47667-0.022-0.704-0.066v-7.909"/>
  </g>
 </g>
 <g id="layer2">
  <path id="path4541" style="opacity:.05;color:#000000" d="m5-0.9375c-3.2559 0-5.9375 2.6816-5.9375 5.9375v12c0 3.2559 2.6816 5.9375 5.9375 5.9375h24c3.2559 0 5.9375-2.6816 5.9375-5.9375v-12c0-3.2559-2.6816-5.9375-5.9375-5.9375h-24z" transform="translate(30)"/>
  <path id="path4537" style="opacity:.1;color:#000000" d="m5 0c-2.7357 0-5 2.2643-5 5v12c0 2.7357 2.2643 5 5 5h24c2.7357 0 5-2.2643 5-5v-12c0-2.7357-2.264-5-5-5h-24z" transform="translate(30)"/>
  <path id="path4531" style="opacity:.2;color:#000000" d="m5 1.0312c-2.1742 0-3.9688 1.7946-3.9688 3.9688v12c0 2.1742 1.7946 3.9688 3.9688 3.9688h24c2.1742 0 3.9688-1.7946 3.9688-3.9688v-12c0-2.1742-1.795-3.9688-3.969-3.9688h-24z" transform="translate(30)"/>
  <rect id="rect3936" style="color:#000000;fill:url(#linearGradient3228-0)" rx="3" ry="3" height="18" width="30" y="2" x="32"/>
  <path id="rect4059" style="opacity:.6;color:#000000;fill:url(#linearGradient3077-4-9-4)" d="m35 2c-1.662 0-3 1.338-3 3v12c0 1.662 1.338 3 3 3h24c1.662 0 3-1.338 3-3v-12c0-1.662-1.338-3-3-3zm0 1h24c1.1256 0 2 0.87439 2 2v12c0 1.1256-0.87439 2-2 2h-24c-1.1256 0-2-0.87439-2-2v-12c0-1.1256 0.87439-2 2-2z"/>
  <rect id="rect3206" style="opacity:.4;color:#000000;fill:url(#radialGradient4077-8-1)" height="10" width="1" y="6" x="43"/>
  <rect id="rect3984" style="opacity:.2;color:#000000;fill:url(#radialGradient3986-1-3)" height="10" width="1" y="6" x="42"/>
  <rect id="rect3999" style="opacity:.4;color:#000000;fill:url(#radialGradient4003-1-6)" height="10" width="1" y="6" x="47"/>
  <rect id="rect4001" style="opacity:.2;color:#000000;fill:url(#radialGradient4005-9-8)" height="10" width="1" y="6" x="46"/>
  <rect id="rect4007" style="opacity:.4;color:#000000;fill:url(#radialGradient4011-7-2)" height="10" width="1" y="6" x="51"/>
  <rect id="rect4009" style="opacity:.2;color:#000000;fill:url(#radialGradient4013-9-2)" height="10" width="1" y="6" x="50"/>
 </g>
</svg>
