<?xml version="1.0" encoding="UTF-8" standalone="no"?>
<!-- Created with Inkscape (http://www.inkscape.org/) -->
<svg id="svg25070" xmlns:rdf="http://www.w3.org/1999/02/22-rdf-syntax-ns#" xmlns="http://www.w3.org/2000/svg" height="96" width="96" version="1.1" xmlns:cc="http://creativecommons.org/ns#" xmlns:xlink="http://www.w3.org/1999/xlink" xmlns:dc="http://purl.org/dc/elements/1.1/">
 <metadata id="metadata25075">
  <rdf:RDF>
   <cc:Work rdf:about="">
    <dc:format>image/svg+xml</dc:format>
    <dc:type rdf:resource="http://purl.org/dc/dcmitype/StillImage"/>
    <dc:title/>
   </cc:Work>
  </rdf:RDF>
 </metadata>
 <g id="layer1" transform="translate(0 48)">
  <g id="g3181" transform="matrix(0 1 -1 0 48 -48)">
   <g id="g4030-1-8" style="stroke:#000" transform="matrix(2 0 0 2 193.25 -374.97)">
    <path id="path3165-7-3" style="color:#000000;stroke:#000;stroke-linecap:round;stroke-width:7;fill:none" d="m-72.5 173.5-14 14 14 14"/>
   </g>
   <path id="path4050-2-7-9-4" style="color:#000000" d="m-36.5 186.41c0 1.1564-0.9374 2.0938-2.0938 2.0938-1.1563 0-2.0938-0.9374-2.0938-2.0938s0.9374-2.0938 2.0938-2.0938c1.1563 0 2.0938 0.9374 2.0938 2.0938z" transform="matrix(3.3433 0 0 3.3433 185.28 -623.18)"/>
   <path id="path4050-2-7-9-4-8" style="color:#000000" d="m-36.5 186.41c0 1.1564-0.9374 2.0938-2.0938 2.0938-1.1563 0-2.0938-0.9374-2.0938-2.0938s0.9374-2.0938 2.0938-2.0938c1.1563 0 2.0938 0.9374 2.0938 2.0938z" transform="matrix(3.3433 0 0 3.3433 207.28 -623.18)"/>
   <path id="path4050-2-7-9-4-0" style="color:#000000;stroke:#000;stroke-linecap:round;stroke-width:.69792;fill:none" d="m-36.5 186.41c0 1.1564-0.9374 2.0938-2.0938 2.0938-1.1563 0-2.0938-0.9374-2.0938-2.0938s0.9374-2.0938 2.0938-2.0938c1.1563 0 2.0938 0.9374 2.0938 2.0938z" transform="matrix(2.8656 0 0 2.8656 166.85 -534.14)"/>
   <path id="path4050-2-7-9-4-0-9" style="color:#000000;stroke:#000;stroke-linecap:round;stroke-width:.69792;fill:none" d="m-36.5 186.41c0 1.1564-0.9374 2.0938-2.0938 2.0938-1.1563 0-2.0938-0.9374-2.0938-2.0938s0.9374-2.0938 2.0938-2.0938c1.1563 0 2.0938 0.9374 2.0938 2.0938z" transform="matrix(2.8656 0 0 2.8656 188.85 -534.14)"/>
   <path id="path3165-7-3-1" style="opacity:.35;color:#000000;text-indent:0pt;stroke:#000;text-transform:none;fill:none" d="m317.06 365.97c-0.76948 0.0224-1.5256 0.35464-2.0625 0.90625l-16.125 16.125 16.125 16.125c1.1126 1.1126 3.1374 1.1126 4.25 0s1.1126-3.1374 0-4.25l-11.875-11.875 11.875-11.875c0.86584-0.83655 1.1475-2.2211 0.6773-3.3295-0.47021-1.1083-1.6616-1.868-2.8648-1.8268z" transform="matrix(2 0 0 2 -586 -765.97)"/>
   <path id="path3165-7-3-1-9" style="color:#000000;text-indent:0pt;stroke:#000;stroke-linecap:round;text-transform:none;fill:none" d="m320.08 397.03c0.007-0.79449-0.27079-1.592-0.83434-2.1556l-11.87-11.87m12.552-15.204c-0.47021-1.1083-1.6616-1.868-2.8648-1.8268-0.76948 0.0224-1.5256 0.35464-2.0625 0.90625l-16.12 16.12" transform="matrix(2 0 0 2 -586 -765.97)"/>
  </g>
 </g>
</svg>
