<?xml version="1.0" encoding="UTF-8" standalone="no"?>
<!-- Created with Inkscape (http://www.inkscape.org/) -->

<svg
   xmlns:dc="http://purl.org/dc/elements/1.1/"
   xmlns:cc="http://creativecommons.org/ns#"
   xmlns:rdf="http://www.w3.org/1999/02/22-rdf-syntax-ns#"
   xmlns:svg="http://www.w3.org/2000/svg"
   xmlns="http://www.w3.org/2000/svg"
   xmlns:sodipodi="http://sodipodi.sourceforge.net/DTD/sodipodi-0.dtd"
   xmlns:inkscape="http://www.inkscape.org/namespaces/inkscape"
   width="65"
   height="22"
   id="svg3012"
   version="1.1"
   inkscape:version="0.91 r13725"
   sodipodi:docname="toggle-off-us.svg">
  <sodipodi:namedview
     id="base"
     pagecolor="#ffffff"
     bordercolor="#666666"
     borderopacity="1.0"
     inkscape:pageopacity="0.0"
     inkscape:pageshadow="2"
     inkscape:zoom="16"
     inkscape:cx="44.616997"
     inkscape:cy="7.435491"
     inkscape:document-units="px"
     inkscape:current-layer="layer1"
     showgrid="false"
     inkscape:window-width="1366"
     inkscape:window-height="715"
     inkscape:window-x="0"
     inkscape:window-y="0"
     inkscape:window-maximized="1" />
  <defs
     id="defs3014">
    <linearGradient
       id="linearGradient3773">
      <stop
         style="stop-color:#3d5576;stop-opacity:1;"
         offset="0"
         id="stop3775" />
      <stop
         style="stop-color:#354b67;stop-opacity:1;"
         offset="1"
         id="stop3777" />
    </linearGradient>
    <inkscape:perspective
       sodipodi:type="inkscape:persp3d"
       inkscape:vp_x="0 : 526.18109 : 1"
       inkscape:vp_y="0 : 1000 : 0"
       inkscape:vp_z="744.09448 : 526.18109 : 1"
       inkscape:persp3d-origin="372.04724 : 350.78739 : 1"
       id="perspective3020" />
    <inkscape:perspective
       id="perspective2997"
       inkscape:persp3d-origin="0.5 : 0.33333333 : 1"
       inkscape:vp_z="1 : 0.5 : 1"
       inkscape:vp_y="0 : 1000 : 0"
       inkscape:vp_x="0 : 0.5 : 1"
       sodipodi:type="inkscape:persp3d" />
  </defs>
  <metadata
     id="metadata3017">
    <rdf:RDF>
      <cc:Work
         rdf:about="">
        <dc:format>image/svg+xml</dc:format>
        <dc:type
           rdf:resource="http://purl.org/dc/dcmitype/StillImage" />
        <dc:title />
      </cc:Work>
    </rdf:RDF>
  </metadata>
  <g
     inkscape:label="Layer 1"
     inkscape:groupmode="layer"
     id="layer1"
     transform="translate(-343,-521.36218)">
    <rect
       style="fill:#262626;fill-opacity:1;stroke:#212121;stroke-width:2;stroke-linecap:round;stroke-linejoin:miter;stroke-miterlimit:4;stroke-opacity:1;stroke-dasharray:none;stroke-dashoffset:0;display:inline"
       id="rect17458"
       width="31"
       height="20"
       x="-375"
       y="522.36218"
       rx="0"
       ry="0"
       transform="scale(-1,1)" />
    <g
       style="display:inline"
       id="g17460"
       transform="matrix(-1,0,0,1,1161.3825,438.08279)">
      <path
         inkscape:connector-curvature="0"
         id="path17462"
         d="m 803.6322,115.48629 0,4.29495"
         style="fill:none;stroke:#5f5f5f;stroke-width:1px;stroke-linecap:round;stroke-linejoin:miter;stroke-opacity:1" />
      <path
         inkscape:connector-curvature="0"
         id="path17464"
         d="m 806.62805,115.48629 0,4.29495"
         style="fill:none;stroke:#5f5f5f;stroke-width:1px;stroke-linecap:round;stroke-linejoin:miter;stroke-opacity:1;display:inline" />
      <path
         inkscape:connector-curvature="0"
         id="path17466"
         d="m 809.6239,115.48629 0,4.29495"
         style="fill:none;stroke:#5f5f5f;stroke-width:1px;stroke-linecap:round;stroke-linejoin:miter;stroke-opacity:1;display:inline" />
    </g>
    <g
       transform="translate(-452.78428,449.04714)"
       id="text17468"
       style="font-size:8.95877074999999934px;font-style:normal;font-variant:normal;font-weight:bold;font-stretch:normal;text-indent:0;text-align:start;text-decoration:none;line-height:125%;letter-spacing:normal;word-spacing:normal;text-transform:none;direction:ltr;block-progression:tb;writing-mode:lr-tb;text-anchor:start;color:#000000;fill:#4d4d4d;fill-opacity:1;fill-rule:nonzero;stroke:none;stroke-width:1px;marker:none;visibility:visible;display:inline;overflow:visible;enable-background:accumulate;font-family:Cantarell;-inkscape-font-specification:Cantarell Bold">
      <path
         inkscape:connector-curvature="0"
         id="path18599"
         style="line-height:125%;fill:#4d4d4d;fill-opacity:1;marker:none;font-family:Cantarell;-inkscape-font-specification:Cantarell Bold"
         d="m 837.28518,80.750726 c 0.63282,6e-6 1.19566,0.123947 1.68852,0.371824 0.49284,0.247888 0.8807,0.609505 1.16359,1.084851 0.28287,0.472439 0.42431,1.022155 0.42431,1.649149 0,0.635748 -0.13853,1.200045 -0.41556,1.692892 -0.27706,0.489934 -0.66638,0.870507 -1.16797,1.141719 -0.5016,0.271213 -1.07756,0.406819 -1.72789,0.406819 -0.42869,0 -0.83551,-0.06562 -1.22045,-0.196848 -0.38495,-0.134148 -0.73053,-0.32808 -1.03674,-0.581795 -0.30329,-0.256631 -0.54534,-0.589085 -0.72615,-0.997363 -0.17789,-0.408276 -0.26684,-0.869045 -0.26683,-1.382311 -10e-6,-0.638658 0.13997,-1.200039 0.41994,-1.684144 0.27996,-0.487011 0.66782,-0.858835 1.16359,-1.115472 0.49576,-0.259541 1.06297,-0.389315 1.70164,-0.389321 m 0.57305,1.089225 c -0.20123,-0.05249 -0.40683,-0.07873 -0.61679,-0.07874 -0.20998,5e-6 -0.41412,0.02625 -0.61242,0.07874 -0.19831,0.04958 -0.38933,0.129779 -0.57305,0.240592 -0.18081,0.107907 -0.33974,0.242055 -0.47681,0.402445 -0.13706,0.160399 -0.24642,0.358705 -0.32808,0.594918 -0.0816,0.233306 -0.12248,0.491395 -0.12248,0.774269 0,0.67366 0.20851,1.214627 0.62554,1.622903 0.41702,0.408278 0.93758,0.612416 1.56166,0.612416 0.25954,0 0.51034,-0.04229 0.7524,-0.126858 0.24496,-0.08457 0.47097,-0.20997 0.67803,-0.376198 0.20705,-0.166226 0.37328,-0.392236 0.49868,-0.678032 0.12539,-0.285792 0.18809,-0.610956 0.1881,-0.975492 -10e-6,-0.297455 -0.0437,-0.568668 -0.13123,-0.813638 -0.0875,-0.247878 -0.20415,-0.453475 -0.34995,-0.61679 -0.14291,-0.163307 -0.31059,-0.301829 -0.50306,-0.415568 -0.18956,-0.11373 -0.38641,-0.195385 -0.59054,-0.244967" />
      <path
         sodipodi:nodetypes="ccccccccccc"
         inkscape:connector-curvature="0"
         id="path18601"
         style="line-height:125%;fill:#4d4d4d;fill-opacity:1;marker:none;font-family:Cantarell;-inkscape-font-specification:Cantarell Bold"
         d="m 843.5362,81.831203 0,1.17917 2.94834,0 0,1.014861 -2.94834,0 0,3.00713 -1.10673,0 0,-6.216022 4.31754,0 0,1.014861 -3.21081,0" />
      <path
         sodipodi:nodetypes="ccccccccccc"
         inkscape:connector-curvature="0"
         id="path18603"
         style="line-height:125%;fill:#4d4d4d;fill-opacity:1;marker:none;font-family:Cantarell;-inkscape-font-specification:Cantarell Bold"
         d="m 849.71285,81.831203 0,1.17917 2.94834,0 0,1.014861 -2.94834,0 0,3.00713 -1.10672,0 0,-6.216022 4.31753,0 0,1.014861 -3.21081,0" />
    </g>
    <path
       transform="matrix(1.0158729,0,0,1.0158729,362.82118,545.9363)"
       d="M 51.625,11.5625 A 3.9375,3.9375 0 0 1 47.6875,15.5 3.9375,3.9375 0 0 1 43.75,11.5625 3.9375,3.9375 0 0 1 47.6875,7.625 3.9375,3.9375 0 0 1 51.625,11.5625 Z"
       sodipodi:ry="3.9375"
       sodipodi:rx="3.9375"
       sodipodi:cy="11.5625"
       sodipodi:cx="47.6875"
       id="path18722"
       style="color:#000000;fill:none;stroke:#131313;stroke-width:1.96875012;stroke-linecap:round;stroke-linejoin:miter;stroke-miterlimit:4;stroke-opacity:1;stroke-dasharray:none;stroke-dashoffset:0;marker:none;visibility:visible;display:inline;overflow:visible;enable-background:accumulate"
       sodipodi:type="arc" />
    <path
       style="fill:#ffffff;fill-opacity:1"
       d="m 40.914647,13.661113 c -0.439342,-0.123274 -0.682294,-0.278914 -1.017687,-0.651951 -0.466531,-0.518896 -0.6366,-1.295028 -0.446671,-2.038446 0.128018,-0.501089 0.32602,-0.80601 0.699276,-1.076883 1.127688,-0.8183636 2.908934,-0.3320315 3.339336,0.911736 0.148069,0.42789 0.147584,1.203486 -0.001,1.633091 -0.329378,0.952196 -1.520208,1.517919 -2.573232,1.222453 z"
       id="path4713"
       inkscape:connector-curvature="0"
       transform="translate(343,521.36218)" />
    <path
       style="fill:#ffffff;fill-opacity:1"
       d="m -0.870503,14.595759 0,-28.46875 45.53125,0 45.53125,0 0,28.46875 0,28.46875 -45.53125,0 -45.53125,0 0,-28.46875 z m 70.34375,26.590033 c 0.983637,-0.232973 1.945619,-0.835562 2.659344,-1.665828 0.4026,-0.468332 0.895206,-1.470947 1.037525,-2.111705 0.350656,-1.578706 -0.122007,-3.312687 -1.222557,-4.485019 -1.022912,-1.089626 -2.222631,-1.609319 -3.712775,-1.608293 -2.170656,0.0015 -4.034512,1.354401 -4.735131,3.437062 -0.37005,1.100023 -0.317787,2.458054 0.1356,3.523495 0.827063,1.943578 2.838556,3.189551 4.931744,3.054854 0.223438,-0.01438 0.63125,-0.07943 0.90625,-0.144566 z M 9.1342276,36.840724 9.285747,36.679438 l 0,-2.344126 0,-2.344126 -0.17536,-0.150838 c -0.2291581,-0.197114 -0.5038019,-0.196109 -0.7024806,0.0026 l -0.1534094,0.153411 0,2.358188 c 0,2.335187 0.00132,2.359598 0.1358944,2.502841 0.1929843,0.205422 0.5425706,0.197605 0.7438362,-0.01663 z m 2.9756164,0.02539 0.144653,-0.135895 0,-2.390819 0,-2.390819 -0.164679,-0.129537 c -0.09057,-0.07124 -0.241467,-0.129536 -0.335321,-0.129536 -0.09385,0 -0.244748,0.05829 -0.335321,0.129536 l -0.164679,0.129537 0,2.38206 c 0,2.359698 0.0013,2.383419 0.135894,2.526714 0.179266,0.190819 0.521227,0.194982 0.719453,0.0088 z m 3,0 0.144653,-0.135895 0,-2.366947 0,-2.366946 -0.153409,-0.153409 c -0.198679,-0.198679 -0.473323,-0.199684 -0.702481,-0.0026 l -0.17536,0.150838 0,2.344126 0,2.344126 0.151519,0.161286 c 0.194974,0.207539 0.528911,0.219074 0.735078,0.02539 l 0,-2e-6 z m 17.894653,-25.864106 0,-11 -16.53125,0 -16.53125,0 0,11 0,11 16.53125,0 16.53125,0 0,-11 z m 9.28125,3.718067 c 1.686144,-0.355582 2.706542,-1.841941 2.482584,-3.616246 -0.209695,-1.6612979 -1.444622,-2.6724729 -3.263834,-2.6724729 -1.072074,0 -1.846353,0.2984681 -2.469754,0.9520394 -0.70532,0.7394535 -0.985735,1.8128025 -0.775009,2.9665085 0.316369,1.732094 2.092741,2.77787 4.026013,2.370171 z m 5.46875,-1.466936 0,-1.498868 1.484375,-0.01676 1.484375,-0.01676 0.01815,-0.515625 0.01815,-0.515625 -1.502528,0 -1.502527,0 0,-0.5625 0,-0.5625 1.625,0 1.625,0 0,-0.53125 0,-0.53125 -2.1875,0 -2.1875,0 0,3.125 0,3.125 0.5625,0 0.5625,0 0,-1.498869 z m 6.1875,-0.0011 0,-1.5 1.46875,0 1.46875,0 0,-0.53125 0,-0.53125 -1.46875,0 -1.46875,0 0,-0.561445 0,-0.561445 1.609375,-0.01668 1.609375,-0.01668 0.01815,-0.515625 0.01815,-0.515625 -2.190028,0 -2.190027,0 0,3.125 0,3.125 0.5625,0 0.5625,0 0,-1.5 z"
       id="path4725"
       inkscape:connector-curvature="0"
       transform="translate(343,521.36218)" />
    <path
       style="fill:#ffffff;fill-opacity:1"
       d="m 40.967644,13.68112 c -0.391243,-0.08802 -0.90203,-0.426512 -1.160334,-0.768941 -0.612015,-0.811343 -0.556013,-2.15697 0.117812,-2.830795 0.381381,-0.3813814 0.766131,-0.5340997 1.423125,-0.5648791 0.465366,-0.021802 0.623506,-0.00336 0.915784,0.1067873 0.554234,0.2088708 0.888108,0.5011508 1.127074,0.9866638 0.191742,0.389566 0.206893,0.465088 0.203797,1.015829 -0.0035,0.623846 -0.111107,0.988209 -0.400462,1.356063 -0.465482,0.591765 -1.400089,0.885255 -2.226796,0.699272 z"
       id="path4727"
       inkscape:connector-curvature="0"
       transform="translate(343,521.36218)" />
  </g>
</svg>
