<?xml version="1.0" encoding="UTF-8" standalone="no"?>
<!-- Created with Inkscape (http://www.inkscape.org/) -->

<svg
   xmlns:dc="http://purl.org/dc/elements/1.1/"
   xmlns:cc="http://creativecommons.org/ns#"
   xmlns:rdf="http://www.w3.org/1999/02/22-rdf-syntax-ns#"
   xmlns:svg="http://www.w3.org/2000/svg"
   xmlns="http://www.w3.org/2000/svg"
   xmlns:sodipodi="http://sodipodi.sourceforge.net/DTD/sodipodi-0.dtd"
   xmlns:inkscape="http://www.inkscape.org/namespaces/inkscape"
   sodipodi:docname="toggle-off-intl.svg"
   inkscape:version="0.91 r13725"
   version="1.1"
   id="svg3012"
   height="22"
   width="65">
  <sodipodi:namedview
     inkscape:window-maximized="1"
     inkscape:window-y="0"
     inkscape:window-x="0"
     inkscape:window-height="715"
     inkscape:window-width="1366"
     showgrid="false"
     inkscape:current-layer="layer1"
     inkscape:document-units="px"
     inkscape:cy="6.0826289"
     inkscape:cx="34.261519"
     inkscape:zoom="22.853692"
     inkscape:pageshadow="2"
     inkscape:pageopacity="0.0"
     borderopacity="1.0"
     bordercolor="#666666"
     pagecolor="#ffffff"
     id="base" />
  <defs
     id="defs3014">
    <linearGradient
       id="linearGradient3773">
      <stop
         style="stop-color:#3d5576;stop-opacity:1;"
         offset="0"
         id="stop3775" />
      <stop
         style="stop-color:#354b67;stop-opacity:1;"
         offset="1"
         id="stop3777" />
    </linearGradient>
    <inkscape:perspective
       sodipodi:type="inkscape:persp3d"
       inkscape:vp_x="0 : 526.18109 : 1"
       inkscape:vp_y="0 : 1000 : 0"
       inkscape:vp_z="744.09448 : 526.18109 : 1"
       inkscape:persp3d-origin="372.04724 : 350.78739 : 1"
       id="perspective3020" />
    <inkscape:perspective
       id="perspective2997"
       inkscape:persp3d-origin="0.5 : 0.33333333 : 1"
       inkscape:vp_z="1 : 0.5 : 1"
       inkscape:vp_y="0 : 1000 : 0"
       inkscape:vp_x="0 : 0.5 : 1"
       sodipodi:type="inkscape:persp3d" />
  </defs>
  <metadata
     id="metadata3017">
    <rdf:RDF>
      <cc:Work
         rdf:about="">
        <dc:format>image/svg+xml</dc:format>
        <dc:type
           rdf:resource="http://purl.org/dc/dcmitype/StillImage" />
        <dc:title />
      </cc:Work>
    </rdf:RDF>
  </metadata>
  <g
     inkscape:label="Layer 1"
     inkscape:groupmode="layer"
     id="layer1"
     transform="translate(-343,-521.36218)">
    <rect
       style="color:#000000;fill:#ebebeb;fill-opacity:1;stroke:#e6e6e6;stroke-width:1;stroke-linecap:round;stroke-linejoin:miter;stroke-miterlimit:4;stroke-opacity:1;stroke-dasharray:none;stroke-dashoffset:0;marker:none;visibility:visible;display:inline;overflow:visible;enable-background:accumulate"
       id="rect17456"
       width="63.000004"
       height="19"
       x="-406.5"
       y="522.86218"
       rx="0"
       ry="0"
       transform="scale(-1,1)" />
    <rect
       style="fill:#262626;fill-opacity:1;stroke:#212121;stroke-width:2;stroke-linecap:round;stroke-linejoin:miter;stroke-miterlimit:4;stroke-opacity:1;stroke-dasharray:none;stroke-dashoffset:0;display:inline"
       id="rect17458"
       width="31"
       height="20"
       x="-375"
       y="522.36218"
       rx="0"
       ry="0"
       transform="scale(-1,1)" />
    <g
       style="display:inline"
       id="g17460"
       transform="matrix(-1,0,0,1,1161.3825,438.08279)">
      <path
         inkscape:connector-curvature="0"
         id="path17462"
         d="m 803.6322,115.48629 0,4.29495"
         style="fill:none;stroke:#5f5f5f;stroke-width:1px;stroke-linecap:round;stroke-linejoin:miter;stroke-opacity:1" />
      <path
         inkscape:connector-curvature="0"
         id="path17464"
         d="m 806.62805,115.48629 0,4.29495"
         style="fill:none;stroke:#5f5f5f;stroke-width:1px;stroke-linecap:round;stroke-linejoin:miter;stroke-opacity:1;display:inline" />
      <path
         inkscape:connector-curvature="0"
         id="path17466"
         d="m 809.6239,115.48629 0,4.29495"
         style="fill:none;stroke:#5f5f5f;stroke-width:1px;stroke-linecap:round;stroke-linejoin:miter;stroke-opacity:1;display:inline" />
    </g>
    <g
       transform="translate(-451.79418,478.75011)"
       id="text17468"
       style="font-size:8.95877075px;font-style:normal;font-variant:normal;font-weight:bold;font-stretch:normal;text-indent:0;text-align:start;text-decoration:none;line-height:125%;letter-spacing:normal;word-spacing:normal;text-transform:none;direction:ltr;block-progression:tb;writing-mode:lr-tb;text-anchor:start;color:#000000;fill:#131313;fill-opacity:1;fill-rule:nonzero;stroke:none;stroke-width:1px;marker:none;visibility:visible;display:inline;overflow:visible;enable-background:accumulate;font-family:Cantarell;-inkscape-font-specification:Cantarell Bold">
      <path
         inkscape:connector-curvature="0"
         id="path18599"
         style="line-height:125%;fill:#131313;fill-opacity:1;marker:none;font-family:Cantarell;-inkscape-font-specification:Cantarell Bold"
         d="m 837.28518,80.750726 c 0.63282,6e-6 1.19566,0.123947 1.68852,0.371824 0.49284,0.247888 0.8807,0.609505 1.16359,1.084851 0.28287,0.472439 0.42431,1.022155 0.42431,1.649149 0,0.635748 -0.13853,1.200045 -0.41556,1.692892 -0.27706,0.489934 -0.66638,0.870507 -1.16797,1.141719 -0.5016,0.271213 -1.07756,0.406819 -1.72789,0.406819 -0.42869,0 -0.83551,-0.06562 -1.22045,-0.196848 -0.38495,-0.134148 -0.73053,-0.32808 -1.03674,-0.581795 -0.30329,-0.256631 -0.54534,-0.589085 -0.72615,-0.997363 -0.17789,-0.408276 -0.26684,-0.869045 -0.26683,-1.382311 -10e-6,-0.638658 0.13997,-1.200039 0.41994,-1.684144 0.27996,-0.487011 0.66782,-0.858835 1.16359,-1.115472 0.49576,-0.259541 1.06297,-0.389315 1.70164,-0.389321 m 0.57305,1.089225 c -0.20123,-0.05249 -0.40683,-0.07873 -0.61679,-0.07874 -0.20998,5e-6 -0.41412,0.02625 -0.61242,0.07874 -0.19831,0.04958 -0.38933,0.129779 -0.57305,0.240592 -0.18081,0.107907 -0.33974,0.242055 -0.47681,0.402445 -0.13706,0.160399 -0.24642,0.358705 -0.32808,0.594918 -0.0816,0.233306 -0.12248,0.491395 -0.12248,0.774269 0,0.67366 0.20851,1.214627 0.62554,1.622903 0.41702,0.408278 0.93758,0.612416 1.56166,0.612416 0.25954,0 0.51034,-0.04229 0.7524,-0.126858 0.24496,-0.08457 0.47097,-0.20997 0.67803,-0.376198 0.20705,-0.166226 0.37328,-0.392236 0.49868,-0.678032 0.12539,-0.285792 0.18809,-0.610956 0.1881,-0.975492 -10e-6,-0.297455 -0.0437,-0.568668 -0.13123,-0.813638 -0.0875,-0.247878 -0.20415,-0.453475 -0.34995,-0.61679 -0.14291,-0.163307 -0.31059,-0.301829 -0.50306,-0.415568 -0.18956,-0.11373 -0.38641,-0.195385 -0.59054,-0.244967" />
      <path
         sodipodi:nodetypes="ccccccccccc"
         inkscape:connector-curvature="0"
         id="path18601"
         style="line-height:125%;fill:#131313;fill-opacity:1;marker:none;font-family:Cantarell;-inkscape-font-specification:Cantarell Bold"
         d="m 843.5362,81.831203 0,1.17917 2.94834,0 0,1.014861 -2.94834,0 0,3.00713 -1.10673,0 0,-6.216022 4.31754,0 0,1.014861 -3.21081,0" />
      <path
         sodipodi:nodetypes="ccccccccccc"
         inkscape:connector-curvature="0"
         id="path18603"
         style="line-height:125%;fill:#131313;fill-opacity:1;marker:none;font-family:Cantarell;-inkscape-font-specification:Cantarell Bold"
         d="m 849.71285,81.831203 0,1.17917 2.94834,0 0,1.014861 -2.94834,0 0,3.00713 -1.10672,0 0,-6.216022 4.31753,0 0,1.014861 -3.21081,0" />
    </g>
    <path
       transform="matrix(1.0158729,0,0,1.0158729,342.40039,520.19373)"
       d="M 51.625,11.5625 A 3.9375,3.9375 0 0 1 47.6875,15.5 3.9375,3.9375 0 0 1 43.75,11.5625 3.9375,3.9375 0 0 1 47.6875,7.625 3.9375,3.9375 0 0 1 51.625,11.5625 Z"
       sodipodi:ry="3.9375"
       sodipodi:rx="3.9375"
       sodipodi:cy="11.5625"
       sodipodi:cx="47.6875"
       id="path18722"
       style="color:#000000;fill:none;stroke:#4d4d4d;stroke-width:1.96875011999999994;stroke-linecap:round;stroke-linejoin:miter;stroke-miterlimit:4;stroke-opacity:1;stroke-dasharray:none;stroke-dashoffset:0;marker:none;visibility:visible;display:inline;overflow:visible;enable-background:accumulate"
       sodipodi:type="arc" />
    <path
       style="fill:#000000;fill-opacity:0"
       d="m 33.053221,10.976844 0,-10.02050595 15.467961,0.0221207 15.467961,0.0221207 0.02225,9.9983845 0.02225,9.998385 -15.49021,0 -15.49021,0 0,-10.020505 z m 16.410184,4.348104 c 1.551045,-0.539976 2.672531,-1.678473 3.156955,-3.204837 0.578095,-1.821521 0.113906,-3.7381314 -1.231101,-5.0831387 -0.976875,-0.9768743 -2.16989,-1.472107 -3.546305,-1.472107 -0.836329,0 -1.459315,0.1458526 -2.240516,0.5245472 -2.230638,1.0813208 -3.31959,3.7347963 -2.503894,6.1012915 0.556982,1.615914 1.828014,2.807024 3.467041,3.249033 0.245296,0.06615 0.839803,0.122339 1.321126,0.124863 0.739405,0.0039 0.983939,-0.03329 1.576694,-0.239652 z"
       id="path3370"
       inkscape:connector-curvature="0"
       transform="translate(343,521.36218)" />
    <path
       style="fill:#ffffff;fill-opacity:1"
       d="m 33.053221,10.976844 0,-10.02050595 15.467961,0.0221207 15.467961,0.0221207 0.02225,9.9983845 0.02225,9.998385 -15.49021,0 -15.49021,0 0,-10.020505 z m 16.410184,4.348104 c 1.551045,-0.539976 2.672531,-1.678473 3.156955,-3.204837 0.578095,-1.821521 0.113906,-3.7381314 -1.231101,-5.0831387 -0.976875,-0.9768743 -2.16989,-1.472107 -3.546305,-1.472107 -0.836329,0 -1.459315,0.1458526 -2.240516,0.5245472 -2.230638,1.0813208 -3.31959,3.7347963 -2.503894,6.1012915 0.556982,1.615914 1.828014,2.807024 3.467041,3.249033 0.245296,0.06615 0.839803,0.122339 1.321126,0.124863 0.739405,0.0039 0.983939,-0.03329 1.576694,-0.239652 z"
       id="path3372"
       inkscape:connector-curvature="0"
       transform="translate(343,521.36218)" />
    <path
       style="fill:#ffffff;fill-opacity:1"
       d="M 47.087819,13.429156 C 46.235167,13.189839 45.480411,12.541216 45.117378,11.735797 44.854405,11.15237 44.852648,10.00141 45.113852,9.4265944 45.375608,8.8505656 46.0329,8.17948 46.615622,7.8933099 47.04111,7.684356 47.208693,7.6524764 47.851706,7.6581675 c 0.868549,0.00769 1.350458,0.1846063 1.930666,0.7087898 1.615641,1.4596346 1.229804,3.9906937 -0.746253,4.8953627 -0.586137,0.268342 -1.352759,0.33399 -1.9483,0.166836 z"
       id="path4174"
       inkscape:connector-curvature="0"
       transform="translate(343,521.36218)" />
    <path
       style="fill:#ffffff;fill-opacity:1"
       d="m 47.147838,13.440129 c -0.601518,-0.145413 -1.290494,-0.60929 -1.669992,-1.124379 -0.419662,-0.569603 -0.538957,-0.954009 -0.538957,-1.736685 0,-0.9434678 0.172033,-1.3556759 0.850771,-2.0385341 0.707766,-0.7120615 1.256198,-0.9304136 2.20034,-0.8760398 0.577433,0.033255 0.955155,0.1299178 1.280474,0.3276868 1.233604,0.7499368 1.788452,2.1475291 1.374433,3.4620191 -0.248698,0.789603 -0.794551,1.4098 -1.561269,1.773913 -0.572095,0.271687 -1.340734,0.355872 -1.9358,0.212019 z"
       id="path4721"
       inkscape:connector-curvature="0"
       transform="translate(343,521.36218)" />
    <path
       style="fill:#ffffff;fill-opacity:1"
       d="m 6.3005119,27.184697 0,-5.185158 13.3676431,0 13.367643,0 0.0012,-0.51414 c 0.0015,-0.633711 0.0013,-20.2679683 -1.31e-4,-20.98129246 l -0.001,-0.51414012 -13.367643,0 -13.3676431,0 0,-3.74118982 0,-3.7411898 31.8766881,0 31.876687,0 0,19.9311342 0,19.931134 -27.391635,0 -27.391636,0 0,-0.146677 c 0,-0.205793 -0.165224,-0.432538 -0.362592,-0.497604 -0.326583,-0.107662 -0.625714,0.09723 -0.674654,0.462104 l -0.02444,0.182177 -0.954203,0 -0.954203,0 -0.02981,-0.19879 c -0.05394,-0.359677 -0.384028,-0.569493 -0.692911,-0.440434 -0.204255,0.08534 -0.3328,0.26692 -0.3328,0.470099 l 0,0.169125 -0.978833,0 -0.9788325,0 -0.022501,-0.199629 C 9.2252421,31.818902 8.915967,31.616617 8.5870025,31.726876 8.3913715,31.792445 8.270229,31.952723 8.2387149,32.187678 l -0.024435,0.182177 -0.9568839,0 -0.956884,0 0,-5.185158 z M 48.795266,15.50586 c 1.392019,-0.266444 2.636374,-1.141358 3.377095,-2.374454 0.709259,-1.180731 0.882658,-2.804652 0.440209,-4.1226893 -0.748794,-2.2306138 -2.953192,-3.6641839 -5.262582,-3.4223771 -2.577007,0.2698282 -4.51271,2.3978441 -4.51271,4.9610494 0,1.056619 0.293098,2.018773 0.876822,2.878343 0.243305,0.358284 0.772341,0.909913 1.133747,1.182165 0.565081,0.425685 1.474748,0.81856 2.102552,0.908069 0.451856,0.06442 1.485065,0.05876 1.844867,-0.01011 z"
       id="path4723"
       inkscape:connector-curvature="0"
       transform="translate(343,521.36218)" />
  </g>
</svg>
