/* XPM */
static char * close_active_xpm[] = {
"28 36 135 2",
"  	c None",
". 	c #313133",
"+ 	c #4B5252",
"@ 	c #4B5251",
"# 	c #4A5251",
"$ 	c #4A5152",
"% 	c #4B5151",
"& 	c #4A5252",
"* 	c #4B5152",
"= 	c #4A5151",
"- 	c #495151",
"; 	c #4A5150",
"> 	c #495150",
", 	c #495050",
"' 	c #4A5051",
") 	c #4A5050",
"! 	c #495051",
"~ 	c #494F50",
"{ 	c #484F4F",
"] 	c #48504F",
"^ 	c #49504F",
"/ 	c #485156",
"( 	c #3C6FA3",
"_ 	c #2987D6",
": 	c #1694F0",
"< 	c #0A97F8",
"[ 	c #1594F0",
"} 	c #2987D5",
"| 	c #3D6EA3",
"1 	c #485157",
"2 	c #485050",
"3 	c #494F4F",
"4 	c #3C6CA0",
"5 	c #1494F1",
"6 	c #0B93EF",
"7 	c #018BE2",
"8 	c #0083D5",
"9 	c #007FD0",
"0 	c #1495F0",
"a 	c #3C6DA0",
"b 	c #494F4E",
"c 	c #474F4F",
"d 	c #484E4E",
"e 	c #484E4F",
"f 	c #485151",
"g 	c #307EC6",
"h 	c #0997F7",
"i 	c #0085DA",
"j 	c #007DCC",
"k 	c #0086DA",
"l 	c #0998F7",
"m 	c #317FC5",
"n 	c #474E4F",
"o 	c #474E4E",
"p 	c #474D4E",
"q 	c #0994F2",
"r 	c #0080D0",
"s 	c #317DC4",
"t 	c #464D4E",
"u 	c #3A6BA0",
"v 	c #3C6C9D",
"w 	c #474D4C",
"x 	c #464D4D",
"y 	c #474F51",
"z 	c #1495F1",
"A 	c #1395F1",
"B 	c #454D53",
"C 	c #464C4D",
"D 	c #454C4C",
"E 	c #464C4C",
"F 	c #3A6DA2",
"G 	c #0A93EF",
"H 	c #396DA1",
"I 	c #454C4B",
"J 	c #464C4B",
"K 	c #2787D6",
"L 	c #018BE1",
"M 	c #018CE2",
"N 	c #2885D3",
"O 	c #454B4B",
"P 	c #1492EF",
"Q 	c #1493EF",
"R 	c #444A4B",
"S 	c #444A4A",
"T 	c #0799F9",
"U 	c #0998F9",
"V 	c #444B4B",
"W 	c #0899F8",
"X 	c #0997F8",
"Y 	c #434A4A",
"Z 	c #434A49",
"` 	c #1392EF",
" .	c #434949",
"..	c #424949",
"+.	c #2686D5",
"@.	c #2685D3",
"#.	c #424848",
"$.	c #424948",
"%.	c #376BA1",
"&.	c #0993EF",
"*.	c #0993F1",
"=.	c #376B9F",
"-.	c #424849",
";.	c #424847",
">.	c #414A4E",
",.	c #1293F0",
"'.	c #0086DB",
").	c #1294F1",
"!.	c #414950",
"~.	c #414747",
"{.	c #414748",
"].	c #37699D",
"^.	c #0898F6",
"/.	c #0797F6",
"(.	c #37689B",
"_.	c #424747",
":.	c #2C7DC4",
"<.	c #0794F2",
"[.	c #2C7AC2",
"}.	c #414949",
"|.	c #2C7BC3",
"1.	c #0798F6",
"2.	c #2C7CC2",
"3.	c #37699C",
"4.	c #1294F0",
"5.	c #0082D5",
"6.	c #1293EF",
"7.	c #37679A",
"8.	c #40484F",
"9.	c #366BA0",
"0.	c #2584D4",
"a.	c #1393EF",
"b.	c #0897F8",
"c.	c #366A9F",
"d.	c #41494D",
". . . . . . . . . . . . . . . . . . . . . . . . . . . . ",
"+ + + + + + + + + + + + + + + + + + + + + + + + + + + + ",
"+ + + + + + + + + + + + + + + + + + + + + + + + + + + + ",
"+ + + + + + + + + + + + + + + + + + + + + + + + + + + + ",
"@ @ + + # $ + @ % + % + @ & @ + # $ + @ @ @ @ @ * @ @ + ",
"% % = = * % @ $ $ = * # % = % = * % @ $ % = % = $ % % = ",
"- - - - ; > = , ' ' > ; ) ! - - ; > = , ; = = ; = - - - ",
"! ! , , , ) , ! ) > , , , ) ! , , ) , ! ! , , , ) ! ! , ",
"~ ~ { { ] ^ , ~ ~ / ( _ : < < [ } | 1 ~ 2 ] , ~ ^ ~ ~ { ",
"{ { 3 3 { { { { 4 5 6 7 8 9 9 8 7 6 0 a 3 { { { b { { 3 ",
"c c d d e e f g h i j j j j j j j j k l m f n d d c c d ",
"o o o o p d g q 9 j j j j j j j j j j r q s p o o o o o ",
"p p t t p u h r j j j j j j j j j j j j 9 l v p p p p t ",
"w w x x y z k j j j j j j j j j j j j j j k A B C w w x ",
"D D E E F G j j j j j j j j j j j j j j j j G H E D D E ",
"I I J J K L j j j j j j j j j j j j j j j j M N D I I J ",
"O O O O P 8 j j j j j j j j j j j j j j j j 8 Q O O O O ",
"R R S S T 9 j j j j j j j j j j j j j j j j 9 U V R R S ",
"S S S S W r j j j j j j j j j j j j j j j j r X Y S S S ",
"Y Y Z Z ` 8 j j j j j j j j j j j j j j j j 8 P Z Y Y Z ",
" . .....+.7 j j j j j j j j j j j j j j j j 7 @. . . ...",
"#.#.$.$.%.&.j j j j j j j j j j j j j j j j *.=.-.#.#.$.",
";.;.#.#.>.,.k j j j j j j j j j j j j j j '.).!.#.;.;.#.",
"~.~.{.{.{.].^.9 j j j j j j j j j j j j 9 /.(.~._.~.~.{.",
"~.~.~.~.~.~.:.<.9 j j j j j j j j j j 9 <.[.~.~.~.~.~.~.",
"~.~.~.~.~.~.}.|.1.k j j j j j j j j './.2.}.~.~.~.~.~.~.",
"~.~.~.~.~.~.~.~.3.4.&.7 5.r r 8 7 *.6.7.~.~.~.~.~.~.~.~.",
"~.~.~.~.~.~.~.~.~.8.9.0.a.b.b.a.0.c.d.~.~.~.~.~.~.~.~.~.",
"~.~.~.~.~.~.~.~.~.~.~.~.~.~.~.~.~.~.~.~.~.~.~.~.~.~.~.~.",
"~.~.~.~.~.~.~.~.~.~.~.~.~.~.~.~.~.~.~.~.~.~.~.~.~.~.~.~.",
"~.~.~.~.~.~.~.~.~.~.~.~.~.~.~.~.~.~.~.~.~.~.~.~.~.~.~.~.",
"~.~.~.~.~.~.~.~.~.~.~.~.~.~.~.~.~.~.~.~.~.~.~.~.~.~.~.~.",
"~.~.~.~.~.~.~.~.~.~.~.~.~.~.~.~.~.~.~.~.~.~.~.~.~.~.~.~.",
"~.~.~.~.~.~.~.~.~.~.~.~.~.~.~.~.~.~.~.~.~.~.~.~.~.~.~.~.",
"~.~.~.~.~.~.~.~.~.~.~.~.~.~.~.~.~.~.~.~.~.~.~.~.~.~.~.~.",
"~.~.~.~.~.~.~.~.~.~.~.~.~.~.~.~.~.~.~.~.~.~.~.~.~.~.~.~."};
