/* XPM */
static char * hide_inactive_xpm[] = {
"28 36 101 2",
"  	c None",
". 	c #313133",
"+ 	c #4B5252",
"@ 	c #4B5251",
"# 	c #4A5251",
"$ 	c #4A5152",
"% 	c #4B5151",
"& 	c #4A5252",
"* 	c #4B5152",
"= 	c #4A5151",
"- 	c #495151",
"; 	c #4A5150",
"> 	c #495150",
", 	c #495050",
"' 	c #4A5051",
") 	c #4A5050",
"! 	c #495051",
"~ 	c #494F50",
"{ 	c #484F4F",
"] 	c #48504F",
"^ 	c #49504F",
"/ 	c #565A59",
"( 	c #606262",
"_ 	c #666666",
": 	c #6A6A6A",
"< 	c #555959",
"[ 	c #485050",
"} 	c #494F4F",
"| 	c #545858",
"1 	c #676868",
"2 	c #656565",
"3 	c #5B5B5B",
"4 	c #535353",
"5 	c #505050",
"6 	c #5A5A5A",
"7 	c #686868",
"8 	c #494F4E",
"9 	c #474F4F",
"0 	c #484E4E",
"a 	c #484E4F",
"b 	c #5C5E5E",
"c 	c #696969",
"d 	c #565656",
"e 	c #4E4E4E",
"f 	c #575757",
"g 	c #5D5F5F",
"h 	c #474E4F",
"i 	c #474E4E",
"j 	c #474D4E",
"k 	c #515151",
"l 	c #5C5F5E",
"m 	c #464D4E",
"n 	c #535757",
"o 	c #545757",
"p 	c #474D4C",
"q 	c #464D4D",
"r 	c #676767",
"s 	c #474D4D",
"t 	c #464C4D",
"u 	c #454C4C",
"v 	c #464C4C",
"w 	c #535758",
"x 	c #454C4B",
"y 	c #464C4B",
"z 	c #5F6060",
"A 	c #454B4B",
"B 	c #545454",
"C 	c #444B4B",
"D 	c #444A4B",
"E 	c #444A4A",
"F 	c #6B6B6B",
"G 	c #454B4A",
"H 	c #434A4A",
"I 	c #434A49",
"J 	c #656666",
"K 	c #666767",
"L 	c #44494A",
"M 	c #434949",
"N 	c #424949",
"O 	c #5F6161",
"P 	c #424948",
"Q 	c #424848",
"R 	c #515555",
"S 	c #525556",
"T 	c #424849",
"U 	c #424847",
"V 	c #414848",
"W 	c #444949",
"X 	c #414747",
"Y 	c #414748",
"Z 	c #525454",
"` 	c #4F5353",
" .	c #424747",
"..	c #5A5C5C",
"+.	c #595B5B",
"@.	c #505454",
"#.	c #505353",
"$.	c #434848",
"%.	c #515454",
"&.	c #5E6060",
"*.	c #696A6A",
". . . . . . . . . . . . . . . . . . . . . . . . . . . . ",
"+ + + + + + + + + + + + + + + + + + + + + + + + + + + + ",
"+ + + + + + + + + + + + + + + + + + + + + + + + + + + + ",
"+ + + + + + + + + + + + + + + + + + + + + + + + + + + + ",
"@ @ @ + # $ + @ % + % + @ & @ + # $ + @ @ @ @ @ * + @ @ ",
"% % % = * % @ $ $ = * # % = % = * % @ $ % = % = $ % % % ",
"- - - - ; > = , ' ' > ; ) ! - - ; > = , ; = = ; = = - - ",
"! ! ! , , ) , ! ) > , , , ) ! , , ) , ! ! , , , ) , ! ! ",
"~ ~ ~ { ] ^ , ~ ~ ; / ( _ : : _ ( < = ~ [ ] , ~ ^ , ~ ~ ",
"{ { { } { { { { | 1 2 3 4 5 5 4 6 2 7 < } { { { 8 { { { ",
"9 9 9 0 a a { b c d e e e e e e e e f c g { h 0 0 { 9 9 ",
"i i i i j 0 b 2 5 e e e e e e e e e e k 2 l j i i 0 i i ",
"j j j m j n c k e e e e e e e e e e e e 5 c o j j j j j ",
"p p p q p 7 d e e e e e e e e e e e e e e d r s t q p p ",
"u u u v | 2 e e e e e e e e e e e e e e e e 2 w v u u u ",
"x x x y ( 6 e e e e e e e e e e e e e e e e 3 z u u x x ",
"A A A A _ 4 e e e e e e e e e e e e e e e e B 1 A C A A ",
"D D D E c 5 e e e e e e e e e e e e e e e e 5 F C G D D ",
"E E E E : 5 e e e e e e e e e e e e e e e e k : H E E E ",
"H H H I J 4 e e e e e e e e e e e e e e e e B K I L H H ",
"M M M N z 6 e e e e e e e e e e e e e e e e 3 O M P M M ",
"Q Q Q P R 2 e e e e e e e e e e e e e e e e 2 S T Q Q Q ",
"U U U Q V 1 f e e e e e e e e e e e e e e f K W Q Q U U ",
"X X X Y Y Z c 5 e e e e e e e e e e e e 5 7 ` X  . .X X ",
"X X X X X X ..2 5 e e e e e e e e e e 5 2 +.X X X X X X ",
"X X X X X X X ..c d e e e e e e e e f 7 ..X X X X X X X ",
"X X X X X X X X @.1 2 3 4 k k B 6 2 1 #.X X X X X X X X ",
"X X X X X X X X X $.%.&.K *.*.K &.R X X X X X X X X X X ",
"X X X X X X X X X X X X X X X X X X X X X X X X X X X X ",
"X X X X X X X X X X X X X X X X X X X X X X X X X X X X ",
"X X X X X X X X X X X X X X X X X X X X X X X X X X X X ",
"X X X X X X X X X X X X X X X X X X X X X X X X X X X X ",
"X X X X X X X X X X X X X X X X X X X X X X X X X X X X ",
"X X X X X X X X X X X X X X X X X X X X X X X X X X X X ",
"X X X X X X X X X X X X X X X X X X X X X X X X X X X X ",
"X X X X X X X X X X X X X X X X X X X X X X X X X X X X "};
