/* XPM */
static char * maximize_pressed_xpm[] = {
"28 36 106 2",
"  	c None",
". 	c #313133",
"+ 	c #4B5252",
"@ 	c #4B5251",
"# 	c #4A5251",
"$ 	c #4A5152",
"% 	c #4B5151",
"& 	c #4A5252",
"* 	c #4B5152",
"= 	c #4A5151",
"- 	c #495151",
"; 	c #4A5150",
"> 	c #495150",
", 	c #495050",
"' 	c #4A5051",
") 	c #4A5050",
"! 	c #495051",
"~ 	c #494F50",
"{ 	c #484F4F",
"] 	c #48504F",
"^ 	c #49504F",
"/ 	c #646867",
"( 	c #7A7B7B",
"_ 	c #838484",
": 	c #898989",
"< 	c #797A7A",
"[ 	c #636766",
"} 	c #485050",
"| 	c #494F4F",
"1 	c #626565",
"2 	c #858585",
"3 	c #838383",
"4 	c #7A7A7A",
"5 	c #737373",
"6 	c #6F6F6F",
"7 	c #797979",
"8 	c #848484",
"9 	c #494F4E",
"0 	c #474F4F",
"a 	c #484E4E",
"b 	c #484E4F",
"c 	c #707272",
"d 	c #868686",
"e 	c #767676",
"f 	c #6D6D6D",
"g 	c #757575",
"h 	c #878787",
"i 	c #717273",
"j 	c #474E4F",
"k 	c #474E4E",
"l 	c #474D4E",
"m 	c #707172",
"n 	c #707271",
"o 	c #464D4E",
"p 	c #616464",
"q 	c #707070",
"r 	c #474D4C",
"s 	c #464D4D",
"t 	c #848585",
"u 	c #B1B1B1",
"v 	c #FFFFFF",
"w 	c #474D4D",
"x 	c #464C4D",
"y 	c #454C4C",
"z 	c #464C4C",
"A 	c #636666",
"B 	c #626666",
"C 	c #454C4B",
"D 	c #464C4B",
"E 	c #787979",
"F 	c #454B4B",
"G 	c #828383",
"H 	c #BBBBBB",
"I 	c #444B4B",
"J 	c #444A4B",
"K 	c #444A4A",
"L 	c #454B4A",
"M 	c #888888",
"N 	c #434A4A",
"O 	c #434A49",
"P 	c #B6B6B6",
"Q 	c #828282",
"R 	c #44494A",
"S 	c #434949",
"T 	c #424949",
"U 	c #777878",
"V 	c #757777",
"W 	c #424948",
"X 	c #424848",
"Y 	c #606363",
"Z 	c #606263",
"` 	c #424849",
" .	c #424847",
"..	c #444949",
"+.	c #414747",
"@.	c #414748",
"#.	c #5F6161",
"$.	c #5D6060",
"%.	c #424747",
"&.	c #6F7070",
"*.	c #6E7070",
"=.	c #5E6161",
"-.	c #727272",
";.	c #434848",
">.	c #767777",
",.	c #5F6262",
". . . . . . . . . . . . . . . . . . . . . . . . . . . . ",
"+ + + + + + + + + + + + + + + + + + + + + + + + + + + + ",
"+ + + + + + + + + + + + + + + + + + + + + + + + + + + + ",
"+ + + + + + + + + + + + + + + + + + + + + + + + + + + + ",
"@ @ @ + # $ + @ % + % + @ & @ + # $ + @ @ @ @ @ * + @ @ ",
"% % % = * % @ $ $ = * # % = % = * % @ $ % = % = $ % % % ",
"- - - - ; > = , ' ' > ; ) ! - - ; > = , ; = = ; = = - - ",
"! ! ! , , ) , ! ) > , , , ) ! , , ) , ! ! , , , ) , ! ! ",
"~ ~ ~ { ] ^ , ~ ~ ; / ( _ : : _ < [ = ~ } ] , ~ ^ , ~ ~ ",
"{ { { | { { { { 1 2 3 4 5 6 6 5 7 3 8 1 | { { { 9 { { { ",
"0 0 0 a b b = c d e f f f f f f f f g h i = j a a { 0 0 ",
"k k k k l a m 3 6 f f f f f f f f f f 6 8 n l k k a k k ",
"l l l o l p d 6 f f f f f f f f f f f f q h p l l l l l ",
"r r r s 9 t g f f f f f u v v v v v v f f g 2 w x s r r ",
"y y y z A 3 f f f f f f f u v v v v v f f f 3 B z y y y ",
"C C C D E 7 f f f f f f f f u v v v v f f f 7 E y y C C ",
"F F F F G 5 f f f H f f f f f u v v v f f f 5 3 F I F F ",
"J J J K h 6 f f f v H f f f f f u v v f f f 6 : I L J J ",
"K K K K M 6 f f f v v H f f f f f u v f f f 6 : N K K K ",
"N N N O G 5 f f f v v v H f f f f f P f f f 5 Q O R N N ",
"S S S T U 7 f f f v v v v H f f f f f f f f 7 V S W S S ",
"X X X W Y 3 f f f v v v v v H f f f f f f f 3 Z ` X X X ",
" . . .X N 3 g f f v v v v v v H f f f f f e 8 ..X X  . .",
"+.+.+.@.@.#.h q f f f f f f f f f f f f q d $.+.%.%.+.+.",
"+.+.+.+.+.+.&.8 q f f f f f f f f f f q 8 &.+.+.+.+.+.+.",
"+.+.+.+.+.+.S *.h g f f f f f f f f e d &.S +.+.+.+.+.+.",
"+.+.+.+.+.+.+.+.=.8 3 4 -.6 6 5 7 3 3 =.+.+.+.+.+.+.+.+.",
"+.+.+.+.+.+.+.+.+.;.Y >.3 : : 3 >.,.S +.+.+.+.+.+.+.+.+.",
"+.+.+.+.+.+.+.+.+.+.+.+.+.+.+.+.+.+.+.+.+.+.+.+.+.+.+.+.",
"+.+.+.+.+.+.+.+.+.+.+.+.+.+.+.+.+.+.+.+.+.+.+.+.+.+.+.+.",
"+.+.+.+.+.+.+.+.+.+.+.+.+.+.+.+.+.+.+.+.+.+.+.+.+.+.+.+.",
"+.+.+.+.+.+.+.+.+.+.+.+.+.+.+.+.+.+.+.+.+.+.+.+.+.+.+.+.",
"+.+.+.+.+.+.+.+.+.+.+.+.+.+.+.+.+.+.+.+.+.+.+.+.+.+.+.+.",
"+.+.+.+.+.+.+.+.+.+.+.+.+.+.+.+.+.+.+.+.+.+.+.+.+.+.+.+.",
"+.+.+.+.+.+.+.+.+.+.+.+.+.+.+.+.+.+.+.+.+.+.+.+.+.+.+.+.",
"+.+.+.+.+.+.+.+.+.+.+.+.+.+.+.+.+.+.+.+.+.+.+.+.+.+.+.+."};
