/* XPM */
static char * menu_inactive_xpm[] = {
"24 36 105 2",
"  	c None",
". 	c #313133",
"+ 	c #4B5252",
"@ 	c #4B5151",
"# 	c #4B5251",
"$ 	c #4A5252",
"% 	c #4A5251",
"& 	c #4A5152",
"* 	c #4B5152",
"= 	c #4A5151",
"- 	c #4A5051",
"; 	c #495050",
"> 	c #3C4242",
", 	c #191B1B",
"' 	c #0C0C0C",
") 	c #0A0A0A",
"! 	c #4A5050",
"~ 	c #3F4646",
"{ 	c #0E0E0E",
"] 	c #1E2222",
"^ 	c #2C3131",
"/ 	c #303636",
"( 	c #494F50",
"_ 	c #1A1C1C",
": 	c #1E2121",
"< 	c #2F3535",
"[ 	c #484F4F",
"} 	c #2B3131",
"| 	c #484F4E",
"1 	c #2F3434",
"2 	c #484E4F",
"3 	c #474D4E",
"4 	c #484E4E",
"5 	c #474D4D",
"6 	c #2F3433",
"7 	c #2F3333",
"8 	c #2E3434",
"9 	c #464D4D",
"0 	c #2D3232",
"a 	c #2E3332",
"b 	c #2D3233",
"c 	c #909090",
"d 	c #474D4C",
"e 	c #464C4C",
"f 	c #2C3130",
"g 	c #2C3031",
"h 	c #2B3030",
"i 	c #2B3031",
"j 	c #2B3130",
"k 	c #464C4B",
"l 	c #2A2F2E",
"m 	c #2A2F2F",
"n 	c #292F2F",
"o 	c #454B4B",
"p 	c #282E2D",
"q 	c #292D2E",
"r 	c #282D2E",
"s 	c #292E2E",
"t 	c #444B4B",
"u 	c #444A4A",
"v 	c #262B2C",
"w 	c #272C2C",
"x 	c #272C2B",
"y 	c #252B2A",
"z 	c #252B2B",
"A 	c #252A2B",
"B 	c #262A2B",
"C 	c #434A49",
"D 	c #242929",
"E 	c #242928",
"F 	c #242829",
"G 	c #434949",
"H 	c #222727",
"I 	c #232727",
"J 	c #222728",
"K 	c #222827",
"L 	c #424949",
"M 	c #212625",
"N 	c #212626",
"O 	c #202626",
"P 	c #424848",
"Q 	c #424747",
"R 	c #1F2424",
"S 	c #202424",
"T 	c #202524",
"U 	c #414747",
"V 	c #1E2323",
"W 	c #1E2322",
"X 	c #1E2223",
"Y 	c #1D2323",
"Z 	c #1C2121",
"` 	c #1B2020",
" .	c #181D1D",
"..	c #1A1F1F",
"+.	c #1A1B1B",
"@.	c #121515",
"#.	c #191E1E",
"$.	c #434848",
"%.	c #0B0C0C",
"&.	c #121414",
"*.	c #171B1B",
"=.	c #484D4D",
"-.	c #555B5B",
";.	c #5C6161",
">.	c #5E6363",
". . . . . . . . . . . . . . . . . . . . . . . . ",
"+ + + + + + + + + + + + + + + + + + + + + + + + ",
"+ + + + + + + + + + + + + + + + + + + + + + + + ",
"+ + + + + + + + + + + + + + + + + + + + + + + + ",
"@ + @ + # $ # + % & + # # # # # * + + + # + + + ",
"& = * % @ = @ = * @ # & @ = @ = & @ & = @ & @ = ",
"- ; > , ' ) ) ) ) ) ) ) ) ) ) ) ) ) ) ' , > ; = ",
"! ~ { ] ^ / / / / / / / / / / / / / / ^ ] { ~ - ",
"( _ : < < < < < < < < < < < < < < < < < < : _ ( ",
"[ ' } < < < < < < < < < < < < < < < < < < } ' [ ",
"| ) 1 1 1 1 1 1 1 1 1 1 1 1 1 1 1 1 1 1 1 1 ) 2 ",
"3 ) 1 1 1 1 1 1 1 1 1 1 1 1 1 1 1 1 1 1 1 1 ) 4 ",
"5 ) 6 7 8 1 7 8 8 7 8 8 7 8 8 8 8 7 1 8 7 6 ) 5 ",
"9 ) 0 a b b b c c c c c c c c c c b b b a 0 ) d ",
"e ) f g h i j c c c c c c c c c c j i h g f ) e ",
"k ) l l l m m m n m m n m m n n m m m l l l ) o ",
"o ) p q r q p q s p q s p q s s q p q r q p ) t ",
"u ) v w x w w c c c c c c c c c c w w x w v ) u ",
"u ) y z A B A c c c c c c c c c c A B A z y ) u ",
"C ) D D D D D E F D E F D E F F E D D D D D ) u ",
"G ) H I J I K H H K H H K H H H H K I J I H ) G ",
"L ) M N N O N c c c c c c c c c c N O N N M ) P ",
"Q ) R S T R T c c c c c c c c c c T R T S R ) P ",
"U ) V V W X V V Y V V Y V V Y Y V V X W V V ) U ",
"U ) Z Z Z Z Z Z Z Z Z Z Z Z Z Z Z Z Z Z Z Z ) U ",
"U ) ` ` ` ` ` ` ` ` ` ` ` ` ` ` ` ` ` ` ` ` ) U ",
"U '  ..................................... .' U ",
"U +.@.#.#.#.#.#.#.#.#.#.#.#.#.#.#.#.#.#.#.@.+.U ",
"U $.%.&.*. . . . . . . . . . . . . . .*.&.%.$.U ",
"U 5 =.+.' ) ) ) ) ) ) ) ) ) ) ) ) ) ) ' +.=.5 U ",
"U L 9 -.;.>.>.>.>.>.>.>.>.>.>.>.>.>.>.;.-.9 L U ",
"U U U U U U U U U U U U U U U U U U U U U U U U ",
"U U U U U U U U U U U U U U U U U U U U U U U U ",
"U U U U U U U U U U U U U U U U U U U U U U U U ",
"U U U U U U U U U U U U U U U U U U U U U U U U ",
"U U U U U U U U U U U U U U U U U U U U U U U U "};
