/* XPM */
static char * menu_pressed_xpm[] = {
"24 36 81 1",
" 	c None",
".	c #323A3F",
"+	c #414B51",
"@	c #414B50",
"#	c #414A50",
"$	c #404A50",
"%	c #3C4242",
"&	c #101010",
"*	c #0A0A0A",
"=	c #404950",
"-	c #3F4646",
";	c #0B0D0D",
">	c #0E1212",
",	c #0F1313",
"'	c #3F494F",
")	c #0F1010",
"!	c #101514",
"~	c #111514",
"{	c #111414",
"]	c #101414",
"^	c #101415",
"/	c #111515",
"(	c #111415",
"_	c #3E494E",
":	c #3E484E",
"<	c #101515",
"[	c #3D484D",
"}	c #FFFFFF",
"|	c #3D474D",
"1	c #121616",
"2	c #121515",
"3	c #121516",
"4	c #3D474E",
"5	c #121716",
"6	c #121717",
"7	c #131716",
"8	c #131616",
"9	c #131817",
"0	c #131717",
"a	c #131718",
"b	c #3C464D",
"c	c #141818",
"d	c #141718",
"e	c #141817",
"f	c #3D474C",
"g	c #141819",
"h	c #141919",
"i	c #151918",
"j	c #151919",
"k	c #151819",
"l	c #3C464C",
"m	c #161919",
"n	c #15191A",
"o	c #3B464B",
"p	c #161A1A",
"q	c #3C454B",
"r	c #171B1B",
"s	c #171A1B",
"t	c #3B454B",
"u	c #171C1B",
"v	c #181B1B",
"w	c #181C1C",
"x	c #3A444A",
"y	c #181C1D",
"z	c #191D1D",
"A	c #181D1D",
"B	c #3A454A",
"C	c #191C1C",
"D	c #191C1D",
"E	c #181D1C",
"F	c #0F0F0F",
"G	c #161B1B",
"H	c #394349",
"I	c #0E0F0F",
"J	c #394449",
"K	c #555B5B",
"L	c #5C6161",
"M	c #5E6363",
"N	c #384348",
"O	c #394348",
"P	c #384248",
"........................",
"++++++++++++++++++++++++",
"++++++++++++++++++++++++",
"@@@@@@@@@@@@@@@@@@@@@@@@",
"########################",
"$$$$$$$$$$$$$$$$$$$$$$$$",
"$$%&****************&%$$",
"=-;>,,,,,,,,,,,,,,,,>;-=",
"')!~{]]{]]{]{]]]]]]{~!)'",
"'*~^/]]/]]/]/]]]]]]/^~*'",
"'*({!]]!]]!]!]]]]]]!{(*'",
"_*]{]]]]]]]]]]]]]]]]{]*_",
":*^]{]]{]]{]{]]<<]]{]^*:",
"[*/((<~}}}}}}}}}}~<((/*[",
"|*1/233}}}}}}}}}}332/1*|",
"4*56117117111178871165*4",
"|*900a00a00a0a0000a009*|",
"b*cdec0}}}}}}}}}}0cedc*b",
"f*ghijk}}}}}}}}}}kjihg*f",
"l*jmmmnmmnmmmmnnnnmmmj*l",
"o*pppppppppppppppppppp*o",
"q*rsrrs}}}}}}}}}}srrsr*q",
"t*uuvwv}}}}}}}}}}vwvuu*t",
"t*wwwwwwwwwwwwwwwwwwww*t",
"t*wwwwwwwwwwwwwwwwwwww*t",
"x*yzAyyAyyAyAyyyyyyAzy*x",
"B*CADCCDCCDCDCCEECCDAC*B",
"xFGAAAAAAAAAAAAAAAAAAGFx",
"HHIGAAAAAAAAAAAAAAAAGIHH",
"JJJ)****************)JJJ",
"HHHKLMMMMMMMMMMMMMMLKHHH",
"HHHHHHHHHHHHHHHHHHHHHHHH",
"NNNNNNNNNNNNNNNNNNNNNNNN",
"OOOOOOOOOOOOOOOOOOOOOOOO",
"PPPPPPPPPPPPPPPPPPPPPPPP",
"PPPPPPPPPPPPPPPPPPPPPPPP"};
