/* XPM */
static char * shade_toggled_active_xpm[] = {
"24 36 100 2",
"  	c None",
". 	c #323A3F",
"+ 	c #414B51",
"@ 	c #414B50",
"# 	c #414A50",
"$ 	c #404A50",
"% 	c #2F3434",
"& 	c #141515",
"* 	c #0B0B0B",
"= 	c #0A0A0A",
"- 	c #404950",
"; 	c #313737",
"> 	c #131414",
", 	c #2A3135",
"' 	c #2F373A",
") 	c #31393C",
"! 	c #3F494F",
"~ 	c #151616",
"{ 	c #222A2D",
"] 	c #2A3236",
"^ 	c #283034",
"/ 	c #2A3235",
"( 	c #3E494E",
"_ 	c #3E484E",
": 	c #2A3134",
"< 	c #293135",
"[ 	c #3D484D",
"} 	c #283033",
"| 	c #293033",
"1 	c #FFFFFF",
"2 	c #3D474D",
"3 	c #282F31",
"4 	c #282E32",
"5 	c #272E31",
"6 	c #272E32",
"7 	c #272F31",
"8 	c #3D474E",
"9 	c #262D30",
"0 	c #252C2F",
"a 	c #252D2F",
"b 	c #262C2F",
"c 	c #262D2F",
"d 	c #3C464D",
"e 	c #232A2E",
"f 	c #242B2E",
"g 	c #242B2D",
"h 	c #414445",
"i 	c #F6F6F6",
"j 	c #FCFCFC",
"k 	c #3D474C",
"l 	c #22292C",
"m 	c #22292D",
"n 	c #23292D",
"o 	c #727374",
"p 	c #FBFBFB",
"q 	c #747575",
"r 	c #3C464C",
"s 	c #22282B",
"t 	c #22282A",
"u 	c #22272B",
"v 	c #9E9F9F",
"w 	c #A0A0A1",
"x 	c #3B464B",
"y 	c #202629",
"z 	c #20262A",
"A 	c #202729",
"B 	c #C9CACA",
"C 	c #CBCCCC",
"D 	c #3C454B",
"E 	c #1F2527",
"F 	c #1F2528",
"G 	c #F4F4F4",
"H 	c #F1F2F2",
"I 	c #3B454B",
"J 	c #1E2426",
"K 	c #1D2325",
"L 	c #1C2325",
"M 	c #1C2224",
"N 	c #3A444A",
"O 	c #1A2022",
"P 	c #3A454A",
"Q 	c #191F21",
"R 	c #151515",
"S 	c #171B1E",
"T 	c #1A1F21",
"U 	c #394349",
"V 	c #2E3538",
"W 	c #0E0F0F",
"X 	c #151818",
"Y 	c #181C1C",
"Z 	c #181D1D",
"` 	c #394449",
" .	c #2E3639",
"..	c #0B0C0C",
"+.	c #555B5B",
"@.	c #5C6161",
"#.	c #5E6363",
"$.	c #384348",
"%.	c #394348",
"&.	c #384248",
". . . . . . . . . . . . . . . . . . . . . . . . ",
"+ + + + + + + + + + + + + + + + + + + + + + + + ",
"+ + + + + + + + + + + + + + + + + + + + + + + + ",
"@ @ @ @ @ @ @ @ @ @ @ @ @ @ @ @ @ @ @ @ @ @ @ @ ",
"# # # # # # # # # # # # # # # # # # # # # # # # ",
"$ $ $ $ $ $ $ $ $ $ $ $ $ $ $ $ $ $ $ $ $ $ $ $ ",
"$ $ % & * = = = = = = = = = = = = = = * & % $ $ ",
"- ; > , ' ) ) ) ) ) ) ) ) ) ) ) ) ) ) ' , > ; - ",
"! ~ { ] ] ] ] ] ] ] ] ] ] ] ] ] ] ] ] ] ] { ~ ! ",
"! * ^ ] ] ] ] ] ] ] ] ] ] ] ] ] ] ] ] ] ] ^ * ! ",
"! = / / / / / / / / / / / / / / / / / / / / = ! ",
"( = / / / / / / / / / / / / / / / / / / / / = ( ",
"_ = : : < , : < < : < < : < < < < : , < : : = _ ",
"[ = } | } } } 1 1 1 1 1 1 1 1 1 1 } } } | } = [ ",
"2 = 3 4 5 6 7 1 1 1 1 1 1 1 1 1 1 7 6 5 4 3 = 2 ",
"8 = 9 9 9 9 9 9 9 9 9 9 9 9 9 9 9 9 9 9 9 9 = 8 ",
"2 = 0 0 0 0 0 0 0 0 0 0 a b c c b 0 0 0 0 0 = 2 ",
"d = e f g f f h i j j j j j j i h f f g f e = d ",
"k = l m m n m l o p j j j j p q l m n m m l = k ",
"r = s s s s s t u v j j j j w s t s s s s s = r ",
"x = y y z y A y y A B j j C A y y A y z y y = x ",
"D = E F F F F F F F E G H E F F F F F F F E = D ",
"I = J J J J J J J J J J J J J J J J J J J J = I ",
"I = K K K K K K L K K L K K L L K K K K K K = I ",
"I = M M M M M M M M M M M M M M M M M M M M = I ",
"N = O O O O O O O O O O O O O O O O O O O O = N ",
"P * Q O O O O O O O O O O O O O O O O O O Q * P ",
"N R S T T T T T T T T T T T T T T T T T T S R N ",
"U V W X Y Z Z Z Z Z Z Z Z Z Z Z Z Z Z Y X W V U ",
"` `  .~ ..* * * * * * * * * * * * * * ..~  .` ` ",
"U U U +.@.#.#.#.#.#.#.#.#.#.#.#.#.#.#.@.+.U U U ",
"U U U U U U U U U U U U U U U U U U U U U U U U ",
"$.$.$.$.$.$.$.$.$.$.$.$.$.$.$.$.$.$.$.$.$.$.$.$.",
"%.%.%.%.%.%.%.%.%.%.%.%.%.%.%.%.%.%.%.%.%.%.%.%.",
"&.&.&.&.&.&.&.&.&.&.&.&.&.&.&.&.&.&.&.&.&.&.&.&.",
"&.&.&.&.&.&.&.&.&.&.&.&.&.&.&.&.&.&.&.&.&.&.&.&."};
