/* XPM */
static char * shade_toggled_prelight_xpm[] = {
"24 36 114 2",
"  	c None",
". 	c #313133",
"+ 	c #4B5252",
"@ 	c #4B5151",
"# 	c #4B5251",
"$ 	c #4A5252",
"% 	c #4A5251",
"& 	c #4A5152",
"* 	c #4B5152",
"= 	c #4A5151",
"- 	c #4A5051",
"; 	c #495050",
"> 	c #424848",
", 	c #1F2121",
"' 	c #0D0D0D",
") 	c #0A0A0A",
"! 	c #4A5050",
"~ 	c #0F1010",
"{ 	c #272A2A",
"] 	c #3A3F3F",
"^ 	c #3F4545",
"/ 	c #494F50",
"( 	c #262929",
"_ 	c #3E4444",
": 	c #484F4F",
"< 	c #0D0E0E",
"[ 	c #383D3D",
"} 	c #3D4243",
"| 	c #484F4E",
"1 	c #3C4142",
"2 	c #484E4F",
"3 	c #474D4E",
"4 	c #3A3F40",
"5 	c #393F40",
"6 	c #3A3E40",
"7 	c #484E4E",
"8 	c #474D4D",
"9 	c #373C3D",
"0 	c #373C3E",
"a 	c #383C3D",
"b 	c #464D4D",
"c 	c #353A3B",
"d 	c #363A3B",
"e 	c #FFFFFF",
"f 	c #474D4C",
"g 	c #464C4C",
"h 	c #333939",
"i 	c #333839",
"j 	c #333838",
"k 	c #464C4B",
"l 	c #313636",
"m 	c #313637",
"n 	c #454B4B",
"o 	c #2F3435",
"p 	c #2F3434",
"q 	c #444B4B",
"r 	c #444A4A",
"s 	c #2D3232",
"t 	c #2C3133",
"u 	c #2D3132",
"v 	c #2D3133",
"w 	c #4B4E4F",
"x 	c #F6F6F6",
"y 	c #FCFCFC",
"z 	c #2A2F31",
"A 	c #2A3030",
"B 	c #2B3030",
"C 	c #2B3031",
"D 	c #7D7F7F",
"E 	c #FBFBFB",
"F 	c #434A49",
"G 	c #292E2E",
"H 	c #282E2E",
"I 	c #282D2E",
"J 	c #A6A7A7",
"K 	c #434949",
"L 	c #262C2C",
"M 	c #272B2B",
"N 	c #272B2C",
"O 	c #272C2C",
"P 	c #262C2B",
"Q 	c #CFCFCF",
"R 	c #424949",
"S 	c #242929",
"T 	c #242829",
"U 	c #232929",
"V 	c #424747",
"W 	c #222727",
"X 	c #414747",
"Y 	c #1F2525",
"Z 	c #202525",
"` 	c #202425",
" .	c #1E2323",
"..	c #1D2323",
"+.	c #1E2322",
"@.	c #1B2021",
"#.	c #1C2020",
"$.	c #1C2120",
"%.	c #1C2021",
"&.	c #0C0D0D",
"*.	c #191E1E",
"=.	c #1B2020",
"-.	c #131515",
";.	c #1A1F1F",
">.	c #474B4B",
",.	c #0C0C0C",
"'.	c #121515",
").	c #171C1C",
"!.	c #515656",
"~.	c #212222",
"{.	c #454C4C",
"].	c #545A5A",
"^.	c #5D6262",
"/.	c #5E6363",
". . . . . . . . . . . . . . . . . . . . . . . . ",
"+ + + + + + + + + + + + + + + + + + + + + + + + ",
"+ + + + + + + + + + + + + + + + + + + + + + + + ",
"+ + + + + + + + + + + + + + + + + + + + + + + + ",
"@ + @ + # $ # + % & + # # # # # * + + + # + + + ",
"& = * % @ = @ = * @ # & @ = @ = & @ & = @ & @ = ",
"- ; > , ' ) ) ) ) ) ) ) ) ) ) ) ) ) ) ' , > ; = ",
"! > ~ { ] ^ ^ ^ ^ ^ ^ ^ ^ ^ ^ ^ ^ ^ ^ ] { ~ > - ",
"/ , ( _ _ _ _ _ _ _ _ _ _ _ _ _ _ _ _ _ _ ( , / ",
": < [ } } } } } } } } } } } } } } } } } } [ < : ",
"| ) 1 1 1 1 1 1 1 1 1 1 1 1 1 1 1 1 1 1 1 1 ) 2 ",
"3 ) 4 5 4 4 6 4 4 6 4 4 6 4 6 4 4 6 4 4 5 4 ) 7 ",
"8 ) 9 0 0 9 a 9 9 a 9 9 a 9 a 9 9 a 9 0 0 9 ) 8 ",
"b ) c c c d c e e e e e e e e e e c d c c c ) f ",
"g ) h i i i j e e e e e e e e e e j i i i h ) g ",
"k ) l l m l m l l m l l m l m l l m l m l l ) n ",
"n ) o o o p p o p p o p p p p o o p p o o o ) q ",
"r ) s t s u v w x y y y y y y x w v u s t s ) r ",
"r ) z A A B C A D E y y y y E D A C B A A z ) r ",
"F ) G G H G I G G J y y y y J G G I G H G G ) r ",
"K ) L L M N O P N O Q y y Q O P P O N M L L ) K ",
"R ) S S T S S U S S U y y S S U U S S T S S ) > ",
"V ) W W W W W W W W W W W W W W W W W W W W ) > ",
"X ) Y Y Z ` Y Z ` Y Z ` Y ` Y Z Z Y ` Z Y Y ) X ",
"X )  ... .+. . .+. . .+. .+. . . . .+. ... .) X ",
"X ) @.@.@.#.$.%.#.$.%.#.$.#.$.%.%.$.#.@.@.@.) X ",
"X &.*.=.=.=.=.=.=.=.=.=.=.=.=.=.=.=.=.=.=.*.&.X ",
"X , -.;.;.;.;.;.;.;.;.;.;.;.;.;.;.;.;.;.;.-., X ",
"X >.,.'.).*.*.*.*.*.*.*.*.*.*.*.*.*.*.).'.,.>.X ",
"X 8 !.~.' ) ) ) ) ) ) ) ) ) ) ) ) ) ) ' ~.!.8 X ",
"X R {.].^././././././././././././././.^.].{.R X ",
"X X X X X X X X X X X X X X X X X X X X X X X X ",
"X X X X X X X X X X X X X X X X X X X X X X X X ",
"X X X X X X X X X X X X X X X X X X X X X X X X ",
"X X X X X X X X X X X X X X X X X X X X X X X X ",
"X X X X X X X X X X X X X X X X X X X X X X X X "};
