/* XPM */
static char * shade_toggled_pressed_xpm[] = {
"24 36 96 2",
"  	c None",
". 	c #313133",
"+ 	c #4B5252",
"@ 	c #4B5151",
"# 	c #4B5251",
"$ 	c #4A5252",
"% 	c #4A5251",
"& 	c #4A5152",
"* 	c #4B5152",
"= 	c #4A5151",
"- 	c #4A5051",
"; 	c #495050",
"> 	c #424848",
", 	c #101010",
"' 	c #0A0A0A",
") 	c #4A5050",
"! 	c #0B0D0D",
"~ 	c #0E1212",
"{ 	c #0F1313",
"] 	c #494F50",
"^ 	c #0F1010",
"/ 	c #101514",
"( 	c #111514",
"_ 	c #111414",
": 	c #101414",
"< 	c #484F4F",
"[ 	c #101415",
"} 	c #111515",
"| 	c #484F4E",
"1 	c #111415",
"2 	c #484E4F",
"3 	c #474D4E",
"4 	c #484E4E",
"5 	c #474D4D",
"6 	c #101515",
"7 	c #464D4D",
"8 	c #FFFFFF",
"9 	c #474D4C",
"0 	c #464C4C",
"a 	c #121616",
"b 	c #121515",
"c 	c #121516",
"d 	c #464C4B",
"e 	c #121716",
"f 	c #121717",
"g 	c #131716",
"h 	c #131616",
"i 	c #454B4B",
"j 	c #131817",
"k 	c #131717",
"l 	c #131718",
"m 	c #444B4B",
"n 	c #444A4A",
"o 	c #141818",
"p 	c #141718",
"q 	c #141817",
"r 	c #414242",
"s 	c #F6F6F6",
"t 	c #FCFCFC",
"u 	c #141819",
"v 	c #141919",
"w 	c #151918",
"x 	c #151919",
"y 	c #151819",
"z 	c #7A7A7A",
"A 	c #FBFBFB",
"B 	c #434A49",
"C 	c #161919",
"D 	c #15191A",
"E 	c #A5A5A5",
"F 	c #434949",
"G 	c #161A1A",
"H 	c #CECECE",
"I 	c #424949",
"J 	c #171B1B",
"K 	c #171A1B",
"L 	c #424747",
"M 	c #171C1B",
"N 	c #181B1B",
"O 	c #181C1C",
"P 	c #414747",
"Q 	c #181C1D",
"R 	c #191D1D",
"S 	c #181D1D",
"T 	c #191C1C",
"U 	c #191C1D",
"V 	c #181D1C",
"W 	c #0F0F0F",
"X 	c #161B1B",
"Y 	c #474B4B",
"Z 	c #0E0F0F",
"` 	c #515656",
" .	c #454C4C",
"..	c #545A5A",
"+.	c #5D6262",
"@.	c #5E6363",
". . . . . . . . . . . . . . . . . . . . . . . . ",
"+ + + + + + + + + + + + + + + + + + + + + + + + ",
"+ + + + + + + + + + + + + + + + + + + + + + + + ",
"+ + + + + + + + + + + + + + + + + + + + + + + + ",
"@ + @ + # $ # + % & + # # # # # * + + + # + + + ",
"& = * % @ = @ = * @ # & @ = @ = & @ & = @ & @ = ",
"- ; > , ' ' ' ' ' ' ' ' ' ' ' ' ' ' ' ' , > ; = ",
") > ! ~ { { { { { { { { { { { { { { { { ~ ! > - ",
"] ^ / ( _ : : _ : : _ : _ : : : : : : _ ( / ^ ] ",
"< ' ( [ } : : } : : } : } : : : : : : } [ ( ' < ",
"| ' 1 _ / : : / : : / : / : : : : : : / _ 1 ' 2 ",
"3 ' : _ : : : : : : : : : : : : : : : : _ : ' 4 ",
"5 ' [ : _ : : _ : : _ : _ : : 6 6 : : _ : [ ' 5 ",
"7 ' } 1 1 6 ( 8 8 8 8 8 8 8 8 8 8 ( 6 1 1 } ' 9 ",
"0 ' a } b c c 8 8 8 8 8 8 8 8 8 8 c c b } a ' 0 ",
"d ' e f a a g a a g a a a a g h h g a a f e ' i ",
"i ' j k k l k k l k k l k l k k k k l k k j ' m ",
"n ' o p q o k r s t t t t t t s r k o q p o ' n ",
"n ' u v w x y w z A t t t t A z w y x w v u ' n ",
"B ' x C C C D C C E t t t t E D D D C C C x ' n ",
"F ' G G G G G G G G H t t H G G G G G G G G ' F ",
"I ' J K J J K J J K J t t J K G G K J J K J ' > ",
"L ' M M N O N N O N N O N O N N N N O N M M ' > ",
"P ' O O O O O O O O O O O O O O O O O O O O ' P ",
"P ' O O O O O O O O O O O O O O O O O O O O ' P ",
"P ' Q R S Q Q S Q Q S Q S Q Q Q Q Q Q S R Q ' P ",
"P ' T S U T T U T T U T U T T V V T T U S T ' P ",
"P W X S S S S S S S S S S S S S S S S S S X W P ",
"P Y Z X S S S S S S S S S S S S S S S S X Z Y P ",
"P 5 ` ^ ' ' ' ' ' ' ' ' ' ' ' ' ' ' ' ' ^ ` 5 P ",
"P I  ...+.@.@.@.@.@.@.@.@.@.@.@.@.@.@.+... .I P ",
"P P P P P P P P P P P P P P P P P P P P P P P P ",
"P P P P P P P P P P P P P P P P P P P P P P P P ",
"P P P P P P P P P P P P P P P P P P P P P P P P ",
"P P P P P P P P P P P P P P P P P P P P P P P P ",
"P P P P P P P P P P P P P P P P P P P P P P P P "};
