/* XPM */
static char * shade_prelight_xpm[] = {
"24 36 115 2",
"  	c None",
". 	c #313133",
"+ 	c #4B5252",
"@ 	c #4B5151",
"# 	c #4B5251",
"$ 	c #4A5252",
"% 	c #4A5251",
"& 	c #4A5152",
"* 	c #4B5152",
"= 	c #4A5151",
"- 	c #4A5051",
"; 	c #495050",
"> 	c #424848",
", 	c #1F2121",
"' 	c #0D0D0D",
") 	c #0A0A0A",
"! 	c #4A5050",
"~ 	c #0F1010",
"{ 	c #272A2A",
"] 	c #3A3F3F",
"^ 	c #3F4545",
"/ 	c #494F50",
"( 	c #262929",
"_ 	c #3E4444",
": 	c #484F4F",
"< 	c #0D0E0E",
"[ 	c #383D3D",
"} 	c #3D4243",
"| 	c #484F4E",
"1 	c #3C4142",
"2 	c #484E4F",
"3 	c #474D4E",
"4 	c #3A3F40",
"5 	c #393F40",
"6 	c #3A3E40",
"7 	c #484E4E",
"8 	c #474D4D",
"9 	c #373C3D",
"0 	c #373C3E",
"a 	c #383C3D",
"b 	c #464D4D",
"c 	c #353A3B",
"d 	c #363A3B",
"e 	c #FFFFFF",
"f 	c #474D4C",
"g 	c #464C4C",
"h 	c #333939",
"i 	c #333839",
"j 	c #333838",
"k 	c #464C4B",
"l 	c #313636",
"m 	c #313637",
"n 	c #454B4B",
"o 	c #2F3435",
"p 	c #2F3434",
"q 	c #444B4B",
"r 	c #444A4A",
"s 	c #2D3232",
"t 	c #2C3133",
"u 	c #2D3132",
"v 	c #2D3133",
"w 	c #2C3233",
"x 	c #FCFCFC",
"y 	c #2A2F31",
"z 	c #2A3030",
"A 	c #2B3030",
"B 	c #2B3031",
"C 	c #CFCFCF",
"D 	c #434A49",
"E 	c #292E2E",
"F 	c #282E2E",
"G 	c #282D2E",
"H 	c #A6A7A7",
"I 	c #434949",
"J 	c #262C2C",
"K 	c #272B2B",
"L 	c #272B2C",
"M 	c #272C2C",
"N 	c #262C2B",
"O 	c #7D7D7E",
"P 	c #FBFBFB",
"Q 	c #7C7E7D",
"R 	c #424949",
"S 	c #242929",
"T 	c #242829",
"U 	c #464949",
"V 	c #F6F6F6",
"W 	c #424747",
"X 	c #222727",
"Y 	c #414747",
"Z 	c #1F2525",
"` 	c #202525",
" .	c #202425",
"..	c #1E2323",
"+.	c #1D2323",
"@.	c #1E2322",
"#.	c #1B2021",
"$.	c #1C2020",
"%.	c #1C2120",
"&.	c #1C2021",
"*.	c #0C0D0D",
"=.	c #191E1E",
"-.	c #1B2020",
";.	c #131515",
">.	c #1A1F1F",
",.	c #474B4B",
"'.	c #0C0C0C",
").	c #121515",
"!.	c #171C1C",
"~.	c #515656",
"{.	c #212222",
"].	c #454C4C",
"^.	c #545A5A",
"/.	c #5D6262",
"(.	c #5E6363",
". . . . . . . . . . . . . . . . . . . . . . . . ",
"+ + + + + + + + + + + + + + + + + + + + + + + + ",
"+ + + + + + + + + + + + + + + + + + + + + + + + ",
"+ + + + + + + + + + + + + + + + + + + + + + + + ",
"@ + @ + # $ # + % & + # # # # # * + + + # + + + ",
"& = * % @ = @ = * @ # & @ = @ = & @ & = @ & @ = ",
"- ; > , ' ) ) ) ) ) ) ) ) ) ) ) ) ) ) ' , > ; = ",
"! > ~ { ] ^ ^ ^ ^ ^ ^ ^ ^ ^ ^ ^ ^ ^ ^ ] { ~ > - ",
"/ , ( _ _ _ _ _ _ _ _ _ _ _ _ _ _ _ _ _ _ ( , / ",
": < [ } } } } } } } } } } } } } } } } } } [ < : ",
"| ) 1 1 1 1 1 1 1 1 1 1 1 1 1 1 1 1 1 1 1 1 ) 2 ",
"3 ) 4 5 4 4 6 4 4 6 4 4 6 4 6 4 4 6 4 4 5 4 ) 7 ",
"8 ) 9 0 0 9 a 9 9 a 9 9 a 9 a 9 9 a 9 0 0 9 ) 8 ",
"b ) c c c d c e e e e e e e e e e c d c c c ) f ",
"g ) h i i i j e e e e e e e e e e j i i i h ) g ",
"k ) l l m l m l l m l l m l m l l m l m l l ) n ",
"n ) o o o p p o p p o p p p p o o p p o o o ) q ",
"r ) s t s u v w u v w x x u v w w v u s t s ) r ",
"r ) y z z A B z A B C x x C B z z B A z z y ) r ",
"D ) E E F E G E E H x x x x H E E G E F E E ) r ",
"I ) J J K L M N O P x x x x P Q N M L K J J ) I ",
"R ) S S T S S U V x x x x x x V U S S T S S ) > ",
"W ) X X X X X X X X X X X X X X X X X X X X ) > ",
"Y ) Z Z `  .Z `  .Z `  .Z  .Z ` ` Z  .` Z Z ) Y ",
"Y ) ..+...@.....@.....@...@.........@...+...) Y ",
"Y ) #.#.#.$.%.&.$.%.&.$.%.$.%.&.&.%.$.#.#.#.) Y ",
"Y *.=.-.-.-.-.-.-.-.-.-.-.-.-.-.-.-.-.-.-.=.*.Y ",
"Y , ;.>.>.>.>.>.>.>.>.>.>.>.>.>.>.>.>.>.>.;., Y ",
"Y ,.'.).!.=.=.=.=.=.=.=.=.=.=.=.=.=.=.!.).'.,.Y ",
"Y 8 ~.{.' ) ) ) ) ) ) ) ) ) ) ) ) ) ) ' {.~.8 Y ",
"Y R ].^./.(.(.(.(.(.(.(.(.(.(.(.(.(.(./.^.].R Y ",
"Y Y Y Y Y Y Y Y Y Y Y Y Y Y Y Y Y Y Y Y Y Y Y Y ",
"Y Y Y Y Y Y Y Y Y Y Y Y Y Y Y Y Y Y Y Y Y Y Y Y ",
"Y Y Y Y Y Y Y Y Y Y Y Y Y Y Y Y Y Y Y Y Y Y Y Y ",
"Y Y Y Y Y Y Y Y Y Y Y Y Y Y Y Y Y Y Y Y Y Y Y Y ",
"Y Y Y Y Y Y Y Y Y Y Y Y Y Y Y Y Y Y Y Y Y Y Y Y "};
