/* XPM */
static char * shade_toggled_pressed_xpm[] = {
"24 36 87 1",
" 	c None",
".	c #323A3F",
"+	c #414B51",
"@	c #414B50",
"#	c #414A50",
"$	c #404A50",
"%	c #424848",
"&	c #101010",
"*	c #0A0A0A",
"=	c #404950",
"-	c #0B0D0D",
";	c #0E1212",
">	c #0F1313",
",	c #3F494F",
"'	c #0F1010",
")	c #101514",
"!	c #111514",
"~	c #111414",
"{	c #101414",
"]	c #101415",
"^	c #111515",
"/	c #111415",
"(	c #3E494E",
"_	c #3E484E",
":	c #101515",
"<	c #3D484D",
"[	c #FFFFFF",
"}	c #3D474D",
"|	c #121616",
"1	c #121515",
"2	c #121516",
"3	c #3D474E",
"4	c #121716",
"5	c #121717",
"6	c #131716",
"7	c #131616",
"8	c #131817",
"9	c #131717",
"0	c #131718",
"a	c #3C464D",
"b	c #141818",
"c	c #141718",
"d	c #141817",
"e	c #414242",
"f	c #F6F6F6",
"g	c #FCFCFC",
"h	c #3D474C",
"i	c #141819",
"j	c #141919",
"k	c #151918",
"l	c #151919",
"m	c #151819",
"n	c #7A7A7A",
"o	c #FBFBFB",
"p	c #3C464C",
"q	c #161919",
"r	c #15191A",
"s	c #A5A5A5",
"t	c #3B464B",
"u	c #161A1A",
"v	c #CECECE",
"w	c #3C454B",
"x	c #171B1B",
"y	c #171A1B",
"z	c #3B454B",
"A	c #171C1B",
"B	c #181B1B",
"C	c #181C1C",
"D	c #3A444A",
"E	c #181C1D",
"F	c #191D1D",
"G	c #181D1D",
"H	c #3A454A",
"I	c #191C1C",
"J	c #191C1D",
"K	c #181D1C",
"L	c #0F0F0F",
"M	c #161B1B",
"N	c #394349",
"O	c #0E0F0F",
"P	c #394449",
"Q	c #545A5A",
"R	c #5D6262",
"S	c #5E6363",
"T	c #384348",
"U	c #394348",
"V	c #384248",
"........................",
"++++++++++++++++++++++++",
"++++++++++++++++++++++++",
"@@@@@@@@@@@@@@@@@@@@@@@@",
"########################",
"$$$$$$$$$$$$$$$$$$$$$$$$",
"$$%&****************&%$$",
"=%-;>>>>>>>>>>>>>>>>;-%=",
",')!~{{~{{~{~{{{{{{~!)',",
",*!]^{{^{{^{^{{{{{{^]!*,",
",*/~){{){{){){{{{{{)~/*,",
"(*{~{{{{{{{{{{{{{{{{~{*(",
"_*]{~{{~{{~{~{{::{{~{]*_",
"<*^//:![[[[[[[[[[!://^*<",
"}*|^122[[[[[[[[[[221^|*}",
"3*45||6||6||||6776||54*3",
"}*89909909909099990998*}",
"a*bcdb9efggggggfe9bdcb*a",
"h*ijklmknoggggonkmlkji*h",
"p*lqqqrqqsggggsrrrqqql*p",
"t*uuuuuuuuvggvuuuuuuuu*t",
"w*xyxxyxxyxggxyuuyxxyx*w",
"z*AABCBBCBBCBCBBBBCBAA*z",
"z*CCCCCCCCCCCCCCCCCCCC*z",
"z*CCCCCCCCCCCCCCCCCCCC*z",
"D*EFGEEGEEGEGEEEEEEGFE*D",
"H*IGJIIJIIJIJIIKKIIJGI*H",
"DLMGGGGGGGGGGGGGGGGGGMLD",
"NNOMGGGGGGGGGGGGGGGGMONN",
"PPP'****************'PPP",
"NNNQRSSSSSSSSSSSSSSRQNNN",
"NNNNNNNNNNNNNNNNNNNNNNNN",
"TTTTTTTTTTTTTTTTTTTTTTTT",
"UUUUUUUUUUUUUUUUUUUUUUUU",
"VVVVVVVVVVVVVVVVVVVVVVVV",
"VVVVVVVVVVVVVVVVVVVVVVVV"};
