/* XPM */
static char * stick_toggled_inactive_xpm[] = {
"24 36 109 2",
"  	c None",
". 	c #323A3F",
"+ 	c #414B51",
"@ 	c #414B50",
"# 	c #414A50",
"$ 	c #404A50",
"% 	c #424848",
"& 	c #101010",
"* 	c #0A0A0A",
"= 	c #404950",
"- 	c #0B0D0D",
"; 	c #0E1212",
"> 	c #0F1313",
", 	c #3F494F",
"' 	c #0F1010",
") 	c #101514",
"! 	c #111514",
"~ 	c #111414",
"{ 	c #101414",
"] 	c #101415",
"^ 	c #111515",
"/ 	c #111415",
"( 	c #3E494E",
"_ 	c #3E484E",
": 	c #242626",
"< 	c #666666",
"[ 	c #818181",
"} 	c #8E8E8E",
"| 	c #242727",
"1 	c #101515",
"2 	c #3D484D",
"3 	c #4C4C4D",
"4 	c #7D7D7D",
"5 	c #757575",
"6 	c #4F4F4F",
"7 	c #222525",
"8 	c #222425",
"9 	c #4E4F4F",
"0 	c #4C4D4D",
"a 	c #3D474D",
"b 	c #121616",
"c 	c #121515",
"d 	c #121516",
"e 	c #252728",
"f 	c #3D474E",
"g 	c #121716",
"h 	c #121717",
"i 	c #383939",
"j 	c #707070",
"k 	c #8B8B8B",
"l 	c #131616",
"m 	c #131817",
"n 	c #131717",
"o 	c #131718",
"p 	c #4F5050",
"q 	c #909090",
"r 	c #3C464D",
"s 	c #141818",
"t 	c #141718",
"u 	c #141817",
"v 	c #3D474C",
"w 	c #141819",
"x 	c #141919",
"y 	c #151918",
"z 	c #151919",
"A 	c #252726",
"B 	c #3C464C",
"C 	c #161919",
"D 	c #707171",
"E 	c #15191A",
"F 	c #3B464B",
"G 	c #161A1A",
"H 	c #666767",
"I 	c #757676",
"J 	c #393A3A",
"K 	c #3C454B",
"L 	c #171B1B",
"M 	c #171A1B",
"N 	c #282A2A",
"O 	c #7D7E7E",
"P 	c #3B454B",
"Q 	c #171C1B",
"R 	c #181B1B",
"S 	c #181C1C",
"T 	c #4D4E4E",
"U 	c #7E7E7E",
"V 	c #505151",
"W 	c #262929",
"X 	c #262828",
"Y 	c #292B2B",
"Z 	c #3A444A",
"` 	c #181C1D",
" .	c #191D1D",
"..	c #181D1D",
"+.	c #3A454A",
"@.	c #191C1C",
"#.	c #191C1D",
"$.	c #181D1C",
"%.	c #0F0F0F",
"&.	c #161B1B",
"*.	c #394349",
"=.	c #0E0F0F",
"-.	c #394449",
";.	c #545A5A",
">.	c #5D6262",
",.	c #5E6363",
"'.	c #384348",
").	c #394348",
"!.	c #384248",
". . . . . . . . . . . . . . . . . . . . . . . . ",
"+ + + + + + + + + + + + + + + + + + + + + + + + ",
"+ + + + + + + + + + + + + + + + + + + + + + + + ",
"@ @ @ @ @ @ @ @ @ @ @ @ @ @ @ @ @ @ @ @ @ @ @ @ ",
"# # # # # # # # # # # # # # # # # # # # # # # # ",
"$ $ $ $ $ $ $ $ $ $ $ $ $ $ $ $ $ $ $ $ $ $ $ $ ",
"$ $ % & * * * * * * * * * * * * * * * * & % $ $ ",
"= % - ; > > > > > > > > > > > > > > > > ; - % = ",
", ' ) ! ~ { { ~ { { ~ { ~ { { { { { { ~ ! ) ' , ",
", * ! ] ^ { { ^ { { ^ { ^ { { { { { { ^ ] ! * , ",
", * / ~ ) { { ) { { ) { ) { { { { { { ) ~ / * , ",
"( * { ~ { { { { { { { { { { { { { { { { ~ { * ( ",
"_ * ] { ~ { { ~ : < [ } } [ < | 1 { { ~ { ] * _ ",
"2 * ^ / / 1 ! 3 4 5 6 7 8 9 5 4 0 ! 1 / / ^ * 2 ",
"a * b ^ c d e 4 < d c d c d d < 4 e d c ^ b * a ",
"f * g h b b < 5 b i j k k j i l 5 < b b h g * f ",
"a * m n n o [ p o j q q q q j n p [ o n n m * a ",
"r * s t u s } : s k q q q q k s : } s u t s * r ",
"v * w x y z } A z k q q q q k y A } z y x w * v ",
"B * z C C C [ p C D q q q q D E p [ C C C z * B ",
"F * G G G G H I G J D k k D J G I H G G G G * F ",
"K * L M L L N O H M L L L L M H O N L L M L * K ",
"P * Q Q R S R T U I V W X V I U T R S R Q Q * P ",
"P * S S S S S S Y H [ } } [ H Y S S S S S S * P ",
"P * S S S S S S S S S S S S S S S S S S S S * P ",
"Z * `  ...` ` ..` ` ..` ..` ` ` ` ` ` .. .` * Z ",
"+.* @...#.@.@.#.@.@.#.@.#.@.@.$.$.@.@.#...@.* +.",
"Z %.&.....................................&.%.Z ",
"*.*.=.&.................................&.=.*.*.",
"-.-.-.' * * * * * * * * * * * * * * * * ' -.-.-.",
"*.*.*.;.>.,.,.,.,.,.,.,.,.,.,.,.,.,.,.>.;.*.*.*.",
"*.*.*.*.*.*.*.*.*.*.*.*.*.*.*.*.*.*.*.*.*.*.*.*.",
"'.'.'.'.'.'.'.'.'.'.'.'.'.'.'.'.'.'.'.'.'.'.'.'.",
").).).).).).).).).).).).).).).).).).).).).).).).",
"!.!.!.!.!.!.!.!.!.!.!.!.!.!.!.!.!.!.!.!.!.!.!.!.",
"!.!.!.!.!.!.!.!.!.!.!.!.!.!.!.!.!.!.!.!.!.!.!.!."};
