/* XPM */
static char * stick_toggled_prelight_xpm[] = {
"24 36 134 2",
"  	c None",
". 	c #323A3F",
"+ 	c #414B51",
"@ 	c #414B50",
"# 	c #414A50",
"$ 	c #404A50",
"% 	c #353A3A",
"& 	c #181A1A",
"* 	c #0C0C0C",
"= 	c #0A0A0A",
"- 	c #404950",
"; 	c #131414",
"> 	c #3C4346",
", 	c #434B4D",
"' 	c #454D50",
") 	c #3F494F",
"! 	c #32393D",
"~ 	c #3D4548",
"{ 	c #3A4245",
"] 	c #3D4448",
"^ 	c #3B4246",
"/ 	c #3B4245",
"( 	c #3E494E",
"_ 	c #394043",
": 	c #394044",
"< 	c #3A4044",
"[ 	c #3A4043",
"} 	c #3E484E",
"| 	c #373E42",
"1 	c #373E41",
"2 	c #373D41",
"3 	c #525555",
"4 	c #B9B9B9",
"5 	c #E6E6E6",
"6 	c #FCFCFC",
"7 	c #373D42",
"8 	c #3D484D",
"9 	c #353C3F",
"0 	c #353B3F",
"a 	c #8E8F8F",
"b 	c #E0E0E0",
"c 	c #D2D2D2",
"d 	c #929494",
"e 	c #4D5050",
"f 	c #939394",
"g 	c #3D474D",
"h 	c #333A3D",
"i 	c #33393D",
"j 	c #333A3C",
"k 	c #4F5252",
"l 	c #B8B9B9",
"m 	c #3D474E",
"n 	c #31373B",
"o 	c #6A6C6D",
"p 	c #C7C7C7",
"q 	c #F4F4F4",
"r 	c #2F3539",
"s 	c #2F3538",
"t 	c #919292",
"u 	c #3C464D",
"v 	c #2D3336",
"w 	c #2C3337",
"x 	c #474B4B",
"y 	c #3D474C",
"z 	c #2A3135",
"A 	c #2A3134",
"B 	c #2B3134",
"C 	c #464A4A",
"D 	c #3C464C",
"E 	c #292F32",
"F 	c #282F32",
"G 	c #909191",
"H 	c #C6C7C7",
"I 	c #3B464B",
"J 	c #262D30",
"K 	c #272D2F",
"L 	c #272C30",
"M 	c #B7B7B7",
"N 	c #D1D1D1",
"O 	c #272D30",
"P 	c #676969",
"Q 	c #C6C7C6",
"R 	c #C6C6C7",
"S 	c #3C454B",
"T 	c #242A2D",
"U 	c #474A4A",
"V 	c #DFDFDF",
"W 	c #242B2D",
"X 	c #3B454B",
"Y 	c #22292B",
"Z 	c #22282B",
"` 	c #8A8B8B",
" .	c #8F9090",
"..	c #424545",
"+.	c #202629",
"@.	c #464748",
"#.	c #B6B7B7",
"$.	c #FBFCFC",
"%.	c #464848",
"&.	c #212629",
"*.	c #1E2427",
"=.	c #1F2426",
"-.	c #1E2426",
";.	c #1F2427",
">.	c #3A444A",
",.	c #1C2125",
"'.	c #1C2225",
").	c #1D2224",
"!.	c #1C2224",
"~.	c #1D2225",
"{.	c #3A454A",
"].	c #0B0C0C",
"^.	c #1A2022",
"/.	c #1B2023",
"(.	c #1B2123",
"_.	c #171B1D",
":.	c #1A1F22",
"<.	c #394349",
"[.	c #2F363A",
"}.	c #0E0F0F",
"|.	c #151818",
"1.	c #171C1C",
"2.	c #191E1E",
"3.	c #394449",
"4.	c #2F373A",
"5.	c #1A1B1B",
"6.	c #0C0D0D",
"7.	c #0B0B0B",
"8.	c #545A5A",
"9.	c #5D6262",
"0.	c #5E6363",
"a.	c #384348",
"b.	c #394348",
"c.	c #384248",
". . . . . . . . . . . . . . . . . . . . . . . . ",
"+ + + + + + + + + + + + + + + + + + + + + + + + ",
"+ + + + + + + + + + + + + + + + + + + + + + + + ",
"@ @ @ @ @ @ @ @ @ @ @ @ @ @ @ @ @ @ @ @ @ @ @ @ ",
"# # # # # # # # # # # # # # # # # # # # # # # # ",
"$ $ $ $ $ $ $ $ $ $ $ $ $ $ $ $ $ $ $ $ $ $ $ $ ",
"$ $ % & * = = = = = = = = = = = = = = * & % $ $ ",
"- % ; > , ' ' ' ' ' ' ' ' ' ' ' ' ' ' , > ; % - ",
") & ! ~ ~ ~ ~ ~ ~ ~ ~ ~ ~ ~ ~ ~ ~ ~ ~ ~ ~ ! & ) ",
") * { ] ] ] ] ] ] ] ] ] ] ] ] ] ] ] ] ] ] { * ) ",
") = ^ ^ ^ ^ ^ ^ ^ / ^ ^ ^ / ^ / ^ ^ ^ ^ ^ ^ = ) ",
"( = _ : : < _ : : : _ : [ _ : _ _ _ < : : _ = ( ",
"} = | 1 | | 2 1 3 4 5 6 6 5 4 3 7 2 | | 1 | = } ",
"8 = 9 0 9 9 0 a b c d e e f c b a 0 9 9 0 9 = 8 ",
"g = h i j i k b l i i i j i j l b k i j i h = g ",
"m = n n n n l c n o p q q p o n c l n n n n = m ",
"g = r r r s 5 t s p 6 6 6 6 p r t 5 s r r r = g ",
"u = v w v v 6 x v q 6 6 6 6 q w x 6 v v w v = u ",
"y = z A A B 6 C B q 6 6 6 6 q A C 6 B A A z = y ",
"D = E E F E 5 G E H 6 6 6 6 H E G 5 E F E E = D ",
"I = J J K L M N O P Q q q R P J N M L K J J = I ",
"S = T T T T U V M T W T T T T M V U T T T T = S ",
"X = Y Y Z Z Z ` V N  ..... .N V ` Z Z Z Y Y = X ",
"X = +.+.+.+.+.+.@.#.5 6 $.5 #.%.&.+.+.+.+.+.= X ",
"X = *.*.*.=.*.*.-.;.;.*.*.*.*.*.*.*.=.*.*.*.= X ",
">.= ,.'.'.).!.'.).!.,.).).!.).'.~.!.).'.'.,.= >.",
"{.].^./.(./.(./.(.(.(.(./.(.(.(.(.(./.(./.^.].{.",
">.& _.:.:.:.:.:.:.:.:.:.:.:.:.:.:.:.:.:.:._.& >.",
"<.[.}.|.1.2.2.2.2.2.2.2.2.2.2.2.2.2.2.1.|.}.[.<.",
"3.3.4.5.6.7.7.7.7.7.7.7.7.7.7.7.7.7.7.6.5.4.3.3.",
"<.<.<.8.9.0.0.0.0.0.0.0.0.0.0.0.0.0.0.9.8.<.<.<.",
"<.<.<.<.<.<.<.<.<.<.<.<.<.<.<.<.<.<.<.<.<.<.<.<.",
"a.a.a.a.a.a.a.a.a.a.a.a.a.a.a.a.a.a.a.a.a.a.a.a.",
"b.b.b.b.b.b.b.b.b.b.b.b.b.b.b.b.b.b.b.b.b.b.b.b.",
"c.c.c.c.c.c.c.c.c.c.c.c.c.c.c.c.c.c.c.c.c.c.c.c.",
"c.c.c.c.c.c.c.c.c.c.c.c.c.c.c.c.c.c.c.c.c.c.c.c."};
