/* XPM */
static char * stick_toggled_prelight_xpm[] = {
"24 36 137 2",
"  	c None",
". 	c #313133",
"+ 	c #4B5252",
"@ 	c #4B5151",
"# 	c #4B5251",
"$ 	c #4A5252",
"% 	c #4A5251",
"& 	c #4A5152",
"* 	c #4B5152",
"= 	c #4A5151",
"- 	c #4A5051",
"; 	c #495050",
"> 	c #424848",
", 	c #1F2121",
"' 	c #0D0D0D",
") 	c #0A0A0A",
"! 	c #4A5050",
"~ 	c #0F1010",
"{ 	c #272A2A",
"] 	c #3A3F3F",
"^ 	c #3F4545",
"/ 	c #494F50",
"( 	c #262929",
"_ 	c #3E4444",
": 	c #484F4F",
"< 	c #0D0E0E",
"[ 	c #383D3D",
"} 	c #3D4243",
"| 	c #484F4E",
"1 	c #3C4142",
"2 	c #484E4F",
"3 	c #474D4E",
"4 	c #3A3F40",
"5 	c #393F40",
"6 	c #3A3E40",
"7 	c #484E4E",
"8 	c #474D4D",
"9 	c #373C3D",
"0 	c #373C3E",
"a 	c #383C3D",
"b 	c #525555",
"c 	c #B9B9B9",
"d 	c #E6E6E6",
"e 	c #FCFCFC",
"f 	c #464D4D",
"g 	c #353A3B",
"h 	c #363A3B",
"i 	c #8E8F8F",
"j 	c #E0E0E0",
"k 	c #D2D2D2",
"l 	c #929494",
"m 	c #4D5050",
"n 	c #939394",
"o 	c #474D4C",
"p 	c #464C4C",
"q 	c #333939",
"r 	c #333839",
"s 	c #4F5252",
"t 	c #B8B9B9",
"u 	c #333838",
"v 	c #343839",
"w 	c #464C4B",
"x 	c #313636",
"y 	c #313637",
"z 	c #6A6C6D",
"A 	c #C7C7C7",
"B 	c #F4F4F4",
"C 	c #454B4B",
"D 	c #2F3435",
"E 	c #2F3434",
"F 	c #919292",
"G 	c #444B4B",
"H 	c #444A4A",
"I 	c #2D3232",
"J 	c #2C3133",
"K 	c #2D3132",
"L 	c #474B4B",
"M 	c #2C3233",
"N 	c #2A2F31",
"O 	c #2A3030",
"P 	c #2B3030",
"Q 	c #464A4A",
"R 	c #434A49",
"S 	c #292E2E",
"T 	c #282E2E",
"U 	c #909191",
"V 	c #C6C7C7",
"W 	c #434949",
"X 	c #262C2C",
"Y 	c #272B2B",
"Z 	c #272B2C",
"` 	c #B7B7B7",
" .	c #D1D1D1",
"..	c #676969",
"+.	c #C6C7C6",
"@.	c #C6C6C7",
"#.	c #262C2B",
"$.	c #424949",
"%.	c #242929",
"&.	c #242829",
"*.	c #474A4A",
"=.	c #DFDFDF",
"-.	c #232929",
";.	c #424747",
">.	c #222727",
",.	c #8A8B8B",
"'.	c #8F9090",
").	c #424545",
"!.	c #414747",
"~.	c #1F2525",
"{.	c #202525",
"].	c #202425",
"^.	c #464748",
"/.	c #B6B7B7",
"(.	c #FBFCFC",
"_.	c #464848",
":.	c #1E2323",
"<.	c #1D2323",
"[.	c #1E2322",
"}.	c #1B2021",
"|.	c #1C2020",
"1.	c #1C2120",
"2.	c #1C2021",
"3.	c #0C0D0D",
"4.	c #191E1E",
"5.	c #1B2020",
"6.	c #131515",
"7.	c #1A1F1F",
"8.	c #0C0C0C",
"9.	c #121515",
"0.	c #171C1C",
"a.	c #515656",
"b.	c #212222",
"c.	c #454C4C",
"d.	c #545A5A",
"e.	c #5D6262",
"f.	c #5E6363",
". . . . . . . . . . . . . . . . . . . . . . . . ",
"+ + + + + + + + + + + + + + + + + + + + + + + + ",
"+ + + + + + + + + + + + + + + + + + + + + + + + ",
"+ + + + + + + + + + + + + + + + + + + + + + + + ",
"@ + @ + # $ # + % & + # # # # # * + + + # + + + ",
"& = * % @ = @ = * @ # & @ = @ = & @ & = @ & @ = ",
"- ; > , ' ) ) ) ) ) ) ) ) ) ) ) ) ) ) ' , > ; = ",
"! > ~ { ] ^ ^ ^ ^ ^ ^ ^ ^ ^ ^ ^ ^ ^ ^ ] { ~ > - ",
"/ , ( _ _ _ _ _ _ _ _ _ _ _ _ _ _ _ _ _ _ ( , / ",
": < [ } } } } } } } } } } } } } } } } } } [ < : ",
"| ) 1 1 1 1 1 1 1 1 1 1 1 1 1 1 1 1 1 1 1 1 ) 2 ",
"3 ) 4 5 4 4 6 4 4 6 4 4 6 4 6 4 4 6 4 4 5 4 ) 7 ",
"8 ) 9 0 0 9 a 9 b c d e e d c b 9 a 9 0 0 9 ) 8 ",
"f ) g g g h g i j k l m m n k j i g h g g g ) o ",
"p ) q r r r s j t u v r u r u t j s r r r q ) p ",
"w ) x x y x t k x z A B B A z x k t x y x x ) C ",
"C ) D D D E d F E A e e e e A D F d E D D D ) G ",
"H ) I J I K e L K B e e e e B M L e K I J I ) H ",
"H ) N O O P e Q P B e e e e B O Q e P O O N ) H ",
"R ) S S T S d U S V e e e e V S U d S T S S ) H ",
"W ) X X Y Z `  .Z ..+.B B @...#. .` Z Y X X ) W ",
"$.) %.%.&.%.*.=.` %.-.%.%.%.%.` =.*.%.&.%.%.) > ",
";.) >.>.>.>.>.,.=. .'.).).'. .=.,.>.>.>.>.>.) > ",
"!.) ~.~.{.].~.{.^./.d e (.d /._.{.~.].{.~.~.) !.",
"!.) :.<.:.[.:.:.[.:.:.[.:.[.:.:.:.:.[.:.<.:.) !.",
"!.) }.}.}.|.1.2.|.1.2.|.1.|.1.2.2.1.|.}.}.}.) !.",
"!.3.4.5.5.5.5.5.5.5.5.5.5.5.5.5.5.5.5.5.5.4.3.!.",
"!., 6.7.7.7.7.7.7.7.7.7.7.7.7.7.7.7.7.7.7.6., !.",
"!.L 8.9.0.4.4.4.4.4.4.4.4.4.4.4.4.4.4.0.9.8.L !.",
"!.8 a.b.' ) ) ) ) ) ) ) ) ) ) ) ) ) ) ' b.a.8 !.",
"!.$.c.d.e.f.f.f.f.f.f.f.f.f.f.f.f.f.f.e.d.c.$.!.",
"!.!.!.!.!.!.!.!.!.!.!.!.!.!.!.!.!.!.!.!.!.!.!.!.",
"!.!.!.!.!.!.!.!.!.!.!.!.!.!.!.!.!.!.!.!.!.!.!.!.",
"!.!.!.!.!.!.!.!.!.!.!.!.!.!.!.!.!.!.!.!.!.!.!.!.",
"!.!.!.!.!.!.!.!.!.!.!.!.!.!.!.!.!.!.!.!.!.!.!.!.",
"!.!.!.!.!.!.!.!.!.!.!.!.!.!.!.!.!.!.!.!.!.!.!.!."};
