/* XPM */
static char * stick_prelight_xpm[] = {
"24 36 134 2",
"  	c None",
". 	c #313133",
"+ 	c #4B5252",
"@ 	c #4B5151",
"# 	c #4B5251",
"$ 	c #4A5252",
"% 	c #4A5251",
"& 	c #4A5152",
"* 	c #4B5152",
"= 	c #4A5151",
"- 	c #4A5051",
"; 	c #495050",
"> 	c #424848",
", 	c #1F2121",
"' 	c #0D0D0D",
") 	c #0A0A0A",
"! 	c #4A5050",
"~ 	c #0F1010",
"{ 	c #272A2A",
"] 	c #3A3F3F",
"^ 	c #3F4545",
"/ 	c #494F50",
"( 	c #262929",
"_ 	c #3E4444",
": 	c #484F4F",
"< 	c #0D0E0E",
"[ 	c #383D3D",
"} 	c #3D4243",
"| 	c #484F4E",
"1 	c #3C4142",
"2 	c #484E4F",
"3 	c #474D4E",
"4 	c #3A3F40",
"5 	c #393F40",
"6 	c #3A3E40",
"7 	c #484E4E",
"8 	c #474D4D",
"9 	c #373C3D",
"0 	c #373C3E",
"a 	c #383C3D",
"b 	c #525555",
"c 	c #B9B9B9",
"d 	c #E6E6E6",
"e 	c #FCFCFC",
"f 	c #464D4D",
"g 	c #353A3B",
"h 	c #363A3B",
"i 	c #8E8F8F",
"j 	c #E0E0E0",
"k 	c #D2D2D2",
"l 	c #929494",
"m 	c #4D5050",
"n 	c #939394",
"o 	c #474D4C",
"p 	c #464C4C",
"q 	c #333939",
"r 	c #333839",
"s 	c #4F5252",
"t 	c #B8B9B9",
"u 	c #333838",
"v 	c #343839",
"w 	c #464C4B",
"x 	c #313636",
"y 	c #313637",
"z 	c #454B4B",
"A 	c #2F3435",
"B 	c #2F3434",
"C 	c #919292",
"D 	c #444B4B",
"E 	c #444A4A",
"F 	c #2D3232",
"G 	c #2C3133",
"H 	c #2D3132",
"I 	c #474B4B",
"J 	c #2D3133",
"K 	c #2C3233",
"L 	c #2A2F31",
"M 	c #2A3030",
"N 	c #2B3030",
"O 	c #464A4A",
"P 	c #2B3031",
"Q 	c #434A49",
"R 	c #292E2E",
"S 	c #282E2E",
"T 	c #909191",
"U 	c #282D2E",
"V 	c #434949",
"W 	c #262C2C",
"X 	c #272B2B",
"Y 	c #272B2C",
"Z 	c #B7B7B7",
"` 	c #D1D1D1",
" .	c #272C2C",
"..	c #262C2B",
"+.	c #424949",
"@.	c #242929",
"#.	c #242829",
"$.	c #474A4A",
"%.	c #DFDFDF",
"&.	c #232929",
"*.	c #424747",
"=.	c #222727",
"-.	c #8A8B8B",
";.	c #8F9090",
">.	c #424545",
",.	c #414747",
"'.	c #1F2525",
").	c #202525",
"!.	c #202425",
"~.	c #464748",
"{.	c #B6B7B7",
"].	c #FBFCFC",
"^.	c #464848",
"/.	c #1E2323",
"(.	c #1D2323",
"_.	c #1E2322",
":.	c #1B2021",
"<.	c #1C2020",
"[.	c #1C2120",
"}.	c #1C2021",
"|.	c #0C0D0D",
"1.	c #191E1E",
"2.	c #1B2020",
"3.	c #131515",
"4.	c #1A1F1F",
"5.	c #0C0C0C",
"6.	c #121515",
"7.	c #171C1C",
"8.	c #515656",
"9.	c #212222",
"0.	c #454C4C",
"a.	c #545A5A",
"b.	c #5D6262",
"c.	c #5E6363",
". . . . . . . . . . . . . . . . . . . . . . . . ",
"+ + + + + + + + + + + + + + + + + + + + + + + + ",
"+ + + + + + + + + + + + + + + + + + + + + + + + ",
"+ + + + + + + + + + + + + + + + + + + + + + + + ",
"@ + @ + # $ # + % & + # # # # # * + + + # + + + ",
"& = * % @ = @ = * @ # & @ = @ = & @ & = @ & @ = ",
"- ; > , ' ) ) ) ) ) ) ) ) ) ) ) ) ) ) ' , > ; = ",
"! > ~ { ] ^ ^ ^ ^ ^ ^ ^ ^ ^ ^ ^ ^ ^ ^ ] { ~ > - ",
"/ , ( _ _ _ _ _ _ _ _ _ _ _ _ _ _ _ _ _ _ ( , / ",
": < [ } } } } } } } } } } } } } } } } } } [ < : ",
"| ) 1 1 1 1 1 1 1 1 1 1 1 1 1 1 1 1 1 1 1 1 ) 2 ",
"3 ) 4 5 4 4 6 4 4 6 4 4 6 4 6 4 4 6 4 4 5 4 ) 7 ",
"8 ) 9 0 0 9 a 9 b c d e e d c b 9 a 9 0 0 9 ) 8 ",
"f ) g g g h g i j k l m m n k j i g h g g g ) o ",
"p ) q r r r s j t u v r u r u t j s r r r q ) p ",
"w ) x x y x t k x y x x y x y x k t x y x x ) z ",
"z ) A A A B d C B B A B B B B A C d B A A A ) D ",
"E ) F G F H e I H J K H J H J K I e H F G F ) E ",
"E ) L M M N e O N P M N P N P M O e N M M L ) E ",
"Q ) R R S R d T R U R R U R U R T d R S R R ) E ",
"V ) W W X Y Z ` Y  ...Y  .Y  ...` Z Y X W W ) V ",
"+.) @.@.#.@.$.%.Z @.&.@.@.@.@.Z %.$.@.#.@.@.) > ",
"*.) =.=.=.=.=.-.%.` ;.>.>.;.` %.-.=.=.=.=.=.) > ",
",.) '.'.).!.'.).~.{.d e ].d {.^.).'.!.).'.'.) ,.",
",.) /.(./._././._././._./._././././._./.(./.) ,.",
",.) :.:.:.<.[.}.<.[.}.<.[.<.[.}.}.[.<.:.:.:.) ,.",
",.|.1.2.2.2.2.2.2.2.2.2.2.2.2.2.2.2.2.2.2.1.|.,.",
",., 3.4.4.4.4.4.4.4.4.4.4.4.4.4.4.4.4.4.4.3., ,.",
",.I 5.6.7.1.1.1.1.1.1.1.1.1.1.1.1.1.1.7.6.5.I ,.",
",.8 8.9.' ) ) ) ) ) ) ) ) ) ) ) ) ) ) ' 9.8.8 ,.",
",.+.0.a.b.c.c.c.c.c.c.c.c.c.c.c.c.c.c.b.a.0.+.,.",
",.,.,.,.,.,.,.,.,.,.,.,.,.,.,.,.,.,.,.,.,.,.,.,.",
",.,.,.,.,.,.,.,.,.,.,.,.,.,.,.,.,.,.,.,.,.,.,.,.",
",.,.,.,.,.,.,.,.,.,.,.,.,.,.,.,.,.,.,.,.,.,.,.,.",
",.,.,.,.,.,.,.,.,.,.,.,.,.,.,.,.,.,.,.,.,.,.,.,.",
",.,.,.,.,.,.,.,.,.,.,.,.,.,.,.,.,.,.,.,.,.,.,.,."};
