/* XPM */
static char * stick_pressed_xpm[] = {
"24 36 108 2",
"  	c None",
". 	c #313133",
"+ 	c #4B5252",
"@ 	c #4B5151",
"# 	c #4B5251",
"$ 	c #4A5252",
"% 	c #4A5251",
"& 	c #4A5152",
"* 	c #4B5152",
"= 	c #4A5151",
"- 	c #4A5051",
"; 	c #495050",
"> 	c #424848",
", 	c #101010",
"' 	c #0A0A0A",
") 	c #4A5050",
"! 	c #0B0D0D",
"~ 	c #0E1212",
"{ 	c #0F1313",
"] 	c #494F50",
"^ 	c #0F1010",
"/ 	c #101514",
"( 	c #111514",
"_ 	c #111414",
": 	c #101414",
"< 	c #484F4F",
"[ 	c #101415",
"} 	c #111515",
"| 	c #484F4E",
"1 	c #111415",
"2 	c #484E4F",
"3 	c #474D4E",
"4 	c #484E4E",
"5 	c #474D4D",
"6 	c #404242",
"7 	c #B6B6B6",
"8 	c #E5E5E5",
"9 	c #FBFBFB",
"0 	c #101515",
"a 	c #464D4D",
"b 	c #888989",
"c 	c #DFDFDF",
"d 	c #D0D0D0",
"e 	c #8D8D8D",
"f 	c #3B3D3D",
"g 	c #3C3D3D",
"h 	c #474D4C",
"i 	c #464C4C",
"j 	c #121616",
"k 	c #121515",
"l 	c #121516",
"m 	c #414242",
"n 	c #464C4B",
"o 	c #121716",
"p 	c #121717",
"q 	c #D0D1D1",
"r 	c #131716",
"s 	c #131616",
"t 	c #454B4B",
"u 	c #131817",
"v 	c #131717",
"w 	c #131718",
"x 	c #8D8E8E",
"y 	c #444B4B",
"z 	c #444A4A",
"A 	c #141818",
"B 	c #141718",
"C 	c #141817",
"D 	c #3D3E3E",
"E 	c #141819",
"F 	c #141919",
"G 	c #151918",
"H 	c #151919",
"I 	c #151819",
"J 	c #434A49",
"K 	c #161919",
"L 	c #8E8E8E",
"M 	c #15191A",
"N 	c #434949",
"O 	c #161A1A",
"P 	c #D1D1D1",
"Q 	c #424949",
"R 	c #171B1B",
"S 	c #171A1B",
"T 	c #424344",
"U 	c #424747",
"V 	c #171C1B",
"W 	c #181B1B",
"X 	c #181C1C",
"Y 	c #898989",
"Z 	c #3E3F3F",
"` 	c #414747",
" .	c #434444",
"..	c #181C1D",
"+.	c #191D1D",
"@.	c #181D1D",
"#.	c #191C1C",
"$.	c #191C1D",
"%.	c #181D1C",
"&.	c #0F0F0F",
"*.	c #161B1B",
"=.	c #474B4B",
"-.	c #0E0F0F",
";.	c #515656",
">.	c #454C4C",
",.	c #545A5A",
"'.	c #5D6262",
").	c #5E6363",
". . . . . . . . . . . . . . . . . . . . . . . . ",
"+ + + + + + + + + + + + + + + + + + + + + + + + ",
"+ + + + + + + + + + + + + + + + + + + + + + + + ",
"+ + + + + + + + + + + + + + + + + + + + + + + + ",
"@ + @ + # $ # + % & + # # # # # * + + + # + + + ",
"& = * % @ = @ = * @ # & @ = @ = & @ & = @ & @ = ",
"- ; > , ' ' ' ' ' ' ' ' ' ' ' ' ' ' ' ' , > ; = ",
") > ! ~ { { { { { { { { { { { { { { { { ~ ! > - ",
"] ^ / ( _ : : _ : : _ : _ : : : : : : _ ( / ^ ] ",
"< ' ( [ } : : } : : } : } : : : : : : } [ ( ' < ",
"| ' 1 _ / : : / : : / : / : : : : : : / _ 1 ' 2 ",
"3 ' : _ : : : : : : : : : : : : : : : : _ : ' 4 ",
"5 ' [ : _ : : _ 6 7 8 9 9 8 7 6 0 : : _ : [ ' 5 ",
"a ' } 1 1 0 ( b c d e f g e d c b ( 0 1 1 } ' h ",
"i ' j } k l m c 7 l k l k l l 7 c m l k } j ' i ",
"n ' o p j j 7 q j r j j j j r s q 7 j j p o ' t ",
"t ' u v v w 8 x w v v w v w v v x 8 w v v u ' y ",
"z ' A B C A 9 D A v C A C A v A D 9 A C B A ' z ",
"z ' E F G H 9 D H I G H G H I G D 9 H G F E ' z ",
"J ' H K K K 8 L K M K K K K M M x 8 K K K H ' z ",
"N ' O O O O 7 P O O O O O O O O P 7 O O O O ' N ",
"Q ' R S R R T c 7 S R R R R S 7 c T R R S R ' > ",
"U ' V V W X W Y c P L Z Z L P c Y W X W V V ' > ",
"` ' X X X X X X  .7 8 9 9 8 7  .X X X X X X ' ` ",
"` ' X X X X X X X X X X X X X X X X X X X X ' ` ",
"` ' ..+.@.....@.....@...@.............@.+...' ` ",
"` ' #.@.$.#.#.$.#.#.$.#.$.#.#.%.%.#.#.$.@.#.' ` ",
"` &.*.@.@.@.@.@.@.@.@.@.@.@.@.@.@.@.@.@.@.*.&.` ",
"` =.-.*.@.@.@.@.@.@.@.@.@.@.@.@.@.@.@.@.*.-.=.` ",
"` 5 ;.^ ' ' ' ' ' ' ' ' ' ' ' ' ' ' ' ' ^ ;.5 ` ",
"` Q >.,.'.).).).).).).).).).).).).).).'.,.>.Q ` ",
"` ` ` ` ` ` ` ` ` ` ` ` ` ` ` ` ` ` ` ` ` ` ` ` ",
"` ` ` ` ` ` ` ` ` ` ` ` ` ` ` ` ` ` ` ` ` ` ` ` ",
"` ` ` ` ` ` ` ` ` ` ` ` ` ` ` ` ` ` ` ` ` ` ` ` ",
"` ` ` ` ` ` ` ` ` ` ` ` ` ` ` ` ` ` ` ` ` ` ` ` ",
"` ` ` ` ` ` ` ` ` ` ` ` ` ` ` ` ` ` ` ` ` ` ` ` "};
