/* XPM */
static char * stick_active_xpm[] = {
"24 36 131 2",
"  	c None",
". 	c #313133",
"+ 	c #4B5252",
"@ 	c #4B5151",
"# 	c #4B5251",
"$ 	c #4A5252",
"% 	c #4A5251",
"& 	c #4A5152",
"* 	c #4B5152",
"= 	c #4A5151",
"- 	c #4A5051",
"; 	c #495050",
"> 	c #3C4242",
", 	c #191B1B",
"' 	c #0C0C0C",
") 	c #0A0A0A",
"! 	c #4A5050",
"~ 	c #3F4646",
"{ 	c #0E0E0E",
"] 	c #1E2222",
"^ 	c #2C3131",
"/ 	c #303636",
"( 	c #494F50",
"_ 	c #1A1C1C",
": 	c #1E2121",
"< 	c #2F3535",
"[ 	c #484F4F",
"} 	c #2B3131",
"| 	c #484F4E",
"1 	c #2F3434",
"2 	c #484E4F",
"3 	c #474D4E",
"4 	c #484E4E",
"5 	c #474D4D",
"6 	c #2F3433",
"7 	c #2F3333",
"8 	c #2E3434",
"9 	c #4C5050",
"0 	c #B8B8B8",
"a 	c #E6E6E6",
"b 	c #FCFCFC",
"c 	c #464D4D",
"d 	c #2D3232",
"e 	c #2E3332",
"f 	c #2D3233",
"g 	c #8C8D8D",
"h 	c #DFE0E0",
"i 	c #D2D2D2",
"j 	c #919292",
"k 	c #484B4B",
"l 	c #474D4C",
"m 	c #464C4C",
"n 	c #2C3130",
"o 	c #2C3031",
"p 	c #2B3030",
"q 	c #2B3031",
"r 	c #4B4E4E",
"s 	c #DFDFDF",
"t 	c #B7B8B8",
"u 	c #2B3130",
"v 	c #464C4B",
"w 	c #2A2F2E",
"x 	c #2A2F2F",
"y 	c #D1D2D2",
"z 	c #292F2F",
"A 	c #454B4B",
"B 	c #282E2D",
"C 	c #292D2E",
"D 	c #282D2E",
"E 	c #909191",
"F 	c #292E2E",
"G 	c #444B4B",
"H 	c #444A4A",
"I 	c #262B2C",
"J 	c #272C2C",
"K 	c #272C2B",
"L 	c #454747",
"M 	c #272B2C",
"N 	c #252B2A",
"O 	c #252B2B",
"P 	c #252A2B",
"Q 	c #262A2B",
"R 	c #444646",
"S 	c #252A2A",
"T 	c #434A49",
"U 	c #242929",
"V 	c #8F9090",
"W 	c #242829",
"X 	c #242928",
"Y 	c #434949",
"Z 	c #222727",
"` 	c #232727",
" .	c #222728",
"..	c #B7B7B7",
"+.	c #D1D1D1",
"@.	c #222827",
"#.	c #424949",
"$.	c #212625",
"%.	c #212626",
"&.	c #202626",
"*.	c #464848",
"=.	c #424848",
"-.	c #424747",
";.	c #1F2424",
">.	c #202424",
",.	c #202524",
"'.	c #8A8B8B",
").	c #8F8F8F",
"!.	c #414443",
"~.	c #414747",
"{.	c #1E2323",
"].	c #1E2322",
"^.	c #1E2223",
"/.	c #B6B7B7",
"(.	c #E5E6E6",
"_.	c #FBFCFC",
":.	c #1C2121",
"<.	c #1B2020",
"[.	c #181D1D",
"}.	c #1A1F1F",
"|.	c #1A1B1B",
"1.	c #121515",
"2.	c #191E1E",
"3.	c #434848",
"4.	c #0B0C0C",
"5.	c #121414",
"6.	c #171B1B",
"7.	c #484D4D",
"8.	c #555B5B",
"9.	c #5C6161",
"0.	c #5E6363",
". . . . . . . . . . . . . . . . . . . . . . . . ",
"+ + + + + + + + + + + + + + + + + + + + + + + + ",
"+ + + + + + + + + + + + + + + + + + + + + + + + ",
"+ + + + + + + + + + + + + + + + + + + + + + + + ",
"@ + @ + # $ # + % & + # # # # # * + + + # + + + ",
"& = * % @ = @ = * @ # & @ = @ = & @ & = @ & @ = ",
"- ; > , ' ) ) ) ) ) ) ) ) ) ) ) ) ) ) ' , > ; = ",
"! ~ { ] ^ / / / / / / / / / / / / / / ^ ] { ~ - ",
"( _ : < < < < < < < < < < < < < < < < < < : _ ( ",
"[ ' } < < < < < < < < < < < < < < < < < < } ' [ ",
"| ) 1 1 1 1 1 1 1 1 1 1 1 1 1 1 1 1 1 1 1 1 ) 2 ",
"3 ) 1 1 1 1 1 1 1 1 1 1 1 1 1 1 1 1 1 1 1 1 ) 4 ",
"5 ) 6 7 8 1 7 8 9 0 a b b a 0 9 8 7 1 8 7 6 ) 5 ",
"c ) d e f f f g h i j k k j i h g f f f e d ) l ",
"m ) n o p q r s t u p p u p p t s r q p o n ) m ",
"v ) w w w x t y z x x z x x z z y t x w w w ) A ",
"A ) B C D C a E F B C F B C F F E a C D C B ) G ",
"H ) I J K J b L K J M K J M K K L b J K J I ) H ",
"H ) N O P Q b R S P S S P S S S R b Q P O N ) H ",
"T ) U U U U a V W U X W U X W W V a U U U U ) H ",
"Y ) Z `  .` ..+.Z @.Z Z @.Z Z Z +...`  .` Z ) Y ",
"#.) $.%.%.&.*.s ..%.&.%.%.&.%...s *.&.%.%.$.) =.",
"-.) ;.>.,.;.,.'.s +.).!.!.).+.s '.,.;.,.>.;.) =.",
"~.) {.{.].^.{.{.L /.(._._.(./.L {.{.^.].{.{.) ~.",
"~.) :.:.:.:.:.:.:.:.:.:.:.:.:.:.:.:.:.:.:.:.) ~.",
"~.) <.<.<.<.<.<.<.<.<.<.<.<.<.<.<.<.<.<.<.<.) ~.",
"~.' [.}.}.}.}.}.}.}.}.}.}.}.}.}.}.}.}.}.}.[.' ~.",
"~.|.1.2.2.2.2.2.2.2.2.2.2.2.2.2.2.2.2.2.2.1.|.~.",
"~.3.4.5.6.[.[.[.[.[.[.[.[.[.[.[.[.[.[.6.5.4.3.~.",
"~.5 7.|.' ) ) ) ) ) ) ) ) ) ) ) ) ) ) ' |.7.5 ~.",
"~.#.c 8.9.0.0.0.0.0.0.0.0.0.0.0.0.0.0.9.8.c #.~.",
"~.~.~.~.~.~.~.~.~.~.~.~.~.~.~.~.~.~.~.~.~.~.~.~.",
"~.~.~.~.~.~.~.~.~.~.~.~.~.~.~.~.~.~.~.~.~.~.~.~.",
"~.~.~.~.~.~.~.~.~.~.~.~.~.~.~.~.~.~.~.~.~.~.~.~.",
"~.~.~.~.~.~.~.~.~.~.~.~.~.~.~.~.~.~.~.~.~.~.~.~.",
"~.~.~.~.~.~.~.~.~.~.~.~.~.~.~.~.~.~.~.~.~.~.~.~."};
