/* XPM */
static char * stick_inactive_xpm[] = {
"24 36 114 2",
"  	c None",
". 	c #313133",
"+ 	c #4B5252",
"@ 	c #4B5151",
"# 	c #4B5251",
"$ 	c #4A5252",
"% 	c #4A5251",
"& 	c #4A5152",
"* 	c #4B5152",
"= 	c #4A5151",
"- 	c #4A5051",
"; 	c #495050",
"> 	c #424848",
", 	c #101010",
"' 	c #0A0A0A",
") 	c #4A5050",
"! 	c #0B0D0D",
"~ 	c #0E1212",
"{ 	c #0F1313",
"] 	c #494F50",
"^ 	c #0F1010",
"/ 	c #101514",
"( 	c #111514",
"_ 	c #111414",
": 	c #101414",
"< 	c #484F4F",
"[ 	c #101415",
"} 	c #111515",
"| 	c #484F4E",
"1 	c #111415",
"2 	c #484E4F",
"3 	c #474D4E",
"4 	c #484E4E",
"5 	c #474D4D",
"6 	c #242626",
"7 	c #666666",
"8 	c #818181",
"9 	c #8E8E8E",
"0 	c #242727",
"a 	c #101515",
"b 	c #464D4D",
"c 	c #4C4C4D",
"d 	c #7D7D7D",
"e 	c #757575",
"f 	c #4F4F4F",
"g 	c #222525",
"h 	c #222425",
"i 	c #4E4F4F",
"j 	c #4C4D4D",
"k 	c #474D4C",
"l 	c #464C4C",
"m 	c #121616",
"n 	c #121515",
"o 	c #121516",
"p 	c #252728",
"q 	c #464C4B",
"r 	c #121716",
"s 	c #121717",
"t 	c #131716",
"u 	c #131616",
"v 	c #454B4B",
"w 	c #131817",
"x 	c #131717",
"y 	c #131718",
"z 	c #4F5050",
"A 	c #444B4B",
"B 	c #444A4A",
"C 	c #141818",
"D 	c #141718",
"E 	c #141817",
"F 	c #141819",
"G 	c #141919",
"H 	c #151918",
"I 	c #151919",
"J 	c #252726",
"K 	c #151819",
"L 	c #434A49",
"M 	c #161919",
"N 	c #15191A",
"O 	c #434949",
"P 	c #161A1A",
"Q 	c #666767",
"R 	c #757676",
"S 	c #424949",
"T 	c #171B1B",
"U 	c #171A1B",
"V 	c #282A2A",
"W 	c #7D7E7E",
"X 	c #424747",
"Y 	c #171C1B",
"Z 	c #181B1B",
"` 	c #181C1C",
" .	c #4D4E4E",
"..	c #7E7E7E",
"+.	c #505151",
"@.	c #262929",
"#.	c #262828",
"$.	c #414747",
"%.	c #292B2B",
"&.	c #181C1D",
"*.	c #191D1D",
"=.	c #181D1D",
"-.	c #191C1C",
";.	c #191C1D",
">.	c #181D1C",
",.	c #0F0F0F",
"'.	c #161B1B",
").	c #474B4B",
"!.	c #0E0F0F",
"~.	c #515656",
"{.	c #454C4C",
"].	c #545A5A",
"^.	c #5D6262",
"/.	c #5E6363",
". . . . . . . . . . . . . . . . . . . . . . . . ",
"+ + + + + + + + + + + + + + + + + + + + + + + + ",
"+ + + + + + + + + + + + + + + + + + + + + + + + ",
"+ + + + + + + + + + + + + + + + + + + + + + + + ",
"@ + @ + # $ # + % & + # # # # # * + + + # + + + ",
"& = * % @ = @ = * @ # & @ = @ = & @ & = @ & @ = ",
"- ; > , ' ' ' ' ' ' ' ' ' ' ' ' ' ' ' ' , > ; = ",
") > ! ~ { { { { { { { { { { { { { { { { ~ ! > - ",
"] ^ / ( _ : : _ : : _ : _ : : : : : : _ ( / ^ ] ",
"< ' ( [ } : : } : : } : } : : : : : : } [ ( ' < ",
"| ' 1 _ / : : / : : / : / : : : : : : / _ 1 ' 2 ",
"3 ' : _ : : : : : : : : : : : : : : : : _ : ' 4 ",
"5 ' [ : _ : : _ 6 7 8 9 9 8 7 0 a : : _ : [ ' 5 ",
"b ' } 1 1 a ( c d e f g h i e d j ( a 1 1 } ' k ",
"l ' m } n o p d 7 o n o n o o 7 d p o n } m ' l ",
"q ' r s m m 7 e m t m m m m t u e 7 m m s r ' v ",
"v ' w x x y 8 z y x x y x y x x z 8 y x x w ' A ",
"B ' C D E C 9 6 C x E C E C x C 6 9 C E D C ' B ",
"B ' F G H I 9 J I K H I H I K H J 9 I H G F ' B ",
"L ' I M M M 8 z M N M M M M N N z 8 M M M I ' B ",
"O ' P P P P Q R P P P P P P P P R Q P P P P ' O ",
"S ' T U T T V W Q U T T T T U Q W V T T U T ' > ",
"X ' Y Y Z ` Z  ...R +.@.#.+.R .. .Z ` Z Y Y ' > ",
"$.' ` ` ` ` ` ` %.Q 8 9 9 8 Q %.` ` ` ` ` ` ' $.",
"$.' ` ` ` ` ` ` ` ` ` ` ` ` ` ` ` ` ` ` ` ` ' $.",
"$.' &.*.=.&.&.=.&.&.=.&.=.&.&.&.&.&.&.=.*.&.' $.",
"$.' -.=.;.-.-.;.-.-.;.-.;.-.-.>.>.-.-.;.=.-.' $.",
"$.,.'.=.=.=.=.=.=.=.=.=.=.=.=.=.=.=.=.=.=.'.,.$.",
"$.).!.'.=.=.=.=.=.=.=.=.=.=.=.=.=.=.=.=.'.!.).$.",
"$.5 ~.^ ' ' ' ' ' ' ' ' ' ' ' ' ' ' ' ' ^ ~.5 $.",
"$.S {.].^././././././././././././././.^.].{.S $.",
"$.$.$.$.$.$.$.$.$.$.$.$.$.$.$.$.$.$.$.$.$.$.$.$.",
"$.$.$.$.$.$.$.$.$.$.$.$.$.$.$.$.$.$.$.$.$.$.$.$.",
"$.$.$.$.$.$.$.$.$.$.$.$.$.$.$.$.$.$.$.$.$.$.$.$.",
"$.$.$.$.$.$.$.$.$.$.$.$.$.$.$.$.$.$.$.$.$.$.$.$.",
"$.$.$.$.$.$.$.$.$.$.$.$.$.$.$.$.$.$.$.$.$.$.$.$."};
