/* XPM */
static char * stick_toggled_active_xpm[] = {
"24 36 87 1",
" 	c None",
".	c #323A3F",
"+	c #414B51",
"@	c #414B50",
"#	c #414A50",
"$	c #404A50",
"%	c #202323",
"&	c #0F0F0F",
"*	c #0A0A0A",
"=	c #404950",
"-	c #161818",
";	c #323B41",
">	c #3F494F",
",	c #263036",
"'	c #3E494E",
")	c #263035",
"!	c #3E484E",
"~	c #252F35",
"{	c #4C5050",
"]	c #B8B8B8",
"^	c #E6E6E6",
"/	c #FCFCFC",
"(	c #3D484D",
"_	c #242E33",
":	c #8C8D8D",
"<	c #DFE0E0",
"[	c #D2D2D2",
"}	c #919292",
"|	c #484B4B",
"1	c #3D474D",
"2	c #242D32",
"3	c #4B4E4E",
"4	c #DFDFDF",
"5	c #B7B8B8",
"6	c #3D474E",
"7	c #232C31",
"8	c #D1D2D2",
"9	c #686A6A",
"0	c #C6C7C7",
"a	c #F4F4F4",
"b	c #222B30",
"c	c #909191",
"d	c #3C464D",
"e	c #212A2F",
"f	c #454747",
"g	c #3D474C",
"h	c #20282E",
"i	c #444646",
"j	c #3C464C",
"k	c #20272C",
"l	c #8F9090",
"m	c #C6C6C6",
"n	c #3B464B",
"o	c #1E262B",
"p	c #B7B7B7",
"q	c #D1D1D1",
"r	c #666767",
"s	c #3C454B",
"t	c #1E2429",
"u	c #464848",
"v	c #3B454B",
"w	c #1D2428",
"x	c #8A8B8B",
"y	c #8F8F8F",
"z	c #414443",
"A	c #1C2327",
"B	c #B6B7B7",
"C	c #E5E6E6",
"D	c #FBFCFC",
"E	c #1C2226",
"F	c #3A444A",
"G	c #1A2024",
"H	c #3A454A",
"I	c #394349",
"J	c #101212",
"K	c #171B1B",
"L	c #181D1D",
"M	c #394449",
"N	c #202424",
"O	c #101111",
"P	c #0B0C0C",
"Q	c #555B5B",
"R	c #5C6161",
"S	c #5E6363",
"T	c #384348",
"U	c #394348",
"V	c #384248",
"........................",
"++++++++++++++++++++++++",
"++++++++++++++++++++++++",
"@@@@@@@@@@@@@@@@@@@@@@@@",
"########################",
"$$$$$$$$$$$$$$$$$$$$$$$$",
"$$%&****************&%$$",
"=%-;;;;;;;;;;;;;;;;;;-%=",
">&,,,,,,,,,,,,,,,,,,,,&>",
">*,,,,,,,,,,,,,,,,,,,,*>",
">*,,,,,,,,,,,,,,,,,,,,*>",
"'*))))))))))))))))))))*'",
"!*~~~~~~{]^//^]{~~~~~~*!",
"(*_____:<[}||}[<:_____*(",
"1*22223452222225432222*1",
"6*777758790aa097857777*6",
"1*bbbb^cb0////0bc^bbbb*1",
"d*eeee/fea////aef/eeee*d",
"g*hhhh/iha////ahi/hhhh*g",
"j*kkkk^lkm////mkl^kkkk*j",
"n*oooopqormaamroqpoooo*n",
"s*ttttu4pttttttp4utttt*s",
"v*wwwwwx4qyzzyq4wwwwww*v",
"v*AAAAAAfBCDDCBfAAAAAA*v",
"v*EEEEEEEEEEEEEEEEEEEE*v",
"F*GGGGGGGGGGGGGGGGGGGG*F",
"H*GGGGGGGGGGGGGGGGGGGG*H",
"F&GGGGGGGGGGGGGGGGGGGG&F",
"I%JKLLLLLLLLLLLLLLLLKJ%I",
"MMNOPPPPPPPPPPPPPPPPONMM",
"IIIQRSSSSSSSSSSSSSSRQIII",
"IIIIIIIIIIIIIIIIIIIIIIII",
"TTTTTTTTTTTTTTTTTTTTTTTT",
"UUUUUUUUUUUUUUUUUUUUUUUU",
"VVVVVVVVVVVVVVVVVVVVVVVV",
"VVVVVVVVVVVVVVVVVVVVVVVV"};
