/* XPM */
static char * title_1_inactive_xpm[] = {
"24 36 76 1",
" 	c None",
".	c #313133",
"+	c #4B5252",
"@	c #4B5151",
"#	c #4B5251",
"$	c #4A5252",
"%	c #4A5251",
"&	c #4A5152",
"*	c #4B5152",
"=	c #4A5151",
"-	c #4A5051",
";	c #495150",
">	c #4A5150",
",	c #4A5050",
"'	c #495051",
")	c #495151",
"!	c #495050",
"~	c #494F50",
"{	c #49504F",
"]	c #485050",
"^	c #494F4F",
"/	c #484F4F",
"(	c #48504F",
"_	c #494F4E",
":	c #484F4E",
"<	c #484E4E",
"[	c #474F4E",
"}	c #474E4F",
"|	c #484E4F",
"1	c #474F4F",
"2	c #474D4E",
"3	c #474E4E",
"4	c #484E4D",
"5	c #484D4E",
"6	c #474D4D",
"7	c #474E4D",
"8	c #464E4D",
"9	c #464D4E",
"0	c #464D4D",
"a	c #464D4C",
"b	c #474D4C",
"c	c #464C4C",
"d	c #464C4D",
"e	c #454C4C",
"f	c #454C4D",
"g	c #464C4B",
"h	c #454C4B",
"i	c #454B4B",
"j	c #454B4C",
"k	c #464B4C",
"l	c #444B4B",
"m	c #444A4A",
"n	c #444B4A",
"o	c #444A4B",
"p	c #454B4A",
"q	c #454A4A",
"r	c #444A49",
"s	c #43494A",
"t	c #434A4A",
"u	c #434A49",
"v	c #434949",
"w	c #44494A",
"x	c #434948",
"y	c #434848",
"z	c #424949",
"A	c #424849",
"B	c #424948",
"C	c #424848",
"D	c #434849",
"E	c #424747",
"F	c #414847",
"G	c #414748",
"H	c #424748",
"I	c #414848",
"J	c #424847",
"K	c #414747",
"........................",
"++++++++++++++++++++++++",
"++++++++++++++++++++++++",
"++++++++++++++++++++++++",
"@+@+#$#+%&+#####*+++#+++",
"&=*%@=@=*@#&@=@=&@&=@&@=",
"--;>,'))>;=!>==>==)-=-;=",
",;!!!,'!!,!''!!!,!=!,;!-",
"~{{]~^~/({!~](!~{!~(!!~~",
"//^/^^/^////^///_////^^/",
":<[}<|1<||/<|/}<</<<//||",
"233334332<2324233<33335<",
"667837292062606222096766",
"00600ab0b000600cd00000ab",
"ccadceecccacddefcecfccac",
"geeheihgijgjhiggeehckchi",
"iiiiiiiiiliiilililllhiil",
"mnonmmomlnpoqoomlpllnlim",
"mmrsmmmmtmtttttrtmmtmmmm",
"uurvuututvvtvrtsuwtsvvvm",
"vxvyvvvzyAzvAvBzvBvvxvzv",
"zCCyCBCBBCzBCADAACCCBCCC",
"EFGHHIJCIGJCFIHCCCCIIHCC",
"KKKKKKKGGEJKKKKKEEKGFGEK",
"KKKKKKKKKKKKKKKKKKKKKKKK",
"KKKKKKKKKKKKKKKKKKKKKKKK",
"KKKKKKKKKKKKKKKKKKKKKKKK",
"KKKKKKKKKKKKKKKKKKKKKKKK",
"KKKKKKKKKKKKKKKKKKKKKKKK",
"KKKKKKKKKKKKKKKKKKKKKKKK",
"KKKKKKKKKKKKKKKKKKKKKKKK",
"KKKKKKKKKKKKKKKKKKKKKKKK",
"KKKKKKKKKKKKKKKKKKKKKKKK",
"KKKKKKKKKKKKKKKKKKKKKKKK",
"KKKKKKKKKKKKKKKKKKKKKKKK",
"KKKKKKKKKKKKKKKKKKKKKKKK"};
