/* XPM */
static char * top_right_inactive_xpm[] = {
"5 36 41 1",
" 	c None",
".	c #313133",
"+	c #4B5252",
"@	c #4B5251",
"#	c #4B5151",
"$	c #4A5152",
"%	c #4A5151",
"&	c #4A5051",
"*	c #495150",
"=	c #4A5050",
"-	c #495050",
";	c #494F50",
">	c #484F4F",
",	c #494F4F",
"'	c #484E4F",
")	c #474E4E",
"!	c #484D4E",
"~	c #484E4E",
"{	c #474D4D",
"]	c #474E4D",
"^	c #464D4D",
"/	c #464D4C",
"(	c #474D4C",
"_	c #464C4C",
":	c #464B4C",
"<	c #454C4B",
"[	c #454B4B",
"}	c #444B4B",
"|	c #444B4A",
"1	c #444A4A",
"2	c #434949",
"3	c #434948",
"4	c #424949",
"5	c #424948",
"6	c #424848",
"7	c #414848",
"8	c #424748",
"9	c #414847",
"0	c #414748",
"a	c #424747",
"b	c #414747",
"...  ",
"+++. ",
"++++.",
"++++.",
"@+++.",
"#$#%.",
"%&*%.",
"=*-&.",
"--;;.",
">,,>.",
">>''.",
"))!~.",
"{]{{.",
"^^/(.",
"__/_.",
":_<[.",
"<[[}.",
"|}[1.",
"1111.",
"2221.",
"3242.",
"5666.",
"7866.",
"90ab.",
"90ab.",
"90ab.",
"90ab.",
"90ab.",
"90ab.",
"90ab.",
"90ab.",
"90ab.",
"90ab.",
"90ab.",
"90ab.",
"90ab."};
