<?xml version="1.0" encoding="UTF-8" standalone="no"?>
<!-- Generator: Adobe Illustrator 13.0.2, SVG Export Plug-In . SVG Version: 6.00 Build 14948)  -->

<svg
   xmlns:dc="http://purl.org/dc/elements/1.1/"
   xmlns:cc="http://creativecommons.org/ns#"
   xmlns:rdf="http://www.w3.org/1999/02/22-rdf-syntax-ns#"
   xmlns:svg="http://www.w3.org/2000/svg"
   xmlns="http://www.w3.org/2000/svg"
   xmlns:sodipodi="http://sodipodi.sourceforge.net/DTD/sodipodi-0.dtd"
   xmlns:inkscape="http://www.inkscape.org/namespaces/inkscape"
   version="1.1"
   id="Foreground"
   x="0px"
   y="0px"
   width="32"
   height="32"
   viewBox="0 0 32 32"
   enable-background="new 0 0 16 16"
   xml:space="preserve"
   sodipodi:version="0.32"
   inkscape:version="0.48.2 r9819"
   sodipodi:docname="close-window.svg"
   inkscape:output_extension="org.inkscape.output.svg.inkscape"
   inkscape:export-filename="/home/fayssal/themes/Clear (copy)/cinnamon/close-window.png"
   inkscape:export-xdpi="90"
   inkscape:export-ydpi="90"><metadata
   id="metadata2399"><rdf:RDF><cc:Work
       rdf:about=""><dc:format>image/svg+xml</dc:format><dc:type
         rdf:resource="http://purl.org/dc/dcmitype/StillImage" /><dc:title></dc:title></cc:Work></rdf:RDF></metadata><defs
   id="defs2397"><linearGradient
     id="linearGradient3173"><stop
       style="stop-color:#c4c4c4;stop-opacity:1;"
       offset="0"
       id="stop3175" /><stop
       style="stop-color:#ffffff;stop-opacity:1;"
       offset="1"
       id="stop3177" /></linearGradient><inkscape:perspective
     sodipodi:type="inkscape:persp3d"
     inkscape:vp_x="0 : 8 : 1"
     inkscape:vp_y="0 : 1000 : 0"
     inkscape:vp_z="16 : 8 : 1"
     inkscape:persp3d-origin="8 : 5.3333333 : 1"
     id="perspective2401" /><filter
     inkscape:collect="always"
     id="filter3821"><feGaussianBlur
       inkscape:collect="always"
       stdDeviation="0.15131006"
       id="feGaussianBlur3823" /></filter><filter
     inkscape:collect="always"
     id="filter3835"><feGaussianBlur
       inkscape:collect="always"
       stdDeviation="0.23375"
       id="feGaussianBlur3837" /></filter><filter
     inkscape:collect="always"
     id="filter3845"><feGaussianBlur
       inkscape:collect="always"
       stdDeviation="0.114375"
       id="feGaussianBlur3847" /></filter><filter
     inkscape:collect="always"
     id="filter3855"><feGaussianBlur
       inkscape:collect="always"
       stdDeviation="0.2225"
       id="feGaussianBlur3857" /></filter></defs><sodipodi:namedview
   inkscape:window-height="850"
   inkscape:window-width="1440"
   inkscape:pageshadow="2"
   inkscape:pageopacity="0.0"
   guidetolerance="10.0"
   gridtolerance="10.0"
   objecttolerance="10.0"
   borderopacity="1.0"
   bordercolor="#666666"
   pagecolor="#ffffff"
   id="base"
   showgrid="false"
   inkscape:zoom="16.0625"
   inkscape:cx="12.436383"
   inkscape:cy="17.300512"
   inkscape:window-x="0"
   inkscape:window-y="0"
   inkscape:current-layer="Foreground"
   inkscape:window-maximized="1" />

<path
   sodipodi:type="inkscape:offset"
   inkscape:radius="-0.43579766"
   inkscape:original="M 6.5 5.5625 C 5.9902462 5.5625 5.5625 5.9902462 5.5625 6.5 L 5.5625 25.5 C 5.5625 26.009753 5.9902468 26.4375 6.5 26.4375 L 25.5 26.4375 C 26.009754 26.4375 26.4375 26.009754 26.4375 25.5 L 26.4375 6.5 C 26.4375 5.9902468 26.009753 5.5625 25.5 5.5625 L 6.5 5.5625 z "
   style="fill:#eeeeec;fill-opacity:0.30769234;stroke:#729fcf;stroke-width:1.5;stroke-miterlimit:4;stroke-dasharray:none;filter:url(#filter3855)"
   id="path3861"
   d="M 6.5,6 C 6.2340381,6 6,6.2340381 6,6.5 l 0,19 C 6,25.76596 6.2340395,26 6.5,26 l 19,0 c 0.265962,0 0.5,-0.234038 0.5,-0.5 l 0,-19 C 26,6.2340395 25.76596,6 25.5,6 l -19,0 z"
   transform="matrix(0.91381474,0,0,0.91381474,1.3789641,1.3789641)" /><rect
   style="fill:none;stroke:#204a87;stroke-width:1.37072206;stroke-miterlimit:4;stroke-dasharray:none"
   id="rect2987"
   width="19.75259"
   height="19.75259"
   x="6.1237049"
   y="6.1237049"
   ry="1.1947149" /><path
   sodipodi:type="inkscape:offset"
   inkscape:radius="0.52826655"
   inkscape:original="M 10.0625 8.96875 L 8.96875 10.0625 L 14.90625 16 L 8.96875 21.9375 L 10.0625 23.03125 L 16 17.09375 L 21.9375 23.03125 L 23.03125 21.9375 L 17.09375 16 L 23.03125 10.0625 L 21.9375 8.96875 L 16 14.90625 L 10.0625 8.96875 z "
   style="fill:#729fcf;fill-opacity:1;stroke:none;filter:url(#filter3821)"
   id="path3791"
   d="m 9.9375,8.4375 a 0.52831938,0.52831938 0 0 0 -0.25,0.15625 L 8.59375,9.6875 a 0.52831938,0.52831938 0 0 0 0,0.75 L 14.15625,16 8.59375,21.5625 a 0.52831938,0.52831938 0 0 0 0,0.75 l 1.09375,1.09375 a 0.52831938,0.52831938 0 0 0 0.75,0 L 16,17.84375 l 5.5625,5.5625 a 0.52831938,0.52831938 0 0 0 0.75,0 l 1.09375,-1.09375 a 0.52831938,0.52831938 0 0 0 0,-0.75 L 17.84375,16 l 5.5625,-5.5625 a 0.52831938,0.52831938 0 0 0 0,-0.75 L 22.3125,8.59375 a 0.52831938,0.52831938 0 0 0 -0.75,0 L 16,14.15625 10.4375,8.59375 a 0.52831938,0.52831938 0 0 0 -0.5,-0.15625 z"
   transform="matrix(0.91381474,0,0,0.91381474,1.3789641,1.3789641)" /><path
   style="fill:#204a87;fill-opacity:1;stroke:none"
   d="M 10.582996,9.5806366 9.5806366,10.582996 14.997641,16 9.5806366,21.417004 10.582996,22.419363 16,17.002359 21.417004,22.419363 22.419363,21.417004 17.002359,16 22.419363,10.582996 21.417004,9.5806366 16,14.997641 10.582996,9.5806366 z"
   id="rect2989"
   inkscape:connector-curvature="0" /></svg>