<?xml version="1.0" encoding="UTF-8" standalone="no"?>
<!-- Created with Inkscape (http://www.inkscape.org/) -->

<svg
   xmlns:dc="http://purl.org/dc/elements/1.1/"
   xmlns:cc="http://creativecommons.org/ns#"
   xmlns:rdf="http://www.w3.org/1999/02/22-rdf-syntax-ns#"
   xmlns:svg="http://www.w3.org/2000/svg"
   xmlns="http://www.w3.org/2000/svg"
   xmlns:sodipodi="http://sodipodi.sourceforge.net/DTD/sodipodi-0.dtd"
   xmlns:inkscape="http://www.inkscape.org/namespaces/inkscape"
   width="36"
   height="24"
   id="svg2"
   version="1.1"
   inkscape:version="0.48.5 r10040"
   sodipodi:docname="add-workspace.svg">
  <defs
     id="defs4" />
  <sodipodi:namedview
     id="base"
     pagecolor="#ffffff"
     bordercolor="#666666"
     borderopacity="1.0"
     inkscape:pageopacity="0.0"
     inkscape:pageshadow="2"
     inkscape:zoom="15.839192"
     inkscape:cx="10.830437"
     inkscape:cy="19.29257"
     inkscape:document-units="px"
     inkscape:current-layer="layer1"
     showgrid="false"
     fit-margin-top="0"
     fit-margin-left="0"
     fit-margin-right="0"
     fit-margin-bottom="0"
     inkscape:window-width="1280"
     inkscape:window-height="970"
     inkscape:window-x="0"
     inkscape:window-y="0"
     inkscape:window-maximized="1" />
  <metadata
     id="metadata7">
    <rdf:RDF>
      <cc:Work
         rdf:about="">
        <dc:format>image/svg+xml</dc:format>
        <dc:type
           rdf:resource="http://purl.org/dc/dcmitype/StillImage" />
        <dc:title />
      </cc:Work>
    </rdf:RDF>
  </metadata>
  <g
     inkscape:label="Layer 1"
     inkscape:groupmode="layer"
     id="layer1"
     transform="translate(5.6805248e-4,-1028.3437)">
    <path
       style="color:#000000;fill:#eae3d1;fill-opacity:1;fill-rule:nonzero;stroke:#000000;stroke-width:0;stroke-linejoin:round;stroke-miterlimit:4;stroke-opacity:1;stroke-dasharray:none;marker:none;visibility:visible;display:inline;overflow:visible;enable-background:accumulate"
       d="m 12.217537,1038.8854 c -0.1202,0.1214 -0.217108,0.2747 -0.217385,0.4587 l -7.2e-4,1.9788 c 3.15e-4,0.3687 0.306729,0.6751 0.675475,0.6755 l 5.670949,0.023 -0.002,5.6468 c 1.25e-4,0.3692 0.30628,0.6754 0.675388,0.6755 l 1.978789,-8e-4 c 0.369108,10e-5 0.676056,-0.3068 0.675931,-0.6759 l 0.002,-5.6468 5.646819,0 c 0.368744,3e-4 0.676245,-0.3072 0.67593,-0.6758 l 7.19e-4,-1.9788 c -2.25e-4,-0.3688 -0.306729,-0.6752 -0.675388,-0.6755 l -5.646816,0 -0.02211,-5.6709 c -1.25e-4,-0.3692 -0.306366,-0.6754 -0.675474,-0.6755 l -1.97879,7e-4 c -0.184501,0 -0.362301,0.1213 -0.482686,0.2416 -0.120387,0.1213 -0.19283,0.2502 -0.193244,0.4342 l -0.002,5.6468 -5.646816,0 c -0.184284,-10e-5 -0.33834,0.097 -0.458544,0.2174 z"
       id="rect2987"
       inkscape:connector-curvature="0" />
  </g>
</svg>
