<?xml version="1.0" encoding="UTF-8" standalone="no"?>
<!-- Created with Inkscape (http://www.inkscape.org/) -->

<svg
   xmlns:dc="http://purl.org/dc/elements/1.1/"
   xmlns:cc="http://creativecommons.org/ns#"
   xmlns:rdf="http://www.w3.org/1999/02/22-rdf-syntax-ns#"
   xmlns:svg="http://www.w3.org/2000/svg"
   xmlns="http://www.w3.org/2000/svg"
   xmlns:xlink="http://www.w3.org/1999/xlink"
   xmlns:sodipodi="http://sodipodi.sourceforge.net/DTD/sodipodi-0.dtd"
   xmlns:inkscape="http://www.inkscape.org/namespaces/inkscape"
   width="736.60638"
   height="665.23248"
   id="svg2980"
   version="1.1"
   inkscape:version="0.91 r13725"
   sodipodi:docname="menu.svg">
  <defs
     id="defs2982">
    <inkscape:perspective
       sodipodi:type="inkscape:persp3d"
       inkscape:vp_x="0 : 526.18109 : 1"
       inkscape:vp_y="0 : 1000 : 0"
       inkscape:vp_z="744.09448 : 526.18109 : 1"
       inkscape:persp3d-origin="372.04724 : 350.78739 : 1"
       id="perspective2988" />
    <inkscape:perspective
       id="perspective2955"
       inkscape:persp3d-origin="0.5 : 0.33333333 : 1"
       inkscape:vp_z="1 : 0.5 : 1"
       inkscape:vp_y="0 : 1000 : 0"
       inkscape:vp_x="0 : 0.5 : 1"
       sodipodi:type="inkscape:persp3d" />
    <filter
       color-interpolation-filters="sRGB"
       inkscape:collect="always"
       id="filter3546">
      <feGaussianBlur
         inkscape:collect="always"
         stdDeviation="0.15992437"
         id="feGaussianBlur3548" />
    </filter>
    <linearGradient
       id="linearGradient3431">
      <stop
         id="stop3433"
         offset="0"
         style="stop-color:#3d3d3d;stop-opacity:1;" />
      <stop
         id="stop3435"
         offset="1"
         style="stop-color:#000000;stop-opacity:0.11400651;" />
    </linearGradient>
    <linearGradient
       id="linearGradient3312">
      <stop
         style="stop-color:#c7f994;stop-opacity:1;"
         offset="0"
         id="stop3314" />
      <stop
         style="stop-color:#87cf3e;stop-opacity:1;"
         offset="1"
         id="stop3316" />
    </linearGradient>
    <linearGradient
       inkscape:collect="always"
       xlink:href="#linearGradient3312"
       id="linearGradient3048"
       gradientUnits="userSpaceOnUse"
       gradientTransform="matrix(2.7085493,0,0,2.7085493,543.08426,-420.26637)"
       x1="61.42857"
       y1="362.14285"
       x2="116.42857"
       y2="408.57144" />
    <linearGradient
       inkscape:collect="always"
       xlink:href="#linearGradient3431"
       id="linearGradient3050"
       gradientUnits="userSpaceOnUse"
       gradientTransform="translate(0,80)"
       spreadMethod="pad"
       x1="70.491508"
       y1="416.38858"
       x2="113.64215"
       y2="375.87961" />
    <linearGradient
       inkscape:collect="always"
       xlink:href="#linearGradient3312"
       id="linearGradient3012"
       gradientUnits="userSpaceOnUse"
       gradientTransform="matrix(6.3016252,0,0,6.3016252,-247.67412,-1975.5116)"
       x1="61.42857"
       y1="362.14285"
       x2="116.42857"
       y2="408.57144" />
  </defs>
  <sodipodi:namedview
     id="base"
     pagecolor="#ffffff"
     bordercolor="#666666"
     borderopacity="1.0"
     inkscape:pageopacity="0.0"
     inkscape:pageshadow="2"
     inkscape:zoom="1.0847041"
     inkscape:cx="368.30319"
     inkscape:cy="339.48479"
     inkscape:document-units="px"
     inkscape:current-layer="layer1"
     showgrid="false"
     showborder="true"
     inkscape:showpageshadow="false"
     inkscape:window-width="1280"
     inkscape:window-height="969"
     inkscape:window-x="0"
     inkscape:window-y="0"
     inkscape:window-maximized="1" />
  <metadata
     id="metadata2985">
    <rdf:RDF>
      <cc:Work
         rdf:about="">
        <dc:format>image/svg+xml</dc:format>
        <dc:type
           rdf:resource="http://purl.org/dc/dcmitype/StillImage" />
        <dc:title></dc:title>
      </cc:Work>
    </rdf:RDF>
  </metadata>
  <g
     inkscape:label="Layer 1"
     inkscape:groupmode="layer"
     id="layer1"
     transform="translate(-1.6967481,-160.82649)">
    <path
       inkscape:connector-curvature="0"
       style="color:#000000;fill:#000000;fill-opacity:0.08040203;fill-rule:evenodd;stroke:none;stroke-width:4.7667098;marker:none;visibility:visible;display:inline;overflow:visible;filter:url(#filter3546);enable-background:accumulate"
       d="m 105.51844,438.54009 c -3.83671,0 -7.245744,1.42445 -9.984837,4.1914 -2.737725,2.76548 -4.1752,6.21796 -4.17519,10.11421 l 0,19.69466 8.932957,0 0,-19.69466 c 0,-1.49338 0.48728,-2.66108 1.55355,-3.73818 1.06977,-1.08055 2.2026,-1.56971 3.67352,-1.56971 1.50175,0 2.61758,0.4867 3.68969,1.56971 1.06628,1.0771 1.55356,2.2448 1.55356,3.73818 l 0,19.69466 8.93297,0 0,-19.69466 c 0,-1.49338 0.48728,-2.66108 1.55356,-3.73818 1.07211,-1.08301 2.18794,-1.56971 3.68971,-1.56971 1.47093,0 2.60373,0.48916 3.6735,1.56971 1.06627,1.0771 1.55356,2.2448 1.55356,3.73818 l 0.0486,23.01222 c 0,4.90894 -4.67486,9.04618 -10.68071,9.04618 l -28.805549,-0.11326 c -4.634707,0 -8.593128,-4.51117 -8.593128,-10.30852 l 0,-43.33528 -8.447462,0 0,45.00209 c 0,4.77471 1.747181,8.96178 5.146164,12.3476 2.905193,2.8676 6.399074,4.56445 10.324689,4.98427 l 0,0.16191 32.074486,0 c 4.92872,0 9.25884,-1.83265 12.75212,-5.38904 l 0.0162,0 c 2.97102,-3.05245 4.70787,-6.70998 5.12997,-10.82624 l -0.0324,-24.58193 c 0,-3.89625 -1.43744,-7.34873 -4.17521,-10.11421 -2.73906,-2.76695 -6.14812,-4.1914 -9.98482,-4.1914 -3.76604,0 -7.06133,1.40042 -9.72593,3.96479 -2.65681,-2.56014 -5.92908,-3.96479 -9.69356,-3.96479 z"
       id="path2620"
       sodipodi:nodetypes="csccccsssccccsssccccccccccccccccsscc"
       transform="matrix(6.0546942,0,0,6.0546942,-223.25155,-2305.4745)" />
    <path
       inkscape:connector-curvature="0"
       sodipodi:nodetypes="csccccsssccccssscccccccccccccccsscc"
       style="color:#000000;fill:#98cf61;fill-opacity:1;fill-rule:evenodd;stroke:none;stroke-width:1;marker:none;visibility:visible;display:inline;overflow:visible;enable-background:accumulate"
       d="m 411.31105,351.17134 c -23.23012,0 -43.87076,8.62459 -60.45514,25.37765 -16.57613,16.74411 -25.27959,37.64786 -25.27954,61.23843 l 0,119.24516 54.08639,0 0,-119.24516 c 0,-9.04193 2.9503,-16.11203 9.40622,-22.63356 6.47717,-6.54236 13.3361,-9.5041 22.24207,-9.5041 9.09262,0 15.84865,2.94685 22.33996,9.5041 6.45597,6.52153 9.40634,13.59163 9.40634,22.63356 l 0,119.24516 54.08632,0 0,-119.24516 c 0,-9.04193 2.95037,-16.11203 9.40641,-22.63356 6.49124,-6.55725 13.24727,-9.5041 22.34006,-9.5041 8.90603,0 15.7648,2.96174 22.24185,9.5041 6.45597,6.52153 9.40634,13.59163 9.40634,22.63356 l 0.29394,139.33196 c 0,29.72213 -28.30487,54.77182 -64.66844,54.77182 l -174.40875,-0.68573 c -28.06175,0 -52.02875,-27.31375 -52.02875,-62.41494 l 0,-262.38183 -51.14679,0 0,272.47385 c 0,28.90941 10.57865,54.26083 31.15843,74.761 17.59004,17.36239 38.74446,28.61707 62.51277,31.15896 l 194.20127,-4.7e-4 c 29.84189,0 56.05939,-11.09612 77.21018,-32.62895 l 0.0982,0 c 17.98853,-18.48171 28.50469,-40.62687 31.06038,-65.54958 l -0.19566,-148.83609 c 0,-23.59057 -8.70318,-44.49432 -25.27954,-61.23843 -16.5842,-16.75306 -37.22502,-25.37765 -60.45502,-25.37765 -22.80223,0 -42.75418,8.47911 -58.88759,24.00558 -16.08619,-15.50087 -35.89871,-24.00558 -58.6915,-24.00558 z"
       id="path4130" />
    <path
       inkscape:connector-curvature="0"
       style="opacity:1;color:#000000;fill:#52a800;fill-opacity:0.3019608;fill-rule:evenodd;stroke:none;stroke-width:1;marker:none;visibility:visible;display:inline;overflow:visible;enable-background:accumulate"
       d="m 379.50464,631.38673 0,53.41531 127.04178,0 c 29.84178,0 55.90442,-11.1299 77.05513,-32.66274 l 0.18078,0 c 17.98858,-18.48174 28.48294,-40.58321 31.03861,-65.50593 l 0,-30.31679 -53.95666,0 0,20.75257 c 0,29.72229 -28.24012,54.6785 -64.60371,54.6785 L 379.5049,631.38673 z"
       id="path4132" />
  </g>
</svg>
