<?xml version="1.0" encoding="UTF-8" standalone="no"?>
<!-- Created with Inkscape (http://www.inkscape.org/) -->

<svg
   xmlns:dc="http://purl.org/dc/elements/1.1/"
   xmlns:cc="http://creativecommons.org/ns#"
   xmlns:rdf="http://www.w3.org/1999/02/22-rdf-syntax-ns#"
   xmlns:svg="http://www.w3.org/2000/svg"
   xmlns="http://www.w3.org/2000/svg"
   xmlns:sodipodi="http://sodipodi.sourceforge.net/DTD/sodipodi-0.dtd"
   xmlns:inkscape="http://www.inkscape.org/namespaces/inkscape"
   width="40"
   height="40"
   id="svg3768"
   version="1.1"
   inkscape:version="0.91 r13725"
   sodipodi:docname="window-close-active.svg">
  <defs
     id="defs3770" />
  <sodipodi:namedview
     id="base"
     pagecolor="#ffffff"
     bordercolor="#666666"
     borderopacity="1.0"
     inkscape:pageopacity="1"
     inkscape:pageshadow="2"
     inkscape:zoom="15.703664"
     inkscape:cx="15.418456"
     inkscape:cy="19.999152"
     inkscape:current-layer="layer1"
     showgrid="true"
     inkscape:document-units="px"
     inkscape:grid-bbox="true"
     inkscape:window-width="1280"
     inkscape:window-height="966"
     inkscape:window-x="0"
     inkscape:window-y="0"
     inkscape:window-maximized="1"
     fit-margin-top="0"
     fit-margin-left="0"
     fit-margin-right="0"
     fit-margin-bottom="0"
     borderlayer="false">
    <inkscape:grid
       type="xygrid"
       id="grid4311"
       empspacing="5"
       visible="true"
       enabled="true"
       snapvisiblegridlinesonly="true"
       originx="0.050907852px"
       originy="-0.0233456px" />
  </sodipodi:namedview>
  <metadata
     id="metadata3773">
    <rdf:RDF>
      <cc:Work
         rdf:about="">
        <dc:format>image/svg+xml</dc:format>
        <dc:type
           rdf:resource="http://purl.org/dc/dcmitype/StillImage" />
        <dc:title />
      </cc:Work>
    </rdf:RDF>
  </metadata>
  <g
     id="layer1"
     inkscape:label="Layer 1"
     inkscape:groupmode="layer"
     transform="translate(0.09459827,-24.040489)">
    <path
       sodipodi:type="arc"
       style="fill:#000000;fill-opacity:0.74509805;fill-rule:nonzero;stroke:#780000;stroke-width:0.75691615;stroke-miterlimit:4;stroke-opacity:1;stroke-dasharray:none"
       id="path3776-9"
       sodipodi:cx="17.84091"
       sodipodi:cy="11.75"
       sodipodi:rx="11.704545"
       sodipodi:ry="11.75"
       d="M 29.545455,11.75 A 11.704545,11.75 0 0 1 17.84091,23.5 11.704545,11.75 0 0 1 6.1363649,11.75 11.704545,11.75 0 0 1 17.84091,0 11.704545,11.75 0 0 1 29.545455,11.75 Z"
       transform="matrix(1.5725712,0,0,1.5664878,-8.1507003,25.634257)" />
    <path
       style="color:#000000;fill:#ff0000;fill-opacity:1;fill-rule:nonzero;stroke:#ff0000;stroke-width:0.50000000000000000;marker:none;visibility:visible;display:inline;overflow:visible;enable-background:accumulate;stroke-opacity:1;stroke-miterlimit:4;stroke-dasharray:none"
       d="m 15.891333,38.16549 c -0.15258,0 -0.312074,0.03609 -0.428985,0.153093 l -1.256314,1.255409 c -0.23383,0.234177 -0.23383,0.623173 0,0.857349 l 3.585087,3.613131 -3.585087,3.582502 c -0.234177,0.234341 -0.234177,0.623016 0,0.857353 l 1.256314,1.255408 c 0.234177,0.234339 0.62379,0.234339 0.85797,0 l 3.585081,-3.582504 3.58509,3.582507 c 0.233829,0.23417 0.624138,0.23417 0.857968,0 l 1.25631,-1.25541 c 0.233831,-0.234181 0.233831,-0.623176 0,-0.857352 l -3.585087,-3.5825 3.585087,-3.613132 c 0.234179,-0.234338 0.234179,-0.623013 0,-0.857351 l -1.25631,-1.255406 c -0.11708,-0.117275 -0.306822,-0.153095 -0.459629,-0.153095 -0.152811,0 -0.281251,0.03604 -0.398339,0.153095 l -3.58509,3.58251 -3.585081,-3.582507 c -0.116919,-0.117125 -0.276404,-0.153095 -0.428985,-0.153095 z"
       id="rect2987"
       inkscape:connector-curvature="0" />
  </g>
</svg>
