<?xml version="1.0" encoding="UTF-8" standalone="no"?>
<!-- Created with Inkscape (http://www.inkscape.org/) -->

<svg
   xmlns:dc="http://purl.org/dc/elements/1.1/"
   xmlns:cc="http://creativecommons.org/ns#"
   xmlns:rdf="http://www.w3.org/1999/02/22-rdf-syntax-ns#"
   xmlns:svg="http://www.w3.org/2000/svg"
   xmlns="http://www.w3.org/2000/svg"
   xmlns:sodipodi="http://sodipodi.sourceforge.net/DTD/sodipodi-0.dtd"
   xmlns:inkscape="http://www.inkscape.org/namespaces/inkscape"
   width="40"
   height="40"
   id="svg3768"
   version="1.1"
   inkscape:version="0.91 r13725"
   sodipodi:docname="workspace-close-hover.svg">
  <defs
     id="defs3770">
    <clipPath
       clipPathUnits="userSpaceOnUse"
       id="clipPath3760">
      <rect
         style="fill:#3c3b37;fill-opacity:1;stroke:none"
         id="rect3762"
         width="32"
         height="32"
         x="1.8622208e-09"
         y="-4.8535156e-07" />
    </clipPath>
    <clipPath
       clipPathUnits="userSpaceOnUse"
       id="clipPath3764">
      <rect
         style="fill:#3c3b37;fill-opacity:1;stroke:none"
         id="rect3766"
         width="32"
         height="32"
         x="-0.043690428"
         y="32.063828" />
    </clipPath>
  </defs>
  <sodipodi:namedview
     id="base"
     pagecolor="#ffffff"
     bordercolor="#666666"
     borderopacity="1.0"
     inkscape:pageopacity="1"
     inkscape:pageshadow="2"
     inkscape:zoom="15.703664"
     inkscape:cx="19.222729"
     inkscape:cy="20.097352"
     inkscape:current-layer="layer1"
     showgrid="true"
     inkscape:document-units="px"
     inkscape:grid-bbox="true"
     inkscape:window-width="1280"
     inkscape:window-height="966"
     inkscape:window-x="0"
     inkscape:window-y="0"
     inkscape:window-maximized="1"
     fit-margin-top="0"
     fit-margin-left="0"
     fit-margin-right="0"
     fit-margin-bottom="0"
     inkscape:snap-smooth-nodes="true"
     inkscape:object-nodes="true">
    <inkscape:grid
       type="xygrid"
       id="grid4311"
       empspacing="5"
       visible="true"
       enabled="true"
       snapvisiblegridlinesonly="true"
       originx="-0.01244px"
       originy="-0.0013276774px" />
  </sodipodi:namedview>
  <metadata
     id="metadata3773">
    <rdf:RDF>
      <cc:Work
         rdf:about="">
        <dc:format>image/svg+xml</dc:format>
        <dc:type
           rdf:resource="http://purl.org/dc/dcmitype/StillImage" />
        <dc:title />
      </cc:Work>
    </rdf:RDF>
  </metadata>
  <g
     id="layer1"
     inkscape:label="Layer 1"
     inkscape:groupmode="layer"
     transform="translate(0.03125,-24.0625)">
    <rect
       style="fill:#000000;fill-opacity:0.74509804;stroke:#accd8a;stroke-width:1.12499678;stroke-linecap:butt;stroke-linejoin:round;stroke-miterlimit:4;stroke-dasharray:none;stroke-opacity:1"
       id="rect4910"
       width="34.874996"
       height="34.874874"
       x="2.5312483"
       y="26.625128"
       rx="2.4499362"
       ry="2.4387" />
  </g>
  <g
     inkscape:groupmode="layer"
     id="layer2"
     inkscape:label="Слой"
     transform="translate(-0.01244,8.001328)">
    <path
       style="color:#000000;fill:#accd8a;fill-opacity:1;fill-rule:nonzero;stroke:#000000;stroke-width:0;stroke-linejoin:round;stroke-miterlimit:4;stroke-opacity:1;stroke-dasharray:none;marker:none;visibility:visible;display:inline;overflow:visible;enable-background:accumulate"
       d="m 15.998372,6.1236722 c -0.152581,0 -0.312074,0.036008 -0.428987,0.1530939 l -1.256312,1.2554088 c -0.233827,0.2341777 -0.233827,0.6231724 0,0.8573503 l 3.585087,3.6131268 -3.585087,3.582505 c -0.234177,0.234342 -0.234177,0.623015 0,0.857351 l 1.256312,1.255407 c 0.234177,0.234343 0.62379,0.234343 0.857969,0 l 3.585084,-3.582499 3.585089,3.582505 c 0.233827,0.234177 0.624141,0.234177 0.85797,0 l 1.25631,-1.25541 c 0.233828,-0.234176 0.233828,-0.623173 0,-0.857351 L 22.12672,12.002654 25.711807,8.3895283 c 0.234177,-0.2343387 0.234177,-0.6230109 0,-0.8573511 l -1.25631,-1.2554077 c -0.117078,-0.1171694 -0.306821,-0.153094 -0.459629,-0.153094 -0.152811,0 -0.281252,0.035939 -0.398341,0.153094 L 20.012438,9.8592774 16.427354,6.276773 C 16.310441,6.1596859 16.150949,6.123678 15.998372,6.123678 z"
       id="rect2987"
       inkscape:connector-curvature="0" />
  </g>
</svg>
