#define shade_toggled_width 16
#define shade_toggled_height 16
static char shade_toggled_bits[] = {
  0xFF, 0xFF, 0xFF, 0xFF, 0xFF, 0xFF, 0x7F, 0xFE, 0x7F, 0xFE, 0x7F, 0xFE, 
  0x6F, 0xF6, 0x47, 0xE2, 0x0F, 0xF0, 0x1F, 0xF8, 0x3F, 0xFC, 0x7F, 0xFE, 
  0x7F, 0xFF, 0xFF, 0xFF, 0xFF, 0xFF, 0xFF, 0xFF, };
