<?xml version="1.0" encoding="UTF-8" standalone="no"?>
<!-- Created with Inkscape (http://www.inkscape.org/) -->

<svg
   xmlns:dc="http://purl.org/dc/elements/1.1/"
   xmlns:cc="http://creativecommons.org/ns#"
   xmlns:rdf="http://www.w3.org/1999/02/22-rdf-syntax-ns#"
   xmlns:svg="http://www.w3.org/2000/svg"
   xmlns="http://www.w3.org/2000/svg"
   xmlns:xlink="http://www.w3.org/1999/xlink"
   xmlns:sodipodi="http://sodipodi.sourceforge.net/DTD/sodipodi-0.dtd"
   xmlns:inkscape="http://www.inkscape.org/namespaces/inkscape"
   width="32"
   height="16"
   id="svg2985"
   version="1.1"
   inkscape:version="0.48.3.1 r9886"
   sodipodi:docname="caption.svg">
  <defs
     id="defs2987">
    <linearGradient
       id="linearGradient3765">
      <stop
         style="stop-color:#5b5b5b;stop-opacity:1;"
         offset="0"
         id="stop3767" />
      <stop
         style="stop-color:#343434;stop-opacity:1;"
         offset="1"
         id="stop3769" />
    </linearGradient>
    <linearGradient
       inkscape:collect="always"
       xlink:href="#linearGradient3765"
       id="linearGradient3771"
       x1="16.714285"
       y1="13.142858"
       x2="16.714285"
       y2="27.142859"
       gradientUnits="userSpaceOnUse"
       gradientTransform="matrix(1.0666667,0,0,1.1428571,-1.8285715,16.97959)" />
  </defs>
  <sodipodi:namedview
     id="base"
     pagecolor="#ffffff"
     bordercolor="#666666"
     borderopacity="1.0"
     inkscape:pageopacity="0.0"
     inkscape:pageshadow="2"
     inkscape:zoom="28"
     inkscape:cx="16.614774"
     inkscape:cy="7.3473506"
     inkscape:current-layer="layer1"
     showgrid="true"
     inkscape:grid-bbox="true"
     inkscape:document-units="px"
     inkscape:window-width="1024"
     inkscape:window-height="675"
     inkscape:window-x="0"
     inkscape:window-y="25"
     inkscape:window-maximized="1">
    <inkscape:grid
       type="xygrid"
       id="grid3773"
       empspacing="5"
       visible="true"
       enabled="true"
       snapvisiblegridlinesonly="true" />
  </sodipodi:namedview>
  <metadata
     id="metadata2990">
    <rdf:RDF>
      <cc:Work
         rdf:about="">
        <dc:format>image/svg+xml</dc:format>
        <dc:type
           rdf:resource="http://purl.org/dc/dcmitype/StillImage" />
        <dc:title></dc:title>
      </cc:Work>
    </rdf:RDF>
  </metadata>
  <g
     id="layer1"
     inkscape:label="Layer 1"
     inkscape:groupmode="layer"
     transform="translate(0,-32)">
    <rect
       style="fill:url(#linearGradient3771);fill-opacity:1;stroke:#1d70f8;stroke-width:0;stroke-linejoin:round;stroke-miterlimit:4;stroke-opacity:1;stroke-dasharray:none;stroke-dashoffset:0"
       id="rect3763"
       width="32"
       height="16"
       x="0"
       y="32"
       rx="3"
       ry="3" />
    <path
       style="fill:#ee82ee"
       d="m 0.02905971,9.021429 0,-0.6071429 15.96428529,0 15.964286,0 0,0.6071429 0,0.6071429 -15.964286,0 -15.96428529,0 0,-0.6071429 z"
       id="path2988"
       inkscape:connector-curvature="0"
       transform="translate(0,32)" />
    <path
       style="fill:#ee82ee"
       d="m 0.02905971,11.092858 0,-0.607143 15.96428529,0 15.964286,0 0,0.607143 0,0.607142 -15.964286,0 -15.96428529,0 0,-0.607142 z"
       id="path2990"
       inkscape:connector-curvature="0"
       transform="translate(0,32)" />
    <path
       style="fill:#ee82ee"
       d="m 0.02905971,11.092858 0,-0.607143 15.96428529,0 15.964286,0 0,0.607143 0,0.607142 -15.964286,0 -15.96428529,0 0,-0.607142 z"
       id="path2992"
       inkscape:connector-curvature="0"
       transform="translate(0,32)" />
    <path
       style="fill:#ee82ee"
       d="m 0.02905971,11.092858 0,-0.607143 15.96428529,0 15.964286,0 0,0.607143 0,0.607142 -15.964286,0 -15.96428529,0 0,-0.607142 z"
       id="path2994"
       inkscape:connector-curvature="0"
       transform="translate(0,32)" />
    <path
       style="fill:#ee82ee"
       d="m 0.02905971,7.3785719 0,-0.6071429 15.96428529,0 15.964286,0 0,0.6071429 0,0.6071428 -15.964286,0 -15.96428529,0 0,-0.6071428 z"
       id="path2996"
       inkscape:connector-curvature="0"
       transform="translate(0,32)" />
    <path
       style="fill:#ee82ee"
       d="m 0.02905971,5.3428576 0,-0.6428572 15.96428529,0 15.964286,0 0,0.6428572 0,0.6428571 -15.964286,0 -15.96428529,0 0,-0.6428571 z"
       id="path2998"
       inkscape:connector-curvature="0"
       transform="translate(0,32)" />
    <path
       style="fill:#ee82ee"
       d="m 0.02905971,3.7000004 0,-0.6428571 15.96428529,0 15.964286,0 0,0.6428571 0,0.6428572 -15.964286,0 -15.96428529,0 0,-0.6428572 z"
       id="path3000"
       inkscape:connector-curvature="0"
       transform="translate(0,32)" />
    <path
       style="fill:#ee82ee"
       d="M 0.06150521,2.7178576 C 0.08827154,2.5312504 0.14522326,2.2580361 0.1880646,2.1107147 l 0.0778934,-0.2678571 15.73533605,0 15.735336,0 0.07721,0.2678571 c 0.04246,0.1473214 0.09667,0.4205357 0.12045,0.6071429 l 0.04324,0.3392857 -15.982345,0 -15.98234583,0 0.04866604,-0.3392857 z"
       id="path3002"
       inkscape:connector-curvature="0"
       transform="translate(0,32)" />
    <path
       style="fill:#ee82ee"
       d="m 0.03589824,3.646429 c 0.0037612,-0.3830357 0.0600112,-0.9375 0.125,-1.2321429 L 0.27905971,1.8785719 16.003753,1.8605555 31.728445,1.8425392 31.843184,2.4676984 c 0.06311,0.3438375 0.114672,0.9064092 0.114592,1.2501592 l -1.45e-4,0.625 -15.964286,0 -15.96428529,0 0.0068385,-0.6964286 z"
       id="path3004"
       inkscape:connector-curvature="0"
       transform="translate(0,32)" />
    <path
       style="fill:#ee82ee"
       d="m 0.314774,1.8035961 c 0,-0.121152 0.27129081,-0.5278017 0.55312969,-0.82911029 l 0.32356201,-0.34591395 14.7964823,0 14.796482,0 0.325174,0.33928571 C 31.28845,1.1544647 31.503122,1.427679 31.586653,1.5750004 l 0.151875,0.2678572 -15.711878,0 c -8.6415317,0 -15.711876,-0.017668 -15.711876,-0.039262 z"
       id="path3006"
       inkscape:connector-curvature="0"
       transform="translate(0,32)" />
    <path
       style="fill:#ee82ee"
       d="m 0.03589824,3.646429 c 0.0037612,-0.3830357 0.0600112,-0.9375 0.125,-1.2321429 L 0.27905971,1.8785719 7.8862026,1.8423705 15.493345,1.8061691 7.939774,1.7887991 c -4.1544643,-0.00955 -7.55357143,-0.038443 -7.55357143,-0.064199 0,-0.071763 0.34923543,-0.5290459 0.63248983,-0.8281708 l 0.2536456,-0.26785714 14.72573,0 14.725729,0 0.322505,0.34478426 c 0.177378,0.18963138 0.404833,0.47519928 0.505455,0.63459548 0.232183,0.3678013 0.405874,1.2664576 0.405874,2.0999394 l 0,0.6349666 -15.964286,0 -15.96428529,0 0.0068385,-0.6964286 z"
       id="path3008"
       inkscape:connector-curvature="0"
       transform="translate(0,32)" />
    <path
       style="fill:#ee82ee"
       d="m 0.02905971,5.3428576 0,-0.6428572 15.96428529,0 15.964286,0 0,0.6428572 0,0.6428571 -15.964286,0 -15.96428529,0 0,-0.6428571 z"
       id="path3010"
       inkscape:connector-curvature="0"
       transform="translate(0,32)" />
    <path
       style="fill:#ee82ee"
       d="m 0.02905971,7.3785719 0,-0.6071429 15.96428529,0 15.964286,0 0,0.6071429 0,0.6071428 -15.964286,0 -15.96428529,0 0,-0.6071428 z"
       id="path3012"
       inkscape:connector-curvature="0"
       transform="translate(0,32)" />
    <path
       style="fill:#ee82ee"
       d="m 0.02905971,7.3785719 0,-0.6071429 15.96428529,0 15.964286,0 0,0.6071429 0,0.6071428 -15.964286,0 -15.96428529,0 0,-0.6071428 z"
       id="path3014"
       inkscape:connector-curvature="0"
       transform="translate(0,32)" />
    <path
       style="fill:#ee82ee"
       d="m 0.02905971,9.021429 0,-0.6071429 15.96428529,0 15.964286,0 0,0.6071429 0,0.6071429 -15.964286,0 -15.96428529,0 0,-0.6071429 z"
       id="path3016"
       inkscape:connector-curvature="0"
       transform="translate(0,32)" />
    <path
       style="fill:#ee82ee"
       d="m 0.02905971,11.092858 0,-0.607143 15.96428529,0 15.964286,0 0,0.607143 0,0.607142 -15.964286,0 -15.96428529,0 0,-0.607142 z"
       id="path3018"
       inkscape:connector-curvature="0"
       transform="translate(0,32)" />
    <path
       style="fill:#ee82ee"
       d="m 0.02905971,12.307143 0,-0.607143 15.96428529,0 15.964286,0 0,0.607143 0,0.607143 -15.964286,0 -15.96428529,0 0,-0.607143 z"
       id="path3020"
       inkscape:connector-curvature="0"
       transform="translate(0,32)" />
    <path
       style="fill:#ee82ee"
       d="M 0.33103683,14.25296 C 0.24748276,14.085659 0.15732001,13.812445 0.13067516,13.645817 l -0.04844519,-0.302959 15.93010803,0 15.930108,0 -0.06802,0.302723 c -0.03741,0.166498 -0.128614,0.439712 -0.202676,0.607143 l -0.134659,0.304419 -15.52707,0 -15.52706968,0 -0.15191649,-0.304183 z"
       id="path3022"
       inkscape:connector-curvature="0"
       transform="translate(0,32)" />
    <path
       style="fill:#ee82ee"
       d="M 0.89015755,15.047448 C 0.69155374,14.845686 0.52905971,14.652829 0.52905971,14.618876 c 0,-0.0345 6.82159069,-0.06173 15.46428529,-0.06173 9.746429,0 15.464286,0.02515 15.464286,0.06803 0,0.03741 -0.162245,0.230273 -0.360544,0.428572 l -0.360544,0.360544 -14.742644,0 -14.7426436,0 -0.36109785,-0.366838 z"
       id="path3024"
       inkscape:connector-curvature="0"
       transform="translate(0,32)" />
    <path
       style="fill:#ee82ee"
       d="M 0.92535614,15.021763 0.59001351,14.629241 7.9702511,14.610712 15.350488,14.592183 7.9357576,14.574663 0.52102679,14.557143 0.38636769,14.252724 C 0.31230517,14.085293 0.22110071,13.812079 0.1836911,13.645581 l -0.0680175,-0.302723 15.89093938,0 15.89094,0 -0.05007,0.232142 c -0.02754,0.127679 -0.112759,0.400893 -0.189379,0.607143 l -0.139309,0.375 -7.441296,0.01736 -7.441296,0.01736 7.37023,0.03622 7.37023,0.03622 -0.32309,0.375 -0.32309,0.375 -14.734892,0 -14.7348921,0 -0.33534276,-0.392523 z"
       id="path3026"
       inkscape:connector-curvature="0"
       transform="translate(0,32)" />
    <path
       style="fill:#ee82ee"
       d="m 0.93311964,15.039286 -0.32308782,-0.375 6.04879968,-0.03532 6.0487995,-0.03532 -6.1067585,-0.03611 -6.10675866,-0.03611 -0.15222379,-0.392857 C 0.25816696,13.9125 0.16898884,13.647322 0.14371641,13.539286 l -0.04594985,-0.196428 15.90314644,0 15.903147,0 -0.03965,0.198275 c -0.02181,0.109051 -0.108495,0.382265 -0.192632,0.607142 l -0.152978,0.408868 -6.334153,0.01727 -6.334154,0.01727 6.268942,0.0363 6.268941,0.0363 -0.328052,0.375 -0.328051,0.375 -14.73803,0 -14.7380306,0 -0.32308776,-0.375 z"
       id="path3028"
       inkscape:connector-curvature="0"
       transform="translate(0,32)" />
    <path
       style="fill:#ee82ee"
       d="m 0.02905971,11.7 0,-1.214285 15.96428529,0 15.964286,0 0,1.214285 0,1.214286 -15.964286,0 -15.96428529,0 0,-1.214286 z"
       id="path3030"
       inkscape:connector-curvature="0"
       transform="translate(0,32)" />
    <path
       style="fill:#ee82ee"
       d="m 0.02905971,11.7 0,-1.214285 15.96428529,0 15.964286,0 0,1.214285 0,1.214286 -15.964286,0 -15.96428529,0 0,-1.214286 z"
       id="path3032"
       inkscape:connector-curvature="0"
       transform="translate(0,32)" />
    <path
       style="fill:#ee82ee"
       d="m 0.02905971,9.021429 0,-0.6071429 15.96428529,0 15.964286,0 0,0.6071429 0,0.6071429 -15.964286,0 -15.96428529,0 0,-0.6071429 z"
       id="path3034"
       inkscape:connector-curvature="0"
       transform="translate(0,32)" />
    <path
       style="fill:#ee82ee"
       d="m 0.02905971,6.3785719 0,-0.3928572 15.96428529,0 15.964286,0 0,0.3928572 0,0.3928571 -15.964286,0 -15.96428529,0 0,-0.3928571 z"
       id="path3036"
       inkscape:connector-curvature="0"
       transform="translate(0,32)" />
    <path
       style="fill:#ee82ee"
       d="m 0.02905971,6.3428576 0,-1.6428572 15.96428529,0 15.964286,0 0,1.6428572 0,1.6428571 -15.964286,0 -15.96428529,0 0,-1.6428571 z"
       id="path3038"
       inkscape:connector-curvature="0"
       transform="translate(0,32)" />
    <path
       style="fill:#ee82ee"
       d="m 0.02905971,6.3428576 0,-1.6428572 15.96428529,0 15.964286,0 0,1.6428572 0,1.6428571 -15.964286,0 -15.96428529,0 0,-1.6428571 z"
       id="path3040"
       inkscape:connector-curvature="0"
       transform="translate(0,32)" />
    <path
       style="fill:#ee82ee"
       d="m 0.02905971,6.3428576 0,-1.6428572 15.96428529,0 15.964286,0 0,1.6428572 0,1.6428571 -15.964286,0 -15.96428529,0 0,-1.6428571 z"
       id="path3042"
       inkscape:connector-curvature="0"
       transform="translate(0,32)" />
    <path
       style="fill:#ee82ee"
       d="m 0.02905971,4.521429 0,-0.1785714 15.96428529,0 15.964286,0 0,0.1785714 0,0.1785714 -15.964286,0 -15.96428529,0 0,-0.1785714 z"
       id="path3044"
       inkscape:connector-curvature="0"
       transform="translate(0,32)" />
    <path
       style="fill:#ee82ee"
       d="m 0.03589824,5.4678576 c 0.0055956,-2.0602092 0.02831566,-2.6152291 0.125,-3.0535715 L 0.27905971,1.8785719 6.9219169,1.8423024 13.564774,1.8060328 6.9754883,1.7887309 c -3.9676931,-0.010418 -6.58928573,-0.04354 -6.58928573,-0.08325 0,-0.076338 0.27290743,-0.4243692 0.63441513,-0.8090518 l 0.2517203,-0.26785714 14.72573,0 14.725729,0 0.322505,0.34478426 c 0.846266,0.90472618 0.911329,1.22999668 0.911329,4.55596348 l 0,2.4563951 -15.964286,0 -15.96428529,0 0.0068385,-2.5178571 z"
       id="path3046"
       inkscape:connector-curvature="0"
       transform="translate(0,32)" />
    <path
       style="fill:#ee82ee"
       d="M 0.04739826,5.2892861 C 0.06843539,3.2350328 0.09930955,2.5078013 0.17703574,2.2357147 L 0.27905971,1.8785719 5.8504883,1.8422001 11.421917,1.8058284 5.9040597,1.7886286 C 2.5912205,1.7783022 0.38620257,1.7450751 0.38620257,1.7054808 c 0,-0.076338 0.27290743,-0.4243692 0.63441513,-0.8090518 l 0.2517203,-0.26785714 14.72573,0 14.725729,0 0.322505,0.34478426 c 0.846266,0.90472618 0.911329,1.22999668 0.911329,4.55596348 l 0,2.4563951 -15.968923,0 -15.96892323,0 0.02761349,-2.6964286 z"
       id="path3048"
       inkscape:connector-curvature="0"
       transform="translate(0,32)" />
    <path
       style="fill:#ee82ee"
       d="M 0.04739826,5.2892861 C 0.06843539,3.2350328 0.09930955,2.5078013 0.17703574,2.2357147 L 0.27905971,1.8785719 4.9219169,1.8420752 9.564774,1.8055786 4.9754883,1.7885038 C 2.2301629,1.7782896 0.38620257,1.7449312 0.38620257,1.7054808 c 0,-0.076338 0.27290743,-0.4243692 0.63441513,-0.8090518 l 0.2517203,-0.26785714 14.720332,0 14.720331,0 0.328481,0.33928571 c 0.401251,0.41445053 0.647418,0.80713303 0.77241,1.23214283 0.06851,0.2329647 0.102745,1.0733715 0.124381,3.0535715 l 0.02985,2.7321428 -15.974171,0 -15.97417023,0 0.02761349,-2.6964286 z"
       id="path3050"
       inkscape:connector-curvature="0"
       transform="translate(0,32)" />
    <path
       style="fill:#ee82ee"
       d="m 0.02905971,8.2000004 0,-0.2142857 15.96428529,0 15.964286,0 0,0.2142857 0,0.2142857 -15.964286,0 -15.96428529,0 0,-0.2142857 z"
       id="path3052"
       inkscape:connector-curvature="0"
       transform="translate(0,32)" />
    <path
       style="fill:#ee82ee"
       d="m 0.02905971,10.057143 0,-0.4285711 15.96428529,0 15.964286,0 0,0.4285711 0,0.428572 -15.964286,0 -15.96428529,0 0,-0.428572 z"
       id="path3054"
       inkscape:connector-curvature="0"
       transform="translate(0,32)" />
    <path
       style="fill:#ee82ee"
       d="m 0.93311693,15.039286 -0.32309051,-0.375 4.97737378,-0.03524 4.9773738,-0.03524 -5.0353334,-0.03619 -5.03533341,-0.03619 -0.15222047,-0.392857 C 0.25816547,13.9125 0.16898884,13.647322 0.14371641,13.539286 l -0.04594985,-0.196428 15.90314644,0 15.903147,0 -0.03965,0.198275 c -0.02181,0.109051 -0.108495,0.382265 -0.192632,0.607142 l -0.152978,0.408868 -5.191296,0.01715 -5.191296,0.01715 5.134125,0.03642 5.134126,0.03642 -0.337174,0.375 -0.337173,0.375 -14.73695,0 -14.7369496,0 -0.32309047,-0.375 z"
       id="path3056"
       inkscape:connector-curvature="0"
       transform="translate(0,32)" />
    <path
       style="fill:#ee82ee"
       d="M 2.5512217,15.913701 C 2.3473394,15.883896 1.9776966,15.761956 1.7297932,15.642723 l -0.4507335,-0.216787 14.7142853,0 14.714286,0 -0.443656,0.213494 c -0.24401,0.117422 -0.645795,0.242726 -0.892857,0.278453 -0.54162,0.07832 -26.2829706,0.07431 -26.8198963,-0.0042 z"
       id="path3058"
       inkscape:connector-curvature="0"
       transform="translate(0,32)" />
    <path
       style="fill:#ee82ee"
       d="M 0.93311379,15.039286 0.61002012,14.664286 4.8373971,14.629129 9.064774,14.593972 4.7794368,14.5577 0.49409955,14.521429 0.34188291,14.128572 C 0.25816376,13.9125 0.16898884,13.647322 0.14371641,13.539286 l -0.04594985,-0.196428 15.90314644,0 15.903147,0 -0.03965,0.198275 c -0.02181,0.109051 -0.108495,0.382265 -0.192632,0.607142 l -0.152978,0.408868 -4.262725,0.017 -4.262725,0.017 4.205562,0.03657 4.205562,0.03657 -0.337181,0.375 -0.337181,0.375 -14.73695,0 -14.7369496,0 -0.32309361,-0.375 z"
       id="path3060"
       inkscape:connector-curvature="0"
       transform="translate(0,32)" />
    <path
       style="fill:#ee82ee"
       d="m 0.92636643,15.039286 -0.32805725,-0.375 3.59037522,-0.03507 3.5903753,-0.03507 -3.6424852,-0.03636 -3.64248519,-0.03636 -0.15221152,-0.392857 C 0.25816145,13.9125 0.16898884,13.647322 0.14371641,13.539286 l -0.04594985,-0.196428 15.90314644,0 15.903147,0 -0.03965,0.198275 c -0.02181,0.109051 -0.108495,0.382265 -0.192632,0.607142 l -0.152978,0.408868 -3.512725,0.01683 -3.512725,0.01683 3.464286,0.03675 3.464286,0.03674 -0.34906,0.375 -0.34906,0.375 -14.734687,0 -14.7346864,0 -0.32805717,-0.375 z"
       id="path3062"
       inkscape:connector-curvature="0"
       transform="translate(0,32)" />
    <path
       style="fill:#ee82ee"
       d="m 0.92636114,15.039286 -0.32806246,-0.375 3.09038052,-0.03497 3.0903805,-0.03497 -3.1424913,-0.03646 -3.14249124,-0.03646 -0.15553247,-0.392857 C 0.25300183,13.9125 0.16095979,13.647322 0.13400682,13.539286 l -0.0490054,-0.196428 15.90952858,0 15.90953,0 -0.03965,0.198275 c -0.02181,0.109051 -0.108495,0.382265 -0.192632,0.607142 l -0.152978,0.408868 -2.869867,0.01661 -2.869868,0.01661 2.821428,0.03696 2.821429,0.03696 -0.34906,0.375 -0.34906,0.375 -14.734687,0 -14.7346864,0 -0.32806246,-0.375 z"
       id="path3064"
       inkscape:connector-curvature="0"
       transform="translate(0,32)" />
    <path
       style="fill:#ee82ee"
       d="M 0.07667876,13.295239 C 0.05048829,13.269048 0.02905971,13.172619 0.02905971,13.080953 l 0,-0.166667 15.96428529,0 15.964286,0 0,0.214286 0,0.214286 -15.916666,0 c -8.7541674,0 -15.93809576,-0.02143 -15.96428624,-0.04762 z"
       id="path3066"
       inkscape:connector-curvature="0"
       transform="translate(0,32)" />
    <path
       style="fill:#ee82ee"
       d="m 0.919374,15.039286 -0.33720989,-0.375 2.70559069,-0.03701 2.7055906,-0.03701 -2.7303085,-0.01656 -2.73030859,-0.01656 -0.11459652,-0.221605 C 0.31009834,14.126625 0.10294809,13.512907 0.10126145,13.396757 0.10083621,13.367473 3.483524,13.33518 7.6183454,13.324997 L 15.136203,13.306481 7.6215819,13.288955 0.10696158,13.271429 0.06436459,13.039286 C 0.04093625,12.911608 0.03275079,10.508929 0.04617469,7.7000004 0.06630386,3.4880033 0.08885207,2.53026 0.17482074,2.2357147 L 0.27905971,1.8785719 4.1362026,1.8419254 7.9933454,1.805279 4.189774,1.788354 c -2.0919643,-0.00931 -3.80357143,-0.044733 -3.80357143,-0.078721 0,-0.085583 0.25445479,-0.4163903 0.59803972,-0.77748991 l 0.28884711,-0.30357143 14.7199556,0 14.719956,0 0.325593,0.33928571 c 0.44746,0.46627753 0.628606,0.74718233 0.762325,1.18214363 0.09954,0.323786 0.116719,1.0631509 0.133922,5.7642849 l 0.01974,5.3928569 -0.198106,0.607143 -0.198105,0.607143 -2.318225,0.0372 -2.318224,0.03721 2.232143,0.01637 c 1.227678,0.009 2.232143,0.04168 2.232143,0.07262 0,0.03094 -0.153783,0.207727 -0.34174,0.392857 l -0.341739,0.336601 -14.72307,0 -14.7230701,0 -0.3372099,-0.375 z"
       id="path3068"
       inkscape:connector-curvature="0"
       transform="translate(0,32)" />
    <path
       style="fill:#ee82ee"
       d="m 0.9193575,15.039286 -0.33722645,-0.375 2.31275005,-0.0372 2.31275,-0.0372 L 2.8492519,14.57351 0.49087276,14.557143 0.33269019,14.146429 C 0.24568978,13.920536 0.15441525,13.647508 0.12985791,13.539698 L 0.0852082,13.343681 6.0392768,13.324996 11.993345,13.306311 6.0501535,13.28887 0.10696158,13.271429 0.06436459,13.039286 C 0.04093625,12.911608 0.03275079,10.508929 0.04617469,7.7000004 0.06630386,3.4880033 0.08885207,2.53026 0.17482074,2.2357147 l 0.10423897,-0.3571428 3.24999999,-0.036808 3.25,-0.036808 -3.1964286,-0.016763 c -1.7580357,-0.00922 -3.19642853,-0.044571 -3.19642853,-0.078559 0,-0.085583 0.25445479,-0.4163903 0.59803972,-0.77748991 l 0.28884711,-0.30357143 14.7247666,0 14.724767,0 0.352337,0.37500004 c 0.897009,0.9547083 0.877821,0.7980587 0.877123,7.1607142 l -5.72e-4,5.1428569 -0.196561,0.607143 -0.19656,0.607143 -1.925383,0.03747 -1.925383,0.03747 1.839286,0.0161 c 1.011607,0.0089 1.839285,0.04141 1.839285,0.07235 0,0.03094 -0.153782,0.207727 -0.341739,0.392857 l -0.341732,0.336601 -14.72307,0 -14.7230701,0 -0.3372264,-0.375 0,0 z"
       id="path3070"
       inkscape:connector-curvature="0"
       transform="translate(0,32)" />
    <path
       style="fill:#ee82ee"
       d="m 1.314774,0.58910476 c 0,-0.0217069 0.2169643,-0.14224261 0.4821429,-0.26785714 L 2.2790597,0.09285757 15.847554,0.07427021 C 30.636215,0.05401136 29.736688,0.03096262 30.46775,0.44888566 l 0.31131,0.17796543 -14.732143,8.6038e-4 C 7.9442383,0.62818469 1.314774,0.61081166 1.314774,0.58910476 z"
       id="path3072"
       inkscape:connector-curvature="0"
       transform="translate(0,32)" />
    <path
       style="fill:#ee82ee"
       d="M 0.91933743,15.039286 0.58209096,14.664286 2.5734325,14.626868 4.564774,14.58945 2.5199115,14.573297 0.47504903,14.557143 0.32552626,14.146429 C 0.24328874,13.920536 0.15559134,13.647574 0.13064316,13.539847 L 0.08528282,13.343979 4.396457,13.324993 8.7076311,13.306007 4.4072964,13.288718 0.10696158,13.271429 0.06416044,13.039286 C 0.0406198,12.911608 0.03368184,10.492858 0.04874274,7.6642861 0.07010868,3.6515694 0.09714384,2.4468711 0.17176989,2.1821433 L 0.26741359,1.8428576 2.9875224,1.8258966 5.7076311,1.8089356 3.0469169,1.7893129 C 1.583524,1.7785204 0.38620257,1.7422734 0.38620257,1.7087638 c 0,-0.08478 0.25567814,-0.4168067 0.59803972,-0.77662051 L 1.2730894,0.62857186 8.4189319,0.61124001 15.564774,0.59390815 8.5290597,0.55766858 1.4933454,0.521429 1.9033469,0.32324511 2.3133484,0.12506122 l 13.7328556,0.0196125 13.732856,0.0196125 0.392857,0.17857143 0.392857,0.17857143 -2.678571,0.0370223 -2.678572,0.0370223 2.757496,0.0165492 2.757496,0.0165492 0.352337,0.37500004 c 0.897009,0.9547083 0.877821,0.7980587 0.877123,7.1607142 l -5.72e-4,5.1428569 -0.196543,0.607143 -0.196543,0.607143 -1.639687,0.03774 -1.639685,0.03774 1.553571,0.01583 c 0.854464,0.0087 1.553571,0.04115 1.553571,0.07209 0,0.03094 -0.153782,0.207727 -0.341739,0.392857 l -0.341732,0.336601 -14.72307,0 -14.7230701,0 -0.33724647,-0.375 0,0 z"
       id="path3074"
       inkscape:connector-curvature="0"
       transform="translate(0,32)" />
    <path
       style="fill:#ee82ee"
       d="m 0.91383414,15.039286 -0.34906014,-0.375 1.7142857,-0.03767 1.7142857,-0.03767 -1.7591482,-0.0159 -1.75914817,-0.01591 -0.14952277,-0.410714 C 0.24328874,13.920536 0.15561345,13.647662 0.13069229,13.540043 L 0.08538108,13.34437 3.2179347,13.324986 6.3504883,13.305603 3.2268491,13.288515 0.10321001,13.271429 0.06296269,13.110715 C 0.04082666,13.022322 0.03452599,10.603572 0.04896119,7.7357147 0.06853857,3.8462534 0.09803669,2.4352246 0.16506085,2.1821433 L 0.25491469,1.8428576 2.4812729,1.8260877 4.7076311,1.8093179 2.5469169,1.7893261 C 1.358524,1.7783306 0.38620257,1.7419975 0.38620257,1.7085859 c 0,-0.084616 0.25593014,-0.4168936 0.59803972,-0.77644261 L 1.2730894,0.62857186 7.5260747,0.6113134 13.77906,0.59405494 7.6362026,0.55774197 1.4933454,0.521429 1.8905251,0.32324013 2.2877047,0.12505126 16.033383,0.1446687 l 13.745677,0.0196174 0.392857,0.17857143 0.392857,0.17857143 -1,0.0387978 -1,0.0387978 1.081592,0.0147736 1.081592,0.0147736 0.401165,0.43330624 c 0.842355,0.9098435 0.824182,0.7517818 0.820706,7.1381223 l -0.0028,5.1785716 -0.193373,0.571428 -0.193373,0.571429 -1.390603,0.03805 -1.390603,0.03805 1.303572,0.01552 c 0.716964,0.0085 1.303571,0.04083 1.303571,0.07177 0,0.03094 -0.153783,0.207727 -0.341739,0.392857 l -0.341743,0.336601 -14.719915,0 -14.7199147,0 -0.34906016,-0.375 0,0 z"
       id="path3076"
       inkscape:connector-curvature="0"
       transform="translate(0,32)" />
    <path
       style="fill:#ee82ee"
       d="M 0.91383414,15.039286 0.564774,14.664286 2.0290597,14.626332 3.4933454,14.588378 1.9841972,14.57276 0.47504903,14.557143 0.32552626,14.146429 C 0.24328874,13.920536 0.1556425,13.647778 0.13075684,13.5403 L 0.08551019,13.344885 2.3608564,13.324974 4.6362026,13.305064 2.3697063,13.288246 0.10321001,13.271429 0.06296269,13.110715 C 0.04082666,13.022322 0.03452599,10.603572 0.04896119,7.7357147 0.06853857,3.8462534 0.09803669,2.4352246 0.16506085,2.1821433 L 0.25491469,1.8428576 2.0527015,1.8263311 3.8504883,1.8098046 2.1183454,1.7893469 C 1.1656669,1.7780951 0.38620257,1.7416526 0.38620257,1.7083633 c 0,-0.084411 0.256246,-0.4170029 0.59803972,-0.77622001 L 1.2730894,0.62857186 6.5260746,0.61142447 11.77906,0.59427709 6.6362026,0.55785304 1.4933454,0.521429 1.8694166,0.32325437 l 0.376071,-0.19817463 13.8025004,0.0196032 13.8025,0.0196032 0.357143,0.17857143 0.357143,0.17857143 -0.607143,0.0402641 -0.607143,0.0402641 0.714286,0.0178107 0.714286,0.0178107 0.385162,0.44890494 c 0.809575,0.943558 0.788745,0.7552857 0.787021,7.113517 l -0.0014,5.1785716 -0.193399,0.571428 -0.193399,0.571429 -1.177704,0.03841 -1.177705,0.03841 1.089286,0.01516 c 0.599107,0.0083 1.089286,0.04048 1.089286,0.07142 0,0.03094 -0.153783,0.207727 -0.34174,0.392857 l -0.341736,0.336601 -14.719915,0 -14.7199147,0 -0.34906016,-0.375 0,0 z"
       id="path3078"
       inkscape:connector-curvature="0"
       transform="translate(0,32)" />
    <path
       style="fill:#ee82ee"
       d="M 0.93708886,15.072547 C 0.75195857,14.88459 0.60048829,14.708564 0.60048829,14.681376 c 0,-0.02719 0.55446431,-0.05904 1.23214281,-0.07078 l 1.2321429,-0.02135 -1.2984394,-0.01606 -1.29843931,-0.01606 -0.1393085,-0.375 C 0.25196711,13.975893 0.16687334,13.703256 0.13948951,13.576283 L 0.08970074,13.345422 1.8272374,13.324952 3.564774,13.304482 1.833992,13.287955 C 0.10493157,13.271445 0.10316997,13.271269 0.06296269,13.110715 0.04082666,13.022322 0.03452599,10.603572 0.04896119,7.7357147 0.06853857,3.8462534 0.09803669,2.4352246 0.16506085,2.1821433 L 0.25491469,1.8428576 1.6598444,1.8266749 3.064774,1.8104921 1.7254883,1.7893845 C 0.98888114,1.7777753 0.38620257,1.7411779 0.38620257,1.7080571 c 0,-0.084129 0.25668193,-0.4171549 0.59803972,-0.77591381 L 1.2730894,0.62857186 5.5975031,0.61157222 9.9219169,0.59457259 5.7076311,0.55800079 1.4933454,0.521429 1.8687495,0.3235924 2.2441536,0.12575579 16.047321,0.14502097 29.850488,0.16428614 30.207631,0.34285757 30.564774,0.521429 30.27906,0.56486434 c -0.272463,0.0414208 -0.267494,0.0439618 0.107143,0.0547872 0.3912,0.011304 0.394505,0.0133043 0.783736,0.47445679 0.805351,0.9541618 0.782623,0.7479153 0.783083,7.1058921 l 3.57e-4,5.1785716 -0.194312,0.571428 -0.194312,0.571429 -1,0.0388 -1,0.0388 0.910715,0.01477 c 0.500893,0.0081 0.910714,0.04009 0.910714,0.07103 0,0.03094 -0.153783,0.207727 -0.341739,0.392857 l -0.341721,0.336601 -14.714517,0 -14.7145176,0 -0.33660054,-0.341739 0,0 z"
       id="path3080"
       inkscape:connector-curvature="0"
       transform="translate(0,32)" />
    <path
       style="fill:#ee82ee"
       d="M 0.93708886,15.072547 C 0.75195857,14.88459 0.60048829,14.708687 0.60048829,14.681651 c 0,-0.02704 0.45803571,-0.05903 1.01785711,-0.0711 L 2.6362026,14.588609 1.5520489,14.572876 0.46789529,14.557143 0.31491821,14.148275 C 0.23078082,13.923398 0.14424441,13.650924 0.12261506,13.542777 l -0.03932608,-0.19663 1.31217112,-0.02122 1.312171,-0.02122 -1.3022105,-0.01614 C 0.11872551,13.271621 0.10272692,13.269504 0.06266499,13.109885 0.04036523,13.021035 0.0337974,10.586214 0.04806983,7.6991704 0.06813237,3.6408928 0.09519853,2.3811284 0.16737101,2.146429 L 0.26072233,1.8428576 1.3770339,1.827063 2.4933454,1.8112684 1.439774,1.7894392 C 0.86030971,1.7774331 0.38620257,1.7406611 0.38620257,1.7077237 c 0,-0.083821 0.25715843,-0.4173223 0.59803972,-0.77558041 l 0.28884711,-0.30357143 3.610128,-0.0168361 3.610128,-0.0168361 -3.5,-0.0367353 -3.5,-0.0367353 0.374726,-0.19749299 0.374726,-0.19749298 13.8038456,0.0189216 13.803845,0.0189216 0.357143,0.17030822 c 0.338785,0.16155388 0.347964,0.1731207 0.178572,0.22502285 -0.153447,0.0470162 -0.138371,0.0558433 0.107142,0.062736 0.25206,0.007077 0.325472,0.0533578 0.623243,0.39291591 0.854914,0.9748857 0.835972,0.8121863 0.836434,7.1847313 l 3.57e-4,5.1785716 -0.194312,0.571428 -0.194312,0.571429 -0.857142,0.0392 -0.857143,0.03921 0.767857,0.01437 c 0.422321,0.0079 0.767857,0.03968 0.767857,0.07062 0,0.03094 -0.153783,0.207727 -0.341739,0.392857 l -0.341721,0.336601 -14.714517,0 -14.7145176,0 -0.33660054,-0.341739 0,0 z"
       id="path3082"
       inkscape:connector-curvature="0"
       transform="translate(0,32)" />
    <path
       style="fill:#ee82ee"
       d="M 0.93708886,15.072547 C 0.75195857,14.88459 0.60048829,14.708825 0.60048829,14.681957 c 0,-0.02687 0.37767857,-0.05903 0.83928571,-0.07147 L 2.2790597,14.587863 1.3734775,14.572503 0.46789529,14.557143 0.31491821,14.148275 C 0.23078082,13.923398 0.14409639,13.650184 0.12228614,13.541133 l -0.039655,-0.198275 0.99107146,-0.0156 0.9910714,-0.0156 -0.9614161,-0.02229 C 0.44631256,13.274132 0.12441974,13.239497 0.08659459,13.179965 0.00332948,13.048919 0.01906162,3.1824549 0.10347579,2.5928576 0.22013444,1.7780462 0.12783669,1.8449792 1.1588731,1.8274981 L 2.064774,1.8121386 1.2254883,1.789517 c -0.46160716,-0.012442 -0.83928573,-0.04941 -0.83928573,-0.082151 0,-0.083492 0.25767122,-0.4175039 0.59803972,-0.77522311 L 1.2730894,0.62857186 4.2760746,0.61193334 7.2790597,0.59529483 4.3862026,0.55836191 1.4933454,0.521429 1.8673823,0.32428523 2.2414191,0.12714146 16.045954,0.1457138 29.850488,0.16428614 30.206427,0.3283502 c 0.276795,0.12758421 0.332383,0.17895826 0.25,0.23104909 -0.07948,0.0502537 -0.05136,0.0672582 0.112581,0.0680788 0.175077,8.7635e-4 0.284876,0.077954 0.552295,0.38770391 0.851809,0.9866475 0.8318,0.8124391 0.829356,7.2205327 l -0.002,5.2142853 -0.191948,0.535715 -0.191949,0.535714 -0.75,0.03959 -0.75,0.03959 0.660714,0.01398 c 0.363393,0.0077 0.660715,0.0393 0.660715,0.07024 0,0.03094 -0.153783,0.207727 -0.34174,0.392857 l -0.341741,0.336601 -14.714517,0 -14.7145176,0 -0.33660054,-0.341739 0,0 z"
       id="path3084"
       inkscape:connector-curvature="0"
       transform="translate(0,32)" />
    <path
       style="fill:#ee82ee"
       d="M 0.93708886,15.072547 C 0.75195857,14.88459 0.60048829,14.709011 0.60048829,14.68237 c 0,-0.02664 0.29732142,-0.05904 0.66071431,-0.07201 L 1.9219169,14.586792 1.1949061,14.571968 0.46789529,14.557143 0.31491821,14.148275 C 0.23078082,13.923398 0.14409639,13.650184 0.12228614,13.541133 l -0.039655,-0.198275 0.77678572,-0.01506 0.77678574,-0.01506 -0.74743317,-0.02332 C 0.40394465,13.274286 0.12199651,13.23566 0.08629174,13.179475 0.00323449,13.048777 0.01925151,3.1811286 0.10347579,2.5928576 0.21882261,1.7872086 0.15268097,1.8449017 0.98030171,1.8280331 L 1.7076311,1.8132087 1.0469169,1.7896384 C 0.683524,1.7766748 0.38620257,1.7394662 0.38620257,1.7069528 c 0,-0.08311 0.2582675,-0.4177169 0.59803972,-0.77480951 L 1.2730894,0.62857186 3.7403603,0.61218441 6.2076311,0.59579696 3.8504883,0.55861298 1.4933454,0.521429 1.8659709,0.32500043 2.2385964,0.12857186 16.008828,0.12926964 29.77906,0.12996741 30.158915,0.3068048 c 0.208921,0.0972606 0.359703,0.20944656 0.335071,0.24930222 -0.02547,0.0412092 0.02818,0.0724648 0.124378,0.0724648 0.115985,0 0.274089,0.12153513 0.502939,0.38661014 0.851809,0.9866475 0.8318,0.8124391 0.829356,7.2205327 l -0.002,5.2142853 -0.191948,0.535715 -0.191949,0.535714 -0.642857,0.04007 -0.642857,0.04007 0.553571,0.0135 c 0.304465,0.0074 0.553572,0.03881 0.553572,0.06975 0,0.03094 -0.153783,0.207727 -0.34174,0.392857 l -0.341741,0.336601 -14.714517,0 -14.7145176,0 -0.33660054,-0.341739 0,0 z"
       id="path3086"
       inkscape:connector-curvature="0"
       transform="translate(0,32)" />
    <path
       style="fill:#ee82ee"
       d=""
       id="path3088"
       inkscape:connector-curvature="0"
       transform="translate(0,32)" />
    <path
       style="fill:#ee82ee"
       d=""
       id="path3090"
       inkscape:connector-curvature="0"
       transform="translate(0,32)" />
    <path
       style="fill:#ee82ee"
       d=""
       id="path3092"
       inkscape:connector-curvature="0"
       transform="translate(0,32)" />
    <path
       style="fill:#ee82ee"
       d="M 0.93708886,15.072547 C 0.75195857,14.88459 0.60048829,14.709213 0.60048829,14.682819 c 0,-0.02639 0.23303571,-0.05908 0.51785711,-0.07264 L 1.6362026,14.585528 1.0520489,14.571336 0.46789529,14.557143 0.31491821,14.148275 C 0.23078082,13.923398 0.14409639,13.650184 0.12228614,13.541133 l -0.039655,-0.198275 0.59821429,-0.01437 0.59821427,-0.01438 -0.56924434,-0.02463 C 0.36904509,13.27474 0.11863166,13.230339 0.08590911,13.178857 0.00311444,13.048596 0.01949156,3.179452 0.10347579,2.5928576 0.21725303,1.7981716 0.17245654,1.8448127 0.83744457,1.8286649 L 1.4219169,1.8144723 0.90405971,1.7898214 C 0.61923829,1.7762634 0.38620257,1.7387706 0.38620257,1.7065039 c 0,-0.082697 0.25891793,-0.4179517 0.59803972,-0.77436061 L 1.2730894,0.62857186 3.3117889,0.61247469 5.3504883,0.59637751 3.4219169,0.55890326 1.4933454,0.521429 1.8659709,0.32500043 2.2385964,0.12857186 l 13.7702316,6.9778e-4 13.770232,6.9777e-4 0.375,0.1745876 c 0.20625,0.0960232 0.375,0.20820918 0.375,0.24930222 0,0.0410931 0.0615,0.0747146 0.136675,0.0747146 0.08001,0 0.288837,0.18210293 0.503662,0.43920024 0.802395,0.9602846 0.783694,0.7887132 0.781262,7.1679426 l -0.002,5.2142853 -0.191948,0.535715 -0.191949,0.535714 -0.571428,0.04047 -0.571429,0.04047 0.482143,0.0131 c 0.265178,0.0072 0.482143,0.03842 0.482143,0.06935 0,0.03094 -0.153783,0.207727 -0.34174,0.392857 l -0.341741,0.336601 -14.714517,0 -14.7145176,0 -0.33660054,-0.341739 0,0 z"
       id="path3094"
       inkscape:connector-curvature="0"
       transform="translate(0,32)" />
    <path
       style="fill:#ee82ee"
       d="M 0.93708886,15.072547 C 0.75195857,14.88459 0.60048829,14.707805 0.60048829,14.67969 c 0,-0.02812 0.18482142,-0.05679 0.41071431,-0.06373 l 0.4107143,-0.01261 -0.49373769,-0.04096 -0.49373758,-0.04096 -0.16697667,-0.496056 c -0.0918372,-0.272831 -0.16697667,-0.53801 -0.16697667,-0.589286 0,-0.06612 0.1401997,-0.09723 0.48214285,-0.106992 L 1.064774,13.315332 0.60234057,13.289557 C 0.34800213,13.27538 0.11545861,13.225323 0.08557716,13.17832 0.00301028,13.04844 0.01969991,3.1779968 0.10347579,2.5928576 0.21553163,1.8101949 0.18718791,1.8447189 0.73030171,1.8293516 L 1.2076311,1.8158455 0.79691686,1.7900727 C 0.571024,1.7758976 0.38620257,1.7380958 0.38620257,1.7060686 c 0,-0.082296 0.25955214,-0.4181829 0.59803972,-0.77392531 L 1.2730894,0.62857186 2.954646,0.61282188 4.6362026,0.5970719 3.064774,0.55925045 1.4933454,0.521429 1.8659709,0.32500043 2.2385964,0.12857186 l 13.7904636,0 13.790463,0 0.364367,0.19642857 c 0.200402,0.10803571 0.434443,0.23550345 0.52009,0.28326163 0.185609,0.10349718 0.689463,0.68906784 0.900118,1.04610034 0.322772,0.5470577 0.348384,1.0243285 0.351041,6.5413845 l 0.0025,5.1743181 -0.193294,0.593539 -0.193295,0.593539 -0.503134,0.01351 c -0.500419,0.01343 -0.500917,0.01365 -0.09242,0.03928 0.225893,0.01417 0.410714,0.04949 0.410714,0.07846 0,0.02898 -0.153783,0.204162 -0.341739,0.389292 l -0.34174,0.336601 -14.714517,0 -14.7145176,0 -0.33660054,-0.341739 0,0 z"
       id="path3096"
       inkscape:connector-curvature="0"
       transform="translate(0,32)" />
    <path
       style="fill:#ee82ee"
       d="M 0.93708886,15.072547 C 0.75195857,14.88459 0.60048829,14.707805 0.60048829,14.67969 c 0,-0.02812 0.15267857,-0.05652 0.33928571,-0.06313 0.3372469,-0.01194 0.3367477,-0.01226 -0.0830619,-0.05357 L 0.43436441,14.521429 0.26742634,14.025373 c -0.0918159,-0.272831 -0.16693805,-0.536405 -0.16693805,-0.585721 0,-0.05855 0.14252287,-0.09861 0.41071428,-0.115438 l 0.41071429,-0.02577 -0.40935343,-0.01351 C 0.15138858,13.273018 0.0983949,13.252244 0.06229809,13.108423 0.03979653,13.01877 0.03289348,10.567877 0.04695796,7.6619947 0.06612505,3.7018587 0.09476193,2.3114843 0.16129502,2.1107147 0.24923581,1.8453455 0.25384389,1.842738 0.65741714,1.8299827 1.0637131,1.8171414 1.0638904,1.8170381 0.72548829,1.7903548 0.53888114,1.7756406 0.38620257,1.7375547 0.38620257,1.7057196 c 0,-0.081974 0.26006307,-0.418371 0.59803972,-0.77357631 L 1.2730894,0.62857186 2.6689317,0.61321753 4.064774,0.59786321 2.7790597,0.5596461 1.4933454,0.521429 1.8659709,0.32500043 2.2385964,0.12857186 l 13.8059466,9.443e-4 13.805945,9.4431e-4 0.514314,0.28523737 c 0.356297,0.19760195 0.615462,0.40940823 0.843535,0.68939106 0.757236,0.929587 0.743773,0.8017646 0.746802,7.090658 l 0.0025,5.1743181 -0.193294,0.593539 -0.193295,0.593539 -0.431705,0.01287 c -0.40507,0.01208 -0.410773,0.01453 -0.09242,0.03963 0.186607,0.01471 0.339285,0.05031 0.339285,0.0791 0,0.02879 -0.153783,0.203813 -0.341739,0.388943 l -0.34174,0.336601 -14.714517,0 -14.7145176,0 -0.33660054,-0.341739 0,0 z"
       id="path3098"
       inkscape:connector-curvature="0"
       transform="translate(0,32)" />
    <path
       style="fill:#ee82ee"
       d="m 0.89761797,15.041579 -0.32748206,-0.358936 0.22646681,-0.06039 0.22646678,-0.06039 -0.28355702,-0.005 -0.28355699,-0.005 -0.0889862,-0.233007 c -0.1161222,-0.304062 -0.27741421,-0.835719 -0.27790511,-0.916041 -2.7045e-4,-0.04425 0.11668054,-0.06614 0.39104827,-0.07317 L 0.87154659,13.319686 0.49421355,13.30203 C 0.27391659,13.291722 0.10071326,13.259114 0.07803319,13.223677 0.05666718,13.190294 0.03961235,10.878773 0.04013357,8.0869639 0.04087731,4.1032016 0.05575015,2.9067349 0.1092519,2.5266419 0.20411822,1.8526823 0.22287378,1.8259492 0.60815861,1.8155274 l 0.31389561,-0.00849 -0.29253235,-0.02939 -0.29253239,-0.02939 0.1463516,-0.2272843 C 0.56383443,1.395966 0.77135496,1.1402712 0.94449779,0.95276159 L 1.2593029,0.6118351 2.530146,0.60061488 3.800989,0.58939466 2.6140597,0.56273416 1.4271305,0.53607366 1.8417502,0.3199354 2.2563698,0.10379713 l 13.8032772,0.0141078 13.803278,0.0141077 0.378807,0.20146415 c 0.475175,0.25271599 1.186537,0.94601411 1.38329,1.34816211 0.07331,0.1498495 0.178037,0.5032432 0.232718,0.7853192 0.09502,0.4901725 0.09935,0.7448592 0.09791,5.7559668 l -0.0015,5.2431011 -0.191414,0.53033 -0.191414,0.53033 -0.349122,0.01962 -0.349122,0.01962 0.277792,0.05836 0.277792,0.05836 -0.349213,0.363969 -0.349212,0.36397 -14.752568,-0.005 -14.752568,-0.005 -0.32748203,-0.358936 z"
       id="path3119"
       inkscape:connector-curvature="0"
       transform="translate(0,32)" />
    <path
       style="fill:#ee82ee"
       d="M 0.90315371,15.052806 C 0.72608326,14.858308 0.58971267,14.692631 0.60010794,14.684633 c 0.0103953,-0.008 0.09845,-0.0388 0.19567721,-0.06846 l 0.17677669,-0.05392 -0.25830317,-0.0052 -0.25830318,-0.0052 -0.0889862,-0.233007 c -0.1161222,-0.304062 -0.27741421,-0.835719 -0.27790511,-0.916041 -2.6497e-4,-0.04336 0.10641725,-0.06618 0.34054064,-0.07287 l 0.34092648,-0.0097 -0.32698981,-0.01823 C 0.26369708,13.292044 0.09914437,13.256648 0.07786878,13.223411 0.0565932,13.190174 0.03961235,10.878773 0.04013357,8.0869639 0.04087731,4.1032016 0.05575015,2.9067349 0.1092519,2.5266419 0.20292598,1.8611523 0.22637888,1.8259543 0.58290479,1.8157856 L 0.87154659,1.807553 0.60424583,1.7779048 0.33694503,1.7482567 0.48331885,1.5209724 C 0.56382443,1.395966 0.77135496,1.1402712 0.94449779,0.95276159 L 1.2593029,0.6118351 2.3533693,0.600826 3.4474356,0.58981691 2.437283,0.56294528 1.4271305,0.53607366 1.8442909,0.320615 2.2614512,0.10515634 l 13.8007368,0.0134281 13.800737,0.0134281 0.378807,0.20146415 c 0.474512,0.25236396 1.186554,0.94604831 1.38279,1.34714051 0.31192,0.6375402 0.302882,0.4585523 0.321137,6.359972 l 0.01665,5.3831957 -0.192957,0.551451 -0.192958,0.55145 -0.326406,0.01888 -0.326405,0.01888 0.252538,0.05862 0.252538,0.05862 -0.349213,0.364448 -0.349212,0.364449 -14.752568,-0.0021 L 1.2251,15.406437 0.90315371,15.052806 z"
       id="path3121"
       inkscape:connector-curvature="0"
       transform="translate(0,32)" />
    <path
       style="fill:#ee82ee"
       d="M 0.90366419,15.053872 C 0.72687446,14.858227 0.59050387,14.691096 0.60061842,14.682469 c 0.0101145,-0.0086 0.0865753,-0.03973 0.16991291,-0.06912 0.14719893,-0.05191 0.14478017,-0.05355 -0.0847594,-0.05742 L 0.4494896,14.55194 0.35041845,14.286775 C 0.2245459,13.949876 0.08867837,13.492854 0.08867837,13.406351 c 0,-0.04632 0.08843273,-0.06944 0.29041885,-0.07594 l 0.29041886,-0.0093 -0.27668946,-0.01895 C 0.24064742,13.291699 0.09882313,13.256128 0.07766153,13.223076 0.05649994,13.190023 0.03961235,10.878773 0.04013357,8.0869639 0.04129696,1.8553934 0.04302888,1.8333276 0.53239717,1.8151941 L 0.77053133,1.8063701 0.55607358,1.787046 0.34161584,1.7677219 0.42068418,1.6148206 C 0.49629063,1.4686138 1.1123187,0.72791486 1.2227039,0.65048925 1.2518009,0.63008022 1.6960836,0.60818744 2.2099987,0.60183868 L 3.1443898,0.59029542 2.2857602,0.56318454 1.4271305,0.53607366 1.8426973,0.32141625 2.2582641,0.10675883 l 13.7605219,0 13.760521,0 0.420616,0.21180295 c 0.329652,0.16599775 0.513461,0.3056737 0.849931,0.6458608 0.492054,0.49749052 0.661594,0.77997572 0.788723,1.31416422 0.083,0.3487747 0.09148,0.805597 0.106942,5.7620025 l 0.01679,5.3831957 -0.192885,0.551451 -0.192886,0.55145 -0.301224,0.02603 -0.301224,0.02603 0.214658,0.04155 c 0.118061,0.02285 0.214657,0.05721 0.214657,0.07634 0,0.01914 -0.153987,0.187603 -0.342194,0.374368 L 30.719019,15.41057 15.972059,15.41008 1.2251,15.40959 0.90366419,15.053872 z"
       id="path3123"
       inkscape:connector-curvature="0"
       transform="translate(0,32)" />
    <path
       style="fill:#ee82ee"
       d=""
       id="path3125"
       inkscape:connector-curvature="0"
       transform="translate(0,32)" />
    <path
       style="fill:#ee82ee"
       d=""
       id="path3127"
       inkscape:connector-curvature="0"
       transform="translate(0,32)" />
    <path
       style="fill:#ee82ee"
       d="m 0.90142826,15.054265 c -0.175454,-0.195967 -0.31077514,-0.361964 -0.30071357,-0.368882 0.0100616,-0.0069 0.0751148,-0.03823 0.14456283,-0.06959 0.11882834,-0.05365 0.11383364,-0.05722 -0.0847594,-0.06043 -0.20744033,-0.0034 -0.21271303,-0.0079 -0.31009965,-0.268584 -0.12587255,-0.336899 -0.26174008,-0.793921 -0.26174008,-0.880424 0,-0.04454 0.07946825,-0.06952 0.23991123,-0.07542 l 0.23991123,-0.0088 -0.2264546,-0.01991 C 0.21749621,13.291248 0.09840035,13.255444 0.07738877,13.222635 0.05637719,13.189825 0.03961235,10.878773 0.04013357,8.0869639 0.04128637,1.9121373 0.04711423,1.8338754 0.50714335,1.8155277 L 0.72002371,1.8070372 0.53089133,1.7872411 C 0.34317211,1.767593 0.34228627,1.76643 0.41233016,1.6315818 0.50144341,1.4600215 0.73887169,1.160552 1.030607,0.85174633 L 1.2572562,0.6118351 2.0745539,0.60132699 2.8918517,0.59081893 2.1594911,0.56344627 1.4271305,0.53607366 1.8426973,0.32141625 2.2582641,0.10675883 l 13.7710829,0 13.771083,0 0.410054,0.21350097 c 0.307262,0.15998042 0.517676,0.32188518 0.83937,0.6458608 0.491681,0.4951678 0.661443,0.7776563 0.788731,1.3124662 0.08318,0.349468 0.09114,0.7973799 0.102779,5.7831233 l 0.01262,5.4043159 -0.186901,0.53033 -0.186901,0.53033 -0.303046,0.02603 -0.303046,0.02603 0.214658,0.04155 c 0.118061,0.02285 0.214657,0.05721 0.214657,0.07634 0,0.01914 -0.153987,0.187603 -0.342194,0.374368 l -0.342194,0.339572 -14.749292,0 -14.7492914,0 -0.31900734,-0.356305 0,0 z"
       id="path3135"
       inkscape:connector-curvature="0"
       transform="translate(0,32)" />
    <path
       style="fill:#ee82ee"
       d="m 0.89817022,15.054583 c -0.1740107,-0.195794 -0.30800829,-0.362905 -0.29777241,-0.371359 0.0102359,-0.0085 0.0640675,-0.04076 0.1196259,-0.07179 0.0890497,-0.04974 0.0790098,-0.0566 -0.0847594,-0.05796 -0.17744486,-0.0015 -0.19021682,-0.01342 -0.28484583,-0.266701 -0.12587255,-0.336899 -0.26174008,-0.793921 -0.26174008,-0.880424 0,-0.04334 0.07494856,-0.06956 0.21465741,-0.07508 L 0.5179932,13.322776 0.31661808,13.30225 C 0.20586176,13.290961 0.09813012,13.255007 0.07721443,13.222352 0.01673658,13.127932 0.03440702,3.0793325 0.09592613,2.5816326 0.12511255,2.3455094 0.17971882,2.0784503 0.21727339,1.9881679 0.27619872,1.8465096 0.31185913,1.8229106 0.47753523,1.8159351 0.66354588,1.8081034 0.66442208,1.8072193 0.5057108,1.7875068 0.34261536,1.7672499 0.34223165,1.766531 0.4171668,1.6216224 0.48993197,1.4809101 0.84625277,1.0361075 1.1148171,0.75073108 1.2440745,0.61338215 1.2532926,0.61172196 1.942422,0.60167615 L 2.6393135,0.59151725 2.033222,0.56379543 1.4271305,0.53607366 1.8426973,0.32141625 2.2582641,0.10675883 l 13.7710829,0 13.771083,0 0.410054,0.21350097 c 0.307262,0.15998042 0.517676,0.32188518 0.83937,0.6458608 0.545262,0.5491293 0.688444,0.8128774 0.811382,1.4946075 0.0903,0.5007132 0.0958,0.8393245 0.0937,5.7686178 l -0.0022,5.2366801 -0.186266,0.53033 -0.186267,0.53033 -0.277792,0.02557 -0.277792,0.02557 0.189404,0.03985 c 0.104172,0.02192 0.189403,0.05648 0.189403,0.0768 0,0.02032 -0.153987,0.189754 -0.342194,0.376519 l -0.342194,0.339572 -14.752233,0 -14.7522327,0 -0.31638308,-0.355987 z"
       id="path3137"
       inkscape:connector-curvature="0"
       transform="translate(0,32)" />
    <path
       style="fill:#ee82ee"
       d="M 0.89803597,15.054431 C 0.59898314,14.717943 0.58673327,14.694343 0.676025,14.626723 c 0.0879568,-0.06661 0.0833817,-0.07168 -0.0660145,-0.07318 -0.14693719,-0.0015 -0.16890452,-0.02405 -0.25959202,-0.266771 -0.12587255,-0.336899 -0.26174008,-0.793921 -0.26174008,-0.880424 0,-0.04184 0.07039153,-0.0696 0.1894036,-0.07468 l 0.1894036,-0.0081 -0.17633534,-0.02128 C 0.19416579,13.290608 0.09779837,13.25447 0.0770004,13.222006 0.01666819,13.127832 0.03454313,3.0782313 0.09592613,2.5816326 0.16724145,2.0046796 0.24462399,1.8260082 0.42702762,1.8171399 0.54539692,1.811385 0.55002145,1.8066975 0.4553452,1.788437 0.34770617,1.7676763 0.34585182,1.7595304 0.41730885,1.6213477 0.48995429,1.480867 0.84643834,1.0359103 1.1148171,0.75073108 1.2418254,0.61577207 1.2624204,0.61155787 1.8414067,0.60205349 L 2.437283,0.59227183 1.9322068,0.56417277 1.4271305,0.53607366 1.8426973,0.32141625 2.2582641,0.10675883 l 13.7710829,0 13.771083,0 0.410054,0.21350097 c 0.538022,0.28012901 1.21128,0.9411441 1.437219,1.4110837 0.305577,0.6355815 0.309186,0.7104794 0.311875,6.4727906 l 0.0024,5.2113849 -0.19068,0.56821 -0.19068,0.568211 -0.252771,0.004 c -0.241324,0.0038 -0.245909,0.0064 -0.101248,0.05742 0.08334,0.02939 0.161637,0.06233 0.174,0.07321 0.01236,0.01087 -0.134763,0.178226 -0.326945,0.371893 l -0.349424,0.352118 -14.754856,0 -14.7548547,0 -0.31651733,-0.356139 0,0 z"
       id="path3139"
       inkscape:connector-curvature="0"
       transform="translate(0,32)" />
    <path
       style="fill:#ee82ee"
       d="M 0.8950494,15.055042 C 0.59610956,14.717853 0.58476792,14.695789 0.67519051,14.627333 c 0.0891194,-0.06747 0.0848662,-0.07229 -0.06518,-0.07379 -0.14693719,-0.0015 -0.16890452,-0.02405 -0.25959202,-0.266771 -0.12587255,-0.336899 -0.26174008,-0.793921 -0.26174008,-0.880424 0,-0.03991 0.06577988,-0.06963 0.16414979,-0.07416 l 0.16414978,-0.0076 -0.15135872,-0.02224 C 0.18237192,13.290144 0.09736871,13.253775 0.0767232,13.221558 0.01657962,13.127703 0.03471947,3.0768047 0.09592613,2.5816326 0.16342908,2.0355222 0.24738688,1.8259423 0.4017738,1.8181592 c 0.0846598,-0.00427 0.09237,-0.012102 0.0283931,-0.028849 C 0.34928127,1.768137 0.34847477,1.7544582 0.41996143,1.6162182 0.50375161,1.4541859 0.99706885,0.84443369 1.1610428,0.70022345 1.239985,0.63079612 1.3659844,0.60984818 1.7483986,0.60257301 l 0.4868539,-0.009262 -0.404061,-0.0286187 -0.404061,-0.0286186 0.4155668,-0.21465741 0.4155668,-0.21465742 13.7710829,0 13.771083,0 0.410054,0.21350097 c 0.535287,0.2787048 1.209727,0.9399344 1.439276,1.4110837 0.302993,0.6218964 0.30725,0.7114526 0.308767,6.496868 l 0.0014,5.2235155 -0.189857,0.549808 -0.189856,0.549809 -0.227284,0.0037 c -0.21086,0.0034 -0.21816,0.0078 -0.101016,0.06073 0.06945,0.03136 0.136384,0.06456 0.148747,0.07378 0.01236,0.0092 -0.134763,0.175215 -0.326945,0.368882 l -0.349421,0.35212 -14.757008,0 -14.7570068,0 -0.3151998,-0.355528 z"
       id="path3141"
       inkscape:connector-curvature="0"
       transform="translate(0,32)" />
    <path
       style="fill:#ee82ee"
       d="M 0.88937502,15.048613 C 0.69535427,14.82975 0.59346023,14.67833 0.63163536,14.665597 0.74074002,14.629204 0.7002879,14.55194 0.57212975,14.55194 c -0.13006467,0 -0.21239303,-0.164744 -0.40211692,-0.804662 -0.10950083,-0.369335 -0.10435496,-0.406381 0.0575615,-0.414399 0.13650882,-0.0068 0.13672584,-0.0073 0.0126269,-0.03035 -0.069448,-0.01291 -0.14308698,-0.04959 -0.16364221,-0.08151 C 0.01908274,13.131759 0.03416149,3.0775708 0.09247759,2.6068864 0.15801805,2.0778921 0.22628622,1.8772248 0.35891693,1.8237153 0.41862968,1.7996243 0.43849136,1.7784729 0.403054,1.776712 0.3055134,1.7718654 0.44802023,1.5257626 0.77906157,1.127364 1.2086309,0.61038998 1.204091,0.61305345 1.6726372,0.60311754 L 2.0837296,0.59439997 1.7554301,0.56523682 1.4271305,0.53607366 1.8426973,0.32141625 2.2582641,0.10675883 l 13.7710829,0 13.771083,0 0.410054,0.21350097 c 0.535287,0.2787048 1.209727,0.9399344 1.439276,1.4110837 0.303028,0.6219672 0.30725,0.7108761 0.308769,6.5029138 l 0.0014,5.2295607 -0.189857,0.541728 -0.189859,0.541728 -0.20203,0.01916 c -0.170984,0.01622 -0.184567,0.02524 -0.08839,0.05873 0.0625,0.02176 0.113642,0.05457 0.113642,0.07292 0,0.01834 -0.153987,0.186151 -0.342194,0.372916 l -0.342197,0.339572 -14.754385,0 -14.7543848,0 -0.32087418,-0.361957 0,0 z"
       id="path3143"
       inkscape:connector-curvature="0"
       transform="translate(0,32)" />
    <path
       style="fill:#ee82ee"
       d="M 7.0004883,15.92984 2.5540597,15.907364 2.2909704,15.828729 C 2.1462713,15.785479 1.871361,15.678347 1.6800586,15.590657 1.4887563,15.502967 1.3086611,15.431221 1.2798472,15.431221 c -0.047254,0 -0.2685341,-0.231199 -0.59489764,-0.621564 l -0.11911018,-0.142469 0.0833959,-0.03609 c 0.0777301,-0.03364 0.0743042,-0.03695 -0.0504266,-0.0487 -0.080723,-0.0076 -0.14698968,-0.03721 -0.16700686,-0.07461 C 0.36583556,14.384514 0.11363554,13.588965 0.10184821,13.466956 0.09045356,13.349011 0.09680928,13.340733 0.21477399,13.319872 l 0.125,-0.0221 -0.12946428,-0.0047 C 0.09500216,13.288878 0.07837891,13.276031 0.05828898,13.175582 0.04588294,13.113551 0.03605408,10.794797 0.03644707,8.022794 0.0371235,3.2514786 0.04079537,2.9580305 0.10532314,2.5183747 0.18290142,1.9898001 0.22679276,1.8671003 0.34929042,1.8363553 0.41384971,1.820152 0.42363906,1.8069117 0.38781046,1.7842563 0.34917535,1.7598262 0.3565886,1.7240545 0.4256886,1.6014797 0.53870896,1.4009957 0.7666591,1.1090256 1.0256596,0.8330065 L 1.2351111,0.60979221 1.6267282,0.60304325 2.0183454,0.59629432 1.6969168,0.57625753 1.3754883,0.55622078 1.8110234,0.33371616 2.2465586,0.11121153 16.025309,0.1015733 29.80406,0.09193507 30.125488,0.26645825 c 0.440139,0.23897814 0.681531,0.40976482 0.897108,0.63470993 0.431499,0.45025112 0.664084,0.81259142 0.777008,1.21049122 0.155254,0.5470539 0.157956,0.6482145 0.163309,6.1127582 l 0.0051,5.2039114 -0.186881,0.546089 c -0.102785,0.300349 -0.20396,0.557896 -0.224833,0.572327 -0.02087,0.01443 -0.110273,0.0282 -0.198666,0.03059 -0.154726,0.0042 -0.157009,0.0058 -0.06129,0.04358 0.05468,0.02158 0.09486,0.05919 0.08929,0.08357 -0.0056,0.02439 -0.152546,0.189596 -0.326602,0.367132 -0.282775,0.288431 -0.353762,0.33989 -0.66684,0.4834 -0.192706,0.08833 -0.492262,0.203392 -0.665679,0.255686 l -0.315302,0.09508 -4.517858,0.02739 c -5.1023,0.03093 -11.344324,0.02977 -17.8928567,-0.0033 l 0,1e-6 z"
       id="path3145"
       inkscape:connector-curvature="0"
       transform="translate(0,32)" />
    <path
       style="fill:#ee82ee"
       d="m 6.964774,15.931834 -4.4107143,-0.0204 -0.2670944,-0.08333 c -0.1469019,-0.04583 -0.4262065,-0.153882 -0.620677,-0.240105 -0.1944704,-0.08622 -0.3727632,-0.15677 -0.3962063,-0.15677 -0.038794,0 -0.27723519,-0.253287 -0.58513244,-0.621564 l -0.11911018,-0.142469 0.0833959,-0.03609 c 0.0774424,-0.03352 0.0736743,-0.03701 -0.0527836,-0.04885 -0.12309965,-0.01153 -0.142782,-0.02815 -0.20492211,-0.173119 -0.0929321,-0.216803 -0.27859913,-0.827774 -0.29140437,-0.958921 -0.0089911,-0.09208 0.003728,-0.109127 0.0967916,-0.129703 l 0.10714286,-0.02369 -0.11160715,-0.0042 c -0.09538,-0.0036 -0.11488674,-0.02062 -0.13416358,-0.117007 C 0.04588294,13.113551 0.03605408,10.794797 0.03644707,8.022794 0.0371235,3.2514786 0.04079537,2.9580305 0.10532314,2.5183747 0.17901786,2.0162605 0.22574897,1.8724576 0.32551428,1.8407933 0.36271256,1.828987 0.38149817,1.7990465 0.37019267,1.7695848 0.3352811,1.6786067 0.64294285,1.2379487 1.0240997,0.8330065 L 1.234203,0.60979221 1.5905599,0.60324293 1.9469168,0.59669368 1.6612026,0.57645721 1.3754883,0.55622078 1.8112866,0.33358421 2.247085,0.11094764 16.025572,0.10144135 29.80406,0.09193507 30.125488,0.26645825 c 0.440139,0.23897814 0.681531,0.40976482 0.897108,0.63470993 0.430155,0.44884832 0.66164,0.80887192 0.778312,1.21049122 0.152572,0.5251968 0.15617,0.661341 0.161665,6.1171657 l 0.0052,5.2083189 -0.18629,0.541681 c -0.102459,0.297925 -0.192212,0.549053 -0.199452,0.558064 -0.0072,0.009 -0.08883,0.0271 -0.181305,0.0402 -0.13969,0.01979 -0.154252,0.02838 -0.08606,0.05073 0.04515,0.0148 0.07729,0.04808 0.07143,0.07396 -0.0059,0.02587 -0.153066,0.192298 -0.327122,0.369834 -0.282775,0.288431 -0.353762,0.33989 -0.66684,0.4834 -0.192706,0.08833 -0.492262,0.203447 -0.665679,0.255808 l -0.315302,0.0952 -4.464286,0.02716 c -4.947323,0.0301 -11.285729,0.02962 -17.982143,-0.0014 l 0,-10e-7 z"
       id="path3147"
       inkscape:connector-curvature="0"
       transform="translate(0,32)" />
    <path
       style="fill:#ee82ee"
       d="m 6.8754883,15.931873 -4.3571429,-0.0204 -0.3214286,-0.111698 c -0.1767857,-0.06143 -0.4479885,-0.169492 -0.602673,-0.240128 -0.1546843,-0.07064 -0.3004911,-0.12843 -0.324015,-0.12843 -0.038815,0 -0.27697967,-0.252808 -0.5830767,-0.618928 -0.10944311,-0.130904 -0.11286361,-0.1429 -0.0535714,-0.187888 0.0571983,-0.0434 0.0519646,-0.04817 -0.0540044,-0.04919 -0.10488264,-0.001 -0.12474325,-0.01841 -0.187065,-0.163796 -0.0931427,-0.217294 -0.27944155,-0.828951 -0.29238601,-0.959964 -0.008439,-0.08541 0.006143,-0.109496 0.0789345,-0.130368 l 0.0892857,-0.0256 -0.09375,-0.0036 C 0.09908589,13.289056 0.07645673,13.26642 0.05828898,13.175582 0.04588294,13.113551 0.03605408,10.794797 0.03644707,8.022794 0.0371235,3.2514786 0.04079537,2.9580305 0.10532314,2.5183747 0.17867137,2.0186213 0.22581942,1.8724352 0.32366828,1.8413792 0.36067267,1.8296345 0.37978278,1.7966973 0.37068971,1.7603355 0.34944128,1.6753664 0.58940842,1.3221608 0.93120296,0.93532096 L 1.2188257,0.60979221 1.5292998,0.60362796 1.839774,0.59746371 1.6076311,0.57684225 1.3754883,0.55622078 1.8111396,0.33365791 2.246791,0.11109504 l 13.778634,-0.00958 13.778635,-0.00958 0.232143,0.12082842 c 0.404481,0.21052933 0.761381,0.4581489 0.968571,0.6720024 0.443422,0.45768181 0.677443,0.81832341 0.796134,1.22689351 0.152579,0.5252221 0.15617,0.6611481 0.161668,6.120285 l 0.0052,5.2114376 -0.186254,0.538562 c -0.102439,0.29621 -0.192194,0.545934 -0.199455,0.554945 -0.0073,0.009 -0.08886,0.0271 -0.181343,0.0402 -0.13969,0.01979 -0.154252,0.02838 -0.08606,0.05073 0.04515,0.0148 0.07729,0.04808 0.07143,0.07396 -0.0059,0.02587 -0.153066,0.192298 -0.327122,0.369834 -0.282775,0.288431 -0.353762,0.33989 -0.66684,0.4834 -0.192706,0.08833 -0.492262,0.203483 -0.665679,0.255887 l -0.315302,0.09528 -4.357143,0.02703 c -4.842588,0.03004 -11.579465,0.02955 -18.1785717,-0.0013 l 0,-2e-6 z"
       id="path3149"
       inkscape:connector-curvature="0"
       transform="translate(0,32)" />
    <path
       style="fill:#ee82ee"
       d="M 6.7326311,15.932491 2.5183454,15.912942 2.1612026,15.783564 C 1.2179737,15.441873 1.2214977,15.444116 0.7458876,14.882773 0.58063388,14.687732 0.57299935,14.670329 0.63279374,14.624981 c 0.0582914,-0.04421 0.0534514,-0.04874 -0.0532175,-0.04977 -0.10488264,-0.001 -0.12474325,-0.01841 -0.187065,-0.163796 -0.0931427,-0.217294 -0.27944155,-0.828951 -0.29238601,-0.959964 -0.008439,-0.08541 0.006143,-0.109496 0.0789345,-0.130368 l 0.0892857,-0.0256 -0.0940489,-0.0036 C 0.10865464,13.289439 0.07370681,13.264092 0.05859242,13.208007 0.04668204,13.16381 0.03698623,10.845065 0.03704618,8.0552411 0.03714999,3.2245652 0.04045126,2.9603751 0.10631849,2.5115929 0.17529398,2.0416329 0.2177129,1.9031652 0.30927344,1.849089 c 0.0265967,-0.015708 0.0483577,-0.056021 0.0483577,-0.089584 0,-0.0947 0.26265243,-0.474172 0.56684529,-0.81896062 L 1.2005312,0.62764935 1.4844383,0.60850482 C 1.7646037,0.5896126 1.7657566,0.58914193 1.5719168,0.57279053 L 1.3754883,0.55622078 1.8109707,0.33374258 2.2464532,0.11126437 16.025256,0.10159972 29.80406,0.09193507 30.036203,0.21276349 c 0.404481,0.21052933 0.761381,0.4581489 0.968571,0.6720024 0.443422,0.45768181 0.677443,0.81832341 0.796134,1.22689351 0.152889,0.5262877 0.156399,0.6592363 0.16168,6.1227264 l 0.005,5.2138792 -0.186553,0.536121 c -0.102604,0.294866 -0.203692,0.547928 -0.224641,0.562359 -0.02095,0.01443 -0.09434,0.027 -0.163088,0.02792 -0.115085,0.0015 -0.119747,0.0057 -0.05877,0.05185 0.03643,0.02759 0.06053,0.06632 0.05357,0.08606 -0.007,0.01974 -0.155068,0.181223 -0.329124,0.358858 -0.281798,0.287594 -0.354172,0.340221 -0.660714,0.480441 -0.189337,0.08661 -0.480857,0.201401 -0.647822,0.255097 l -0.303571,0.09763 -4.25,0.02783 c -4.65339,0.03047 -11.903834,0.03049 -18.4642859,7.1e-5 l 0,-1.3e-5 z"
       id="path3151"
       inkscape:connector-curvature="0"
       transform="translate(0,32)" />
    <path
       style="fill:#ee82ee"
       d="M 6.6612026,15.931419 2.4826311,15.911226 2.167267,15.794204 C 1.9938167,15.729841 1.7260346,15.62184 1.5721955,15.554201 c -0.153839,-0.06764 -0.2948532,-0.12298 -0.3133647,-0.12298 -0.032446,0 -0.38623413,-0.382578 -0.58874009,-0.63665 -0.0919735,-0.115393 -0.0942567,-0.126309 -0.0357143,-0.170748 0.0560932,-0.04258 0.0504439,-0.04759 -0.0548002,-0.04861 -0.10488264,-0.001 -0.12474325,-0.01841 -0.187065,-0.163796 -0.0931427,-0.217294 -0.27944155,-0.828951 -0.29238601,-0.959964 -0.008439,-0.08541 0.006143,-0.109496 0.0789345,-0.130368 l 0.0892857,-0.0256 -0.096596,-0.0036 C 0.09198163,13.288984 0.07146517,13.268143 0.05398197,13.172292 0.04233763,13.108453 0.03810325,10.717828 0.04457223,7.8597922 0.05546701,3.0464141 0.06102599,2.6398711 0.11998488,2.3446655 0.18509553,2.0186583 0.26091459,1.8240779 0.32283399,1.8240779 c 0.0191384,0 0.0347971,-0.028259 0.0347971,-0.062798 0,-0.096309 0.26048936,-0.4734912 0.56681543,-0.82073522 L 1.2004715,0.62764935 1.4486942,0.60842232 C 1.6782659,0.59063996 1.6848411,0.5879565 1.5362026,0.57270803 L 1.3754883,0.55622078 1.8100371,0.33421059 2.2445859,0.11220041 15.998511,0.0931809 29.752437,0.07416139 30.010391,0.20364286 c 0.602819,0.30258799 0.929257,0.56140796 1.317658,1.04471864 0.235834,0.2934627 0.388053,0.5713677 0.472859,0.8632979 0.153215,0.5274101 0.15664,0.6571983 0.161677,6.1256889 l 0.0048,5.2168417 -0.186051,0.533158 c -0.102328,0.293237 -0.203363,0.544966 -0.224523,0.559397 -0.02116,0.01443 -0.09472,0.027 -0.163472,0.02792 -0.115085,0.0015 -0.119747,0.0057 -0.05877,0.05185 0.03643,0.02759 0.06053,0.06632 0.05357,0.08606 -0.007,0.01974 -0.155068,0.181223 -0.329124,0.358858 -0.281922,0.287721 -0.354037,0.340144 -0.660714,0.480294 -0.189337,0.08653 -0.480857,0.20179 -0.647822,0.256139 l -0.303571,0.09882 -4.089286,0.02685 c -4.525471,0.02972 -12.289832,0.02884 -18.6964284,-0.0021 l 0,10e-7 z"
       id="path3153"
       inkscape:connector-curvature="0"
       transform="translate(0,32)" />
    <path
       style="fill:#ee82ee"
       d="M 6.5183454,15.9318 2.4826311,15.912531 2.1790597,15.798693 C 2.0120954,15.736083 1.7228097,15.62078 1.5362026,15.542466 1.2134211,15.407003 1.1833358,15.384764 0.91772335,15.085292 0.61789071,14.747236 0.54587046,14.645507 0.60637456,14.645507 c 0.020334,0 0.0369709,-0.01607 0.0369709,-0.03571 0,-0.01964 -0.0407497,-0.03571 -0.0905549,-0.03571 -0.10700068,0 -0.1700385,-0.126572 -0.33447746,-0.671589 -0.16034955,-0.531463 -0.1612349,-0.539095 -0.066926,-0.57697 0.0793853,-0.03188 0.0795009,-0.03268 0.005052,-0.03489 -0.0476854,-0.0014 -0.08429382,-0.03233 -0.09784698,-0.08262 C 0.04668204,13.16381 0.0371937,10.845507 0.03750723,8.0562208 0.03797531,3.8918758 0.04710783,2.9166325 0.08856638,2.6037172 0.15194966,2.1253213 0.19989541,1.9460994 0.2880864,1.8579084 c 0.0382496,-0.03825 0.0695447,-0.089768 0.0695447,-0.1144855 0,-0.080037 0.28382286,-0.4820836 0.5667875,-0.80287812 L 1.2004157,0.62764935 1.412952,0.60834664 C 1.5919621,0.59208878 1.6057704,0.58638314 1.5004883,0.57217621 1.3803352,0.55596253 1.3922488,0.54676239 1.8077368,0.33490753 L 2.2399854,0.11450656 15.990965,0.08866219 29.741944,0.06281782 30.005145,0.19830176 c 0.625707,0.32208617 0.935491,0.56797827 1.322904,1.05005974 0.235834,0.2934627 0.388053,0.5713677 0.472859,0.8632979 0.153215,0.5274101 0.15664,0.6571983 0.161677,6.1256889 l 0.0048,5.2168417 -0.186051,0.533158 c -0.102328,0.293237 -0.203363,0.544966 -0.224523,0.559397 -0.02116,0.01443 -0.08267,0.02649 -0.136686,0.02679 -0.05402,2.86e-4 -0.09821,0.01662 -0.09821,0.03626 0,0.01964 0.01725,0.03571 0.03833,0.03571 0.08421,0 7.68e-4,0.118079 -0.300817,0.425692 -0.27299,0.27845 -0.35899,0.342154 -0.631164,0.467529 -0.17331,0.07983 -0.456978,0.19509 -0.630374,0.256124 l -0.315264,0.110971 -4,0.02715 c -4.365763,0.02964 -12.618824,0.02912 -18.9642856,-0.0012 l 0,1e-6 z"
       id="path3155"
       inkscape:connector-curvature="0"
       transform="translate(0,32)" />
    <path
       style="fill:#ee82ee"
       d="M 6.3933454,15.931825 2.4469168,15.913364 1.839774,15.669502 C 1.300202,15.45278 1.2151193,15.40707 1.0752823,15.258787 0.78125181,14.946998 0.5625671,14.66648 0.60302224,14.652995 c 0.0742908,-0.02476 0.0413217,-0.07892 -0.0480454,-0.07892 -0.11029957,0 -0.14985229,-0.07414 -0.314361,-0.589286 -0.18625193,-0.583229 -0.1911345,-0.618485 -0.0912001,-0.658544 0.0800033,-0.03207 0.0802744,-0.03344 0.007024,-0.03562 -0.0476854,-0.0014 -0.08429382,-0.03233 -0.09784698,-0.08262 C 0.04668204,13.16381 0.0371937,10.845507 0.03750723,8.0562208 0.03797531,3.8918758 0.04710783,2.9166325 0.08856638,2.6037172 0.15103174,2.1322494 0.19987357,1.9461212 0.28291733,1.8630774 0.31832395,1.8276708 0.35758963,1.7576767 0.37017442,1.7075349 0.39883735,1.5933327 0.74248531,1.1277019 1.0155998,0.8330065 1.2100242,0.62321903 1.2324408,0.60957807 1.3882637,0.60623221 1.5173749,0.60345993 1.5343039,0.5970541 1.464774,0.57728128 1.386452,0.55500825 1.4281143,0.52489218 1.8040597,0.33202469 L 2.2326311,0.11215898 16.000488,0.08766434 29.768345,0.0631697 30.107631,0.25202168 c 0.474935,0.26435639 0.700842,0.42592017 0.932706,0.66704967 0.401548,0.41759385 0.6241,0.76176955 0.758927,1.17367725 0.151838,0.4638768 0.157439,0.6751383 0.162909,6.1448975 l 0.0052,5.2171399 -0.185203,0.53286 c -0.101862,0.293073 -0.202897,0.544668 -0.224523,0.559099 -0.02163,0.01443 -0.08352,0.02649 -0.137534,0.02679 -0.05402,2.86e-4 -0.09821,0.01662 -0.09821,0.03626 0,0.01964 0.01725,0.03571 0.03833,0.03571 0.08423,0 7.28e-4,0.118116 -0.301226,0.42611 -0.282095,0.287737 -0.35385,0.339841 -0.660714,0.47977 -0.189337,0.08634 -0.472822,0.201702 -0.629965,0.256366 l -0.285714,0.09939 -3.892857,0.02637 c -4.215272,0.02855 -12.895316,0.02779 -19.1964286,-0.0017 l 0,-10e-7 z"
       id="path3157"
       inkscape:connector-curvature="0"
       transform="translate(0,32)" />
    <path
       style="fill:#ee82ee"
       d=""
       id="path3159"
       inkscape:connector-curvature="0"
       transform="translate(0,32)" />
    <path
       style="fill:#ee82ee"
       d="m 6.2683454,15.931694 -3.8214286,-0.01833 -0.375,-0.148945 C 1.1549173,15.400201 1.2050957,15.433508 0.74405024,14.883019 0.60458467,14.716497 0.57750138,14.663954 0.6105851,14.62409 c 0.0337694,-0.04069 0.0242189,-0.05001 -0.0512352,-0.05001 -0.11223814,0 -0.14988192,-0.06677 -0.30204061,-0.535714 -0.1899965,-0.585562 -0.20169974,-0.649749 -0.12826155,-0.703448 0.0563911,-0.04123 0.0569492,-0.04655 0.004885,-0.04655 -0.03815189,0 -0.06622709,-0.04073 -0.08000267,-0.116072 C 0.04225706,13.108453 0.03858428,10.709792 0.04576824,7.8419351 0.05763005,3.1066752 0.06440913,2.6003089 0.11955981,2.3300437 0.1529612,2.1663607 0.20813788,1.9828058 0.24217466,1.9221441 0.27621143,1.8614823 0.34643092,1.7340766 0.39821799,1.6390202 0.51401442,1.4264732 0.72254703,1.153877 1.0059193,0.84462614 1.203196,0.62933343 1.2334692,0.60958332 1.3697237,0.60728203 c 0.1066974,-0.001802 0.1290389,-0.0101747 0.0792,-0.029681 -0.055431,-0.0216951 0.016333,-0.0716733 0.3561073,-0.24799983 L 2.2305601,0.10877215 15.999453,0.08555098 29.768345,0.0623298 30.05406,0.21768273 c 0.919451,0.49993812 1.499172,1.12359097 1.74644,1.87878787 0.151625,0.463086 0.157143,0.6723148 0.162137,6.1473316 l 0.0048,5.2232958 -0.185978,0.526704 c -0.102288,0.289688 -0.203326,0.538512 -0.224528,0.552943 -0.0212,0.01443 -0.08275,0.02649 -0.136764,0.02679 -0.05402,2.86e-4 -0.09821,0.01662 -0.09821,0.03626 0,0.01964 0.01725,0.03571 0.03833,0.03571 0.08432,0 5.85e-4,0.118264 -0.302878,0.427799 -0.320769,0.327187 -0.435084,0.399959 -0.967598,0.615968 -0.577652,0.234318 -0.212874,0.214273 -4.428571,0.243356 -4.152775,0.02865 -13.31752,0.02821 -19.3928576,-9.36e-4 l 0,0 z"
       id="path3161"
       inkscape:connector-curvature="0"
       transform="translate(0,32)" />
    <path
       style="fill:#ee82ee"
       d=""
       id="path3163"
       inkscape:connector-curvature="0"
       transform="translate(0,32)" />
    <path
       style="fill:#ee82ee"
       d=""
       id="path3165"
       inkscape:connector-curvature="0"
       transform="translate(0,32)" />
    <path
       style="fill:#ee82ee"
       d="M 6.2504883,15.934573 C 1.9319677,15.910492 2.5153556,15.953894 1.6364991,15.591307 1.2838411,15.445811 1.2084522,15.399059 1.041944,15.222595 0.68706435,14.846497 0.56589053,14.677944 0.61116931,14.623386 c 0.033016,-0.03978 0.0230044,-0.04931 -0.0518194,-0.04931 -0.11223814,0 -0.14988192,-0.06677 -0.30204061,-0.535714 -0.1899965,-0.585562 -0.20169974,-0.649749 -0.12826155,-0.703448 0.0563911,-0.04123 0.0569492,-0.04655 0.004885,-0.04655 -0.03815189,0 -0.06622709,-0.04073 -0.08000267,-0.116072 C 0.04225706,13.108453 0.03858428,10.709792 0.04576824,7.8419351 0.05762662,3.1080462 0.06442136,2.6002522 0.11951921,2.3302777 0.21239528,1.8751932 0.50084517,1.3896828 0.99846388,0.85086364 1.1948699,0.63819614 1.2365091,0.60972778 1.3518666,0.60924532 1.4374262,0.60888746 1.4660974,0.59821875 1.4348038,0.57838375 1.4014778,0.55726053 1.513585,0.48099635 1.8045479,0.32685453 L 2.2221193,0.10564001 15.995326,0.08408665 29.768532,0.06253329 30.054153,0.21778447 c 0.492161,0.26751763 0.783716,0.48411956 1.07592,0.79932203 0.309977,0.334376 0.473473,0.5807392 0.610446,0.9198495 0.206146,0.5103661 0.198567,0.2928272 0.214061,6.1441148 l 0.01425,5.3819932 -0.186694,0.528721 c -0.102681,0.290797 -0.204041,0.540529 -0.225243,0.55496 -0.0212,0.01443 -0.08275,0.02649 -0.136764,0.02679 -0.05402,2.86e-4 -0.09821,0.01662 -0.09821,0.03626 0,0.01964 0.01725,0.03571 0.03833,0.03571 0.08432,0 5.85e-4,0.118264 -0.302878,0.427799 -0.338571,0.345346 -0.449425,0.412234 -1.107452,0.668226 -0.210416,0.08186 -0.422415,0.134868 -0.625,0.15628 -0.370193,0.03913 -17.699046,0.06673 -23.0744317,0.03676 l 0,0 z"
       id="path3167"
       inkscape:connector-curvature="0"
       transform="translate(0,32)" />
  </g>
</svg>
