<?xml version="1.0" encoding="UTF-8" standalone="no"?>
<!-- Created with Inkscape (http://www.inkscape.org/) -->

<svg
   xmlns:dc="http://purl.org/dc/elements/1.1/"
   xmlns:cc="http://creativecommons.org/ns#"
   xmlns:rdf="http://www.w3.org/1999/02/22-rdf-syntax-ns#"
   xmlns:svg="http://www.w3.org/2000/svg"
   xmlns="http://www.w3.org/2000/svg"
   xmlns:xlink="http://www.w3.org/1999/xlink"
   xmlns:sodipodi="http://sodipodi.sourceforge.net/DTD/sodipodi-0.dtd"
   xmlns:inkscape="http://www.inkscape.org/namespaces/inkscape"
   width="20"
   height="20"
   id="svg3199"
   version="1.1"
   inkscape:version="0.48.3.1 r9886"
   sodipodi:docname="checkbox.svg">
  <defs
     id="defs3201">
    <linearGradient
       id="linearGradient3836">
      <stop
         style="stop-color:#ffffff;stop-opacity:1"
         offset="0"
         id="stop3838" />
      <stop
         style="stop-color:#ffffff;stop-opacity:0;"
         offset="1"
         id="stop3840" />
    </linearGradient>
    <linearGradient
       id="linearGradient3828">
      <stop
         style="stop-color:#ffffff;stop-opacity:1;"
         offset="0"
         id="stop3830" />
      <stop
         style="stop-color:#cccccc;stop-opacity:1;"
         offset="1"
         id="stop3832" />
    </linearGradient>
    <inkscape:path-effect
       is_visible="true"
       id="path-effect3857"
       effect="spiro" />
    <linearGradient
       id="linearGradient3849">
      <stop
         style="stop-color:#f9f9f9;stop-opacity:1;"
         offset="0"
         id="stop3851" />
      <stop
         style="stop-color:#b9b9b9;stop-opacity:1;"
         offset="1"
         id="stop3853" />
    </linearGradient>
    <linearGradient
       id="linearGradient3807">
      <stop
         style="stop-color:#b3b3b3;stop-opacity:1;"
         offset="0"
         id="stop3809" />
      <stop
         style="stop-color:#131313;stop-opacity:1;"
         offset="1"
         id="stop3811" />
    </linearGradient>
    <linearGradient
       id="linearGradient15404"
       inkscape:collect="always">
      <stop
         id="stop15406"
         offset="0"
         style="stop-color:#515151;stop-opacity:1" />
      <stop
         id="stop15408"
         offset="1"
         style="stop-color:#292929;stop-opacity:1" />
    </linearGradient>
    <inkscape:perspective
       sodipodi:type="inkscape:persp3d"
       inkscape:vp_x="0 : 526.18109 : 1"
       inkscape:vp_y="0 : 1000 : 0"
       inkscape:vp_z="744.09448 : 526.18109 : 1"
       inkscape:persp3d-origin="372.04724 : 350.78739 : 1"
       id="perspective3207" />
    <inkscape:perspective
       id="perspective3187"
       inkscape:persp3d-origin="0.5 : 0.33333333 : 1"
       inkscape:vp_z="1 : 0.5 : 1"
       inkscape:vp_y="0 : 1000 : 0"
       inkscape:vp_x="0 : 0.5 : 1"
       sodipodi:type="inkscape:persp3d" />
    <inkscape:path-effect
       effect="spiro"
       id="path-effect5837-4-6"
       is_visible="true" />
    <inkscape:path-effect
       effect="spiro"
       id="path-effect14768"
       is_visible="true" />
    <inkscape:path-effect
       effect="spiro"
       id="path-effect5884-4-7"
       is_visible="true" />
    <linearGradient
       y2="-388.72955"
       x2="-93.031357"
       y1="-396.34738"
       x1="-93.031357"
       gradientTransform="matrix(1.6303698,0,0,0.87940739,-252.84938,68.630616)"
       gradientUnits="userSpaceOnUse"
       id="linearGradient14219"
       xlink:href="#linearGradient15404"
       inkscape:collect="always" />
    <linearGradient
       inkscape:collect="always"
       id="linearGradient10013-4-63-6">
      <stop
         style="stop-color:#333333;stop-opacity:1;"
         offset="0"
         id="stop10015-2-76-1" />
      <stop
         style="stop-color:#292929;stop-opacity:1"
         offset="1"
         id="stop10017-46-15-8" />
    </linearGradient>
    <linearGradient
       inkscape:collect="always"
       id="linearGradient10597-5">
      <stop
         style="stop-color:#16191a;stop-opacity:1;"
         offset="0"
         id="stop10599-2" />
      <stop
         style="stop-color:#2b3133;stop-opacity:1"
         offset="1"
         id="stop10601-5" />
    </linearGradient>
    <linearGradient
       y2="-322.16354"
       x2="921.22498"
       y1="-330.05121"
       x1="921.32812"
       gradientTransform="matrix(1.5918367,0,0,0.85714285,-1456.5464,275.45191)"
       gradientUnits="userSpaceOnUse"
       id="linearGradient15374"
       xlink:href="#linearGradient10013-4-63-6"
       inkscape:collect="always" />
    <linearGradient
       gradientTransform="translate(-1199.9852,216.38048)"
       y2="-227.07961"
       x2="1203.9177"
       y1="-217.56708"
       x1="1203.9177"
       gradientUnits="userSpaceOnUse"
       id="linearGradient15376"
       xlink:href="#linearGradient10597-5"
       inkscape:collect="always" />
    <linearGradient
       inkscape:collect="always"
       xlink:href="#linearGradient3771"
       id="linearGradient3777"
       x1="-17.5"
       y1="14.999999"
       x2="-17.5"
       y2="1.1428568"
       gradientUnits="userSpaceOnUse" />
    <linearGradient
       id="linearGradient3771">
      <stop
         style="stop-color:#b3b3b3;stop-opacity:1;"
         offset="0"
         id="stop3773" />
      <stop
         style="stop-color:#131313;stop-opacity:1;"
         offset="1"
         id="stop3775" />
    </linearGradient>
    <linearGradient
       y2="1.1428568"
       x2="-17.5"
       y1="14.999999"
       x1="-17.5"
       gradientUnits="userSpaceOnUse"
       id="linearGradient3035"
       xlink:href="#linearGradient3771"
       inkscape:collect="always" />
    <linearGradient
       inkscape:collect="always"
       xlink:href="#linearGradient3807-5"
       id="linearGradient3813-3"
       x1="-525.73718"
       y1="329.75"
       x2="-505.73718"
       y2="329.75"
       gradientUnits="userSpaceOnUse"
       gradientTransform="translate(-17.624997,22.75)" />
    <linearGradient
       id="linearGradient3807-5">
      <stop
         style="stop-color:#b3b3b3;stop-opacity:1;"
         offset="0"
         id="stop3809-2" />
      <stop
         style="stop-color:#131313;stop-opacity:1;"
         offset="1"
         id="stop3811-1" />
    </linearGradient>
    <linearGradient
       inkscape:collect="always"
       xlink:href="#linearGradient3849"
       id="linearGradient3855"
       x1="-528.36218"
       y1="331.5"
       x2="-510.36218"
       y2="331.5"
       gradientUnits="userSpaceOnUse"
       gradientTransform="translate(-13.999994,-18)" />
    <linearGradient
       inkscape:collect="always"
       xlink:href="#linearGradient3836"
       id="linearGradient3842"
       x1="-543.36218"
       y1="353.5"
       x2="-521.36218"
       y2="353.5"
       gradientUnits="userSpaceOnUse"
       gradientTransform="translate(2.6171875e-6,0)" />
  </defs>
  <sodipodi:namedview
     id="base"
     pagecolor="#dae4d9"
     bordercolor="#2d2d2d"
     borderopacity="1"
     inkscape:pageopacity="1"
     inkscape:pageshadow="2"
     inkscape:zoom="29.859609"
     inkscape:cx="9.1746524"
     inkscape:cy="9.9788991"
     inkscape:document-units="px"
     inkscape:current-layer="layer1"
     showgrid="true"
     inkscape:window-width="1024"
     inkscape:window-height="675"
     inkscape:window-x="0"
     inkscape:window-y="25"
     inkscape:window-maximized="1"
     borderlayer="true"
     inkscape:showpageshadow="false"
     inkscape:snap-nodes="false"
     inkscape:snap-bbox="true"
     showborder="true"
     showguides="false"
     fit-margin-top="0"
     fit-margin-left="0"
     fit-margin-right="0"
     fit-margin-bottom="0">
    <inkscape:grid
       type="xygrid"
       id="grid14843"
       empspacing="5"
       visible="true"
       enabled="true"
       snapvisiblegridlinesonly="true"
       originx="-1px"
       originy="-1px" />
  </sodipodi:namedview>
  <metadata
     id="metadata3204">
    <rdf:RDF>
      <cc:Work
         rdf:about="">
        <dc:format>image/svg+xml</dc:format>
        <dc:type
           rdf:resource="http://purl.org/dc/dcmitype/StillImage" />
        <dc:title></dc:title>
      </cc:Work>
    </rdf:RDF>
  </metadata>
  <g
     inkscape:label="Layer 1"
     inkscape:groupmode="layer"
     id="layer1"
     transform="translate(-343.5,-522.36218)">
    <path
       style="opacity:0.3;fill:#aaaaaa;fill-opacity:1;stroke:none"
       d="m 343.5,522.36218 0,20 20,0 0,-20 -20,0 z m 1,1 18,0 0,18 -18,0 0,-18 z"
       id="rect3026"
       inkscape:connector-curvature="0" />
    <path
       style="opacity:0.5;fill:#000000;fill-opacity:1;stroke:#000000;stroke-width:0.8246752;stroke-linejoin:round;stroke-miterlimit:4;stroke-opacity:1;stroke-dasharray:none"
       d="m 360.44513,525.02412 -9.67662,9.67643 -3.24935,-3.21356 -1.60682,1.60676 4.85617,4.85609 11.31915,-11.31894 -1.64253,-1.60678 z"
       id="rect3022-2"
       inkscape:connector-curvature="0" />
    <path
       style="fill:#4c94af;fill-opacity:1;stroke:#4c94af;stroke-width:0.82467496;stroke-linejoin:round;stroke-miterlimit:4;stroke-opacity:1;stroke-dasharray:none"
       d="m 360.44513,526.02412 -9.67662,9.67643 -3.24935,-3.21357 -1.60682,1.60678 4.85617,4.85608 11.31915,-11.31893 -1.64253,-1.60679 z"
       id="rect3022"
       inkscape:connector-curvature="0" />
    <path
       style="fill:#ee82ee"
       d="M 7.0231135,16.866557 C 6.9501932,16.820648 5.8016971,15.69134 4.4709,14.356983 l -2.419631,-2.426102 0,-0.194891 c 0,-0.19453 0.00167,-0.196557 0.897195,-1.092087 0.8573136,-0.8573136 0.9047884,-0.8971949 1.0680205,-0.8971949 0.1638244,0 0.2162588,0.044804 1.2793681,1.0931969 0.6096984,0.601258 1.3025231,1.282106 1.5396103,1.512995 L 7.2665302,12.772698 12.00707,8.0335285 c 4.363652,-4.3623911 4.752063,-4.7391697 4.885477,-4.7391697 0.07972,0 0.198639,0.028307 0.264276,0.062904 0.06564,0.034597 0.502171,0.4484218 0.970077,0.9196098 0.88919,0.8954274 0.914941,0.933827 0.787405,1.1741466 -0.03483,0.065637 -2.625498,2.6798393 -5.757033,5.8093396 -5.3843247,5.380824 -5.7020658,5.689991 -5.8476388,5.689834 -0.084665,-8.8e-5 -0.2135993,-0.03773 -0.2865197,-0.08364 z"
       id="path3029"
       inkscape:connector-curvature="0"
       transform="translate(343.5,522.36218)" />
    <path
       style="fill:#ee82ee"
       d="m 0.01833699,10.011873 0,-9.98788312 9.98788301,0 9.987884,0 0,9.98788312 0,9.987883 -9.987884,0 -9.98788301,0 0,-9.987883 z m 19.00349501,0 0,-9.01561129 -9.015612,0 -9.01561118,0 0,9.01561129 0,9.015612 9.01561118,0 9.015612,0 0,-9.015612 z"
       id="path3028"
       inkscape:connector-curvature="0"
       transform="translate(343.5,522.36218)" />
    <path
       style="fill:#ee82ee;opacity:0.49342105"
       d="M 6.881777,16.689374 C 6.7407508,16.57014 5.5946612,15.439927 4.334911,14.17779 L 2.0444559,11.882996 2.0753571,11.709784 C 2.1022287,11.55916 2.2196786,11.422751 2.9760145,10.663737 3.7985284,9.838312 3.8547988,9.7909023 4.0119829,9.7909023 c 0.182066,0 0.3195729,0.1250284 2.4036322,2.1855107 l 0.8509093,0.841283 4.4523916,-4.4441588 c 2.448816,-2.4442873 4.596948,-4.5770945 4.773627,-4.7395715 0.357636,-0.3288855 0.480836,-0.3641059 0.700319,-0.2002066 0.19732,0.1473489 1.375237,1.3152607 1.568316,1.5549953 0.09776,0.1213806 0.172265,0.2619146 0.172265,0.3249255 0,0.08841 -1.037839,1.1512823 -5.093378,5.2162321 -2.801358,2.807859 -5.3968884,5.391185 -5.767845,5.740725 -0.7958235,0.749878 -0.7979134,0.750613 -1.190443,0.418737 l 0,0 z"
       id="path3032"
       inkscape:connector-curvature="0"
       transform="translate(343.5,522.36218)" />
    <path
       style="opacity:0.49342107;fill:#ee82ee"
       d="M 5.7822255,11.262101 C 4.9643346,10.452845 4.2622332,9.7732367 4.2220001,9.7518596 4.1294258,9.7026721 3.9278535,9.701729 3.8324611,9.7500378 3.7922281,9.7704124 3.4391066,10.105555 3.0477467,10.494799 L 2.3361832,11.202515 2.1975217,11.063854 C 2.0795165,10.945849 2.0563969,10.899556 2.0423242,10.753099 L 2.0257882,10.581005 2.9244019,9.6783918 c 0.9401526,-0.9443369 0.9840217,-0.9778936 1.205677,-0.9222616 0.052778,0.013246 0.6735425,0.5994131 1.591042,1.5023658 0.8274743,0.814355 1.5214181,1.486291 1.5420976,1.493193 0.020679,0.0069 2.1655374,-2.1153513 4.7663505,-4.7161165 4.523732,-4.5236468 4.734787,-4.7294729 4.867944,-4.7473329 0.101751,-0.013648 0.164154,-0.00241 0.231996,0.041796 0.05104,0.033256 0.473801,0.4306072 0.939464,0.8830022 0.876939,0.8519524 0.951006,0.9463631 0.900453,1.147782 -0.02317,0.092305 -0.245198,0.3621539 -0.297979,0.3621539 -0.01977,0 -0.346384,-0.3066249 -0.725799,-0.6813888 C 17.566234,3.6668214 17.218541,3.3352698 17.172999,3.3048039 17.078207,3.2413925 16.867277,3.2319826 16.759623,3.2863627 16.71939,3.306686 14.567609,5.4406003 11.977886,8.0283946 L 7.2692999,12.733475 5.7822255,11.262101 z"
       id="path3808"
       inkscape:connector-curvature="0"
       transform="translate(343.5,522.36218)" />
  </g>
</svg>
