<?xml version="1.0" encoding="UTF-8" standalone="no"?>
<!-- Created with Inkscape (http://www.inkscape.org/) -->

<svg
   xmlns:dc="http://purl.org/dc/elements/1.1/"
   xmlns:cc="http://creativecommons.org/ns#"
   xmlns:rdf="http://www.w3.org/1999/02/22-rdf-syntax-ns#"
   xmlns:svg="http://www.w3.org/2000/svg"
   xmlns="http://www.w3.org/2000/svg"
   xmlns:sodipodi="http://sodipodi.sourceforge.net/DTD/sodipodi-0.dtd"
   xmlns:inkscape="http://www.inkscape.org/namespaces/inkscape"
   id="svg7384"
   height="16"
   width="16"
   version="1.1"
   inkscape:version="0.48.3.1 r9886"
   sodipodi:docname="player-paused.svg">
  <defs
     id="defs25" />
  <sodipodi:namedview
     pagecolor="#ffffff"
     bordercolor="#666666"
     borderopacity="1"
     objecttolerance="10"
     gridtolerance="10"
     guidetolerance="10"
     inkscape:pageopacity="0"
     inkscape:pageshadow="2"
     inkscape:window-width="1022"
     inkscape:window-height="713"
     id="namedview23"
     showgrid="false"
     inkscape:zoom="14.75"
     inkscape:cx="8"
     inkscape:cy="8"
     inkscape:window-x="0"
     inkscape:window-y="0"
     inkscape:window-maximized="1"
     inkscape:current-layer="svg7384" />
  <title
     id="title9167">Gnome Symbolic Icon Theme</title>
  <metadata
     id="metadata90">
    <rdf:RDF>
      <cc:Work
         rdf:about="">
        <dc:format>image/svg+xml</dc:format>
        <dc:type
           rdf:resource="http://purl.org/dc/dcmitype/StillImage" />
        <dc:title>Gnome Symbolic Icon Theme</dc:title>
      </cc:Work>
    </rdf:RDF>
  </metadata>
  <g
     id="g3063"
     transform="translate(1.1621)">
    <rect
       id="rect3818"
       style="fill:#bebebe"
       rx=".53250"
       ry=".53250"
       height="12"
       width="2"
       y="1"
       x="5" />
    <rect
       id="rect3820"
       style="fill:#bebebe"
       transform="rotate(-90)"
       rx=".49537"
       ry=".49537"
       height="4.6952"
       width="2"
       y="5"
       x="-3" />
    <path
       id="path3822"
       d="m6.4953 12.5a2.9953 2.9953 0 0 1 -5.9905 0 2.9953 2.9953 0 1 1 5.9905 0z"
       style="stroke-linejoin:round;stroke:#bebebe;stroke-width:1.0095;fill:#bebebe" />
  </g>
  <g
     id="layer1"
     style="display:none">
    <g
       id="g3106"
       style="fill:#ef2929"
       transform="matrix(.55313 0 0 .55313 7.4609 8.619)">
      <g
         id="layer12-9"
         style="fill:#ef2929"
         transform="translate(-140 -606)">
        <path
           id="path3807-1-1-5-8"
           d="m144 610v8h8v-8h-8z"
           style="color:#bebebe;text-indent:0pt;text-transform:none;display:inline;fill:#ef2929" />
      </g>
    </g>
  </g>
  <g
     id="layer2"
     style="display:none">
    <g
       id="g3082"
       style="fill:#8ae234"
       transform="matrix(.47956 0 0 .47956 7.7552 9.0223)">
      <g
         id="layer12-6"
         style="fill:#8ae234"
         transform="translate(-80 -606)">
        <path
           id="path3807-1-1-9-38-4"
           d="m84 609v10h0.90625 0.094c0.17491 0.001 0.34778-0.0388 0.5-0.125l7-4c0.3107-0.17189 0.46875-0.52345 0.46875-0.875s-0.15805-0.70311-0.46875-0.875l-7-4c-0.152-0.09-0.325-0.13-0.5-0.13h-0.09375z"
           style="block-progression:tb;text-indent:0;color:#000000;text-transform:none;display:inline;fill:#8ae234" />
      </g>
    </g>
  </g>
  <g
     id="layer3">
    <g
       id="g3051"
       style="fill:#fcaf3e"
       transform="matrix(.53384 0 0 .53384 7.5381 8.8504)">
      <g
         id="layer12-0"
         style="fill:#fcaf3e"
         transform="translate(-160 -496)">
        <g
           id="g3221"
           style="fill:#fcaf3e"
           transform="translate(40 9)">
          <path
             id="path3807-1-1-5-8-6"
             style="color:#bebebe;text-indent:0pt;text-transform:none;fill:#fcaf3e"
             d="m124 491v8h3v-8h-3z" />
          <path
             id="path3807-1-1-5-8-6-3"
             style="color:#bebebe;text-indent:0pt;text-transform:none;fill:#fcaf3e"
             d="m129 491v8h3v-8h-3z" />
        </g>
      </g>
    </g>
  </g>
  <path
     style="fill:#ee82ee"
     d="M 4.2101695,15.904512 C 2.7593228,15.684555 1.477108,14.406837 1.2512249,12.955944 1.0945123,11.949348 1.462568,10.887112 2.2356678,10.114771 3.3508299,9.0007037 4.5983573,8.7574759 6.0915254,9.3630034 6.2037355,9.4085078 6.2101695,9.190699 6.2101695,5.3465746 c 0,-4.0307624 0.00117,-4.0656032 0.1410399,-4.1921817 0.1574596,-0.142499 0.1707759,-0.1430551 2.7233669,-0.1137149 1.8283227,0.021015 1.7457627,-0.024115 1.7457627,0.9542838 0,0.6086579 -0.01354,0.6788701 -0.156912,0.8135593 -0.148894,0.1398788 -0.218179,0.1474111 -1.3559321,0.1474111 l -1.1990203,0 0,4.9688068 c 0,5.416367 0.00292,5.37063 -0.3909025,6.110864 C 7.4748973,14.49173 6.667681,15.301225 6.2440678,15.513266 5.5398197,15.86578 4.841168,16.000174 4.2101695,15.904512 z"
     id="path3002"
     inkscape:connector-curvature="0" />
</svg>
