<?xml version="1.0" encoding="UTF-8" standalone="no"?>
<!-- Created with Inkscape (http://www.inkscape.org/) -->

<svg
   xmlns:dc="http://purl.org/dc/elements/1.1/"
   xmlns:cc="http://creativecommons.org/ns#"
   xmlns:rdf="http://www.w3.org/1999/02/22-rdf-syntax-ns#"
   xmlns:svg="http://www.w3.org/2000/svg"
   xmlns="http://www.w3.org/2000/svg"
   xmlns:xlink="http://www.w3.org/1999/xlink"
   xmlns:sodipodi="http://sodipodi.sourceforge.net/DTD/sodipodi-0.dtd"
   xmlns:inkscape="http://www.inkscape.org/namespaces/inkscape"
   id="svg3273"
   height="22"
   width="64"
   version="1.1"
   inkscape:version="0.48.3.1 r9886"
   sodipodi:docname="toggle-on-us.svg">
  <sodipodi:namedview
     pagecolor="#ffffff"
     bordercolor="#666666"
     borderopacity="1"
     objecttolerance="10"
     gridtolerance="10"
     guidetolerance="10"
     inkscape:pageopacity="0"
     inkscape:pageshadow="2"
     inkscape:window-width="1024"
     inkscape:window-height="716"
     id="namedview53"
     showgrid="false"
     inkscape:zoom="1"
     inkscape:cx="32"
     inkscape:cy="11"
     inkscape:window-x="0"
     inkscape:window-y="1"
     inkscape:window-maximized="1"
     inkscape:current-layer="svg3273" />
  <defs
     id="defs3275">
    <radialGradient
       id="radialGradient4013-9-2"
       xlink:href="#linearGradient3988-5-7"
       gradientUnits="userSpaceOnUse"
       cy="11"
       cx="42.5"
       gradientTransform="matrix(11,0,0,10,-417,-99)" />
    <linearGradient
       id="linearGradient3988-5-7">
      <stop
         id="stop3990-8-2"
         offset="0" />
      <stop
         id="stop3997-5-7"
         style="stop-opacity:.70588"
         offset="0.6" />
      <stop
         id="stop3993-8-6"
         style="stop-opacity:0"
         offset="1" />
    </linearGradient>
    <radialGradient
       id="radialGradient4011-7-2"
       xlink:href="#linearGradient3976-2-0"
       gradientUnits="userSpaceOnUse"
       cy="11"
       cx="42.5"
       gradientTransform="matrix(11,0,0,10,-416,-99)" />
    <linearGradient
       id="linearGradient3976-2-0">
      <stop
         id="stop3978-8-5"
         style="stop-color:#fff"
         offset="0" />
      <stop
         id="stop3995-9-0"
         style="stop-color:#fff;stop-opacity:.70588"
         offset="0.6" />
      <stop
         id="stop3980-6-1"
         style="stop-color:#fff;stop-opacity:0"
         offset="1" />
    </linearGradient>
    <radialGradient
       id="radialGradient4005-9-8"
       xlink:href="#linearGradient3988-5-7"
       gradientUnits="userSpaceOnUse"
       cy="11"
       cx="42.5"
       gradientTransform="matrix(11,0,0,10,-421,-99)" />
    <radialGradient
       id="radialGradient4003-1-6"
       xlink:href="#linearGradient3976-2-0"
       gradientUnits="userSpaceOnUse"
       cy="11"
       cx="42.5"
       gradientTransform="matrix(11,0,0,10,-420,-99)" />
    <radialGradient
       id="radialGradient3986-1-3"
       xlink:href="#linearGradient3988-5-7"
       gradientUnits="userSpaceOnUse"
       cy="11"
       cx="42.5"
       gradientTransform="matrix(11,0,0,10,-425,-99)" />
    <radialGradient
       id="radialGradient4077-8-1"
       gradientUnits="userSpaceOnUse"
       xlink:href="#linearGradient3976-2-0"
       cx="42.5"
       cy="11"
       gradientTransform="matrix(11,0,0,10,-424,-99)" />
    <linearGradient
       id="linearGradient3077-4-9-4"
       y2="28"
       gradientUnits="userSpaceOnUse"
       y1="1"
       gradientTransform="translate(-2,-1)"
       x2="41"
       x1="41">
      <stop
         id="stop3992-5-7-1"
         style="stop-color:#fff"
         offset="0" />
      <stop
         id="stop3994-0-8-2"
         style="stop-color:#fff;stop-opacity:0"
         offset="1" />
    </linearGradient>
    <linearGradient
       id="linearGradient3228-0"
       y2="2"
       gradientUnits="userSpaceOnUse"
       y1="21"
       gradientTransform="translate(-2,-1)"
       x2="48"
       x1="48">
      <stop
         id="stop3940-9-2"
         style="stop-color:#a0a0a0"
         offset="0" />
      <stop
         id="stop3942-9-2"
         style="stop-color:#dcdcdc"
         offset="1" />
    </linearGradient>
    <linearGradient
       id="linearGradient4621"
       y2=".49999"
       gradientUnits="userSpaceOnUse"
       x2="40.812"
       gradientTransform="matrix(-1 0 0 -1 64.5 20.5)"
       y1="18.5"
       x1="40.812">
      <stop
         id="stop3923-6-1"
         style="stop-color:#333"
         offset="0" />
      <stop
         id="stop3925-4-6"
         style="stop-color:#555"
         offset="1" />
    </linearGradient>
    <filter
       id="filter4125"
       height="1.3257"
       width="1.19"
       y="-.16284"
       x="-.095004">
      <feGaussianBlur
         id="feGaussianBlur4127"
         stdDeviation="0.55455469" />
    </filter>
  </defs>
  <metadata
     id="metadata3278">
    <rdf:RDF>
      <cc:Work
         rdf:about="">
        <dc:format>image/svg+xml</dc:format>
        <dc:type
           rdf:resource="http://purl.org/dc/dcmitype/StillImage" />
        <dc:title />
      </cc:Work>
    </rdf:RDF>
  </metadata>
  <g
     id="layer1">
    <path
       id="path4619"
       style="color:#000000;fill:url(#linearGradient4621)"
       d="m5 3c-1.1224 0-2 0.8776-2 2v12c0 1.1224 0.8776 2 2 2h54c1.1224 0 2-0.8776 2-2v-12c0-1.1224-0.878-2-2-2h-54z" />
    <path
       id="rect4052"
       style="opacity:.08;color:#000000"
       d="m5 2c-1.662 0-3 1.338-3 3v12c0 1.662 1.338 3 3 3h54c1.662 0 3-1.338 3-3v-12c0-1.662-1.338-3-3-3zm0 3h54v12h-54z" />
    <path
       id="rect4042"
       style="opacity:.12;color:#000000"
       d="m5 2c-1.662 0-3 1.338-3 3v12c0 1.662 1.338 3 3 3h54c1.662 0 3-1.338 3-3v-12c0-1.662-1.338-3-3-3zm0 2h54c0.5825 0 1 0.4175 1 1v12c0 0.5825-0.4175 1-1 1h-54c-0.5825 0-1-0.418-1-1v-12c0-0.5825 0.4175-1 1-1z" />
    <path
       id="rect4038"
       style="opacity:.2;color:#000000;fill:#fff"
       d="m5 2c-1.662 0-3 1.338-3 3v12c0 1.662 1.338 3 3 3h54c1.662 0 3-1.338 3-3v-12c0-1.662-1.338-3-3-3zm0 1h54c1.1174 0 2 0.88261 2 2v12c0 1.1174-0.88261 2-2 2h-54c-1.1174 0-2-0.883-2-2v-12c0-1.1174 0.8826-2 2-2z" />
    <g
       id="g3351"
       style="opacity:.5;filter:url(#filter4125)"
       transform="translate(0.875 1.1169)">
      <path
         id="path3353"
         d="m12.055 14.753c-0.594-0.000001-1.1073-0.10267-1.54-0.308-0.43267-0.20533-0.78834-0.48767-1.067-0.847-0.27867-0.36667-0.48767-0.79566-0.627-1.287-0.132-0.49866-0.198-1.0413-0.198-1.628-6e-7 -0.58666 0.065999-1.1293 0.198-1.628 0.13933-0.50599 0.34833-0.94233 0.627-1.309 0.27866-0.36666 0.63433-0.65266 1.067-0.858 0.43266-0.20533 0.946-0.30799 1.54-0.308 0.594 0.0000081 1.1073 0.10267 1.54 0.308 0.43266 0.20534 0.78833 0.49134 1.067 0.858 0.27866 0.36667 0.48399 0.80301 0.616 1.309 0.13933 0.49867 0.20899 1.0413 0.209 1.628-0.000008 0.58667-0.06967 1.1293-0.209 1.628-0.13201 0.49134-0.33734 0.92033-0.616 1.287-0.27867 0.35933-0.63434 0.64167-1.067 0.847-0.43267 0.20533-0.946 0.308-1.54 0.308m0-1.342c1.1367 0.000001 1.705-0.90933 1.705-2.728-0.000006-0.90933-0.13934-1.5913-0.418-2.046-0.27134-0.45466-0.69667-0.68199-1.276-0.682-1.1513 0.0000067-1.727 0.90934-1.727 2.728-0.000002 1.8187 0.572 2.728 1.716 2.728" />
      <path
         id="path3355"
         d="m16.824 6.7121c0.22733-0.043992 0.44367-0.065992 0.649-0.066 0.22 0.000008 0.44733 0.022008 0.682 0.066l3.058 5.038v-5.038c0.264-0.043992 0.517-0.065992 0.759-0.066 0.22733 0.000008 0.44733 0.022008 0.66 0.066v7.909c-0.23467 0.044-0.44734 0.066-0.638 0.066-0.20534-0.000001-0.429-0.022-0.671-0.066l-3.08-5.027v5.027c-0.23467 0.044-0.473 0.066-0.715 0.066-0.242-0.000001-0.47667-0.022-0.704-0.066v-7.909" />
    </g>
    <g
       id="text4327-4"
       style="fill:#fff;fill-opacity:.98413"
       transform="translate(0.875 .31688)">
      <path
         id="path5129"
         style="fill:#fff;fill-opacity:.98413"
         d="m12.055 14.753c-0.594-0.000001-1.1073-0.10267-1.54-0.308-0.43267-0.20533-0.78834-0.48767-1.067-0.847-0.27867-0.36667-0.48767-0.79566-0.627-1.287-0.132-0.49866-0.198-1.0413-0.198-1.628-6e-7 -0.58666 0.065999-1.1293 0.198-1.628 0.13933-0.50599 0.34833-0.94233 0.627-1.309 0.27866-0.36666 0.63433-0.65266 1.067-0.858 0.43266-0.20533 0.946-0.30799 1.54-0.308 0.594 0.0000081 1.1073 0.10267 1.54 0.308 0.43266 0.20534 0.78833 0.49134 1.067 0.858 0.27866 0.36667 0.48399 0.80301 0.616 1.309 0.13933 0.49867 0.20899 1.0413 0.209 1.628-0.000008 0.58667-0.06967 1.1293-0.209 1.628-0.13201 0.49134-0.33734 0.92033-0.616 1.287-0.27867 0.35933-0.63434 0.64167-1.067 0.847-0.43267 0.20533-0.946 0.308-1.54 0.308m0-1.342c1.1367 0.000001 1.705-0.90933 1.705-2.728-0.000006-0.90933-0.13934-1.5913-0.418-2.046-0.27134-0.45466-0.69667-0.68199-1.276-0.682-1.1513 0.0000067-1.727 0.90934-1.727 2.728-0.000002 1.8187 0.572 2.728 1.716 2.728" />
      <path
         id="path5131"
         style="fill:#fff;fill-opacity:.98413"
         d="m16.824 6.7121c0.22733-0.043992 0.44367-0.065992 0.649-0.066 0.22 0.000008 0.44733 0.022008 0.682 0.066l3.058 5.038v-5.038c0.264-0.043992 0.517-0.065992 0.759-0.066 0.22733 0.000008 0.44733 0.022008 0.66 0.066v7.909c-0.23467 0.044-0.44734 0.066-0.638 0.066-0.20534-0.000001-0.429-0.022-0.671-0.066l-3.08-5.027v5.027c-0.23467 0.044-0.473 0.066-0.715 0.066-0.242-0.000001-0.47667-0.022-0.704-0.066v-7.909" />
    </g>
  </g>
  <g
     id="layer2">
    <path
       id="path4541"
       style="opacity:.05;color:#000000"
       d="m5-0.9375c-3.2559 0-5.9375 2.6816-5.9375 5.9375v12c0 3.2559 2.6816 5.9375 5.9375 5.9375h24c3.2559 0 5.9375-2.6816 5.9375-5.9375v-12c0-3.2559-2.6816-5.9375-5.9375-5.9375h-24z"
       transform="translate(30)" />
    <path
       id="path4537"
       style="opacity:.1;color:#000000"
       d="m5 0c-2.7357 0-5 2.2643-5 5v12c0 2.7357 2.2643 5 5 5h24c2.7357 0 5-2.2643 5-5v-12c0-2.7357-2.264-5-5-5h-24z"
       transform="translate(30)" />
    <path
       id="path4531"
       style="opacity:.2;color:#000000"
       d="m5 1.0312c-2.1742 0-3.9688 1.7946-3.9688 3.9688v12c0 2.1742 1.7946 3.9688 3.9688 3.9688h24c2.1742 0 3.9688-1.7946 3.9688-3.9688v-12c0-2.1742-1.795-3.9688-3.969-3.9688h-24z"
       transform="translate(30)" />
    <rect
       id="rect3936"
       style="color:#000000;fill:url(#linearGradient3228-0)"
       rx="3"
       ry="3"
       height="18"
       width="30"
       y="2"
       x="32" />
    <path
       id="rect4059"
       style="opacity:.6;color:#000000;fill:url(#linearGradient3077-4-9-4)"
       d="m35 2c-1.662 0-3 1.338-3 3v12c0 1.662 1.338 3 3 3h24c1.662 0 3-1.338 3-3v-12c0-1.662-1.338-3-3-3zm0 1h24c1.1256 0 2 0.87439 2 2v12c0 1.1256-0.87439 2-2 2h-24c-1.1256 0-2-0.87439-2-2v-12c0-1.1256 0.87439-2 2-2z" />
    <rect
       id="rect3206"
       style="opacity:.4;color:#000000;fill:url(#radialGradient4077-8-1)"
       height="10"
       width="1"
       y="6"
       x="43" />
    <rect
       id="rect3984"
       style="opacity:.2;color:#000000;fill:url(#radialGradient3986-1-3)"
       height="10"
       width="1"
       y="6"
       x="42" />
    <rect
       id="rect3999"
       style="opacity:.4;color:#000000;fill:url(#radialGradient4003-1-6)"
       height="10"
       width="1"
       y="6"
       x="47" />
    <rect
       id="rect4001"
       style="opacity:.2;color:#000000;fill:url(#radialGradient4005-9-8)"
       height="10"
       width="1"
       y="6"
       x="46" />
    <rect
       id="rect4007"
       style="opacity:.4;color:#000000;fill:url(#radialGradient4011-7-2)"
       height="10"
       width="1"
       y="6"
       x="51" />
    <rect
       id="rect4009"
       style="opacity:.2;color:#000000;fill:url(#radialGradient4013-9-2)"
       height="10"
       width="1"
       y="6"
       x="50" />
  </g>
  <path
     style="fill:#ee82ee"
     d="m 17.74772,10.999646 0,-3.9496352 0.302558,-0.021891 c 0.166407,-0.01204 0.447134,-0.011302 0.623838,0.00164 l 0.32128,0.02353 1.529666,2.5223372 1.529665,2.5223369 0.01869,-2.5215328 0.01869,-2.5215331 0.372856,-0.024335 c 0.205071,-0.013384 0.509008,-0.014484 0.675415,-0.00244 l 0.302559,0.021891 0,3.9469632 0,3.946964 -0.551725,-0.0011 c -0.303448,-5.69e-4 -0.58675,-0.02463 -0.629561,-0.05339 -0.04281,-0.02877 -0.763611,-1.172752 -1.60178,-2.542189 l -1.523942,-2.4898875 -0.0356,2.5254815 -0.0356,2.525482 -0.65851,0.02047 -0.658509,0.02047 0,-3.949635 z"
     id="path3030"
     inkscape:connector-curvature="0" />
  <path
     style="fill:#ee82ee"
     d="M 12.4375 6.96875 C 12.253534 6.9819863 12.096915 6.9971637 11.96875 7.03125 C 11.139562 7.2517781 10.390588 7.8966726 10.03125 8.65625 C 9.6798208 9.3991102 9.590871 9.8304288 9.59375 11.0625 C 9.5962125 12.116355 9.6011026 12.233748 9.78125 12.75 C 10.189229 13.919153 10.908478 14.629211 11.9375 14.90625 C 12.421235 15.036486 13.406164 15.031082 13.875 14.90625 C 14.723345 14.680369 15.484462 14.096328 15.84375 13.34375 C 16.590264 11.78007 16.418136 9.3757517 15.5 8.125 C 15.189765 7.7023754 14.661275 7.3194714 14.09375 7.125 C 13.72558 6.9988407 12.989399 6.929041 12.4375 6.96875 z M 12.875 8.25 C 13.170777 8.2370173 13.46015 8.2854842 13.6875 8.40625 C 14.330325 8.747712 14.65625 9.609782 14.65625 11 C 14.65625 12.385497 14.322555 13.228983 13.6875 13.5625 C 13.072874 13.885288 12.165297 13.743553 11.75 13.25 C 11.395075 12.828196 11.2548 12.298538 11.21875 11.28125 C 11.165576 9.7808538 11.424477 8.8909739 12.0625 8.46875 C 12.274104 8.328717 12.579223 8.2629827 12.875 8.25 z "
     id="path3032" />
</svg>
