<?xml version="1.0" encoding="UTF-8" standalone="no"?>
<!-- Created with Inkscape (http://www.inkscape.org/) -->

<svg
   xmlns:dc="http://purl.org/dc/elements/1.1/"
   xmlns:cc="http://creativecommons.org/ns#"
   xmlns:rdf="http://www.w3.org/1999/02/22-rdf-syntax-ns#"
   xmlns:svg="http://www.w3.org/2000/svg"
   xmlns="http://www.w3.org/2000/svg"
   xmlns:sodipodi="http://sodipodi.sourceforge.net/DTD/sodipodi-0.dtd"
   xmlns:inkscape="http://www.inkscape.org/namespaces/inkscape"
   id="svg25070"
   height="96"
   width="96"
   version="1.1"
   inkscape:version="0.48.3.1 r9886"
   sodipodi:docname="ws-switch-arrow-up.svg">
  <defs
     id="defs16" />
  <sodipodi:namedview
     pagecolor="#ffffff"
     bordercolor="#666666"
     borderopacity="1"
     objecttolerance="10"
     gridtolerance="10"
     guidetolerance="10"
     inkscape:pageopacity="0"
     inkscape:pageshadow="2"
     inkscape:window-width="1024"
     inkscape:window-height="716"
     id="namedview14"
     showgrid="false"
     inkscape:zoom="2.4583333"
     inkscape:cx="48"
     inkscape:cy="48"
     inkscape:window-x="0"
     inkscape:window-y="1"
     inkscape:window-maximized="1"
     inkscape:current-layer="svg25070" />
  <metadata
     id="metadata25075">
    <rdf:RDF>
      <cc:Work
         rdf:about="">
        <dc:format>image/svg+xml</dc:format>
        <dc:type
           rdf:resource="http://purl.org/dc/dcmitype/StillImage" />
        <dc:title />
      </cc:Work>
    </rdf:RDF>
  </metadata>
  <g
     id="layer1"
     transform="translate(0 48)">
    <g
       id="g3181"
       transform="matrix(0 1 -1 0 48 -48)">
      <g
         id="g4030-1-8"
         style="stroke:#000"
         transform="matrix(2 0 0 2 193.25 -374.97)">
        <path
           id="path3165-7-3"
           style="color:#000000;stroke:#000;stroke-linecap:round;stroke-width:7;fill:none"
           d="m-72.5 173.5-14 14 14 14" />
      </g>
      <path
         id="path4050-2-7-9-4"
         style="color:#000000"
         d="m-36.5 186.41c0 1.1564-0.9374 2.0938-2.0938 2.0938-1.1563 0-2.0938-0.9374-2.0938-2.0938s0.9374-2.0938 2.0938-2.0938c1.1563 0 2.0938 0.9374 2.0938 2.0938z"
         transform="matrix(3.3433 0 0 3.3433 185.28 -623.18)" />
      <path
         id="path4050-2-7-9-4-8"
         style="color:#000000"
         d="m-36.5 186.41c0 1.1564-0.9374 2.0938-2.0938 2.0938-1.1563 0-2.0938-0.9374-2.0938-2.0938s0.9374-2.0938 2.0938-2.0938c1.1563 0 2.0938 0.9374 2.0938 2.0938z"
         transform="matrix(3.3433 0 0 3.3433 207.28 -623.18)" />
      <path
         id="path4050-2-7-9-4-0"
         style="color:#000000;stroke:#000;stroke-linecap:round;stroke-width:.69792;fill:none"
         d="m-36.5 186.41c0 1.1564-0.9374 2.0938-2.0938 2.0938-1.1563 0-2.0938-0.9374-2.0938-2.0938s0.9374-2.0938 2.0938-2.0938c1.1563 0 2.0938 0.9374 2.0938 2.0938z"
         transform="matrix(2.8656 0 0 2.8656 166.85 -534.14)" />
      <path
         id="path4050-2-7-9-4-0-9"
         style="color:#000000;stroke:#000;stroke-linecap:round;stroke-width:.69792;fill:none"
         d="m-36.5 186.41c0 1.1564-0.9374 2.0938-2.0938 2.0938-1.1563 0-2.0938-0.9374-2.0938-2.0938s0.9374-2.0938 2.0938-2.0938c1.1563 0 2.0938 0.9374 2.0938 2.0938z"
         transform="matrix(2.8656 0 0 2.8656 188.85 -534.14)" />
      <path
         id="path3165-7-3-1"
         style="opacity:.35;color:#000000;text-indent:0pt;stroke:#000;text-transform:none;fill:none"
         d="m317.06 365.97c-0.76948 0.0224-1.5256 0.35464-2.0625 0.90625l-16.125 16.125 16.125 16.125c1.1126 1.1126 3.1374 1.1126 4.25 0s1.1126-3.1374 0-4.25l-11.875-11.875 11.875-11.875c0.86584-0.83655 1.1475-2.2211 0.6773-3.3295-0.47021-1.1083-1.6616-1.868-2.8648-1.8268z"
         transform="matrix(2 0 0 2 -586 -765.97)" />
      <path
         id="path3165-7-3-1-9"
         style="color:#000000;text-indent:0pt;stroke:#000;stroke-linecap:round;text-transform:none;fill:none"
         d="m320.08 397.03c0.007-0.79449-0.27079-1.592-0.83434-2.1556l-11.87-11.87m12.552-15.204c-0.47021-1.1083-1.6616-1.868-2.8648-1.8268-0.76948 0.0224-1.5256 0.35464-2.0625 0.90625l-16.12 16.12"
         transform="matrix(2 0 0 2 -586 -765.97)" />
    </g>
  </g>
  <path
     style="fill:#ee82ee"
     d="m 18.188572,54.706995 c -3.967867,-1.269588 -6.004436,-5.8469 -4.134335,-9.292163 0.391526,-0.721302 8.211759,-8.822819 17.378297,-18.00337 L 48.098965,10.719551 64.894133,27.508928 c 18.565334,18.558935 18.607558,18.61209 17.654103,22.224027 -0.947313,3.588675 -4.175211,5.638702 -7.985524,5.071578 C 73.081123,54.584014 71.82517,53.458092 60.520251,42.215882 L 48.104906,29.869408 36.520249,41.475384 C 30.148689,47.85867 24.377988,53.43094 23.69647,53.858209 c -1.471341,0.922434 -4.040409,1.318336 -5.507898,0.848786 z"
     id="path2993"
     inkscape:connector-curvature="0" />
  <path
     style="fill:#ee82ee"
     d="m 45.242604,84.408272 c -5.521758,-2.507857 -5.322066,-10.177846 0.3238,-12.436874 2.412886,-0.965446 4.655612,-0.555836 6.743961,1.231713 0.90816,0.777351 1.867868,2.069876 2.132684,2.872277 1.050649,3.183497 -0.651748,6.881339 -3.833115,8.326056 -2.104952,0.955898 -3.274408,0.957386 -5.36733,0.0068 l 0,2e-6 z"
     id="path2995"
     inkscape:connector-curvature="0" />
  <path
     style="fill:#ee82ee"
     d="m 45.681356,62.615847 c -2.043785,-0.739267 -3.694077,-2.547204 -4.266897,-4.674492 -1.342781,-4.986708 3.766226,-9.793504 8.684137,-8.170447 1.840554,0.607437 4.208192,3.235026 4.548232,5.047598 0.969755,5.169235 -4.082795,9.563477 -8.965472,7.797341 z"
     id="path2997"
     inkscape:connector-curvature="0" />
</svg>
