<?xml version="1.0" encoding="UTF-8" standalone="no"?>
<!-- Created with Inkscape (http://www.inkscape.org/) -->

<svg
   xmlns:dc="http://purl.org/dc/elements/1.1/"
   xmlns:cc="http://creativecommons.org/ns#"
   xmlns:rdf="http://www.w3.org/1999/02/22-rdf-syntax-ns#"
   xmlns:svg="http://www.w3.org/2000/svg"
   xmlns="http://www.w3.org/2000/svg"
   xmlns:sodipodi="http://sodipodi.sourceforge.net/DTD/sodipodi-0.dtd"
   xmlns:inkscape="http://www.inkscape.org/namespaces/inkscape"
   id="svg25070"
   height="96"
   width="96"
   version="1.1"
   inkscape:version="0.48.3.1 r9886"
   sodipodi:docname="ws-switch-arrow-down.svg">
  <defs
     id="defs15" />
  <sodipodi:namedview
     pagecolor="#ffffff"
     bordercolor="#666666"
     borderopacity="1"
     objecttolerance="10"
     gridtolerance="10"
     guidetolerance="10"
     inkscape:pageopacity="0"
     inkscape:pageshadow="2"
     inkscape:window-width="1024"
     inkscape:window-height="716"
     id="namedview13"
     showgrid="false"
     inkscape:zoom="2.4583333"
     inkscape:cx="48"
     inkscape:cy="48"
     inkscape:window-x="0"
     inkscape:window-y="1"
     inkscape:window-maximized="1"
     inkscape:current-layer="svg25070" />
  <metadata
     id="metadata3353">
    <rdf:RDF>
      <cc:Work
         rdf:about="">
        <dc:format>image/svg+xml</dc:format>
        <dc:type
           rdf:resource="http://purl.org/dc/dcmitype/StillImage" />
      </cc:Work>
    </rdf:RDF>
  </metadata>
  <g
     id="layer1"
     transform="matrix(0 1 -1 0 48 4.1307e-7)">
    <g
       id="g4030-1-8"
       style="stroke:#000"
       transform="matrix(-2 0 0 2 -97.25 -374.97)">
      <path
         id="path3165-7-3"
         style="color:#000000;stroke:#000;stroke-linecap:round;stroke-width:7;fill:none"
         d="m-72.5 173.5-14 14 14 14" />
    </g>
    <path
       id="path4050-2-7-9-4"
       style="color:#000000"
       d="m-36.5 186.41a2.0938 2.0938 0 1 1 -4.1875 0 2.0938 2.0938 0 1 1 4.1875 0z"
       transform="matrix(-3.3433 0 0 3.3433 -89.28 -623.18)" />
    <path
       id="path4050-2-7-9-4-8"
       style="color:#000000"
       d="m-36.5 186.41a2.0938 2.0938 0 1 1 -4.1875 0 2.0938 2.0938 0 1 1 4.1875 0z"
       transform="matrix(-3.3433 0 0 3.3433 -111.28 -623.18)" />
    <path
       id="path4050-2-7-9-4-0"
       style="color:#000000;stroke:#000;stroke-linecap:round;stroke-width:.69792;fill:none"
       d="m-36.5 186.41a2.0938 2.0938 0 1 1 -4.1875 0 2.0938 2.0938 0 1 1 4.1875 0z"
       transform="matrix(-2.8656 0 0 2.8656 -70.846 -534.14)" />
    <path
       id="path4050-2-7-9-4-0-9"
       style="color:#000000;stroke:#000;stroke-linecap:round;stroke-width:.69792;fill:none"
       d="m-36.5 186.41a2.0938 2.0938 0 1 1 -4.1875 0 2.0938 2.0938 0 1 1 4.1875 0z"
       transform="matrix(-2.8656 0 0 2.8656 -92.846 -534.14)" />
    <path
       id="path3165-7-3-1"
       style="opacity:.35;color:#000000;text-indent:0pt;stroke:#000;stroke-width:2;text-transform:none;fill:none"
       d="m47.875-34.03c1.539 0.0448 3.0511 0.70928 4.125 1.8125l32.25 32.25-32.25 32.25c-2.2253 2.2253-6.2747 2.2253-8.5 0s-2.2253-6.2747 0-8.5l23.75-23.75-23.75-23.75c-1.7317-1.6731-2.295-4.4423-1.3546-6.6589 0.94042-2.2167 3.3231-3.736 5.7296-3.6536z" />
    <path
       id="path3165-7-3-1-9"
       style="color:#000000;text-indent:0pt;stroke:#000;stroke-linecap:round;stroke-width:2;text-transform:none;fill:none"
       d="m41.832 28.094c-0.014-1.589 0.54158-3.1841 1.6687-4.3112l23.75-23.75m-25.105-30.409c0.94042-2.2167 3.3231-3.736 5.7296-3.6536 1.539 0.0448 3.0511 0.70928 4.125 1.8125l32.25 32.25" />
  </g>
  <path
     style="fill:#ee82ee"
     d="M 31.175343,68.60339 C 22.085743,59.486441 14.354851,51.441294 13.995585,50.725285 13.11458,48.969468 13.173139,46.731209 14.152388,44.73182 c 1.797966,-3.671009 6.361772,-4.765159 9.811892,-2.352353 0.98168,0.686527 6.814846,6.29305 12.962591,12.458939 L 48.10459,66.049114 60.316702,53.8831 c 7.323552,-7.295906 12.6192,-12.260986 13.229061,-12.403264 1.291798,-0.301371 2.309003,-0.377831 3.948972,-0.29683 1.847227,0.09124 4.363237,2.573555 4.996653,4.929736 0.992807,3.693047 1.219794,3.405191 -17.414029,22.083868 -9.318248,9.340678 -17.039741,16.983051 -17.158871,16.983051 -0.119129,0 -7.653545,-7.459322 -16.743145,-16.576271 z"
     id="path2992"
     inkscape:connector-curvature="0" />
  <path
     style="fill:#ee82ee"
     d="m 45.254409,45.963419 c -2.849077,-1.240981 -4.76641,-5.106462 -3.902889,-7.868504 1.714223,-5.48308 9.043178,-6.802948 12.070189,-2.173713 1.911829,2.923775 1.801386,5.611718 -0.330333,8.039613 -2.141117,2.438597 -5.10009,3.194712 -7.836967,2.002604 z"
     id="path2994"
     inkscape:connector-curvature="0" />
  <path
     style="fill:#ee82ee"
     d="m 45.161755,23.893863 c -2.959526,-1.458726 -4.665784,-4.975829 -3.806045,-7.845382 0.533731,-1.781437 2.470805,-3.943868 4.087291,-4.562803 5.436089,-2.0814213 11.071918,3.486229 8.830827,8.723998 -1.545821,3.612819 -5.781961,5.325572 -9.112073,3.684187 z"
     id="path2996"
     inkscape:connector-curvature="0" />
</svg>
