<?xml version="1.0" encoding="utf-8"?>
<!-- Generator: Adobe Illustrator 15.0.0, SVG Export Plug-In . SVG Version: 6.00 Build 0)  -->
<!DOCTYPE svg PUBLIC "-//W3C//DTD SVG 1.1//EN" "http://www.w3.org/Graphics/SVG/1.1/DTD/svg11.dtd">
<svg version="1.1" id="Layer_2" xmlns="http://www.w3.org/2000/svg" xmlns:xlink="http://www.w3.org/1999/xlink" x="0px" y="0px"
	 width="48px" height="20px" viewBox="0 0 48 20" enable-background="new 0 0 48 20" xml:space="preserve">
<g>
	<g>
		<linearGradient id="SVGID_1_" gradientUnits="userSpaceOnUse" x1="14.312" y1="1.5415" x2="14.312" y2="18.4595">
			<stop  offset="0" style="stop-color:#FFFFFF"/>
			<stop  offset="0.2624" style="stop-color:#EBEBEB"/>
			<stop  offset="0.7975" style="stop-color:#B7B7B7"/>
			<stop  offset="1" style="stop-color:#A2A2A2"/>
		</linearGradient>
		<path fill="url(#SVGID_1_)" d="M0.458,10c0,4.671,4.402,8.458,9.833,8.458h17.876V1.542H0.458C0.458,7.917,0.458,5.329,0.458,10
			L0.458,10z"/>
		<linearGradient id="SVGID_2_" gradientUnits="userSpaceOnUse" x1="35.0273" y1="1.5415" x2="35.0273" y2="18.4595">
			<stop  offset="0.0307" style="stop-color:#BCBEC0"/>
			<stop  offset="0.2653" style="stop-color:#ABAEB0"/>
			<stop  offset="0.7437" style="stop-color:#848688"/>
			<stop  offset="1" style="stop-color:#6D6E71"/>
		</linearGradient>
		<path fill="url(#SVGID_2_)" d="M27.924,18.459h9.785c5.431,0,9.833-3.787,9.833-8.458l0,0c0-4.672-4.402-8.459-9.833-8.459H22.512
			L27.924,18.459z"/>
	</g>
	<g>
		
			<image overflow="visible" opacity="0.88" width="75" height="72" xlink:href="2FCC1D69.png"  transform="matrix(0.24 0 0 0.24 26.0166 1.4468)">
		</image>
		<g>
			<g>
				<line fill="none" stroke="#000000" stroke-width="3" stroke-miterlimit="10" x1="39.988" y1="5.575" x2="30.012" y2="14.312"/>
				<line fill="none" stroke="#000000" stroke-width="3" stroke-miterlimit="10" x1="30.012" y1="5.575" x2="39.988" y2="14.425"/>
			</g>
		</g>
	</g>
</g>
</svg>
