<?xml version="1.0" encoding="UTF-8" standalone="no"?>
<!-- Created with Inkscape (http://www.inkscape.org/) -->

<svg
   xmlns:dc="http://purl.org/dc/elements/1.1/"
   xmlns:cc="http://creativecommons.org/ns#"
   xmlns:rdf="http://www.w3.org/1999/02/22-rdf-syntax-ns#"
   xmlns:svg="http://www.w3.org/2000/svg"
   xmlns="http://www.w3.org/2000/svg"
   xmlns:xlink="http://www.w3.org/1999/xlink"
   version="1.1"
   width="64"
   height="22"
   id="svg3273">
  <defs
     id="defs3275">
    <linearGradient
       id="linearGradient3927">
      <stop
         id="stop3929"
         style="stop-color:#b5b5b5;stop-opacity:1"
         offset="0" />
      <stop
         id="stop3931"
         style="stop-color:#f1f1f1;stop-opacity:1"
         offset="1" />
    </linearGradient>
    <linearGradient
       id="linearGradient3831-4">
      <stop
         id="stop3833-8"
         style="stop-color:#7b7b7b;stop-opacity:0.22330096"
         offset="0" />
      <stop
         id="stop3839-2"
         style="stop-color:#6e6e6e;stop-opacity:1"
         offset="0.5" />
      <stop
         id="stop3835-7"
         style="stop-color:#7b7b7b;stop-opacity:0.33009708"
         offset="1" />
    </linearGradient>
    <linearGradient
       x1="50.402931"
       y1="6.465868"
       x2="57.31868"
       y2="6.3486519"
       id="linearGradient3142"
       xlink:href="#linearGradient3831-4"
       gradientUnits="userSpaceOnUse"
       gradientTransform="matrix(0.2741721,0.76452559,-0.83673496,0.33381581,11.509958,-34.256085)" />
    <linearGradient
       x1="50.402931"
       y1="6.465868"
       x2="57.31868"
       y2="6.3486519"
       id="linearGradient3145"
       xlink:href="#linearGradient3831-4"
       gradientUnits="userSpaceOnUse"
       gradientTransform="matrix(0.27381902,0.7646717,0.86561473,-0.34587162,-9.807511,-25.678755)" />
    <linearGradient
       x1="50.402931"
       y1="6.465868"
       x2="57.31868"
       y2="6.3486519"
       id="linearGradient3148"
       xlink:href="#linearGradient3831-4"
       gradientUnits="userSpaceOnUse"
       gradientTransform="matrix(-0.72062047,0.29822205,-0.34043695,-0.91792086,58.373804,5.8742993)" />
    <linearGradient
       x1="50.402931"
       y1="6.465868"
       x2="57.31868"
       y2="6.3486519"
       id="linearGradient3151"
       xlink:href="#linearGradient3831-4"
       gradientUnits="userSpaceOnUse"
       gradientTransform="matrix(-0.72062047,0.29822205,0.33758984,0.91024418,50.404468,-15.613439)" />
    <linearGradient
       x1="-41.402168"
       y1="-1.397297"
       x2="-41.489994"
       y2="7.0474572"
       id="linearGradient3157"
       xlink:href="#linearGradient3927"
       gradientUnits="userSpaceOnUse" />
    <linearGradient
       x1="-29.28952"
       y1="19.021994"
       x2="-29.594671"
       y2="6.0328393"
       id="linearGradient4520"
       xlink:href="#linearGradient3777-8"
       gradientUnits="userSpaceOnUse"
       gradientTransform="matrix(0.97877002,0,0,1.0061319,-0.456415,-0.35604116)" />
    <linearGradient
       id="linearGradient3777-8">
      <stop
         id="stop3779-4"
         style="stop-color:#3880ca;stop-opacity:1"
         offset="0" />
      <stop
         id="stop3781-3"
         style="stop-color:#6eabec;stop-opacity:1"
         offset="1" />
    </linearGradient>
    <linearGradient
       x1="-29.28952"
       y1="19.021994"
       x2="-29.594671"
       y2="6.0328393"
       id="linearGradient3068"
       xlink:href="#linearGradient3777-8"
       gradientUnits="userSpaceOnUse"
       gradientTransform="matrix(0.97877002,0,0,1.0061319,-7.9387599,36.910096)" />
    <linearGradient
       x1="50.402931"
       y1="6.465868"
       x2="57.31868"
       y2="6.3486519"
       id="linearGradient3076"
       xlink:href="#linearGradient3831-4"
       gradientUnits="userSpaceOnUse"
       gradientTransform="matrix(0.2741721,0.76452559,-0.83673496,0.33381581,11.509958,-34.256085)" />
    <linearGradient
       x1="50.402931"
       y1="6.465868"
       x2="57.31868"
       y2="6.3486519"
       id="linearGradient3079"
       xlink:href="#linearGradient3831-4"
       gradientUnits="userSpaceOnUse"
       gradientTransform="matrix(0.27381902,0.7646717,0.86561473,-0.34587162,-9.807511,-25.678755)" />
    <linearGradient
       x1="50.402931"
       y1="6.465868"
       x2="57.31868"
       y2="6.3486519"
       id="linearGradient3082"
       xlink:href="#linearGradient3831-4"
       gradientUnits="userSpaceOnUse"
       gradientTransform="matrix(-0.72062047,0.29822205,-0.34043695,-0.91792086,58.373804,5.8742993)" />
    <linearGradient
       x1="50.402931"
       y1="6.465868"
       x2="57.31868"
       y2="6.3486519"
       id="linearGradient3085"
       xlink:href="#linearGradient3831-4"
       gradientUnits="userSpaceOnUse"
       gradientTransform="matrix(-0.72062047,0.29822205,0.33758984,0.91024418,50.404468,-15.613439)" />
    <linearGradient
       x1="-41.402168"
       y1="-1.397297"
       x2="-41.489994"
       y2="7.0474572"
       id="linearGradient3093"
       xlink:href="#linearGradient3927"
       gradientUnits="userSpaceOnUse" />
  </defs>
  <metadata
     id="metadata3278">
    <rdf:RDF>
      <cc:Work
         rdf:about="">
        <dc:format>image/svg+xml</dc:format>
        <dc:type
           rdf:resource="http://purl.org/dc/dcmitype/StillImage" />
        <dc:title></dc:title>
      </cc:Work>
    </rdf:RDF>
  </metadata>
  <g
     id="g3867">
    <rect
       width="56.540817"
       height="21.206852"
       ry="10.603426"
       x="-61.562294"
       y="0.38298577"
       transform="scale(-1,1)"
       id="rect3010"
       style="fill:url(#linearGradient3093);fill-opacity:1;stroke:#a0a0a0;stroke-width:0.99722552;stroke-linecap:square;stroke-miterlimit:4;stroke-opacity:1;stroke-dasharray:none" />
    <path
       d="m 5.020761,11.23228 a 10.652205,10.634017 0 0 0 21.304409,0 10.652205,10.634017 0 1 0 -21.304409,0 z"
       id="path3788-8"
       style="fill:#e5e5e5;fill-opacity:1;stroke:#474747;stroke-width:1.05695784;stroke-linecap:square;stroke-miterlimit:4;stroke-opacity:1;stroke-dasharray:none" />
    <path
       d="M 15.609858,1.0850593 15.48844,11.351054 8.891672,3.4979943 c 0,0 1.481192,-1.287595 3.125661,-1.845072 1.644469,-0.557476 3.592525,-0.567863 3.592525,-0.567863 z"
       id="path3829-8"
       style="opacity:0.62719296;fill:url(#linearGradient3085);fill-opacity:1;stroke:none" />
    <path
       d="m 22.297863,19.033481 -6.921768,-7.985346 0.256032,10.336295 c 0,0 1.913838,0.06981 3.540761,-0.5426 1.702451,-0.640834 3.124975,-1.808349 3.124975,-1.808349 z"
       id="path3853-9"
       style="opacity:0.62719296;fill:url(#linearGradient3082);fill-opacity:1;stroke:none" />
    <path
       d="m 5.435207,11.40473 10.026884,-0.184998 -7.207622,6.822625 c 0,0 -1.528309,-1.360183 -2.036669,-3.10373 C 5.709441,13.19508 5.435207,11.40473 5.435207,11.40473 z"
       id="path3857-5"
       style="opacity:0.62719296;fill:url(#linearGradient3079);fill-opacity:1;stroke:none" />
    <path
       d="m 23.245407,4.2267313 -7.73967,6.9238747 10.457026,-0.135365 c 0,0 -0.03521,-1.4256607 -0.907995,-3.5036887 -0.735136,-1.750288 -1.809361,-3.284821 -1.809361,-3.284821 z"
       id="path3859-7"
       style="opacity:0.62719296;fill:url(#linearGradient3076);fill-opacity:1;stroke:none" />
    <path
       d="m 5.829734,11.231911 a 9.7894508,9.4145975 0 0 0 19.5789,0 9.7894508,9.4145975 0 1 0 -19.5789,0 z"
       id="path3844"
       style="opacity:0.68859648;fill:none;stroke:#ffffff;stroke-width:0.95338714;stroke-linecap:square;stroke-miterlimit:4;stroke-opacity:1;stroke-dasharray:none" />
    <g
       transform="matrix(0.99174975,0,0,1.0083189,26.269543,2.5084322)"
       id="g3095"
       style="font-size:16.13866234px;font-style:normal;font-variant:normal;font-weight:normal;font-stretch:normal;line-height:125%;letter-spacing:0px;word-spacing:0px;fill:#ffffff;fill-opacity:1;stroke:none;font-family:Ubuntu;-inkscape-font-specification:Ubuntu">
      <path
         d="m 11.040132,9.843357 c -10e-7,-0.957554 0.139867,-1.8021432 0.419605,-2.53377 0.290495,-0.7316105 0.677822,-1.3394995 1.161984,-1.8236688 0.494916,-0.4949085 1.065148,-0.8660974 1.710698,-1.1135677 0.656301,-0.2474482 1.350263,-0.3711778 2.081888,-0.3711892 0.720853,1.14e-5 1.398676,0.123741 2.033471,0.3711892 0.645538,0.2474703 1.21039,0.6186592 1.69456,1.1135677 0.484149,0.4841693 0.866097,1.0920583 1.145845,1.8236688 0.290484,0.7316268 0.435732,1.576216 0.435744,2.53377 -1.2e-5,0.957565 -0.14526,1.802154 -0.435744,2.53377 -0.279748,0.731622 -0.661696,1.34489 -1.145845,1.839808 -0.48417,0.48416 -1.049022,0.849969 -1.69456,1.097429 -0.634795,0.247459 -1.312618,0.371189 -2.033471,0.371189 -0.731625,0 -1.425587,-0.12373 -2.081888,-0.371189 -0.64555,-0.24746 -1.215782,-0.613269 -1.710698,-1.097429 -0.484162,-0.494918 -0.871489,-1.108186 -1.161984,-1.839808 -0.279738,-0.731616 -0.419606,-1.576205 -0.419605,-2.53377 m 1.646144,0 c -3e-6,0.677829 0.08607,1.296477 0.258218,1.855946 0.172143,0.548718 0.414223,1.016739 0.72624,1.404064 0.322769,0.38733 0.710097,0.688584 1.161984,0.903765 0.462636,0.204424 0.979073,0.306636 1.549311,0.306634 0.570226,2e-6 1.081283,-0.10221 1.533173,-0.306634 0.451875,-0.215181 0.833823,-0.516435 1.145845,-0.903765 0.322764,-0.387325 0.570224,-0.855346 0.742379,-1.404064 0.172136,-0.559469 0.258208,-1.178117 0.258218,-1.855946 -10e-6,-0.6778175 -0.08608,-1.2910861 -0.258218,-1.8398075 C 19.631271,7.4440839 19.383811,6.9706836 19.061047,6.5833472 18.749025,6.1960286 18.367077,5.9001534 17.915202,5.6957208 17.463312,5.4805486 16.952255,5.3729576 16.382029,5.3729476 c -0.570238,1e-5 -1.086675,0.107601 -1.549311,0.3227732 -0.451887,0.2044326 -0.839215,0.5003078 -1.161984,0.8876264 -0.312017,0.3873364 -0.554097,0.8607367 -0.72624,1.4202023 -0.172148,0.5487214 -0.258221,1.16199 -0.258218,1.8398075"
         id="path3097"
         style="fill:#ffffff;fill-opacity:1" />
    </g>
    <g
       transform="matrix(0.99174975,0,0,1.0083189,26.392148,1.2823786)"
       id="text4324"
       style="font-size:16.13866234px;font-style:normal;font-variant:normal;font-weight:normal;font-stretch:normal;line-height:125%;letter-spacing:0px;word-spacing:0px;fill:#474747;fill-opacity:1;stroke:none;font-family:Ubuntu;-inkscape-font-specification:Ubuntu">
      <path
         d="m 11.040132,9.843357 c -10e-7,-0.957554 0.139867,-1.8021432 0.419605,-2.53377 0.290495,-0.7316105 0.677822,-1.3394995 1.161984,-1.8236688 0.494916,-0.4949085 1.065148,-0.8660974 1.710698,-1.1135677 0.656301,-0.2474482 1.350263,-0.3711778 2.081888,-0.3711892 0.720853,1.14e-5 1.398676,0.123741 2.033471,0.3711892 0.645538,0.2474703 1.21039,0.6186592 1.69456,1.1135677 0.484149,0.4841693 0.866097,1.0920583 1.145845,1.8236688 0.290484,0.7316268 0.435732,1.576216 0.435744,2.53377 -1.2e-5,0.957565 -0.14526,1.802154 -0.435744,2.53377 -0.279748,0.731622 -0.661696,1.34489 -1.145845,1.839808 -0.48417,0.48416 -1.049022,0.849969 -1.69456,1.097429 -0.634795,0.247459 -1.312618,0.371189 -2.033471,0.371189 -0.731625,0 -1.425587,-0.12373 -2.081888,-0.371189 -0.64555,-0.24746 -1.215782,-0.613269 -1.710698,-1.097429 -0.484162,-0.494918 -0.871489,-1.108186 -1.161984,-1.839808 -0.279738,-0.731616 -0.419606,-1.576205 -0.419605,-2.53377 m 1.646144,0 c -3e-6,0.677829 0.08607,1.296477 0.258218,1.855946 0.172143,0.548718 0.414223,1.016739 0.72624,1.404064 0.322769,0.38733 0.710097,0.688584 1.161984,0.903765 0.462636,0.204424 0.979073,0.306636 1.549311,0.306634 0.570226,2e-6 1.081283,-0.10221 1.533173,-0.306634 0.451875,-0.215181 0.833823,-0.516435 1.145845,-0.903765 0.322764,-0.387325 0.570224,-0.855346 0.742379,-1.404064 0.172136,-0.559469 0.258208,-1.178117 0.258218,-1.855946 -10e-6,-0.6778175 -0.08608,-1.2910861 -0.258218,-1.8398075 C 19.631271,7.4440839 19.383811,6.9706836 19.061047,6.5833472 18.749025,6.1960286 18.367077,5.9001534 17.915202,5.6957208 17.463312,5.4805486 16.952255,5.3729576 16.382029,5.3729476 c -0.570238,1e-5 -1.086675,0.107601 -1.549311,0.3227732 -0.451887,0.2044326 -0.839215,0.5003078 -1.161984,0.8876264 -0.312017,0.3873364 -0.554097,0.8607367 -0.72624,1.4202023 -0.172148,0.5487214 -0.258221,1.16199 -0.258218,1.8398075"
         id="path4390"
         style="fill:#474747;fill-opacity:1" />
    </g>
  </g>
</svg>
