<?xml version="1.0" encoding="UTF-8" standalone="no"?>
<!-- Created with Inkscape (http://www.inkscape.org/) -->

<svg
   xmlns:dc="http://purl.org/dc/elements/1.1/"
   xmlns:cc="http://creativecommons.org/ns#"
   xmlns:rdf="http://www.w3.org/1999/02/22-rdf-syntax-ns#"
   xmlns:svg="http://www.w3.org/2000/svg"
   xmlns="http://www.w3.org/2000/svg"
   xmlns:sodipodi="http://sodipodi.sourceforge.net/DTD/sodipodi-0.dtd"
   xmlns:inkscape="http://www.inkscape.org/namespaces/inkscape"
   inkscape:export-ydpi="90.000000"
   inkscape:export-xdpi="90.000000"
   width="24"
   height="24"
   id="svg11300"
   sodipodi:version="0.32"
   inkscape:version="0.91 r13725"
   sodipodi:docname="workspace-shadow.svg"
   inkscape:output_extension="org.inkscape.output.svg.inkscape"
   version="1.0"
   style="display:inline;enable-background:new">
  <sodipodi:namedview
     stroke="#ef2929"
     fill="#f57900"
     id="base"
     pagecolor="#8c8c8c"
     bordercolor="#ff5e00"
     borderopacity="1"
     inkscape:pageopacity="1"
     inkscape:pageshadow="2"
     inkscape:zoom="16.004183"
     inkscape:cx="-2.6597962"
     inkscape:cy="16.832096"
     inkscape:current-layer="layer1"
     showgrid="true"
     inkscape:grid-bbox="true"
     inkscape:document-units="px"
     inkscape:showpageshadow="false"
     inkscape:window-width="1600"
     inkscape:window-height="853"
     inkscape:window-x="0"
     inkscape:window-y="25"
     width="400px"
     height="300px"
     inkscape:snap-nodes="true"
     inkscape:snap-bbox="true"
     gridtolerance="10000"
     inkscape:object-nodes="false"
     inkscape:snap-grids="true"
     showguides="true"
     inkscape:guide-bbox="true"
     inkscape:window-maximized="1"
     inkscape:bbox-nodes="true"
     inkscape:bbox-paths="false"
     inkscape:snap-bbox-edge-midpoints="false"
     inkscape:snap-bbox-midpoints="false"
     objecttolerance="10000"
     guidetolerance="10000"
     borderlayer="true"
     showborder="true"
     guidecolor="#ff0b00"
     guideopacity="1"
     guidehicolor="#001aff"
     guidehiopacity="0.49803922">
    <inkscape:grid
       type="xygrid"
       id="grid3123"
       empspacing="4"
       visible="true"
       enabled="true"
       snapvisiblegridlinesonly="true" />
  </sodipodi:namedview>
  <defs
     id="defs3" />
  <metadata
     id="metadata4">
    <rdf:RDF>
      <cc:Work
         rdf:about="">
        <dc:format>image/svg+xml</dc:format>
        <dc:type
           rdf:resource="http://purl.org/dc/dcmitype/StillImage" />
        <dc:creator>
          <cc:Agent>
            <dc:title />
          </cc:Agent>
        </dc:creator>
        <dc:source />
        <cc:license
           rdf:resource="" />
        <dc:title />
        <dc:subject>
          <rdf:Bag />
        </dc:subject>
        <dc:date />
        <dc:rights>
          <cc:Agent>
            <dc:title />
          </cc:Agent>
        </dc:rights>
        <dc:publisher>
          <cc:Agent>
            <dc:title />
          </cc:Agent>
        </dc:publisher>
        <dc:identifier />
        <dc:relation />
        <dc:language />
        <dc:coverage />
        <dc:description />
        <dc:contributor>
          <cc:Agent>
            <dc:title />
          </cc:Agent>
        </dc:contributor>
      </cc:Work>
      <cc:Work
         rdf:about="">
        <dc:format>image/svg+xml</dc:format>
        <dc:type
           rdf:resource="http://purl.org/dc/dcmitype/StillImage" />
      </cc:Work>
    </rdf:RDF>
  </metadata>
  <g
     style="display:inline"
     inkscape:groupmode="layer"
     inkscape:label="Base"
     id="layer1"
     transform="translate(0,-276)">
    <path
       style="opacity:0.01;fill:#000000;fill-opacity:1;stroke:none"
       d="M 5 0 C 2.23 0 0 2.23 0 5 L 0 19 C 0 21.77 2.23 24 5 24 L 19 24 C 21.77 24 24 21.77 24 19 L 24 5 C 24 2.23 21.77 0 19 0 L 5 0 z M 5 1 L 19 1 C 21.216 1 23 2.784 23 5 L 23 19 C 23 21.216 21.216 23 19 23 L 5 23 C 2.784 23 1 21.216 1 19 L 1 5 C 1 2.784 2.784 1 5 1 z "
       transform="translate(0,276)"
       id="rect3010" />
    <path
       style="opacity:0.04;fill:#000000;fill-opacity:1;stroke:none"
       d="M 5 1 C 2.784 1 1 2.784 1 5 L 1 19 C 1 21.216 2.784 23 5 23 L 19 23 C 21.216 23 23 21.216 23 19 L 23 5 C 23 2.784 21.216 1 19 1 L 5 1 z M 5 2 L 19 2 C 20.662 2 22 3.338 22 5 L 22 19 C 22 20.662 20.662 22 19 22 L 5 22 C 3.338 22 2 20.662 2 19 L 2 5 C 2 3.338 3.338 2 5 2 z "
       transform="translate(0,276)"
       id="rect3008" />
    <path
       style="opacity:0.1;fill:#000000;fill-opacity:1;stroke:none"
       d="M 5 2 C 3.338 2 2 3.338 2 5 L 2 19 C 2 20.662 3.338 22 5 22 L 19 22 C 20.662 22 22 20.662 22 19 L 22 5 C 22 3.338 20.662 2 19 2 L 5 2 z M 5 3 L 19 3 C 20.108 3 21 3.892 21 5 L 21 19 C 21 20.108 20.108 21 19 21 L 5 21 C 3.892 21 3 20.108 3 19 L 3 5 C 3 3.892 3.892 3 5 3 z "
       id="rect3006"
       transform="translate(0,276)" />
    <path
       style="opacity:0.25;fill:#000000;fill-opacity:1;stroke:none"
       d="M 5 3 C 3.892 3 3 3.892 3 5 L 3 19 C 3 20.108 3.892 21 5 21 L 19 21 C 20.108 21 21 20.108 21 19 L 21 5 C 21 3.892 20.108 3 19 3 L 5 3 z M 4 4 L 20 4 L 20 20 L 4 20 L 4 4 z "
       transform="translate(0,276)"
       id="rect2994" />
    <path
       style="opacity:0.9;fill:#000000;fill-opacity:1"
       d="m 4,280 0,16 16,0 0,-16 z m 1,1 14,0 0,14 -14,0 z"
       id="rect3119"
       inkscape:connector-curvature="0"
       sodipodi:nodetypes="cccccccccc" />
  </g>
</svg>
