<?xml version="1.0" encoding="UTF-8" standalone="no"?>
<svg
   height="32"
   width="32"
   version="1.1"
   id="svg25"
   sodipodi:docname="close.svg"
   inkscape:version="1.4.4 (dcaf3e7d9e, 2026-05-05)"
   xmlns:inkscape="http://www.inkscape.org/namespaces/inkscape"
   xmlns:sodipodi="http://sodipodi.sourceforge.net/DTD/sodipodi-0.dtd"
   xmlns="http://www.w3.org/2000/svg"
   xmlns:svg="http://www.w3.org/2000/svg"
   xmlns:rdf="http://www.w3.org/1999/02/22-rdf-syntax-ns#"
   xmlns:cc="http://creativecommons.org/ns#"
   xmlns:dc="http://purl.org/dc/elements/1.1/">
  <metadata
     id="metadata29">
    <rdf:RDF>
      <cc:Work
         rdf:about="">
        <dc:format>image/svg+xml</dc:format>
        <dc:type
           rdf:resource="http://purl.org/dc/dcmitype/StillImage" />
      </cc:Work>
    </rdf:RDF>
  </metadata>
  <sodipodi:namedview
     pagecolor="#ffffff"
     bordercolor="#666666"
     borderopacity="1"
     objecttolerance="10"
     gridtolerance="10"
     guidetolerance="10"
     inkscape:pageopacity="0"
     inkscape:pageshadow="2"
     inkscape:window-width="1440"
     inkscape:window-height="844"
     id="namedview27"
     showgrid="false"
     inkscape:zoom="14.75"
     inkscape:cx="7.0169492"
     inkscape:cy="20.474576"
     inkscape:current-layer="svg25"
     inkscape:showpageshadow="2"
     inkscape:pagecheckerboard="0"
     inkscape:deskcolor="#d1d1d1"
     inkscape:window-x="0"
     inkscape:window-y="24"
     inkscape:window-maximized="1" />
  <defs
     id="defs13">
    <filter
       id="b"
       width="1.4259713"
       y="-0.21305741"
       x="-0.21298565"
       height="1.4261148"
       color-interpolation-filters="sRGB">
      <feGaussianBlur
         stdDeviation="0.71020915"
         id="feGaussianBlur2" />
    </filter>
    <radialGradient
       id="d"
       gradientUnits="userSpaceOnUse"
       cy="5.8191"
       cx="7.6583"
       gradientTransform="matrix(1.4402,0,0,1.4461,4.971,1.4209)"
       r="8.6929">
      <stop
         stop-color="#7b7b7b"
         offset="0"
         id="stop5" />
      <stop
         stop-color="#101010"
         offset="1"
         id="stop7" />
    </radialGradient>
    <filter
       id="filter4202"
       style="color-interpolation-filters:sRGB"
       height="1.336"
       width="1.336"
       y="-0.168"
       x="-0.168">
      <feGaussianBlur
         stdDeviation="1.64206"
         id="feGaussianBlur10" />
    </filter>
    <filter
       inkscape:collect="always"
       style="color-interpolation-filters:sRGB"
       id="filter836"
       x="-0.144"
       width="1.288"
       y="-0.144"
       height="1.288">
      <feGaussianBlur
         inkscape:collect="always"
         stdDeviation="1.40748"
         id="feGaussianBlur838" />
    </filter>
  </defs>
  <path
     d="M 27.729,16.893048 A 11.729,11.729 0 0 0 16,5.1640479 11.729,11.729 0 0 0 4.271,16.893048 11.729,11.729 0 0 0 16,28.622048 a 11.729,11.729 0 0 0 11.729,-11.729 z"
     id="path15"
     style="display:inline;opacity:1;fill:#000000;filter:url(#filter836)"
     inkscape:connector-curvature="0" />
  <g
     transform="translate(0,1.415)"
     id="g23"
     style="display:inline">
    <path
       style="color:#000000;display:inline;fill:#000000;fill-opacity:1"
       d="m 5.0521,14.585 c 0,-6.0748 4.9022,-11 10.948,-11 6.0463,0 10.948,4.9252 10.948,11 0,6.0748 -4.9021,11 -10.948,11 -6.0463,0 -10.948,-4.9252 -10.948,-11 z"
       stroke="#eeeeec"
       stroke-width="2"
       fill="url(#d)"
       id="path17" />
    <path
       filter="url(#b)"
       d="m 12.002,11.993 v 1 c -0.02191,0.28075 0.07051,0.55537 0.28125,0.75 l 2.2812,2.2812 -2.2812,2.25 c -0.188,0.188 -0.281,0.454 -0.281,0.719 v 1 h 1 c 0.26529,0 0.53059,-0.0931 0.71875,-0.28125 l 2.281,-2.29 2.281,2.29 c 0.18816,0.18815 0.45345,0.28124 0.71875,0.28125 h 1 v -1 c -8e-6,-0.2653 -0.09306,-0.53058 -0.28125,-0.71875 l -2.25,-2.25 2.2812,-2.2812 c 0.21566,-0.19935 0.25,-0.46353 0.25,-0.75 v -1 h -1 c -0.24083,0.007 -0.42188,0.082 -0.6875,0.3125 l -2.3125,2.2812 -2.282,-2.28 c -0.17763,-0.18392 -0.43255,-0.3013 -0.6875,-0.3125 -0.01046,-4.6e-4 -0.02088,-1.2e-4 -0.03125,0 h -1 z"
       id="path19"
       style="display:inline" />
    <path
       fill="#ffffff"
       d="m 12.002,10.626 h 1 c 0.01031,-1.2e-4 0.02079,-4.59e-4 0.03125,0 0.25495,0.01121 0.50986,0.12858 0.6875,0.3125 l 2.2811,2.2811 2.3125,-2.2811 c 0.26562,-0.2305 0.44667,-0.3055 0.6875,-0.3125 h 1 v 1 c 0,0.28647 -0.03435,0.55065 -0.25,0.74999 l -2.2811,2.2811 2.25,2.25 c 0.18818,0.18817 0.28124,0.45345 0.28124,0.71875 v 1 h -1 c -0.26529,-1.1e-5 -0.53058,-0.0931 -0.71874,-0.28124 l -2.2798,-2.2798 -2.2818,2.2811 c -0.18824,0.18838 -0.45348,0.2805 -0.71885,0.2805 h -0.9999 v -1 c -3e-6,-0.26529 0.09306,-0.53058 0.28124,-0.71875 l 2.2811,-2.2495 -2.2811,-2.2811 c -0.21,-0.194 -0.302,-0.468 -0.28,-0.749 v -1 z"
       id="path21"
       style="display:inline;fill:#fefefe;fill-opacity:1" />
  </g>
</svg>
