<?xml version="1.0" encoding="UTF-8" standalone="no"?>
<svg
   height="32"
   width="32"
   version="1.1"
   id="svg25"
   sodipodi:docname="close (copy).svg"
   inkscape:version="1.4.4 (dcaf3e7d9e, 2026-05-05)"
   xmlns:inkscape="http://www.inkscape.org/namespaces/inkscape"
   xmlns:sodipodi="http://sodipodi.sourceforge.net/DTD/sodipodi-0.dtd"
   xmlns:xlink="http://www.w3.org/1999/xlink"
   xmlns="http://www.w3.org/2000/svg"
   xmlns:svg="http://www.w3.org/2000/svg"
   xmlns:rdf="http://www.w3.org/1999/02/22-rdf-syntax-ns#"
   xmlns:cc="http://creativecommons.org/ns#"
   xmlns:dc="http://purl.org/dc/elements/1.1/">
  <metadata
     id="metadata29">
    <rdf:RDF>
      <cc:Work
         rdf:about="">
        <dc:format>image/svg+xml</dc:format>
        <dc:type
           rdf:resource="http://purl.org/dc/dcmitype/StillImage" />
      </cc:Work>
    </rdf:RDF>
  </metadata>
  <sodipodi:namedview
     pagecolor="#ffffff"
     bordercolor="#666666"
     borderopacity="1"
     objecttolerance="10"
     gridtolerance="10"
     guidetolerance="10"
     inkscape:pageopacity="0"
     inkscape:pageshadow="2"
     inkscape:window-width="1440"
     inkscape:window-height="844"
     id="namedview27"
     showgrid="false"
     inkscape:zoom="16"
     inkscape:cx="8.75"
     inkscape:cy="21.3125"
     inkscape:current-layer="g23"
     inkscape:showpageshadow="2"
     inkscape:pagecheckerboard="0"
     inkscape:deskcolor="#d1d1d1"
     inkscape:window-x="0"
     inkscape:window-y="24"
     inkscape:window-maximized="1" />
  <defs
     id="defs13">
    <linearGradient
       id="linearGradient4"
       inkscape:collect="always">
      <stop
         style="stop-color:#ffffff;stop-opacity:1;"
         offset="0"
         id="stop4" />
      <stop
         style="stop-color:#ffffff;stop-opacity:0;"
         offset="1"
         id="stop6" />
    </linearGradient>
    <linearGradient
       id="linearGradient1"
       inkscape:collect="always">
      <stop
         style="stop-color:#ff191c;stop-opacity:1;"
         offset="0"
         id="stop1" />
      <stop
         style="stop-color:#ff7777;stop-opacity:1;"
         offset="1"
         id="stop2" />
    </linearGradient>
    <filter
       id="b"
       width="1.4259713"
       y="-0.21305741"
       x="-0.21298565"
       height="1.4261148"
       color-interpolation-filters="sRGB">
      <feGaussianBlur
         stdDeviation="0.71020915"
         id="feGaussianBlur2" />
    </filter>
    <radialGradient
       id="d"
       gradientUnits="userSpaceOnUse"
       cy="5.8191"
       cx="7.6583"
       gradientTransform="matrix(1.4402,0,0,1.4461,4.971,1.4209)"
       r="8.6929">
      <stop
         stop-color="#7b7b7b"
         offset="0"
         id="stop5" />
      <stop
         stop-color="#101010"
         offset="1"
         id="stop7" />
    </radialGradient>
    <filter
       id="filter4202"
       style="color-interpolation-filters:sRGB"
       height="1.336"
       width="1.336"
       y="-0.168"
       x="-0.168">
      <feGaussianBlur
         stdDeviation="1.64206"
         id="feGaussianBlur10" />
    </filter>
    <filter
       inkscape:collect="always"
       style="color-interpolation-filters:sRGB"
       id="filter836"
       x="-0.144"
       width="1.288"
       y="-0.144"
       height="1.288">
      <feGaussianBlur
         inkscape:collect="always"
         stdDeviation="1.40748"
         id="feGaussianBlur838" />
    </filter>
    <linearGradient
       inkscape:collect="always"
       xlink:href="#linearGradient1"
       id="linearGradient2"
       x1="16.000099"
       y1="26.532999"
       x2="16.000099"
       y2="2.6370006"
       gradientUnits="userSpaceOnUse"
       gradientTransform="matrix(1.0913409,0,0,1.0909091,-1.4615633,-1.3259091)" />
    <linearGradient
       inkscape:collect="always"
       xlink:href="#linearGradient4"
       id="linearGradient6"
       x1="16"
       y1="2.1370001"
       x2="16"
       y2="27.033001"
       gradientUnits="userSpaceOnUse"
       gradientTransform="matrix(0.95982945,0,0,0.96000351,0.64272908,0.58334978)" />
  </defs>
  <path
     d="M 27.729,16.893048 A 11.729,11.729 0 0 0 16,5.1640479 11.729,11.729 0 0 0 4.271,16.893048 11.729,11.729 0 0 0 16,28.622048 a 11.729,11.729 0 0 0 11.729,-11.729 z"
     id="path15"
     style="display:inline;opacity:1;fill:#000000;filter:url(#filter836)"
     inkscape:connector-curvature="0" />
  <g
     transform="translate(0,1.415)"
     id="g23"
     style="display:inline">
    <path
       style="color:#000000;display:inline;fill:url(#linearGradient2);fill-opacity:1;stroke:none;stroke-width:2.182;stroke-dasharray:none;stroke-opacity:1"
       d="m 4.052,14.585 c 0,-6.6270545 5.349971,-12 11.948,-12 6.598574,0 11.948,5.3729455 11.948,12 0,6.627055 -5.349862,12 -11.948,12 -6.598574,0 -11.948,-5.372945 -11.948,-12 z"
       stroke="#eeeeec"
       stroke-width="2.18225"
       fill="url(#d)"
       id="path17" />
    <path
       style="color:#000000;display:inline;fill:none;fill-opacity:1;stroke:url(#linearGradient6);stroke-width:0.959916;stroke-dasharray:none;stroke-opacity:1;opacity:0.34010445"
       d="M 4.531958,14.585 C 4.531958,8.2230053 9.6670175,3.064959 16,3.064959 c 6.333506,0 11.468042,5.1580463 11.468042,11.520041 0,6.361995 -5.134954,11.520041 -11.468042,11.520041 -6.3335056,0 -11.4680421,-5.158046 -11.468042,-11.520041 z"
       stroke="#eeeeec"
       stroke-width="2.18225"
       fill="url(#d)"
       id="path17-5" />
    <path
       fill="#ffffff"
       d="m 12.000525,11.585233 h 1 c 0.01031,-1.2e-4 0.02079,-4.59e-4 0.03125,0 0.25495,0.01121 0.50986,0.12858 0.6875,0.3125 l 2.2811,2.2811 2.3125,-2.2811 c 0.26562,-0.2305 0.44667,-0.3055 0.6875,-0.3125 h 1 v 1 c 0,0.28647 -0.03435,0.55065 -0.25,0.74999 l -2.2811,2.2811 2.25,2.25 c 0.18818,0.18817 0.28124,0.45345 0.28124,0.71875 v 1 h -1 c -0.26529,-1.1e-5 -0.53058,-0.0931 -0.71874,-0.28124 l -2.2798,-2.2798 -2.2818,2.2811 c -0.18824,0.18838 -0.45348,0.2805 -0.71885,0.2805 h -0.9999 v -1 c -3e-6,-0.26529 0.09306,-0.53058 0.28124,-0.71875 l 2.2811,-2.2495 -2.2811,-2.2811 c -0.21,-0.194 -0.302,-0.468 -0.28,-0.749 v -1 z"
       id="path21-6"
       style="display:inline;fill:#000000;fill-opacity:1" />
    <path
       fill="#ffffff"
       d="m 12.000525,10.584917 h 1 c 0.01031,-1.2e-4 0.02079,-4.59e-4 0.03125,0 0.25495,0.01121 0.50986,0.12858 0.6875,0.3125 l 2.2811,2.2811 2.3125,-2.2811 c 0.26562,-0.2305 0.44667,-0.3055 0.6875,-0.3125 h 1 v 1 c 0,0.28647 -0.03435,0.55065 -0.25,0.74999 l -2.2811,2.2811 2.25,2.25 c 0.18818,0.18817 0.28124,0.45345 0.28124,0.71875 v 1 h -1 c -0.26529,-1.1e-5 -0.53058,-0.0931 -0.71874,-0.28124 l -2.2798,-2.2798 -2.2818,2.2811 c -0.18824,0.18838 -0.45348,0.2805 -0.71885,0.2805 h -0.9999 v -1 c -3e-6,-0.26529 0.09306,-0.53058 0.28124,-0.71875 l 2.2811,-2.2495 -2.2811,-2.2811 c -0.21,-0.194 -0.302,-0.468 -0.28,-0.749 v -1 z"
       id="path21"
       style="display:inline;fill:#fefefe;fill-opacity:1" />
  </g>
</svg>
