<?xml version="1.0" encoding="UTF-8" standalone="no"?>
<svg
   xmlns:dc="http://purl.org/dc/elements/1.1/"
   xmlns:cc="http://creativecommons.org/ns#"
   xmlns:rdf="http://www.w3.org/1999/02/22-rdf-syntax-ns#"
   xmlns:svg="http://www.w3.org/2000/svg"
   xmlns="http://www.w3.org/2000/svg"
   xmlns:xlink="http://www.w3.org/1999/xlink"
   xmlns:sodipodi="http://sodipodi.sourceforge.net/DTD/sodipodi-0.dtd"
   xmlns:inkscape="http://www.inkscape.org/namespaces/inkscape"
   inkscape:export-ydpi="90.000000"
   inkscape:export-xdpi="90.000000"
   width="24"
   height="24"
   id="svg11300"
   sodipodi:version="0.32"
   inkscape:version="1.0.1 (1.0.1+r74)"
   sodipodi:docname="little-transparent-bg.svg"
   inkscape:output_extension="org.inkscape.output.svg.inkscape"
   version="1.0"
   style="display:inline;enable-background:new">
  <sodipodi:namedview
     stroke="#ef2929"
     fill="#f57900"
     id="base"
     pagecolor="#8c8c8c"
     bordercolor="#ff5e00"
     borderopacity="1"
     inkscape:pageopacity="1"
     inkscape:pageshadow="2"
     inkscape:zoom="16"
     inkscape:cx="-1.702072"
     inkscape:cy="6.8614721"
     inkscape:current-layer="layer1"
     showgrid="true"
     inkscape:grid-bbox="true"
     inkscape:document-units="px"
     inkscape:showpageshadow="false"
     inkscape:window-width="1920"
     inkscape:window-height="1001"
     inkscape:window-x="0"
     inkscape:window-y="0"
     width="400px"
     height="300px"
     inkscape:snap-nodes="false"
     inkscape:snap-bbox="true"
     gridtolerance="10000"
     inkscape:object-nodes="true"
     inkscape:snap-grids="true"
     showguides="true"
     inkscape:guide-bbox="true"
     inkscape:window-maximized="1"
     inkscape:bbox-nodes="true"
     inkscape:bbox-paths="false"
     inkscape:snap-bbox-edge-midpoints="false"
     inkscape:snap-bbox-midpoints="false"
     objecttolerance="10000"
     guidetolerance="10000"
     borderlayer="true"
     showborder="true"
     guidecolor="#ff0b00"
     guideopacity="1"
     guidehicolor="#001aff"
     guidehiopacity="0.49803922"
     inkscape:snap-smooth-nodes="true"
     inkscape:snap-to-guides="true"
     inkscape:document-rotation="0">
    <inkscape:grid
       type="xygrid"
       id="grid3123"
       empspacing="4"
       visible="true"
       enabled="true"
       snapvisiblegridlinesonly="true" />
  </sodipodi:namedview>
  <defs
     id="defs3">
    <linearGradient
       inkscape:collect="always"
       xlink:href="#linearGradient846"
       id="linearGradient848"
       x1="0"
       y1="289"
       x2="24"
       y2="289"
       gradientUnits="userSpaceOnUse"
       gradientTransform="matrix(-1.0434784,1.0434787,-1.0434787,-1.0434784,327.08701,576.04349)" />
    <linearGradient
       inkscape:collect="always"
       id="linearGradient846">
      <stop
         style="stop-color:#ffffff;stop-opacity:1;"
         offset="0"
         id="stop842" />
      <stop
         style="stop-color:#ffffff;stop-opacity:0;"
         offset="1"
         id="stop844" />
    </linearGradient>
    <linearGradient
       inkscape:collect="always"
       xlink:href="#linearGradient878"
       id="linearGradient880"
       x1="0.097183228"
       y1="289.29453"
       x2="29"
       y2="289.29453"
       gradientUnits="userSpaceOnUse"
       gradientTransform="matrix(-0.70710678,0.70710678,-1.0454519,-1.0454519,324.68381,580.20321)" />
    <linearGradient
       inkscape:collect="always"
       id="linearGradient878">
      <stop
         style="stop-color:#000000;stop-opacity:1;"
         offset="0"
         id="stop874" />
      <stop
         style="stop-color:#000000;stop-opacity:0;"
         offset="1"
         id="stop876" />
    </linearGradient>
  </defs>
  <metadata
     id="metadata4">
    <rdf:RDF>
      <cc:Work
         rdf:about="">
        <dc:format>image/svg+xml</dc:format>
        <dc:type
           rdf:resource="http://purl.org/dc/dcmitype/StillImage" />
        <dc:creator>
          <cc:Agent>
            <dc:title />
          </cc:Agent>
        </dc:creator>
        <dc:source />
        <cc:license
           rdf:resource="" />
        <dc:title />
        <dc:subject>
          <rdf:Bag />
        </dc:subject>
        <dc:date />
        <dc:rights>
          <cc:Agent>
            <dc:title />
          </cc:Agent>
        </dc:rights>
        <dc:publisher>
          <cc:Agent>
            <dc:title />
          </cc:Agent>
        </dc:publisher>
        <dc:identifier />
        <dc:relation />
        <dc:language />
        <dc:coverage />
        <dc:description />
        <dc:contributor>
          <cc:Agent>
            <dc:title />
          </cc:Agent>
        </dc:contributor>
      </cc:Work>
      <cc:Work
         rdf:about="">
        <dc:format>image/svg+xml</dc:format>
        <dc:type
           rdf:resource="http://purl.org/dc/dcmitype/StillImage" />
      </cc:Work>
    </rdf:RDF>
  </metadata>
  <g
     style="display:inline"
     inkscape:groupmode="layer"
     inkscape:label="Base"
     id="layer1"
     transform="translate(0,-276)">
    <path
       style="display:inline;opacity:0.5;fill:#000000;fill-opacity:1;stroke:none;stroke-width:0;stroke-miterlimit:4;stroke-dasharray:none;enable-background:new"
       d="M 4.0029634,276 C 1.8168384,276 0,277.78907 0,279.99082 V 296 c 0,2.20175 1.8295,4 4,4 h 16 c 2.217375,0 4,-1.8295 4,-4 v -16 c 0,-2.22318 -1.780025,-4 -4,-4 z m 0,1 H 20 c 1.785593,0 3,1.19742 3,3 v 16 c 0,1.77275 -1.180375,3 -3,3 H 4 c -1.77275,0 -3,-1.21163 -3,-3 V 279.99082 C 1,278.2337 2.2145884,277 4.0029634,277 Z"
       id="rect4146"
       inkscape:connector-curvature="0"
       sodipodi:nodetypes="ssssssccssccssssss" />
    <path
       id="rect840"
       style="display:inline;opacity:0.3;fill:url(#linearGradient848);fill-opacity:1;stroke-width:0.29514;paint-order:markers fill stroke;enable-background:new"
       d="m 3.291016,276.0625 c -1.610673,0.28594 -2.882254,1.52911 -3.208985,3.125 0.33021,-1.58917 1.619432,-2.83679 3.216797,-3.125 -0.0025,4.4e-4 -0.0053,-4.5e-4 -0.0078,0 z m 18.951172,0.61719 c 0.425028,0.28683 0.791289,0.65309 1.078124,1.07812 -0.286524,-0.42538 -0.652852,-0.79169 -1.078124,-1.07812 z M 4.003906,277 C 2.215531,277 1,278.23311 1,279.99023 V 296 c 0,1.78837 1.22725,3 3,3 h 16 c 1.819625,0 3,-1.22725 3,-3 v -16 c 0,-1.80258 -1.214407,-3 -3,-3 z M 0,296 c 0,2.216 1.784,4 4,4 -2.1705,0 -4,-1.79825 -4,-4 z m 24,0 c 0,2.1705 -1.782625,4 -4,4 2.216,0 4,-1.784 4,-4 z" />
    <path
       id="rect840-5"
       style="display:inline;opacity:0.35;fill:url(#linearGradient880);fill-opacity:1;stroke-width:0.132351;paint-order:markers fill stroke;enable-background:new"
       d="M 17.34375,277 1,293.34375 V 296 c 0,1.78837 1.22725,3 3,3 H 6.65625 L 23,282.65625 V 280 c 0,-0.89624 -0.300904,-1.64177 -0.822266,-2.16602 l -0.0078,-0.01 c -0.0029,-0.003 -0.0068,-0.005 -0.0098,-0.008 C 21.633822,277.29718 20.887799,277 20,277 Z M 0,296 c 0,0.20207 0.02995114,0.39598 0.05859375,0.58984 l 0.0019531,0.002 C 0.03077872,296.39729 0,296.20241 0,296 Z m 3.4082031,3.93945 0.00195,0.002 C 3.6040159,299.97005 3.7979312,300 4,300 3.7980337,300 3.6030651,299.9695 3.4082031,299.9395 Z" />
    <rect
       style="display:inline;opacity:0.75;fill:#333333;fill-opacity:1;stroke:none;enable-background:new"
       id="rect3003"
       width="24"
       height="24"
       x="0"
       y="276"
       ry="4"
       rx="4" />
  </g>
</svg>
