/* XPM */
static char *close_pressed[] = {
/* columns rows colors chars-per-pixel */
"24 24 35 1 ",
"  c #2F2F2F",
". c #2F3030",
"X c #2F3031",
"o c #2D3237",
"O c #2D3338",
"+ c gray20",
"@ c gray22",
"# c #293D50",
"$ c #293D51",
"% c #2A3E51",
"& c #293D52",
"* c #283F55",
"= c #283F56",
"- c #284057",
"; c #26435E",
": c #27435E",
"> c #284058",
", c #284159",
"< c #274460",
"1 c #264462",
"2 c #264563",
"3 c #254565",
"4 c #264564",
"5 c #264665",
"6 c #1E5790",
"7 c #1E5890",
"8 c #1E5891",
"9 c #1E5892",
"0 c #1D5995",
"q c #1D5A95",
"w c #1E5A95",
"e c #1D5A96",
"r c #205182",
"t c #205282",
"y c #215283",
/* pixels */
"@@@@@@@@@@@@@@@@@@@@@@@@",
"++++++++++++++++++++++++",
"                        ",
"                        ",
"                        ",
"        O5y99t4O        ",
"       $6eeeeee6%       ",
"      $qeeeeeeeeq%      ",
"     O6ee7eeee8ee8o     ",
"     5eeeX>00,.eee2     ",
"     yeee1 *= ;eeet     ",
"     6eeee<  :eeee6     ",
"     6eeew*  &weee8     ",
"     yeee- 11 -eeet     ",
"     4eeeO3ee3Oeee2     ",
"     O6eeeeeeeeee7o     ",
"      %qeeeeeeeeq#      ",
"       %8eeeeee7#       ",
"        o2r88r2o        ",
"                        ",
"                        ",
"                        ",
"                        ",
"                        "
};
