/* XPM */
static char *close_prelight[] = {
/* columns rows colors chars-per-pixel */
"24 24 39 1 ",
"  c #2F2F2F",
". c #303031",
"X c #303132",
"o c gray20",
"O c #32373C",
"+ c #32383D",
"@ c #32383E",
"# c gray22",
"$ c #3B5167",
"% c #3B5269",
"& c #3C5269",
"* c #3C536A",
"= c #3D566F",
"- c #3D5770",
"; c #3D5771",
": c #3E5872",
"> c #3E5873",
", c #3E5974",
"< c #3F5A76",
"1 c #405F7E",
"2 c #40607F",
"3 c #416282",
"4 c #426485",
"5 c #426486",
"6 c #426487",
"7 c #426588",
"8 c #436689",
"9 c #43668A",
"0 c #4D84BB",
"q c #4E85BC",
"w c #4E86BD",
"e c #5393D3",
"r c #5393D4",
"t c #5394D4",
"y c #5394D5",
"u c #5498DB",
"i c #5598DB",
"p c #5598DC",
"a c #5599DD",
/* pixels */
"########################",
"oooooooooooooooooooooooo",
"                        ",
"                        ",
"                        ",
"        @8qyyq8@        ",
"       %raaaaaar&       ",
"      %paaaaaaaap&      ",
"     @raaeaaaataat+     ",
"     8aaaX,uu<.aaa7     ",
"     waaa4 -; 2aaaq     ",
"     raaaa3  1aaaar     ",
"     raaai=  *iaaat     ",
"     qaaa> 55 :aaaq     ",
"     8aaa@9aa9@aaa6     ",
"     @raaaaaaaaaaeO     ",
"      &paaaaaaaap$      ",
"       &taaaaaae$       ",
"        +70yy06O        ",
"                        ",
"                        ",
"                        ",
"                        ",
"                        "
};
