<?xml version="1.0" encoding="UTF-8" standalone="no"?>
<!-- Created with Inkscape (http://www.inkscape.org/) -->

<svg
   xmlns:dc="http://purl.org/dc/elements/1.1/"
   xmlns:cc="http://creativecommons.org/ns#"
   xmlns:rdf="http://www.w3.org/1999/02/22-rdf-syntax-ns#"
   xmlns:svg="http://www.w3.org/2000/svg"
   xmlns="http://www.w3.org/2000/svg"
   xmlns:xlink="http://www.w3.org/1999/xlink"
   version="1.1"
   width="64"
   height="22"
   id="svg3273">
  <defs
     id="defs3275">
    <linearGradient
       id="linearGradient4063">
      <stop
         id="stop4065"
         style="stop-color:#353535;stop-opacity:1"
         offset="0" />
      <stop
         id="stop4067"
         style="stop-color:#47586e;stop-opacity:1"
         offset="1" />
    </linearGradient>
    <linearGradient
       id="linearGradient3990">
      <stop
         id="stop3992"
         style="stop-color:#ffffff;stop-opacity:1"
         offset="0" />
      <stop
         id="stop3994"
         style="stop-color:#ffffff;stop-opacity:0"
         offset="1" />
    </linearGradient>
    <linearGradient
       id="linearGradient3984">
      <stop
         id="stop3986"
         style="stop-color:#313131;stop-opacity:1"
         offset="0" />
      <stop
         id="stop3988"
         style="stop-color:#5e5e5e;stop-opacity:1"
         offset="1" />
    </linearGradient>
    <linearGradient
       id="linearGradient4095">
      <stop
         id="stop4097"
         style="stop-color:#131313;stop-opacity:1"
         offset="0" />
      <stop
         id="stop4099"
         style="stop-color:#131313;stop-opacity:0"
         offset="1" />
    </linearGradient>
    <linearGradient
       x1="17.371481"
       y1="1.4948978"
       x2="17.306519"
       y2="4.8073978"
       id="linearGradient4909"
       xlink:href="#linearGradient3990"
       gradientUnits="userSpaceOnUse"
       gradientTransform="translate(-63.999996,0)" />
    <linearGradient
       x1="-47.059258"
       y1="20.14957"
       x2="-46.978706"
       y2="1.0181593"
       id="linearGradient4916"
       xlink:href="#linearGradient3984"
       gradientUnits="userSpaceOnUse"
       gradientTransform="matrix(0.9757771,0,0,0.98628529,-0.651405,0.09987579)" />
    <linearGradient
       x1="-17.784681"
       y1="9.8260183"
       x2="-11.504409"
       y2="9.6024895"
       id="linearGradient4920"
       xlink:href="#linearGradient4095"
       gradientUnits="userSpaceOnUse"
       gradientTransform="matrix(0.88797735,0,0,0.87902198,-19.10437,2.3346908)" />
    <linearGradient
       x1="40.624996"
       y1="20.6875"
       x2="40.8125"
       y2="10.5"
       id="linearGradient4924"
       xlink:href="#linearGradient4063"
       gradientUnits="userSpaceOnUse"
       gradientTransform="translate(-63.999996,0)" />
  </defs>
  <metadata
     id="metadata3278">
    <rdf:RDF>
      <cc:Work
         rdf:about="">
        <dc:format>image/svg+xml</dc:format>
        <dc:type
           rdf:resource="http://purl.org/dc/dcmitype/StillImage" />
        <dc:title></dc:title>
      </cc:Work>
    </rdf:RDF>
  </metadata>
  <g
     transform="matrix(-1,0,0,1,63.999996,0)"
     id="g4926">
    <rect
       width="63.000004"
       height="19"
       rx="4"
       ry="4"
       x="-63.5"
       y="1.5"
       transform="scale(-1,1)"
       id="rect17456"
       style="color:#000000;fill:url(#linearGradient4924);fill-opacity:1;stroke:#282828;stroke-width:0.99999994;stroke-linecap:round;stroke-linejoin:miter;stroke-miterlimit:4;stroke-opacity:1;stroke-dasharray:none;stroke-dashoffset:0;marker:none;visibility:visible;display:inline;overflow:visible;enable-background:accumulate" />
    <rect
       width="61.470325"
       height="17.097975"
       rx="2.9653778"
       ry="3.0449691"
       x="-62.903458"
       y="2.4950619"
       transform="scale(-1,1)"
       id="rect3963"
       style="opacity:0.12396695;color:#000000;fill:none;stroke:#ffffff;stroke-width:0.93703973;stroke-linecap:round;stroke-linejoin:miter;stroke-miterlimit:4;stroke-opacity:1;stroke-dasharray:none;stroke-dashoffset:0;marker:none;visibility:visible;display:inline;overflow:visible;enable-background:accumulate" />
    <rect
       width="27.527298"
       height="17.580441"
       rx="3.5519094"
       ry="3.516088"
       x="-57.54575"
       y="2.0835137"
       transform="scale(-1,1)"
       id="rect4062"
       style="fill:url(#linearGradient4920);fill-opacity:1;stroke:none;display:inline" />
    <rect
       width="32.057007"
       height="21.6308"
       rx="4.1363883"
       ry="4.32616"
       x="-63.865353"
       y="0.066622458"
       transform="scale(-1,1)"
       id="rect4093"
       style="fill:#111111;fill-opacity:1;stroke:none;display:inline" />
    <rect
       width="30.24909"
       height="19.725706"
       rx="3.9031086"
       ry="3.9451411"
       x="-62.975956"
       y="0.96162629"
       transform="scale(-1,1)"
       id="rect17458"
       style="fill:url(#linearGradient4916);fill-opacity:1;stroke:none;display:inline" />
    <g
       transform="matrix(-1,0,0,1,65.79051,0.25758252)"
       id="g4211">
      <path
         d="m 16.798265,5.2711496 a 1.1106291,1.1106291 0 1 1 -1e-6,-8.191e-4"
         transform="translate(-1.9397152,0.5097843)"
         id="path4205"
         style="opacity:0.64049587;fill:#000000;fill-opacity:1;stroke:none" />
      <path
         d="m 16.798265,5.2711496 a 1.1106291,1.1106291 0 1 1 -1e-6,-8.191e-4"
         transform="translate(-2.0281035,4.9277873)"
         id="path4207"
         style="opacity:0.64049587;fill:#060606;fill-opacity:1;stroke:none" />
      <path
         d="m 16.798265,5.2711496 a 1.1106291,1.1106291 0 1 1 -1e-6,-8.191e-4"
         transform="translate(-1.9397152,9.6803703)"
         id="path4209"
         style="opacity:0.64049587;fill:#090909;fill-opacity:1;stroke:none" />
    </g>
    <rect
       width="29.285889"
       height="18.841696"
       rx="3.7788243"
       ry="3.5183392"
       x="-62.58519"
       y="1.3865503"
       transform="scale(-1,1)"
       id="rect4145"
       style="opacity:0.19008262;fill:none;stroke:url(#linearGradient4909);stroke-width:0.96164936;stroke-opacity:1;display:inline" />
    <path
       d="m 16.798265,5.2711496 a 1.1106291,1.1106291 0 1 1 -1e-6,-8.191e-4"
       transform="matrix(-1,0,0,1,60.968517,0.8557548)"
       id="path3813"
       style="fill:#000000;fill-opacity:1;stroke:none" />
    <g
       transform="matrix(-1,0,0,1,63.624996,0.16919417)"
       id="g4216">
      <path
         d="m 16.798265,5.2711496 a 1.1106291,1.1106291 0 1 1 -1e-6,-8.191e-4"
         transform="translate(2.0819546,0.686561)"
         id="path4199"
         style="opacity:0.64049587;fill:#000000;fill-opacity:1;stroke:none" />
      <path
         d="m 16.798265,5.2711496 a 1.1106291,1.1106291 0 1 1 -1e-6,-8.191e-4"
         transform="translate(1.9935663,5.104564)"
         id="path4201"
         style="opacity:0.64049587;fill:#060606;fill-opacity:1;stroke:none" />
      <path
         d="m 16.798265,5.2711496 a 1.1106291,1.1106291 0 1 1 -1e-6,-8.191e-4"
         transform="translate(2.0819546,9.857147)"
         id="path4203"
         style="opacity:0.64049587;fill:#090909;fill-opacity:1;stroke:none" />
    </g>
    <path
       d="m 16.798265,5.2711496 a 1.1106291,1.1106291 0 1 1 -1e-6,-8.191e-4"
       transform="matrix(-1,0,0,1,61.056905,5.2737581)"
       id="path3815"
       style="opacity:0.89669417;fill:#060606;fill-opacity:1;stroke:none" />
    <path
       d="m 16.798265,5.2711496 a 1.1106291,1.1106291 0 1 1 -1e-6,-8.191e-4"
       transform="matrix(-1,0,0,1,60.468517,0.9182548)"
       id="path3805"
       style="fill:#d4d4d4;fill-opacity:1;stroke:none" />
    <path
       d="m 16.798265,5.2711496 a 1.1106291,1.1106291 0 1 1 -1e-6,-8.191e-4"
       transform="matrix(-1,0,0,1,60.968517,10.026341)"
       id="path3817"
       style="opacity:0.89669417;fill:#090909;fill-opacity:1;stroke:none" />
    <path
       d="m 16.798265,5.2711496 a 1.1106291,1.1106291 0 1 1 -1e-6,-8.191e-4"
       transform="matrix(-1,0,0,1,60.463155,5.2737581)"
       id="path3807"
       style="fill:#d4d4d4;fill-opacity:1;stroke:none" />
    <path
       d="m 16.798265,5.2711496 a 1.1106291,1.1106291 0 1 1 -1e-6,-8.191e-4"
       transform="matrix(-1,0,0,1,60.468517,10.088841)"
       id="path3809"
       style="fill:#d4d4d4;fill-opacity:1;stroke:none" />
    <g
       transform="matrix(-1,0,0,1,63.624996,0.125)"
       id="g4221">
      <path
         d="m 16.798265,5.2711496 a 1.1106291,1.1106291 0 1 1 -1e-6,-8.191e-4"
         transform="translate(-3.6024046,0.6682548)"
         id="path4010"
         style="opacity:0.89669417;fill:#000000;fill-opacity:1;stroke:none" />
      <path
         d="m 16.798265,5.2711496 a 1.1106291,1.1106291 0 1 1 -1e-6,-8.191e-4"
         transform="translate(-3.6907929,5.0862581)"
         id="path4012"
         style="opacity:0.89669417;fill:#060606;fill-opacity:1;stroke:none" />
      <path
         d="m 16.798265,5.2711496 a 1.1106291,1.1106291 0 1 1 -1e-6,-8.191e-4"
         transform="translate(-3.6024046,9.8388407)"
         id="path4016"
         style="opacity:0.89669417;fill:#090909;fill-opacity:1;stroke:none" />
    </g>
    <path
       d="m 16.798265,5.2711496 a 1.1106291,1.1106291 0 1 1 -1e-6,-8.191e-4"
       transform="matrix(-1,0,0,1,66.727401,0.8557548)"
       id="path4014"
       style="fill:#d4d4d4;fill-opacity:1;stroke:none" />
    <path
       d="m 16.798265,5.2711496 a 1.1106291,1.1106291 0 1 1 -1e-6,-8.191e-4"
       transform="matrix(-1,0,0,1,66.753289,5.2425081)"
       id="path4018"
       style="fill:#d4d4d4;fill-opacity:1;stroke:none" />
    <path
       d="m 16.798265,5.2711496 a 1.1106291,1.1106291 0 1 1 -1e-6,-8.191e-4"
       transform="matrix(-1,0,0,1,66.727401,10.026341)"
       id="path4022"
       style="fill:#d4d4d4;fill-opacity:1;stroke:none" />
    <g
       transform="translate(-0.25,-0.25)"
       id="g4879">
      <g
         transform="translate(-827.11448,-72.92071)"
         id="g3827"
         style="font-size:14px;font-style:normal;font-variant:normal;font-weight:bold;font-stretch:normal;line-height:125%;letter-spacing:0px;word-spacing:0px;fill:#000000;fill-opacity:0.84390247;stroke:none;font-family:Sans;-inkscape-font-specification:Sans Bold">
        <path
           d="m 844.12109,80.960762 c -0.80208,9e-6 -1.42415,0.296232 -1.86621,0.888672 -0.44206,0.592455 -0.66309,1.426438 -0.66308,2.501953 -1e-5,1.070968 0.22102,1.902672 0.66308,2.495117 0.44206,0.59245 1.06413,0.888674 1.86621,0.888672 0.80664,2e-6 1.43099,-0.296222 1.87305,-0.888672 0.44205,-0.592445 0.66308,-1.424149 0.66309,-2.495117 -10e-6,-1.075515 -0.22104,-1.909498 -0.66309,-2.501953 -0.44206,-0.59244 -1.06641,-0.888663 -1.87305,-0.888672 m 0,-1.907227 c 1.64062,1.1e-5 2.92578,0.469411 3.85547,1.408204 0.92968,0.93881 1.39452,2.235358 1.39453,3.889648 -10e-6,1.649743 -0.46485,2.944013 -1.39453,3.882813 -0.92969,0.938802 -2.21485,1.408202 -3.85547,1.408203 -1.63607,-10e-7 -2.92122,-0.469401 -3.85547,-1.408203 -0.92968,-0.9388 -1.39453,-2.23307 -1.39453,-3.882813 0,-1.65429 0.46485,-2.950838 1.39453,-3.889648 0.93425,-0.938793 2.2194,-1.408193 3.85547,-1.408204"
           id="path3829"
           style="fill:#000000;fill-opacity:0.84390247" />
      </g>
      <g
         transform="translate(-827.11448,-73.66176)"
         id="text3892"
         style="font-size:14px;font-style:normal;font-variant:normal;font-weight:bold;font-stretch:normal;line-height:125%;letter-spacing:0px;word-spacing:0px;fill:#ffffff;fill-opacity:1;stroke:none;font-family:Sans;-inkscape-font-specification:Sans Bold">
        <path
           d="m 844.12109,80.960762 c -0.80208,9e-6 -1.42415,0.296232 -1.86621,0.888672 -0.44206,0.592455 -0.66309,1.426438 -0.66308,2.501953 -1e-5,1.070968 0.22102,1.902672 0.66308,2.495117 0.44206,0.59245 1.06413,0.888674 1.86621,0.888672 0.80664,2e-6 1.43099,-0.296222 1.87305,-0.888672 0.44205,-0.592445 0.66308,-1.424149 0.66309,-2.495117 -10e-6,-1.075515 -0.22104,-1.909498 -0.66309,-2.501953 -0.44206,-0.59244 -1.06641,-0.888663 -1.87305,-0.888672 m 0,-1.907227 c 1.64062,1.1e-5 2.92578,0.469411 3.85547,1.408204 0.92968,0.93881 1.39452,2.235358 1.39453,3.889648 -10e-6,1.649743 -0.46485,2.944013 -1.39453,3.882813 -0.92969,0.938802 -2.21485,1.408202 -3.85547,1.408203 -1.63607,-10e-7 -2.92122,-0.469401 -3.85547,-1.408203 -0.92968,-0.9388 -1.39453,-2.23307 -1.39453,-3.882813 0,-1.65429 0.46485,-2.950838 1.39453,-3.889648 0.93425,-0.938793 2.2194,-1.408193 3.85547,-1.408204"
           id="path4070"
           style="fill:#ffffff;fill-opacity:1" />
      </g>
    </g>
  </g>
</svg>
