<?xml version="1.0" encoding="UTF-8" standalone="no"?>
<!-- Created with Inkscape (http://www.inkscape.org/) -->

<svg
   xmlns:dc="http://purl.org/dc/elements/1.1/"
   xmlns:cc="http://creativecommons.org/ns#"
   xmlns:rdf="http://www.w3.org/1999/02/22-rdf-syntax-ns#"
   xmlns:svg="http://www.w3.org/2000/svg"
   xmlns="http://www.w3.org/2000/svg"
   xmlns:xlink="http://www.w3.org/1999/xlink"
   xmlns:sodipodi="http://sodipodi.sourceforge.net/DTD/sodipodi-0.dtd"
   xmlns:inkscape="http://www.inkscape.org/namespaces/inkscape"
   width="37"
   height="20"
   id="svg4287"
   version="1.1"
   inkscape:version="0.48.3.1 r9886"
   sodipodi:docname="toggle-off.svg">
  <defs
     id="defs4289">
    <linearGradient
       id="linearGradient4004">
      <stop
         style="stop-color:#000000;stop-opacity:0.8"
         offset="0"
         id="stop4006" />
      <stop
         id="stop4008"
         offset="0.56249994"
         style="stop-color:#000000;stop-opacity:0.078" />
      <stop
         style="stop-color:#ffffff;stop-opacity:0.078"
         offset="0.81249994"
         id="stop4010" />
      <stop
         style="stop-color:#ffffff;stop-opacity:0.102"
         offset="1"
         id="stop4012" />
    </linearGradient>
    <linearGradient
       id="linearGradient4250">
      <stop
         id="stop4252"
         offset="0"
         style="stop-color:#ffffff;stop-opacity:0;" />
      <stop
         id="stop4254"
         offset="1"
         style="stop-color:#ffffff;stop-opacity:0.2" />
    </linearGradient>
    <linearGradient
       inkscape:collect="always"
       xlink:href="#linearGradient4250"
       id="linearGradient4256"
       gradientUnits="userSpaceOnUse"
       gradientTransform="matrix(0,-1,1,0,-12,57)"
       x1="35"
       y1="22"
       x2="44"
       y2="22" />
    <linearGradient
       inkscape:collect="always"
       xlink:href="#linearGradient4004"
       id="linearGradient4068"
       gradientUnits="userSpaceOnUse"
       gradientTransform="matrix(0.91304348,0,0,0.8,1.9999994,14.000001)"
       x1="17"
       y1="-3.5527137e-15"
       x2="17"
       y2="20" />
    <linearGradient
       y2="22"
       x2="44"
       y1="22"
       x1="26"
       gradientTransform="translate(-13,-12)"
       gradientUnits="userSpaceOnUse"
       id="linearGradient4022"
       xlink:href="#linearGradient3818"
       inkscape:collect="always" />
    <linearGradient
       id="linearGradient3818">
      <stop
         style="stop-color:#51bbe9;stop-opacity:1;"
         offset="0"
         id="stop3820-7" />
      <stop
         style="stop-color:#1b62ad;stop-opacity:1;"
         offset="1"
         id="stop3822" />
    </linearGradient>
  </defs>
  <sodipodi:namedview
     id="base"
     pagecolor="#000000"
     bordercolor="#666666"
     borderopacity="1.0"
     inkscape:pageopacity="0.78431373"
     inkscape:pageshadow="2"
     inkscape:zoom="1"
     inkscape:cx="18"
     inkscape:cy="10"
     inkscape:current-layer="layer1"
     showgrid="false"
     inkscape:grid-bbox="true"
     inkscape:document-units="px"
     inkscape:window-width="1366"
     inkscape:window-height="715"
     inkscape:window-x="0"
     inkscape:window-y="26"
     inkscape:window-maximized="1"
     showborder="false"
     inkscape:showpageshadow="false">
    <inkscape:grid
       type="xygrid"
       id="grid4295"
       empspacing="5"
       visible="true"
       enabled="true"
       snapvisiblegridlinesonly="true" />
  </sodipodi:namedview>
  <metadata
     id="metadata4292">
    <rdf:RDF>
      <cc:Work
         rdf:about="">
        <dc:format>image/svg+xml</dc:format>
        <dc:type
           rdf:resource="http://purl.org/dc/dcmitype/StillImage" />
        <dc:title />
      </cc:Work>
    </rdf:RDF>
  </metadata>
  <g
     id="layer1"
     inkscape:label="Layer 1"
     inkscape:groupmode="layer"
     transform="translate(0,-12)">
    <rect
       style="opacity:0.3;fill:#000000;fill-opacity:1"
       id="rect3006"
       width="34"
       height="14"
       x="1"
       y="15"
       rx="7"
       ry="7" />
    <rect
       style="opacity:0.3;fill:#000000;fill-opacity:1;stroke:none"
       id="rect4090"
       width="20"
       height="20"
       x="0"
       y="12"
       rx="10"
       ry="10" />
    <rect
       style="fill:url(#linearGradient4022);fill-opacity:1.0;stroke:none"
       id="rect4090-2-3"
       width="18"
       height="18"
       x="13"
       y="1"
       rx="9"
       ry="9"
       transform="matrix(0,1,1,0,0,0)" />
    <path
       style="fill:url(#linearGradient4256);fill-opacity:1;stroke:none"
       d="m 10,13 c -4.986,0 -9,4.014 -9,9 0,4.986 4.014,9 9,9 4.986,0 9,-4.014 9,-9 0,-4.986 -4.014,-9 -9,-9 z m 0,1 c 4.432,0 8,3.568 8,8 0,4.432 -3.568,8 -8,8 -4.432,0 -8,-3.568 -8,-8 0,-4.432 3.568,-8 8,-8 z"
       id="rect4090-2-0"
       inkscape:connector-curvature="0" />
    <path
       style="fill:url(#linearGradient4068);fill-opacity:1"
       d="m 16,14 c 0.404886,0.303223 0.771253,0.639896 1.125,1 L 28,15 c 3.878,0 7,3.122 7,7 0,3.878 -3.122,7 -7,7 L 17.125,29 C 16.771253,29.360104 16.404886,29.696777 16,30 l 12,0 c 4.432,0 8,-3.568 8,-8 0,-4.432 -3.568,-8 -8,-8 l -12,0 z"
       id="rect2989-2-5"
       inkscape:connector-curvature="0" />
  </g>
</svg>
