<?xml version="1.0" encoding="UTF-8" standalone="no"?>
<!-- Created with Inkscape (http://www.inkscape.org/) -->

<svg
   xmlns:dc="http://purl.org/dc/elements/1.1/"
   xmlns:cc="http://creativecommons.org/ns#"
   xmlns:rdf="http://www.w3.org/1999/02/22-rdf-syntax-ns#"
   xmlns:svg="http://www.w3.org/2000/svg"
   xmlns="http://www.w3.org/2000/svg"
   xmlns:sodipodi="http://sodipodi.sourceforge.net/DTD/sodipodi-0.dtd"
   xmlns:inkscape="http://www.inkscape.org/namespaces/inkscape"
   width="32"
   height="32"
   id="svg3768"
   version="1.1"
   inkscape:version="0.48.3.1 r9886"
   sodipodi:docname="window-close-hover.svg">
  <sodipodi:namedview
     id="base"
     pagecolor="#000000"
     bordercolor="#666666"
     borderopacity="1.0"
     inkscape:pageopacity="1"
     inkscape:pageshadow="2"
     inkscape:zoom="11.104167"
     inkscape:cx="11.841063"
     inkscape:cy="16.296474"
     inkscape:current-layer="layer1"
     showgrid="true"
     inkscape:document-units="px"
     inkscape:grid-bbox="true"
     inkscape:window-width="1280"
     inkscape:window-height="743"
     inkscape:window-x="0"
     inkscape:window-y="28"
     inkscape:window-maximized="1"
     fit-margin-top="0"
     fit-margin-left="0"
     fit-margin-right="0"
     fit-margin-bottom="0">
    <inkscape:grid
       snapvisiblegridlinesonly="true"
       enabled="true"
       visible="true"
       empspacing="5"
       id="grid4311"
       type="xygrid" />
  </sodipodi:namedview>
  <defs
     id="defs3770" />
  <metadata
     id="metadata3773">
    <rdf:RDF>
      <cc:Work
         rdf:about="">
        <dc:format>image/svg+xml</dc:format>
        <dc:type
           rdf:resource="http://purl.org/dc/dcmitype/StillImage" />
        <dc:title />
      </cc:Work>
    </rdf:RDF>
  </metadata>
  <g
     transform="translate(0.04369043,-32.063828)"
     inkscape:groupmode="layer"
     inkscape:label="Layer 1"
     id="layer1">
    <path
       transform="matrix(1.3669903,0,0,1.3617021,-8.432042,32.063828)"
       d="m 29.545455,11.75 c 0,6.489346 -5.240303,11.75 -11.704545,11.75 C 11.376668,23.5 6.1363649,18.239346 6.1363649,11.75 6.1363649,5.2606542 11.376668,0 17.84091,0 24.305152,0 29.545455,5.2606542 29.545455,11.75 z"
       sodipodi:ry="11.75"
       sodipodi:rx="11.704545"
       sodipodi:cy="11.75"
       sodipodi:cx="17.84091"
       id="path3776"
       style="opacity:0.2;fill:#161616;fill-opacity:1;fill-rule:nonzero;stroke:#5a5a5a;stroke-width:0;stroke-miterlimit:4;stroke-opacity:1;stroke-dasharray:none"
       sodipodi:type="arc" />
    <path
       transform="matrix(1.2815534,0,0,1.2765957,-6.9077698,33.063829)"
       d="m 29.545455,11.75 c 0,6.489346 -5.240303,11.75 -11.704545,11.75 C 11.376668,23.5 6.1363649,18.239346 6.1363649,11.75 6.1363649,5.2606542 11.376668,0 17.84091,0 24.305152,0 29.545455,5.2606542 29.545455,11.75 z"
       sodipodi:ry="11.75"
       sodipodi:rx="11.704545"
       sodipodi:cy="11.75"
       sodipodi:cx="17.84091"
       id="path3776-9"
       style="fill:#3b3b3b;fill-opacity:1;fill-rule:nonzero;stroke:#5a5a5a;stroke-width:0;stroke-miterlimit:4;stroke-opacity:1;stroke-dasharray:none"
       sodipodi:type="arc" />
    <path
       inkscape:connector-curvature="0"
       id="rect2987"
       d="m 12.540081,43.063828 c -0.129855,0 -0.265595,0.03064 -0.365094,0.130293 l -1.069202,1.068433 c -0.199003,0.1993 -0.199003,0.53036 0,0.72966 l 3.051137,3.075001 -3.051137,3.04894 c -0.199301,0.199439 -0.199301,0.530225 0,0.729661 l 1.069202,1.068432 c 0.199299,0.19944 0.530886,0.19944 0.730186,0 l 3.051136,-3.048937 3.051138,3.04894 c 0.199001,0.199301 0.531185,0.199301 0.730187,0 l 1.0692,-1.068433 c 0.199004,-0.1993 0.199004,-0.53036 0,-0.72966 l -3.051137,-3.048941 3.051137,-3.075 c 0.199301,-0.199438 0.199301,-0.530223 0,-0.729661 l -1.0692,-1.068432 c -0.09964,-0.09972 -0.261124,-0.130293 -0.391172,-0.130293 -0.130054,0 -0.239366,0.03059 -0.339015,0.130293 l -3.051138,3.048944 -3.051136,-3.048941 c -0.0995,-0.09965 -0.235238,-0.130294 -0.365092,-0.130294 z"
       style="color:#000000;fill:#ffffff;fill-opacity:1;fill-rule:nonzero;stroke:none;stroke-width:4;marker:none;visibility:visible;display:inline;overflow:visible;enable-background:accumulate" />
  </g>
</svg>
