<?xml version="1.0" encoding="UTF-8" standalone="no"?>
<!-- Created with Inkscape (http://www.inkscape.org/) -->

<svg
   xmlns:dc="http://purl.org/dc/elements/1.1/"
   xmlns:cc="http://creativecommons.org/ns#"
   xmlns:rdf="http://www.w3.org/1999/02/22-rdf-syntax-ns#"
   xmlns:svg="http://www.w3.org/2000/svg"
   xmlns="http://www.w3.org/2000/svg"
   xmlns:sodipodi="http://sodipodi.sourceforge.net/DTD/sodipodi-0.dtd"
   xmlns:inkscape="http://www.inkscape.org/namespaces/inkscape"
   inkscape:export-ydpi="90.000000"
   inkscape:export-xdpi="90.000000"
   width="16"
   height="16"
   id="svg11300"
   sodipodi:version="0.32"
   inkscape:version="0.91 r13725"
   sodipodi:docname="radioactive__2.svg"
   inkscape:output_extension="org.inkscape.output.svg.inkscape"
   version="1.0"
   style="display:inline;enable-background:new">
  <sodipodi:namedview
     stroke="#ef2929"
     fill="#f57900"
     id="base"
     pagecolor="#8c8c8c"
     bordercolor="#ff5e00"
     borderopacity="1"
     inkscape:pageopacity="0"
     inkscape:pageshadow="2"
     inkscape:zoom="22.627417"
     inkscape:cx="3.4639167"
     inkscape:cy="9.2540524"
     inkscape:current-layer="layer1"
     showgrid="true"
     inkscape:grid-bbox="true"
     inkscape:document-units="px"
     inkscape:showpageshadow="false"
     inkscape:window-width="1600"
     inkscape:window-height="848"
     inkscape:window-x="0"
     inkscape:window-y="24"
     width="400px"
     height="300px"
     inkscape:snap-nodes="false"
     inkscape:snap-bbox="true"
     gridtolerance="10000"
     inkscape:object-nodes="true"
     inkscape:snap-grids="true"
     showguides="true"
     inkscape:guide-bbox="true"
     inkscape:window-maximized="1"
     inkscape:bbox-nodes="true"
     inkscape:bbox-paths="false"
     inkscape:snap-bbox-edge-midpoints="false"
     inkscape:snap-bbox-midpoints="false"
     objecttolerance="10000"
     guidetolerance="10000"
     borderlayer="true"
     showborder="true"
     guidecolor="#ff0b00"
     guideopacity="1"
     guidehicolor="#001aff"
     guidehiopacity="0.49803922"
     inkscape:snap-smooth-nodes="true"
     inkscape:object-paths="true"
     inkscape:snap-global="true"
     inkscape:snap-center="true"
     inkscape:snap-object-midpoints="false"
     inkscape:snap-to-guides="true"
     inkscape:snap-intersection-paths="false"
     inkscape:snap-midpoints="false">
    <inkscape:grid
       type="xygrid"
       id="grid3123"
       empspacing="4"
       visible="true"
       enabled="true"
       snapvisiblegridlinesonly="true" />
  </sodipodi:namedview>
  <defs
     id="defs3" />
  <metadata
     id="metadata4">
    <rdf:RDF>
      <cc:Work
         rdf:about="">
        <dc:format>image/svg+xml</dc:format>
        <dc:type
           rdf:resource="http://purl.org/dc/dcmitype/StillImage" />
        <dc:creator>
          <cc:Agent>
            <dc:title />
          </cc:Agent>
        </dc:creator>
        <dc:source />
        <cc:license
           rdf:resource="" />
        <dc:title></dc:title>
        <dc:subject>
          <rdf:Bag />
        </dc:subject>
        <dc:date />
        <dc:rights>
          <cc:Agent>
            <dc:title />
          </cc:Agent>
        </dc:rights>
        <dc:publisher>
          <cc:Agent>
            <dc:title />
          </cc:Agent>
        </dc:publisher>
        <dc:identifier />
        <dc:relation />
        <dc:language />
        <dc:coverage />
        <dc:description />
        <dc:contributor>
          <cc:Agent>
            <dc:title />
          </cc:Agent>
        </dc:contributor>
      </cc:Work>
      <cc:Work
         rdf:about="">
        <dc:format>image/svg+xml</dc:format>
        <dc:type
           rdf:resource="http://purl.org/dc/dcmitype/StillImage" />
      </cc:Work>
    </rdf:RDF>
  </metadata>
  <g
     style="display:inline"
     inkscape:groupmode="layer"
     inkscape:label="Base"
     id="layer1"
     transform="translate(0,-284)">
    <path
       style="color:#000000;font-style:normal;font-variant:normal;font-weight:normal;font-stretch:normal;font-size:medium;line-height:normal;font-family:sans-serif;text-indent:0;text-align:start;text-decoration:none;text-decoration-line:none;text-decoration-style:solid;text-decoration-color:#000000;letter-spacing:normal;word-spacing:normal;text-transform:none;direction:ltr;block-progression:tb;writing-mode:lr-tb;baseline-shift:baseline;text-anchor:start;white-space:normal;clip-rule:nonzero;display:inline;overflow:visible;visibility:visible;opacity:1;isolation:auto;mix-blend-mode:normal;color-interpolation:sRGB;color-interpolation-filters:linearRGB;solid-color:#000000;solid-opacity:1;fill:#bababa;fill-opacity:1;fill-rule:nonzero;stroke:none;stroke-width:2;stroke-linecap:round;stroke-linejoin:round;stroke-miterlimit:4;stroke-dasharray:none;stroke-dashoffset:0;stroke-opacity:1;color-rendering:auto;image-rendering:auto;shape-rendering:auto;text-rendering:auto;enable-background:new"
       d="m 11.523439,284.94141 a 1.0001,1.0001 0 0 0 -0.888672,0.5 l -1.57422,2.72656 c 0.663349,0.1832 1.261165,0.51765 1.738282,0.98633 l 0.933594,-1.61523 c 1.07165,0.90271 1.754118,2.0854 2,3.46484 l -1.876954,0 c 0.08349,0.32177 0.142579,0.65406 0.142579,1.00195 0,0.34639 -0.05783,0.67754 -0.140625,0.99805 l 3.142578,0 a 1.0001,1.0001 0 0 0 0.999999,-1 c 1.31e-4,-2.85665 -1.526065,-5.49942 -3.999999,-6.92774 a 1.0001,1.0001 0 0 0 -0.476562,-0.13476 z m -7.0781265,0.002 A 1.0001,1.0001 0 0 0 4,285.07622 c -2.4739339,1.42832 -4.0001314815,4.07109 -4,6.92774 a 1.0001,1.0001 0 0 0 1,1 l 3.1425781,0 c -0.082791,-0.32051 -0.140625,-0.65167 -0.140625,-0.99805 0,-0.34789 0.059085,-0.68018 0.1425781,-1.00195 l -1.8769531,0 c 0.2458814,-1.37944 0.9283501,-2.56213 2,-3.46484 l 0.9335938,1.61523 c 0.4768308,-0.4684 1.0754141,-0.80304 1.7382811,-0.98633 L 5.3652344,285.44141 A 1.0001,1.0001 0 0 0 4.4453125,284.94336 Z M 8,290.00591 c -1.104476,0 -2,0.89542 -2,2 0,1.10458 0.895524,2 2,2 1.104476,0 2.000001,-0.8954 2.000001,-2 0,-1.10458 -0.895525,-2 -2.000001,-2 z m -3.0097656,4.60547 -1.7851563,2.58984 a 1.0001,1.0001 0 0 0 0.2558594,1.39058 C 4.8267585,299.53305 6.413106,300.00035 8,300 c 1.586894,3.5e-4 3.173242,-0.46695 4.539063,-1.4082 0.454524,-0.31344 0.569053,-0.93593 0.25586,-1.39063 l -1.785156,-2.58984 c -0.440583,0.50851 -1.000322,0.90153 -1.644533,1.13672 l 1.128908,1.63672 C 9.696176,297.75399 8.847717,297.9374 8,297.9375 7.152283,297.9374 6.303825,297.75399 5.5058594,297.38477 l 1.1289066,-1.63672 c -0.6440277,-0.23521 -1.2040507,-0.62833 -1.6445316,-1.13672 z"
       id="path4589"
       inkscape:connector-curvature="0" />
  </g>
</svg>
