<?xml version="1.0" encoding="UTF-8" standalone="no"?>
<svg
   xmlns:dc="http://purl.org/dc/elements/1.1/"
   xmlns:cc="http://creativecommons.org/ns#"
   xmlns:rdf="http://www.w3.org/1999/02/22-rdf-syntax-ns#"
   xmlns:svg="http://www.w3.org/2000/svg"
   xmlns="http://www.w3.org/2000/svg"
   xmlns:xlink="http://www.w3.org/1999/xlink"
   xmlns:sodipodi="http://sodipodi.sourceforge.net/DTD/sodipodi-0.dtd"
   xmlns:inkscape="http://www.inkscape.org/namespaces/inkscape"
   height="22"
   width="64"
   version="1.1"
   id="svg502"
   inkscape:version="0.48.5 r10040"
   sodipodi:docname="toggle-off-intl.svg">
  <metadata
     id="metadata584">
    <rdf:RDF>
      <cc:Work
         rdf:about="">
        <dc:format>image/svg+xml</dc:format>
        <dc:type
           rdf:resource="http://purl.org/dc/dcmitype/StillImage" />
      </cc:Work>
    </rdf:RDF>
  </metadata>
  <sodipodi:namedview
     pagecolor="#ffffff"
     bordercolor="#666666"
     borderopacity="1"
     objecttolerance="10"
     gridtolerance="10"
     guidetolerance="10"
     inkscape:pageopacity="0"
     inkscape:pageshadow="2"
     inkscape:window-width="640"
     inkscape:window-height="480"
     id="namedview582" />
  <defs
     id="defs504">
    <radialGradient
       id="w"
       xlink:href="#n"
       gradientUnits="userSpaceOnUse"
       cy="11"
       cx="42.5"
       gradientTransform="matrix(11,0,0,10,-447,-99)" />
    <linearGradient
       id="n">
      <stop
         offset="0"
         id="stop508" />
      <stop
         stop-opacity=".70588"
         offset="0.6"
         id="stop510" />
      <stop
         stop-opacity="0"
         offset="1"
         id="stop512" />
    </linearGradient>
    <radialGradient
       id="v"
       xlink:href="#m"
       gradientUnits="userSpaceOnUse"
       cy="11"
       cx="42.5"
       gradientTransform="matrix(11,0,0,10,-446,-99)" />
    <linearGradient
       id="m"
       stop-color="#fff">
      <stop
         offset="0"
         id="stop516" />
      <stop
         stop-opacity=".70588"
         offset="0.6"
         id="stop518" />
      <stop
         stop-opacity="0"
         offset="1"
         id="stop520" />
    </linearGradient>
    <radialGradient
       id="u"
       xlink:href="#n"
       gradientUnits="userSpaceOnUse"
       cy="11"
       cx="42.5"
       gradientTransform="matrix(11,0,0,10,-451,-99)" />
    <radialGradient
       id="t"
       xlink:href="#m"
       gradientUnits="userSpaceOnUse"
       cy="11"
       cx="42.5"
       gradientTransform="matrix(11,0,0,10,-450,-99)" />
    <radialGradient
       id="s"
       xlink:href="#n"
       gradientUnits="userSpaceOnUse"
       cy="11"
       cx="42.5"
       gradientTransform="matrix(11,0,0,10,-455,-99)" />
    <radialGradient
       id="x"
       xlink:href="#m"
       gradientUnits="userSpaceOnUse"
       cy="11"
       cx="42.5"
       gradientTransform="matrix(11,0,0,10,-454,-99)" />
    <linearGradient
       id="p"
       y2="28"
       stop-color="#fff"
       gradientUnits="userSpaceOnUse"
       x2="41"
       gradientTransform="translate(-32,-1)"
       y1="1"
       x1="41">
      <stop
         offset="0"
         id="stop527" />
      <stop
         stop-opacity="0"
         offset="1"
         id="stop529" />
    </linearGradient>
    <linearGradient
       id="q"
       y2="2"
       gradientUnits="userSpaceOnUse"
       x2="48"
       gradientTransform="translate(-32,-1)"
       y1="21"
       x1="48">
      <stop
         stop-color="#a0a0a0"
         offset="0"
         id="stop532" />
      <stop
         stop-color="#dcdcdc"
         offset="1"
         id="stop534" />
    </linearGradient>
    <filter
       id="o"
       height="1.24"
       width="1.24"
       color-interpolation-filters="sRGB"
       y="-.12"
       x="-.12">
      <feGaussianBlur
         stdDeviation="0.5"
         id="feGaussianBlur537" />
    </filter>
    <linearGradient
       id="r"
       y2=".49999"
       gradientUnits="userSpaceOnUse"
       x2="40.812"
       gradientTransform="matrix(-1,0,0,-1,64.5,20.5)"
       y1="18.5"
       x1="40.812">
      <stop
         stop-color="#333"
         offset="0"
         id="stop540" />
      <stop
         stop-color="#555"
         offset="1"
         id="stop542" />
    </linearGradient>
  </defs>
  <g
     style="color:#000000"
     id="g544">
    <path
       d="m5 3c-1.1224 0-2 0.8776-2 2v12c0 1.1224 0.8776 2 2 2h54c1.1224 0 2-0.8776 2-2v-12c0-1.1224-0.878-2-2-2h-54z"
       fill="url(#r)"
       id="path546" />
    <path
       opacity="0.08"
       d="m5 2c-1.662 0-3 1.338-3 3v12c0 1.662 1.338 3 3 3h54c1.662 0 3-1.338 3-3v-12c0-1.662-1.338-3-3-3zm0 3h54v12h-54z"
       id="path548" />
    <path
       opacity="0.12"
       d="m5 2c-1.662 0-3 1.338-3 3v12c0 1.662 1.338 3 3 3h54c1.662 0 3-1.338 3-3v-12c0-1.662-1.338-3-3-3zm0 2h54c0.5825 0 1 0.4175 1 1v12c0 0.5825-0.4175 1-1 1h-54c-0.5825 0-1-0.418-1-1v-12c0-0.5825 0.4175-1 1-1z"
       id="path550" />
    <path
       opacity=".2"
       d="m5 2c-1.662 0-3 1.338-3 3v12c0 1.662 1.338 3 3 3h54c1.662 0 3-1.338 3-3v-12c0-1.662-1.338-3-3-3zm0 1h54c1.1174 0 2 0.88261 2 2v12c0 1.1174-0.88261 2-2 2h-54c-1.1174 0-2-0.883-2-2v-12c0-1.1174 0.8826-2 2-2z"
       fill="#fff"
       id="path552" />
    <g
       opacity=".5"
       id="g554">
      <path
         opacity=".5"
         d="m47 6.5c-2.7614 0-5 2.2386-5 5s2.2386 5 5 5 5-2.2386 5-5-2.2386-5-5-5zm0 2c1.6569 0 3 1.3431 3 3s-1.3431 3-3 3-3-1.3431-3-3 1.3431-3 3-3z"
         filter="url(#o)"
         id="path556" />
      <path
         d="m47 6c-2.7614 0-5 2.2386-5 5s2.2386 5 5 5 5-2.2386 5-5-2.2386-5-5-5zm0 2c1.6569 0 3 1.3431 3 3s-1.3431 3-3 3-3-1.3431-3-3 1.3431-3 3-3z"
         fill="#fff"
         id="path558" />
    </g>
    <path
       opacity=".05"
       d="m5-0.9375c-3.2559 0-5.9375 2.6816-5.9375 5.9375v12c0 3.2559 2.6816 5.9375 5.9375 5.9375h24c3.2559 0 5.9375-2.6816 5.9375-5.9375v-12c0-3.2559-2.682-5.9375-5.938-5.9375h-24z"
       id="path560" />
    <path
       opacity=".1"
       d="m5 0c-2.7357 0-5 2.2643-5 5v12c0 2.7357 2.2643 5 5 5h24c2.7357 0 5-2.2643 5-5v-12c0-2.7357-2.264-5-5-5h-24z"
       id="path562" />
    <path
       opacity=".2"
       d="m5 1.0312c-2.1742 0-3.9688 1.7946-3.9688 3.9688v12c0 2.1742 1.7946 3.9688 3.9688 3.9688h24c2.1742 0 3.9688-1.7946 3.9688-3.9688v-12c0-2.1742-1.795-3.9688-3.969-3.9688h-24z"
       id="path564" />
    <rect
       rx="3"
       ry="3"
       height="18"
       width="30"
       y="2"
       x="2"
       fill="url(#q)"
       id="rect566" />
    <path
       opacity=".6"
       d="m5 2c-1.662 0-3 1.338-3 3v12c0 1.662 1.338 3 3 3h24c1.662 0 3-1.338 3-3v-12c0-1.662-1.338-3-3-3zm0 1h24c1.1256 0 2 0.87439 2 2v12c0 1.1256-0.87439 2-2 2h-24c-1.1256 0-2-0.874-2-2v-12c0-1.1256 0.8744-2 2-2z"
       fill="url(#p)"
       id="path568" />
    <rect
       opacity=".4"
       height="10"
       width="1"
       y="6"
       x="13"
       fill="url(#x)"
       id="rect570" />
    <rect
       opacity=".2"
       height="10"
       width="1"
       y="6"
       x="12"
       fill="url(#s)"
       id="rect572" />
    <rect
       opacity=".4"
       height="10"
       width="1"
       y="6"
       x="17"
       fill="url(#t)"
       id="rect574" />
    <rect
       opacity=".2"
       height="10"
       width="1"
       y="6"
       x="16"
       fill="url(#u)"
       id="rect576" />
    <rect
       opacity=".4"
       height="10"
       width="1"
       y="6"
       x="21"
       fill="url(#v)"
       id="rect578" />
    <rect
       opacity=".2"
       height="10"
       width="1"
       y="6"
       x="20"
       fill="url(#w)"
       id="rect580" />
  </g>
</svg>
