/* XPM */
static char *close_prelight[] = {
/* columns rows colors chars-per-pixel */
"24 24 41 1 ",
"  c #2F2F2F",
". c #313030",
"X c #333130",
"o c gray20",
"O c #3E3631",
"+ c #3F3632",
"@ c gray22",
"# c #403732",
"$ c #6F4C3A",
"% c #714C3A",
"& c #714D3B",
"* c #724D3A",
"= c #79503B",
"- c #7A503B",
"; c #7B513C",
": c #7C513C",
"> c #7D523C",
", c #7D523D",
"< c #80533D",
"1 c #89573F",
"2 c #8B583E",
"3 c #8E5A3F",
"4 c #925B40",
"5 c #935C40",
"6 c #945C40",
"7 c #955D41",
"8 c #965D41",
"9 c #975D41",
"0 c #CF764A",
"q c #D0774A",
"w c #D1774B",
"e c #D2784B",
"r c #EB834F",
"t c #EC844F",
"y c #EB8450",
"u c #ED8450",
"i c #F38751",
"p c #F48750",
"a c #F48751",
"s c #F58751",
"d c #F68851",
/* pixels */
"@@@@@@@@@@@@@@@@@@@@@@@@",
"oooooooooooooooooooooooo",
"                        ",
"                        ",
"                        ",
"        #8wuuq7#        ",
"       %rddddddr&       ",
"      %sdddddddds&      ",
"     #rddrddddyddy+     ",
"     8dddX,pp<.ddd6     ",
"     eddd4 -; 2dddq     ",
"     rdddd3  1ddddr     ",
"     rddda=  *idddy     ",
"     wddd> 44 :dddq     ",
"     7ddd#9dd9#ddd5     ",
"     #rddddddddddrO     ",
"      &sdddddddds$      ",
"       &yddddddr$       ",
"        +60tt05O        ",
"                        ",
"                        ",
"                        ",
"                        ",
"                        "
};
