/* XPM */
static char * close_pressed_xpm[] = {
"24 24 28 1",
" 	c None",
".	c #373737",
"+	c #2F2F2F",
"@	c #3B3E39",
"#	c #6A7362",
"$	c #7B8075",
"%	c #7F807D",
"&	c #5A6152",
"*	c #7B8A6C",
"=	c #3399FF",
"-	c #7B896C",
";	c #585F50",
">	c #7F827B",
",	c #303030",
"'	c #46523A",
")	c #7F817E",
"!	c #4B593D",
"~	c #303130",
"{	c #6A7261",
"]	c #50603F",
"^	c #49553B",
"/	c #4F5E3E",
"(	c #536541",
"_	c #4A573C",
":	c #7B8176",
"<	c #353832",
"[	c #3A3D37",
"}	c #3C3D39",
"........................",
"++++++++++++++++++++++++",
"++++++++++++++++++++++++",
"++++++++++++++++++++++++",
"++++++++++++++++++++++++",
"++++++++@#$%%$#@++++++++",
"+++++++&%*====-%;+++++++",
"++++++&>========%;++++++",
"+,,,+')==========>'+++++",
"+,,,+#*==+!==!~==*{+++++",
"++,,+{===]~^^~]===#+++++",
"++,,.%====]++/====)+++++",
"+++++#====^~+'====)+++++",
"++++~$===^~](+_===:~++++",
"+++++#*==<(==(<==-#+++++",
"+++++@%==========>[+++++",
"++++++;#========%&++++++",
"++++++.&)$====$%;+++++++",
"++++,,.,}{%{###}++++++++",
"+++++,,,,,.+....++++++++",
"++++++++++++++++++++++++",
"++++++++++++++++++++++++",
"++++++++++++++++++++++++",
"++++++++++++++++++++++++"};
