/* XPM */
static char * close_prelight_xpm[] = {
"24 24 28 1",
" 	c None",
".	c #373737",
"+	c #2F2F2F",
"@	c #3E423B",
"#	c #747F69",
"$	c #81887A",
"%	c #80827F",
"&	c #81877A",
"*	c #626C58",
"=	c #82857E",
"-	c #8B9E78",
";	c #3399FF",
">	c #626B58",
",	c #83887E",
"'	c #303130",
")	c #3E413B",
"!	c #747E69",
"~	c #313230",
"{	c #586847",
"]	c #5B6D49",
"^	c #647A4E",
"/	c #5F734C",
"(	c #62774D",
"_	c #576846",
":	c #536244",
"<	c #383C34",
"[	c #677E50",
"}	c #616A56",
"........................",
"++++++++++++++++++++++++",
"++++++++++++++++++++++++",
"++++++++++++++++++++++++",
"++++++++++++++++++++++++",
"++++++++@#$%%&#@++++++++",
"+++++++*=-;;;;-=>+++++++",
"++++++*,;;;;;;;;=>++++++",
"++++')=;;;;;;;;;;=@+++++",
"+++++!-;;~{;;]~;;-!+++++",
"+++++$;;;^+{{+/;;;&+++++",
"++++'%;;;;(++/;;;;%+++++",
"+++++=;;;;_'+:;;;;,'++++",
"+++++$;;;{+^^~_;;;='++++",
"+++++!-;;<[;;[<;;-!+++++",
"+++++)=;;;;;;;;;;,<+++++",
"++++++},;;;;;;;;,*++++++",
"+++++++>=-;;;;-,}+++++++",
"++++++++@!$%%&!<++++++++",
"++++++++++'+++++++++++++",
"++++++++++++++++++++++++",
"++++++++++++++++++++++++",
"++++++++++++++++++++++++",
"++++++++++++++++++++++++"};
