/* XPM */
static char *close_inactive[] = {
/* columns rows colors chars-per-pixel */
"24 24 17 1 ",
"  c #2F2F2F",
". c #313131",
"X c #373737",
"o c gray22",
"O c #3E3E3E",
"+ c #515151",
"@ c #555555",
"# c #585858",
"$ c #5F5F5F",
"% c #606060",
"& c #646464",
"* c #727272",
"= c gray51",
"- c #888888",
"; c gray56",
": c #909090",
"> c gray58",
/* pixels */
"XXXXXXXXXXXXXXXXXXXXXXXX",
"                        ",
"                        ",
"                        ",
"        .X   X..        ",
"        O**==**O        ",
"       %=-:>>:-=%       ",
"      %=:>>>>>>;=%      ",
"     +=:>:>>>>:>:=O     ",
"     *->>.#:>#.>>-*     ",
"     *:>>%.@@ $:>:*     ",
"     =:>>>$  $>>>>-     ",
"    .=>>>>+. +:>>>=     ",
"    X*:>>@.&%.@>>:=     ",
"     *->>o&>>&o>:-*     ",
"     O=:>>>>>>>>;=O     ",
"      $=;>>>>>>:=%      ",
"       $=-;:>:-=$       ",
"        O**==**O        ",
"        ..X . X.        ",
"                        ",
"                        ",
"                        ",
"                        "
};
