<?xml version="1.0" encoding="UTF-8" standalone="no"?>
<svg xmlns:dc="http://purl.org/dc/elements/1.1/"
     xmlns:cc="http://creativecommons.org/ns#"
     xmlns:rdf="http://www.w3.org/1999/02/22-rdf-syntax-ns#"
     xmlns:svg="http://www.w3.org/2000/svg"
     xmlns="http://www.w3.org/2000/svg"
     xmlns:xlink="http://www.w3.org/1999/xlink"
     width="128" height="128" version="1.1">
    <title>Clarity Icon</title>
    <desc>This icon is a part of Clarity icon theme for gtk</desc>
    <!--

    This icon is a part of Clarity vector icon theme for gtk

    Copyright (C) 2010 Jakub Jankiewicz <http://jcubic.pl> 

    licensed under the GNU GPL Version 3 <http://www.gnu.org/licenses/>.

    -->
    <metadata>
        <rdf:RDF>
            <cc:Work rdf:about="">
                <dc:title>Clarity Icon</dc:title>
                <dc:description>This icon is a part of Clarity icon theme for gtk</dc:description>
                <dc:creator>
                    <cc:Agent>
                        <dc:title>Jakub Jankiewicz</dc:title>
                    </cc:Agent>
                </dc:creator>
                <dc:rights>
                    <cc:Agent>
                        <dc:title>Jakub Jankiewicz</dc:title>
                    </cc:Agent>
                </dc:rights>
                <dc:date>2010</dc:date>
                <dc:format>image/svg+xml</dc:format>
                <dc:type rdf:resource="http://purl.org/dc/dcmitype/StillImage" />
                <cc:license rdf:resource="http://www.gnu.org/copyleft/gpl.html" />
             </cc:Work>
        </rdf:RDF>
    </metadata>
    <defs>
        <linearGradient x1="0" y1="128" x2="128" y2="0" id="gradient" gradientUnits="userSpaceOnUse">
            <stop id="start" style="stop-color:#333333;stop-opacity:1" offset="0" />
            <stop id="stop" style="stop-color:#5D5D5D;stop-opacity:1" offset="1" />
        </linearGradient>
    </defs>
    <path d="m 57.407804,14.075479 c -3.481607,0 -6.279635,2.798032 -6.279635,6.279635 l 0,0.909269 25.743662,0 0,-0.909269 c 0,-3.481603 -2.798019,-6.279635 -6.279635,-6.279635 l -13.184392,0 z M 39.56341,23.196578 c -6.903611,0 -12.474026,5.542004 -12.474026,12.445612 l 0,0.454634 73.821236,0 0,-0.454634 c 0,-6.903608 -5.570419,-12.445612 -12.47403,-12.445612 l -48.87318,0 z m -6.847928,15.173418 0,67.001714 c 0,4.73635 3.816464,8.55281 8.552807,8.55281 l 45.491837,0 c 4.736343,0 8.552806,-3.81646 8.552806,-8.55281 l 0,-67.001714 -62.59745,0 z m 13.468539,9.547318 c 1.539901,0 2.784635,1.244733 2.784635,2.784635 l 0,50.890621 c 0,1.5399 -1.244734,2.78463 -2.784635,2.78463 -1.5399,0 -2.784634,-1.24473 -2.784634,-2.78463 l 0,-50.890621 c 0,-1.539902 1.244734,-2.784635 2.784634,-2.784635 z m 17.815979,0 c 1.539901,0 2.784635,1.244733 2.784635,2.784635 l 0,50.890621 c 0,1.5399 -1.244734,2.78463 -2.784635,2.78463 -1.539901,0 -2.784635,-1.24473 -2.784635,-2.78463 l 0,-50.890621 c 0,-1.539902 1.244734,-2.784635 2.784635,-2.784635 z m 17.815979,0 c 1.5399,0 2.784634,1.244733 2.784634,2.784635 l 0,50.890621 c 0,1.5399 -1.244734,2.78463 -2.784634,2.78463 -1.539901,0 -2.784635,-1.24473 -2.784635,-2.78463 l 0,-50.890621 c 0,-1.539902 1.244734,-2.784635 2.784635,-2.784635 z" style="fill:url(#gradient);fill-opacity:1;stroke:none" />
</svg>