<?xml version="1.0" encoding="UTF-8" standalone="no"?>
<!-- Created with Inkscape (http://www.inkscape.org/) -->

<svg
   xmlns:dc="http://purl.org/dc/elements/1.1/"
   xmlns:cc="http://creativecommons.org/ns#"
   xmlns:rdf="http://www.w3.org/1999/02/22-rdf-syntax-ns#"
   xmlns:svg="http://www.w3.org/2000/svg"
   xmlns="http://www.w3.org/2000/svg"
   xmlns:sodipodi="http://sodipodi.sourceforge.net/DTD/sodipodi-0.dtd"
   xmlns:inkscape="http://www.inkscape.org/namespaces/inkscape"
   width="32"
   height="32"
   id="svg3768"
   version="1.1"
   inkscape:version="0.48.2 r9819"
   sodipodi:docname="window-close.svg">
  <defs
     id="defs3770" />
  <sodipodi:namedview
     id="base"
     pagecolor="#000000"
     bordercolor="#666666"
     borderopacity="1.0"
     inkscape:pageopacity="1"
     inkscape:pageshadow="2"
     inkscape:zoom="5.5520833"
     inkscape:cx="4.3227017"
     inkscape:cy="12"
     inkscape:current-layer="layer1"
     showgrid="true"
     inkscape:document-units="px"
     inkscape:grid-bbox="true"
     inkscape:window-width="1366"
     inkscape:window-height="713"
     inkscape:window-x="0"
     inkscape:window-y="26"
     inkscape:window-maximized="1">
    <inkscape:grid
       type="xygrid"
       id="grid4311"
       empspacing="5"
       visible="true"
       enabled="true"
       snapvisiblegridlinesonly="true" />
  </sodipodi:namedview>
  <metadata
     id="metadata3773">
    <rdf:RDF>
      <cc:Work
         rdf:about="">
        <dc:format>image/svg+xml</dc:format>
        <dc:type
           rdf:resource="http://purl.org/dc/dcmitype/StillImage" />
        <dc:title />
      </cc:Work>
    </rdf:RDF>
  </metadata>
  <g
     id="layer1"
     inkscape:label="Layer 1"
     inkscape:groupmode="layer"
     transform="translate(0,-32)">
    <path
       sodipodi:type="arc"
       style="opacity:0.1;fill:#ffffff;fill-opacity:1;fill-rule:nonzero;stroke:#009900;stroke-width:0;stroke-miterlimit:4;stroke-opacity:1;stroke-dasharray:none"
       id="path3776"
       sodipodi:cx="17.84091"
       sodipodi:cy="11.75"
       sodipodi:rx="11.704545"
       sodipodi:ry="11.75"
       d="m 29.545455,11.75 a 11.704545,11.75 0 1 1 -23.4090901,0 11.704545,11.75 0 1 1 23.4090901,0 z"
       transform="matrix(1.3669903,0,0,1.3617021,-8.3883513,32)" />
    <path
       sodipodi:type="arc"
       style="opacity:0.85;fill:#000000;fill-opacity:1;fill-rule:nonzero;stroke:#009900;stroke-width:0;stroke-miterlimit:4;stroke-opacity:1;stroke-dasharray:none"
       id="path3776-9"
       sodipodi:cx="17.84091"
       sodipodi:cy="11.75"
       sodipodi:rx="11.704545"
       sodipodi:ry="11.75"
       d="m 29.545455,11.75 a 11.704545,11.75 0 1 1 -23.4090901,0 11.704545,11.75 0 1 1 23.4090901,0 z"
       transform="matrix(1.2815534,0,0,1.2765957,-6.8640793,33)" />
    <path
       style="color:#000000;fill:#ffffff;fill-opacity:1;fill-rule:nonzero;stroke:none;stroke-width:4;marker:none;visibility:visible;display:inline;overflow:visible;enable-background:accumulate"
       d="m 12.583771,43 c -0.129854,0 -0.265594,0.03064 -0.365093,0.130297 l -1.069202,1.068432 c -0.199003,0.1993 -0.199003,0.530359 0,0.72966 l 3.051137,3.074999 -3.051137,3.04894 c -0.199301,0.199439 -0.199301,0.530224 0,0.729661 l 1.069202,1.068432 c 0.199299,0.199439 0.530885,0.199439 0.730185,0 L 16,49.801482 l 3.051137,3.048939 c 0.199001,0.199301 0.531185,0.199301 0.730186,0 l 1.069201,-1.068432 c 0.199003,-0.199301 0.199003,-0.53036 0,-0.729661 l -3.051136,-3.04894 3.051136,-3.074999 c 0.199301,-0.199438 0.199301,-0.530223 0,-0.72966 L 19.781323,43.130297 C 19.681678,43.030582 19.5202,43 19.390152,43 c -0.130048,0 -0.239366,0.03059 -0.339015,0.130297 L 16,46.179237 12.948863,43.130297 C 12.849363,43.03065 12.713625,43 12.583771,43 z"
       id="rect2987"
       inkscape:connector-curvature="0" />
  </g>
</svg>
