<?xml version="1.0" encoding="UTF-8" standalone="no"?>
<!-- Created with Inkscape (http://www.inkscape.org/) -->

<svg
   xmlns:dc="http://purl.org/dc/elements/1.1/"
   xmlns:cc="http://creativecommons.org/ns#"
   xmlns:rdf="http://www.w3.org/1999/02/22-rdf-syntax-ns#"
   xmlns:svg="http://www.w3.org/2000/svg"
   xmlns="http://www.w3.org/2000/svg"
   xmlns:xlink="http://www.w3.org/1999/xlink"
   xmlns:sodipodi="http://sodipodi.sourceforge.net/DTD/sodipodi-0.dtd"
   xmlns:inkscape="http://www.inkscape.org/namespaces/inkscape"
   width="14"
   height="14"
   id="svg2985"
   version="1.1"
   inkscape:version="0.48.3.1 r9886"
   sodipodi:docname="radiobutton.svg">
  <defs
     id="defs2987">
    <linearGradient
       id="linearGradient3814">
      <stop
         style="stop-color:#8f8f8f;stop-opacity:1;"
         offset="0"
         id="stop3816" />
      <stop
         style="stop-color:#d7d7d7;stop-opacity:1;"
         offset="1"
         id="stop3818" />
    </linearGradient>
    <linearGradient
       id="linearGradient3807">
      <stop
         id="stop3809"
         offset="0"
         style="stop-color:#151515;stop-opacity:1;" />
      <stop
         id="stop3811"
         offset="1"
         style="stop-color:#959595;stop-opacity:1;" />
    </linearGradient>
    <linearGradient
       y2="5"
       x2="1.0000002"
       y1="15"
       x1="1.0000002"
       gradientUnits="userSpaceOnUse"
       id="linearGradient3046"
       xlink:href="#linearGradient3807"
       inkscape:collect="always" />
    <linearGradient
       inkscape:collect="always"
       xlink:href="#linearGradient3814"
       id="linearGradient3820"
       x1="-5"
       y1="10"
       x2="7"
       y2="10"
       gradientUnits="userSpaceOnUse" />
  </defs>
  <sodipodi:namedview
     id="base"
     pagecolor="#3c4441"
     bordercolor="#666666"
     borderopacity="1.0"
     inkscape:pageopacity="1"
     inkscape:pageshadow="2"
     inkscape:zoom="1"
     inkscape:cx="-9.7673273"
     inkscape:cy="13.059079"
     inkscape:current-layer="layer1"
     showgrid="true"
     inkscape:grid-bbox="true"
     inkscape:document-units="px"
     inkscape:window-width="1366"
     inkscape:window-height="717"
     inkscape:window-x="0"
     inkscape:window-y="24"
     inkscape:window-maximized="1"
     fit-margin-top="0"
     fit-margin-left="0"
     fit-margin-right="0"
     fit-margin-bottom="0">
    <inkscape:grid
       type="xygrid"
       id="grid3779"
       empspacing="5"
       visible="true"
       enabled="true"
       snapvisiblegridlinesonly="true"
       originx="-0.9999999px"
       originy="-1px" />
  </sodipodi:namedview>
  <metadata
     id="metadata2990">
    <rdf:RDF>
      <cc:Work
         rdf:about="">
        <dc:format>image/svg+xml</dc:format>
        <dc:type
           rdf:resource="http://purl.org/dc/dcmitype/StillImage" />
        <dc:title />
      </cc:Work>
    </rdf:RDF>
  </metadata>
  <g
     id="layer1"
     inkscape:label="Layer 1"
     inkscape:groupmode="layer"
     transform="translate(-0.9999999,-33)">
    <path
       sodipodi:type="arc"
       style="fill:#c6c6c6;fill-opacity:1;stroke:none"
       id="path3781-9-5-7"
       sodipodi:cx="1"
       sodipodi:cy="10"
       sodipodi:rx="6"
       sodipodi:ry="5"
       d="m 7,10 c 0,2.761424 -2.6862915,5 -6,5 -3.3137085,0 -6,-2.238576 -6,-5 0,-2.7614237 2.6862915,-5 6,-5 3.3137085,0 6,2.2385763 6,5 z"
       transform="matrix(-1.1666667,0,0,-1.4,9.1666668,54)" />
    <path
       sodipodi:type="arc"
       style="fill:#ffffff;fill-opacity:1;stroke:none"
       id="path3781-9-5-7-6"
       sodipodi:cx="1"
       sodipodi:cy="10"
       sodipodi:rx="6"
       sodipodi:ry="5"
       d="m 7,10 c 0,2.761424 -2.6862915,5 -6,5 -3.3137085,0 -6,-2.238576 -6,-5 0,-2.7614237 2.6862915,-5 6,-5 3.3137085,0 6,2.2385763 6,5 z"
       transform="matrix(-1,0,0,-1.2,9,52)" />
    <path
       sodipodi:type="arc"
       style="fill:url(#linearGradient3046);fill-opacity:1;stroke:none"
       id="path3781-9-5-7-9"
       sodipodi:cx="1"
       sodipodi:cy="10"
       sodipodi:rx="6"
       sodipodi:ry="5"
       d="m 7,10 c 0,2.761424 -2.6862915,5 -6,5 -3.3137085,0 -6,-2.238576 -6,-5 0,-2.7614237 2.6862915,-5 6,-5 3.3137085,0 6,2.2385763 6,5 z"
       transform="matrix(0.66666667,0,0,0.8,7.3333334,32)" />
    <path
       sodipodi:type="arc"
       style="fill:url(#linearGradient3820);fill-opacity:1;stroke:none"
       id="path3781-9-5-7-9-0"
       sodipodi:cx="1"
       sodipodi:cy="10"
       sodipodi:rx="6"
       sodipodi:ry="5"
       d="m 7,10 c 0,2.761424 -2.6862915,5 -6,5 -3.3137085,0 -6,-2.238576 -6,-5 0,-2.7614237 2.6862915,-5 6,-5 3.3137085,0 6,2.2385763 6,5 z"
       transform="matrix(0,-0.33333333,0.4,0,3.9999999,39.333333)" />
  </g>
</svg>
