<?xml version="1.0" encoding="UTF-8" standalone="no"?>
<!-- Created with Inkscape (http://www.inkscape.org/) -->

<svg
   xmlns:dc="http://purl.org/dc/elements/1.1/"
   xmlns:cc="http://creativecommons.org/ns#"
   xmlns:rdf="http://www.w3.org/1999/02/22-rdf-syntax-ns#"
   xmlns:svg="http://www.w3.org/2000/svg"
   xmlns="http://www.w3.org/2000/svg"
   xmlns:xlink="http://www.w3.org/1999/xlink"
   xmlns:sodipodi="http://sodipodi.sourceforge.net/DTD/sodipodi-0.dtd"
   xmlns:inkscape="http://www.inkscape.org/namespaces/inkscape"
   width="222"
   height="120"
   id="svg2985"
   version="1.1"
   inkscape:version="0.48.3.1 r9886"
   sodipodi:docname="trashbox.svg">
  <defs
     id="defs2987">
    <linearGradient
       id="linearGradient3778">
      <stop
         style="stop-color:#000000;stop-opacity:1;"
         offset="0"
         id="stop3780" />
      <stop
         style="stop-color:#000000;stop-opacity:0.68695652;"
         offset="1"
         id="stop3782" />
    </linearGradient>
    <linearGradient
       id="linearGradient3797">
      <stop
         id="stop3799"
         offset="0"
         style="stop-color:#4eb4eb;stop-opacity:1;" />
      <stop
         id="stop3801"
         offset="1"
         style="stop-color:#388ce6;stop-opacity:1;" />
    </linearGradient>
    <linearGradient
       id="linearGradient3759">
      <stop
         style="stop-color:#333333;stop-opacity:1;"
         offset="0"
         id="stop3761" />
      <stop
         style="stop-color:#464646;stop-opacity:1;"
         offset="1"
         id="stop3763" />
    </linearGradient>
    <linearGradient
       id="linearGradient3765">
      <stop
         style="stop-color:#d14836;stop-opacity:1;"
         offset="0"
         id="stop3767" />
      <stop
         style="stop-color:#dd4b39;stop-opacity:1;"
         offset="1"
         id="stop3769" />
    </linearGradient>
    <linearGradient
       inkscape:collect="always"
       xlink:href="#linearGradient3765-6"
       id="linearGradient3771-1"
       x1="50"
       y1="-1"
       x2="50"
       y2="48"
       gradientUnits="userSpaceOnUse"
       gradientTransform="matrix(2.2653064,0,0,2.2962964,-2.3278064,-69.641204)" />
    <linearGradient
       id="linearGradient3765-6">
      <stop
         style="stop-color:#dd4b39;stop-opacity:1;"
         offset="0"
         id="stop3767-7" />
      <stop
         style="stop-color:#d14836;stop-opacity:1;"
         offset="1"
         id="stop3769-6" />
    </linearGradient>
  </defs>
  <sodipodi:namedview
     id="base"
     pagecolor="#ffffff"
     bordercolor="#666666"
     borderopacity="1.0"
     inkscape:pageopacity="0.0"
     inkscape:pageshadow="2"
     inkscape:zoom="3.9999998"
     inkscape:cx="-3.5526361"
     inkscape:cy="52.797965"
     inkscape:current-layer="layer1"
     showgrid="true"
     inkscape:grid-bbox="true"
     inkscape:document-units="px"
     inkscape:window-width="1280"
     inkscape:window-height="746"
     inkscape:window-x="0"
     inkscape:window-y="28"
     inkscape:window-maximized="1"
     fit-margin-top="0"
     fit-margin-left="0"
     fit-margin-right="0"
     fit-margin-bottom="-4">
    <inkscape:grid
       type="xygrid"
       id="grid3773"
       empspacing="5"
       visible="true"
       enabled="true"
       snapvisiblegridlinesonly="true"
       originx="0.0625px"
       originy="0.0625px" />
  </sodipodi:namedview>
  <metadata
     id="metadata2990">
    <rdf:RDF>
      <cc:Work
         rdf:about="">
        <dc:format>image/svg+xml</dc:format>
        <dc:type
           rdf:resource="http://purl.org/dc/dcmitype/StillImage" />
        <dc:title />
      </cc:Work>
    </rdf:RDF>
  </metadata>
  <g
     id="layer1"
     inkscape:label="Layer 1"
     inkscape:groupmode="layer"
     transform="translate(0.0625,71.9375)">
    <g
       transform="matrix(2.2222224,0,0,2.2222224,-431.17316,-2196.8268)"
       id="g40072"
       inkscape:label="folder-remote" />
    <rect
       style="fill:#e1e6ee;fill-opacity:1;stroke:#99a8c7;stroke-width:1.99088836000000002;stroke-linecap:round;stroke-linejoin:round;stroke-miterlimit:4;stroke-opacity:1;stroke-dasharray:none;stroke-dashoffset:0"
       id="rect3763-5"
       width="218"
       height="124"
       x="2"
       y="-70"
       rx="2.9727273"
       ry="3" />
    <path
       style="color:#000000;fill:#133783;fill-opacity:1;fill-rule:nonzero;stroke:none;stroke-width:1.50000000000000000;marker:none;visibility:visible;display:inline;overflow:visible;enable-background:accumulate"
       d="m 99.32212,-42.706752 c -2.13077,0 -3.84615,1.71539 -3.84615,3.846156 l 0,3.846156 -7.69231,0 c -2.13078,0 -3.84616,1.715392 -3.84616,3.846157 l 0,3.846157 50,0 0,-3.846157 c 0,-2.130766 -1.71538,-3.846157 -3.84613,-3.846157 l -7.69235,0 0,-3.846156 c 0,-2.130766 -1.71538,-3.846156 -3.84613,-3.846156 z m 3.84615,3.846156 11.53848,0 0,3.846156 -11.53848,0 z m -15.38461,15.384627 0,36.538482 c 0,3.196159 2.57307,5.769239 5.76923,5.769239 l 30.76928,0 c 3.19613,0 5.7692,-2.57308 5.7692,-5.769239 l 0,-36.538482 z m 9.61538,7.692312 c 1.06539,0 1.92308,0.857695 1.92308,1.923082 l 0,23.0769315 c 0,1.0653875 -0.85769,1.9230825 -1.92308,1.9230825 -1.06538,0 -1.92307,-0.857695 -1.92307,-1.9230825 l 0,-23.0769315 c 0,-1.065387 0.85769,-1.923082 1.92307,-1.923082 z m 7.69231,0 c 1.06537,0 1.92305,0.857695 1.92305,1.923082 l 0,23.0769315 c 0,1.0653875 -0.85768,1.9230825 -1.92305,1.9230825 -1.06538,0 -1.92308,-0.857695 -1.92308,-1.9230825 l 0,-23.0769315 c 0,-1.065387 0.8577,-1.923082 1.92308,-1.923082 z m 7.69234,0 c 1.06538,0 1.92306,0.857695 1.92306,1.923082 l 0,23.0769315 c 0,1.0653875 -0.85768,1.9230825 -1.92306,1.9230825 -1.06538,0 -1.92307,-0.857695 -1.92307,-1.9230825 l 0,-23.0769315 c 0,-1.065387 0.85769,-1.923082 1.92307,-1.923082 z m 7.69226,0 c 1.06538,0 1.92307,0.857695 1.92307,1.923082 l 0,23.0769315 c 0,1.0653875 -0.85769,1.9230825 -1.92307,1.9230825 -1.06538,0 -1.92306,-0.857695 -1.92306,-1.9230825 l 0,-23.0769315 c 0,-1.065387 0.85768,-1.923082 1.92306,-1.923082 z"
       id="rect2993"
       inkscape:connector-curvature="0"
       sodipodi:nodetypes="sscssccsscssscccccccsscccssssssssssssssssssssssssssss" />
  </g>
</svg>
