<?xml version="1.0" encoding="UTF-8" standalone="no"?>
<!-- Created with Inkscape (http://www.inkscape.org/) -->

<svg
   xmlns:dc="http://purl.org/dc/elements/1.1/"
   xmlns:cc="http://creativecommons.org/ns#"
   xmlns:rdf="http://www.w3.org/1999/02/22-rdf-syntax-ns#"
   xmlns:svg="http://www.w3.org/2000/svg"
   xmlns="http://www.w3.org/2000/svg"
   xmlns:xlink="http://www.w3.org/1999/xlink"
   xmlns:sodipodi="http://sodipodi.sourceforge.net/DTD/sodipodi-0.dtd"
   xmlns:inkscape="http://www.inkscape.org/namespaces/inkscape"
   width="222"
   height="120"
   id="svg2985"
   version="1.1"
   inkscape:version="0.48.3.1 r9886"
   sodipodi:docname="trashbox.svg">
  <defs
     id="defs2987">
    <linearGradient
       id="linearGradient3759">
      <stop
         style="stop-color:#333333;stop-opacity:1;"
         offset="0"
         id="stop3761" />
      <stop
         style="stop-color:#464646;stop-opacity:1;"
         offset="1"
         id="stop3763" />
    </linearGradient>
    <linearGradient
       id="linearGradient3765">
      <stop
         style="stop-color:#ffffff;stop-opacity:1;"
         offset="0"
         id="stop3767" />
      <stop
         style="stop-color:#ababab;stop-opacity:1;"
         offset="1"
         id="stop3769" />
    </linearGradient>
    <linearGradient
       inkscape:collect="always"
       xlink:href="#linearGradient3765"
       id="linearGradient3771"
       x1="50"
       y1="-1"
       x2="50"
       y2="48"
       gradientUnits="userSpaceOnUse"
       gradientTransform="matrix(2.2653064,0,0,2.2962964,-2.3278064,-69.641204)" />
    <linearGradient
       inkscape:collect="always"
       xlink:href="#linearGradient3759"
       id="linearGradient3766"
       x1="110"
       y1="-47"
       x2="110"
       y2="23"
       gradientUnits="userSpaceOnUse" />
  </defs>
  <sodipodi:namedview
     id="base"
     pagecolor="#ffffff"
     bordercolor="#666666"
     borderopacity="1.0"
     inkscape:pageopacity="0.0"
     inkscape:pageshadow="2"
     inkscape:zoom="2.8284271"
     inkscape:cx="74.858036"
     inkscape:cy="50.752394"
     inkscape:current-layer="layer1"
     showgrid="true"
     inkscape:grid-bbox="true"
     inkscape:document-units="px"
     inkscape:window-width="1165"
     inkscape:window-height="683"
     inkscape:window-x="21"
     inkscape:window-y="0"
     inkscape:window-maximized="0"
     fit-margin-top="0"
     fit-margin-left="0"
     fit-margin-right="0"
     fit-margin-bottom="-4">
    <inkscape:grid
       type="xygrid"
       id="grid3773"
       empspacing="5"
       visible="true"
       enabled="true"
       snapvisiblegridlinesonly="true"
       originx="0.0625px"
       originy="0.0625px" />
  </sodipodi:namedview>
  <metadata
     id="metadata2990">
    <rdf:RDF>
      <cc:Work
         rdf:about="">
        <dc:format>image/svg+xml</dc:format>
        <dc:type
           rdf:resource="http://purl.org/dc/dcmitype/StillImage" />
        <dc:title />
      </cc:Work>
    </rdf:RDF>
  </metadata>
  <g
     id="layer1"
     inkscape:label="Layer 1"
     inkscape:groupmode="layer"
     transform="translate(0.0625,71.9375)">
    <rect
       style="fill:url(#linearGradient3771);fill-opacity:1;stroke:#1d70f8;stroke-width:0;stroke-linejoin:round;stroke-miterlimit:4;stroke-opacity:1;stroke-dasharray:none;stroke-dashoffset:0"
       id="rect3763"
       width="222"
       height="124"
       x="-0.0625"
       y="-71.9375"
       rx="4"
       ry="4" />
    <g
       transform="matrix(2.2222224,0,0,2.2222224,-431.17316,-2196.8268)"
       id="g40072"
       inkscape:label="folder-remote" />
    <path
       style="color:#000000;fill:#eeeeee;fill-opacity:1;fill-rule:nonzero;stroke:none;stroke-width:1.5;marker:none;visibility:visible;display:inline;overflow:visible;enable-background:accumulate"
       d="m 99.826406,-46.492607 c -2.462227,0 -4.444444,1.982217 -4.444444,4.444446 l 0,4.444445 -8.88889,0 c -2.462228,0 -4.444445,1.982217 -4.444445,4.444445 l 0,4.444444 57.777743,0 0,-4.444444 c 0,-2.462228 -1.98221,-4.444445 -4.44441,-4.444445 l -8.88893,0 0,-4.444445 c 0,-2.462229 -1.98222,-4.444446 -4.44442,-4.444446 z m 4.444434,4.444446 13.33335,0 0,4.444445 -13.33335,0 z m -17.777768,17.777778 0,42.222221 c 0,3.693331 2.973331,6.666662 6.666662,6.666662 l 35.555596,0 c 3.69331,0 6.66663,-2.973331 6.66663,-6.666662 l 0,-42.222221 z m 11.111107,8.88889 c 1.231114,0 2.222227,0.991104 2.222227,2.222218 l 0,26.666669 c 0,1.231113 -0.991113,2.222217 -2.222227,2.222217 -1.231113,0 -2.222217,-0.991104 -2.222217,-2.222217 l 0,-26.666669 c 0,-1.231114 0.991104,-2.222218 2.222217,-2.222218 z m 8.888881,0 c 1.2311,0 2.2222,0.991104 2.2222,2.222218 l 0,26.666669 c 0,1.231113 -0.9911,2.222217 -2.2222,2.222217 -1.2311,0 -2.22222,-0.991104 -2.22222,-2.222217 l 0,-26.666669 c 0,-1.231114 0.99112,-2.222218 2.22222,-2.222218 z m 8.88893,0 c 1.2311,0 2.2222,0.991104 2.2222,2.222218 l 0,26.666669 c 0,1.231113 -0.9911,2.222217 -2.2222,2.222217 -1.23111,0 -2.22222,-0.991104 -2.22222,-2.222217 l 0,-26.666669 c 0,-1.231114 0.99111,-2.222218 2.22222,-2.222218 z m 8.88882,0 c 1.23111,0 2.22222,0.991104 2.22222,2.222218 l 0,26.666669 c 0,1.231113 -0.99111,2.222217 -2.22222,2.222217 -1.2311,0 -2.2222,-0.991104 -2.2222,-2.222217 l 0,-26.666669 c 0,-1.231114 0.9911,-2.222218 2.2222,-2.222218 z"
       id="rect2993-2"
       inkscape:connector-curvature="0"
       sodipodi:nodetypes="sscssccsscssscccccccsscccssssssssssssssssssssssssssss" />
    <path
       style="color:#000000;fill:url(#linearGradient3766);fill-opacity:1;fill-rule:nonzero;stroke:none;stroke-width:1.50000000000000000;marker:none;visibility:visible;display:inline;overflow:visible;enable-background:accumulate"
       d="m 99.826406,-47.493059 c -2.462227,0 -4.444444,1.982227 -4.444444,4.444444 l 0,4.444445 -8.88889,0 c -2.462228,0 -4.444445,1.982228 -4.444445,4.444445 l 0,4.444446 57.777743,0 0,-4.444446 c 0,-2.462217 -1.98221,-4.444445 -4.44441,-4.444445 l -8.88893,0 0,-4.444445 c 0,-2.462217 -1.98222,-4.444444 -4.44442,-4.444444 z m 4.444434,4.444444 13.33335,0 0,4.444445 -13.33335,0 z m -17.777768,17.77778 0,42.22222 c 0,3.693338 2.973331,6.666673 6.666662,6.666673 l 35.555596,0 c 3.69331,0 6.66663,-2.973335 6.66663,-6.666673 l 0,-42.22222 z m 11.111107,8.888889 c 1.231114,0 2.222227,0.991114 2.222227,2.222227 l 0,26.66666 c 0,1.231113 -0.991113,2.222227 -2.222227,2.222227 -1.231113,0 -2.222217,-0.991114 -2.222217,-2.222227 l 0,-26.66666 c 0,-1.231113 0.991104,-2.222227 2.222217,-2.222227 z m 8.888881,0 c 1.2311,0 2.2222,0.991114 2.2222,2.222227 l 0,26.66666 c 0,1.231113 -0.9911,2.222227 -2.2222,2.222227 -1.2311,0 -2.22222,-0.991114 -2.22222,-2.222227 l 0,-26.66666 c 0,-1.231113 0.99112,-2.222227 2.22222,-2.222227 z m 8.88893,0 c 1.2311,0 2.2222,0.991114 2.2222,2.222227 l 0,26.66666 c 0,1.231113 -0.9911,2.222227 -2.2222,2.222227 -1.23111,0 -2.22222,-0.991114 -2.22222,-2.222227 l 0,-26.66666 c 0,-1.231113 0.99111,-2.222227 2.22222,-2.222227 z m 8.88882,0 c 1.23111,0 2.22222,0.991114 2.22222,2.222227 l 0,26.66666 c 0,1.231113 -0.99111,2.222227 -2.22222,2.222227 -1.2311,0 -2.2222,-0.991114 -2.2222,-2.222227 l 0,-26.66666 c 0,-1.231113 0.9911,-2.222227 2.2222,-2.222227 z"
       id="rect2993"
       inkscape:connector-curvature="0"
       sodipodi:nodetypes="sscssccsscssscccccccsscccssssssssssssssssssssssssssss" />
  </g>
</svg>
