<?xml version="1.0" encoding="UTF-8" standalone="no"?>
<svg
   xmlns:dc="http://purl.org/dc/elements/1.1/"
   xmlns:cc="http://creativecommons.org/ns#"
   xmlns:rdf="http://www.w3.org/1999/02/22-rdf-syntax-ns#"
   xmlns:svg="http://www.w3.org/2000/svg"
   xmlns="http://www.w3.org/2000/svg"
   height="20"
   viewBox="0 0 20 20"
   width="20"
   version="1.1"
   id="svg4"
   style="fill:#000000">
  <metadata
     id="metadata10">
    <rdf:RDF>
      <cc:Work
         rdf:about="">
        <dc:format>image/svg+xml</dc:format>
        <dc:type
           rdf:resource="http://purl.org/dc/dcmitype/StillImage" />
        <dc:title></dc:title>
      </cc:Work>
    </rdf:RDF>
  </metadata>
  <defs
     id="defs8" />
  <path
     id="path2"
     d="M 2.2226562 0 C 0.98932284 0 -2.9605947e-16 1.000434 0 2.2226562 L 0 17.777344 C 0 18.999567 0.98932284 20 2.2226562 20 L 17.777344 20 C 19.010678 20 20 18.999567 20 17.777344 L 20 2.2226562 C 20 1.000434 19.010678 -2.9605947e-16 17.777344 0 L 2.2226562 0 z M 3.7773438 2 L 16.222656 2 C 17.209324 2 18 2.7995659 18 3.7773438 L 18 16.222656 C 18 17.200435 17.209323 18 16.222656 18 L 3.7773438 18 C 2.7906767 18 2 17.200435 2 16.222656 L 2 3.7773438 C 2 2.7995659 2.7906767 2 3.7773438 2 z "
     style="fill:#008ef2;fill-opacity:1;stroke-width:1.11111104" />
</svg>
