/* XPM */
static char * right_inactive_xpm[] = {
"2 16 3 1",
" 	c None",
".	c #454545",
"+	c #585858",
".+",
".+",
".+",
".+",
".+",
".+",
".+",
".+",
".+",
".+",
".+",
".+",
".+",
".+",
".+",
".+"};
