/* XPM */
static char * title_3_inactive_xpm[] = {
"15 29 3 1",
" 	c None",
".	c #585858",
"+	c #454545",
"...............",
"+++++++++++++++",
"+++++++++++++++",
"+++++++++++++++",
"+++++++++++++++",
"+++++++++++++++",
"+++++++++++++++",
"+++++++++++++++",
"+++++++++++++++",
"+++++++++++++++",
"+++++++++++++++",
"+++++++++++++++",
"+++++++++++++++",
"+++++++++++++++",
"+++++++++++++++",
"+++++++++++++++",
"+++++++++++++++",
"+++++++++++++++",
"+++++++++++++++",
"+++++++++++++++",
"+++++++++++++++",
"+++++++++++++++",
"+++++++++++++++",
"+++++++++++++++",
"+++++++++++++++",
"+++++++++++++++",
"+++++++++++++++",
"+++++++++++++++",
"+++++++++++++++"};
