/* XPM */
static char * top_right_active_xpm[] = {
"10 29 9 1",
" 	c None",
".	c #5D5D5D",
"+	c #575757",
"@	c #454545",
"#	c #464646",
"$	c #4B4B4B",
"%	c #555555",
"&	c #505050",
"*	c #565656",
".....+    ",
"@@@@#$%+  ",
"@@@@@@@&+ ",
"@@@@@@@@+ ",
"@@@@@@@@$*",
"@@@@@@@@#.",
"@@@@@@@@@.",
"@@@@@@@@@.",
"@@@@@@@@@.",
"@@@@@@@@@.",
"@@@@@@@@@.",
"@@@@@@@@@.",
"@@@@@@@@@.",
"@@@@@@@@@.",
"@@@@@@@@@.",
"@@@@@@@@@.",
"@@@@@@@@@.",
"@@@@@@@@@.",
"@@@@@@@@@.",
"@@@@@@@@@.",
"@@@@@@@@@.",
"@@@@@@@@@.",
"@@@@@@@@@.",
"@@@@@@@@@.",
"@@@@@@@@@.",
"@@@@@@@@@.",
"@@@@@@@@@.",
"@@@@@@@@@.",
"@@@@@@@@@."};
