/* XPM */
static char * top_right_inactive_xpm[] = {
"10 29 11 1",
" 	c None",
".	c #585858",
"+	c #454545",
"@	c #474747",
"#	c #4D4D4D",
"$	c #565656",
"%	c #575757",
"&	c #515151",
"*	c #4C4C4C",
"=	c #4E4E4E",
"-	c #464646",
"......    ",
"++++@#$%  ",
"+++++++&% ",
"+++++++*% ",
"++++++++=.",
"++++++++-.",
"+++++++++.",
"+++++++++.",
"+++++++++.",
"+++++++++.",
"+++++++++.",
"+++++++++.",
"+++++++++.",
"+++++++++.",
"+++++++++.",
"+++++++++.",
"+++++++++.",
"+++++++++.",
"+++++++++.",
"+++++++++.",
"+++++++++.",
"+++++++++.",
"+++++++++.",
"+++++++++.",
"+++++++++.",
"+++++++++.",
"+++++++++.",
"+++++++++.",
"+++++++++."};
