<?xml version="1.0" encoding="UTF-8" standalone="no"?>
<!-- Created with Inkscape (http://www.inkscape.org/) -->

<svg
   xmlns:dc="http://purl.org/dc/elements/1.1/"
   xmlns:cc="http://creativecommons.org/ns#"
   xmlns:rdf="http://www.w3.org/1999/02/22-rdf-syntax-ns#"
   xmlns:svg="http://www.w3.org/2000/svg"
   xmlns="http://www.w3.org/2000/svg"
   xmlns:xlink="http://www.w3.org/1999/xlink"
   xmlns:sodipodi="http://sodipodi.sourceforge.net/DTD/sodipodi-0.dtd"
   xmlns:inkscape="http://www.inkscape.org/namespaces/inkscape"
   width="30"
   height="30"
   id="svg3832"
   version="1.1"
   inkscape:version="0.48.3.1 r9886"
   sodipodi:docname="close.svg">
  <defs
     id="defs3834">
    <linearGradient
       id="linearGradient5001">
      <stop
         id="stop5003"
         offset="0"
         style="stop-color:#000000;stop-opacity:0.502" />
      <stop
         style="stop-color:#000000;stop-opacity:0.251"
         offset="1"
         id="stop5005" />
    </linearGradient>
    <linearGradient
       id="linearGradient4614">
      <stop
         style="stop-color:#000000;stop-opacity:1;"
         offset="0"
         id="stop4616" />
      <stop
         style="stop-color:#000000;stop-opacity:0;"
         offset="1"
         id="stop4618" />
    </linearGradient>
    <linearGradient
       inkscape:collect="always"
       xlink:href="#linearGradient3818"
       id="linearGradient3812"
       x1="-3"
       y1="5.2857141"
       x2="25.857143"
       y2="5.2857141"
       gradientUnits="userSpaceOnUse" />
    <linearGradient
       id="linearGradient4250-5">
      <stop
         id="stop4252-5"
         offset="0"
         style="stop-color:#ffffff;stop-opacity:0;" />
      <stop
         id="stop4254-2"
         offset="1"
         style="stop-color:#ffffff;stop-opacity:0.2" />
    </linearGradient>
    <linearGradient
       inkscape:collect="always"
       xlink:href="#linearGradient5001"
       id="linearGradient4420"
       x1="7.9399977"
       y1="35.053188"
       x2="17.939999"
       y2="35.053188"
       gradientUnits="userSpaceOnUse"
       gradientTransform="matrix(0,1,-1,0,49.993187,20.113192)" />
    <linearGradient
       inkscape:collect="always"
       xlink:href="#linearGradient4250-5"
       id="linearGradient4983"
       gradientUnits="userSpaceOnUse"
       gradientTransform="matrix(0,-0.90099008,-0.84259258,0,19.393702,43.350219)"
       x1="-3"
       y1="5.2857141"
       x2="25.857143"
       y2="5.2857141" />
    <linearGradient
       inkscape:collect="always"
       xlink:href="#linearGradient4614"
       id="linearGradient3208"
       gradientUnits="userSpaceOnUse"
       gradientTransform="matrix(0,1,-1,0,49.993187,20.113192)"
       x1="7.9399977"
       y1="35.053188"
       x2="12.939998"
       y2="35.053188" />
    <linearGradient
       id="linearGradient3818">
      <stop
         style="stop-color:#51bbe9;stop-opacity:1;"
         offset="0"
         id="stop3820" />
      <stop
         style="stop-color:#1b62ad;stop-opacity:1;"
         offset="1"
         id="stop3822" />
    </linearGradient>
  </defs>
  <sodipodi:namedview
     id="base"
     pagecolor="#000000"
     bordercolor="#666666"
     borderopacity="1.0"
     inkscape:pageopacity="0.78431373"
     inkscape:pageshadow="2"
     inkscape:zoom="1"
     inkscape:cx="-5.9922355"
     inkscape:cy="15.024955"
     inkscape:current-layer="layer1"
     showgrid="false"
     inkscape:grid-bbox="true"
     inkscape:document-units="px"
     fit-margin-top="0"
     fit-margin-left="0"
     fit-margin-right="0"
     fit-margin-bottom="0"
     inkscape:window-width="1366"
     inkscape:window-height="715"
     inkscape:window-x="0"
     inkscape:window-y="26"
     inkscape:window-maximized="1"
     showborder="false"
     inkscape:showpageshadow="false">
    <inkscape:grid
       type="xygrid"
       id="grid3761"
       empspacing="5"
       visible="true"
       enabled="true"
       snapvisiblegridlinesonly="true" />
  </sodipodi:namedview>
  <metadata
     id="metadata3837">
    <rdf:RDF>
      <cc:Work
         rdf:about="">
        <dc:format>image/svg+xml</dc:format>
        <dc:type
           rdf:resource="http://purl.org/dc/dcmitype/StillImage" />
        <dc:title />
      </cc:Work>
    </rdf:RDF>
  </metadata>
  <g
     id="layer1"
     inkscape:label="Layer 1"
     inkscape:groupmode="layer"
     transform="translate(0.06000218,-18.053189)">
    <path
       sodipodi:type="arc"
       style="opacity:0.2;fill:#000000;fill-opacity:1;stroke:#1d70f8;stroke-width:0;stroke-linejoin:round;stroke-miterlimit:4;stroke-opacity:1;stroke-dasharray:none;stroke-dashoffset:0"
       id="path4350-5"
       sodipodi:cx="11.428572"
       sodipodi:cy="5.2857141"
       sodipodi:rx="14.428572"
       sodipodi:ry="15.428572"
       d="m 25.857143,5.2857141 c 0,8.5209649 -6.459891,15.4285719 -14.428571,15.4285719 C 3.4598916,20.714286 -3,13.806679 -3,5.2857141 -3,-3.2352507 3.4598916,-10.142858 11.428572,-10.142858 c 7.96868,0 14.428571,6.9076073 14.428571,15.4285721 z"
       transform="matrix(0.97029701,0,0,0.9074074,3.8508889,28.256893)" />
    <path
       sodipodi:type="arc"
       style="fill:url(#linearGradient3812);fill-opacity:1.0;stroke:#1d70f8;stroke-width:0;stroke-linejoin:round;stroke-miterlimit:4;stroke-opacity:1;stroke-dasharray:none;stroke-dashoffset:0"
       id="path4350-5-60"
       sodipodi:cx="11.428572"
       sodipodi:cy="5.2857141"
       sodipodi:rx="14.428572"
       sodipodi:ry="15.428572"
       d="m 25.857143,5.2857141 c 0,8.5209649 -6.459891,15.4285719 -14.428571,15.4285719 C 3.4598916,20.714286 -3,13.806679 -3,5.2857141 -3,-3.2352507 3.4598916,-10.142858 11.428572,-10.142858 c 7.96868,0 14.428571,6.9076073 14.428571,15.4285721 z"
       transform="matrix(0,0.90099008,-0.84259258,0,19.393702,22.75616)" />
    <path
       style="fill:url(#linearGradient4420);fill-opacity:1;stroke:#000000;stroke-width:0;stroke-miterlimit:4;stroke-opacity:1;stroke-dasharray:none"
       d="m 19.581354,28.411834 c -0.59338,-0.59338 -1.708019,-0.434145 -2.499192,0.357027 l -2.142164,2.142165 -2.142164,-2.142165 c -0.791174,-0.791173 -1.905812,-0.950407 -2.499192,-0.357027 -0.5933802,0.593379 -0.4341462,1.708018 0.357027,2.499191 l 2.142165,2.142165 -2.142165,2.142164 c -0.7911732,0.791173 -0.9504072,1.905812 -0.357027,2.499192 0.59338,0.59338 1.708018,0.434145 2.499192,-0.357027 l 2.142164,-2.142165 2.142164,2.142165 c 0.791173,0.791172 1.905812,0.950407 2.499192,0.357027 0.59338,-0.59338 0.434145,-1.708019 -0.357027,-2.499192 l -2.142165,-2.142164 2.142165,-2.142164 c 0.791172,-0.791174 0.950407,-1.905813 0.357027,-2.499192 z"
       id="rect4364-4"
       inkscape:connector-curvature="0" />
    <path
       style="opacity:0.2;fill:url(#linearGradient3208);fill-opacity:1;stroke:#000000;stroke-width:0;stroke-miterlimit:4;stroke-opacity:1;stroke-dasharray:none"
       d="m 19.581354,28.411834 c -0.59338,-0.59338 -1.708019,-0.434145 -2.499192,0.357027 l -2.142164,2.142165 -2.142164,-2.142165 c -0.791174,-0.791172 -1.905812,-0.950407 -2.499192,-0.357027 -0.5933802,0.593379 -0.4341462,1.708018 0.357027,2.499192 l 2.142165,2.142164 -2.142165,2.142164 c -0.7911732,0.791173 -0.9504072,1.905812 -0.357027,2.499192 0.59338,0.59338 1.708018,0.434145 2.499192,-0.357027 l 2.142164,-2.142165 2.142164,2.142165 c 0.791173,0.791172 1.905812,0.950407 2.499192,0.357027 0.59338,-0.59338 0.434145,-1.708019 -0.357027,-2.499192 l -2.142165,-2.142164 2.142165,-2.142164 c 0.791172,-0.791174 0.950407,-1.905813 0.357027,-2.499192 z m -0.714055,0.714055 c 0.197794,0.197793 0.03855,0.675496 -0.357027,1.071082 l -2.856219,2.856219 2.856219,2.856219 c 0.395586,0.395586 0.554821,0.873289 0.357027,1.071082 -0.197793,0.197794 -0.675496,0.03855 -1.071082,-0.357027 l -2.856219,-2.856219 -2.856219,2.856219 c -0.395586,0.395586 -0.87329,0.554821 -1.071082,0.357027 -0.197794,-0.197793 -0.03855,-0.675496 0.357027,-1.071082 l 2.856219,-2.856219 -2.856219,-2.856219 c -0.395586,-0.395586 -0.554821,-0.873289 -0.357027,-1.071082 0.197792,-0.197793 0.675496,-0.03856 1.071082,0.357027 l 2.856219,2.856219 2.856219,-2.856219 c 0.395586,-0.395586 0.873289,-0.55482 1.071082,-0.357027 z"
       id="rect4364-8-5"
       inkscape:connector-curvature="0" />
    <path
       style="fill:url(#linearGradient4983);fill-opacity:1;stroke:#1d70f8;stroke-width:0;stroke-linejoin:round;stroke-miterlimit:4;stroke-opacity:1;stroke-dasharray:none;stroke-dashoffset:0"
       d="m 14.939998,20.05319 c -7.1797023,0 -13.0000002,5.820298 -13.0000002,13 0,7.179702 5.8202979,13 13.0000002,13 7.179702,0 13,-5.820298 13,-13 0,-7.179702 -5.820298,-13 -13,-13 z m 0,1 c 6.627417,0 12,5.372583 12,12 0,6.627417 -5.372583,12 -12,12 -6.6274173,0 -12.0000003,-5.372583 -12.0000003,-12 0,-6.627417 5.372583,-12 12.0000003,-12 z"
       id="path4350-5-60-8"
       inkscape:connector-curvature="0" />
    <path
       style="opacity:0.1;fill:#ffffff;fill-opacity:1;stroke:#000000;stroke-width:0;stroke-miterlimit:4;stroke-opacity:1;stroke-dasharray:none"
       d="m 10.033748,29.857238 c -0.2079291,0.609626 0.0085,1.414794 0.625,2.03125 l 1.625,1.65625 0.5,-0.5 -2.125,-2.15625 c -0.314096,-0.314096 -0.517654,-0.668047 -0.625,-1.03125 z m 9.8125,0 c -0.107346,0.363203 -0.310905,0.717154 -0.625,1.03125 l -2.125,2.15625 0.5,0.5 1.625,-1.65625 c 0.616455,-0.616456 0.832928,-1.421624 0.625,-2.03125 z m -4.90625,5.34375 -2.15625,2.125 c -0.791174,0.791172 -1.90662,0.96838 -2.5,0.375 -0.131038,-0.131038 -0.191068,-0.295968 -0.25,-0.46875 -0.1630481,0.551666 -0.1078081,1.110942 0.25,1.46875 0.59338,0.59338 1.708826,0.416172 2.5,-0.375 l 2.15625,-2.125 2.15625,2.125 c 0.791173,0.791172 1.90662,0.96838 2.5,0.375 0.357808,-0.357808 0.413047,-0.917084 0.25,-1.46875 -0.05893,0.172782 -0.118962,0.337712 -0.25,0.46875 -0.59338,0.59338 -1.708827,0.416172 -2.5,-0.375 l -2.15625,-2.125 z"
       id="rect4364-4-1"
       inkscape:connector-curvature="0" />
  </g>
</svg>
