<?xml version="1.0" encoding="UTF-8" standalone="no"?>
<!-- Created with Inkscape (http://www.inkscape.org/) -->

<svg
   xmlns:dc="http://purl.org/dc/elements/1.1/"
   xmlns:cc="http://creativecommons.org/ns#"
   xmlns:rdf="http://www.w3.org/1999/02/22-rdf-syntax-ns#"
   xmlns:svg="http://www.w3.org/2000/svg"
   xmlns="http://www.w3.org/2000/svg"
   xmlns:xlink="http://www.w3.org/1999/xlink"
   xmlns:sodipodi="http://sodipodi.sourceforge.net/DTD/sodipodi-0.dtd"
   xmlns:inkscape="http://www.inkscape.org/namespaces/inkscape"
   width="18"
   height="18"
   id="svg2985"
   version="1.1"
   inkscape:version="0.48.3.1 r9886"
   sodipodi:docname="radiobutton.svg">
  <defs
     id="defs2987">
    <linearGradient
       id="linearGradient3881">
      <stop
         id="stop3883"
         offset="0"
         style="stop-color:#000000;stop-opacity:0.8" />
      <stop
         style="stop-color:#000000;stop-opacity:0.078"
         offset="0.55555558"
         id="stop3885" />
      <stop
         id="stop3887"
         offset="0.81249994"
         style="stop-color:#ffffff;stop-opacity:0.078" />
      <stop
         id="stop3889"
         offset="1"
         style="stop-color:#ffffff;stop-opacity:0.102" />
    </linearGradient>
    <linearGradient
       inkscape:collect="always"
       xlink:href="#linearGradient3818"
       id="linearGradient4125"
       x1="26"
       y1="22"
       x2="44"
       y2="22"
       gradientUnits="userSpaceOnUse"
       gradientTransform="matrix(0.55555556,0,0,0.55555556,18.555556,-2.222222)" />
    <linearGradient
       inkscape:collect="always"
       xlink:href="#linearGradient4250"
       id="linearGradient4256"
       gradientUnits="userSpaceOnUse"
       gradientTransform="matrix(0,-0.55555556,0.55555556,0,-2.222222,57.444444)"
       x1="35"
       y1="22"
       x2="44"
       y2="22" />
    <linearGradient
       id="linearGradient4250">
      <stop
         id="stop4252"
         offset="0"
         style="stop-color:#ffffff;stop-opacity:0;" />
      <stop
         id="stop4254"
         offset="1"
         style="stop-color:#ffffff;stop-opacity:0.2" />
    </linearGradient>
    <linearGradient
       inkscape:collect="always"
       xlink:href="#linearGradient3881"
       id="linearGradient3861"
       x1="0"
       y1="5"
       x2="18"
       y2="5"
       gradientUnits="userSpaceOnUse"
       gradientTransform="matrix(0,1,-1,0,15,29)" />
    <linearGradient
       id="linearGradient3818">
      <stop
         style="stop-color:#51bbe9;stop-opacity:1;"
         offset="0"
         id="stop3820" />
      <stop
         style="stop-color:#1b62ad;stop-opacity:1;"
         offset="1"
         id="stop3822" />
    </linearGradient>
  </defs>
  <sodipodi:namedview
     id="base"
     pagecolor="#000000"
     bordercolor="#666666"
     borderopacity="1.0"
     inkscape:pageopacity="0.80784314"
     inkscape:pageshadow="2"
     inkscape:zoom="1"
     inkscape:cx="3.5737705"
     inkscape:cy="9"
     inkscape:current-layer="layer1"
     showgrid="false"
     inkscape:grid-bbox="true"
     inkscape:document-units="px"
     inkscape:window-width="1366"
     inkscape:window-height="715"
     inkscape:window-x="0"
     inkscape:window-y="26"
     inkscape:window-maximized="1"
     fit-margin-top="0"
     fit-margin-left="0"
     fit-margin-right="0"
     fit-margin-bottom="0"
     showborder="false"
     inkscape:showpageshadow="false">
    <inkscape:grid
       type="xygrid"
       id="grid3779"
       empspacing="5"
       visible="true"
       enabled="true"
       snapvisiblegridlinesonly="true"
       originx="-0.9999999px"
       originy="-1px" />
  </sodipodi:namedview>
  <metadata
     id="metadata2990">
    <rdf:RDF>
      <cc:Work
         rdf:about="">
        <dc:format>image/svg+xml</dc:format>
        <dc:type
           rdf:resource="http://purl.org/dc/dcmitype/StillImage" />
        <dc:title />
      </cc:Work>
    </rdf:RDF>
  </metadata>
  <g
     id="layer1"
     inkscape:label="Layer 1"
     inkscape:groupmode="layer"
     transform="translate(-0.9999999,-29)">
    <path
       sodipodi:type="arc"
       style="opacity:0.3;fill:#000000;fill-opacity:1"
       id="path3770"
       sodipodi:cx="9.5"
       sodipodi:cy="10"
       sodipodi:rx="5.5"
       sodipodi:ry="7"
       d="m 15,10 c 0,3.865993 -2.462434,7 -5.5,7 C 6.4624339,17 4,13.865993 4,10 4,6.1340068 6.4624339,3 9.5,3 12.537566,3 15,6.1340068 15,10 z"
       transform="matrix(1.4545455,0,0,1.1428571,-3.818182,26.571429)" />
    <path
       style="fill:url(#linearGradient3861);fill-opacity:1;stroke:none"
       d="m 19,38 c 0,-4.970563 -4.029437,-9 -9.0000001,-9 -4.9705627,0 -9,4.029437 -9,9 0,4.970563 4.0294373,9 9,9 C 14.970563,47 19,42.970563 19,38 z m -1,0 c 0,4.418278 -3.581722,8 -8.0000001,8 -4.418278,0 -8,-3.581722 -8,-8 0,-4.418278 3.581722,-8 8,-8 C 14.418278,30 18,33.581722 18,38 z"
       id="path3781-9-5-7"
       inkscape:connector-curvature="0" />
    <rect
       style="opacity:0.3;fill:#000000;fill-opacity:1;stroke:none"
       id="rect4090-9"
       width="12"
       height="12"
       x="4"
       y="32"
       rx="6"
       ry="6" />
    <rect
       style="fill:url(#linearGradient4125);fill-opacity:1.0;stroke:none"
       id="rect4090-2"
       width="10"
       height="10"
       x="33"
       y="5"
       rx="5"
       ry="5"
       transform="matrix(0,1,1,0,0,0)" />
    <path
       style="fill:url(#linearGradient4256);fill-opacity:1;stroke:none"
       d="m 10,33 c -2.77,0 -5,2.23 -5,5 0,2.77 2.23,5 5,5 2.77,0 5,-2.23 5,-5 0,-2.77 -2.23,-5 -5,-5 z m 0,0.555556 c 2.462222,0 4.444444,1.982222 4.444444,4.444444 0,2.462222 -1.982222,4.444444 -4.444444,4.444444 -2.462222,0 -4.444444,-1.982222 -4.444444,-4.444444 0,-2.462222 1.982222,-4.444444 4.444444,-4.444444 z"
       id="rect4090-2-0"
       inkscape:connector-curvature="0" />
  </g>
</svg>
