<?xml version="1.0" encoding="UTF-8" standalone="no"?>
<svg
   xmlns:dc="http://purl.org/dc/elements/1.1/"
   xmlns:cc="http://creativecommons.org/ns#"
   xmlns:rdf="http://www.w3.org/1999/02/22-rdf-syntax-ns#"
   xmlns:svg="http://www.w3.org/2000/svg"
   xmlns="http://www.w3.org/2000/svg"
   xmlns:xlink="http://www.w3.org/1999/xlink"
   xmlns:sodipodi="http://sodipodi.sourceforge.net/DTD/sodipodi-0.dtd"
   xmlns:inkscape="http://www.inkscape.org/namespaces/inkscape"
   width="60"
   height="60"
   version="1.0"
   id="svg2"
   inkscape:version="0.48.3.1 r9886"
   sodipodi:docname="trash.svg">
  <metadata
     id="metadata22">
    <rdf:RDF>
      <cc:Work
         rdf:about="">
        <dc:format>image/svg+xml</dc:format>
        <dc:type
           rdf:resource="http://purl.org/dc/dcmitype/StillImage" />
      </cc:Work>
    </rdf:RDF>
  </metadata>
  <defs
     id="defs20">
    <linearGradient
       inkscape:collect="always"
       xlink:href="#linearGradient3818"
       id="linearGradient3771"
       x1="31"
       y1="1"
       x2="31"
       y2="59"
       gradientUnits="userSpaceOnUse" />
    <linearGradient
       id="linearGradient3818">
      <stop
         style="stop-color:#51bbe9;stop-opacity:1;"
         offset="0"
         id="stop3820" />
      <stop
         style="stop-color:#1b62ad;stop-opacity:1;"
         offset="1"
         id="stop3822" />
    </linearGradient>
  </defs>
  <sodipodi:namedview
     pagecolor="#000000"
     bordercolor="#666666"
     borderopacity="1"
     objecttolerance="10"
     gridtolerance="10"
     guidetolerance="10"
     inkscape:pageopacity="0.78431373"
     inkscape:pageshadow="2"
     inkscape:window-width="1366"
     inkscape:window-height="715"
     id="namedview18"
     showgrid="false"
     fit-margin-top="0"
     fit-margin-left="0"
     fit-margin-right="0"
     fit-margin-bottom="0"
     inkscape:zoom="1"
     inkscape:cx="27.937993"
     inkscape:cy="43.432973"
     inkscape:window-x="0"
     inkscape:window-y="26"
     inkscape:window-maximized="1"
     inkscape:current-layer="svg2"
     showborder="false"
     inkscape:showpageshadow="false">
    <inkscape:grid
       type="xygrid"
       id="grid3773"
       empspacing="5"
       visible="true"
       enabled="true"
       snapvisiblegridlinesonly="true" />
  </sodipodi:namedview>
  <g
     id="g2988"
     style="fill-opacity:1.0;fill:url(#linearGradient3771)">
    <g
       style="fill:url(#linearGradient3771);fill-opacity:1.0"
       transform="translate(-0.03173368,-0.9278429)"
       id="g3755">
      <path
         style="fill:url(#linearGradient3771);fill-opacity:1.0;stroke:#0099cc;stroke-width:0;stroke-linecap:round;stroke-linejoin:round;stroke-miterlimit:4;stroke-opacity:0.23529412000000000;stroke-dasharray:none"
         inkscape:connector-curvature="0"
         id="path6"
         d="M 21.734825,22.929853 C 9.9990788,16.097403 9.9990788,16.097403 9.9990788,16.097403 16.108098,5.4066228 16.108098,5.4066228 16.108098,5.4066228 c 1.688018,-2.97413 7.9578,-3.05451 10.128109,-0.4823 2.974127,4.98368 2.974127,4.98368 2.974127,4.98368 z" />
      <path
         style="fill:url(#linearGradient3771);fill-opacity:1.0;stroke:#0099cc;stroke-width:0;stroke-linecap:round;stroke-linejoin:round;stroke-miterlimit:4;stroke-opacity:0.23529412000000000;stroke-dasharray:none"
         inkscape:connector-curvature="0"
         id="path8"
         d="m 12.24977,39.247363 c -6.2697812,0 -6.2697812,0 -6.2697812,0 -2.411455,-0.26124 -6.43054589,-5.22482 -4.019091,-9.7262 2.732981,-4.58176 2.732981,-4.58176 2.732981,-4.58176 -4.26023599,-2.49184 -4.26023599,-2.49184 -4.26023599,-2.49184 13.50414519,0 13.50414519,0 13.50414519,0 6.832455,11.73575 6.832455,11.73575 6.832455,11.73575 -4.260236,-2.33108 -4.260236,-2.33108 -4.260236,-2.33108 z" />
      <path
         style="fill:url(#linearGradient3771);fill-opacity:1.0;stroke:#0099cc;stroke-width:0;stroke-linecap:round;stroke-linejoin:round;stroke-miterlimit:4;stroke-opacity:0.23529412000000000;stroke-dasharray:none"
         inkscape:connector-curvature="0"
         id="path10"
         d="m 28.406516,40.935383 c 0,13.74529 0,13.74529 0,13.74529 -15.0314,0 -15.0314,0 -15.0314,0 -0.8842,0.0804 -1.527255,-0.80382 -2.009546,-1.52725 -7.0736002,-12.53957 -6.9932182,-12.45919 -7.3147452,-12.8611 0.381814,0.32153 0.803818,0.64306 2.009545,0.64306 z" />
      <path
         style="fill:url(#linearGradient3771);fill-opacity:1.0;stroke:#0099cc;stroke-width:0;stroke-linecap:round;stroke-linejoin:round;stroke-miterlimit:4;stroke-opacity:0.23529412000000000;stroke-dasharray:none"
         inkscape:connector-curvature="0"
         id="path12"
         d="m 54.450225,40.935383 c 1.527254,-0.16076 1.7684,-0.56267 2.170309,-0.80382 -7.555891,13.34338 -7.555891,13.34338 -7.555891,13.34338 -0.321527,0.64306 -0.964582,1.20573 -1.929164,1.20573 -8.359709,0 -8.359709,0 -8.359709,0 0,4.90329 0,4.90329 0,4.90329 -6.832454,-11.65536 -6.832454,-11.65536 -6.832454,-11.65536 6.832454,-11.73575 6.832454,-11.73575 6.832454,-11.73575 0,4.74253 0,4.74253 0,4.74253 z" />
      <path
         style="fill:url(#linearGradient3771);fill-opacity:1.0;stroke:#0099cc;stroke-width:0;stroke-linecap:round;stroke-linejoin:round;stroke-miterlimit:4;stroke-opacity:0.23529412000000000;stroke-dasharray:none"
         inkscape:connector-curvature="0"
         id="path14"
         d="m 40.946079,26.386273 c 11.816127,-6.75207 11.816127,-6.75207 11.816127,-6.75207 6.1894,10.53002 6.1894,10.53002 6.1894,10.53002 2.250691,4.34061 -1.607636,8.52047 -4.179854,9.00276 -6.350164,0 -6.350164,0 -6.350164,0 z" />
      <path
         style="fill:url(#linearGradient3771);fill-opacity:1.0;stroke:#0099cc;stroke-width:0;stroke-linecap:round;stroke-linejoin:round;stroke-miterlimit:4;stroke-opacity:0.23529412000000000;stroke-dasharray:none"
         inkscape:connector-curvature="0"
         id="path16"
         d="m 27.924225,3.8793628 c -0.482291,-0.64305 -1.446873,-1.44687 -2.331073,-1.60764 15.835218,0 15.835218,0 15.835218,0 0.8842,0 1.688018,0.32153 2.089927,1.04497 4.099473,7.2343602 4.099473,7.2343602 4.099473,7.2343602 4.099473,-2.3310702 4.099473,-2.3310702 4.099473,-2.3310702 -6.671691,11.5749802 -6.671691,11.5749802 -6.671691,11.5749802 -13.343382,0 -13.343382,0 -13.343382,0 4.019091,-2.41145 4.019091,-2.41145 4.019091,-2.41145 z" />
    </g>
  </g>
</svg>
