<?xml version="1.0" encoding="UTF-8" standalone="no"?>
<!-- Created with Inkscape (http://www.inkscape.org/) -->

<svg
   xmlns:dc="http://purl.org/dc/elements/1.1/"
   xmlns:cc="http://creativecommons.org/ns#"
   xmlns:rdf="http://www.w3.org/1999/02/22-rdf-syntax-ns#"
   xmlns:svg="http://www.w3.org/2000/svg"
   xmlns="http://www.w3.org/2000/svg"
   xmlns:xlink="http://www.w3.org/1999/xlink"
   xmlns:sodipodi="http://sodipodi.sourceforge.net/DTD/sodipodi-0.dtd"
   xmlns:inkscape="http://www.inkscape.org/namespaces/inkscape"
   width="20"
   height="20"
   id="svg2985"
   version="1.1"
   inkscape:version="0.91 r13725"
   sodipodi:docname="window-active1.svg">
  <defs
     id="defs2987">
    <linearGradient
       id="linearGradient3818">
      <stop
         style="stop-color:#1b62ad;stop-opacity:0;"
         offset="0"
         id="stop3820" />
      <stop
         id="stop3892"
         offset="0.5"
         style="stop-color:#51bbe9;stop-opacity:1;" />
      <stop
         style="stop-color:#1b62ad;stop-opacity:0;"
         offset="1"
         id="stop3822" />
    </linearGradient>
    <linearGradient
       y2="17.5"
       x2="1"
       y1="17.5"
       x1="-1"
       gradientTransform="matrix(0,-10,19.031224,0,-322.53079,37)"
       gradientUnits="userSpaceOnUse"
       id="linearGradient3016"
       xlink:href="#linearGradient3818"
       inkscape:collect="always" />
    <linearGradient
       id="linearGradient3818-6">
      <stop
         style="stop-color:#1b62ad;stop-opacity:0;"
         offset="0"
         id="stop3820-0" />
      <stop
         id="stop3892-3"
         offset="0.5"
         style="stop-color:#51bbe9;stop-opacity:1;" />
      <stop
         style="stop-color:#1b62ad;stop-opacity:0;"
         offset="1"
         id="stop3822-3" />
    </linearGradient>
    <linearGradient
       y2="17.5"
       x2="1"
       y1="17.5"
       x1="-1"
       gradientTransform="matrix(0,-10,1,0,3,37)"
       gradientUnits="userSpaceOnUse"
       id="linearGradient3036"
       xlink:href="#linearGradient3818-6"
       inkscape:collect="always" />
    <linearGradient
       inkscape:collect="always"
       xlink:href="#linearGradient3818-6"
       id="linearGradient4151"
       gradientUnits="userSpaceOnUse"
       gradientTransform="matrix(0,-10,0.91919411,0,-14.681573,37)"
       x1="-1"
       y1="17.5"
       x2="1"
       y2="17.5" />
  </defs>
  <sodipodi:namedview
     id="base"
     pagecolor="#000000"
     bordercolor="#666666"
     borderopacity="1.0"
     inkscape:pageopacity="0.80784314"
     inkscape:pageshadow="2"
     inkscape:zoom="22.627416"
     inkscape:cx="3.2564546"
     inkscape:cy="8.1963807"
     inkscape:current-layer="g4157"
     showgrid="false"
     inkscape:grid-bbox="true"
     inkscape:document-units="px"
     inkscape:window-width="1510"
     inkscape:window-height="869"
     inkscape:window-x="46"
     inkscape:window-y="0"
     inkscape:window-maximized="1"
     fit-margin-top="0"
     fit-margin-left="0"
     fit-margin-right="0"
     fit-margin-bottom="0"
     showborder="false"
     inkscape:showpageshadow="false">
    <inkscape:grid
       type="xygrid"
       id="grid3779"
       empspacing="5"
       visible="true"
       enabled="true"
       snapvisiblegridlinesonly="true"
       originx="-0.9999999px"
       originy="-1px" />
  </sodipodi:namedview>
  <metadata
     id="metadata2990">
    <rdf:RDF>
      <cc:Work
         rdf:about="">
        <dc:format>image/svg+xml</dc:format>
        <dc:type
           rdf:resource="http://purl.org/dc/dcmitype/StillImage" />
        <dc:title />
      </cc:Work>
    </rdf:RDF>
  </metadata>
  <g
     id="layer1"
     inkscape:label="Layer 1"
     inkscape:groupmode="layer"
     transform="translate(-0.9999999,-27)">
    <rect
       style="opacity:0.3;fill:#000000;fill-opacity:1"
       id="rect2991"
       width="18"
       height="20"
       x="1.9999999"
       y="27" />
    <path
       style="fill:url(#linearGradient3016);fill-opacity:1;stroke-width:2;stroke-linejoin:round;stroke-miterlimit:4;stroke-dasharray:none"
       d="m 20.031223,47 0,-10 0,-10 -19.0312231,0 0,10 0,10 19.0312231,0 z"
       id="rect3845"
       inkscape:connector-curvature="0" />
    <path
       style="fill:url(#linearGradient3036);fill-opacity:1;stroke-width:2;stroke-linejoin:round;stroke-miterlimit:4;stroke-dasharray:none"
       d="m 21,47 0,-10 0,-10 -1,0 0,10 0,10 1,0 z"
       id="rect3845-9"
       inkscape:connector-curvature="0" />
    <path
       inkscape:connector-curvature="0"
       id="path4147"
       d="m 21,47 0,-10 0,-10 -1,0 0,10 0,10 1,0 z"
       style="fill:url(#linearGradient3036);fill-opacity:1;stroke-width:2;stroke-linejoin:round;stroke-miterlimit:4;stroke-dasharray:none" />
    <path
       style="fill:url(#linearGradient4151);fill-opacity:1;stroke-width:2;stroke-linejoin:round;stroke-miterlimit:4;stroke-dasharray:none"
       d="m 1.8639218,47 0,-10 0,-10 -0.91919408,0 0,10 0,10 0.91919408,0 z"
       id="path4149"
       inkscape:connector-curvature="0" />
    <path
       inkscape:connector-curvature="0"
       id="path4153"
       d="m 1.8639218,47 0,-10 0,-10 -0.91919408,0 0,10 0,10 0.91919408,0 z"
       style="fill:url(#linearGradient4151);fill-opacity:1;stroke-width:2;stroke-linejoin:round;stroke-miterlimit:4;stroke-dasharray:none" />
    <path
       style="fill:url(#linearGradient3036);fill-opacity:1;stroke-width:2;stroke-linejoin:round;stroke-miterlimit:4;stroke-dasharray:none"
       d="m 21,47 0,-10 0,-10 -1,0 0,10 0,10 1,0 z"
       id="path4155"
       inkscape:connector-curvature="0" />
  </g>
  <g
     transform="translate(-0.9999999,-27)"
     inkscape:groupmode="layer"
     inkscape:label="Layer 1 copy"
     id="g4157">
    <rect
       y="27"
       x="1.9999999"
       height="20"
       width="18"
       id="rect4159"
       style="opacity:0.3;fill:#000000;fill-opacity:1" />
    <path
       inkscape:connector-curvature="0"
       id="path4161"
       d="m 20.031223,47 0,-10 0,-10 -19.0312231,0 0,10 0,10 19.0312231,0 z"
       style="fill:url(#linearGradient3016);fill-opacity:1;stroke-width:2;stroke-linejoin:round;stroke-miterlimit:4;stroke-dasharray:none" />
    <path
       inkscape:connector-curvature="0"
       id="path4163"
       d="m 21,47 0,-10 0,-10 -1,0 0,10 0,10 1,0 z"
       style="fill:url(#linearGradient3036);fill-opacity:1;stroke-width:2;stroke-linejoin:round;stroke-miterlimit:4;stroke-dasharray:none" />
    <path
       style="fill:url(#linearGradient3036);fill-opacity:1;stroke-width:2;stroke-linejoin:round;stroke-miterlimit:4;stroke-dasharray:none"
       d="m 21,47 0,-10 0,-10 -1,0 0,10 0,10 1,0 z"
       id="path4165"
       inkscape:connector-curvature="0" />
    <path
       inkscape:connector-curvature="0"
       id="path4167"
       d="m 1.8639218,47 0,-10 0,-10 -0.91919408,0 0,10 0,10 0.91919408,0 z"
       style="fill:url(#linearGradient4151);fill-opacity:1;stroke-width:2;stroke-linejoin:round;stroke-miterlimit:4;stroke-dasharray:none" />
    <path
       style="fill:url(#linearGradient4151);fill-opacity:1;stroke-width:2;stroke-linejoin:round;stroke-miterlimit:4;stroke-dasharray:none"
       d="m 1.8639218,47 0,-10 0,-10 -0.91919408,0 0,10 0,10 0.91919408,0 z"
       id="path4169"
       inkscape:connector-curvature="0" />
    <path
       inkscape:connector-curvature="0"
       id="path4171"
       d="m 21,47 0,-10 0,-10 -1,0 0,10 0,10 1,0 z"
       style="fill:url(#linearGradient3036);fill-opacity:1;stroke-width:2;stroke-linejoin:round;stroke-miterlimit:4;stroke-dasharray:none" />
  </g>
</svg>
