/* XPM */
static char *close_active[] = {
/* columns rows colors chars-per-pixel */
"24 24 37 1 ",
"  c #2F2F2F",
". c #302F30",
"X c #312F31",
"o c #362F38",
"O c gray20",
"+ c #373039",
"@ c gray22",
"# c #4C3154",
"$ c #4C3155",
"% c #4D3156",
"& c #4D3256",
"* c #50315A",
"= c #51325B",
"- c #51325C",
"; c #52325C",
": c #52325D",
"> c #53325E",
", c #573264",
"< c #583264",
"1 c #5A3366",
"2 c #5B3269",
"3 c #5B3369",
"4 c #5C3269",
"5 c #5C336A",
"6 c #5D336B",
"7 c #5D326C",
"8 c #76348C",
"9 c #77358D",
"0 c #78358E",
"q c #83359D",
"w c #83369C",
"e c #84359D",
"r c #84369D",
"t c #84369E",
"y c #8736A1",
"u c #8736A2",
"i c #8836A3",
/* pixels */
"@@@@@@@@@@@@@@@@@@@@@@@@",
"OOOOOOOOOOOOOOOOOOOOOOOO",
"                        ",
"                        ",
"                        ",
"        +69tt96+        ",
"       $qiiiiiiq&       ",
"      $uiiiiiiiiu&      ",
"     +qiiwiiiiriiro     ",
"     6iiiX:uu>.iii5     ",
"     0iii3 *= <iii9     ",
"     qiiii1  ,iiiiq     ",
"     qiiiu*  %yiiir     ",
"     9iii; 22 -iii9     ",
"     6iii+7ii7+iii4     ",
"     +qiiiiiiiiiiwo     ",
"      &uiiiiiiiiu#      ",
"       &riiiiiiw#       ",
"        o58ee84o        ",
"                        ",
"                        ",
"                        ",
"                        ",
"                        "
};
