/* XPM */
static char *close_prelight[] = {
/* columns rows colors chars-per-pixel */
"24 24 40 1 ",
"  c #2F2F2F",
". c #303031",
"X c #323032",
"o c gray20",
"O c #39333B",
"+ c #3A333C",
"@ c #3A343D",
"# c gray22",
"$ c #5A4162",
"% c #5B4163",
"& c #5B4263",
"* c #5B4164",
"= c #604369",
"- c #60436A",
"; c #61446B",
": c #62446B",
"> c #62456C",
", c #63456D",
"< c #65466F",
"1 c #6B4876",
"2 c #6C4877",
"3 c #6E497A",
"4 c #704A7D",
"5 c #714A7D",
"6 c #724B7E",
"7 c #724B7F",
"8 c #734B80",
"9 c #744C81",
"0 c #995BAD",
"q c #9A5BAE",
"w c #9A5CAF",
"e c #9B5CAF",
"r c #AB63C3",
"t c #AC63C4",
"y c #AD63C4",
"u c #AD64C5",
"i c #B165CA",
"p c #B265CA",
"a c #B266CB",
"s c #B366CC",
/* pixels */
"########################",
"oooooooooooooooooooooooo",
"                        ",
"                        ",
"                        ",
"        @9wuuq8@        ",
"       %tsssssst&       ",
"      %assssssssa&      ",
"     @tssrsssstsst+     ",
"     9sssX,pp<.sss7     ",
"     esss4 -; 2sssq     ",
"     tssss3  1sssst     ",
"     tsssa=  *issst     ",
"     wsss> 55 :sssq     ",
"     8sss@9ss9@sss6     ",
"     @tssssssssssrO     ",
"      &assssssssa$      ",
"       &tssssssr$       ",
"        +70yy06O        ",
"                        ",
"                        ",
"                        ",
"                        ",
"                        "
};
