<?xml version="1.0" encoding="UTF-8"?>
<!-- Created with Inkscape (http://www.inkscape.org/) -->
<svg width="24" height="24" enable-background="new" version="1.0" xmlns="http://www.w3.org/2000/svg">
 <g transform="translate(0,-276)">
  <path transform="translate(0,276)" d="m5 0c-2.77 0-5 2.23-5 5v14c0 2.77 2.23 5 5 5h14c2.77 0 5-2.23 5-5v-14c0-2.77-2.23-5-5-5h-14zm0 1h14c2.216 0 4 1.784 4 4v14c0 2.216-1.784 4-4 4h-14c-2.216 0-4-1.784-4-4v-14c0-2.216 1.784-4 4-4z" opacity=".01"/>
  <path transform="translate(0,276)" d="m5 1c-2.216 0-4 1.784-4 4v14c0 2.216 1.784 4 4 4h14c2.216 0 4-1.784 4-4v-14c0-2.216-1.784-4-4-4h-14zm0 1h14c1.662 0 3 1.338 3 3v14c0 1.662-1.338 3-3 3h-14c-1.662 0-3-1.338-3-3v-14c0-1.662 1.338-3 3-3z" opacity=".04"/>
  <path transform="translate(0,276)" d="m5 2c-1.662 0-3 1.338-3 3v14c0 1.662 1.338 3 3 3h14c1.662 0 3-1.338 3-3v-14c0-1.662-1.338-3-3-3h-14zm0 1h14c1.108 0 2 0.892 2 2v14c0 1.108-0.892 2-2 2h-14c-1.108 0-2-0.892-2-2v-14c0-1.108 0.892-2 2-2z" opacity=".1"/>
  <path transform="translate(0,276)" d="m5 3c-1.108 0-2 0.892-2 2v14c0 1.108 0.892 2 2 2h14c1.108 0 2-0.892 2-2v-14c0-1.108-0.892-2-2-2h-14zm-1 1h16v16h-16v-16z" opacity=".25"/>
  <path d="m4 280v16h16v-16zm1 1h14v14h-14z" opacity=".9"/>
 </g>
</svg>
