<?xml version="1.0" encoding="UTF-8" standalone="no"?>
<!-- Created with Inkscape (http://www.inkscape.org/) -->

<svg
   xmlns:dc="http://purl.org/dc/elements/1.1/"
   xmlns:cc="http://creativecommons.org/ns#"
   xmlns:rdf="http://www.w3.org/1999/02/22-rdf-syntax-ns#"
   xmlns:svg="http://www.w3.org/2000/svg"
   xmlns="http://www.w3.org/2000/svg"
   xmlns:xlink="http://www.w3.org/1999/xlink"
   version="1.1"
   width="64"
   height="22"
   id="svg3273">
  <defs
     id="defs3275">
    <linearGradient
       id="linearGradient5218">
      <stop
         id="stop5220"
         style="stop-color:#ffffff;stop-opacity:0.84878051"
         offset="0" />
      <stop
         id="stop5222"
         style="stop-color:#ffffff;stop-opacity:0.50731707"
         offset="1" />
    </linearGradient>
    <linearGradient
       id="linearGradient4182">
      <stop
         id="stop4184"
         style="stop-color:#686868;stop-opacity:1"
         offset="0" />
      <stop
         id="stop4186"
         style="stop-color:#393939;stop-opacity:1"
         offset="1" />
    </linearGradient>
    <linearGradient
       id="linearGradient4174">
      <stop
         id="stop4176"
         style="stop-color:#e2e2e2;stop-opacity:1"
         offset="0" />
      <stop
         id="stop4178"
         style="stop-color:#bcbcbc;stop-opacity:1"
         offset="1" />
    </linearGradient>
    <linearGradient
       id="linearGradient3990">
      <stop
         id="stop3992"
         style="stop-color:#ffffff;stop-opacity:1"
         offset="0" />
      <stop
         id="stop3994"
         style="stop-color:#ffffff;stop-opacity:0"
         offset="1" />
    </linearGradient>
    <linearGradient
       id="linearGradient4095">
      <stop
         id="stop4097"
         style="stop-color:#131313;stop-opacity:1"
         offset="0" />
      <stop
         id="stop4099"
         style="stop-color:#131313;stop-opacity:0"
         offset="1" />
    </linearGradient>
    <linearGradient
       x1="17.438566"
       y1="16.119637"
       x2="17.239433"
       y2="8.7654696"
       id="linearGradient5204"
       xlink:href="#linearGradient3990"
       gradientUnits="userSpaceOnUse"
       gradientTransform="matrix(0.89109737,0,0,0.83081607,2.3981167,2.0476389)" />
    <linearGradient
       x1="-47.452175"
       y1="1.9164428"
       x2="-47.557411"
       y2="18.329622"
       id="linearGradient5208"
       xlink:href="#linearGradient4174"
       gradientUnits="userSpaceOnUse"
       gradientTransform="matrix(0.92685311,0,0,0.83592243,61.295588,1.903004)" />
    <linearGradient
       x1="-19.532629"
       y1="10.037049"
       x2="-11.504409"
       y2="9.6024895"
       id="linearGradient5212"
       xlink:href="#linearGradient4095"
       gradientUnits="userSpaceOnUse"
       gradientTransform="matrix(0.79620562,0,0,0.83905043,42.680643,2.875036)" />
    <linearGradient
       x1="-11.538785"
       y1="18.111111"
       x2="-11.672953"
       y2="2.9496856"
       id="linearGradient5215"
       xlink:href="#linearGradient4182"
       gradientUnits="userSpaceOnUse"
       gradientTransform="matrix(0.950863,0,0,0.93325139,62.602232,0.69004078)" />
    <linearGradient
       x1="32.037582"
       y1="21.076273"
       x2="32.311661"
       y2="10.558059"
       id="linearGradient5224"
       xlink:href="#linearGradient5218"
       gradientUnits="userSpaceOnUse" />
  </defs>
  <metadata
     id="metadata3278">
    <rdf:RDF>
      <cc:Work
         rdf:about="">
        <dc:format>image/svg+xml</dc:format>
        <dc:type
           rdf:resource="http://purl.org/dc/dcmitype/StillImage" />
        <dc:title></dc:title>
      </cc:Work>
    </rdf:RDF>
  </metadata>
  <g
     id="g5226">
    <rect
       width="63.825302"
       height="21.83025"
       rx="10.492218"
       ry="10.046159"
       x="0.12938674"
       y="0.084875293"
       id="rect5038"
       style="color:#000000;fill:url(#linearGradient5224);fill-opacity:1;stroke:none;stroke-width:0.99817806;marker:none;visibility:visible;display:inline;overflow:visible;enable-background:accumulate" />
    <rect
       width="59.904373"
       height="17.731777"
       rx="9.8476582"
       ry="8.1600637"
       x="2.2224336"
       y="2.0899179"
       id="rect17456"
       style="color:#000000;fill:url(#linearGradient5215);fill-opacity:1;stroke:#282828;stroke-width:0.94201595;stroke-linecap:round;stroke-linejoin:miter;stroke-miterlimit:4;stroke-opacity:1;stroke-dasharray:none;stroke-dashoffset:0;marker:none;visibility:visible;display:inline;overflow:visible;enable-background:accumulate" />
    <rect
       width="24.682373"
       height="16.781008"
       rx="7.3531914"
       ry="7.069149"
       x="8.2121496"
       y="2.6352806"
       id="rect4062"
       style="fill:url(#linearGradient5212);fill-opacity:1;stroke:none;display:inline" />
    <rect
       width="58.082878"
       height="15.95944"
       rx="8.5392857"
       ry="7.9797201"
       x="3.1546266"
       y="3.0171902"
       id="rect3963"
       style="opacity:0.12396695;color:#000000;fill:none;stroke:#ffffff;stroke-width:0.88000631;stroke-linecap:round;stroke-linejoin:miter;stroke-miterlimit:4;stroke-opacity:1;stroke-dasharray:none;stroke-dashoffset:0;marker:none;visibility:visible;display:inline;overflow:visible;enable-background:accumulate" />
    <rect
       width="27.953453"
       height="16.733444"
       rx="8.3840151"
       ry="8.366724"
       x="2.7173247"
       y="2.5931528"
       id="rect4172"
       style="fill:url(#linearGradient5208);fill-opacity:1;stroke:none;display:inline" />
    <path
       d="M 8.5199163,8.7169811 6.9212495,8.9691123 5.3225827,9.2212434 5.9035641,7.7106918 6.4845455,6.2001402 7.5022309,7.4585607 z"
       transform="matrix(-0.24119809,1.4043169,-1.2810899,-0.26439873,33.64048,3.0172994)"
       id="path3825"
       style="fill:#ffffff;fill-opacity:1;stroke:none" />
    <rect
       width="26.096577"
       height="15.653982"
       rx="7.9122596"
       ry="7.1405406"
       x="3.6588471"
       y="3.1996071"
       id="rect4145"
       style="opacity:0.45045046;fill:none;stroke:url(#linearGradient5204);stroke-width:1.10504913;stroke-miterlimit:4;stroke-opacity:1;stroke-dasharray:none;display:inline" />
    <path
       d="M 8.5199163,8.7169811 6.9212495,8.9691123 5.3225827,9.2212434 5.9035641,7.7106918 6.4845455,6.2001402 7.5022309,7.4585607 z"
       transform="matrix(-0.24119809,1.4043169,-1.2810899,-0.26439873,27.831776,3.0172994)"
       id="path3827"
       style="fill:#ffffff;fill-opacity:1;stroke:none" />
    <path
       d="M 8.5199163,8.7169811 6.9212495,8.9691123 5.3225827,9.2212434 5.9035641,7.7106918 6.4845455,6.2001402 7.5022309,7.4585607 z"
       transform="matrix(-0.24119809,1.2117723,-1.2810899,-0.22814728,34.327528,4.1043895)"
       id="path3819"
       style="fill:#3a3a3a;fill-opacity:1;stroke:none" />
    <path
       d="M 8.5199163,8.7169811 6.9212495,8.9691123 5.3225827,9.2212434 5.9035641,7.7106918 6.4845455,6.2001402 7.5022309,7.4585607 z"
       transform="matrix(-0.24119809,1.4043169,-1.2810899,-0.26439873,22.272913,2.879756)"
       id="path3829"
       style="fill:#ffffff;fill-opacity:1;stroke:none" />
    <path
       d="M 8.5199163,8.7169811 6.9212495,8.9691123 5.3225827,9.2212434 5.9035641,7.7106918 6.4845455,6.2001402 7.5022309,7.4585607 z"
       transform="matrix(-0.24119809,1.2117723,-1.2810899,-0.22814728,28.518826,4.1043895)"
       id="path3821"
       style="fill:#3a3a3a;fill-opacity:1;stroke:none" />
    <path
       d="M 8.5199163,8.7169811 6.9212495,8.9691123 5.3225827,9.2212434 5.9035641,7.7106918 6.4845455,6.2001402 7.5022309,7.4585607 z"
       transform="matrix(-0.24119809,1.2117723,-1.2810899,-0.22814728,22.959962,3.9857045)"
       id="path3823"
       style="fill:#3a3a3a;fill-opacity:1;stroke:none" />
    <g
       transform="matrix(0.95442867,0,0,0.93316189,1.0134997,0.8235201)"
       id="text4327"
       style="font-size:11px;font-style:normal;font-variant:normal;font-weight:bold;font-stretch:normal;line-height:125%;letter-spacing:0px;word-spacing:0px;fill:#ffffff;fill-opacity:1;stroke:none;font-family:Aller;-inkscape-font-specification:Aller Bold">
      <path
         d="m 41.28764,14.821442 c -0.594004,0 -1.107337,-0.102667 -1.54,-0.308 -0.432669,-0.205333 -0.788335,-0.487666 -1.067,-0.847 -0.278668,-0.366666 -0.487668,-0.795665 -0.627,-1.287 -0.132001,-0.498664 -0.198001,-1.04133 -0.198,-1.628 -1e-6,-0.586662 0.066,-1.1293286 0.198,-1.6280003 0.139332,-0.5059939 0.348332,-0.9423268 0.627,-1.309 0.278665,-0.3666594 0.634331,-0.6526592 1.067,-0.858 0.432663,-0.2053254 0.945996,-0.307992 1.54,-0.308 0.593995,8e-6 1.107328,0.1026746 1.54,0.308 0.43266,0.2053408 0.788327,0.4913406 1.067,0.858 0.278659,0.3666732 0.483993,0.8030061 0.616,1.309 0.139326,0.4986717 0.208992,1.0413383 0.209,1.6280003 -8e-6,0.58667 -0.06967,1.129336 -0.209,1.628 -0.132007,0.491335 -0.337341,0.920334 -0.616,1.287 -0.278673,0.359334 -0.63434,0.641667 -1.067,0.847 -0.432672,0.205333 -0.946005,0.308 -1.54,0.308 m 0,-1.342 c 1.136661,10e-7 1.704994,-0.909332 1.705,-2.728 -6e-6,-0.9093288 -0.139339,-1.5913281 -0.418,-2.0460003 -0.271339,-0.4546602 -0.696672,-0.6819934 -1.276,-0.682 -1.151337,6.6e-6 -1.727003,0.9093391 -1.727,2.7280003 -3e-6,1.818668 0.571997,2.728001 1.716,2.728"
         id="path4489"
         style="fill:#ffffff;fill-opacity:1" />
      <path
         d="m 46.056827,6.7804417 4.488,0 c 0.044,0.2200077 0.066,0.4436741 0.066,0.671 -5e-6,0.242007 -0.02201,0.4730067 -0.066,0.693 l -2.882,0 0,1.8590003 2.288,0 c 0.044,0.234671 0.066,0.462004 0.066,0.682 -5e-6,0.23467 -0.02201,0.46567 -0.066,0.693 l -2.288,0 0,3.311 c -0.278669,0.044 -0.542668,0.066 -0.792,0.066 -0.271335,0 -0.542668,-0.022 -0.814,-0.066 l 0,-7.9090003"
         id="path4491"
         style="fill:#ffffff;fill-opacity:1" />
      <path
         d="m 51.642765,6.7804417 4.488,0 c 0.04399,0.2200077 0.06599,0.4436741 0.066,0.671 -6e-6,0.242007 -0.02201,0.4730067 -0.066,0.693 l -2.882,0 0,1.8590003 2.288,0 c 0.04399,0.234671 0.066,0.462004 0.066,0.682 -5e-6,0.23467 -0.02201,0.46567 -0.066,0.693 l -2.288,0 0,3.311 c -0.278669,0.044 -0.542669,0.066 -0.792,0.066 -0.271335,0 -0.542668,-0.022 -0.814,-0.066 l 0,-7.9090003"
         id="path4493"
         style="fill:#ffffff;fill-opacity:1" />
    </g>
  </g>
</svg>
