<?xml version="1.0" encoding="UTF-8" standalone="no"?>
<!-- Created with Inkscape (http://www.inkscape.org/) -->

<svg
   xmlns:dc="http://purl.org/dc/elements/1.1/"
   xmlns:cc="http://creativecommons.org/ns#"
   xmlns:rdf="http://www.w3.org/1999/02/22-rdf-syntax-ns#"
   xmlns:svg="http://www.w3.org/2000/svg"
   xmlns="http://www.w3.org/2000/svg"
   version="1.1"
   width="96"
   height="96"
   id="svg25070">
  <metadata
     id="metadata3353">
    <rdf:RDF>
      <cc:Work
         rdf:about="">
        <dc:format>image/svg+xml</dc:format>
        <dc:type
           rdf:resource="http://purl.org/dc/dcmitype/StillImage" />
        <dc:title></dc:title>
      </cc:Work>
    </rdf:RDF>
  </metadata>
  <defs
     id="defs25072" />
  <g
     transform="matrix(0,-1.1688867,1.637152,0,4.4441632,-33.154527)"
     id="g3885"
     style="font-size:111.1867981px;font-style:normal;font-variant:normal;font-weight:normal;font-stretch:normal;opacity:0.07438019;fill:#000000;fill-opacity:1;stroke:none;font-family:URW Gothic L;-inkscape-font-specification:URW Gothic L Book">
    <path
       d="m -90.683501,56.091573 56.594081,-25.795337 0,-7.227142 -56.594081,-25.6841499 0,8.6725701 44.697093,20.5695578 -44.697093,20.791931 0,8.67257"
       id="path3887"
       style="fill:#000000;fill-opacity:1;stroke:none" />
  </g>
  <g
     transform="matrix(0,-1.1205746,1.637152,0,5.0517581,-29.077217)"
     id="g3881"
     style="font-size:111.1867981px;font-style:normal;font-variant:normal;font-weight:normal;font-stretch:normal;opacity:0.21487606;fill:#000000;fill-opacity:1;stroke:none;font-family:URW Gothic L;-inkscape-font-specification:URW Gothic L Book">
    <path
       d="m -90.683501,56.091573 56.594081,-25.795337 0,-7.227142 -56.594081,-25.6841499 0,8.6725701 44.697093,20.5695578 -44.697093,20.791931 0,8.67257"
       id="path3883"
       style="fill:#000000;fill-opacity:1;stroke:none" />
  </g>
  <g
     transform="matrix(0,-1.0829985,1.5854036,0,6.4354204,-25.365892)"
     id="g3877"
     style="font-size:111.1867981px;font-style:normal;font-variant:normal;font-weight:normal;font-stretch:normal;opacity:0.37190085;fill:#000000;fill-opacity:1;stroke:none;font-family:URW Gothic L;-inkscape-font-specification:URW Gothic L Book">
    <path
       d="m -90.683501,56.091573 56.594081,-25.795337 0,-7.227142 -56.594081,-25.6841499 0,8.6725701 44.697093,20.5695578 -44.697093,20.791931 0,8.67257"
       id="path3879"
       style="fill:#000000;fill-opacity:1;stroke:none" />
  </g>
  <g
     transform="matrix(0,-1.0185824,1.4353332,0,9.9923451,-21.043402)"
     id="text2923"
     style="font-size:111.1867981px;font-style:normal;font-variant:normal;font-weight:normal;font-stretch:normal;fill:#3c3c3c;fill-opacity:1;stroke:#2b2b2b;stroke-width:0.83448154;stroke-miterlimit:4;stroke-opacity:1;stroke-dasharray:none;font-family:URW Gothic L;-inkscape-font-specification:URW Gothic L Book">
    <path
       d="m -90.683501,56.091573 56.594081,-25.795337 0,-7.227142 -56.594081,-25.6841499 0,8.6725701 44.697093,20.5695578 -44.697093,20.791931 0,8.67257"
       id="path3085"
       style="fill:#3c3c3c;fill-opacity:1;stroke:#2b2b2b;stroke-width:0.83448154;stroke-miterlimit:4;stroke-opacity:1;stroke-dasharray:none" />
  </g>
</svg>
