/* XPM */
static char *close_pressed[] = {
/* columns rows colors chars-per-pixel */
"24 24 39 1 ",
"  c #2F2F2F",
". c #312E2F",
"X c #302F2F",
"o c #372D2E",
"O c #382D2E",
"+ c #392D2E",
"@ c gray20",
"# c gray22",
"$ c #53272A",
"% c #52272B",
"& c #54272A",
"* c #57262A",
"= c #58262A",
"- c #59262A",
"; c #5A262A",
": c #5B262A",
"> c #5C252A",
", c #54282B",
"< c #662328",
"1 c #672328",
"2 c #662329",
"3 c #612429",
"4 c #622429",
"5 c #632429",
"6 c #682228",
"7 c #682328",
"8 c #682329",
"9 c #871B24",
"0 c #881C24",
"q c #881C25",
"w c #891C25",
"e c #9C1722",
"r c #9D1722",
"t c #971822",
"y c #971923",
"u c #981822",
"i c #981823",
"p c #9C1822",
"a c #9C1823",
/* pixels */
"########################",
"@@@@@@@@@@@@@@@@@@@@@@@@",
"                        ",
"                        ",
"                        ",
"        +8qii07+        ",
"       $trrrrrrt,       ",
"      $errrrrrrre,      ",
"     +trryrrrryrryO     ",
"     8rrr.:ee>Xrrr1     ",
"     wrrr2 =- 4rrr0     ",
"     trrrr5  3rrrrt     ",
"     trrra*  &prrry     ",
"     qrrr; << -rrr0     ",
"     7rrr+6rr6+rrr<     ",
"     +trrrrrrrrrryo     ",
"      ,errrrrrrre%      ",
"       ,yrrrrrry%       ",
"        O19uu9<o        ",
"                        ",
"                        ",
"                        ",
"                        ",
"                        "
};
