/* XPM */
static char *close_prelight[] = {
/* columns rows colors chars-per-pixel */
"24 24 43 1 ",
"  c #2F2F2F",
". c #313030",
"X c #323030",
"o c gray20",
"O c #3D3132",
"+ c #3E3132",
"@ c #3F3233",
"# c gray22",
"$ c #6A393D",
"% c #6B393D",
"& c #6B393E",
"* c #6C393D",
"= c #723A3F",
"- c #733A3F",
"; c #743A3F",
": c #753B40",
"> c #763B40",
", c #773B40",
"< c #793B41",
"1 c #813D43",
"2 c #833D43",
"3 c #863E44",
"4 c #893E44",
"5 c #8A3E44",
"6 c #8B3E45",
"7 c #8C3E45",
"8 c #8D3F45",
"9 c #8E3E45",
"0 c #8E3F46",
"q c #C14751",
"w c #C24752",
"e c #C34852",
"r c #C44852",
"t c #DB4B57",
"y c #DB4B58",
"u c #DC4B58",
"i c #DB4C58",
"p c #DD4C58",
"a c #E34C59",
"s c #E24D5A",
"d c #E34D5A",
"f c #E44D5A",
"g c #E54D5A",
/* pixels */
"########################",
"oooooooooooooooooooooooo",
"                        ",
"                        ",
"                        ",
"        @0eppw8@        ",
"       %tggggggt&       ",
"      %fggggggggf&      ",
"     @tggyggggiggi+     ",
"     0gggX,aa<.ggg7     ",
"     rggg4 -; 2gggw     ",
"     tgggg3  1ggggt     ",
"     tgggd=  *sgggi     ",
"     eggg> 55 :gggw     ",
"     8ggg@9gg9@ggg6     ",
"     @tggggggggggyO     ",
"      &fggggggggf$      ",
"       &iggggggy$       ",
"        +7quuq6O        ",
"                        ",
"                        ",
"                        ",
"                        ",
"                        "
};
