/* XPM */
static char *close_active[] = {
/* columns rows colors chars-per-pixel */
"24 24 39 1 ",
"  c #2F2F2F",
". c #302F2F",
"X c #322F2F",
"o c #3A2D2E",
"O c #3B2D2E",
"+ c #3B2D2F",
"@ c gray20",
"# c gray22",
"$ c #5E282D",
"% c #5F282D",
"& c #5D292E",
"* c #5F292E",
"= c #64272D",
"- c #69272D",
"; c #65282D",
": c #66282D",
"> c #67282D",
", c #68282D",
"< c #71262C",
"1 c #70272D",
"2 c #73262D",
"3 c #76252C",
"4 c #77252C",
"5 c #76262D",
"6 c #78252C",
"7 c #79252D",
"8 c #7A252C",
"9 c #B61D2A",
"0 c #B71D2A",
"q c #B61D2B",
"w c #B71D2B",
"e c #B81D2A",
"r c #BD1C2A",
"t c #BC1D2A",
"y c #BD1D2B",
"u c #BE1C2A",
"i c #A2202B",
"p c #A3202B",
"a c #A4202B",
/* pixels */
"########################",
"@@@@@@@@@@@@@@@@@@@@@@@@",
"                        ",
"                        ",
"                        ",
"        +7peei7+        ",
"       $9uuuuuu9*       ",
"      $ruuuuuuuur*      ",
"     +9uuquuuuwuuwO     ",
"     7uuuX,rr-.uuu6     ",
"     auuu5 ;; <uuui     ",
"     9uuuu2  1uuuu9     ",
"     9uuuy=  %tuuuw     ",
"     puuu> 33 :uuui     ",
"     7uuu+8uu8+uuu4     ",
"     +9uuuuuuuuuuqo     ",
"      *ruuuuuuuur&      ",
"       *wuuuuuuq&       ",
"        O6i00i4o        ",
"                        ",
"                        ",
"                        ",
"                        ",
"                        "
};
