<?xml version="1.0" encoding="UTF-8" standalone="no"?>
<!-- Created with Inkscape (http://www.inkscape.org/) -->

<svg
   xmlns:dc="http://purl.org/dc/elements/1.1/"
   xmlns:cc="http://creativecommons.org/ns#"
   xmlns:rdf="http://www.w3.org/1999/02/22-rdf-syntax-ns#"
   xmlns:svg="http://www.w3.org/2000/svg"
   xmlns="http://www.w3.org/2000/svg"
   xmlns:xlink="http://www.w3.org/1999/xlink"
   xmlns:sodipodi="http://sodipodi.sourceforge.net/DTD/sodipodi-0.dtd"
   xmlns:inkscape="http://www.inkscape.org/namespaces/inkscape"
   width="10"
   height="4"
   id="svg2"
   version="1.1"
   inkscape:version="0.48.2 r9819"
   sodipodi:docname="scroll-hhandle.svg">
  <sodipodi:namedview
     pagecolor="#ffffff"
     bordercolor="#666666"
     borderopacity="1"
     objecttolerance="10"
     gridtolerance="10"
     guidetolerance="10"
     inkscape:pageopacity="0"
     inkscape:pageshadow="2"
     inkscape:window-width="1061"
     inkscape:window-height="769"
     id="namedview9"
     showgrid="false"
     inkscape:zoom="43.7"
     inkscape:cx="0.62929062"
     inkscape:cy="2"
     inkscape:window-x="0"
     inkscape:window-y="0"
     inkscape:window-maximized="0"
     inkscape:current-layer="layer1" />
  <defs
     id="defs4" />
  <metadata
     id="metadata7">
    <rdf:RDF>
      <cc:Work
         rdf:about="">
        <dc:format>image/svg+xml</dc:format>
        <dc:type
           rdf:resource="http://purl.org/dc/dcmitype/StillImage" />
        <dc:title />
      </cc:Work>
    </rdf:RDF>
  </metadata>
  <g
     inkscape:label="Layer 1"
     inkscape:groupmode="layer"
     id="layer1">
    <rect
       style="fill:#555555;fill-opacity:1;fill-rule:evenodd;stroke:none"
       id="rect3592"
       width="2"
       height="4"
       x="0"
       y="0"
       rx="0"
       ry="0" />
    <use
       x="0"
       y="0"
       xlink:href="#rect3592"
       id="use2825"
       transform="translate(8,0)"
       width="10"
       height="4" />
    <use
       x="0"
       y="0"
       xlink:href="#use2825"
       id="use2827"
       transform="translate(-4,0)"
       width="10"
       height="4" />
    <path
       style="fill:#d35f5f"
       d="m 0.01144165,2.0091533 0,-1.99084666 0.98398169,0 0.98398166,0 0,1.99084666 0,1.9908467 -0.98398166,0 -0.98398169,0 0,-1.9908467 z"
       id="path2985"
       inkscape:connector-curvature="0" />
    <path
       style="fill:#d35f5f"
       d="m 4.0160183,2.0091533 0,-1.99084666 0.9839817,0 0.9839817,0 0,1.99084666 L 5.9839817,4 5,4 4.0160183,4 l 0,-1.9908467 z"
       id="path2987"
       inkscape:connector-curvature="0" />
    <path
       style="fill:#d35f5f"
       d="m 8.020595,2.0091533 0,-1.99084666 0.9839817,0 0.9839817,0 0,1.99084666 0,1.9908467 -0.9839817,0 -0.9839817,0 0,-1.9908467 z"
       id="path2989"
       inkscape:connector-curvature="0" />
  </g>
</svg>
