<?xml version="1.0" encoding="UTF-8" standalone="no"?>
<!-- Created with Inkscape (http://www.inkscape.org/) -->

<svg
   xmlns:dc="http://purl.org/dc/elements/1.1/"
   xmlns:cc="http://creativecommons.org/ns#"
   xmlns:rdf="http://www.w3.org/1999/02/22-rdf-syntax-ns#"
   xmlns:svg="http://www.w3.org/2000/svg"
   xmlns="http://www.w3.org/2000/svg"
   xmlns:xlink="http://www.w3.org/1999/xlink"
   xmlns:sodipodi="http://sodipodi.sourceforge.net/DTD/sodipodi-0.dtd"
   xmlns:inkscape="http://www.inkscape.org/namespaces/inkscape"
   version="1.1"
   width="64"
   height="22"
   id="svg3273"
   inkscape:version="0.48.2 r9819"
   sodipodi:docname="toggle-off-intl.svg">
  <sodipodi:namedview
     pagecolor="#1e1e1e"
     bordercolor="#bc1010"
     borderopacity="1"
     objecttolerance="10"
     gridtolerance="10"
     guidetolerance="10"
     inkscape:pageopacity="1"
     inkscape:pageshadow="2"
     inkscape:window-width="1280"
     inkscape:window-height="771"
     id="namedview68"
     showgrid="true"
     showguides="true"
     inkscape:guide-bbox="true"
     inkscape:showpageshadow="false"
     showborder="false"
     inkscape:zoom="16.929914"
     inkscape:cx="28.759118"
     inkscape:cy="14.117718"
     inkscape:window-x="0"
     inkscape:window-y="0"
     inkscape:window-maximized="1"
     inkscape:current-layer="layer2">
    <inkscape:grid
       type="xygrid"
       id="grid3045"
       empspacing="8"
       visible="true"
       enabled="true"
       snapvisiblegridlinesonly="true" />
    <sodipodi:guide
       orientation="1,0"
       position="0,14"
       id="guide4279" />
    <sodipodi:guide
       orientation="0,1"
       position="38,22"
       id="guide4281" />
    <sodipodi:guide
       orientation="0,1"
       position="35,0"
       id="guide4283" />
    <sodipodi:guide
       orientation="1,0"
       position="64,7"
       id="guide4285" />
  </sodipodi:namedview>
  <defs
     id="defs3275">
    <linearGradient
       id="linearGradient4649">
      <stop
         id="stop4651"
         style="stop-color:#000000;stop-opacity:0;"
         offset="0" />
      <stop
         id="stop4653"
         style="stop-color:#000000;stop-opacity:0.27450982;"
         offset="1" />
    </linearGradient>
    <linearGradient
       id="linearGradient3921">
      <stop
         offset="0"
         style="stop-color:#ffffff;stop-opacity:0;"
         id="stop3923" />
      <stop
         offset="1"
         style="stop-color:#ffffff;stop-opacity:0.15686275;"
         id="stop3925" />
    </linearGradient>
    <linearGradient
       inkscape:collect="always"
       id="linearGradient3985">
      <stop
         style="stop-color:#ffffff;stop-opacity:1;"
         offset="0"
         id="stop3987" />
      <stop
         style="stop-color:#ffffff;stop-opacity:0;"
         offset="1"
         id="stop3989" />
    </linearGradient>
    <linearGradient
       id="linearGradient3938">
      <stop
         style="stop-color:#a0a0a0;stop-opacity:1;"
         offset="0"
         id="stop3940" />
      <stop
         style="stop-color:#dcdcdc;stop-opacity:1;"
         offset="1"
         id="stop3942" />
    </linearGradient>
    <linearGradient
       id="linearGradient4095">
      <stop
         id="stop4097"
         style="stop-color:#131313;stop-opacity:1"
         offset="0" />
      <stop
         id="stop4099"
         style="stop-color:#131313;stop-opacity:0"
         offset="1" />
    </linearGradient>
    <linearGradient
       inkscape:collect="always"
       xlink:href="#linearGradient3921"
       id="linearGradient3152"
       gradientUnits="userSpaceOnUse"
       gradientTransform="translate(-64.499996,-20.499994)"
       x1="40.8125"
       y1="19.5"
       x2="40.8125"
       y2="-0.5" />
    <linearGradient
       inkscape:collect="always"
       xlink:href="#linearGradient3938"
       id="linearGradient3128"
       gradientUnits="userSpaceOnUse"
       gradientTransform="translate(-32,0)"
       x1="48"
       y1="21"
       x2="48"
       y2="2" />
    <linearGradient
       id="linearGradient3990-9">
      <stop
         id="stop3992-5"
         style="stop-color:#ffffff;stop-opacity:1"
         offset="0" />
      <stop
         id="stop3994-0"
         style="stop-color:#ffffff;stop-opacity:0"
         offset="1" />
    </linearGradient>
    <linearGradient
       y2="39"
       x2="41"
       y1="1"
       x1="41"
       gradientUnits="userSpaceOnUse"
       id="linearGradient3077-4"
       xlink:href="#linearGradient4095"
       inkscape:collect="always"
       gradientTransform="matrix(1,0,0,-1,-32,22)" />
    <radialGradient
       inkscape:collect="always"
       xlink:href="#linearGradient3988"
       id="radialGradient4013"
       gradientUnits="userSpaceOnUse"
       gradientTransform="matrix(11,0,0,10,-448,-99)"
       cx="42.5"
       cy="11"
       fx="42.5"
       fy="11"
       r="0.5" />
    <linearGradient
       id="linearGradient3988">
      <stop
         id="stop3990"
         offset="0"
         style="stop-color:#000000;stop-opacity:1;" />
      <stop
         style="stop-color:#000000;stop-opacity:0.70588237;"
         offset="0.60000002"
         id="stop3997" />
      <stop
         id="stop3993"
         offset="1"
         style="stop-color:#000000;stop-opacity:0;" />
    </linearGradient>
    <radialGradient
       inkscape:collect="always"
       xlink:href="#linearGradient3976"
       id="radialGradient4011"
       gradientUnits="userSpaceOnUse"
       gradientTransform="matrix(11,0,0,10,-447,-99)"
       cx="42.5"
       cy="11"
       fx="42.5"
       fy="11"
       r="0.5" />
    <linearGradient
       id="linearGradient3976">
      <stop
         style="stop-color:#ffffff;stop-opacity:1;"
         offset="0"
         id="stop3978" />
      <stop
         id="stop3995"
         offset="0.60000002"
         style="stop-color:#ffffff;stop-opacity:0.70588237;" />
      <stop
         style="stop-color:#ffffff;stop-opacity:0;"
         offset="1"
         id="stop3980" />
    </linearGradient>
    <radialGradient
       inkscape:collect="always"
       xlink:href="#linearGradient3988"
       id="radialGradient4005"
       gradientUnits="userSpaceOnUse"
       gradientTransform="matrix(11,0,0,10,-452,-99)"
       cx="42.5"
       cy="11"
       fx="42.5"
       fy="11"
       r="0.5" />
    <radialGradient
       inkscape:collect="always"
       xlink:href="#linearGradient3976"
       id="radialGradient4003"
       gradientUnits="userSpaceOnUse"
       gradientTransform="matrix(11,0,0,10,-451,-99)"
       cx="42.5"
       cy="11"
       fx="42.5"
       fy="11"
       r="0.5" />
    <radialGradient
       inkscape:collect="always"
       xlink:href="#linearGradient3988"
       id="radialGradient3986"
       gradientUnits="userSpaceOnUse"
       gradientTransform="matrix(11,0,0,10,-456,-99)"
       cx="42.5"
       cy="11"
       fx="42.5"
       fy="11"
       r="0.5" />
    <radialGradient
       r="0.5"
       fy="11"
       fx="42.5"
       cy="11"
       cx="42.5"
       gradientTransform="matrix(11,0,0,10,-455,-99)"
       gradientUnits="userSpaceOnUse"
       id="radialGradient4077"
       xlink:href="#linearGradient3976"
       inkscape:collect="always" />
    <linearGradient
       inkscape:collect="always"
       xlink:href="#linearGradient3938"
       id="linearGradient3951"
       gradientUnits="userSpaceOnUse"
       gradientTransform="translate(-32,0)"
       x1="48"
       y1="21"
       x2="48"
       y2="2" />
    <linearGradient
       inkscape:collect="always"
       xlink:href="#linearGradient3990-9"
       id="linearGradient3953"
       gradientUnits="userSpaceOnUse"
       gradientTransform="translate(-32,0)"
       x1="41"
       y1="1"
       x2="41"
       y2="28" />
    <radialGradient
       inkscape:collect="always"
       xlink:href="#linearGradient3976"
       id="radialGradient3955"
       gradientUnits="userSpaceOnUse"
       gradientTransform="matrix(11,0,0,10,-455,-99)"
       cx="42.5"
       cy="11"
       fx="42.5"
       fy="11"
       r="0.5" />
    <radialGradient
       inkscape:collect="always"
       xlink:href="#linearGradient3988"
       id="radialGradient3957"
       gradientUnits="userSpaceOnUse"
       gradientTransform="matrix(11,0,0,10,-456,-99)"
       cx="42.5"
       cy="11"
       fx="42.5"
       fy="11"
       r="0.5" />
    <radialGradient
       inkscape:collect="always"
       xlink:href="#linearGradient3976"
       id="radialGradient3959"
       gradientUnits="userSpaceOnUse"
       gradientTransform="matrix(11,0,0,10,-451,-99)"
       cx="42.5"
       cy="11"
       fx="42.5"
       fy="11"
       r="0.5" />
    <radialGradient
       inkscape:collect="always"
       xlink:href="#linearGradient3988"
       id="radialGradient3961"
       gradientUnits="userSpaceOnUse"
       gradientTransform="matrix(11,0,0,10,-452,-99)"
       cx="42.5"
       cy="11"
       fx="42.5"
       fy="11"
       r="0.5" />
    <radialGradient
       inkscape:collect="always"
       xlink:href="#linearGradient3976"
       id="radialGradient3963"
       gradientUnits="userSpaceOnUse"
       gradientTransform="matrix(11,0,0,10,-447,-99)"
       cx="42.5"
       cy="11"
       fx="42.5"
       fy="11"
       r="0.5" />
    <radialGradient
       inkscape:collect="always"
       xlink:href="#linearGradient3988"
       id="radialGradient3965"
       gradientUnits="userSpaceOnUse"
       gradientTransform="matrix(11,0,0,10,-448,-99)"
       cx="42.5"
       cy="11"
       fx="42.5"
       fy="11"
       r="0.5" />
    <linearGradient
       inkscape:collect="always"
       xlink:href="#linearGradient3938"
       id="linearGradient3971"
       gradientUnits="userSpaceOnUse"
       gradientTransform="translate(-32,0)"
       x1="48"
       y1="21"
       x2="48"
       y2="2" />
    <linearGradient
       inkscape:collect="always"
       xlink:href="#linearGradient3938"
       id="linearGradient3975"
       gradientUnits="userSpaceOnUse"
       gradientTransform="translate(-32,0)"
       x1="48"
       y1="21"
       x2="48"
       y2="2" />
    <linearGradient
       inkscape:collect="always"
       xlink:href="#linearGradient3938"
       id="linearGradient3978"
       gradientUnits="userSpaceOnUse"
       gradientTransform="translate(-32,0)"
       x1="48"
       y1="21"
       x2="48"
       y2="2" />
    <linearGradient
       inkscape:collect="always"
       xlink:href="#linearGradient3938"
       id="linearGradient3983"
       gradientUnits="userSpaceOnUse"
       gradientTransform="translate(-32,0)"
       x1="48"
       y1="21"
       x2="48"
       y2="2" />
    <linearGradient
       inkscape:collect="always"
       xlink:href="#linearGradient3938"
       id="linearGradient4062"
       gradientUnits="userSpaceOnUse"
       gradientTransform="translate(-32,0)"
       x1="48"
       y1="21"
       x2="48"
       y2="2" />
    <linearGradient
       inkscape:collect="always"
       xlink:href="#linearGradient3938"
       id="linearGradient4066"
       gradientUnits="userSpaceOnUse"
       gradientTransform="translate(-32,0)"
       x1="48"
       y1="21"
       x2="48"
       y2="2" />
    <linearGradient
       inkscape:collect="always"
       xlink:href="#linearGradient3938"
       id="linearGradient4071"
       gradientUnits="userSpaceOnUse"
       gradientTransform="translate(-32,0)"
       x1="48"
       y1="21"
       x2="48"
       y2="2" />
    <linearGradient
       inkscape:collect="always"
       xlink:href="#linearGradient3985"
       id="linearGradient4074"
       gradientUnits="userSpaceOnUse"
       gradientTransform="matrix(1,0,0,-1,-32,22)"
       x1="48"
       y1="21"
       x2="48"
       y2="-4" />
    <radialGradient
       inkscape:collect="always"
       xlink:href="#linearGradient3988-5"
       id="radialGradient4013-9"
       gradientUnits="userSpaceOnUse"
       gradientTransform="matrix(11,0,0,10,-448,-99)"
       cx="42.5"
       cy="11"
       fx="42.5"
       fy="11"
       r="0.5" />
    <linearGradient
       id="linearGradient3988-5">
      <stop
         id="stop3990-8"
         offset="0"
         style="stop-color:#000000;stop-opacity:1;" />
      <stop
         style="stop-color:#000000;stop-opacity:0.70588237;"
         offset="0.60000002"
         id="stop3997-5" />
      <stop
         id="stop3993-8"
         offset="1"
         style="stop-color:#000000;stop-opacity:0;" />
    </linearGradient>
    <radialGradient
       inkscape:collect="always"
       xlink:href="#linearGradient3976-2"
       id="radialGradient4011-7"
       gradientUnits="userSpaceOnUse"
       gradientTransform="matrix(11,0,0,10,-447,-99)"
       cx="42.5"
       cy="11"
       fx="42.5"
       fy="11"
       r="0.5" />
    <linearGradient
       id="linearGradient3976-2">
      <stop
         style="stop-color:#ffffff;stop-opacity:1;"
         offset="0"
         id="stop3978-8" />
      <stop
         id="stop3995-9"
         offset="0.60000002"
         style="stop-color:#ffffff;stop-opacity:0.70588237;" />
      <stop
         style="stop-color:#ffffff;stop-opacity:0;"
         offset="1"
         id="stop3980-6" />
    </linearGradient>
    <radialGradient
       inkscape:collect="always"
       xlink:href="#linearGradient3988-5"
       id="radialGradient4005-9"
       gradientUnits="userSpaceOnUse"
       gradientTransform="matrix(11,0,0,10,-452,-99)"
       cx="42.5"
       cy="11"
       fx="42.5"
       fy="11"
       r="0.5" />
    <radialGradient
       inkscape:collect="always"
       xlink:href="#linearGradient3976-2"
       id="radialGradient4003-1"
       gradientUnits="userSpaceOnUse"
       gradientTransform="matrix(11,0,0,10,-451,-99)"
       cx="42.5"
       cy="11"
       fx="42.5"
       fy="11"
       r="0.5" />
    <radialGradient
       inkscape:collect="always"
       xlink:href="#linearGradient3988-5"
       id="radialGradient3986-1"
       gradientUnits="userSpaceOnUse"
       gradientTransform="matrix(11,0,0,10,-456,-99)"
       cx="42.5"
       cy="11"
       fx="42.5"
       fy="11"
       r="0.5" />
    <radialGradient
       r="0.5"
       fy="11"
       fx="42.5"
       cy="11"
       cx="42.5"
       gradientTransform="matrix(11,0,0,10,-455,-99)"
       gradientUnits="userSpaceOnUse"
       id="radialGradient4077-8"
       xlink:href="#linearGradient3976-2"
       inkscape:collect="always" />
    <linearGradient
       y2="28"
       x2="41"
       y1="1"
       x1="41"
       gradientUnits="userSpaceOnUse"
       id="linearGradient3077-4-9"
       xlink:href="#linearGradient3990-9-4"
       inkscape:collect="always"
       gradientTransform="translate(-32,0)" />
    <linearGradient
       id="linearGradient3990-9-4">
      <stop
         id="stop3992-5-7"
         style="stop-color:#ffffff;stop-opacity:1"
         offset="0" />
      <stop
         id="stop3994-0-8"
         style="stop-color:#ffffff;stop-opacity:0"
         offset="1" />
    </linearGradient>
    <linearGradient
       id="linearGradient3938-4">
      <stop
         style="stop-color:#a0a0a0;stop-opacity:1;"
         offset="0"
         id="stop3940-9" />
      <stop
         style="stop-color:#dcdcdc;stop-opacity:1;"
         offset="1"
         id="stop3942-9" />
    </linearGradient>
    <linearGradient
       y2="2"
       x2="48"
       y1="21"
       x1="48"
       gradientTransform="translate(-32,0)"
       gradientUnits="userSpaceOnUse"
       id="linearGradient3228"
       xlink:href="#linearGradient3938-4"
       inkscape:collect="always" />
    <linearGradient
       inkscape:collect="always"
       xlink:href="#linearGradient3938-4"
       id="linearGradient4265"
       gradientUnits="userSpaceOnUse"
       gradientTransform="translate(-32,0)"
       x1="48"
       y1="21"
       x2="48"
       y2="2" />
    <radialGradient
       inkscape:collect="always"
       xlink:href="#linearGradient3988-5-7"
       id="radialGradient4013-9-2"
       gradientUnits="userSpaceOnUse"
       gradientTransform="matrix(11,0,0,10,-447,-99)"
       cx="42.5"
       cy="11"
       fx="42.5"
       fy="11"
       r="0.5" />
    <linearGradient
       id="linearGradient3988-5-7">
      <stop
         id="stop3990-8-2"
         offset="0"
         style="stop-color:#000000;stop-opacity:1;" />
      <stop
         style="stop-color:#000000;stop-opacity:0.70588237;"
         offset="0.60000002"
         id="stop3997-5-7" />
      <stop
         id="stop3993-8-6"
         offset="1"
         style="stop-color:#000000;stop-opacity:0;" />
    </linearGradient>
    <radialGradient
       inkscape:collect="always"
       xlink:href="#linearGradient3976-2-0"
       id="radialGradient4011-7-2"
       gradientUnits="userSpaceOnUse"
       gradientTransform="matrix(11,0,0,10,-446,-99)"
       cx="42.5"
       cy="11"
       fx="42.5"
       fy="11"
       r="0.5" />
    <linearGradient
       id="linearGradient3976-2-0">
      <stop
         style="stop-color:#ffffff;stop-opacity:1;"
         offset="0"
         id="stop3978-8-5" />
      <stop
         id="stop3995-9-0"
         offset="0.60000002"
         style="stop-color:#ffffff;stop-opacity:0.70588237;" />
      <stop
         style="stop-color:#ffffff;stop-opacity:0;"
         offset="1"
         id="stop3980-6-1" />
    </linearGradient>
    <radialGradient
       inkscape:collect="always"
       xlink:href="#linearGradient3988-5-7"
       id="radialGradient4005-9-8"
       gradientUnits="userSpaceOnUse"
       gradientTransform="matrix(11,0,0,10,-451,-99)"
       cx="42.5"
       cy="11"
       fx="42.5"
       fy="11"
       r="0.5" />
    <radialGradient
       inkscape:collect="always"
       xlink:href="#linearGradient3976-2-0"
       id="radialGradient4003-1-6"
       gradientUnits="userSpaceOnUse"
       gradientTransform="matrix(11,0,0,10,-450,-99)"
       cx="42.5"
       cy="11"
       fx="42.5"
       fy="11"
       r="0.5" />
    <radialGradient
       inkscape:collect="always"
       xlink:href="#linearGradient3988-5-7"
       id="radialGradient3986-1-3"
       gradientUnits="userSpaceOnUse"
       gradientTransform="matrix(11,0,0,10,-455,-99)"
       cx="42.5"
       cy="11"
       fx="42.5"
       fy="11"
       r="0.5" />
    <radialGradient
       r="0.5"
       fy="11"
       fx="42.5"
       cy="11"
       cx="42.5"
       gradientTransform="matrix(11,0,0,10,-454,-99)"
       gradientUnits="userSpaceOnUse"
       id="radialGradient4077-8-1"
       xlink:href="#linearGradient3976-2-0"
       inkscape:collect="always" />
    <linearGradient
       y2="28"
       x2="41"
       y1="1"
       x1="41"
       gradientUnits="userSpaceOnUse"
       id="linearGradient3077-4-9-4"
       xlink:href="#linearGradient3990-9-4-5"
       inkscape:collect="always"
       gradientTransform="translate(-32,-1)" />
    <linearGradient
       id="linearGradient3990-9-4-5">
      <stop
         id="stop3992-5-7-1"
         style="stop-color:#ffffff;stop-opacity:1"
         offset="0" />
      <stop
         id="stop3994-0-8-2"
         style="stop-color:#ffffff;stop-opacity:0"
         offset="1" />
    </linearGradient>
    <linearGradient
       y2="2"
       x2="48"
       y1="21"
       x1="48"
       gradientTransform="translate(-32,-1)"
       gradientUnits="userSpaceOnUse"
       id="linearGradient3228-0"
       xlink:href="#linearGradient3938-4-7"
       inkscape:collect="always" />
    <linearGradient
       id="linearGradient3938-4-7">
      <stop
         style="stop-color:#a0a0a0;stop-opacity:1;"
         offset="0"
         id="stop3940-9-2" />
      <stop
         style="stop-color:#dcdcdc;stop-opacity:1;"
         offset="1"
         id="stop3942-9-2" />
    </linearGradient>
    <linearGradient
       inkscape:collect="always"
       xlink:href="#linearGradient3921-5"
       id="linearGradient3152-1"
       gradientUnits="userSpaceOnUse"
       gradientTransform="translate(-64.499996,-20.499994)"
       x1="40.8125"
       y1="18.499994"
       x2="40.8125"
       y2="0.49999401" />
    <linearGradient
       id="linearGradient3921-5">
      <stop
         offset="0"
         style="stop-color:#ffffff;stop-opacity:0;"
         id="stop3923-6" />
      <stop
         offset="1"
         style="stop-color:#ffffff;stop-opacity:0.15686275;"
         id="stop3925-4" />
    </linearGradient>
    <filter
       inkscape:collect="always"
       id="filter4131-3"
       x="-0.12"
       width="1.24"
       y="-0.12"
       height="1.24"
       color-interpolation-filters="sRGB">
      <feGaussianBlur
         inkscape:collect="always"
         stdDeviation="0.5"
         id="feGaussianBlur4133-2" />
    </filter>
    <linearGradient
       inkscape:collect="always"
       xlink:href="#linearGradient3921-5"
       id="linearGradient4525"
       gradientUnits="userSpaceOnUse"
       gradientTransform="translate(-64.499996,-20.499994)"
       x1="40.8125"
       y1="18.499994"
       x2="40.8125"
       y2="0.49999401" />
    <linearGradient
       inkscape:collect="always"
       xlink:href="#linearGradient3938-4-7"
       id="linearGradient4529"
       gradientUnits="userSpaceOnUse"
       gradientTransform="translate(-32,-1)"
       x1="48"
       y1="21"
       x2="48"
       y2="2" />
    <linearGradient
       inkscape:collect="always"
       xlink:href="#linearGradient4649"
       id="linearGradient4550"
       gradientUnits="userSpaceOnUse"
       gradientTransform="matrix(-1,0,0,1,64.499996,1.500006)"
       x1="40.8125"
       y1="18.499994"
       x2="40.8125"
       y2="0.49999401" />
    <linearGradient
       y2="0.49999401"
       x2="40.8125"
       y1="18.499994"
       x1="40.8125"
       gradientTransform="matrix(-1,0,0,-1,64.499996,20.499994)"
       gradientUnits="userSpaceOnUse"
       id="linearGradient4443"
       xlink:href="#linearGradient3921-5-9"
       inkscape:collect="always" />
    <linearGradient
       id="linearGradient3921-5-9">
      <stop
         offset="0"
         style="stop-color:#ffffff;stop-opacity:0;"
         id="stop3923-6-1" />
      <stop
         offset="1"
         style="stop-color:#ffffff;stop-opacity:0.11764706;"
         id="stop3925-4-6" />
    </linearGradient>
    <linearGradient
       y2="0.49999401"
       x2="40.8125"
       y1="18.499994"
       x1="40.8125"
       gradientTransform="matrix(-1,0,0,-1,64.499996,20.499994)"
       gradientUnits="userSpaceOnUse"
       id="linearGradient4615"
       xlink:href="#linearGradient3921-5-9"
       inkscape:collect="always" />
    <linearGradient
       inkscape:collect="always"
       xlink:href="#linearGradient3921-5-9-9"
       id="linearGradient4621"
       gradientUnits="userSpaceOnUse"
       gradientTransform="matrix(-1,0,0,-1,64.499996,20.499994)"
       x1="40.8125"
       y1="18.499994"
       x2="40.8125"
       y2="0.49999401" />
    <linearGradient
       id="linearGradient3921-5-9-9">
      <stop
         offset="0"
         style="stop-color:#333333;stop-opacity:1;"
         id="stop3923-6-1-6" />
      <stop
         offset="1"
         style="stop-color:#555555;stop-opacity:1;"
         id="stop3925-4-6-6" />
    </linearGradient>
    <linearGradient
       y2="0.49999401"
       x2="40.8125"
       y1="18.499994"
       x1="40.8125"
       gradientTransform="matrix(-1,0,0,-1,64.499996,20.499994)"
       gradientUnits="userSpaceOnUse"
       id="linearGradient4641"
       xlink:href="#linearGradient3921-5-9-9"
       inkscape:collect="always" />
  </defs>
  <metadata
     id="metadata3278">
    <rdf:RDF>
      <cc:Work
         rdf:about="">
        <dc:format>image/svg+xml</dc:format>
        <dc:type
           rdf:resource="http://purl.org/dc/dcmitype/StillImage" />
        <dc:title />
      </cc:Work>
    </rdf:RDF>
  </metadata>
  <g
     inkscape:groupmode="layer"
     id="layer2"
     inkscape:label="Trough">
    <path
       sodipodi:type="inkscape:offset"
       inkscape:radius="-1.0053965"
       inkscape:original="M 5 2 C 3.338 2 2 3.338 2 5 L 2 17 C 2 18.662 3.338 20 5 20 L 59 20 C 60.662 20 62 18.662 62 17 L 62 5 C 62 3.338 60.662 2 59 2 L 5 2 z "
       style="color:#000000;fill:url(#linearGradient4641);fill-opacity:1;stroke:none;stroke-width:0.99999994;marker:none;visibility:visible;display:inline;overflow:visible;enable-background:accumulate"
       id="path4619"
       d="M 5,3 C 3.8775991,3 3,3.8775991 3,5 l 0,12 c 0,1.122401 0.8775991,2 2,2 l 54,0 c 1.122401,0 2,-0.877599 2,-2 L 61,5 C 61,3.8775991 60.122401,3 59,3 L 5,3 z" />
    <path
       sodipodi:nodetypes="sssssssssccccc"
       inkscape:connector-curvature="0"
       style="opacity:0.07999998;color:#000000;fill:#000000;fill-opacity:1;stroke:none;stroke-width:0.99999994;marker:none;visibility:visible;display:inline;overflow:visible;enable-background:accumulate"
       d="M 5,2 C 3.338,2 2,3.338 2,5 l 0,12 c 0,1.662 1.338,3 3,3 l 54,0 c 1.662,0 3,-1.338 3,-3 L 62,5 C 62,3.338 60.662,2 59,2 z m 0,3 54,0 0,12 -54,0 z"
       id="rect4052" />
    <path
       sodipodi:nodetypes="ssssssssssssssssss"
       inkscape:connector-curvature="0"
       style="opacity:0.12000002;color:#000000;fill:#000000;fill-opacity:1;stroke:none;stroke-width:0.99999994;marker:none;visibility:visible;display:inline;overflow:visible;enable-background:accumulate"
       d="M 5,2 C 3.338,2 2,3.338 2,5 l 0,12 c 0,1.662 1.338,3 3,3 l 54,0 c 1.662,0 3,-1.338 3,-3 L 62,5 C 62,3.338 60.662,2 59,2 z m 0,2 54,0 c 0.5825,0 1,0.4175 1,1 l 0,12 c 0,0.5825 -0.4175,1 -1,1 L 5,18 C 4.4175,18 4,17.5825 4,17 L 4,5 C 4,4.4175 4.4175,4 5,4 z"
       id="rect4042" />
    <path
       sodipodi:nodetypes="ssssssssssssssssss"
       inkscape:connector-curvature="0"
       style="opacity:0.2;color:#000000;fill:#ffffff;fill-opacity:1;stroke:none;stroke-width:0.99999994000000003;marker:none;visibility:visible;display:inline;overflow:visible;enable-background:accumulate"
       d="M 5,2 C 3.338,2 2,3.338 2,5 l 0,12 c 0,1.662 1.338,3 3,3 l 54,0 c 1.662,0 3,-1.338 3,-3 L 62,5 C 62,3.338 60.662,2 59,2 z m 0,1 54,0 c 1.117387,0 2,0.882613 2,2 l 0,12 c 0,1.117387 -0.882613,2 -2,2 L 5,19 C 3.8826128,19 3,18.117387 3,17 L 3,5 C 3,3.882613 3.8826128,3 5,3 z"
       id="rect4038" />
    <g
       id="g4655"
       transform="translate(-1,0)"
       style="opacity:0.5">
      <path
         inkscape:connector-curvature="0"
         style="opacity:0.50000000000000000;color:#000000;fill:#000000;fill-opacity:1;fill-rule:nonzero;stroke:none;stroke-width:2;marker:none;visibility:visible;display:inline;overflow:visible;filter:url(#filter4131-3);enable-background:accumulate"
         d="m 48,6.5 c -2.761424,0 -5,2.2385763 -5,5 0,2.761424 2.238576,5 5,5 2.761424,0 5,-2.238576 5,-5 0,-2.7614237 -2.238576,-5 -5,-5 z m 0,2 c 1.656854,0 3,1.3431458 3,3 0,1.656854 -1.343146,3 -3,3 -1.656854,0 -3,-1.343146 -3,-3 0,-1.6568542 1.343146,-3 3,-3 z"
         id="path4125" />
      <path
         id="path4120"
         d="m 48,6 c -2.761424,0 -5,2.2385763 -5,5 0,2.761424 2.238576,5 5,5 2.761424,0 5,-2.238576 5,-5 0,-2.7614237 -2.238576,-5 -5,-5 z m 0,2 c 1.656854,0 3,1.3431458 3,3 0,1.656854 -1.343146,3 -3,3 -1.656854,0 -3,-1.343146 -3,-3 0,-1.6568542 1.343146,-3 3,-3 z"
         style="color:#000000;fill:#ffffff;fill-opacity:1;fill-rule:nonzero;stroke:none;stroke-width:2;marker:none;visibility:visible;display:inline;overflow:visible;enable-background:accumulate"
         inkscape:connector-curvature="0" />
    </g>
    <path
       style="fill:#ff6600"
       d="m 13.134441,11.517859 c -0.09193,-0.06733 -0.09943,-0.23767 -0.08512,-1.9344461 l 0.01569,-1.8606119 0.443003,0 0.443002,0 0.01569,1.8606119 c 0.01777,2.1074591 0.04042,2.0082791 -0.458689,2.0082791 -0.150016,0 -0.318121,-0.03322 -0.373566,-0.07383 z"
       id="path3121"
       inkscape:connector-curvature="0" />
    <path
       style="fill:#ff6600"
       d="m 3.0055952,11.946095 c -0.00595,-0.178678 0.00626,-0.544155 0.02712,-0.812172 l 0.037934,-0.487303 4.4508072,0 4.4508068,0 0,0.472536 0,0.472536 -4.4566139,0 -4.4566142,0 -0.021313,0.339636 -0.021313,0.339635 -0.010815,-0.324868 z"
       id="path3123"
       inkscape:connector-curvature="0" />
    <path
       style="fill:#ff6600"
       d="m 3.0053529,11.296357 c -0.00581,-0.178678 0.0065,-0.544155 0.027362,-0.812172 l 0.037934,-0.4873028 4.4508072,0 4.4508068,0 0,0.5020698 0,0.50207 -4.4564747,0 -4.4564751,0 -0.021694,0.310102 -0.021694,0.310102 -0.010572,-0.324869 z"
       id="path3125"
       inkscape:connector-curvature="0" />
    <path
       style="fill:#ff6600"
       d="m 3.0053529,11.296357 c -0.00581,-0.178678 0.0065,-0.544155 0.027362,-0.812172 l 0.037934,-0.4873028 4.4508072,0 4.4508068,0 0,0.5020698 0,0.50207 -4.4564747,0 -4.4564751,0 -0.021694,0.310102 -0.021694,0.310102 -0.010572,-0.324869 z"
       id="path3127"
       inkscape:connector-curvature="0" />
    <path
       style="fill:#ff6600"
       d="M 3.0622676,2.7702915 C 3.3828043,2.4866293 4.0452818,2.1617197 4.4640439,2.0827955 4.923863,1.9961333 29.075998,2.0003917 29.548628,2.0872184 29.990731,2.168437 30.556279,2.447083 30.909035,2.757492 l 0.272679,0.2399453 -14.188059,0 -14.188061,0 0.2566736,-0.2271458 0,0 z"
       id="path3129"
       inkscape:connector-curvature="0" />
    <path
       style="fill:#ff6600"
       d="m 22.013661,13.363704 0,-0.472537 4.489096,0 4.489095,0 0,0.472537 0,0.472536 -4.489095,0 -4.489096,0 0,-0.472536 z"
       id="path3131"
       inkscape:connector-curvature="0" />
    <path
       style="fill:#ff6600"
       d="m 22.013661,12.418631 0,-0.472536 4.489096,0 4.489095,0 0,0.472536 0,0.472536 -4.489095,0 -4.489096,0 0,-0.472536 z"
       id="path3133"
       inkscape:connector-curvature="0" />
    <path
       style="fill:#ff6600"
       d="m 22.013661,12.064229 0,-0.472537 4.489096,0 4.489095,0 0,0.472537 0,0.472536 -4.489095,0 -4.489096,0 0,-0.472536 z"
       id="path3135"
       inkscape:connector-curvature="0" />
    <path
       style="fill:#ff6600"
       d="m 42.096457,10.145256 c 0,-0.04834 0.07911,-0.3340786 0.1758,-0.6349706 0.242539,-0.7547592 0.632529,-1.3933339 1.208891,-1.9794523 L 43.96034,7.04353 l 3.040317,-3.35e-5 3.040317,-3.34e-5 0.50207,0.5184784 c 0.683232,0.7055605 1.17401,1.6092061 1.330459,2.4497075 l 0.04123,0.221501 -1.010713,0 c -0.866388,0 -1.010713,-0.01286 -1.010713,-0.09008 0,-0.04954 -0.09586,-0.2804292 -0.213025,-0.5130846 C 49.30846,8.8916501 48.559869,8.2785366 47.783208,8.0762421 47.396782,7.9755909 46.676471,7.9637276 46.29468,8.0517264 c -0.7812,0.1800581 -1.604604,0.838943 -1.980008,1.5843958 -0.115465,0.2292829 -0.209936,0.4574118 -0.209936,0.5069528 0,0.07719 -0.143643,0.09008 -1.00414,0.09008 -0.849604,0 -1.004139,-0.01353 -1.004139,-0.08789 z"
       id="path3137"
       inkscape:connector-curvature="0" />
    <path
       style="fill:#ff6600"
       d="m 44.045669,7.0154396 c 0,-0.084794 0.994889,-0.5918578 1.476676,-0.7526163 0.534026,-0.1781889 0.605371,-0.1872162 1.476676,-0.1868446 0.841816,3.592e-4 0.955968,0.013653 1.417609,0.165089 0.512857,0.1682369 1.15304,0.4772547 1.41761,0.6842837 0.147117,0.1151216 0.136619,0.1155566 -2.820452,0.1168651 -1.632465,7.224e-4 -2.968119,-0.011327 -2.968119,-0.026777 z"
       id="path3139"
       inkscape:connector-curvature="0" />
    <path
       style="fill:#ff6600"
       d="m 42.191516,12.251881 c -0.116611,-0.188681 -0.202104,-1.567883 -0.116897,-1.88583 0.03509,-0.130919 0.04995,-0.132901 0.996796,-0.132901 l 0.961181,0 -0.03117,0.499597 c -0.03272,0.524458 0.05162,1.119254 0.199155,1.404561 l 0.08439,0.163189 -1.031704,0 c -0.567438,0 -1.045225,-0.02188 -1.061751,-0.04862 z"
       id="path3141"
       inkscape:connector-curvature="0" />
    <path
       style="fill:#ff6600"
       d="m 42.731978,12.256526 c -0.504361,-0.01922 -0.517312,-0.02338 -0.560654,-0.179822 -0.0244,-0.08808 -0.04458,-0.518975 -0.04485,-0.957548 l -4.84e-4,-0.797405 0.45777,-0.01725 c 0.587207,-0.02213 0.599468,-0.130417 0.01477,-0.130417 -0.519481,0 -0.51127,0.01746 -0.294893,-0.6271153 0.287555,-0.8566107 0.625294,-1.3907515 1.349506,-2.1342687 l 0.359584,-0.369169 2.993524,0 2.993524,0 0.426131,0.4562967 c 0.501556,0.5370616 0.82646,1.0001232 1.076236,1.5338822 0.22024,0.4706423 0.410195,1.1609871 0.327867,1.1915551 -0.03207,0.01191 -0.46815,0.0024 -0.969076,-0.02104 L 49.950156,10.161542 49.754591,9.7395765 C 49.403735,8.9825441 48.721661,8.3687842 47.937394,8.1043832 47.617789,7.9966343 47.456386,7.980372 46.880887,7.9979344 c -0.642289,0.019601 -0.704525,0.032773 -1.143132,0.2419486 -0.63835,0.304434 -1.203352,0.8686574 -1.489036,1.4869836 l -0.206627,0.4472164 -0.455981,0.01174 -0.455981,0.01174 0.428236,0.02038 0.428236,0.02039 0,0.634277 c 0,0.563733 0.06819,1.004858 0.20475,1.324527 0.04751,0.111215 -0.02376,0.114116 -1.459374,0.0594 l 0,0 z"
       id="path3143"
       inkscape:connector-curvature="0" />
    <path
       style="fill:#ff6600"
       d="m 42.702422,12.25656 c -0.472088,-0.01929 -0.488114,-0.02472 -0.53112,-0.179945 -0.02439,-0.08803 -0.04456,-0.518886 -0.04483,-0.957459 l -4.84e-4,-0.797405 0.428236,-0.01736 c 0.548772,-0.02224 0.561019,-0.130313 0.01477,-0.130313 -0.486063,0 -0.480383,0.01343 -0.26536,-0.6271153 0.287555,-0.8566107 0.625294,-1.3907515 1.349506,-2.1342687 l 0.359584,-0.369169 2.993524,0 2.993524,0 0.426131,0.4562967 c 0.501556,0.5370616 0.82646,1.0001232 1.076236,1.5338822 0.22024,0.4706423 0.410195,1.1609871 0.327867,1.1915551 -0.03207,0.01191 -0.468643,0.0024 -0.97017,-0.02109 L 49.947968,10.161439 49.734134,9.7099917 C 49.439042,9.0869941 48.892011,8.5412523 48.260288,8.2396193 l -0.463862,-0.2214831 -0.800281,0 -0.800281,0 -0.4653,0.2298712 c -0.636015,0.3142089 -1.180192,0.8591544 -1.471997,1.4740759 l -0.214493,0.4519997 -0.397905,0.01138 -0.397905,0.01138 0.369169,0.02097 0.369169,0.02097 0,0.634047 c 0,0.563503 0.06821,1.00467 0.20475,1.324296 0.04718,0.110454 -0.09823,0.116258 -1.48893,0.05943 l 0,0 z"
       id="path3145"
       inkscape:connector-curvature="0" />
    <path
       style="fill:#ff6600"
       d="m 49.20195,13.055593 c 0.328388,-0.349777 0.639505,-0.929543 0.749906,-1.397448 0.04649,-0.197047 0.06392,-0.527551 0.04594,-0.871239 l -0.02896,-0.553756 0.959487,0 c 1.115437,0 1.030469,-0.06084 1.031078,0.738338 5.96e-4,0.781791 -0.169917,1.55194 -0.480603,2.170714 l -0.111215,0.221502 -1.227451,0 -1.227451,0 0.28927,-0.308111 z"
       id="path3149"
       inkscape:connector-curvature="0" />
    <path
       style="fill:#ff6600"
       d="M 44.429605,15.243567 C 44.199511,15.106721 43.791149,14.77286 43.508843,14.490785 42.880415,13.862872 42.491583,13.22868 42.247431,12.433398 l -0.0408,-0.132901 1.036453,0 1.036453,0 0.126707,0.248366 c 0.187139,0.366822 0.744124,0.892513 1.178677,1.112452 0.510089,0.258171 0.883259,0.350724 1.414101,0.350724 0.243652,0 0.575904,-0.03559 0.738338,-0.07909 0.322227,-0.08629 1.00265,-0.412195 1.06239,-0.508857 0.02355,-0.0381 0.504535,-0.06039 1.303232,-0.06039 l 1.26591,0 -0.187802,0.310102 c -0.273989,0.452418 -1.128992,1.283302 -1.616087,1.570499 l -0.416905,0.245812 -2.152511,-3.22e-4 -2.152512,-3.23e-4 -0.413469,-0.245905 z"
       id="path3151"
       inkscape:connector-curvature="0" />
    <path
       style="fill:#ff6600"
       d="m 46.060128,15.875087 c -0.418294,-0.09492 -1.128453,-0.321631 -1.128453,-0.360252 0,-0.0136 0.936951,-0.02391 2.082113,-0.02292 1.304856,0.0011 2.047229,0.0222 1.988665,0.05645 -0.0514,0.03006 -0.330489,0.125047 -0.620204,0.211081 -0.659908,0.195968 -1.732691,0.249392 -2.322121,0.115641 z"
       id="path3153"
       inkscape:connector-curvature="0" />
  </g>
  <g
     inkscape:groupmode="layer"
     id="layer1"
     inkscape:label="Button"
     style="display:inline"
     sodipodi:insensitive="true">
    <path
       sodipodi:type="inkscape:offset"
       inkscape:radius="0.94267464"
       inkscape:original="M 5 0 C 2.2642981 0 0 2.2642981 0 5 L 0 17 C 0 19.735702 2.2642982 22 5 22 L 29 22 C 31.735702 22 34 19.735702 34 17 L 34 5 C 34 2.2642982 31.735702 0 29 0 L 5 0 z "
       style="opacity:0.05;color:#000000;fill:#000000;fill-opacity:1;fill-rule:nonzero;stroke:none;stroke-width:2;marker:none;visibility:visible;display:inline;overflow:visible;enable-background:accumulate"
       id="path4541"
       d="m 5,-0.9375 c -3.25586,0 -5.9375,2.68164 -5.9375,5.9375 l 0,12 c 0,3.25586 2.6816401,5.9375 5.9375,5.9375 l 24,0 c 3.25586,0 5.9375,-2.68164 5.9375,-5.9375 l 0,-12 c 0,-3.2558599 -2.68164,-5.9375 -5.9375,-5.9375 l -24,0 z" />
    <path
       sodipodi:type="inkscape:offset"
       inkscape:radius="1.0204744"
       inkscape:original="M 5 1.03125 C 2.8258474 1.03125 1.03125 2.8258474 1.03125 5 L 1.03125 17 C 1.03125 19.174153 2.8258474 20.96875 5 20.96875 L 29 20.96875 C 31.174153 20.96875 32.96875 19.174153 32.96875 17 L 32.96875 5 C 32.96875 2.8258474 31.174153 1.03125 29 1.03125 L 5 1.03125 z "
       style="opacity:0.1;color:#000000;fill:#000000;fill-opacity:1;fill-rule:nonzero;stroke:none;stroke-width:2;marker:none;visibility:visible;display:inline;overflow:visible;enable-background:accumulate"
       id="path4537"
       d="M 5,0 C 2.2642981,0 0,2.2642981 0,5 l 0,12 c 0,2.735702 2.2642982,5 5,5 l 24,0 c 2.735702,0 5,-2.264298 5,-5 L 34,5 C 34,2.2642982 31.735702,0 29,0 L 5,0 z" />
    <path
       sodipodi:type="inkscape:offset"
       inkscape:radius="0.95425737"
       inkscape:original="M 5 2 C 3.338 2 2 3.338 2 5 L 2 17 C 2 18.662 3.338 20 5 20 L 29 20 C 30.662 20 32 18.662 32 17 L 32 5 C 32 3.338 30.662 2 29 2 L 5 2 z "
       style="opacity:0.2;color:#000000;fill:#000000;fill-opacity:1;fill-rule:nonzero;stroke:none;stroke-width:2;marker:none;visibility:visible;display:inline;overflow:visible;enable-background:accumulate"
       id="path4531"
       d="M 5,1.03125 C 2.8258474,1.03125 1.03125,2.8258474 1.03125,5 l 0,12 c 0,2.174153 1.7945974,3.96875 3.96875,3.96875 l 24,0 c 2.174153,0 3.96875,-1.794597 3.96875,-3.96875 l 0,-12 C 32.96875,2.8258474 31.174153,1.03125 29,1.03125 l -24,0 z" />
    <rect
       style="color:#000000;fill:url(#linearGradient3228-0);fill-opacity:1;fill-rule:nonzero;stroke:none;stroke-width:2;marker:none;visibility:visible;display:inline;overflow:visible;enable-background:accumulate"
       id="rect3936"
       width="30.00001"
       height="18.00001"
       x="2"
       y="2"
       rx="3"
       ry="3" />
    <path
       style="opacity:0.6;color:#000000;fill:url(#linearGradient3077-4-9-4);fill-opacity:1;fill-rule:nonzero;stroke:none;stroke-width:2;marker:none;visibility:visible;display:inline;overflow:visible;enable-background:accumulate"
       d="M 5,2 C 3.338,2 2,3.338 2,5 l 0,12 c 0,1.662 1.338,3 3,3 l 24,0 c 1.662,0 3,-1.338 3,-3 L 32,5 C 32,3.338 30.662,2 29,2 z m 0,1 24,0 c 1.12561,0 2,0.8743885 2,2 l 0,12 c 0,1.125612 -0.87439,2 -2,2 L 5,19 C 3.874388,19 3,18.125612 3,17 L 3,5 C 3,3.8743885 3.874388,3 5,3 z"
       id="rect4059"
       inkscape:connector-curvature="0"
       sodipodi:nodetypes="ssssssssssssssssss" />
    <rect
       style="opacity:0.4;color:#000000;fill:url(#radialGradient4077-8-1);fill-opacity:1;fill-rule:nonzero;stroke:none;stroke-width:2;marker:none;visibility:visible;display:inline;overflow:visible;enable-background:accumulate"
       id="rect3206"
       width="1"
       height="10"
       x="13"
       y="6" />
    <rect
       y="6"
       x="12"
       height="10"
       width="1"
       id="rect3984"
       style="opacity:0.2;color:#000000;fill:url(#radialGradient3986-1-3);fill-opacity:1;fill-rule:nonzero;stroke:none;stroke-width:2;marker:none;visibility:visible;display:inline;overflow:visible;enable-background:accumulate" />
    <rect
       y="6"
       x="17"
       height="10"
       width="1"
       id="rect3999"
       style="opacity:0.4;color:#000000;fill:url(#radialGradient4003-1-6);fill-opacity:1;fill-rule:nonzero;stroke:none;stroke-width:2;marker:none;visibility:visible;display:inline;overflow:visible;enable-background:accumulate" />
    <rect
       style="opacity:0.2;color:#000000;fill:url(#radialGradient4005-9-8);fill-opacity:1;fill-rule:nonzero;stroke:none;stroke-width:2;marker:none;visibility:visible;display:inline;overflow:visible;enable-background:accumulate"
       id="rect4001"
       width="1"
       height="10"
       x="16"
       y="6" />
    <rect
       style="opacity:0.4;color:#000000;fill:url(#radialGradient4011-7-2);fill-opacity:1;fill-rule:nonzero;stroke:none;stroke-width:2;marker:none;visibility:visible;display:inline;overflow:visible;enable-background:accumulate"
       id="rect4007"
       width="1"
       height="10"
       x="21"
       y="6" />
    <rect
       y="6"
       x="20"
       height="10"
       width="1"
       id="rect4009"
       style="opacity:0.2;color:#000000;fill:url(#radialGradient4013-9-2);fill-opacity:1;fill-rule:nonzero;stroke:none;stroke-width:2;marker:none;visibility:visible;display:inline;overflow:visible;enable-background:accumulate" />
  </g>
</svg>
