<?xml version="1.0" encoding="UTF-8" standalone="no"?>
<!-- Created with Inkscape (http://www.inkscape.org/) -->

<svg
   xmlns:dc="http://purl.org/dc/elements/1.1/"
   xmlns:cc="http://creativecommons.org/ns#"
   xmlns:rdf="http://www.w3.org/1999/02/22-rdf-syntax-ns#"
   xmlns:svg="http://www.w3.org/2000/svg"
   xmlns="http://www.w3.org/2000/svg"
   xmlns:xlink="http://www.w3.org/1999/xlink"
   xmlns:sodipodi="http://sodipodi.sourceforge.net/DTD/sodipodi-0.dtd"
   xmlns:inkscape="http://www.inkscape.org/namespaces/inkscape"
   version="1.1"
   width="96"
   height="96"
   id="svg25070"
   inkscape:version="0.48.2 r9819"
   sodipodi:docname="ws-switch-arrow-down.svg">
  <metadata
     id="metadata3353">
    <rdf:RDF>
      <cc:Work
         rdf:about="">
        <dc:format>image/svg+xml</dc:format>
        <dc:type
           rdf:resource="http://purl.org/dc/dcmitype/StillImage" />
      </cc:Work>
    </rdf:RDF>
  </metadata>
  <sodipodi:namedview
     pagecolor="#ffffff"
     bordercolor="#666666"
     borderopacity="1"
     objecttolerance="10"
     gridtolerance="10"
     guidetolerance="10"
     inkscape:pageopacity="0"
     inkscape:pageshadow="2"
     inkscape:window-width="1280"
     inkscape:window-height="771"
     id="namedview3351"
     showgrid="false"
     inkscape:zoom="2.6979167"
     inkscape:cx="48"
     inkscape:cy="48"
     inkscape:window-x="0"
     inkscape:window-y="0"
     inkscape:window-maximized="1"
     inkscape:current-layer="svg25070" />
  <defs
     id="defs25072">
    <linearGradient
       x1="-86.552246"
       y1="185.439"
       x2="-83.37072"
       y2="197.31261"
       id="linearGradient24957"
       xlink:href="#linearGradient4034-0-4"
       gradientUnits="userSpaceOnUse"
       gradientTransform="translate(6,0)" />
    <linearGradient
       id="linearGradient4034-0-4">
      <stop
         id="stop4036-5-7"
         style="stop-color:#eeeeec;stop-opacity:1"
         offset="0" />
      <stop
         id="stop4038-9-6"
         style="stop-color:#babdb6;stop-opacity:1"
         offset="1" />
    </linearGradient>
    <filter
       x="0"
       y="0"
       width="1"
       height="1"
       color-interpolation-filters="sRGB"
       id="filter24765">
      <feColorMatrix
         result="fbSourceGraphic"
         values="1"
         type="saturate"
         id="feColorMatrix24767" />
      <feColorMatrix
         values="-1 0 0 0 1 0 -1 0 0 1 0 0 -1 0 1 0 0 0 1 0"
         in="fbSourceGraphic"
         id="feColorMatrix24769" />
    </filter>
    <linearGradient
       x1="-74.520325"
       y1="169.06032"
       x2="-74.520325"
       y2="205.94189"
       id="linearGradient24955"
       xlink:href="#linearGradient4632-1-3-9-3-2"
       gradientUnits="userSpaceOnUse"
       gradientTransform="translate(-5,0)" />
    <linearGradient
       id="linearGradient4632-1-3-9-3-2">
      <stop
         id="stop4634-1-8-3-9-0"
         style="stop-color:#eeeeec;stop-opacity:1"
         offset="0" />
      <stop
         id="stop4636-1-9-9-8-8"
         style="stop-color:#ffffff;stop-opacity:1"
         offset="0.0274937" />
      <stop
         id="stop4638-8-3-9-6-6"
         style="stop-color:#f2f2f2;stop-opacity:1"
         offset="0.274937" />
      <stop
         id="stop4640-8-5-7-8-9"
         style="stop-color:#eeeeec;stop-opacity:1"
         offset="0.38707438" />
      <stop
         id="stop4642-5-41-9-6-9"
         style="stop-color:#d9dad8;stop-opacity:1"
         offset="0.66528589" />
      <stop
         id="stop4644-5-2-7-9-2"
         style="stop-color:#dfe0dd;stop-opacity:1"
         offset="0.76745707" />
      <stop
         id="stop4646-3-2-3-7-3"
         style="stop-color:#f0f0f0;stop-opacity:1"
         offset="1" />
    </linearGradient>
    <radialGradient
       cx="-33.412369"
       cy="185.74171"
       r="2.3554697"
       fx="-33.412369"
       fy="185.74171"
       id="radialGradient24959"
       xlink:href="#linearGradient4869-4-1"
       gradientUnits="userSpaceOnUse"
       gradientTransform="matrix(1.0075,0,0,1.0075,-5.4544,-1.25141)" />
    <linearGradient
       id="linearGradient4869-4-1">
      <stop
         id="stop4871-6-2"
         style="stop-color:#ffffff;stop-opacity:1"
         offset="0" />
      <stop
         id="stop4879-7-4"
         style="stop-color:#eeeeec;stop-opacity:1"
         offset="0.31807542" />
      <stop
         id="stop4877-6-1"
         style="stop-color:#c8c9c6;stop-opacity:1"
         offset="0.74691135" />
      <stop
         id="stop4873-1-0"
         style="stop-color:#d3d7cf;stop-opacity:1"
         offset="1" />
    </linearGradient>
    <filter
       x="0"
       y="0"
       width="1"
       height="1"
       color-interpolation-filters="sRGB"
       id="filter25011">
      <feColorMatrix
         result="fbSourceGraphic"
         values="1"
         type="saturate"
         id="feColorMatrix25013" />
      <feColorMatrix
         values="-1 0 0 0 1 0 -1 0 0 1 0 0 -1 0 1 0 0 0 1 0"
         in="fbSourceGraphic"
         id="feColorMatrix25015" />
    </filter>
    <radialGradient
       cx="-33.412369"
       cy="185.74171"
       r="2.3554697"
       fx="-33.412369"
       fy="185.74171"
       id="radialGradient24961"
       xlink:href="#linearGradient4869-4-0"
       gradientUnits="userSpaceOnUse"
       gradientTransform="matrix(1.0075,0,0,1.0075,-5.4544,-1.25141)" />
    <linearGradient
       id="linearGradient4869-4-0">
      <stop
         id="stop4871-6-8"
         style="stop-color:#ffffff;stop-opacity:1"
         offset="0" />
      <stop
         id="stop4879-7-5"
         style="stop-color:#eeeeec;stop-opacity:1"
         offset="0.31807542" />
      <stop
         id="stop4877-6-5"
         style="stop-color:#c8c9c6;stop-opacity:1"
         offset="0.74691135" />
      <stop
         id="stop4873-1-4"
         style="stop-color:#d3d7cf;stop-opacity:1"
         offset="1" />
    </linearGradient>
    <filter
       x="0"
       y="0"
       width="1"
       height="1"
       color-interpolation-filters="sRGB"
       id="filter25023">
      <feColorMatrix
         result="fbSourceGraphic"
         values="1"
         type="saturate"
         id="feColorMatrix25025" />
      <feColorMatrix
         values="-1 0 0 0 1 0 -1 0 0 1 0 0 -1 0 1 0 0 0 1 0"
         in="fbSourceGraphic"
         id="feColorMatrix25027" />
    </filter>
    <linearGradient
       x1="-39.858727"
       y1="184.61784"
       x2="-38.244785"
       y2="188.84898"
       id="linearGradient24963"
       xlink:href="#linearGradient4941"
       gradientUnits="userSpaceOnUse" />
    <linearGradient
       id="linearGradient4941">
      <stop
         id="stop4943"
         style="stop-color:#ffffff;stop-opacity:1"
         offset="0" />
      <stop
         id="stop4945"
         style="stop-color:#ffffff;stop-opacity:0"
         offset="1" />
    </linearGradient>
    <filter
       x="0"
       y="0"
       width="1"
       height="1"
       color-interpolation-filters="sRGB"
       id="filter25033">
      <feColorMatrix
         result="fbSourceGraphic"
         values="1"
         type="saturate"
         id="feColorMatrix25035" />
      <feColorMatrix
         values="-1 0 0 0 1 0 -1 0 0 1 0 0 -1 0 1 0 0 0 1 0"
         in="fbSourceGraphic"
         id="feColorMatrix25037" />
    </filter>
    <linearGradient
       x1="-39.858727"
       y1="184.61784"
       x2="-38.244785"
       y2="188.84898"
       id="linearGradient24965"
       xlink:href="#linearGradient4941-7"
       gradientUnits="userSpaceOnUse" />
    <linearGradient
       id="linearGradient4941-7">
      <stop
         id="stop4943-2"
         style="stop-color:#ffffff;stop-opacity:1"
         offset="0" />
      <stop
         id="stop4945-5"
         style="stop-color:#ffffff;stop-opacity:0"
         offset="1" />
    </linearGradient>
    <filter
       x="0"
       y="0"
       width="1"
       height="1"
       color-interpolation-filters="sRGB"
       id="filter25043">
      <feColorMatrix
         result="fbSourceGraphic"
         values="1"
         type="saturate"
         id="feColorMatrix25045" />
      <feColorMatrix
         values="-1 0 0 0 1 0 -1 0 0 1 0 0 -1 0 1 0 0 0 1 0"
         in="fbSourceGraphic"
         id="feColorMatrix25047" />
    </filter>
    <filter
       x="0"
       y="0"
       width="1"
       height="1"
       color-interpolation-filters="sRGB"
       id="filter25049">
      <feColorMatrix
         result="fbSourceGraphic"
         values="1"
         type="saturate"
         id="feColorMatrix25051" />
      <feColorMatrix
         values="-1 0 0 0 1 0 -1 0 0 1 0 0 -1 0 1 0 0 0 1 0"
         in="fbSourceGraphic"
         id="feColorMatrix25053" />
    </filter>
    <filter
       x="0"
       y="0"
       width="1"
       height="1"
       color-interpolation-filters="sRGB"
       id="filter25055">
      <feColorMatrix
         result="fbSourceGraphic"
         values="1"
         type="saturate"
         id="feColorMatrix25057" />
      <feColorMatrix
         values="-1 0 0 0 1 0 -1 0 0 1 0 0 -1 0 1 0 0 0 1 0"
         in="fbSourceGraphic"
         id="feColorMatrix25059" />
    </filter>
  </defs>
  <g
     transform="matrix(0,1,-1,0,48.0003,4.1307112e-7)"
     id="layer1">
    <g
       transform="matrix(-2,0,0,2,-97.2497,-374.967)"
       id="g4030-1-8"
       style="stroke:#000000;stroke-opacity:1;display:inline">
      <path
         d="m -72.5,173.5 -14,14 14,14"
         id="path3165-7-3"
         style="color:#000000;fill:none;stroke:#000000;stroke-width:7;stroke-linecap:round;stroke-linejoin:miter;stroke-miterlimit:4;stroke-opacity:1;stroke-dasharray:none;stroke-dashoffset:0;marker:none;visibility:visible;display:inline;overflow:visible"
         inkscape:connector-curvature="0" />
    </g>
    <path
       d="m -36.5,186.40625 a 2.09375,2.09375 0 1 1 -4.1875,0 2.09375,2.09375 0 1 1 4.1875,0 z"
       transform="matrix(-3.34328,0,0,3.34328,-89.2797,-623.176)"
       id="path4050-2-7-9-4"
       style="color:#000000;fill:#000000;fill-opacity:1;fill-rule:nonzero;stroke:none;stroke-width:0.52343899;marker:none;visibility:visible;display:inline;overflow:visible"
       inkscape:connector-curvature="0" />
    <path
       d="m -36.5,186.40625 a 2.09375,2.09375 0 1 1 -4.1875,0 2.09375,2.09375 0 1 1 4.1875,0 z"
       transform="matrix(-3.34328,0,0,3.34328,-111.2797,-623.176)"
       id="path4050-2-7-9-4-8"
       style="color:#000000;fill:#000000;fill-opacity:1;fill-rule:nonzero;stroke:none;stroke-width:0.52343899;marker:none;visibility:visible;display:inline;overflow:visible"
       inkscape:connector-curvature="0" />
    <path
       d="m -36.5,186.40625 a 2.09375,2.09375 0 1 1 -4.1875,0 2.09375,2.09375 0 1 1 4.1875,0 z"
       transform="matrix(-2.86565,0,0,2.86565,-70.8457,-534.143)"
       id="path4050-2-7-9-4-0"
       style="color:#000000;fill:none;stroke:#000000;stroke-width:0.69792098;stroke-linecap:round;stroke-linejoin:miter;stroke-miterlimit:4;stroke-opacity:1;stroke-dasharray:none;stroke-dashoffset:0;marker:none;visibility:visible;display:inline;overflow:visible"
       inkscape:connector-curvature="0" />
    <path
       d="m -36.5,186.40625 a 2.09375,2.09375 0 1 1 -4.1875,0 2.09375,2.09375 0 1 1 4.1875,0 z"
       transform="matrix(-2.86565,0,0,2.86565,-92.8457,-534.143)"
       id="path4050-2-7-9-4-0-9"
       style="color:#000000;fill:none;stroke:#000000;stroke-width:0.69792098;stroke-linecap:round;stroke-linejoin:miter;stroke-miterlimit:4;stroke-opacity:1;stroke-dasharray:none;stroke-dashoffset:0;marker:none;visibility:visible;display:inline;overflow:visible"
       inkscape:connector-curvature="0" />
    <path
       d="m 47.87528,-34.0295 c 1.53896,0.0448 3.0511,0.70928 4.125,1.8125 l 32.25,32.25 -32.25,32.25 c -2.2253,2.2253 -6.2747,2.2253 -8.5,0 -2.2253,-2.22528 -2.2253,-6.2747 0,-8.5 l 23.75,-23.75 -23.75,-23.75 c -1.73168,-1.6731 -2.295,-4.44228 -1.3546,-6.65894 0.94042,-2.21668 3.32312,-3.73604 5.7296,-3.65356 z"
       id="path3165-7-3-1"
       style="font-size:medium;font-style:normal;font-variant:normal;font-weight:normal;font-stretch:normal;text-indent:0pt;text-align:start;text-decoration:none;line-height:normal;letter-spacing:normal;word-spacing:normal;text-transform:none;direction:ltr;text-anchor:start;opacity:0.35;color:#000000;fill:none;stroke:#000000;stroke-width:2;stroke-miterlimit:4;stroke-opacity:1;stroke-dasharray:none;marker:none;visibility:visible;display:inline;overflow:visible;font-family:Bitstream Vera Sans"
       inkscape:connector-curvature="0" />
    <path
       d="m 41.8316,28.09418 c -0.014,-1.58898 0.54158,-3.18406 1.66868,-4.31118 l 23.75,-23.75 m -25.1046,-30.40894 c 0.94042,-2.21668 3.32312,-3.73604 5.7296,-3.65356 1.53896,0.0448 3.0511,0.70928 4.125,1.8125 l 32.25,32.25"
       id="path3165-7-3-1-9"
       style="font-size:medium;font-style:normal;font-variant:normal;font-weight:normal;font-stretch:normal;text-indent:0pt;text-align:start;text-decoration:none;line-height:normal;letter-spacing:normal;word-spacing:normal;text-transform:none;direction:ltr;text-anchor:start;color:#000000;fill:none;stroke:#000000;stroke-width:2;stroke-linecap:round;stroke-miterlimit:4;stroke-opacity:1;stroke-dasharray:none;marker:none;visibility:visible;display:inline;overflow:visible;font-family:Bitstream Vera Sans"
       inkscape:connector-curvature="0" />
  </g>
  <path
     style="fill:#008080"
     d="M 31.240849,68.502878 C 21.393816,58.651282 14.175798,51.141827 13.886988,50.448332 c -1.841927,-4.422864 1.246046,-9.27009 5.934118,-9.314851 1.204096,-0.0115 2.479259,0.240785 3.270786,0.6471 0.713514,0.366268 6.636915,5.984078 13.163113,12.484021 L 48.120821,66.082682 60.16062,54.038606 C 70.729864,43.465609 72.418367,41.92214 73.984813,41.401851 c 5.671976,-1.883929 10.675255,3.88405 8.049325,9.279579 -0.478117,0.982389 -6.512147,7.282425 -17.333671,18.097815 L 48.10023,85.370072 31.240849,68.502878 z"
     id="path3044"
     inkscape:connector-curvature="0" />
  <path
     style="fill:#008080"
     d="m 44.964122,45.755577 c -0.705226,-0.378217 -1.786793,-1.311073 -2.403484,-2.073015 -1.002676,-1.238838 -1.121256,-1.652466 -1.121256,-3.911133 0,-2.263121 0.118378,-2.67391 1.138324,-3.950152 1.471187,-1.840872 3.23762,-2.720368 5.465194,-2.721087 3.694329,-0.0012 6.640319,2.958516 6.640319,6.671239 0,1.964406 -0.663347,3.449117 -2.183719,4.887616 -2.001348,1.893576 -5.185293,2.356897 -7.535378,1.096532 l 0,0 z"
     id="path3046"
     inkscape:connector-curvature="0" />
  <path
     style="fill:#808000"
     d="M 45.005589,23.770581 C 41.985914,22.275888 40.477,18.524982 41.648291,15.424902 c 0.864467,-2.288002 4.044662,-4.538612 6.438545,-4.55653 2.73539,-0.02047 5.865831,2.700473 6.487689,5.63903 0.60001,2.835319 -1.110381,6.124928 -3.825705,7.358007 -2.014339,0.914749 -3.761914,0.885894 -5.743231,-0.09483 z"
     id="path3048"
     inkscape:connector-curvature="0" />
  <path
     style="fill:#808000"
     d="M 31.201641,68.042442 C 13.242322,49.966766 13.095594,49.790029 13.634558,46.882405 c 0.621733,-3.354155 3.11938,-5.430667 6.532052,-5.430667 1.869964,0 2.266252,0.148653 3.893532,1.460522 0.99642,0.803288 6.742813,6.346454 12.769763,12.318147 6.026948,5.971693 11.115286,10.857624 11.307415,10.857624 0.19213,0 5.185313,-4.844158 11.095966,-10.764796 5.91065,-5.920637 11.642943,-11.461086 12.738433,-12.312108 1.796197,-1.395365 2.199126,-1.548512 4.103106,-1.559528 1.647838,-0.0095 2.416313,0.191199 3.500716,0.914424 2.608891,1.73996 3.543872,5.199219 2.188871,8.098423 -0.379682,0.812382 -7.233389,7.995678 -17.146734,17.971308 L 48.103443,85.05375 31.201641,68.042442 z"
     id="path3050"
     inkscape:connector-curvature="0" />
  <path
     style="fill:#808000"
     d="m 45.146772,45.509767 c -2.540835,-1.373107 -3.522061,-2.971775 -3.522061,-5.738338 0,-3.685686 2.246613,-5.991013 6.067661,-6.226232 1.917416,-0.118034 2.473246,-0.0032 3.560584,0.7354 3.969605,2.696571 4.24289,7.71441 0.572613,10.513866 -1.722097,1.313508 -4.935102,1.657623 -6.678797,0.715304 l 0,0 z"
     id="path3052"
     inkscape:connector-curvature="0" />
</svg>
