<?xml version="1.0" encoding="UTF-8" standalone="no"?>
<!-- Created with Inkscape (http://www.inkscape.org/) -->

<svg
   xmlns:dc="http://purl.org/dc/elements/1.1/"
   xmlns:cc="http://creativecommons.org/ns#"
   xmlns:rdf="http://www.w3.org/1999/02/22-rdf-syntax-ns#"
   xmlns:svg="http://www.w3.org/2000/svg"
   xmlns="http://www.w3.org/2000/svg"
   xmlns:xlink="http://www.w3.org/1999/xlink"
   version="1.0"
   width="22"
   height="22"
   viewBox="0 0 16 16"
   id="Foreground"
   xml:space="preserve"><metadata
   id="metadata32"><rdf:RDF><cc:Work
       rdf:about=""><dc:format>image/svg+xml</dc:format><dc:type
         rdf:resource="http://purl.org/dc/dcmitype/StillImage" /><dc:title></dc:title></cc:Work></rdf:RDF></metadata><defs
   id="defs2397"><linearGradient
     id="linearGradient3798"><stop
       id="stop3800"
       style="stop-color:#ffffff;stop-opacity:1"
       offset="0" /><stop
       id="stop3802"
       style="stop-color:#ffffff;stop-opacity:0"
       offset="1" /></linearGradient><linearGradient
     id="linearGradient3786"><stop
       id="stop3788"
       style="stop-color:#c4c4c4;stop-opacity:1"
       offset="0" /><stop
       id="stop3790"
       style="stop-color:#e8e8e8;stop-opacity:1"
       offset="1" /></linearGradient><linearGradient
     x1="-3.5067198"
     y1="5.9266276"
     x2="-2.6926942"
     y2="19.369761"
     id="linearGradient3817"
     xlink:href="#linearGradient3798"
     gradientUnits="userSpaceOnUse" /><linearGradient
     x1="-4.4485006"
     y1="25.760212"
     x2="-4.3917108"
     y2="9.2180691"
     id="linearGradient3944"
     xlink:href="#linearGradient3786"
     gradientUnits="userSpaceOnUse" /></defs>

<g
   transform="matrix(1.0405157,0,0,1.0251195,0.94740757,-1.5276931)"
   id="g3707"
   style="opacity:0.63513513;stroke:#ffffff;stroke-opacity:1"><g
     transform="translate(-1.2664093,2.4710425)"
     id="g3695"
     style="stroke:#ffffff;stroke-opacity:1" /><g
     transform="translate(-1.2664093,2.4710425)"
     id="g3701"
     style="stroke:#ffffff;stroke-opacity:1" /></g><g
   transform="matrix(1.0838509,0,0,1.0355382,32.878751,-0.24399471)"
   id="g3721"
   style="opacity:0.77830188" /><g
   transform="matrix(1.0838509,0,0,1.0355382,31.12875,0.06850529)"
   id="g3715"
   style="opacity:0.77830188" />



<g
   id="g4063"><path
     d="m 3.6898732,17.056963 a 9.4683542,9.8164558 0 1 1 -2.6e-6,-0.0072"
     transform="matrix(0.78175731,0,0,0.75533904,12.647093,-5.0113509)"
     id="path3015"
     style="fill:url(#linearGradient3944);fill-opacity:1;stroke:#3a3a3a;stroke-width:0.99659508;stroke-miterlimit:4;stroke-opacity:1;stroke-dasharray:none" /><rect
     width="15.904427"
     height="14.768374"
     rx="0.90882438"
     ry="0.84390718"
     x="0.06786073"
     y="1.1329597"
     id="rect3612"
     style="opacity:0.69458127;fill:#ffffff;fill-opacity:0;stroke:none" /><rect
     width="15.904427"
     height="14.768374"
     rx="0.90882438"
     ry="0.84390718"
     x="0.06786073"
     y="1.1329597"
     id="rect3793"
     style="opacity:0.69458127;fill:#ffffff;fill-opacity:0;stroke:none" /><path
     d="m 3.6898732,17.056963 a 9.4683542,9.8164558 0 1 1 -2.6e-6,-0.0072"
     transform="matrix(0.68784176,0,0,0.69021678,12.09886,-3.7414721)"
     id="path3794"
     style="opacity:0.59090905;fill:none;stroke:url(#linearGradient3817);stroke-width:1.11124086;stroke-miterlimit:4;stroke-opacity:1;stroke-dasharray:none" /><path
     d="m 6.3975203,4.6813916 c -0.039589,-0.00863 -0.081854,-0.00236 -0.1050595,0.020384 L 4.9476979,6.0267829 c -0.046409,0.045498 -0.011892,0.131914 0.063036,0.2038471 L 6.6496634,7.8206379 4.9476979,9.3494917 c -0.077172,0.069665 -0.107981,0.1773712 -0.063036,0.2242319 l 1.302739,1.3453914 c 0.044945,0.04686 0.1539593,0.02889 0.2311312,-0.04077 L 8.1835335,9.2883375 9.9065109,10.939499 c 0.074928,0.07193 0.1637101,0.08627 0.2101191,0.04078 l 1.344763,-1.325012 c 0.04641,-0.045498 0.01189,-0.1319143 -0.06303,-0.2038472 L 9.7594275,7.8614073 11.461393,6.3325537 c 0.07718,-0.069665 0.107981,-0.1773709 0.06303,-0.224232 L 10.221689,4.7629305 C 10.176748,4.7160697 10.06773,4.734036 9.9905581,4.8036994 L 8.2255574,6.3937078 6.50258,4.7425458 C 6.465117,4.7065788 6.437108,4.6900158 6.3975203,4.6813918 z"
     id="rect3927"
     style="fill:#454545;fill-opacity:1;stroke:none" /></g></svg>