<?xml version="1.0" encoding="UTF-8" standalone="no"?>
<!-- Created with Inkscape (http://www.inkscape.org/) -->

<svg
   xmlns:dc="http://purl.org/dc/elements/1.1/"
   xmlns:cc="http://creativecommons.org/ns#"
   xmlns:rdf="http://www.w3.org/1999/02/22-rdf-syntax-ns#"
   xmlns:svg="http://www.w3.org/2000/svg"
   xmlns="http://www.w3.org/2000/svg"
   xmlns:xlink="http://www.w3.org/1999/xlink"
   version="1.1"
   width="64"
   height="22"
   id="svg3273">
  <defs
     id="defs3275">
    <linearGradient
       id="linearGradient4063">
      <stop
         id="stop4065"
         style="stop-color:#353535;stop-opacity:1"
         offset="0" />
      <stop
         id="stop4067"
         style="stop-color:#47586e;stop-opacity:1"
         offset="1" />
    </linearGradient>
    <linearGradient
       id="linearGradient3990">
      <stop
         id="stop3992"
         style="stop-color:#ffffff;stop-opacity:1"
         offset="0" />
      <stop
         id="stop3994"
         style="stop-color:#ffffff;stop-opacity:0"
         offset="1" />
    </linearGradient>
    <linearGradient
       id="linearGradient3984">
      <stop
         id="stop3986"
         style="stop-color:#313131;stop-opacity:1"
         offset="0" />
      <stop
         id="stop3988"
         style="stop-color:#5e5e5e;stop-opacity:1"
         offset="1" />
    </linearGradient>
    <linearGradient
       id="linearGradient4095">
      <stop
         id="stop4097"
         style="stop-color:#131313;stop-opacity:1"
         offset="0" />
      <stop
         id="stop4099"
         style="stop-color:#131313;stop-opacity:0"
         offset="1" />
    </linearGradient>
    <linearGradient
       id="linearGradient4054">
      <stop
         id="stop4056"
         style="stop-color:#cdcdcd;stop-opacity:1"
         offset="0" />
      <stop
         id="stop4058"
         style="stop-color:#f9f9f9;stop-opacity:1"
         offset="1" />
    </linearGradient>
    <linearGradient
       id="linearGradient4095-6">
      <stop
         id="stop4097-9"
         style="stop-color:#131313;stop-opacity:1"
         offset="0" />
      <stop
         id="stop4099-3"
         style="stop-color:#131313;stop-opacity:0"
         offset="1" />
    </linearGradient>
    <linearGradient
       x1="-47.059258"
       y1="20.14957"
       x2="-46.978706"
       y2="1.0181593"
       id="linearGradient4524"
       xlink:href="#linearGradient4054"
       gradientUnits="userSpaceOnUse"
       gradientTransform="matrix(0.9757771,0,0,0.98628529,-2.2764068,-27.782147)" />
    <linearGradient
       x1="-17.784681"
       y1="9.8260183"
       x2="-11.504409"
       y2="9.6024895"
       id="linearGradient4528"
       xlink:href="#linearGradient4095-6"
       gradientUnits="userSpaceOnUse"
       gradientTransform="matrix(0.88797735,0,0,0.87902198,-20.729372,-25.547332)" />
    <linearGradient
       x1="17.371481"
       y1="1.4948978"
       x2="17.306519"
       y2="4.8073978"
       id="linearGradient4561"
       xlink:href="#linearGradient3990"
       gradientUnits="userSpaceOnUse"
       gradientTransform="translate(-63.999996,0)" />
    <linearGradient
       x1="-47.059258"
       y1="20.14957"
       x2="-46.978706"
       y2="1.0181593"
       id="linearGradient4568"
       xlink:href="#linearGradient3984"
       gradientUnits="userSpaceOnUse"
       gradientTransform="matrix(0.9757771,0,0,0.98628529,-0.651405,0.09987579)" />
    <linearGradient
       x1="-17.784681"
       y1="9.8260183"
       x2="-11.504409"
       y2="9.6024895"
       id="linearGradient4572"
       xlink:href="#linearGradient4095"
       gradientUnits="userSpaceOnUse"
       gradientTransform="matrix(0.88797735,0,0,0.87902198,-19.10437,2.3346908)" />
    <linearGradient
       x1="40.624996"
       y1="20.6875"
       x2="40.8125"
       y2="10.5"
       id="linearGradient4576"
       xlink:href="#linearGradient4063"
       gradientUnits="userSpaceOnUse"
       gradientTransform="translate(-63.999996,0)" />
  </defs>
  <metadata
     id="metadata3278">
    <rdf:RDF>
      <cc:Work
         rdf:about="">
        <dc:format>image/svg+xml</dc:format>
        <dc:type
           rdf:resource="http://purl.org/dc/dcmitype/StillImage" />
        <dc:title></dc:title>
      </cc:Work>
    </rdf:RDF>
  </metadata>
  <g
     id="g4578">
    <rect
       width="63.000004"
       height="19"
       rx="4"
       ry="4"
       x="-63.5"
       y="1.5"
       transform="scale(-1,1)"
       id="rect17456"
       style="color:#000000;fill:url(#linearGradient4576);fill-opacity:1;stroke:#282828;stroke-width:0.99999994;stroke-linecap:round;stroke-linejoin:miter;stroke-miterlimit:4;stroke-opacity:1;stroke-dasharray:none;stroke-dashoffset:0;marker:none;visibility:visible;display:inline;overflow:visible;enable-background:accumulate" />
    <rect
       width="61.470325"
       height="17.097975"
       rx="2.9653778"
       ry="3.0449691"
       x="-62.903458"
       y="2.4950619"
       transform="scale(-1,1)"
       id="rect3963"
       style="opacity:0.12396695;color:#000000;fill:none;stroke:#ffffff;stroke-width:0.93703973;stroke-linecap:round;stroke-linejoin:miter;stroke-miterlimit:4;stroke-opacity:1;stroke-dasharray:none;stroke-dashoffset:0;marker:none;visibility:visible;display:inline;overflow:visible;enable-background:accumulate" />
    <rect
       width="27.527298"
       height="17.580441"
       rx="3.5519094"
       ry="3.516088"
       x="-57.54575"
       y="2.0835137"
       transform="scale(-1,1)"
       id="rect4062"
       style="fill:url(#linearGradient4572);fill-opacity:1;stroke:none;display:inline" />
    <rect
       width="32.057007"
       height="21.6308"
       rx="4.1363883"
       ry="4.32616"
       x="-63.865353"
       y="0.066622458"
       transform="scale(-1,1)"
       id="rect4093"
       style="fill:#111111;fill-opacity:1;stroke:none;display:inline" />
    <rect
       width="30.24909"
       height="19.725706"
       rx="3.9031086"
       ry="3.9451411"
       x="-62.975956"
       y="0.96162629"
       transform="scale(-1,1)"
       id="rect17458"
       style="fill:url(#linearGradient4568);fill-opacity:1;stroke:none;display:inline" />
    <g
       transform="matrix(-1,0,0,1,65.79051,0.25758252)"
       id="g4211">
      <path
         d="m 16.798265,5.2711496 a 1.1106291,1.1106291 0 1 1 -1e-6,-8.191e-4"
         transform="translate(-1.9397152,0.5097843)"
         id="path4205"
         style="opacity:0.64049587;fill:#000000;fill-opacity:1;stroke:none" />
      <path
         d="m 16.798265,5.2711496 a 1.1106291,1.1106291 0 1 1 -1e-6,-8.191e-4"
         transform="translate(-2.0281035,4.9277873)"
         id="path4207"
         style="opacity:0.64049587;fill:#060606;fill-opacity:1;stroke:none" />
      <path
         d="m 16.798265,5.2711496 a 1.1106291,1.1106291 0 1 1 -1e-6,-8.191e-4"
         transform="translate(-1.9397152,9.6803703)"
         id="path4209"
         style="opacity:0.64049587;fill:#090909;fill-opacity:1;stroke:none" />
    </g>
    <rect
       width="29.285889"
       height="18.841696"
       rx="3.7788243"
       ry="3.5183392"
       x="-62.58519"
       y="1.3865503"
       transform="scale(-1,1)"
       id="rect4145"
       style="opacity:0.19008262;fill:none;stroke:url(#linearGradient4561);stroke-width:0.96164936;stroke-opacity:1;display:inline" />
    <path
       d="m 16.798265,5.2711496 a 1.1106291,1.1106291 0 1 1 -1e-6,-8.191e-4"
       transform="matrix(-1,0,0,1,60.968517,0.8557548)"
       id="path3813"
       style="fill:#000000;fill-opacity:1;stroke:none" />
    <g
       transform="matrix(-1,0,0,1,63.624996,0.16919417)"
       id="g4216">
      <path
         d="m 16.798265,5.2711496 a 1.1106291,1.1106291 0 1 1 -1e-6,-8.191e-4"
         transform="translate(2.0819546,0.686561)"
         id="path4199"
         style="opacity:0.64049587;fill:#000000;fill-opacity:1;stroke:none" />
      <path
         d="m 16.798265,5.2711496 a 1.1106291,1.1106291 0 1 1 -1e-6,-8.191e-4"
         transform="translate(1.9935663,5.104564)"
         id="path4201"
         style="opacity:0.64049587;fill:#060606;fill-opacity:1;stroke:none" />
      <path
         d="m 16.798265,5.2711496 a 1.1106291,1.1106291 0 1 1 -1e-6,-8.191e-4"
         transform="translate(2.0819546,9.857147)"
         id="path4203"
         style="opacity:0.64049587;fill:#090909;fill-opacity:1;stroke:none" />
    </g>
    <path
       d="m 16.798265,5.2711496 a 1.1106291,1.1106291 0 1 1 -1e-6,-8.191e-4"
       transform="matrix(-1,0,0,1,61.056905,5.2737581)"
       id="path3815"
       style="opacity:0.89669417;fill:#060606;fill-opacity:1;stroke:none" />
    <path
       d="m 16.798265,5.2711496 a 1.1106291,1.1106291 0 1 1 -1e-6,-8.191e-4"
       transform="matrix(-1,0,0,1,60.468517,0.9182548)"
       id="path3805"
       style="fill:#d4d4d4;fill-opacity:1;stroke:none" />
    <path
       d="m 16.798265,5.2711496 a 1.1106291,1.1106291 0 1 1 -1e-6,-8.191e-4"
       transform="matrix(-1,0,0,1,60.968517,10.026341)"
       id="path3817"
       style="opacity:0.89669417;fill:#090909;fill-opacity:1;stroke:none" />
    <path
       d="m 16.798265,5.2711496 a 1.1106291,1.1106291 0 1 1 -1e-6,-8.191e-4"
       transform="matrix(-1,0,0,1,60.463155,5.2737581)"
       id="path3807"
       style="fill:#d4d4d4;fill-opacity:1;stroke:none" />
    <path
       d="m 16.798265,5.2711496 a 1.1106291,1.1106291 0 1 1 -1e-6,-8.191e-4"
       transform="matrix(-1,0,0,1,60.468517,10.088841)"
       id="path3809"
       style="fill:#d4d4d4;fill-opacity:1;stroke:none" />
    <g
       transform="matrix(-1,0,0,1,63.624996,0.125)"
       id="g4221">
      <path
         d="m 16.798265,5.2711496 a 1.1106291,1.1106291 0 1 1 -1e-6,-8.191e-4"
         transform="translate(-3.6024046,0.6682548)"
         id="path4010"
         style="opacity:0.89669417;fill:#000000;fill-opacity:1;stroke:none" />
      <path
         d="m 16.798265,5.2711496 a 1.1106291,1.1106291 0 1 1 -1e-6,-8.191e-4"
         transform="translate(-3.6907929,5.0862581)"
         id="path4012"
         style="opacity:0.89669417;fill:#060606;fill-opacity:1;stroke:none" />
      <path
         d="m 16.798265,5.2711496 a 1.1106291,1.1106291 0 1 1 -1e-6,-8.191e-4"
         transform="translate(-3.6024046,9.8388407)"
         id="path4016"
         style="opacity:0.89669417;fill:#090909;fill-opacity:1;stroke:none" />
    </g>
    <path
       d="m 16.798265,5.2711496 a 1.1106291,1.1106291 0 1 1 -1e-6,-8.191e-4"
       transform="matrix(-1,0,0,1,66.727401,0.8557548)"
       id="path4014"
       style="fill:#d4d4d4;fill-opacity:1;stroke:none" />
    <path
       d="m 16.798265,5.2711496 a 1.1106291,1.1106291 0 1 1 -1e-6,-8.191e-4"
       transform="matrix(-1,0,0,1,66.753289,5.2425081)"
       id="path4018"
       style="fill:#d4d4d4;fill-opacity:1;stroke:none" />
    <path
       d="m 16.798265,5.2711496 a 1.1106291,1.1106291 0 1 1 -1e-6,-8.191e-4"
       transform="matrix(-1,0,0,1,66.727401,10.026341)"
       id="path4022"
       style="fill:#d4d4d4;fill-opacity:1;stroke:none" />
    <g
       transform="translate(0.8750019,-0.13202296)"
       id="text4331-4"
       style="font-size:11px;font-style:normal;font-variant:normal;font-weight:bold;font-stretch:normal;line-height:125%;letter-spacing:0px;word-spacing:0px;opacity:0.85087717;fill:#000000;fill-opacity:1;stroke:none;font-family:Aller;-inkscape-font-specification:Aller Bold">
      <path
         d="m 12.055112,15.368025 c -0.594004,0 -1.107336,-0.102667 -1.54,-0.308 -0.432669,-0.205333 -0.7883351,-0.487666 -1.0670001,-0.847 -0.2786678,-0.366665 -0.4876676,-0.795665 -0.627,-1.287 -0.1320007,-0.498664 -0.1980006,-1.04133 -0.198,-1.628 -6e-7,-0.586662 0.065999,-1.129328 0.198,-1.6280001 0.1393324,-0.505994 0.3483322,-0.9423269 0.627,-1.309 0.278665,-0.3666595 0.6343311,-0.6526592 1.0670001,-0.858 0.432664,-0.2053254 0.945996,-0.307992 1.54,-0.308 0.593995,8e-6 1.107328,0.1026746 1.54,0.308 0.432661,0.2053408 0.788327,0.4913405 1.067,0.858 0.27866,0.3666731 0.483993,0.803006 0.616,1.309 0.139326,0.4986721 0.208992,1.0413381 0.209,1.6280001 -8e-6,0.58667 -0.06967,1.129336 -0.209,1.628 -0.132007,0.491335 -0.33734,0.920335 -0.616,1.287 -0.278673,0.359334 -0.634339,0.641667 -1.067,0.847 -0.432672,0.205333 -0.946005,0.308 -1.54,0.308 m 0,-1.342 c 1.136661,10e-7 1.704994,-0.909331 1.705,-2.728 -6e-6,-0.909329 -0.139339,-1.5913279 -0.418,-2.0460001 -0.271338,-0.4546603 -0.696671,-0.6819934 -1.276,-0.682 -1.151336,6.6e-6 -1.727002,0.909339 -1.727,2.7280001 -2e-6,1.818669 0.571997,2.728001 1.716,2.728"
         id="path5134"
         style="fill:#000000;fill-opacity:1" />
      <path
         d="m 16.824299,7.3270249 c 0.227333,-0.043992 0.443666,-0.065992 0.649,-0.066 0.219999,7.9e-6 0.447332,0.022008 0.682,0.066 l 3.058,5.0380001 0,-5.0380001 c 0.263995,-0.043992 0.516995,-0.065992 0.759,-0.066 0.227328,7.9e-6 0.447327,0.022008 0.66,0.066 l 0,7.9090001 c -0.234673,0.044 -0.447339,0.066 -0.638,0.066 -0.205339,0 -0.429005,-0.022 -0.671,-0.066 l -3.08,-5.027 0,5.027 c -0.234668,0.044 -0.473001,0.066 -0.715,0.066 -0.242001,0 -0.476667,-0.022 -0.704,-0.066 l 0,-7.9090001"
         id="path5136"
         style="fill:#000000;fill-opacity:1" />
    </g>
    <g
       transform="translate(0.8750019,-0.13202296)"
       id="text4327-4"
       style="font-size:11px;font-style:normal;font-variant:normal;font-weight:bold;font-stretch:normal;line-height:125%;letter-spacing:0px;word-spacing:0px;fill:#ffffff;fill-opacity:1;stroke:none;font-family:Aller;-inkscape-font-specification:Aller Bold">
      <path
         d="m 12.055112,14.753119 c -0.594004,-10e-7 -1.107336,-0.102667 -1.54,-0.308 -0.432669,-0.205333 -0.7883351,-0.487666 -1.0670001,-0.847 -0.2786678,-0.366666 -0.4876676,-0.795665 -0.627,-1.287 -0.1320007,-0.498664 -0.1980006,-1.04133 -0.198,-1.628 -6e-7,-0.586663 0.065999,-1.1293287 0.198,-1.6280005 0.1393324,-0.5059939 0.3483322,-0.9423268 0.627,-1.309 0.278665,-0.3666594 0.6343311,-0.6526591 1.0670001,-0.858 0.432664,-0.2053253 0.945996,-0.3079919 1.54,-0.308 0.593995,8.1e-6 1.107328,0.1026747 1.54,0.308 0.432661,0.2053409 0.788327,0.4913406 1.067,0.858 0.27866,0.3666732 0.483993,0.8030061 0.616,1.309 0.139326,0.4986718 0.208992,1.0413375 0.209,1.6280005 -8e-6,0.58667 -0.06967,1.129336 -0.209,1.628 -0.132007,0.491335 -0.33734,0.920334 -0.616,1.287 -0.278673,0.359334 -0.634339,0.641667 -1.067,0.847 -0.432672,0.205333 -0.946005,0.307999 -1.54,0.308 m 0,-1.342 c 1.136661,1e-6 1.704994,-0.909332 1.705,-2.728 -6e-6,-0.9093289 -0.139339,-1.5913283 -0.418,-2.0460005 -0.271338,-0.4546602 -0.696671,-0.6819933 -1.276,-0.682 -1.151336,6.7e-6 -1.727002,0.9093391 -1.727,2.7280005 -2e-6,1.818668 0.571997,2.728001 1.716,2.728"
         id="path5129"
         style="fill:#ffffff;fill-opacity:1" />
      <path
         d="m 16.824299,6.7121185 c 0.227333,-0.043992 0.443666,-0.065992 0.649,-0.066 0.219999,8e-6 0.447332,0.022008 0.682,0.066 l 3.058,5.0380005 0,-5.0380005 c 0.263995,-0.043992 0.516995,-0.065992 0.759,-0.066 0.227328,8e-6 0.447327,0.022008 0.66,0.066 l 0,7.9090005 c -0.234673,0.044 -0.447339,0.066 -0.638,0.066 -0.205339,-10e-7 -0.429005,-0.022 -0.671,-0.066 l -3.08,-5.0270005 0,5.0270005 c -0.234668,0.044 -0.473001,0.066 -0.715,0.066 -0.242001,-10e-7 -0.476667,-0.022 -0.704,-0.066 l 0,-7.9090005"
         id="path5131"
         style="fill:#ffffff;fill-opacity:1" />
    </g>
  </g>
</svg>
