<?xml version="1.0" encoding="UTF-8" standalone="no"?>
<!-- Created with Inkscape (http://www.inkscape.org/) -->

<svg
   xmlns:dc="http://purl.org/dc/elements/1.1/"
   xmlns:cc="http://creativecommons.org/ns#"
   xmlns:rdf="http://www.w3.org/1999/02/22-rdf-syntax-ns#"
   xmlns:svg="http://www.w3.org/2000/svg"
   xmlns="http://www.w3.org/2000/svg"
   xmlns:sodipodi="http://sodipodi.sourceforge.net/DTD/sodipodi-0.dtd"
   xmlns:inkscape="http://www.inkscape.org/namespaces/inkscape"
   width="65"
   height="22"
   id="svg2857"
   version="1.1"
   inkscape:version="0.48.2 r9819"
   sodipodi:docname="toggle-on-us.svg">
  <defs
     id="defs2859">
    <inkscape:perspective
       sodipodi:type="inkscape:persp3d"
       inkscape:vp_x="0 : 526.18109 : 1"
       inkscape:vp_y="0 : 1000 : 0"
       inkscape:vp_z="744.09448 : 526.18109 : 1"
       inkscape:persp3d-origin="372.04724 : 350.78739 : 1"
       id="perspective2865" />
    <inkscape:perspective
       id="perspective2843"
       inkscape:persp3d-origin="0.5 : 0.33333333 : 1"
       inkscape:vp_z="1 : 0.5 : 1"
       inkscape:vp_y="0 : 1000 : 0"
       inkscape:vp_x="0 : 0.5 : 1"
       sodipodi:type="inkscape:persp3d" />
  </defs>
  <sodipodi:namedview
     id="base"
     pagecolor="#ffffff"
     bordercolor="#666666"
     borderopacity="1.0"
     inkscape:pageopacity="0.0"
     inkscape:pageshadow="2"
     inkscape:zoom="8"
     inkscape:cx="44.301336"
     inkscape:cy="17.843723"
     inkscape:document-units="px"
     inkscape:current-layer="layer1"
     showgrid="false"
     inkscape:window-width="1278"
     inkscape:window-height="731"
     inkscape:window-x="0"
     inkscape:window-y="25"
     inkscape:window-maximized="0"
     borderlayer="true"
     inkscape:showpageshadow="false" />
  <metadata
     id="metadata2862">
    <rdf:RDF>
      <cc:Work
         rdf:about="">
        <dc:format>image/svg+xml</dc:format>
        <dc:type
           rdf:resource="http://purl.org/dc/dcmitype/StillImage" />
        <dc:title />
      </cc:Work>
    </rdf:RDF>
  </metadata>
  <g
     inkscape:label="Layer 1"
     inkscape:groupmode="layer"
     id="layer1"
     transform="translate(-444.64286,-781.36218)">
    <g
       style="display:inline"
       transform="translate(-351.35714,708.36218)"
       id="g16453">
      <rect
         style="color:#000000;fill:#4a90d9;fill-opacity:1;fill-rule:nonzero;stroke:#3465a4;stroke-width:0.99999994000000003;stroke-linecap:round;stroke-linejoin:miter;stroke-miterlimit:4;stroke-opacity:1;stroke-dasharray:none;stroke-dashoffset:0;marker:none;visibility:visible;display:inline;overflow:visible;enable-background:accumulate"
         id="rect16256-9-4"
         width="63.000004"
         height="19"
         x="-859.5"
         y="74.5"
         rx="4"
         ry="4"
         transform="scale(-1,1)" />
      <rect
         style="fill:#000000;fill-opacity:1;stroke:#5f5f5f;stroke-width:2;stroke-linecap:round;stroke-linejoin:miter;stroke-miterlimit:4;stroke-opacity:1;stroke-dasharray:none;stroke-dashoffset:0;display:inline"
         id="rect16258-5-4"
         width="31"
         height="20"
         x="-860"
         y="74"
         rx="4"
         ry="4"
         transform="scale(-1,1)" />
      <g
         style="display:inline"
         id="g16298-3-6"
         transform="matrix(-1,0,0,1,1651.1322,-33.986291)">
        <path
           inkscape:connector-curvature="0"
           id="path16265-3-5"
           d="m 803.6322,115.48629 0,4.29495"
           style="fill:none;stroke:#d8ac24;stroke-width:1px;stroke-linecap:round;stroke-linejoin:miter;stroke-opacity:1" />
        <path
           inkscape:connector-curvature="0"
           id="path16265-0-2-0"
           d="m 806.62805,115.48629 0,4.29495"
           style="fill:none;stroke:#d8ac24;stroke-width:1px;stroke-linecap:round;stroke-linejoin:miter;stroke-opacity:1;display:inline" />
        <path
           inkscape:connector-curvature="0"
           id="path16265-8-7-1"
           d="m 809.6239,115.48629 0,4.29495"
           style="fill:none;stroke:#d8ac24;stroke-width:1px;stroke-linecap:round;stroke-linejoin:miter;stroke-opacity:1;display:inline" />
      </g>
      <g
         style="font-size:8.95877075px;font-style:normal;font-variant:normal;font-weight:bold;font-stretch:normal;text-indent:0;text-align:start;text-decoration:none;line-height:125%;letter-spacing:normal;word-spacing:normal;text-transform:none;direction:ltr;block-progression:tb;writing-mode:lr-tb;text-anchor:start;color:#000000;fill:#ffffff;fill-opacity:1;fill-rule:nonzero;stroke:none;stroke-width:1px;marker:none;visibility:visible;display:inline;overflow:visible;enable-background:accumulate;font-family:Cantarell;-inkscape-font-specification:Cantarell Bold"
         id="text42229-3-0">
        <path
           d="m 808.01473,80.573953 c 0.63283,6e-6 1.19567,0.123947 1.68852,0.371824 0.49284,0.247888 0.88071,0.609505 1.16359,1.084851 0.28287,0.472439 0.42431,1.022155 0.42432,1.649149 -10e-6,0.635748 -0.13853,1.200045 -0.41557,1.692892 -0.27705,0.489934 -0.66637,0.870506 -1.16796,1.141719 -0.50161,0.271212 -1.07757,0.406819 -1.72789,0.406819 -0.4287,0 -0.83552,-0.06562 -1.22046,-0.196848 -0.38495,-0.134148 -0.73053,-0.32808 -1.03673,-0.581795 -0.3033,-0.256631 -0.54535,-0.589085 -0.72615,-0.997363 -0.1779,-0.408276 -0.26684,-0.869045 -0.26684,-1.382311 0,-0.638658 0.13998,-1.200039 0.41994,-1.684144 0.27996,-0.487011 0.66782,-0.858835 1.16359,-1.115472 0.49576,-0.259541 1.06298,-0.389315 1.70164,-0.389321 m 0.57305,1.089225 c -0.20123,-0.05249 -0.40682,-0.07873 -0.61679,-0.07874 -0.20998,5e-6 -0.41411,0.02625 -0.61242,0.07874 -0.19831,0.04958 -0.38932,0.129779 -0.57304,0.240592 -0.18081,0.107907 -0.33975,0.242055 -0.47681,0.402445 -0.13707,0.160399 -0.24643,0.358705 -0.32808,0.594918 -0.0817,0.233305 -0.12249,0.491395 -0.12249,0.774269 0,0.67366 0.20851,1.214627 0.62554,1.622902 0.41703,0.408279 0.93758,0.612417 1.56166,0.612416 0.25955,10e-7 0.51035,-0.04228 0.7524,-0.126857 0.24496,-0.08457 0.47097,-0.20997 0.67803,-0.376199 0.20705,-0.166225 0.37328,-0.392236 0.49868,-0.678031 0.1254,-0.285792 0.1881,-0.610956 0.1881,-0.975492 0,-0.297455 -0.0437,-0.568668 -0.13123,-0.813638 -0.0875,-0.247878 -0.20414,-0.453475 -0.34995,-0.61679 -0.1429,-0.163307 -0.31059,-0.301829 -0.50306,-0.415568 -0.18956,-0.11373 -0.38641,-0.195385 -0.59054,-0.244967"
           style="line-height:125%;fill:#ffffff;fill-opacity:1;marker:none;font-family:Cantarell;-inkscape-font-specification:Cantarell Bold"
           id="path18606" />
        <path
           d="m 813.15903,80.639569 1.21608,0 3.4689,4.776844 0,-4.776844 1.10235,0 0,6.216022 -1.22921,0 -3.45577,-4.785594 0,4.785594 -1.10235,0 0,-6.216022"
           style="line-height:125%;fill:#ffffff;fill-opacity:1;marker:none;font-family:Cantarell;-inkscape-font-specification:Cantarell Bold"
           id="path18608" />
      </g>
    </g>
    <path
       style="fill:#786721"
       d="M 3.8693043,19.8511 C 3.0927362,19.697462 2.4059508,19.30153 1.9090514,18.721015 1.0757366,17.747473 1.0763361,17.753092 1.0763361,10.916475 l 0,-6.1452673 0.3920482,-0.784558 C 1.873897,3.175147 2.5338647,2.5787716 3.3658289,2.2720368 3.6614473,2.163046 7.5052277,2.1228501 18.307434,2.1157868 l 14.543596,-0.00951 -0.268523,0.4551126 c -0.602572,1.0212849 -0.631171,1.4027871 -0.631171,8.4198873 0,7.002421 0.0343,7.462909 0.631348,8.475895 0.134008,0.227368 0.243652,0.438305 0.243652,0.46875 0,0.102516 -28.4320021,0.02905 -28.9570317,-0.07482 l 0,0 z m 9.6161627,-6.176795 c 1.196609,-0.504366 1.925813,-1.811215 1.810714,-3.245092 -0.14459,-1.8012997 -1.370264,-2.8747838 -3.282345,-2.8747838 -1.499366,0 -2.6868135,0.760094 -3.1050564,1.9875692 -0.8256975,2.4232886 0.7837226,4.5687746 3.2925564,4.3892396 0.446875,-0.03198 1.024734,-0.147598 1.284131,-0.256933 l 0,0 z m 4.869299,-2.059539 0.03407,-2.2415117 1.617449,2.2415117 1.617449,2.241511 0.663801,0 0.663801,0 0,-3.125 0,-3.1249999 -0.5625,0 -0.5625,0 0,2.3277787 0,2.3277782 -1.694654,-2.3277782 -1.694653,-2.3277787 -0.680347,0 -0.680346,0 0,3.1249999 0,3.125 0.62218,0 0.62218,0 0.03407,-2.241511 z"
       id="path3050"
       inkscape:connector-curvature="0"
       transform="translate(444.64286,781.36218)" />
    <path
       style="fill:#786721"
       d="m 11.12647,12.618098 c -0.741392,-0.3367 -1.094775,-0.897416 -1.1463973,-1.819003 -0.033118,-0.591243 0.012175,-0.8420907 0.2085093,-1.1547762 1.092111,-1.7393147 3.862518,-0.9831386 3.882515,1.0597232 0.0096,0.981191 -0.488591,1.719003 -1.357164,2.00992 -0.592414,0.198421 -0.992691,0.174249 -1.587463,-0.09586 l 0,0 z"
       id="path3052"
       inkscape:connector-curvature="0"
       transform="translate(444.64286,781.36218)" />
    <path
       style="fill:#a0892c"
       d="m 3.8101642,20.854093 c -1.4523843,-0.24541 -2.695909,-1.1997 -3.31833926,-2.546517 l -0.35298887,-0.763799 0,-6.5625 0,-6.5624999 0.32377034,-0.6875 C 0.64068009,3.3531521 0.94809517,2.8525239 1.1457511,2.6187702 1.5891823,2.0943548 2.5923447,1.4527273 3.2783386,1.2547569 3.6627997,1.1438056 7.5787476,1.1062771 18.77161,1.1062771 l 14.978767,0 -0.424041,0.4375 -0.424041,0.4375 -14.515713,0 c -16.1775579,0 -15.1622247,-0.0544 -16.2107413,0.8685416 C 1.8791909,3.1109402 1.4963833,3.5989032 1.3251568,3.9341811 l -0.3113207,0.609596 0,6.4374999 c 0,6.303049 0.00555,6.449248 0.2655195,7 0.3572803,0.756894 0.9675191,1.347215 1.7969805,1.738326 l 0.6875,0.324174 14.6180809,0.03475 L 33,20.113275 l 0.434001,0.434001 0.434001,0.434001 -14.739582,-0.0147 c -8.106771,-0.0081 -14.9999863,-0.0587 -15.3182558,-0.112482 z"
       id="path3054"
       inkscape:connector-curvature="0"
       transform="translate(444.64286,781.36218)" />
    <path
       style="fill:#a0892c"
       d="m 36.173895,21.854822 c -1.339575,-0.231 -2.558564,-1.043089 -3.296736,-2.196282 -0.815002,-1.273222 -0.814805,-1.270942 -0.774586,-8.945247 l 0.03626,-6.9195159 0.3968,-0.837589 c 0.504829,-1.0656259 1.324985,-1.8857818 2.390611,-2.39061154 l 0.837589,-0.3967995 12.75,0 12.75,0 0.8125,0.38996951 c 1.438809,0.69057403 2.469136,2.02864853 2.754894,3.57774613 0.08573,0.4647301 0.11916,3.0422921 0.09485,7.3125003 -0.03713,6.522877 -0.04063,6.602433 -0.321156,7.296245 -0.533927,1.320562 -1.64985,2.407775 -3.028588,2.950664 -0.523409,0.206098 -1.405124,0.22285 -12.6875,0.24107 -6.66875,0.01077 -12.390474,-0.0262 -12.714941,-0.08215 l 0,0 z m 25.184174,-2.164225 c 0.8174,-0.401384 1.371577,-1.087602 1.593101,-1.972677 0.09366,-0.374213 0.125532,-2.61973 0.100055,-7.049143 C 63.0144,4.2668866 63.009727,4.1611014 62.741639,3.6602503 62.379582,2.9838498 61.581147,2.2790467 60.991434,2.1152926 60.669599,2.0259242 56.559405,1.9833393 48.388836,1.9847194 34.77442,1.9870192 35.758912,1.9195512 34.790572,2.9166186 33.937392,3.7951098 33.93873,3.7813807 33.978378,11.254912 l 0.03546,6.683784 0.379091,0.613009 c 0.443749,0.717563 1.208551,1.272736 1.961178,1.423625 0.294102,0.05896 5.878481,0.09849 12.409731,0.08783 l 11.875,-0.01938 0.719233,-0.35318 z"
       id="path3056"
       inkscape:connector-curvature="0"
       transform="translate(444.64286,781.36218)" />
  </g>
</svg>
