<?xml version="1.0" encoding="UTF-8" standalone="no"?>
<!-- Created with Inkscape (http://www.inkscape.org/) -->

<svg
   xmlns:dc="http://purl.org/dc/elements/1.1/"
   xmlns:cc="http://creativecommons.org/ns#"
   xmlns:rdf="http://www.w3.org/1999/02/22-rdf-syntax-ns#"
   xmlns:svg="http://www.w3.org/2000/svg"
   xmlns="http://www.w3.org/2000/svg"
   xmlns:xlink="http://www.w3.org/1999/xlink"
   xmlns:sodipodi="http://sodipodi.sourceforge.net/DTD/sodipodi-0.dtd"
   xmlns:inkscape="http://www.inkscape.org/namespaces/inkscape"
   width="58"
   height="26"
   id="svg2985"
   version="1.1"
   inkscape:version="0.48.3.1 r9886"
   sodipodi:docname="entry-menu.svg">
  <defs
     id="defs2987">
    <linearGradient
       id="linearGradient4250">
      <stop
         id="stop4252"
         offset="0"
         style="stop-color:#ffffff;stop-opacity:0;" />
      <stop
         id="stop4254"
         offset="1"
         style="stop-color:#ffffff;stop-opacity:0.2" />
    </linearGradient>
    <linearGradient
       inkscape:collect="always"
       xlink:href="#linearGradient3818"
       id="linearGradient3868"
       x1="-55"
       y1="20"
       x2="-55"
       y2="-6"
       gradientUnits="userSpaceOnUse"
       gradientTransform="translate(100,-41)" />
    <clipPath
       clipPathUnits="userSpaceOnUse"
       id="clipPath3025">
      <rect
         style="opacity:0.3669725;fill:#3d677f;fill-opacity:1;stroke:#000000;stroke-width:0;stroke-miterlimit:4;stroke-opacity:1;stroke-dasharray:none"
         id="rect3027"
         width="12.999999"
         height="26"
         x="0.99999988"
         y="21"
         transform="matrix(0.70710678,0.70710678,-0.70710678,0.70710678,0,0)" />
    </clipPath>
    <linearGradient
       inkscape:collect="always"
       xlink:href="#linearGradient4250-8"
       id="linearGradient4022-7"
       gradientUnits="userSpaceOnUse"
       gradientTransform="matrix(0.68975772,-0.69005426,0.68975772,0.69005426,-29.895913,-27.486285)"
       x1="-14.181131"
       y1="77.82074"
       x2="-3.3124213"
       y2="66.952026" />
    <linearGradient
       id="linearGradient4250-8">
      <stop
         id="stop4252-1"
         offset="0"
         style="stop-color:#ffffff;stop-opacity:0;" />
      <stop
         id="stop4254-9"
         offset="1"
         style="stop-color:#ffffff;stop-opacity:0.2" />
    </linearGradient>
    <clipPath
       clipPathUnits="userSpaceOnUse"
       id="clipPath3021">
      <rect
         style="opacity:0.3669725;fill:#3d677f;fill-opacity:1;stroke:#000000;stroke-width:0;stroke-miterlimit:4;stroke-opacity:1;stroke-dasharray:none"
         id="rect3023"
         width="12.999999"
         height="26"
         x="0.99999988"
         y="21" />
    </clipPath>
    <linearGradient
       y2="66.952026"
       x2="-3.3124213"
       y1="85.783028"
       x1="-22.143421"
       gradientTransform="matrix(0.97630378,0,0,0.97630378,-1.7158156,-40.616775)"
       gradientUnits="userSpaceOnUse"
       id="linearGradient3054"
       xlink:href="#linearGradient3818"
       inkscape:collect="always" />
    <linearGradient
       inkscape:collect="always"
       xlink:href="#linearGradient4250"
       id="linearGradient4166"
       gradientUnits="userSpaceOnUse"
       gradientTransform="translate(100,27)"
       x1="-55"
       y1="20"
       x2="-55"
       y2="-6" />
    <linearGradient
       y2="45"
       x2="-6"
       y1="19"
       x1="-6"
       gradientTransform="translate(37,2)"
       gradientUnits="userSpaceOnUse"
       id="linearGradient3048"
       xlink:href="#linearGradient3818"
       inkscape:collect="always" />
    <linearGradient
       id="linearGradient3818">
      <stop
         style="stop-color:#51bbe9;stop-opacity:1;"
         offset="0"
         id="stop3820" />
      <stop
         style="stop-color:#1b62ad;stop-opacity:1;"
         offset="1"
         id="stop3822" />
    </linearGradient>
  </defs>
  <sodipodi:namedview
     id="base"
     pagecolor="#000000"
     bordercolor="#666666"
     borderopacity="1.0"
     inkscape:pageopacity="0.80784314"
     inkscape:pageshadow="2"
     inkscape:zoom="1"
     inkscape:cx="39.446387"
     inkscape:cy="8.2551471"
     inkscape:current-layer="layer1"
     showgrid="false"
     inkscape:grid-bbox="true"
     inkscape:document-units="px"
     inkscape:window-width="1366"
     inkscape:window-height="715"
     inkscape:window-x="0"
     inkscape:window-y="26"
     inkscape:window-maximized="1"
     fit-margin-top="0"
     fit-margin-left="0"
     fit-margin-right="0"
     fit-margin-bottom="0"
     showborder="false"
     inkscape:showpageshadow="false">
    <inkscape:grid
       type="xygrid"
       id="grid3779"
       empspacing="5"
       visible="true"
       enabled="true"
       snapvisiblegridlinesonly="true"
       originx="-0.9999999px"
       originy="-1px" />
  </sodipodi:namedview>
  <metadata
     id="metadata2990">
    <rdf:RDF>
      <cc:Work
         rdf:about="">
        <dc:format>image/svg+xml</dc:format>
        <dc:type
           rdf:resource="http://purl.org/dc/dcmitype/StillImage" />
        <dc:title />
      </cc:Work>
    </rdf:RDF>
  </metadata>
  <g
     id="layer1"
     inkscape:label="Layer 1"
     inkscape:groupmode="layer"
     transform="translate(-0.9999999,-21)">
    <rect
       style="fill:#000000;fill-opacity:1;opacity:0.3"
       id="rect3009"
       width="56"
       height="24"
       x="1.0000001"
       y="1"
       transform="translate(0.9999999,21)"
       rx="1"
       ry="1" />
    <path
       style="fill:url(#linearGradient3048);fill-opacity:1.0;stroke:#000000;stroke-width:0;stroke-miterlimit:4;stroke-opacity:1;stroke-dasharray:none"
       d="m 2.9999999,21 c -1.108,0 -2,0.892 -2,2 l 0,22 c 0,1.108 0.892,2 2,2 L 57,47 c 1.108,0 2,-0.892 2,-2 l 0,-22 c 0,-1.108 -0.892,-2 -2,-2 L 2.9999999,21 z m 0,1 L 57,22 c 0.554,0 1,0.446 1,1 l 0,22 c 0,0.554 -0.446,1 -1,1 L 2.9999999,46 c -0.554,0 -1,-0.446 -1,-1 l 0,-22 c 0,-0.554 0.446,-1 1,-1 z"
       id="rect2990-5"
       inkscape:connector-curvature="0" />
    <rect
       style="fill:url(#linearGradient3868);fill-opacity:1.0;stroke:#000000;stroke-width:0;stroke-miterlimit:4;stroke-opacity:1;stroke-dasharray:none"
       id="rect3816"
       width="20"
       height="26"
       x="39"
       y="-47"
       rx="2"
       ry="2"
       transform="scale(1,-1)" />
    <path
       style="fill:url(#linearGradient4166);fill-opacity:1;stroke:#000000;stroke-width:0;stroke-miterlimit:4;stroke-opacity:1;stroke-dasharray:none"
       d="m 41,21 c -1.108,0 -2,0.892 -2,2 l 0,22 c 0,1.108 0.892,2 2,2 l 16,0 c 1.108,0 2,-0.892 2,-2 l 0,-22 c 0,-1.108 -0.892,-2 -2,-2 l -16,0 z m 0,1 16,0 c 0.554,0 1,0.446 1,1 l 0,22 c 0,0.554 -0.446,1 -1,1 l -16,0 c -0.554,0 -1,-0.446 -1,-1 l 0,-22 c 0,-0.554 0.446,-1 1,-1 z"
       id="rect3816-3"
       inkscape:connector-curvature="0" />
    <rect
       style="fill:url(#linearGradient3054);fill-opacity:1.0;stroke:#000000;stroke-width:0;stroke-miterlimit:4;stroke-opacity:1;stroke-dasharray:none"
       id="rect3934-1"
       width="19.526075"
       height="19.526075"
       x="-23.905172"
       y="24.178087"
       transform="matrix(0.70710686,0.70710679,0.70710686,-0.70710679,26.999999,68)"
       rx="1.9526075"
       ry="1.9526075"
       clip-path="url(#clipPath3025)" />
    <path
       transform="translate(27,0)"
       style="fill:url(#linearGradient4022-7);fill-opacity:1;stroke:#000000;stroke-width:0;stroke-miterlimit:4;stroke-opacity:1;stroke-dasharray:none"
       d="m 14,21 c -0.498695,0 -0.991693,0.179968 -1.373818,0.562258 L 1.573189,32.620002 c -0.76425212,0.764581 -0.76425212,1.984238 0,2.748818 l 11.052993,11.057745 c 0.764252,0.76458 1.983385,0.76458 2.747637,0 L 26.426812,35.36882 c 0.764251,-0.76458 0.764251,-1.984237 0,-2.748818 L 15.373819,21.562258 C 14.991693,21.179968 14.498695,21 14,21 z m 0,0.99957 c 0.248531,0 0.496472,0.09061 0.686909,0.281129 l 11.02177,11.026508 c 0.380875,0.381038 0.380875,0.993371 0,1.374409 l -11.02177,11.026508 c -0.380874,0.381038 -0.992944,0.381038 -1.373818,0 L 2.291321,34.681616 c -0.380874,-0.381038 -0.380874,-0.993371 0,-1.374409 L 13.313091,22.280699 C 13.503528,22.09018 13.751469,21.99957 14,21.99957 z"
       id="rect3934-5-8"
       inkscape:connector-curvature="0"
       clip-path="url(#clipPath3021)" />
  </g>
</svg>
