<?xml version="1.0" encoding="UTF-8" standalone="no"?>
<svg
   width="16"
   height="16"
   version="1.1"
   id="svg2"
   inkscape:version="1.3 (0e150ed6c4, 2023-07-21)"
   sodipodi:docname="menu-symbolic.svg"
   xmlns:inkscape="http://www.inkscape.org/namespaces/inkscape"
   xmlns:sodipodi="http://sodipodi.sourceforge.net/DTD/sodipodi-0.dtd"
   xmlns="http://www.w3.org/2000/svg"
   xmlns:svg="http://www.w3.org/2000/svg"
   xmlns:rdf="http://www.w3.org/1999/02/22-rdf-syntax-ns#"
   xmlns:cc="http://creativecommons.org/ns#"
   xmlns:dc="http://purl.org/dc/elements/1.1/">
  <metadata
     id="metadata10">
    <rdf:RDF>
      <cc:Work
         rdf:about="">
        <dc:format>image/svg+xml</dc:format>
        <dc:type
           rdf:resource="http://purl.org/dc/dcmitype/StillImage" />
        <dc:title />
      </cc:Work>
    </rdf:RDF>
  </metadata>
  <defs
     id="defs8" />
  <sodipodi:namedview
     pagecolor="#ffffff"
     bordercolor="#666666"
     borderopacity="1"
     objecttolerance="10"
     gridtolerance="10"
     guidetolerance="10"
     inkscape:pageopacity="0"
     inkscape:pageshadow="2"
     inkscape:window-width="1920"
     inkscape:window-height="1018"
     id="namedview6"
     showgrid="true"
     inkscape:zoom="59"
     inkscape:cx="12.737288"
     inkscape:cy="8.8305085"
     inkscape:window-x="0"
     inkscape:window-y="30"
     inkscape:window-maximized="1"
     inkscape:current-layer="svg2"
     inkscape:showpageshadow="2"
     inkscape:pagecheckerboard="0"
     inkscape:deskcolor="#d1d1d1">
    <inkscape:grid
       type="xygrid"
       id="grid4138"
       originx="0"
       originy="0"
       spacingy="1"
       spacingx="1"
       units="px"
       visible="true" />
  </sodipodi:namedview>
  <path
     inkscape:connector-curvature="0"
     id="XMLID_9_"
     d="M 8,0 C 3.5834905,0 0.00285609,3.585152 0.00285609,8.0072345 0.00285609,12.430014 3.5834905,16.01447 8,16.01447 c 4.417204,0 7.997143,-3.584456 7.997143,-8.0072355 C 15.997143,3.585152 12.417204,0 8,0 Z m 0,1.365364 c 3.664082,0 6.633498,2.9731643 6.633498,6.6418705 0,0.5642634 -0.07688,1.1087715 -0.209164,1.6319095 L 11.269211,6.1278188 7.2353272,10.723002 9.1816434,6.8241002 8.2091641,5.0833968 2.4747991,11.681751 C 1.7752311,10.629194 1.3664989,9.3661474 1.3664989,8.0072345 1.3664989,4.3385283 4.3359166,1.365364 8,1.365364 Z"
     style="fill:#2eb398;fill-opacity:1;stroke-width:0.69584244" />
</svg>
