/* XPM */
static char *close_pressed[] = {
/* columns rows colors chars-per-pixel */
"24 24 35 1 ",
"  c #2F2F2F",
". c #2F2F31",
"X c #2F3030",
"o c #2F3037",
"O c #2F3138",
"+ c gray20",
"@ c gray22",
"# c #30354F",
"$ c #303550",
"% c #303551",
"& c #303650",
"* c #303654",
"= c #303655",
"- c #303756",
"; c #313757",
": c #303758",
"> c #31385C",
", c #30385D",
"< c #31385F",
"1 c #303861",
"2 c #313961",
"3 c #303962",
"4 c #303963",
"5 c #313963",
"6 c #313E7F",
"7 c #313E80",
"8 c #323F80",
"9 c #323F81",
"0 c #32418D",
"q c #31418E",
"w c #32418E",
"e c #32418F",
"r c #324192",
"t c #324292",
"y c #324293",
/* pixels */
"@@@@@@@@@@@@@@@@@@@@@@@@",
"++++++++++++++++++++++++",
"                        ",
"                        ",
"                        ",
"        O58ee75O        ",
"       $qyyyyyyq&       ",
"      $tyyyyyyyyt&      ",
"     Oqyy0yyyywyywo     ",
"     5yyy.;rr:Xyyy3     ",
"     9yyy2 *= ,yyy7     ",
"     qyyyy<  >yyyyq     ",
"     qyyyt*  %tyyyw     ",
"     8yyy- 11 =yyy7     ",
"     5yyyO4yy4Oyyy1     ",
"     Oqyyyyyyyyyy0o     ",
"      &tyyyyyyyyt#      ",
"       &wyyyyyy0#       ",
"        o36ww61o        ",
"                        ",
"                        ",
"                        ",
"                        ",
"                        "
};
