/* XPM */
static char *close_prelight[] = {
/* columns rows colors chars-per-pixel */
"24 24 40 1 ",
"  c #2F2F2F",
". c #303031",
"X c #303032",
"o c gray20",
"O c #33353C",
"+ c #34353D",
"@ c #34363E",
"# c gray22",
"$ c #434966",
"% c #434968",
"& c #434969",
"* c #444A68",
"= c #454C6E",
"- c #464C6F",
"; c #464D70",
": c #474D71",
"> c #474E72",
", c #484F75",
"< c #4B537C",
"1 c #4B537E",
"2 c #4C5580",
"3 c #4D5684",
"4 c #4E5785",
"5 c #4E5786",
"6 c #4E5887",
"7 c #4F5888",
"8 c #4F5889",
"9 c #606EB8",
"0 c #606FB9",
"q c #616FBA",
"w c #6170BB",
"e c #697AD0",
"r c #687AD1",
"t c #697AD1",
"y c #697AD2",
"u c #697BD3",
"i c #6B7DD8",
"p c #6C7ED8",
"a c #6C7ED9",
"s c #6C7EDA",
/* pixels */
"########################",
"oooooooooooooooooooooooo",
"                        ",
"                        ",
"                        ",
"        @7quu06@        ",
"       %rssssssr*       ",
"      %assssssssa*      ",
"     @rssesssstsst+     ",
"     7sssX>ii,.sss5     ",
"     wsss3 -; 1sss0     ",
"     rssss2  <ssssr     ",
"     rsssp=  &issst     ",
"     qsss> 33 :sss0     ",
"     6sss@8ss8@sss4     ",
"     @rsssssssssseO     ",
"      *assssssssa$      ",
"       *tsssssse$       ",
"        +59yy94O        ",
"                        ",
"                        ",
"                        ",
"                        ",
"                        "
};
