/* XPM */
static char *close_active[] = {
/* columns rows colors chars-per-pixel */
"24 24 39 1 ",
"  c #2F2F2F",
". c #2F3030",
"X c #2F3031",
"o c gray20",
"O c #303139",
"+ c #30323A",
"@ c gray22",
"# c #333A59",
"$ c #333A5A",
"% c #333A5B",
"& c #343A5B",
"* c #333B5F",
"= c #343B60",
"- c #343B61",
"; c #343C61",
": c #343C62",
"> c #353C63",
", c #343D65",
"< c #353E6A",
"1 c #353E6B",
"2 c #353F6D",
"3 c #353F70",
"4 c #353F71",
"5 c #364070",
"6 c #364072",
"7 c #364073",
"8 c #364074",
"9 c #394998",
"0 c #394A99",
"q c #3A4A99",
"w c #3A4A9A",
"e c #3B4EAB",
"r c #3C4FAB",
"t c #3B4EAC",
"y c #3B4FAC",
"u c #3C4FB1",
"i c #3C50B0",
"p c #3C50B1",
"a c #3C50B2",
/* pixels */
"@@@@@@@@@@@@@@@@@@@@@@@@",
"oooooooooooooooooooooooo",
"                        ",
"                        ",
"                        ",
"        +7qyy06+        ",
"       $eaaaaaae&       ",
"      $paaaaaaaap&      ",
"     +eaaeaaaaraar+     ",
"     7aaaX>uu,.aaa6     ",
"     waaa5 =- 1aaa0     ",
"     eaaaa2  <aaaae     ",
"     eaaap*  %iaaar     ",
"     qaaa: 33 ;aaa0     ",
"     6aaa+8aa8+aaa4     ",
"     +eaaaaaaaaaaeO     ",
"      &paaaaaaaap#      ",
"       &raaaaaae#       ",
"        +69tt94O        ",
"                        ",
"                        ",
"                        ",
"                        ",
"                        "
};
