<?xml version="1.0" encoding="UTF-8" standalone="no"?>
<!-- Created with Inkscape (http://www.inkscape.org/) -->

<svg
   xmlns:dc="http://purl.org/dc/elements/1.1/"
   xmlns:cc="http://creativecommons.org/ns#"
   xmlns:rdf="http://www.w3.org/1999/02/22-rdf-syntax-ns#"
   xmlns:svg="http://www.w3.org/2000/svg"
   xmlns="http://www.w3.org/2000/svg"
   xmlns:sodipodi="http://sodipodi.sourceforge.net/DTD/sodipodi-0.dtd"
   xmlns:inkscape="http://www.inkscape.org/namespaces/inkscape"
   width="32"
   height="32"
   id="svg3768"
   version="1.1"
   inkscape:version="0.48.3.1 r9886"
   sodipodi:docname="workspace-close.svg">
  <defs
     id="defs3770">
    <clipPath
       clipPathUnits="userSpaceOnUse"
       id="clipPath3760">
      <rect
         style="fill:#3c3b37;fill-opacity:1;stroke:none"
         id="rect3762"
         width="32"
         height="32"
         x="1.8622208e-09"
         y="-4.8535156e-07" />
    </clipPath>
    <clipPath
       clipPathUnits="userSpaceOnUse"
       id="clipPath3764">
      <rect
         style="fill:#3c3b37;fill-opacity:1;stroke:none"
         id="rect3766"
         width="32"
         height="32"
         x="-0.043690428"
         y="32.063828" />
    </clipPath>
  </defs>
  <sodipodi:namedview
     id="base"
     pagecolor="#ffffff"
     bordercolor="#666666"
     borderopacity="1.0"
     inkscape:pageopacity="1"
     inkscape:pageshadow="2"
     inkscape:zoom="11.104167"
     inkscape:cx="-9.6528665"
     inkscape:cy="16.116362"
     inkscape:current-layer="layer1"
     showgrid="true"
     inkscape:document-units="px"
     inkscape:grid-bbox="true"
     inkscape:window-width="1366"
     inkscape:window-height="712"
     inkscape:window-x="0"
     inkscape:window-y="25"
     inkscape:window-maximized="1"
     fit-margin-top="0"
     fit-margin-left="0"
     fit-margin-right="0"
     fit-margin-bottom="0">
    <inkscape:grid
       type="xygrid"
       id="grid4311"
       empspacing="5"
       visible="true"
       enabled="true"
       snapvisiblegridlinesonly="true" />
  </sodipodi:namedview>
  <metadata
     id="metadata3773">
    <rdf:RDF>
      <cc:Work
         rdf:about="">
        <dc:format>image/svg+xml</dc:format>
        <dc:type
           rdf:resource="http://purl.org/dc/dcmitype/StillImage" />
        <dc:title />
      </cc:Work>
    </rdf:RDF>
  </metadata>
  <g
     id="layer1"
     inkscape:label="Layer 1"
     inkscape:groupmode="layer"
     transform="translate(0.04369043,-32.063828)">
    <rect
       style="opacity:0.20000000000000001;fill:#161616;fill-opacity:1;stroke:none"
       id="rect2986"
       width="35"
       height="35"
       x="-0.043690428"
       y="29.063828"
       rx="3"
       ry="3"
       clip-path="url(#clipPath3764)" />
    <rect
       style="fill:#3c3b37;fill-opacity:1;stroke:none"
       id="rect2988"
       width="38"
       height="34"
       x="1"
       y="-3"
       transform="translate(-0.04369043,32.063828)"
       rx="2"
       ry="2"
       clip-path="url(#clipPath3760)" />
    <path
       style="color:#000000;fill:#eae3d1;fill-opacity:1;fill-rule:nonzero;stroke:none;stroke-width:4;marker:none;visibility:visible;display:inline;overflow:visible;enable-background:accumulate"
       d="m 13.540081,42.063828 c -0.129855,0 -0.265595,0.03064 -0.365094,0.130293 l -1.069202,1.068433 c -0.199003,0.1993 -0.199003,0.53036 0,0.72966 l 3.051137,3.075001 -3.051137,3.04894 c -0.199301,0.199439 -0.199301,0.530225 0,0.729661 l 1.069202,1.068432 c 0.199299,0.19944 0.530886,0.19944 0.730186,0 l 3.051136,-3.048937 3.051138,3.04894 c 0.199001,0.199301 0.531185,0.199301 0.730187,0 l 1.0692,-1.068433 c 0.199004,-0.1993 0.199004,-0.53036 0,-0.72966 l -3.051137,-3.048941 3.051137,-3.075 c 0.199301,-0.199438 0.199301,-0.530223 0,-0.729661 l -1.0692,-1.068432 c -0.09964,-0.09972 -0.261124,-0.130293 -0.391172,-0.130293 -0.130054,0 -0.239366,0.03059 -0.339015,0.130293 l -3.051138,3.048944 -3.051136,-3.048941 c -0.0995,-0.09965 -0.235238,-0.130294 -0.365092,-0.130294 z"
       id="rect2987"
       inkscape:connector-curvature="0" />
  </g>
</svg>
