<svg xmlns="http://www.w3.org/2000/svg" width="35" height="200"><g transform="translate(0 -852.362)"><path d="M3 0C1.338 0 0 1.338 0 3v194c0 1.662 1.338 3 3 3h33c1.662 0 3-1.338 3-3V3c0-1.662-1.338-3-3-3zm0 1h33c1.108 0 2 .892 2 2v194c0 1.108-.892 2-2 2H3c-1.108 0-2-.892-2-2V3c0-1.108.892-2 2-2z" style="opacity:.45;fill:#000;fill-opacity:1;stroke:#102b68;stroke-width:0;stroke-linecap:butt;stroke-linejoin:miter;stroke-miterlimit:4;stroke-opacity:1;stroke-dasharray:none;stroke-dashoffset:0" transform="translate(0 852.362)"/><rect width="37" height="198" x="1" y="853.362" rx="2" ry="2" style="opacity:.45;fill:#202020;fill-opacity:1;stroke:#102b68;stroke-width:0;stroke-linecap:butt;stroke-linejoin:miter;stroke-miterlimit:4;stroke-dasharray:none;stroke-dashoffset:0;stroke-opacity:1"/><g style="fill:#bababa;fill-opacity:1"><rect width="2" height="16" x="17" y="944.362" ry="1.143" style="opacity:1;fill:#bababa;fill-opacity:1;stroke:#102b68;stroke-width:0;stroke-linecap:butt;stroke-linejoin:miter;stroke-miterlimit:4;stroke-opacity:1;stroke-dasharray:none;stroke-dashoffset:0"/><rect width="2" height="16" x="951.362" y="-26" ry="1.143" style="opacity:1;fill:#bababa;fill-opacity:1;stroke:#102b68;stroke-width:0;stroke-linecap:butt;stroke-linejoin:miter;stroke-miterlimit:4;stroke-opacity:1;stroke-dasharray:none;stroke-dashoffset:0" transform="rotate(90)"/></g></g></svg>