<svg xmlns="http://www.w3.org/2000/svg" width="32" height="32"><g transform="translate(0 -1020.362)"><rect width="23" height="22" x="4.5" y="1024.862" rx="2" ry="2" style="display:inline;opacity:.81;fill:none;fill-opacity:1;stroke:#161a26;stroke-width:1;stroke-linecap:round;stroke-linejoin:miter;stroke-miterlimit:4;stroke-dasharray:none;stroke-dashoffset:0;stroke-opacity:1"/><rect width="22" height="21" x="5" y="1025.362" rx="1.4" ry="1.4" style="display:inline;opacity:.95;fill:#353945;fill-opacity:1;stroke:none;stroke-width:1;stroke-linecap:round;stroke-linejoin:miter;stroke-miterlimit:4;stroke-dasharray:none;stroke-dashoffset:0;stroke-opacity:1"/><g style="display:inline;opacity:.65" transform="translate(-426 658.362)"><rect width="31" height="31" x="426.5" y="362.5" rx="8" ry="8" style="display:inline;opacity:.02000002;fill:none;fill-opacity:1;stroke:#000;stroke-width:.99999988;stroke-linecap:round;stroke-linejoin:miter;stroke-miterlimit:4;stroke-dasharray:none;stroke-dashoffset:0;stroke-opacity:1"/><rect width="29" height="29" x="427.5" y="363.5" rx="7" ry="7" style="display:inline;opacity:.07000002;fill:none;fill-opacity:1;stroke:#000;stroke-width:.99999982;stroke-linecap:round;stroke-linejoin:miter;stroke-miterlimit:4;stroke-dasharray:none;stroke-dashoffset:0;stroke-opacity:1"/><rect width="27" height="27" x="428.5" y="364.5" rx="6" ry="6" style="display:inline;opacity:.12999998;fill:none;fill-opacity:1;stroke:#000;stroke-width:.99999988;stroke-linecap:round;stroke-linejoin:miter;stroke-miterlimit:4;stroke-dasharray:none;stroke-dashoffset:0;stroke-opacity:1"/><rect width="25" height="25" x="429.5" y="365.5" rx="5" ry="5" style="display:inline;opacity:.2;fill:none;fill-opacity:1;stroke:#000;stroke-width:1;stroke-linecap:round;stroke-linejoin:miter;stroke-miterlimit:4;stroke-dasharray:none;stroke-dashoffset:0;stroke-opacity:1"/><path d="M431.648 388.305a3.98 3.98 0 0 0 2.852 1.195h15c1.12 0 2.127-.458 2.852-1.195-.26.122-.545.195-.852.195h-19c-.306 0-.592-.073-.852-.195z" style="display:inline;opacity:.25;fill:none;fill-opacity:1;stroke:#000;stroke-width:1;stroke-linecap:round;stroke-linejoin:miter;stroke-miterlimit:4;stroke-dasharray:none;stroke-dashoffset:0;stroke-opacity:1"/></g></g></svg>