<svg xmlns="http://www.w3.org/2000/svg" width="16" height="16"><g style="display:inline"><path d="M106.177 751a.672.665 0 0 1 .104.01.672.665 0 0 1 .399.186l3.358 3.325.462.478-.462.478-3.358 3.325a.683.676 0 0 1-.698.163.333.333 0 0 1-.457-.31q0-.062.024-.118a.683.676 0 0 1 .165-.691l2.876-2.847-2.876-2.847a.672.665 0 0 1-.17-.721c-.009-.03-.02-.058-.02-.09 0-.184.15-.332.337-.332q.06.002.111.022a.672.665 0 0 1 .205-.031" style="color:#000;font-style:normal;font-variant:normal;font-weight:400;font-stretch:normal;font-size:medium;line-height:normal;font-family:Sans;-inkscape-font-specification:Sans;text-indent:0;text-align:start;text-decoration:none;text-decoration-line:none;letter-spacing:normal;word-spacing:normal;text-transform:none;direction:ltr;block-progression:tb;writing-mode:lr-tb;baseline-shift:baseline;text-anchor:start;display:inline;overflow:visible;visibility:visible;fill:#1f9ede;fill-opacity:1;stroke:none;stroke-width:2;marker:none" transform="translate(-100 -747)"/></g></svg>