<svg xmlns="http://www.w3.org/2000/svg" width="16" height="16"><g style="display:inline"><path d="M109.823 751a.672.665 0 0 0-.103.01.672.665 0 0 0-.4.186l-3.358 3.325-.462.478.462.478 3.359 3.325a.683.676 0 0 0 .698.163.333.333 0 0 0 .457-.31.3.3 0 0 0-.024-.118.683.676 0 0 0-.166-.691l-2.876-2.847 2.876-2.847a.672.665 0 0 0 .171-.721c.008-.03.019-.058.019-.09a.333.333 0 0 0-.336-.332q-.06.002-.112.022a.672.665 0 0 0-.205-.031" style="color:#000;font-style:normal;font-variant:normal;font-weight:400;font-stretch:normal;font-size:medium;line-height:normal;font-family:Sans;-inkscape-font-specification:Sans;text-indent:0;text-align:start;text-decoration:none;text-decoration-line:none;letter-spacing:normal;word-spacing:normal;text-transform:none;direction:ltr;block-progression:tb;writing-mode:lr-tb;baseline-shift:baseline;text-anchor:start;display:inline;overflow:visible;visibility:visible;fill:#a1a1a1;fill-opacity:1;stroke:none;stroke-width:2;marker:none" transform="translate(-100 -747)"/></g></svg>