<svg xmlns="http://www.w3.org/2000/svg" xml:space="preserve" width="26" height="26" version="1.0" viewBox="0 0 18.909 18.909"><circle cx="9.455" cy="10.182" r="8" style="opacity:.1;fill:#000;fill-opacity:1;stroke:#f70505;stroke-width:0;stroke-linejoin:round;stroke-miterlimit:4;stroke-dasharray:none;stroke-dashoffset:0;stroke-opacity:1"/><circle cx="9.455" cy="9.455" r="8" style="opacity:1;fill:#ff7a80;fill-opacity:1;stroke:#f70505;stroke-width:0;stroke-linejoin:round;stroke-miterlimit:4;stroke-dasharray:none;stroke-dashoffset:0;stroke-opacity:1"/><g style="display:inline;fill:#fff;fill-opacity:1"><path d="M44.226 764.172h1.032c.255.011.51.129.687.313l2.281 2.281 2.313-2.281c.266-.23.447-.306.687-.313h1v1c0 .287-.034.55-.25.75l-2.28 2.281 2.25 2.25c.187.189.28.454.28.72v1h-1c-.265 0-.53-.094-.718-.282l-2.282-2.281-2.28 2.281a1.01 1.01 0 0 1-.72.281h-1v-1c0-.265.094-.53.282-.719l2.281-2.25-2.281-2.28a.91.91 0 0 1-.282-.75z" style="color:#bebebe;font-style:normal;font-variant:normal;font-weight:400;font-stretch:normal;font-size:medium;line-height:normal;font-family:&quot;Andale Mono&quot;;-inkscape-font-specification:&quot;Andale Mono&quot;;text-indent:0;text-align:start;text-decoration:none;text-decoration-line:none;letter-spacing:normal;word-spacing:normal;text-transform:none;direction:ltr;block-progression:tb;writing-mode:lr-tb;text-anchor:start;display:inline;overflow:visible;visibility:visible;fill:#fff;fill-opacity:1;fill-rule:nonzero;stroke:none;stroke-width:1.78124988;marker:none" transform="matrix(.72727 0 0 .72727 -25.614 -549.189)"/></g></svg>