<svg xmlns="http://www.w3.org/2000/svg" width="400" height="120"><path d="M8 6c-1.108 0-2 .892-2 2v113c0 1.108.892 2 2 2h384c1.108 0 2-.892 2-2V8c0-1.108-.892-2-2-2zm0 1h384a1 1 0 0 1 1 1v113a1 1 0 0 1-1 1H8a1 1 0 0 1-1-1V8a1 1 0 0 1 1-1" opacity=".45"/><rect width="386" height="115" x="7" y="7" opacity=".3" rx="1"/><path fill="#f9f9f9" fill-rule="evenodd" d="M182.267 48.75v35.627a6.05 6.05 0 0 0 6.063 6.063h22.271a6.05 6.05 0 0 0 6.063-6.062V48.75zm26.998 5.178c.982 0 1.773.971 1.773 2.176v27.051c0 1.205-.791 2.176-1.773 2.176s-1.773-.971-1.773-2.176V56.104c0-1.205.791-2.176 1.773-2.176m-9.83.019c.982 0 1.773.969 1.773 2.174v27.051c0 1.205-.791 2.176-1.773 2.176s-1.773-.971-1.773-2.176V56.121c0-1.205.791-2.174 1.773-2.174m-9.896.025c.982 0 1.773.971 1.773 2.176v27.051c0 1.205-.791 2.176-1.773 2.176s-1.773-.971-1.773-2.176v-27.05c0-1.205.791-2.176 1.773-2.176zm-4.684-13.192h28.352c5.059 0 5.793 6.244 5.793 6.244h-39.938s.38-6.244 5.793-6.244m10.837-5.123h6.66c3.053 0 3.08 3.276 3.08 3.276h-12.82s.035-3.276 3.08-3.276" opacity=".868"/></svg>