<?xml version="1.0" encoding="UTF-8" standalone="no"?>
<!-- Created with Inkscape (http://www.inkscape.org/) -->

<svg
   xmlns:dc="http://purl.org/dc/elements/1.1/"
   xmlns:cc="http://creativecommons.org/ns#"
   xmlns:rdf="http://www.w3.org/1999/02/22-rdf-syntax-ns#"
   xmlns:svg="http://www.w3.org/2000/svg"
   xmlns="http://www.w3.org/2000/svg"
   xmlns:xlink="http://www.w3.org/1999/xlink"
   xmlns:sodipodi="http://sodipodi.sourceforge.net/DTD/sodipodi-0.dtd"
   xmlns:inkscape="http://www.inkscape.org/namespaces/inkscape"
   version="1.1"
   width="49"
   height="51.441864"
   id="svg2857"
   inkscape:version="0.48.3.1 r9886"
   sodipodi:docname="add-workspace-hover.svg">
  <sodipodi:namedview
     pagecolor="#ffffff"
     bordercolor="#666666"
     borderopacity="1"
     objecttolerance="10"
     gridtolerance="10"
     guidetolerance="10"
     inkscape:pageopacity="0"
     inkscape:pageshadow="2"
     inkscape:window-width="1366"
     inkscape:window-height="713"
     id="namedview8"
     showgrid="true"
     inkscape:zoom="7.8771695"
     inkscape:cx="8.2495737"
     inkscape:cy="26.864144"
     inkscape:window-x="0"
     inkscape:window-y="28"
     inkscape:window-maximized="1"
     inkscape:current-layer="text3002"
     fit-margin-top="0.5"
     fit-margin-left="0.5"
     fit-margin-right="0.5"
     fit-margin-bottom="0.5">
    <inkscape:grid
       type="xygrid"
       id="grid3752"
       empspacing="5"
       visible="true"
       enabled="true"
       snapvisiblegridlinesonly="true"
       originx="5.7308549px"
       originy="-5.7857418px" />
  </sodipodi:namedview>
  <defs
     id="defs2859">
    <inkscape:perspective
       sodipodi:type="inkscape:persp3d"
       inkscape:vp_x="0 : 25 : 1"
       inkscape:vp_y="0 : 1000 : 0"
       inkscape:vp_z="35 : 25 : 1"
       inkscape:persp3d-origin="17.5 : 16.666667 : 1"
       id="perspective3778" />
    <linearGradient
       id="linearGradient3765">
      <stop
         style="stop-color:#4d90fe;stop-opacity:1;"
         offset="0"
         id="stop3767" />
      <stop
         style="stop-color:#4787ed;stop-opacity:1"
         offset="1"
         id="stop3769" />
    </linearGradient>
    <clipPath
       clipPathUnits="userSpaceOnUse"
       id="clipPath3797">
      <rect
         style="fill:#1d70f8;fill-opacity:1;stroke:#1d70f8;stroke-width:0;stroke-linejoin:round;stroke-miterlimit:4;stroke-opacity:1;stroke-dasharray:none;stroke-dashoffset:0"
         id="rect3799"
         width="41"
         height="58"
         x="0"
         y="0"
         rx="0"
         ry="0" />
    </clipPath>
    <clipPath
       clipPathUnits="userSpaceOnUse"
       id="clipPath3801">
      <rect
         style="fill:#1d70f8;fill-opacity:1;stroke:#1d70f8;stroke-width:0;stroke-linejoin:round;stroke-miterlimit:4;stroke-opacity:1;stroke-dasharray:none;stroke-dashoffset:0"
         id="rect3803"
         width="33.619999"
         height="58.900002"
         x="0.10146683"
         y="-36.906982"
         rx="0"
         ry="0" />
    </clipPath>
    <clipPath
       clipPathUnits="userSpaceOnUse"
       id="clipPath3805">
      <rect
         style="fill:#1d70f8;fill-opacity:1;stroke:#1d70f8;stroke-width:0;stroke-linejoin:round;stroke-miterlimit:4;stroke-opacity:1;stroke-dasharray:none;stroke-dashoffset:0"
         id="rect3807"
         width="41"
         height="58"
         x="0"
         y="0"
         rx="0"
         ry="0" />
    </clipPath>
    <clipPath
       clipPathUnits="userSpaceOnUse"
       id="clipPath3783">
      <rect
         style="fill:#4787ee;fill-opacity:1;stroke:#1d70f8;stroke-width:0;stroke-linecap:round;stroke-linejoin:miter;stroke-miterlimit:4;stroke-opacity:1;stroke-dasharray:none"
         id="rect3785"
         width="35"
         height="50"
         x="0"
         y="-5.3290705e-15"
         rx="0"
         ry="0" />
    </clipPath>
    <clipPath
       clipPathUnits="userSpaceOnUse"
       id="clipPath3787">
      <rect
         style="fill:#4787ee;fill-opacity:1;stroke:#1d70f8;stroke-width:0;stroke-linecap:round;stroke-linejoin:miter;stroke-miterlimit:4;stroke-opacity:1;stroke-dasharray:none"
         id="rect3789"
         width="35"
         height="50"
         x="0"
         y="-5.3290705e-15"
         rx="0"
         ry="0" />
    </clipPath>
    <clipPath
       clipPathUnits="userSpaceOnUse"
       id="clipPath3791">
      <rect
         style="fill:#4787ee;fill-opacity:1;stroke:#1d70f8;stroke-width:0;stroke-linecap:round;stroke-linejoin:miter;stroke-miterlimit:4;stroke-opacity:1;stroke-dasharray:none"
         id="rect3793"
         width="35"
         height="50"
         x="0"
         y="-5.3290705e-15"
         rx="0"
         ry="0" />
    </clipPath>
    <linearGradient
       inkscape:collect="always"
       xlink:href="#linearGradient3765"
       id="linearGradient3771"
       x1="17.0625"
       y1="1.9375"
       x2="17.0625"
       y2="47.9375"
       gradientUnits="userSpaceOnUse" />
  </defs>
  <metadata
     id="metadata2862">
    <rdf:RDF>
      <cc:Work
         rdf:about="">
        <dc:format>image/svg+xml</dc:format>
        <dc:type
           rdf:resource="http://purl.org/dc/dcmitype/StillImage" />
        <dc:title></dc:title>
      </cc:Work>
    </rdf:RDF>
  </metadata>
  <g
     style="font-size:34.92203522px;font-style:normal;font-variant:normal;font-weight:normal;font-stretch:normal;line-height:125%;letter-spacing:0px;word-spacing:0px;fill:#000000;fill-opacity:1;stroke:none;font-family:icomoon;-inkscape-font-specification:icomoon"
     id="text3002"
     transform="translate(5.6683549,7.290104)">
    <path
       d="m -2.8819445,-5.0069424 44.1944435,0 0,34.6363764 -44.1944435,0 0,-34.6363764 M 0.12691203,-7.0625079 C -4.9375,-7.0624979 -4.9375,-7.0624979 -4.9375,-0.89583134 l 0,30.83333334 c 0,6.197609 -0.5191028,7.194444 5.13888882,7.194444 l 14.38888918,0 c 0,3.083333 0,4.111111 -3.083334,6.166667 l 16.444444,0 c -3.083333,-2.055556 -3.083333,-3.083334 -3.083333,-6.166667 l 14.388889,0 c 5.138889,0 4.111111,-1.027778 4.111111,-7.194444 l 0,-30.83333334 c 0,-6.16666656 0,-6.16666656 -5.138889,-6.16666656 l -38.02777718,0"
       id="path3011"
       inkscape:connector-curvature="0"
       sodipodi:nodetypes="cccccccccccccccccc"
       style="fill:#839496;fill-opacity:1;opacity:0.3" />
    <g
       style="font-size:25.48547934999999853px;line-height:125%;fill:#93a1a1;fill-opacity:1;font-family:icomoon;-inkscape-font-specification:icomoon"
       id="text3781"
       transform="matrix(1.5203172,0,0,1.5203172,-8.4511696,-22.597486)">
      <path
         d="m 29.615338,25.226993 0,-4.451422 c -1.7e-5,-0.227538 -0.09483,-0.436124 -0.284436,-0.625759 -0.189641,-0.189613 -0.398227,-0.284425 -0.62576,-0.284436 l -7.284887,0 0,-7.350791 c -1.3e-5,-0.227534 -0.09483,-0.43612 -0.284436,-0.625759 -0.189637,-0.189609 -0.398223,-0.284421 -0.62576,-0.284437 l -4.451421,0 c -0.227559,1.6e-5 -0.436145,0.09483 -0.62576,0.284437 -0.189633,0.189639 -0.284445,0.398225 -0.284436,0.625759 l 0,7.350791 -7.2851435,0 c -0.227554,1.1e-5 -0.43614,0.09482 -0.625759,0.284436 -0.189629,0.189635 -0.284441,0.398221 -0.284437,0.625759 l 0,4.451422 c -4e-6,0.227557 0.09481,0.436143 0.284437,0.625759 0.189619,0.189632 0.398205,0.284444 0.625759,0.284437 l 7.2851435,0 0,7.21924 c -9e-6,0.227553 0.0948,0.436139 0.284436,0.62576 0.189615,0.189627 0.398201,0.284439 0.62576,0.284436 l 4.451421,0 c 0.227537,3e-6 0.436123,-0.09481 0.62576,-0.284436 0.189611,-0.189621 0.284423,-0.398207 0.284436,-0.62576 l 0,-7.21924 7.284887,0 c 0.227533,7e-6 0.436119,-0.09481 0.62576,-0.284437 0.189607,-0.189616 0.284419,-0.398202 0.284436,-0.625759 m 3.231875,9.328288 -29.5853323,0 0.1347845,-23.021512 29.5004898,0"
         id="path3805"
         inkscape:connector-curvature="0"
         sodipodi:nodetypes="ccccccccccccccccccccccccccccccccc"
         style="fill:#93a1a1;fill-opacity:1" />
    </g>
  </g>
</svg>
