<?xml version="1.0" encoding="UTF-8" standalone="no"?>
<!-- Created with Inkscape (http://www.inkscape.org/) -->

<svg
   xmlns:dc="http://purl.org/dc/elements/1.1/"
   xmlns:cc="http://creativecommons.org/ns#"
   xmlns:rdf="http://www.w3.org/1999/02/22-rdf-syntax-ns#"
   xmlns:svg="http://www.w3.org/2000/svg"
   xmlns="http://www.w3.org/2000/svg"
   xmlns:sodipodi="http://sodipodi.sourceforge.net/DTD/sodipodi-0.dtd"
   xmlns:inkscape="http://www.inkscape.org/namespaces/inkscape"
   version="1.1"
   width="16"
   height="16"
   id="svg2"
   inkscape:version="0.48.3.1 r9886"
   sodipodi:docname="calendar-arrow-right-hover.svg">
  <sodipodi:namedview
     pagecolor="#ffffff"
     bordercolor="#666666"
     borderopacity="1"
     objecttolerance="10"
     gridtolerance="10"
     guidetolerance="10"
     inkscape:pageopacity="0"
     inkscape:pageshadow="2"
     inkscape:window-width="1474"
     inkscape:window-height="888"
     id="namedview7"
     showgrid="false"
     inkscape:zoom="14.75"
     inkscape:cx="-3.5932203"
     inkscape:cy="17.537627"
     inkscape:window-x="242"
     inkscape:window-y="84"
     inkscape:window-maximized="0"
     inkscape:current-layer="svg2" />
  <defs
     id="defs4" />
  <metadata
     id="metadata7">
    <rdf:RDF>
      <cc:Work
         rdf:about="">
        <dc:format>image/svg+xml</dc:format>
        <dc:type
           rdf:resource="http://purl.org/dc/dcmitype/StillImage" />
        <dc:title />
      </cc:Work>
    </rdf:RDF>
  </metadata>
  <g
     transform="scale(-1,1)"
     style="font-size:21.50736618px;font-style:normal;font-variant:normal;font-weight:500;font-stretch:normal;line-height:125%;letter-spacing:0px;word-spacing:0px;fill:#268bd2;fill-opacity:1;stroke:none;font-family:Entypo;-inkscape-font-specification:Entypo Medium"
     id="text2984">
    <path
       d="m -6.8666832,2.2403921 c 0.1863914,-0.2293982 0.4659869,-0.344104 0.8387872,-0.3441179 0.3584494,1.39e-5 0.6523831,0.1147197 0.8818021,0.3441179 0.5448454,0.5161897 0.5448454,1.0897189 0,1.7205893 l -4.0003702,4.2154438 4.0003702,4.1724288 c 0.5448454,0.630886 0.5448454,1.204415 0,1.72059 -0.229419,0.229413 -0.5161836,0.344119 -0.8602947,0.344117 -0.3441239,2e-6 -0.6308885,-0.114704 -0.8602946,-0.344117 L -11.727348,8.9937051 c -0.229412,-0.229405 -0.344118,-0.5018313 -0.344118,-0.8172799 0,-0.34411 0.114706,-0.6308746 0.344118,-0.8602947 3.226101,-3.3694756 4.846321,-5.0613867 4.8606648,-5.0757384 l 0,0"
       style=""
       id="path2984" />
  </g>
</svg>
