<?xml version="1.0" encoding="UTF-8" standalone="no"?>
<!-- Created with Inkscape (http://www.inkscape.org/) -->

<svg
   xmlns:dc="http://purl.org/dc/elements/1.1/"
   xmlns:cc="http://creativecommons.org/ns#"
   xmlns:rdf="http://www.w3.org/1999/02/22-rdf-syntax-ns#"
   xmlns:svg="http://www.w3.org/2000/svg"
   xmlns="http://www.w3.org/2000/svg"
   xmlns:sodipodi="http://sodipodi.sourceforge.net/DTD/sodipodi-0.dtd"
   xmlns:inkscape="http://www.inkscape.org/namespaces/inkscape"
   version="1.1"
   width="16"
   height="16"
   id="svg2"
   inkscape:version="0.48.3.1 r9886"
   sodipodi:docname="calendar-arrow-left-hover.svg">
  <sodipodi:namedview
     pagecolor="#ffffff"
     bordercolor="#666666"
     borderopacity="1"
     objecttolerance="10"
     gridtolerance="10"
     guidetolerance="10"
     inkscape:pageopacity="0"
     inkscape:pageshadow="2"
     inkscape:window-width="1474"
     inkscape:window-height="888"
     id="namedview7"
     showgrid="false"
     inkscape:zoom="14.75"
     inkscape:cx="-3.5932203"
     inkscape:cy="17.537627"
     inkscape:window-x="242"
     inkscape:window-y="84"
     inkscape:window-maximized="0"
     inkscape:current-layer="svg2" />
  <defs
     id="defs4" />
  <metadata
     id="metadata7">
    <rdf:RDF>
      <cc:Work
         rdf:about="">
        <dc:format>image/svg+xml</dc:format>
        <dc:type
           rdf:resource="http://purl.org/dc/dcmitype/StillImage" />
        <dc:title />
      </cc:Work>
    </rdf:RDF>
  </metadata>
  <g
     style="font-size:21.50736618px;font-style:normal;font-variant:normal;font-weight:500;font-stretch:normal;line-height:125%;letter-spacing:0px;word-spacing:0px;fill:#268bd2;fill-opacity:1;stroke:none;font-family:Entypo;-inkscape-font-specification:Entypo Medium"
     id="text2984">
    <path
       d="m 9.5335968,2.2403921 c 0.1863914,-0.2293982 0.4659869,-0.344104 0.8387872,-0.3441179 0.358449,1.39e-5 0.652383,0.1147197 0.881802,0.3441179 0.544846,0.5161897 0.544846,1.0897189 0,1.7205893 L 7.2538159,8.1764252 11.254186,12.348854 c 0.544846,0.630886 0.544846,1.204415 0,1.72059 -0.229419,0.229413 -0.516183,0.344119 -0.860295,0.344117 -0.344123,2e-6 -0.6308881,-0.114704 -0.8602942,-0.344117 L 4.672932,8.9937051 C 4.4435197,8.7643001 4.3288138,8.4918738 4.3288141,8.1764252 4.3288138,7.8323152 4.4435197,7.5455506 4.672932,7.3161305 7.899033,3.9466549 9.519253,2.2547438 9.5335968,2.2403921 l 0,0"
       style=""
       id="path2984" />
  </g>
</svg>
