<?xml version="1.0" encoding="UTF-8" standalone="no"?>
<!-- Generator: IcoMoon.io -->

<svg
   xmlns:dc="http://purl.org/dc/elements/1.1/"
   xmlns:cc="http://creativecommons.org/ns#"
   xmlns:rdf="http://www.w3.org/1999/02/22-rdf-syntax-ns#"
   xmlns:svg="http://www.w3.org/2000/svg"
   xmlns="http://www.w3.org/2000/svg"
   xmlns:sodipodi="http://sodipodi.sourceforge.net/DTD/sodipodi-0.dtd"
   xmlns:inkscape="http://www.inkscape.org/namespaces/inkscape"
   width="23.999996"
   height="22"
   viewBox="0 0 23.999996 22"
   id="svg2"
   version="1.1"
   inkscape:version="0.48.3.1 r9886"
   sodipodi:docname="check-empty.svg"
   style="fill:#93a1a1">
  <metadata
     id="metadata10">
    <rdf:RDF>
      <cc:Work
         rdf:about="">
        <dc:format>image/svg+xml</dc:format>
        <dc:type
           rdf:resource="http://purl.org/dc/dcmitype/StillImage" />
        <dc:title></dc:title>
      </cc:Work>
    </rdf:RDF>
  </metadata>
  <defs
     id="defs8" />
  <sodipodi:namedview
     pagecolor="#ffffff"
     bordercolor="#666666"
     borderopacity="1"
     objecttolerance="10"
     gridtolerance="10"
     guidetolerance="10"
     inkscape:pageopacity="0"
     inkscape:pageshadow="2"
     inkscape:window-width="946"
     inkscape:window-height="688"
     id="namedview6"
     showgrid="false"
     fit-margin-left="0"
     fit-margin-top="1"
     fit-margin-bottom="1"
     fit-margin-right="4"
     inkscape:zoom="8.4285714"
     inkscape:cx="21.033119"
     inkscape:cy="19.76856"
     inkscape:window-x="860"
     inkscape:window-y="148"
     inkscape:window-maximized="0"
     inkscape:current-layer="svg2" />
  <path
     d="m 15.909096,2.81818 -11.81819,0 q -0.9375,0 -1.60511,0.66762 -0.66761,0.66761 -0.66761,1.60511 l 0,11.81818 q 0,0.9375 0.66761,1.60511 0.66761,0.66762 1.60511,0.66762 l 11.81819,0 q 0.9375,0 1.60511,-0.66762 0.66761,-0.66761 0.66761,-1.60511 l 0,-11.81818 q 0,-0.9375 -0.66761,-1.60511 -0.66761,-0.66762 -1.60511,-0.66762 z m 4.0909,2.27273 0,11.81818 q 0,1.69034 -1.20028,2.89063 Q 17.599436,21 15.909096,21 L 4.090906,21 Q 2.400566,21 1.200285,19.79972 0,18.59943 0,16.90909 L 0,5.09091 Q 0,3.40057 1.200285,2.20028 2.400566,1 4.090906,1 l 11.81819,0 q 1.69034,0 2.89062,1.20028 1.20028,1.20029 1.20028,2.89063 z"
     id="path4"
     inkscape:connector-curvature="0" />
</svg>
