<?xml version="1.0" encoding="UTF-8" standalone="no"?>
<!-- Generator: IcoMoon.io -->

<svg
   xmlns:dc="http://purl.org/dc/elements/1.1/"
   xmlns:cc="http://creativecommons.org/ns#"
   xmlns:rdf="http://www.w3.org/1999/02/22-rdf-syntax-ns#"
   xmlns:svg="http://www.w3.org/2000/svg"
   xmlns="http://www.w3.org/2000/svg"
   xmlns:sodipodi="http://sodipodi.sourceforge.net/DTD/sodipodi-0.dtd"
   xmlns:inkscape="http://www.inkscape.org/namespaces/inkscape"
   width="24.000002"
   height="20.319901"
   viewBox="0 0 24.000002 20.319901"
   id="svg2"
   version="1.1"
   inkscape:version="0.48.3.1 r9886"
   sodipodi:docname="checkbox.svg"
   style="fill:#93a1a1">
  <metadata
     id="metadata10">
    <rdf:RDF>
      <cc:Work
         rdf:about="">
        <dc:format>image/svg+xml</dc:format>
        <dc:type
           rdf:resource="http://purl.org/dc/dcmitype/StillImage" />
        <dc:title></dc:title>
      </cc:Work>
    </rdf:RDF>
  </metadata>
  <defs
     id="defs8" />
  <sodipodi:namedview
     pagecolor="#ffffff"
     bordercolor="#666666"
     borderopacity="1"
     objecttolerance="10"
     gridtolerance="10"
     guidetolerance="10"
     inkscape:pageopacity="0"
     inkscape:pageshadow="2"
     inkscape:window-width="1219"
     inkscape:window-height="775"
     id="namedview6"
     showgrid="false"
     inkscape:zoom="8.4285714"
     inkscape:cx="18.001198"
     inkscape:cy="10.144592"
     inkscape:window-x="666"
     inkscape:window-y="28"
     inkscape:window-maximized="0"
     inkscape:current-layer="svg2"
     fit-margin-top="0"
     fit-margin-left="0"
     fit-margin-right="0"
     fit-margin-bottom="0" />
  <path
     d="m 20.319901,11.57426 0,4.5893 q 0,1.71737 -1.21948,2.93686 -1.21948,1.21948 -2.93686,1.21948 l -12.007217,0 q -1.717378,0 -2.936861,-1.21948 Q 0,17.88093 0,16.16356 L 0,4.15634 Q 0,2.43896 1.219483,1.21948 2.438966,0 4.156344,0 l 12.007217,0 q 0.9092,0 1.68851,0.36079 0.21648,0.10102 0.25977,0.33193 0.0433,0.24534 -0.12988,0.41852 l -0.70716,0.70716 q -0.14431,0.14431 -0.33193,0.14431 -0.0433,0 -0.12988,-0.0289 -0.33193,-0.0866 -0.64943,-0.0866 l -12.007217,0 q -0.952496,0 -1.630788,0.67829 -0.678292,0.67829 -0.678292,1.63079 l 0,12.00722 q 0,0.95249 0.678292,1.63078 0.678292,0.6783 1.630788,0.6783 l 12.007217,0 q 0.95249,0 1.63079,-0.6783 0.67829,-0.67829 0.67829,-1.63078 l 0,-3.66567 q 0,-0.18761 0.12988,-0.3175 l 0.92364,-0.92363 q 0.14431,-0.14432 0.33193,-0.14432 0.0866,0 0.17318,0.0433 0.28863,0.11545 0.28863,0.41852 z m 3.33374,-7.05713 -11.747447,11.74745 q -0.346362,0.34636 -0.82261,0.34636 -0.476248,0 -0.82261,-0.34636 L 4.055322,10.05893 Q 3.70896,9.71256 3.70896,9.23632 q 0,-0.47625 0.346362,-0.82261 l 1.587492,-1.5875 q 0.346362,-0.34636 0.82261,-0.34636 0.476248,0 0.82261,0.34636 l 3.79555,3.79555 9.337337,-9.33734 q 0.34637,-0.34636 0.82261,-0.34636 0.47625,0 0.82261,0.34636 l 1.5875,1.58749 q 0.34636,0.34637 0.34636,0.82261 0,0.47625 -0.34636,0.82261 z"
     id="path4"
     inkscape:connector-curvature="0" />
</svg>
