<?xml version="1.0" encoding="UTF-8" standalone="no"?>
<!-- Generator: IcoMoon.io -->

<svg
   xmlns:dc="http://purl.org/dc/elements/1.1/"
   xmlns:cc="http://creativecommons.org/ns#"
   xmlns:rdf="http://www.w3.org/1999/02/22-rdf-syntax-ns#"
   xmlns:svg="http://www.w3.org/2000/svg"
   xmlns="http://www.w3.org/2000/svg"
   xmlns:sodipodi="http://sodipodi.sourceforge.net/DTD/sodipodi-0.dtd"
   xmlns:inkscape="http://www.inkscape.org/namespaces/inkscape"
   width="24.000002"
   height="20.319901"
   viewBox="0 0 24.000002 20.319901"
   id="svg2"
   version="1.1"
   inkscape:version="0.48.3.1 r9886"
   sodipodi:docname="checkbox.svg"
   style="fill:#93a1a1">
  <metadata
     id="metadata10">
    <rdf:RDF>
      <cc:Work
         rdf:about="">
        <dc:format>image/svg+xml</dc:format>
        <dc:type
           rdf:resource="http://purl.org/dc/dcmitype/StillImage" />
        <dc:title></dc:title>
      </cc:Work>
    </rdf:RDF>
  </metadata>
  <defs
     id="defs8" />
  <sodipodi:namedview
     pagecolor="#ffffff"
     bordercolor="#666666"
     borderopacity="1"
     objecttolerance="10"
     gridtolerance="10"
     guidetolerance="10"
     inkscape:pageopacity="0"
     inkscape:pageshadow="2"
     inkscape:window-width="1219"
     inkscape:window-height="775"
     id="namedview6"
     showgrid="false"
     inkscape:zoom="8.4285714"
     inkscape:cx="18.001198"
     inkscape:cy="10.144592"
     inkscape:window-x="666"
     inkscape:window-y="28"
     inkscape:window-maximized="0"
     inkscape:current-layer="svg2"
     fit-margin-top="0"
     fit-margin-left="0"
     fit-margin-right="0"
     fit-margin-bottom="0" />
  <path
     d="m 20.319901,11.57426 0,4.5893 q 0,1.71737 -1.21948,2.93686 -1.21948,1.21948 -2.93686,1.21948 l -12.007217,0 q -1.717378,0 -2.936861,-1.21948 Q 0,17.88093 0,16.16356 L 0,4.15634 Q 0,2.43896 1.219483,1.21948 2.438966,0 4.156344,0 l 12.007217,0 q 0.9092,0 1.68851,0.36079 0.21648,0.10102 0.25977,0.33193 0.0433,0.24534 -0.12988,0.41852 l -0.70716,0.70716 q -0.14431,0.14431 -0.33193,0.14431 -0.0433,0 -0.12988,-0.0289 -0.33193,-0.0866 -0.64943,-0.0866 l -12.007217,0 q -0.952496,0 -1.630788,0.67829 -0.678292,0.67829 -0.678292,1.63079 l 0,12.00722 q 0,0.95249 0.678292,1.63078 0.678292,0.6783 1.630788,0.6783 l 12.007217,0 q 0.95249,0 1.63079,-0.6783 0.67829,-0.67829 0.67829,-1.63078 l 0,-3.66567 q 0,-0.18761 0.12988,-0.3175 l 0.92364,-0.92363 q 0.14431,-0.14432 0.33193,-0.14432 0.0866,0 0.17318,0.0433 0.28863,0.11545 0.28863,0.41852 z m 3.33374,-7.05713 -11.747447,11.74745 q -0.346362,0.34636 -0.82261,0.34636 -0.476248,0 -0.82261,-0.34636 L 4.055322,10.05893 Q 3.70896,9.71256 3.70896,9.23632 q 0,-0.47625 0.346362,-0.82261 l 1.587492,-1.5875 q 0.346362,-0.34636 0.82261,-0.34636 0.476248,0 0.82261,0.34636 l 3.79555,3.79555 9.337337,-9.33734 q 0.34637,-0.34636 0.82261,-0.34636 0.47625,0 0.82261,0.34636 l 1.5875,1.58749 q 0.34636,0.34637 0.34636,0.82261 0,0.47625 -0.34636,0.82261 z"
     id="path4"
     inkscape:connector-curvature="0" />
  <path
     style="fill:#268bd2;fill-opacity:1;stroke:none"
     d="M 3.1319653,20.113348 C 1.6180197,19.746492 0.39415071,18.380027 0.12888525,16.76037 -0.02688776,15.809252 -0.01646083,4.5296199 0.14108906,3.5585475 0.3767716,2.1058978 1.3812964,0.84926658 2.701766,0.3552156 3.3448877,0.11459292 3.5237039,0.10956905 10.318909,0.14121112 c 5.919838,0.0275659 7.011474,0.059103 7.313041,0.21127214 0.488901,0.24669658 0.498829,0.50619265 0.03858,1.00839514 L 17.277469,1.7897657 10.317405,1.8121982 3.357341,1.8346308 2.8519375,2.190563 C 2.5739656,2.3863257 2.2223079,2.7817994 2.0704761,3.0693933 l -0.2760578,0.522898 0,6.5105737 c 0,5.608008 0.025457,6.5715 0.1836287,6.950059 0.2449613,0.586275 0.606425,0.961875 1.1807781,1.226956 0.443174,0.204538 0.9063562,0.219032 6.9999999,0.219032 6.093644,0 6.556827,-0.01449 7,-0.219032 0.574354,-0.265081 0.935817,-0.640681 1.180778,-1.226956 0.142426,-0.340873 0.183629,-0.91378 0.183629,-2.553281 l 0,-2.113796 0.626613,-0.618828 c 0.344636,-0.340356 0.661161,-0.618829 0.703389,-0.618829 0.04223,0 0.160676,0.0839 0.263218,0.186441 0.156582,0.156581 0.186331,0.550858 0.185754,2.461864 -3.56e-4,1.251483 -0.05143,2.585226 -0.113442,2.963875 -0.276144,1.686079 -1.562238,3.056555 -3.184084,3.392992 -0.936817,0.194333 -13.0497859,0.159395 -13.8727147,-0.04001 l 0,0 z"
     id="path3926"
     inkscape:connector-curvature="0" />
</svg>
