<?xml version="1.0" encoding="UTF-8" standalone="no"?>
<!-- Generator: IcoMoon.io -->

<svg
   xmlns:dc="http://purl.org/dc/elements/1.1/"
   xmlns:cc="http://creativecommons.org/ns#"
   xmlns:rdf="http://www.w3.org/1999/02/22-rdf-syntax-ns#"
   xmlns:svg="http://www.w3.org/2000/svg"
   xmlns="http://www.w3.org/2000/svg"
   xmlns:sodipodi="http://sodipodi.sourceforge.net/DTD/sodipodi-0.dtd"
   xmlns:inkscape="http://www.inkscape.org/namespaces/inkscape"
   width="23.999996"
   height="22"
   viewBox="0 0 23.999996 22"
   id="svg2"
   version="1.1"
   inkscape:version="0.48.3.1 r9886"
   sodipodi:docname="checkbox-off.svg"
   style="fill:#93a1a1">
  <metadata
     id="metadata10">
    <rdf:RDF>
      <cc:Work
         rdf:about="">
        <dc:format>image/svg+xml</dc:format>
        <dc:type
           rdf:resource="http://purl.org/dc/dcmitype/StillImage" />
        <dc:title></dc:title>
      </cc:Work>
    </rdf:RDF>
  </metadata>
  <defs
     id="defs8" />
  <sodipodi:namedview
     pagecolor="#ffffff"
     bordercolor="#666666"
     borderopacity="1"
     objecttolerance="10"
     gridtolerance="10"
     guidetolerance="10"
     inkscape:pageopacity="0"
     inkscape:pageshadow="2"
     inkscape:window-width="946"
     inkscape:window-height="688"
     id="namedview6"
     showgrid="false"
     fit-margin-left="0"
     fit-margin-top="1"
     fit-margin-bottom="1"
     fit-margin-right="4"
     inkscape:zoom="8.4285714"
     inkscape:cx="21.033119"
     inkscape:cy="19.76856"
     inkscape:window-x="860"
     inkscape:window-y="148"
     inkscape:window-maximized="0"
     inkscape:current-layer="svg2" />
  <path
     d="m 15.909096,2.81818 -11.81819,0 q -0.9375,0 -1.60511,0.66762 -0.66761,0.66761 -0.66761,1.60511 l 0,11.81818 q 0,0.9375 0.66761,1.60511 0.66761,0.66762 1.60511,0.66762 l 11.81819,0 q 0.9375,0 1.60511,-0.66762 0.66761,-0.66761 0.66761,-1.60511 l 0,-11.81818 q 0,-0.9375 -0.66761,-1.60511 -0.66761,-0.66762 -1.60511,-0.66762 z m 4.0909,2.27273 0,11.81818 q 0,1.69034 -1.20028,2.89063 Q 17.599436,21 15.909096,21 L 4.090906,21 Q 2.400566,21 1.200285,19.79972 0,18.59943 0,16.90909 L 0,5.09091 Q 0,3.40057 1.200285,2.20028 2.400566,1 4.090906,1 l 11.81819,0 q 1.69034,0 2.89062,1.20028 1.20028,1.20029 1.20028,2.89063 z"
     id="path4"
     inkscape:connector-curvature="0" />
  <path
     style="fill:#268bd2;fill-opacity:1;stroke:none"
     d="M 3.1812764,20.824383 C 2.4860606,20.660591 1.8137164,20.272518 1.2520309,19.710833 0.59518143,19.053983 0.28760538,18.445167 0.13382916,17.497463 -0.02252709,16.533859 -0.03030059,5.4838882 0.12471188,4.5373511 0.27680492,3.6086407 0.63215522,2.9087641 1.2810783,2.2598409 2.5142683,1.0266509 2.7259581,0.9987611 10.50939,1.0440244 l 6.288136,0.036568 0.652542,0.3073074 c 0.847564,0.3991504 1.369368,0.8488666 1.841738,1.5873004 0.65042,1.0167699 0.669384,1.2712283 0.628106,8.4274261 -0.0369,6.396766 -0.04269,6.536362 -0.294017,7.080164 -0.531947,1.151011 -1.677849,2.086306 -2.86387,2.337515 -0.76157,0.161307 -12.8979182,0.164951 -13.5807486,0.0041 l 0,-3e-6 z M 16.797526,19.076612 c 0.44649,-0.194666 0.969968,-0.684802 1.226694,-1.148562 0.175142,-0.316382 0.200995,-1.040166 0.232674,-6.513727 0.02374,-4.1017082 -0.0072,-6.3576856 -0.09275,-6.7564503 C 18.006062,3.920753 17.584773,3.3490513 16.967683,3.0342354 16.512049,2.8017883 16.315274,2.7960569 9.8767816,2.8277034 L 3.2545189,2.8602531 2.8373575,3.1461644 C 2.6079187,3.3034155 2.2915359,3.6198427 2.1342848,3.8493358 l -0.2859113,0.4172603 0,6.7207469 0,6.720748 0.3257651,0.492264 c 0.3466362,0.523802 0.8371733,0.84277 1.513218,0.983956 0.2283898,0.0477 3.1915254,0.07789 6.5847454,0.0671 4.785826,-0.01522 6.249319,-0.05442 6.525424,-0.174802 l 0,0 z"
     id="path3040"
     inkscape:connector-curvature="0" />
</svg>
