<?xml version="1.0" encoding="UTF-8" standalone="no"?>
<!-- Generator: IcoMoon.io -->

<svg
   xmlns:dc="http://purl.org/dc/elements/1.1/"
   xmlns:cc="http://creativecommons.org/ns#"
   xmlns:rdf="http://www.w3.org/1999/02/22-rdf-syntax-ns#"
   xmlns:svg="http://www.w3.org/2000/svg"
   xmlns="http://www.w3.org/2000/svg"
   xmlns:sodipodi="http://sodipodi.sourceforge.net/DTD/sodipodi-0.dtd"
   xmlns:inkscape="http://www.inkscape.org/namespaces/inkscape"
   width="34"
   height="34"
   viewBox="0 0 34 34"
   id="svg2"
   version="1.1"
   inkscape:version="0.48.3.1 r9886"
   sodipodi:docname="close-window.svg"
   style="fill:#93a1a1">
  <metadata
     id="metadata10">
    <rdf:RDF>
      <cc:Work
         rdf:about="">
        <dc:format>image/svg+xml</dc:format>
        <dc:type
           rdf:resource="http://purl.org/dc/dcmitype/StillImage" />
        <dc:title />
      </cc:Work>
    </rdf:RDF>
  </metadata>
  <defs
     id="defs8" />
  <sodipodi:namedview
     pagecolor="#ffffff"
     bordercolor="#666666"
     borderopacity="1"
     objecttolerance="10"
     gridtolerance="10"
     guidetolerance="10"
     inkscape:pageopacity="0"
     inkscape:pageshadow="2"
     inkscape:window-width="1025"
     inkscape:window-height="692"
     id="namedview6"
     showgrid="false"
     fit-margin-top="0"
     fit-margin-left="2"
     fit-margin-right="0"
     fit-margin-bottom="2"
     inkscape:zoom="7.375"
     inkscape:cx="2.56081"
     inkscape:cy="12.355913"
     inkscape:window-x="0"
     inkscape:window-y="28"
     inkscape:window-maximized="0"
     inkscape:current-layer="svg2" />
  <path
     sodipodi:type="arc"
     style="opacity:1;fill:#073642;fill-opacity:1;stroke:none"
     id="path3857"
     sodipodi:cx="20.271187"
     sodipodi:cy="18.339243"
     sodipodi:rx="17.423729"
     sodipodi:ry="17.423729"
     d="m 37.694916,18.339243 a 17.423729,17.423729 0 1 1 -34.8474581,0 17.423729,17.423729 0 1 1 34.8474581,0 z"
     transform="matrix(0.91828793,0,0,0.91828793,-0.61478621,-0.84070565)" />
  <path
     d="m 21.293841,15.970077 8.589602,8.592681 c 0.595004,0.594988 0.58884,1.563562 -0.01395,2.164717 l -1.090029,1.090021 c -0.602673,0.602683 -1.571258,0.608836 -2.16469,0.01394 L 18.025236,19.240182 9.43716,27.83135 C 8.8421819,28.426348 7.8735993,28.420195 7.2709327,27.81749 L 6.1824435,26.727471 C 5.5797759,26.124791 5.5736254,25.157746 6.1686065,24.562758 L 14.756681,15.970077 6.1747571,7.3866032 C 5.5797759,6.7916201 5.5859263,5.821501 6.1870557,5.2203633 L 7.2755604,4.1303284 C 7.8782272,3.5276543 8.8483472,3.5215118 9.441791,4.1149555 l 8.583465,8.5865535 8.583479,-8.5865537 c 0.593429,-0.5934434 1.563566,-0.5873008 2.164692,0.015378 l 1.090047,1.0900346 c 0.602663,0.6026759 0.608809,1.5712568 0.01395,2.166239 l -8.583549,8.5834711 z"
     id="path4"
     inkscape:connector-curvature="0"
     style="fill:#dc322f;fill-opacity:1" />
</svg>
