<?xml version="1.0" encoding="UTF-8" standalone="no"?>
<!-- Generator: IcoMoon.io -->

<svg
   xmlns:dc="http://purl.org/dc/elements/1.1/"
   xmlns:cc="http://creativecommons.org/ns#"
   xmlns:rdf="http://www.w3.org/1999/02/22-rdf-syntax-ns#"
   xmlns:svg="http://www.w3.org/2000/svg"
   xmlns="http://www.w3.org/2000/svg"
   xmlns:sodipodi="http://sodipodi.sourceforge.net/DTD/sodipodi-0.dtd"
   xmlns:inkscape="http://www.inkscape.org/namespaces/inkscape"
   width="16"
   height="16"
   viewBox="0 0 16 16"
   id="svg2"
   version="1.1"
   inkscape:version="0.48.3.1 r9886"
   sodipodi:docname="player-stopped.svg"
   style="fill:#93a1a1">
  <metadata
     id="metadata10">
    <rdf:RDF>
      <cc:Work
         rdf:about="">
        <dc:format>image/svg+xml</dc:format>
        <dc:type
           rdf:resource="http://purl.org/dc/dcmitype/StillImage" />
        <dc:title />
      </cc:Work>
    </rdf:RDF>
  </metadata>
  <defs
     id="defs8" />
  <sodipodi:namedview
     pagecolor="#ffffff"
     bordercolor="#666666"
     borderopacity="1"
     objecttolerance="10"
     gridtolerance="10"
     guidetolerance="10"
     inkscape:pageopacity="0"
     inkscape:pageshadow="2"
     inkscape:window-width="883"
     inkscape:window-height="823"
     id="namedview6"
     showgrid="false"
     inkscape:zoom="20.85965"
     inkscape:cx="5.3585518"
     inkscape:cy="4.06205"
     inkscape:window-x="928"
     inkscape:window-y="79"
     inkscape:window-maximized="0"
     inkscape:current-layer="svg2"
     fit-margin-top="0"
     fit-margin-left="0"
     fit-margin-right="0"
     fit-margin-bottom="0" />
  <path
     d="m 2.40032,9.0357 0,6.92859 c 0.16334,0.0234 0.33022,0.0357 0.5,0.0357 l 0.5,0 0,-7.00003 -0.5,0 c -0.16978,0 -0.33666,0.0123 -0.5,0.0357 z m 10.2,-0.0357 0,7 0.5,0 c 0.16981,0 0.33665,-0.0124 0.5,-0.0357 l 0,-6.92856 c -0.16335,-0.0234 -0.33019,-0.0357 -0.5,-0.0357 l -0.5,0 z M 16,8 C 16,3.58172 12.41828,0 8,0 3.58172,0 0,3.58172 0,8 0,8.95965 0.16919,9.87978 0.479,10.7324 0.17475,11.25119 0,11.85509 0,12.5 c 0,1.39615 0.81759,2.60122 2,3.163 L 2,9.337 C 1.68553,9.4864 1.39719,9.68169 1.14284,9.91362 1.04924,9.45704 1,8.98426 1,8.49998 c 0,-3.866 3.134,-7 7,-7 3.866,0 7,3.134 7,7 C 15,8.98426 14.9508,9.45704 14.85715,9.9136 14.60278,9.68167 14.3145,9.48638 14,9.33698 l 0,6.326 c 1.18244,-0.56178 2,-1.76685 2,-3.163 0,-0.64491 -0.17475,-1.24881 -0.479,-1.7676 C 15.83081,9.87976 16,8.95963 16,7.99998 z"
     id="path4"
     inkscape:connector-curvature="0"
     sodipodi:nodetypes="ccsccsccccsccscccsscscccssscccsccc" />
  <rect
     style="fill:#dc322f;fill-opacity:1;stroke:none"
     id="rect3008"
     width="7.8000002"
     height="7.8000002"
     x="4.079"
     y="6.1865435"
     rx="0"
     ry="0" />
</svg>
