<?xml version="1.0" encoding="UTF-8" standalone="no"?>
<!-- Generator: IcoMoon.io -->

<svg
   xmlns:dc="http://purl.org/dc/elements/1.1/"
   xmlns:cc="http://creativecommons.org/ns#"
   xmlns:rdf="http://www.w3.org/1999/02/22-rdf-syntax-ns#"
   xmlns:svg="http://www.w3.org/2000/svg"
   xmlns="http://www.w3.org/2000/svg"
   xmlns:sodipodi="http://sodipodi.sourceforge.net/DTD/sodipodi-0.dtd"
   xmlns:inkscape="http://www.inkscape.org/namespaces/inkscape"
   width="24"
   height="24"
   viewBox="0 0 24 24"
   id="svg2"
   version="1.1"
   inkscape:version="0.48.3.1 r9886"
   sodipodi:docname="radio-checked.svg"
   style="fill:#93a1a1">
  <metadata
     id="metadata10">
    <rdf:RDF>
      <cc:Work
         rdf:about="">
        <dc:format>image/svg+xml</dc:format>
        <dc:type
           rdf:resource="http://purl.org/dc/dcmitype/StillImage" />
        <dc:title></dc:title>
      </cc:Work>
    </rdf:RDF>
  </metadata>
  <defs
     id="defs8" />
  <sodipodi:namedview
     pagecolor="#ffffff"
     bordercolor="#666666"
     borderopacity="1"
     objecttolerance="10"
     gridtolerance="10"
     guidetolerance="10"
     inkscape:pageopacity="0"
     inkscape:pageshadow="2"
     inkscape:window-width="882"
     inkscape:window-height="710"
     id="namedview6"
     showgrid="false"
     fit-margin-left="2"
     fit-margin-top="2"
     fit-margin-bottom="2"
     fit-margin-right="2"
     inkscape:zoom="7.375"
     inkscape:cx="22.961075"
     inkscape:cy="8.288617"
     inkscape:window-x="897"
     inkscape:window-y="180"
     inkscape:window-maximized="0"
     inkscape:current-layer="svg2" />
  <path
     d="M 12,2 C 6.47715,2 2,6.47715 2,12 2,17.52285 6.47715,22 12,22 17.52285,22 22,17.52285 22,12 22,6.47715 17.52285,2 12,2 z m 0,17.5 C 7.85785,19.5 4.5,16.14215 4.5,12 4.5,7.85785 7.85785,4.5 12,4.5 c 4.14215,0 7.5,3.35785 7.5,7.5 0,4.14215 -3.35785,7.5 -7.5,7.5 z M 8.25,12 a 3.75,3.75 0 0 0 7.5,0 3.75,3.75 0 1 0 -7.5,0 z"
     id="path4"
     inkscape:connector-curvature="0" />
</svg>
