<?xml version="1.0" encoding="UTF-8" standalone="no"?>
<!-- Generator: IcoMoon.io -->

<svg
   xmlns:dc="http://purl.org/dc/elements/1.1/"
   xmlns:cc="http://creativecommons.org/ns#"
   xmlns:rdf="http://www.w3.org/1999/02/22-rdf-syntax-ns#"
   xmlns:svg="http://www.w3.org/2000/svg"
   xmlns="http://www.w3.org/2000/svg"
   xmlns:sodipodi="http://sodipodi.sourceforge.net/DTD/sodipodi-0.dtd"
   xmlns:inkscape="http://www.inkscape.org/namespaces/inkscape"
   width="238.93333"
   height="256"
   viewBox="0 0 238.93333 256"
   id="svg2"
   version="1.1"
   inkscape:version="0.48.3.1 r9886"
   sodipodi:docname="trashcan.svg"
   style="fill:#93a1a1">
  <metadata
     id="metadata10">
    <rdf:RDF>
      <cc:Work
         rdf:about="">
        <dc:format>image/svg+xml</dc:format>
        <dc:type
           rdf:resource="http://purl.org/dc/dcmitype/StillImage" />
        <dc:title></dc:title>
      </cc:Work>
    </rdf:RDF>
  </metadata>
  <defs
     id="defs8" />
  <sodipodi:namedview
     pagecolor="#ffffff"
     bordercolor="#666666"
     borderopacity="1"
     objecttolerance="10"
     gridtolerance="10"
     guidetolerance="10"
     inkscape:pageopacity="0"
     inkscape:pageshadow="2"
     inkscape:window-width="1448"
     inkscape:window-height="751"
     id="namedview6"
     showgrid="false"
     fit-margin-top="0"
     fit-margin-left="0"
     fit-margin-right="0"
     fit-margin-bottom="0"
     inkscape:zoom="0.921875"
     inkscape:cx="80.106907"
     inkscape:cy="261.5457"
     inkscape:window-x="217"
     inkscape:window-y="197"
     inkscape:window-maximized="0"
     inkscape:current-layer="svg2" />
  <path
     d="m 224.71093,39.8224 -50.84426,0 0,-20.26667 C 173.86667,6.98347 169.01707,0 156.44427,0 L 82.48907,0 C 69.9168,0 65.066667,6.98293 65.066667,19.55573 l 0,20.26667 -50.844267,0 C 6.371733,39.8224 0,46.1936 0,54.04427 c 0,7.85066 0.355733,14.2224 0.355733,14.2224 l 22.4,0 0,164.9776 C 22.755733,245.81653 32.938667,256 45.511467,256 l 147.910933,0 c 12.57227,0 22.75573,-10.18293 22.75573,-22.75573 l -5.3e-4,-164.9776 22.4,0 c 0,0 0.35573,-6.37174 0.35573,-14.2224 0,-7.85067 -6.37173,-14.22187 -14.2224,-14.22187 z m -73.9552,0 -62.57813,0 0,-6.32907 c 0,-6.94026 5.57547,-12.51573 12.51573,-12.51573 l 37.54667,0 c 6.94027,0 12.51573,5.57547 12.51573,12.51573 z m -71.11146,29.1552 0,158.93333 -22.755203,0 0,-158.93333 z m 51.2,0 0,158.93333 -22.7552,0 0,-158.93333 z m 51.2,0 0,158.93333 c 0.0977,0.13641 -22.7552,0 -22.7552,0 l 0,-158.93333 z"
     id="path4"
     inkscape:connector-curvature="0"
     sodipodi:nodetypes="scsssscssccssssccssccsssscccccccccccccccc" />
</svg>
