<?xml version="1.0" encoding="utf-8"?>
<!-- Generator: Adobe Illustrator 15.0.0, SVG Export Plug-In . SVG Version: 6.00 Build 0)  -->
<!DOCTYPE svg PUBLIC "-//W3C//DTD SVG 1.1//EN" "http://www.w3.org/Graphics/SVG/1.1/DTD/svg11.dtd">
<svg version="1.1"
	 id="svg2408" xmlns:inkscape="http://www.inkscape.org/namespaces/inkscape" sodipodi:docname="button (another copy).svg" inkscape:version="0.48.3.1 r9886" xmlns:sodipodi="http://sodipodi.sourceforge.net/DTD/sodipodi-0.dtd" xmlns:svg="http://www.w3.org/2000/svg" xmlns:rdf="http://www.w3.org/1999/02/22-rdf-syntax-ns#" xmlns:cc="http://creativecommons.org/ns#" xmlns:dc="http://purl.org/dc/elements/1.1/"
	 xmlns="http://www.w3.org/2000/svg" xmlns:xlink="http://www.w3.org/1999/xlink" x="0px" y="0px" width="84px" height="28px"
	 viewBox="0 0 84 28" enable-background="new 0 0 84 28" xml:space="preserve">
<g>
	<g>
		<rect x="3" y="3" fill="#171717" width="78" height="22"/>
		<g opacity="0.38">
			<path fill="#171717" d="M80.5,3C80.775,3,81,3.225,81,3.5v21c0,0.275-0.225,0.5-0.5,0.5h-77C3.224,25,3,24.775,3,24.5v-21
				C3,3.225,3.224,3,3.5,3H80.5 M80.5,2h-77C2.673,2,2,2.673,2,3.5v21C2,25.327,2.673,26,3.5,26h77c0.827,0,1.5-0.673,1.5-1.5v-21
				C82,2.673,81.327,2,80.5,2L80.5,2z"/>
		</g>
	</g>
</g>
</svg>
