<?xml version="1.0" encoding="utf-8"?>
<!-- Generator: Adobe Illustrator 15.0.0, SVG Export Plug-In . SVG Version: 6.00 Build 0)  -->
<!DOCTYPE svg PUBLIC "-//W3C//DTD SVG 1.1//EN" "http://www.w3.org/Graphics/SVG/1.1/DTD/svg11.dtd">
<svg version="1.1"
	 id="svg2408" inkscape:version="0.48.3.1 r9886" sodipodi:docname="button (another copy).svg" xmlns:inkscape="http://www.inkscape.org/namespaces/inkscape" xmlns:sodipodi="http://sodipodi.sourceforge.net/DTD/sodipodi-0.dtd" xmlns:rdf="http://www.w3.org/1999/02/22-rdf-syntax-ns#" xmlns:svg="http://www.w3.org/2000/svg" xmlns:cc="http://creativecommons.org/ns#" xmlns:dc="http://purl.org/dc/elements/1.1/"
	 xmlns="http://www.w3.org/2000/svg" xmlns:xlink="http://www.w3.org/1999/xlink" x="0px" y="0px" width="84px" height="28px"
	 viewBox="0 0 84 28" enable-background="new 0 0 84 28" xml:space="preserve">
<rect x="3" y="2.917" width="78.5" height="23.302"/>
<g>
	<g>
		<g>
			<path fill="#6D6D6D" d="M3,24c0,0.276,0.224,0.5,0.5,0.5h77c0.276,0,0.5-0.224,0.5-0.5V3c0-0.276-0.224-0.5-0.5-0.5h-77
				C3.224,2.5,3,2.724,3,3V24z"/>
		</g>
	</g>
	<g>
		<path fill="#505151" d="M3,25c0,0.276,0.224,0.5,0.5,0.5h77c0.276,0,0.5-0.224,0.5-0.5V4c0-0.276-0.224-0.5-0.5-0.5h-77
			C3.224,3.5,3,3.724,3,4V25z"/>
	</g>
</g>
</svg>
