<?xml version="1.0" encoding="UTF-8" standalone="no"?>
<!-- Created with Inkscape (http://www.inkscape.org/) -->

<svg
   xmlns:dc="http://purl.org/dc/elements/1.1/"
   xmlns:cc="http://creativecommons.org/ns#"
   xmlns:rdf="http://www.w3.org/1999/02/22-rdf-syntax-ns#"
   xmlns:svg="http://www.w3.org/2000/svg"
   xmlns="http://www.w3.org/2000/svg"
   xmlns:xlink="http://www.w3.org/1999/xlink"
   xmlns:sodipodi="http://sodipodi.sourceforge.net/DTD/sodipodi-0.dtd"
   xmlns:inkscape="http://www.inkscape.org/namespaces/inkscape"
   width="36"
   height="18"
   id="svg4352"
   version="1.1"
   inkscape:version="0.91 r13725"
   sodipodi:docname="off.svg">
  <defs
     id="defs4354">
    <linearGradient
       id="linearGradient3921-5-9">
      <stop
         offset="0"
         style="stop-color:#bebebe;stop-opacity:1;"
         id="stop3923-6-1" />
      <stop
         offset="1"
         style="stop-color:#ffffff;stop-opacity:1;"
         id="stop3925-4-6" />
    </linearGradient>
    <clipPath
       clipPathUnits="userSpaceOnUse"
       id="clipPath5096">
      <path
         d="m 90,52 13,0 0,8 -13,0 0,-8 z"
         id="path5098"
         inkscape:connector-curvature="0" />
    </clipPath>
    <clipPath
       clipPathUnits="userSpaceOnUse"
       id="clipPath5090-6">
      <path
         d="m 94.83136,54.58381 -2.12784,2.12784 c -0.3817,0.3817 -1.01717,0.38401 -1.40769,-0.0065 -0.39325,-0.39324 -0.39344,-1.02077 -0.0065,-1.40769 l 2.84147,-2.84147 c 0.3817,-0.3817 1.01717,-0.384 1.40769,0.0065 0.02866,0.02866 0.05524,0.05857 0.07973,0.08954 0.03068,0.0242 0.06027,0.05046 0.08859,0.07878 l 5.66341,5.66336 c 0.3816,0.38165 0.3872,1.02044 -0.003,1.41096 -0.3932,0.39325 -1.0222,0.39198 -1.41096,0.0033 l -5.12458,-5.12458 z"
         id="path5092-2"
         inkscape:connector-curvature="0"
         style="clip-rule:evenodd" />
    </clipPath>
    <clipPath
       clipPathUnits="userSpaceOnUse"
       id="clipPath5096-9">
      <path
         d="m 90,52 13,0 0,8 -13,0 0,-8 z"
         id="path5098-1"
         inkscape:connector-curvature="0" />
    </clipPath>
    <linearGradient
       id="linearGradient3955">
      <stop
         id="stop3957"
         offset="0"
         style="stop-color:#ffffff;stop-opacity:0;" />
      <stop
         id="stop3959"
         offset="1"
         style="stop-color:#ffffff;stop-opacity:1;" />
    </linearGradient>
    <linearGradient
       id="linearGradient3773">
      <stop
         style="stop-color:#7ec83c;stop-opacity:1;"
         offset="0"
         id="stop3775" />
      <stop
         style="stop-color:#93d15b;stop-opacity:1;"
         offset="1"
         id="stop3777" />
    </linearGradient>
    <linearGradient
       inkscape:collect="always"
       xlink:href="#linearGradient3773"
       id="linearGradient3948"
       gradientUnits="userSpaceOnUse"
       gradientTransform="matrix(0.91304348,0,0,0.91304348,-22.956522,277)"
       x1="25"
       y1="23"
       x2="25"
       y2="0" />
    <linearGradient
       inkscape:collect="always"
       xlink:href="#linearGradient3773"
       id="linearGradient3950"
       gradientUnits="userSpaceOnUse"
       gradientTransform="matrix(-1,0,0,1,24,0)"
       x1="25"
       y1="23"
       x2="25"
       y2="0" />
  </defs>
  <sodipodi:namedview
     id="base"
     pagecolor="#909090"
     bordercolor="#666666"
     borderopacity="1.0"
     inkscape:pageopacity="0"
     inkscape:pageshadow="2"
     inkscape:zoom="6.6684097"
     inkscape:cx="-12.344924"
     inkscape:cy="19.956031"
     inkscape:current-layer="layer1"
     showgrid="true"
     inkscape:document-units="px"
     inkscape:grid-bbox="true"
     inkscape:window-width="1600"
     inkscape:window-height="852"
     inkscape:window-x="0"
     inkscape:window-y="26"
     inkscape:window-maximized="1"
     fit-margin-bottom="0"
     fit-margin-top="0"
     fit-margin-left="0"
     fit-margin-right="0"
     borderlayer="true"
     inkscape:showpageshadow="false"
     inkscape:snap-bbox="true"
     inkscape:bbox-nodes="true"
     inkscape:object-nodes="true"
     inkscape:snap-smooth-nodes="true"
     inkscape:snap-nodes="false">
    <inkscape:grid
       type="xygrid"
       id="grid4388"
       empspacing="4"
       visible="true"
       enabled="true"
       snapvisiblegridlinesonly="true"
       originx="0px"
       originy="0px" />
  </sodipodi:namedview>
  <metadata
     id="metadata4357">
    <rdf:RDF>
      <cc:Work
         rdf:about="">
        <dc:format>image/svg+xml</dc:format>
        <dc:type
           rdf:resource="http://purl.org/dc/dcmitype/StillImage" />
        <dc:title></dc:title>
      </cc:Work>
    </rdf:RDF>
  </metadata>
  <g
     id="layer1"
     inkscape:label="Layer 1"
     inkscape:groupmode="layer"
     transform="translate(-1.4773757,-45.294264)">
    <rect
       rx="2"
       ry="2"
       y="45.294266"
       x="1.4773757"
       height="17.999994"
       width="36"
       id="rect3003"
       style="opacity:1;fill:#333333;fill-opacity:1;stroke:none" />
    <path
       id="rect4146"
       d="m 3.4773757,45.294264 c -1.108,0 -2,0.892 -2,2 l 0,13.999996 c 0,1.108 0.892,2 2,2 l 32.0000003,4e-6 c 1.108,0 2,-0.892 2,-2 l 0,-13.999996 c 0,-1.108 -0.892,-2 -2,-2 z m 0,1 32.0000003,4e-6 c 0.554,0 1,0.446 1,1 l 0,13.999996 c 0,0.554 -0.446,1 -1,1 l -32.0000003,-4e-6 c -0.554,0 -1,-0.446 -1,-1 l 0,-13.999996 c 0,-0.554 0.446,-1 1,-1 z"
       style="opacity:0.22000002;fill:#000000;fill-opacity:1;stroke:none"
       inkscape:connector-curvature="0"
       sodipodi:nodetypes="ssssssssssssssssss" />
    <rect
       rx="2"
       ry="2"
       y="45.294266"
       x="1.4773757"
       height="17.999994"
       width="18"
       id="rect3003-3"
       style="opacity:1;fill:#525252;fill-opacity:1;stroke:none" />
    <path
       id="rect4146-5"
       d="m 3.4773754,45.294264 c -1.108,0 -2,0.892 -2,2 l 3e-7,13.999996 c 0,1.108 0.892,2 2,2 l 14.0000003,4e-6 c 1.108,0 2,-0.892 2,-2 l -1e-6,-13.999996 c 0,-1.108 -0.892,-2 -2,-2 z m 0,1 13.9999996,4e-6 c 0.554,0 1,0.446 1,1 l 1e-6,13.999996 c 0,0.554 -0.446,1 -1,1 l -14.0000003,-4e-6 c -0.554,0 -1,-0.446 -1,-1 l -3e-7,-13.999996 c 0,-0.554 0.446,-1 1,-1 z"
       style="opacity:0.3;fill:#000000;fill-opacity:1;stroke:none"
       inkscape:connector-curvature="0"
       sodipodi:nodetypes="ssssssssssssssssss" />
    <path
       style="color:#000000;font-style:normal;font-variant:normal;font-weight:normal;font-stretch:normal;font-size:medium;line-height:normal;font-family:sans-serif;text-indent:0;text-align:start;text-decoration:none;text-decoration-line:none;text-decoration-style:solid;text-decoration-color:#000000;letter-spacing:normal;word-spacing:normal;text-transform:none;direction:ltr;block-progression:tb;writing-mode:lr-tb;baseline-shift:baseline;text-anchor:start;white-space:normal;clip-rule:nonzero;display:inline;overflow:visible;visibility:visible;opacity:1;isolation:auto;mix-blend-mode:normal;color-interpolation:sRGB;color-interpolation-filters:linearRGB;solid-color:#000000;solid-opacity:1;fill:#eeeeee;fill-opacity:1;fill-rule:evenodd;stroke:none;stroke-width:2;stroke-linecap:square;stroke-linejoin:miter;stroke-miterlimit:4;stroke-dasharray:none;stroke-dashoffset:0;stroke-opacity:1;color-rendering:auto;image-rendering:auto;shape-rendering:auto;text-rendering:auto;enable-background:accumulate"
       d="m 25.477376,51.294264 0,1.41406 1.585938,1.58594 -1.585938,1.58594 0,1.41406 1.414062,0 1.585938,-1.58594 1.585938,1.58594 1.414062,0 0,-1.41406 -1.585938,-1.58594 1.585938,-1.58594 0,-1.41406 -1.414062,0 -1.585938,1.58594 -1.585938,-1.58594 z"
       id="path4135"
       inkscape:connector-curvature="0"
       sodipodi:nodetypes="ccccccccccccccccc" />
  </g>
</svg>
