<?xml version="1.0" encoding="UTF-8" standalone="no"?>
<svg
   xmlns:dc="http://purl.org/dc/elements/1.1/"
   xmlns:cc="http://creativecommons.org/ns#"
   xmlns:rdf="http://www.w3.org/1999/02/22-rdf-syntax-ns#"
   xmlns:svg="http://www.w3.org/2000/svg"
   xmlns="http://www.w3.org/2000/svg"
   width="19"
   height="19"
   viewBox="0 0 5.0270835 5.0270835"
   version="1.1"
   id="svg8">
  <defs
     id="defs2" />
  <metadata
     id="metadata5">
    <rdf:RDF>
      <cc:Work
         rdf:about="">
        <dc:format>image/svg+xml</dc:format>
        <dc:type
           rdf:resource="http://purl.org/dc/dcmitype/StillImage" />
        <dc:title></dc:title>
      </cc:Work>
    </rdf:RDF>
  </metadata>
  <g
     id="layer1"
     transform="matrix(0.75197893,0,0,0.75197893,0.78851424,-219.09917)">
    <circle
       style="opacity:1;fill:#007dcc;fill-opacity:1;stroke:#009cff;stroke-width:0.35194132;stroke-linecap:round;stroke-linejoin:miter;stroke-miterlimit:4;stroke-dasharray:none;stroke-opacity:1;paint-order:markers fill stroke"
       id="path815"
       cx="2.4699085"
       cy="294.53009"
       r="2.6388247" />
    <path
       style="opacity:1;fill:#ffffff;fill-opacity:1;stroke:none;stroke-width:0.35319731;stroke-linecap:round;stroke-linejoin:miter;stroke-miterlimit:4;stroke-dasharray:none;stroke-opacity:1;paint-order:markers fill stroke"
       d="m 1.3413777,293.12368 c -0.065032,0.006 -0.1320234,0.0364 -0.1863609,0.0908 -0.1087072,0.10873 -0.1236822,0.26944 -0.032985,0.36008 l 0.9554431,0.95543 -0.9554431,0.95545 c -0.090586,0.0906 -0.076203,0.25084 0.032434,0.35953 0.1087126,0.10872 0.2694489,0.12373 0.3600778,0.033 l 0.9554431,-0.95544 0.9554431,0.95544 c 0.090654,0.0906 0.2508417,0.0762 0.3595282,-0.0325 0.1087072,-0.10873 0.1236812,-0.26945 0.032985,-0.36008 L 2.8624995,294.53 3.8173928,293.57456 c 0.090576,-0.0906 0.076204,-0.2514 -0.032434,-0.36008 -0.1087233,-0.10872 -0.268899,-0.12318 -0.359528,-0.0325 l -0.9554428,0.95544 -0.9554431,-0.95544 c -0.045328,-0.0453 -0.1081356,-0.0642 -0.1731672,-0.0583 z"
       id="rect849-9-9" />
  </g>
</svg>
