<?xml version="1.0" encoding="UTF-8" standalone="no"?>
<svg
   xmlns:dc="http://purl.org/dc/elements/1.1/"
   xmlns:cc="http://creativecommons.org/ns#"
   xmlns:rdf="http://www.w3.org/1999/02/22-rdf-syntax-ns#"
   xmlns:svg="http://www.w3.org/2000/svg"
   xmlns="http://www.w3.org/2000/svg"
   width="16"
   height="16"
   viewBox="0 0 4.2333332 4.2333332"
   version="1.1"
   id="svg8">
  <defs
     id="defs2" />
  <metadata
     id="metadata5">
    <rdf:RDF>
      <cc:Work
         rdf:about="">
        <dc:format>image/svg+xml</dc:format>
        <dc:type
           rdf:resource="http://purl.org/dc/dcmitype/StillImage" />
        <dc:title></dc:title>
      </cc:Work>
    </rdf:RDF>
  </metadata>
  <g
     id="layer1"
     transform="matrix(0.26458239,0,0,0.26458239,0,-74.347597)">
    <path
       id="rect815"
       transform="matrix(1.0000035,0,0,1.0000035,0,280.99979)"
       d="M 2.3417969 0 C 1.0444651 0 2.9605947e-16 1.0852485 0 2.4335938 L 0 13.566406 C 0 14.914751 1.0444651 16 2.3417969 16 L 13.658203 16 C 14.955536 16 16 14.914751 16 13.566406 L 16 2.4335938 C 16 1.0852485 14.955536 5.9211895e-16 13.658203 0 L 2.3417969 0 z M 2 2 L 14 2 L 14 14 L 2 14 L 2 2 z "
       style="opacity:1;fill:#00a470;fill-opacity:1;stroke:none;stroke-width:0.36973873;stroke-miterlimit:4;stroke-dasharray:none;stroke-opacity:1;paint-order:stroke fill markers" />
    <g
       id="g855"
       transform="translate(-0.02403434,0.19180125)" />
  </g>
</svg>
