<?xml version="1.0" encoding="UTF-8" standalone="no"?>
<!-- Created with Inkscape (http://www.inkscape.org/) -->

<svg
   xmlns:dc="http://purl.org/dc/elements/1.1/"
   xmlns:cc="http://creativecommons.org/ns#"
   xmlns:rdf="http://www.w3.org/1999/02/22-rdf-syntax-ns#"
   xmlns:svg="http://www.w3.org/2000/svg"
   xmlns="http://www.w3.org/2000/svg"
   xmlns:xlink="http://www.w3.org/1999/xlink"
   version="1.0"
   width="22"
   height="22"
   viewBox="0 0 16 16"
   id="Foreground"
   xml:space="preserve"><metadata
   id="metadata32"><rdf:RDF><cc:Work
       rdf:about=""><dc:format>image/svg+xml</dc:format><dc:type
         rdf:resource="http://purl.org/dc/dcmitype/StillImage" /><dc:title></dc:title></cc:Work></rdf:RDF></metadata><defs
   id="defs2397"><linearGradient
     id="linearGradient3798"><stop
       id="stop3800"
       style="stop-color:#ffffff;stop-opacity:1"
       offset="0" /><stop
       id="stop3802"
       style="stop-color:#ffffff;stop-opacity:0"
       offset="1" /></linearGradient><linearGradient
     id="linearGradient3786"><stop
       id="stop3788"
       style="stop-color:#c4c4c4;stop-opacity:1"
       offset="0" /><stop
       id="stop3790"
       style="stop-color:#e8e8e8;stop-opacity:1"
       offset="1" /></linearGradient><linearGradient
     x1="-4.4485006"
     y1="25.760212"
     x2="-4.5079989"
     y2="8.5561152"
     id="linearGradient3815"
     xlink:href="#linearGradient3786"
     gradientUnits="userSpaceOnUse" /><linearGradient
     x1="-3.5067198"
     y1="5.9266276"
     x2="-2.6926942"
     y2="19.369761"
     id="linearGradient3817"
     xlink:href="#linearGradient3798"
     gradientUnits="userSpaceOnUse" /><linearGradient
     x1="-4.4485006"
     y1="25.760212"
     x2="-4.3917108"
     y2="9.2180691"
     id="linearGradient3944"
     xlink:href="#linearGradient3786"
     gradientUnits="userSpaceOnUse" /></defs>

<g
   transform="matrix(1.0405157,0,0,1.0251195,0.94740757,-1.5276931)"
   id="g3707"
   style="opacity:0.63513513;stroke:#ffffff;stroke-opacity:1"><g
     transform="translate(-1.2664093,2.4710425)"
     id="g3695"
     style="stroke:#ffffff;stroke-opacity:1" /><g
     transform="translate(-1.2664093,2.4710425)"
     id="g3701"
     style="stroke:#ffffff;stroke-opacity:1" /></g><g
   transform="matrix(1.0838509,0,0,1.0355382,32.878751,-0.24399471)"
   id="g3721"
   style="opacity:0.77830188" /><g
   transform="matrix(1.0838509,0,0,1.0355382,31.12875,0.06850529)"
   id="g3715"
   style="opacity:0.77830188" />



<path
   d="m 3.6898732,17.056963 a 9.4683542,9.8164558 0 1 1 -2.6e-6,-0.0072"
   transform="matrix(0.78175731,0,0,0.75533904,12.647093,-5.0113509)"
   id="path3015"
   style="fill:url(#linearGradient3944);fill-opacity:1;stroke:#3a3a3a;stroke-width:0.80732304;stroke-miterlimit:4;stroke-opacity:1;stroke-dasharray:none" /><rect
   width="15.904427"
   height="14.768374"
   rx="0.90882438"
   ry="0.84390718"
   x="0.06786073"
   y="1.1329597"
   id="rect3612"
   style="opacity:0.69458127;fill:#ffffff;fill-opacity:0;stroke:none" /><rect
   width="15.904427"
   height="14.768374"
   rx="0.90882438"
   ry="0.84390718"
   x="0.06786073"
   y="1.1329597"
   id="rect3793"
   style="opacity:0.69458127;fill:#ffffff;fill-opacity:0;stroke:none" /><path
   d="m 3.6898732,17.056963 a 9.4683542,9.8164558 0 1 1 -2.6e-6,-0.0072"
   transform="matrix(0.72971492,0,0,0.70509253,12.386722,-4.1542981)"
   id="path3794"
   style="fill:none;stroke:url(#linearGradient3817);stroke-width:0.80732304;stroke-miterlimit:4;stroke-opacity:1;stroke-dasharray:none" /><path
   d="m 6.1590909,4.2727273 c -0.04282,-0.00962 -0.088537,-0.00264 -0.1136363,0.022727 L 4.5909091,5.7727273 C 4.5407112,5.823454 4.5780466,5.9198005 4.6590909,6 L 6.4318182,7.7727273 4.5909091,9.4772728 c -0.083472,0.07767 -0.1167963,0.1977541 -0.068182,0.25 L 5.931818,11.227273 c 0.048614,0.05225 0.1665281,0.03221 0.25,-0.04546 L 8.0909091,9.4090909 9.9545455,11.25 c 0.081044,0.0802 0.1770745,0.09618 0.2272725,0.04546 l 1.454546,-1.4772731 c 0.0502,-0.050727 0.01286,-0.1470735 -0.06818,-0.2272728 L 9.7954546,7.8181818 11.636364,6.1136364 c 0.08347,-0.07767 0.116796,-0.1977539 0.06818,-0.25 l -1.40909,-1.5 c -0.04861,-0.052246 -0.166528,-0.032215 -0.25,0.045454 L 8.1363637,6.1818182 6.2727273,4.3409091 c -0.040522,-0.0401 -0.070817,-0.058566 -0.1136364,-0.068182 z"
   id="rect3927"
   style="fill:#3a3a3a;fill-opacity:1;stroke:none" /></svg>