<?xml version="1.0" encoding="UTF-8" standalone="no"?>
<!-- Created with Inkscape (http://www.inkscape.org/) -->

<svg
   xmlns:dc="http://purl.org/dc/elements/1.1/"
   xmlns:cc="http://creativecommons.org/ns#"
   xmlns:rdf="http://www.w3.org/1999/02/22-rdf-syntax-ns#"
   xmlns:svg="http://www.w3.org/2000/svg"
   xmlns="http://www.w3.org/2000/svg"
   xmlns:xlink="http://www.w3.org/1999/xlink"
   xmlns:sodipodi="http://sodipodi.sourceforge.net/DTD/sodipodi-0.dtd"
   xmlns:inkscape="http://www.inkscape.org/namespaces/inkscape"
   width="104"
   height="104"
   id="svg2985"
   version="1.1"
   inkscape:version="0.48.3.1 r9886"
   sodipodi:docname="corner-ripple-ltr.svg">
  <defs
     id="defs2987">
    <linearGradient
       id="linearGradient4617">
      <stop
         id="stop4619"
         offset="0"
         style="stop-color:#cdcdcd;stop-opacity:1;" />
      <stop
         id="stop4621"
         offset="1"
         style="stop-color:#afafaf;stop-opacity:1;" />
    </linearGradient>
    <linearGradient
       id="linearGradient4611">
      <stop
         id="stop4613"
         offset="0"
         style="stop-color:#7ec167;stop-opacity:1;" />
      <stop
         id="stop4615"
         offset="1"
         style="stop-color:#4dbc3d;stop-opacity:1;" />
    </linearGradient>
    <linearGradient
       id="linearGradient4595">
      <stop
         style="stop-color:#323232;stop-opacity:1;"
         offset="0"
         id="stop4597" />
      <stop
         style="stop-color:#212121;stop-opacity:1;"
         offset="1"
         id="stop4599" />
    </linearGradient>
    <linearGradient
       inkscape:collect="always"
       xlink:href="#linearGradient4595"
       id="linearGradient4601"
       x1="21.516249"
       y1="3.4522729"
       x2="21.516249"
       y2="41.137596"
       gradientUnits="userSpaceOnUse"
       gradientTransform="matrix(0.17857146,0,0,0.17857146,12.338292,2.193628)" />
    <linearGradient
       inkscape:collect="always"
       xlink:href="#linearGradient4611"
       id="linearGradient4605"
       gradientUnits="userSpaceOnUse"
       x1="21.516249"
       y1="3.4522729"
       x2="21.516249"
       y2="41.137596"
       gradientTransform="matrix(0.09340665,0,0,0.09340665,5.3427069,3.5149982)" />
    <linearGradient
       inkscape:collect="always"
       xlink:href="#linearGradient4617"
       id="linearGradient4609"
       gradientUnits="userSpaceOnUse"
       gradientTransform="matrix(0.32417585,0,0,0.32417585,-0.73374801,10.651903)"
       x1="21.516249"
       y1="3.4522729"
       x2="21.516249"
       y2="41.137596" />
    <linearGradient
       inkscape:collect="always"
       xlink:href="#linearGradient4611"
       id="linearGradient4625"
       gradientUnits="userSpaceOnUse"
       gradientTransform="matrix(0.17032972,0,0,0.17032972,13.385075,9.7998891)"
       x1="21.516249"
       y1="3.4522729"
       x2="21.516249"
       y2="41.137596" />
    <linearGradient
       inkscape:collect="always"
       xlink:href="#linearGradient4611"
       id="linearGradient4629"
       gradientUnits="userSpaceOnUse"
       gradientTransform="matrix(0.09340665,0,0,0.09340665,28.879261,2.1007846)"
       x1="21.516249"
       y1="3.4522729"
       x2="21.516249"
       y2="41.137596" />
    <linearGradient
       inkscape:collect="always"
       xlink:href="#linearGradient4617"
       id="linearGradient4633"
       gradientUnits="userSpaceOnUse"
       gradientTransform="matrix(0.18406598,0,0,0.18406598,21.304228,7.0222816)"
       x1="21.516249"
       y1="3.4522729"
       x2="21.516249"
       y2="41.137596" />
    <linearGradient
       inkscape:collect="always"
       xlink:href="#linearGradient4595"
       id="linearGradient4637"
       gradientUnits="userSpaceOnUse"
       gradientTransform="matrix(0.33516486,0,0,0.33516486,15.177819,17.076722)"
       x1="21.516249"
       y1="3.4522729"
       x2="21.516249"
       y2="41.137596" />
    <linearGradient
       inkscape:collect="always"
       xlink:href="#linearGradient4595"
       id="linearGradient4641"
       gradientUnits="userSpaceOnUse"
       gradientTransform="matrix(0.17857146,0,0,0.17857146,3.6509802,26.235259)"
       x1="21.516249"
       y1="3.4522729"
       x2="21.516249"
       y2="41.137596" />
    <linearGradient
       inkscape:collect="always"
       xlink:href="#linearGradient4611"
       id="linearGradient4664"
       gradientUnits="userSpaceOnUse"
       gradientTransform="matrix(0.23901103,0,0,0.23901103,4.5945276,36.620995)"
       x1="21.516249"
       y1="3.4522729"
       x2="21.516249"
       y2="41.137596" />
    <linearGradient
       inkscape:collect="always"
       xlink:href="#linearGradient4617"
       id="linearGradient4668"
       gradientUnits="userSpaceOnUse"
       gradientTransform="matrix(0.18406598,0,0,0.18406598,17.263618,33.286248)"
       x1="21.516249"
       y1="3.4522729"
       x2="21.516249"
       y2="41.137596" />
    <linearGradient
       inkscape:collect="always"
       xlink:href="#linearGradient4611"
       id="linearGradient4672"
       gradientUnits="userSpaceOnUse"
       gradientTransform="matrix(0.37362641,0,0,0.37362641,30.260173,7.9458139)"
       x1="21.516249"
       y1="3.4522729"
       x2="21.516249"
       y2="41.137596" />
    <linearGradient
       inkscape:collect="always"
       xlink:href="#linearGradient4617"
       id="linearGradient4676"
       gradientUnits="userSpaceOnUse"
       gradientTransform="matrix(0.18406598,0,0,0.18406598,35.446364,0.65832057)"
       x1="21.516249"
       y1="3.4522729"
       x2="21.516249"
       y2="41.137596" />
    <linearGradient
       inkscape:collect="always"
       xlink:href="#linearGradient4611"
       id="linearGradient4680"
       gradientUnits="userSpaceOnUse"
       gradientTransform="matrix(0.09340665,0,0,0.09340665,31.000581,25.435308)"
       x1="21.516249"
       y1="3.4522729"
       x2="21.516249"
       y2="41.137596" />
    <linearGradient
       inkscape:collect="always"
       xlink:href="#linearGradient4595"
       id="linearGradient3401"
       gradientUnits="userSpaceOnUse"
       gradientTransform="matrix(0.17857146,0,0,0.17857146,12.338292,2.193628)"
       x1="21.516249"
       y1="3.4522729"
       x2="21.516249"
       y2="41.137596" />
    <linearGradient
       inkscape:collect="always"
       xlink:href="#linearGradient4611"
       id="linearGradient3403"
       gradientUnits="userSpaceOnUse"
       gradientTransform="matrix(0.09340665,0,0,0.09340665,5.3427069,3.5149982)"
       x1="21.516249"
       y1="3.4522729"
       x2="21.516249"
       y2="41.137596" />
    <linearGradient
       inkscape:collect="always"
       xlink:href="#linearGradient4617"
       id="linearGradient3405"
       gradientUnits="userSpaceOnUse"
       gradientTransform="matrix(0.32417585,0,0,0.32417585,-0.73374801,10.651903)"
       x1="21.516249"
       y1="3.4522729"
       x2="21.516249"
       y2="41.137596" />
    <linearGradient
       inkscape:collect="always"
       xlink:href="#linearGradient4611"
       id="linearGradient3407"
       gradientUnits="userSpaceOnUse"
       gradientTransform="matrix(0.17032972,0,0,0.17032972,13.385075,9.7998891)"
       x1="21.516249"
       y1="3.4522729"
       x2="21.516249"
       y2="41.137596" />
    <linearGradient
       inkscape:collect="always"
       xlink:href="#linearGradient4611"
       id="linearGradient3409"
       gradientUnits="userSpaceOnUse"
       gradientTransform="matrix(0.09340665,0,0,0.09340665,28.879261,2.1007846)"
       x1="21.516249"
       y1="3.4522729"
       x2="21.516249"
       y2="41.137596" />
    <linearGradient
       inkscape:collect="always"
       xlink:href="#linearGradient4617"
       id="linearGradient3411"
       gradientUnits="userSpaceOnUse"
       gradientTransform="matrix(0.18406598,0,0,0.18406598,21.304228,7.0222816)"
       x1="21.516249"
       y1="3.4522729"
       x2="21.516249"
       y2="41.137596" />
    <linearGradient
       inkscape:collect="always"
       xlink:href="#linearGradient4595"
       id="linearGradient3413"
       gradientUnits="userSpaceOnUse"
       gradientTransform="matrix(0.33516486,0,0,0.33516486,15.177819,17.076722)"
       x1="21.516249"
       y1="3.4522729"
       x2="21.516249"
       y2="41.137596" />
    <linearGradient
       inkscape:collect="always"
       xlink:href="#linearGradient4595"
       id="linearGradient3415"
       gradientUnits="userSpaceOnUse"
       gradientTransform="matrix(0.17857146,0,0,0.17857146,3.6509802,26.235259)"
       x1="21.516249"
       y1="3.4522729"
       x2="21.516249"
       y2="41.137596" />
    <linearGradient
       inkscape:collect="always"
       xlink:href="#linearGradient4611"
       id="linearGradient3417"
       gradientUnits="userSpaceOnUse"
       gradientTransform="matrix(0.23901103,0,0,0.23901103,4.5945276,36.620995)"
       x1="21.516249"
       y1="3.4522729"
       x2="21.516249"
       y2="41.137596" />
    <linearGradient
       inkscape:collect="always"
       xlink:href="#linearGradient4617"
       id="linearGradient3419"
       gradientUnits="userSpaceOnUse"
       gradientTransform="matrix(0.18406598,0,0,0.18406598,17.263618,33.286248)"
       x1="21.516249"
       y1="3.4522729"
       x2="21.516249"
       y2="41.137596" />
    <linearGradient
       inkscape:collect="always"
       xlink:href="#linearGradient4611"
       id="linearGradient3421"
       gradientUnits="userSpaceOnUse"
       gradientTransform="matrix(0.37362641,0,0,0.37362641,30.260173,7.9458139)"
       x1="21.516249"
       y1="3.4522729"
       x2="21.516249"
       y2="41.137596" />
    <linearGradient
       inkscape:collect="always"
       xlink:href="#linearGradient4617"
       id="linearGradient3423"
       gradientUnits="userSpaceOnUse"
       gradientTransform="matrix(0.18406598,0,0,0.18406598,35.446364,0.65832057)"
       x1="21.516249"
       y1="3.4522729"
       x2="21.516249"
       y2="41.137596" />
    <linearGradient
       inkscape:collect="always"
       xlink:href="#linearGradient4611"
       id="linearGradient3425"
       gradientUnits="userSpaceOnUse"
       gradientTransform="matrix(0.09340665,0,0,0.09340665,31.000581,25.435308)"
       x1="21.516249"
       y1="3.4522729"
       x2="21.516249"
       y2="41.137596" />
    <linearGradient
       inkscape:collect="always"
       xlink:href="#linearGradient4595"
       id="linearGradient3455"
       gradientUnits="userSpaceOnUse"
       gradientTransform="matrix(0.17857146,0,0,0.17857146,12.338292,2.193628)"
       x1="21.516249"
       y1="3.4522729"
       x2="21.516249"
       y2="41.137596" />
    <linearGradient
       inkscape:collect="always"
       xlink:href="#linearGradient4611"
       id="linearGradient3457"
       gradientUnits="userSpaceOnUse"
       gradientTransform="matrix(0.09340665,0,0,0.09340665,5.3427069,3.5149982)"
       x1="21.516249"
       y1="3.4522729"
       x2="21.516249"
       y2="41.137596" />
    <linearGradient
       inkscape:collect="always"
       xlink:href="#linearGradient4617"
       id="linearGradient3459"
       gradientUnits="userSpaceOnUse"
       gradientTransform="matrix(0.32417585,0,0,0.32417585,-0.73374801,10.651903)"
       x1="21.516249"
       y1="3.4522729"
       x2="21.516249"
       y2="41.137596" />
    <linearGradient
       inkscape:collect="always"
       xlink:href="#linearGradient4611"
       id="linearGradient3461"
       gradientUnits="userSpaceOnUse"
       gradientTransform="matrix(0.17032972,0,0,0.17032972,13.385075,9.7998891)"
       x1="21.516249"
       y1="3.4522729"
       x2="21.516249"
       y2="41.137596" />
    <linearGradient
       inkscape:collect="always"
       xlink:href="#linearGradient4611"
       id="linearGradient3463"
       gradientUnits="userSpaceOnUse"
       gradientTransform="matrix(0.09340665,0,0,0.09340665,28.879261,2.1007846)"
       x1="21.516249"
       y1="3.4522729"
       x2="21.516249"
       y2="41.137596" />
    <linearGradient
       inkscape:collect="always"
       xlink:href="#linearGradient4617"
       id="linearGradient3465"
       gradientUnits="userSpaceOnUse"
       gradientTransform="matrix(0.18406598,0,0,0.18406598,21.304228,7.0222816)"
       x1="21.516249"
       y1="3.4522729"
       x2="21.516249"
       y2="41.137596" />
    <linearGradient
       inkscape:collect="always"
       xlink:href="#linearGradient4595"
       id="linearGradient3467"
       gradientUnits="userSpaceOnUse"
       gradientTransform="matrix(0.33516486,0,0,0.33516486,15.177819,17.076722)"
       x1="21.516249"
       y1="3.4522729"
       x2="21.516249"
       y2="41.137596" />
    <linearGradient
       inkscape:collect="always"
       xlink:href="#linearGradient4595"
       id="linearGradient3469"
       gradientUnits="userSpaceOnUse"
       gradientTransform="matrix(0.17857146,0,0,0.17857146,3.6509802,26.235259)"
       x1="21.516249"
       y1="3.4522729"
       x2="21.516249"
       y2="41.137596" />
    <linearGradient
       inkscape:collect="always"
       xlink:href="#linearGradient4611"
       id="linearGradient3471"
       gradientUnits="userSpaceOnUse"
       gradientTransform="matrix(0.23901103,0,0,0.23901103,4.5945276,36.620995)"
       x1="21.516249"
       y1="3.4522729"
       x2="21.516249"
       y2="41.137596" />
    <linearGradient
       inkscape:collect="always"
       xlink:href="#linearGradient4617"
       id="linearGradient3473"
       gradientUnits="userSpaceOnUse"
       gradientTransform="matrix(0.18406598,0,0,0.18406598,17.263618,33.286248)"
       x1="21.516249"
       y1="3.4522729"
       x2="21.516249"
       y2="41.137596" />
    <linearGradient
       inkscape:collect="always"
       xlink:href="#linearGradient4611"
       id="linearGradient3475"
       gradientUnits="userSpaceOnUse"
       gradientTransform="matrix(0.37362641,0,0,0.37362641,30.260173,7.9458139)"
       x1="21.516249"
       y1="3.4522729"
       x2="21.516249"
       y2="41.137596" />
    <linearGradient
       inkscape:collect="always"
       xlink:href="#linearGradient4617"
       id="linearGradient3477"
       gradientUnits="userSpaceOnUse"
       gradientTransform="matrix(0.18406598,0,0,0.18406598,35.446364,0.65832057)"
       x1="21.516249"
       y1="3.4522729"
       x2="21.516249"
       y2="41.137596" />
    <linearGradient
       inkscape:collect="always"
       xlink:href="#linearGradient4611"
       id="linearGradient3479"
       gradientUnits="userSpaceOnUse"
       gradientTransform="matrix(0.09340665,0,0,0.09340665,31.000581,25.435308)"
       x1="21.516249"
       y1="3.4522729"
       x2="21.516249"
       y2="41.137596" />
    <linearGradient
       inkscape:collect="always"
       xlink:href="#linearGradient4595"
       id="linearGradient3509"
       gradientUnits="userSpaceOnUse"
       gradientTransform="matrix(0.17857146,0,0,0.17857146,12.338292,2.193628)"
       x1="21.516249"
       y1="3.4522729"
       x2="21.516249"
       y2="41.137596" />
    <linearGradient
       inkscape:collect="always"
       xlink:href="#linearGradient4611"
       id="linearGradient3511"
       gradientUnits="userSpaceOnUse"
       gradientTransform="matrix(0.09340665,0,0,0.09340665,5.3427069,3.5149982)"
       x1="21.516249"
       y1="3.4522729"
       x2="21.516249"
       y2="41.137596" />
    <linearGradient
       inkscape:collect="always"
       xlink:href="#linearGradient4617"
       id="linearGradient3513"
       gradientUnits="userSpaceOnUse"
       gradientTransform="matrix(0.32417585,0,0,0.32417585,-0.73374801,10.651903)"
       x1="21.516249"
       y1="3.4522729"
       x2="21.516249"
       y2="41.137596" />
    <linearGradient
       inkscape:collect="always"
       xlink:href="#linearGradient4611"
       id="linearGradient3515"
       gradientUnits="userSpaceOnUse"
       gradientTransform="matrix(0.17032972,0,0,0.17032972,13.385075,9.7998891)"
       x1="21.516249"
       y1="3.4522729"
       x2="21.516249"
       y2="41.137596" />
    <linearGradient
       inkscape:collect="always"
       xlink:href="#linearGradient4611"
       id="linearGradient3517"
       gradientUnits="userSpaceOnUse"
       gradientTransform="matrix(0.09340665,0,0,0.09340665,28.879261,2.1007846)"
       x1="21.516249"
       y1="3.4522729"
       x2="21.516249"
       y2="41.137596" />
    <linearGradient
       inkscape:collect="always"
       xlink:href="#linearGradient4617"
       id="linearGradient3519"
       gradientUnits="userSpaceOnUse"
       gradientTransform="matrix(0.18406598,0,0,0.18406598,21.304228,7.0222816)"
       x1="21.516249"
       y1="3.4522729"
       x2="21.516249"
       y2="41.137596" />
    <linearGradient
       inkscape:collect="always"
       xlink:href="#linearGradient4595"
       id="linearGradient3521"
       gradientUnits="userSpaceOnUse"
       gradientTransform="matrix(0.33516486,0,0,0.33516486,15.177819,17.076722)"
       x1="21.516249"
       y1="3.4522729"
       x2="21.516249"
       y2="41.137596" />
    <linearGradient
       inkscape:collect="always"
       xlink:href="#linearGradient4595"
       id="linearGradient3523"
       gradientUnits="userSpaceOnUse"
       gradientTransform="matrix(0.17857146,0,0,0.17857146,3.6509802,26.235259)"
       x1="21.516249"
       y1="3.4522729"
       x2="21.516249"
       y2="41.137596" />
    <linearGradient
       inkscape:collect="always"
       xlink:href="#linearGradient4611"
       id="linearGradient3525"
       gradientUnits="userSpaceOnUse"
       gradientTransform="matrix(0.23901103,0,0,0.23901103,4.5945276,36.620995)"
       x1="21.516249"
       y1="3.4522729"
       x2="21.516249"
       y2="41.137596" />
    <linearGradient
       inkscape:collect="always"
       xlink:href="#linearGradient4617"
       id="linearGradient3527"
       gradientUnits="userSpaceOnUse"
       gradientTransform="matrix(0.18406598,0,0,0.18406598,17.263618,33.286248)"
       x1="21.516249"
       y1="3.4522729"
       x2="21.516249"
       y2="41.137596" />
    <linearGradient
       inkscape:collect="always"
       xlink:href="#linearGradient4611"
       id="linearGradient3529"
       gradientUnits="userSpaceOnUse"
       gradientTransform="matrix(0.37362641,0,0,0.37362641,30.260173,7.9458139)"
       x1="21.516249"
       y1="3.4522729"
       x2="21.516249"
       y2="41.137596" />
    <linearGradient
       inkscape:collect="always"
       xlink:href="#linearGradient4617"
       id="linearGradient3531"
       gradientUnits="userSpaceOnUse"
       gradientTransform="matrix(0.18406598,0,0,0.18406598,35.446364,0.65832057)"
       x1="21.516249"
       y1="3.4522729"
       x2="21.516249"
       y2="41.137596" />
    <linearGradient
       inkscape:collect="always"
       xlink:href="#linearGradient4611"
       id="linearGradient3533"
       gradientUnits="userSpaceOnUse"
       gradientTransform="matrix(0.09340665,0,0,0.09340665,31.000581,25.435308)"
       x1="21.516249"
       y1="3.4522729"
       x2="21.516249"
       y2="41.137596" />
  </defs>
  <sodipodi:namedview
     id="base"
     pagecolor="#ffffff"
     bordercolor="#666666"
     borderopacity="1.0"
     inkscape:pageopacity="0.0"
     inkscape:pageshadow="2"
     inkscape:zoom="3.5"
     inkscape:cx="22.287733"
     inkscape:cy="37.793906"
     inkscape:current-layer="layer1"
     showgrid="true"
     inkscape:grid-bbox="true"
     inkscape:document-units="px"
     inkscape:window-width="1366"
     inkscape:window-height="720"
     inkscape:window-x="0"
     inkscape:window-y="25"
     inkscape:window-maximized="1" />
  <metadata
     id="metadata2990">
    <rdf:RDF>
      <cc:Work
         rdf:about="">
        <dc:format>image/svg+xml</dc:format>
        <dc:type
           rdf:resource="http://purl.org/dc/dcmitype/StillImage" />
        <dc:title></dc:title>
      </cc:Work>
    </rdf:RDF>
  </metadata>
  <g
     id="layer1"
     inkscape:label="Layer 1"
     inkscape:groupmode="layer"
     transform="translate(0,56)">
    <g
       id="g3017"
       transform="translate(0.7,-56)">
      <path
         inkscape:connector-curvature="0"
         d="m 13.131984,2.846182 2.669689,0 0,2.417151 -2.669689,0 z m 2.77792,3.102612 3.788073,0 0,3.463381 -3.788073,0 z m -0.627643,-3.102612 2.265438,0 c 1.191254,0 2.150278,0.96576 2.150278,2.16538 l 0,2.235232 c 0,1.199621 -0.959024,2.165381 -2.150278,2.165381 l -2.265438,0 c -1.191253,0 -2.150277,-0.96576 -2.150277,-2.165381 l 0,-2.235232 c 0,-1.19962 0.959024,-2.16538 2.150277,-2.16538 z"
         style="fill:url(#linearGradient4601);fill-opacity:1;fill-rule:nonzero;stroke:none"
         id="rect2999" />
      <path
         inkscape:connector-curvature="0"
         id="path4603"
         style="fill:url(#linearGradient4605);fill-opacity:1;fill-rule:nonzero;stroke:none"
         d="m 5.7578689,3.8563342 1.396454,0 0,1.264357 -1.396454,0 z m 1.453066,1.622905 1.981455,0 0,1.811616 -1.981455,0 z m -0.328305,-1.622905 1.184999,0 c 0.623118,0 1.124761,0.505167 1.124761,1.132661 l 0,1.169199 c 0,0.627494 -0.501643,1.132661 -1.124761,1.132661 l -1.184999,0 c -0.623118,0 -1.124761,-0.505167 -1.124761,-1.132661 l 0,-1.169199 c 0,-0.627494 0.501643,-1.132661 1.124761,-1.132661 z" />
      <path
         d="m 0.70710699,11.83654 4.84651301,0 0,4.388059 -4.84651301,0 z M 5.7501,17.468973 l 6.876808,0 0,6.287369 -6.876808,0 z m -1.139413,-5.632433 4.112641,0 c 2.162583,0 3.90358,1.753225 3.90358,3.930998 l 0,4.057805 c 0,2.177773 -1.740997,3.930998 -3.90358,3.930998 l -4.112641,0 c -2.162583,0 -3.90358001,-1.753225 -3.90358001,-3.930998 l 0,-4.057805 c 0,-2.177773 1.74099701,-3.930998 3.90358001,-3.930998 z"
         style="fill:url(#linearGradient4609);fill-opacity:1;fill-rule:nonzero;stroke:none"
         id="path4607"
         inkscape:connector-curvature="0" />
      <path
         d="m 14.142135,10.422325 2.546474,0 0,2.305591 -2.546474,0 z m 2.649708,2.959414 3.61324,0 0,3.303534 -3.61324,0 z m -0.598674,-2.959414 2.16088,0 c 1.136274,0 2.051034,0.921186 2.051034,2.06544 l 0,2.132068 c 0,1.144253 -0.91476,2.06544 -2.051034,2.06544 l -2.16088,0 c -1.136274,0 -2.051034,-0.921187 -2.051034,-2.06544 l 0,-2.132068 c 0,-1.144254 0.91476,-2.06544 2.051034,-2.06544 z"
         style="fill:url(#linearGradient4625);fill-opacity:1;fill-rule:nonzero;stroke:none"
         id="path4623"
         inkscape:connector-curvature="0" />
      <path
         d="m 29.294423,2.4421206 1.396454,0 0,1.264357 -1.396454,0 z m 1.453066,1.622905 1.981455,0 0,1.811616 -1.981455,0 z m -0.328305,-1.622905 1.184999,0 c 0.623118,0 1.124761,0.505167 1.124761,1.132661 l 0,1.169199 c 0,0.627494 -0.501643,1.132661 -1.124761,1.132661 l -1.184999,0 c -0.623118,0 -1.124761,-0.505167 -1.124761,-1.132661 l 0,-1.169199 c 0,-0.627494 0.501643,-1.132661 1.124761,-1.132661 z"
         style="fill:url(#linearGradient4629);fill-opacity:1;fill-rule:nonzero;stroke:none"
         id="path4627"
         inkscape:connector-curvature="0" />
      <path
         inkscape:connector-curvature="0"
         id="path4631"
         style="fill:url(#linearGradient4633);fill-opacity:1;fill-rule:nonzero;stroke:none"
         d="m 22.122341,7.6949146 2.751834,0 0,2.4915254 -2.751834,0 z m 2.863395,3.1980774 3.904629,0 0,3.569947 -3.904629,0 z m -0.646955,-3.1980774 2.335144,0 c 1.227907,0 2.21644,0.9954754 2.21644,2.2320079 l 0,2.3040085 c 0,1.236532 -0.988533,2.232007 -2.21644,2.232007 l -2.335144,0 c -1.227908,0 -2.21644,-0.995475 -2.21644,-2.232007 l 0,-2.3040085 c 0,-1.2365325 0.988532,-2.2320079 2.21644,-2.2320079 z" />
      <path
         id="path4635"
         style="fill:url(#linearGradient4637);fill-opacity:1;fill-rule:nonzero;stroke:none"
         d="m 16.667518,18.301516 5.0108,0 0,4.536806 -5.0108,0 z m 5.213942,5.823363 7.109921,0 0,6.5005 -7.109921,0 z m -1.178038,-5.823363 4.252053,0 c 2.235891,0 4.035906,1.812657 4.035906,4.064251 l 0,4.195358 c 0,2.251596 -1.800015,4.064254 -4.035906,4.064254 l -4.252053,0 c -2.23589,0 -4.035904,-1.812658 -4.035904,-4.064254 l 0,-4.195358 c 0,-2.251594 1.800014,-4.064251 4.035904,-4.064251 z"
         inkscape:connector-curvature="0" />
      <path
         inkscape:connector-curvature="0"
         d="m 4.4446722,26.887813 2.669689,0 0,2.417151 -2.669689,0 z m 2.77792,3.102612 3.7880728,0 0,3.463381 -3.7880728,0 z m -0.627643,-3.102612 2.265438,0 c 1.1912538,0 2.1502778,0.96576 2.1502778,2.16538 l 0,2.235232 c 0,1.199621 -0.959024,2.165381 -2.1502778,2.165381 l -2.265438,0 c -1.191253,0 -2.150277,-0.96576 -2.150277,-2.165381 l 0,-2.235232 c 0,-1.19962 0.959024,-2.16538 2.150277,-2.16538 z"
         style="fill:url(#linearGradient4641);fill-opacity:1;fill-rule:nonzero;stroke:none"
         id="path4639" />
      <path
         inkscape:connector-curvature="0"
         id="path4662"
         style="fill:url(#linearGradient4664);fill-opacity:1;fill-rule:nonzero;stroke:none"
         d="m 5.6568536,37.494413 3.5732777,0 0,3.235264 -3.5732777,0 z m 3.7181383,4.152726 5.0701921,0 0,4.635603 -5.0701921,0 z m -0.8400748,-4.152726 3.0322019,0 c 1.59445,0 2.878065,1.292632 2.878065,2.898278 l 0,2.991773 c 0,1.605645 -1.283615,2.898278 -2.878065,2.898278 l -3.0322019,0 c -1.5944488,0 -2.8780635,-1.292633 -2.8780635,-2.898278 l 0,-2.991773 c 0,-1.605646 1.2836147,-2.898278 2.8780635,-2.898278 z" />
      <path
         d="m 18.081731,33.958881 2.751834,0 0,2.491525 -2.751834,0 z m 2.863395,3.198077 3.904629,0 0,3.569947 -3.904629,0 z m -0.646955,-3.198077 2.335144,0 c 1.227907,0 2.21644,0.995475 2.21644,2.232008 l 0,2.304008 c 0,1.236532 -0.988533,2.232007 -2.21644,2.232007 l -2.335144,0 c -1.227908,0 -2.21644,-0.995475 -2.21644,-2.232007 l 0,-2.304008 c 0,-1.236533 0.988532,-2.232008 2.21644,-2.232008 z"
         style="fill:url(#linearGradient4668);fill-opacity:1;fill-rule:nonzero;stroke:none"
         id="path4666"
         inkscape:connector-curvature="0" />
      <path
         d="m 31.92082,9.3111572 5.585813,0 0,5.0574238 -5.585813,0 z m 5.812261,6.4916168 7.925817,0 0,7.246459 -7.925817,0 z m -1.31322,-6.4916168 4.739993,0 c 2.492474,0 4.499044,2.0206658 4.499044,4.5306408 l 0,4.676794 c 0,2.509974 -2.00657,4.530641 -4.499044,4.530641 l -4.739993,0 c -2.492471,0 -4.499041,-2.020667 -4.499041,-4.530641 l 0,-4.676794 c 0,-2.509975 2.00657,-4.5306408 4.499041,-4.5306408 z"
         style="fill:url(#linearGradient4672);fill-opacity:1;fill-rule:nonzero;stroke:none"
         id="path4670"
         inkscape:connector-curvature="0" />
      <path
         d="m 36.264477,1.3309536 2.751834,0 0,2.4915254 -2.751834,0 z m 2.863395,3.1980774 3.904629,0 0,3.569947 -3.904629,0 z m -0.646955,-3.1980774 2.335144,0 c 1.227907,0 2.21644,0.9954754 2.21644,2.2320079 l 0,2.3040085 c 0,1.236532 -0.988533,2.232007 -2.21644,2.232007 l -2.335144,0 c -1.227908,0 -2.21644,-0.995475 -2.21644,-2.232007 l 0,-2.3040085 c 0,-1.2365325 0.988532,-2.2320079 2.21644,-2.2320079 z"
         style="fill:url(#linearGradient4676);fill-opacity:1;fill-rule:nonzero;stroke:none"
         id="path4674"
         inkscape:connector-curvature="0" />
      <path
         inkscape:connector-curvature="0"
         id="path4678"
         style="fill:url(#linearGradient4680);fill-opacity:1;fill-rule:nonzero;stroke:none"
         d="m 31.415743,25.776644 1.396454,0 0,1.264357 -1.396454,0 z m 1.453066,1.622905 1.981455,0 0,1.811616 -1.981455,0 z m -0.328305,-1.622905 1.184999,0 c 0.623118,0 1.124761,0.505167 1.124761,1.132661 l 0,1.169199 c 0,0.627494 -0.501643,1.132661 -1.124761,1.132661 l -1.184999,0 c -0.623118,0 -1.124761,-0.505167 -1.124761,-1.132661 l 0,-1.169199 c 0,-0.627494 0.501643,-1.132661 1.124761,-1.132661 z" />
    </g>
    <g
       transform="matrix(0,-1,1,0,-0.1239536,47.58985)"
       id="g3373">
      <path
         id="path3375"
         style="fill:url(#linearGradient3401);fill-opacity:1;fill-rule:nonzero;stroke:none"
         d="m 13.131984,2.846182 2.669689,0 0,2.417151 -2.669689,0 z m 2.77792,3.102612 3.788073,0 0,3.463381 -3.788073,0 z m -0.627643,-3.102612 2.265438,0 c 1.191254,0 2.150278,0.96576 2.150278,2.16538 l 0,2.235232 c 0,1.199621 -0.959024,2.165381 -2.150278,2.165381 l -2.265438,0 c -1.191253,0 -2.150277,-0.96576 -2.150277,-2.165381 l 0,-2.235232 c 0,-1.19962 0.959024,-2.16538 2.150277,-2.16538 z"
         inkscape:connector-curvature="0" />
      <path
         d="m 5.7578689,3.8563342 1.396454,0 0,1.264357 -1.396454,0 z m 1.453066,1.622905 1.981455,0 0,1.811616 -1.981455,0 z m -0.328305,-1.622905 1.184999,0 c 0.623118,0 1.124761,0.505167 1.124761,1.132661 l 0,1.169199 c 0,0.627494 -0.501643,1.132661 -1.124761,1.132661 l -1.184999,0 c -0.623118,0 -1.124761,-0.505167 -1.124761,-1.132661 l 0,-1.169199 c 0,-0.627494 0.501643,-1.132661 1.124761,-1.132661 z"
         style="fill:url(#linearGradient3403);fill-opacity:1;fill-rule:nonzero;stroke:none"
         id="path3377"
         inkscape:connector-curvature="0" />
      <path
         inkscape:connector-curvature="0"
         id="path3379"
         style="fill:url(#linearGradient3405);fill-opacity:1;fill-rule:nonzero;stroke:none"
         d="m 0.70710699,11.83654 4.84651301,0 0,4.388059 -4.84651301,0 z M 5.7501,17.468973 l 6.876808,0 0,6.287369 -6.876808,0 z m -1.139413,-5.632433 4.112641,0 c 2.162583,0 3.90358,1.753225 3.90358,3.930998 l 0,4.057805 c 0,2.177773 -1.740997,3.930998 -3.90358,3.930998 l -4.112641,0 c -2.162583,0 -3.90358001,-1.753225 -3.90358001,-3.930998 l 0,-4.057805 c 0,-2.177773 1.74099701,-3.930998 3.90358001,-3.930998 z" />
      <path
         inkscape:connector-curvature="0"
         id="path3381"
         style="fill:url(#linearGradient3407);fill-opacity:1;fill-rule:nonzero;stroke:none"
         d="m 14.142135,10.422325 2.546474,0 0,2.305591 -2.546474,0 z m 2.649708,2.959414 3.61324,0 0,3.303534 -3.61324,0 z m -0.598674,-2.959414 2.16088,0 c 1.136274,0 2.051034,0.921186 2.051034,2.06544 l 0,2.132068 c 0,1.144253 -0.91476,2.06544 -2.051034,2.06544 l -2.16088,0 c -1.136274,0 -2.051034,-0.921187 -2.051034,-2.06544 l 0,-2.132068 c 0,-1.144254 0.91476,-2.06544 2.051034,-2.06544 z" />
      <path
         inkscape:connector-curvature="0"
         id="path3383"
         style="fill:url(#linearGradient3409);fill-opacity:1;fill-rule:nonzero;stroke:none"
         d="m 29.294423,2.4421206 1.396454,0 0,1.264357 -1.396454,0 z m 1.453066,1.622905 1.981455,0 0,1.811616 -1.981455,0 z m -0.328305,-1.622905 1.184999,0 c 0.623118,0 1.124761,0.505167 1.124761,1.132661 l 0,1.169199 c 0,0.627494 -0.501643,1.132661 -1.124761,1.132661 l -1.184999,0 c -0.623118,0 -1.124761,-0.505167 -1.124761,-1.132661 l 0,-1.169199 c 0,-0.627494 0.501643,-1.132661 1.124761,-1.132661 z" />
      <path
         d="m 22.122341,7.6949146 2.751834,0 0,2.4915254 -2.751834,0 z m 2.863395,3.1980774 3.904629,0 0,3.569947 -3.904629,0 z m -0.646955,-3.1980774 2.335144,0 c 1.227907,0 2.21644,0.9954754 2.21644,2.2320079 l 0,2.3040085 c 0,1.236532 -0.988533,2.232007 -2.21644,2.232007 l -2.335144,0 c -1.227908,0 -2.21644,-0.995475 -2.21644,-2.232007 l 0,-2.3040085 c 0,-1.2365325 0.988532,-2.2320079 2.21644,-2.2320079 z"
         style="fill:url(#linearGradient3411);fill-opacity:1;fill-rule:nonzero;stroke:none"
         id="path3385"
         inkscape:connector-curvature="0" />
      <path
         inkscape:connector-curvature="0"
         d="m 16.667518,18.301516 5.0108,0 0,4.536806 -5.0108,0 z m 5.213942,5.823363 7.109921,0 0,6.5005 -7.109921,0 z m -1.178038,-5.823363 4.252053,0 c 2.235891,0 4.035906,1.812657 4.035906,4.064251 l 0,4.195358 c 0,2.251596 -1.800015,4.064254 -4.035906,4.064254 l -4.252053,0 c -2.23589,0 -4.035904,-1.812658 -4.035904,-4.064254 l 0,-4.195358 c 0,-2.251594 1.800014,-4.064251 4.035904,-4.064251 z"
         style="fill:url(#linearGradient3413);fill-opacity:1;fill-rule:nonzero;stroke:none"
         id="path3387" />
      <path
         id="path3389"
         style="fill:url(#linearGradient3415);fill-opacity:1;fill-rule:nonzero;stroke:none"
         d="m 4.4446722,26.887813 2.669689,0 0,2.417151 -2.669689,0 z m 2.77792,3.102612 3.7880728,0 0,3.463381 -3.7880728,0 z m -0.627643,-3.102612 2.265438,0 c 1.1912538,0 2.1502778,0.96576 2.1502778,2.16538 l 0,2.235232 c 0,1.199621 -0.959024,2.165381 -2.1502778,2.165381 l -2.265438,0 c -1.191253,0 -2.150277,-0.96576 -2.150277,-2.165381 l 0,-2.235232 c 0,-1.19962 0.959024,-2.16538 2.150277,-2.16538 z"
         inkscape:connector-curvature="0" />
      <path
         d="m 5.6568536,37.494413 3.5732777,0 0,3.235264 -3.5732777,0 z m 3.7181383,4.152726 5.0701921,0 0,4.635603 -5.0701921,0 z m -0.8400748,-4.152726 3.0322019,0 c 1.59445,0 2.878065,1.292632 2.878065,2.898278 l 0,2.991773 c 0,1.605645 -1.283615,2.898278 -2.878065,2.898278 l -3.0322019,0 c -1.5944488,0 -2.8780635,-1.292633 -2.8780635,-2.898278 l 0,-2.991773 c 0,-1.605646 1.2836147,-2.898278 2.8780635,-2.898278 z"
         style="fill:url(#linearGradient3417);fill-opacity:1;fill-rule:nonzero;stroke:none"
         id="path3391"
         inkscape:connector-curvature="0" />
      <path
         inkscape:connector-curvature="0"
         id="path3393"
         style="fill:url(#linearGradient3419);fill-opacity:1;fill-rule:nonzero;stroke:none"
         d="m 18.081731,33.958881 2.751834,0 0,2.491525 -2.751834,0 z m 2.863395,3.198077 3.904629,0 0,3.569947 -3.904629,0 z m -0.646955,-3.198077 2.335144,0 c 1.227907,0 2.21644,0.995475 2.21644,2.232008 l 0,2.304008 c 0,1.236532 -0.988533,2.232007 -2.21644,2.232007 l -2.335144,0 c -1.227908,0 -2.21644,-0.995475 -2.21644,-2.232007 l 0,-2.304008 c 0,-1.236533 0.988532,-2.232008 2.21644,-2.232008 z" />
      <path
         inkscape:connector-curvature="0"
         id="path3395"
         style="fill:url(#linearGradient3421);fill-opacity:1;fill-rule:nonzero;stroke:none"
         d="m 31.92082,9.3111572 5.585813,0 0,5.0574238 -5.585813,0 z m 5.812261,6.4916168 7.925817,0 0,7.246459 -7.925817,0 z m -1.31322,-6.4916168 4.739993,0 c 2.492474,0 4.499044,2.0206658 4.499044,4.5306408 l 0,4.676794 c 0,2.509974 -2.00657,4.530641 -4.499044,4.530641 l -4.739993,0 c -2.492471,0 -4.499041,-2.020667 -4.499041,-4.530641 l 0,-4.676794 c 0,-2.509975 2.00657,-4.5306408 4.499041,-4.5306408 z" />
      <path
         inkscape:connector-curvature="0"
         id="path3397"
         style="fill:url(#linearGradient3423);fill-opacity:1;fill-rule:nonzero;stroke:none"
         d="m 36.264477,1.3309536 2.751834,0 0,2.4915254 -2.751834,0 z m 2.863395,3.1980774 3.904629,0 0,3.569947 -3.904629,0 z m -0.646955,-3.1980774 2.335144,0 c 1.227907,0 2.21644,0.9954754 2.21644,2.2320079 l 0,2.3040085 c 0,1.236532 -0.988533,2.232007 -2.21644,2.232007 l -2.335144,0 c -1.227908,0 -2.21644,-0.995475 -2.21644,-2.232007 l 0,-2.3040085 c 0,-1.2365325 0.988532,-2.2320079 2.21644,-2.2320079 z" />
      <path
         d="m 31.415743,25.776644 1.396454,0 0,1.264357 -1.396454,0 z m 1.453066,1.622905 1.981455,0 0,1.811616 -1.981455,0 z m -0.328305,-1.622905 1.184999,0 c 0.623118,0 1.124761,0.505167 1.124761,1.132661 l 0,1.169199 c 0,0.627494 -0.501643,1.132661 -1.124761,1.132661 l -1.184999,0 c -0.623118,0 -1.124761,-0.505167 -1.124761,-1.132661 l 0,-1.169199 c 0,-0.627494 0.501643,-1.132661 1.124761,-1.132661 z"
         style="fill:url(#linearGradient3425);fill-opacity:1;fill-rule:nonzero;stroke:none"
         id="path3399"
         inkscape:connector-curvature="0" />
    </g>
    <g
       transform="matrix(-1,0,0,-1,103.2659,47.813696)"
       id="g3427">
      <path
         id="path3429"
         style="fill:url(#linearGradient3455);fill-opacity:1;fill-rule:nonzero;stroke:none"
         d="m 13.131984,2.846182 2.669689,0 0,2.417151 -2.669689,0 z m 2.77792,3.102612 3.788073,0 0,3.463381 -3.788073,0 z m -0.627643,-3.102612 2.265438,0 c 1.191254,0 2.150278,0.96576 2.150278,2.16538 l 0,2.235232 c 0,1.199621 -0.959024,2.165381 -2.150278,2.165381 l -2.265438,0 c -1.191253,0 -2.150277,-0.96576 -2.150277,-2.165381 l 0,-2.235232 c 0,-1.19962 0.959024,-2.16538 2.150277,-2.16538 z"
         inkscape:connector-curvature="0" />
      <path
         d="m 5.7578689,3.8563342 1.396454,0 0,1.264357 -1.396454,0 z m 1.453066,1.622905 1.981455,0 0,1.811616 -1.981455,0 z m -0.328305,-1.622905 1.184999,0 c 0.623118,0 1.124761,0.505167 1.124761,1.132661 l 0,1.169199 c 0,0.627494 -0.501643,1.132661 -1.124761,1.132661 l -1.184999,0 c -0.623118,0 -1.124761,-0.505167 -1.124761,-1.132661 l 0,-1.169199 c 0,-0.627494 0.501643,-1.132661 1.124761,-1.132661 z"
         style="fill:url(#linearGradient3457);fill-opacity:1;fill-rule:nonzero;stroke:none"
         id="path3431"
         inkscape:connector-curvature="0" />
      <path
         inkscape:connector-curvature="0"
         id="path3433"
         style="fill:url(#linearGradient3459);fill-opacity:1;fill-rule:nonzero;stroke:none"
         d="m 0.70710699,11.83654 4.84651301,0 0,4.388059 -4.84651301,0 z M 5.7501,17.468973 l 6.876808,0 0,6.287369 -6.876808,0 z m -1.139413,-5.632433 4.112641,0 c 2.162583,0 3.90358,1.753225 3.90358,3.930998 l 0,4.057805 c 0,2.177773 -1.740997,3.930998 -3.90358,3.930998 l -4.112641,0 c -2.162583,0 -3.90358001,-1.753225 -3.90358001,-3.930998 l 0,-4.057805 c 0,-2.177773 1.74099701,-3.930998 3.90358001,-3.930998 z" />
      <path
         inkscape:connector-curvature="0"
         id="path3435"
         style="fill:url(#linearGradient3461);fill-opacity:1;fill-rule:nonzero;stroke:none"
         d="m 14.142135,10.422325 2.546474,0 0,2.305591 -2.546474,0 z m 2.649708,2.959414 3.61324,0 0,3.303534 -3.61324,0 z m -0.598674,-2.959414 2.16088,0 c 1.136274,0 2.051034,0.921186 2.051034,2.06544 l 0,2.132068 c 0,1.144253 -0.91476,2.06544 -2.051034,2.06544 l -2.16088,0 c -1.136274,0 -2.051034,-0.921187 -2.051034,-2.06544 l 0,-2.132068 c 0,-1.144254 0.91476,-2.06544 2.051034,-2.06544 z" />
      <path
         inkscape:connector-curvature="0"
         id="path3437"
         style="fill:url(#linearGradient3463);fill-opacity:1;fill-rule:nonzero;stroke:none"
         d="m 29.294423,2.4421206 1.396454,0 0,1.264357 -1.396454,0 z m 1.453066,1.622905 1.981455,0 0,1.811616 -1.981455,0 z m -0.328305,-1.622905 1.184999,0 c 0.623118,0 1.124761,0.505167 1.124761,1.132661 l 0,1.169199 c 0,0.627494 -0.501643,1.132661 -1.124761,1.132661 l -1.184999,0 c -0.623118,0 -1.124761,-0.505167 -1.124761,-1.132661 l 0,-1.169199 c 0,-0.627494 0.501643,-1.132661 1.124761,-1.132661 z" />
      <path
         d="m 22.122341,7.6949146 2.751834,0 0,2.4915254 -2.751834,0 z m 2.863395,3.1980774 3.904629,0 0,3.569947 -3.904629,0 z m -0.646955,-3.1980774 2.335144,0 c 1.227907,0 2.21644,0.9954754 2.21644,2.2320079 l 0,2.3040085 c 0,1.236532 -0.988533,2.232007 -2.21644,2.232007 l -2.335144,0 c -1.227908,0 -2.21644,-0.995475 -2.21644,-2.232007 l 0,-2.3040085 c 0,-1.2365325 0.988532,-2.2320079 2.21644,-2.2320079 z"
         style="fill:url(#linearGradient3465);fill-opacity:1;fill-rule:nonzero;stroke:none"
         id="path3439"
         inkscape:connector-curvature="0" />
      <path
         inkscape:connector-curvature="0"
         d="m 16.667518,18.301516 5.0108,0 0,4.536806 -5.0108,0 z m 5.213942,5.823363 7.109921,0 0,6.5005 -7.109921,0 z m -1.178038,-5.823363 4.252053,0 c 2.235891,0 4.035906,1.812657 4.035906,4.064251 l 0,4.195358 c 0,2.251596 -1.800015,4.064254 -4.035906,4.064254 l -4.252053,0 c -2.23589,0 -4.035904,-1.812658 -4.035904,-4.064254 l 0,-4.195358 c 0,-2.251594 1.800014,-4.064251 4.035904,-4.064251 z"
         style="fill:url(#linearGradient3467);fill-opacity:1;fill-rule:nonzero;stroke:none"
         id="path3441" />
      <path
         id="path3443"
         style="fill:url(#linearGradient3469);fill-opacity:1;fill-rule:nonzero;stroke:none"
         d="m 4.4446722,26.887813 2.669689,0 0,2.417151 -2.669689,0 z m 2.77792,3.102612 3.7880728,0 0,3.463381 -3.7880728,0 z m -0.627643,-3.102612 2.265438,0 c 1.1912538,0 2.1502778,0.96576 2.1502778,2.16538 l 0,2.235232 c 0,1.199621 -0.959024,2.165381 -2.1502778,2.165381 l -2.265438,0 c -1.191253,0 -2.150277,-0.96576 -2.150277,-2.165381 l 0,-2.235232 c 0,-1.19962 0.959024,-2.16538 2.150277,-2.16538 z"
         inkscape:connector-curvature="0" />
      <path
         d="m 5.6568536,37.494413 3.5732777,0 0,3.235264 -3.5732777,0 z m 3.7181383,4.152726 5.0701921,0 0,4.635603 -5.0701921,0 z m -0.8400748,-4.152726 3.0322019,0 c 1.59445,0 2.878065,1.292632 2.878065,2.898278 l 0,2.991773 c 0,1.605645 -1.283615,2.898278 -2.878065,2.898278 l -3.0322019,0 c -1.5944488,0 -2.8780635,-1.292633 -2.8780635,-2.898278 l 0,-2.991773 c 0,-1.605646 1.2836147,-2.898278 2.8780635,-2.898278 z"
         style="fill:url(#linearGradient3471);fill-opacity:1;fill-rule:nonzero;stroke:none"
         id="path3445"
         inkscape:connector-curvature="0" />
      <path
         inkscape:connector-curvature="0"
         id="path3447"
         style="fill:url(#linearGradient3473);fill-opacity:1;fill-rule:nonzero;stroke:none"
         d="m 18.081731,33.958881 2.751834,0 0,2.491525 -2.751834,0 z m 2.863395,3.198077 3.904629,0 0,3.569947 -3.904629,0 z m -0.646955,-3.198077 2.335144,0 c 1.227907,0 2.21644,0.995475 2.21644,2.232008 l 0,2.304008 c 0,1.236532 -0.988533,2.232007 -2.21644,2.232007 l -2.335144,0 c -1.227908,0 -2.21644,-0.995475 -2.21644,-2.232007 l 0,-2.304008 c 0,-1.236533 0.988532,-2.232008 2.21644,-2.232008 z" />
      <path
         inkscape:connector-curvature="0"
         id="path3449"
         style="fill:url(#linearGradient3475);fill-opacity:1;fill-rule:nonzero;stroke:none"
         d="m 31.92082,9.3111572 5.585813,0 0,5.0574238 -5.585813,0 z m 5.812261,6.4916168 7.925817,0 0,7.246459 -7.925817,0 z m -1.31322,-6.4916168 4.739993,0 c 2.492474,0 4.499044,2.0206658 4.499044,4.5306408 l 0,4.676794 c 0,2.509974 -2.00657,4.530641 -4.499044,4.530641 l -4.739993,0 c -2.492471,0 -4.499041,-2.020667 -4.499041,-4.530641 l 0,-4.676794 c 0,-2.509975 2.00657,-4.5306408 4.499041,-4.5306408 z" />
      <path
         inkscape:connector-curvature="0"
         id="path3451"
         style="fill:url(#linearGradient3477);fill-opacity:1;fill-rule:nonzero;stroke:none"
         d="m 36.264477,1.3309536 2.751834,0 0,2.4915254 -2.751834,0 z m 2.863395,3.1980774 3.904629,0 0,3.569947 -3.904629,0 z m -0.646955,-3.1980774 2.335144,0 c 1.227907,0 2.21644,0.9954754 2.21644,2.2320079 l 0,2.3040085 c 0,1.236532 -0.988533,2.232007 -2.21644,2.232007 l -2.335144,0 c -1.227908,0 -2.21644,-0.995475 -2.21644,-2.232007 l 0,-2.3040085 c 0,-1.2365325 0.988532,-2.2320079 2.21644,-2.2320079 z" />
      <path
         d="m 31.415743,25.776644 1.396454,0 0,1.264357 -1.396454,0 z m 1.453066,1.622905 1.981455,0 0,1.811616 -1.981455,0 z m -0.328305,-1.622905 1.184999,0 c 0.623118,0 1.124761,0.505167 1.124761,1.132661 l 0,1.169199 c 0,0.627494 -0.501643,1.132661 -1.124761,1.132661 l -1.184999,0 c -0.623118,0 -1.124761,-0.505167 -1.124761,-1.132661 l 0,-1.169199 c 0,-0.627494 0.501643,-1.132661 1.124761,-1.132661 z"
         style="fill:url(#linearGradient3479);fill-opacity:1;fill-rule:nonzero;stroke:none"
         id="path3453"
         inkscape:connector-curvature="0" />
    </g>
    <g
       transform="matrix(0,1,-1,0,103.98985,-55.375898)"
       id="g3481">
      <path
         id="path3483"
         style="fill:url(#linearGradient3509);fill-opacity:1;fill-rule:nonzero;stroke:none"
         d="m 13.131984,2.846182 2.669689,0 0,2.417151 -2.669689,0 z m 2.77792,3.102612 3.788073,0 0,3.463381 -3.788073,0 z m -0.627643,-3.102612 2.265438,0 c 1.191254,0 2.150278,0.96576 2.150278,2.16538 l 0,2.235232 c 0,1.199621 -0.959024,2.165381 -2.150278,2.165381 l -2.265438,0 c -1.191253,0 -2.150277,-0.96576 -2.150277,-2.165381 l 0,-2.235232 c 0,-1.19962 0.959024,-2.16538 2.150277,-2.16538 z"
         inkscape:connector-curvature="0" />
      <path
         d="m 5.7578689,3.8563342 1.396454,0 0,1.264357 -1.396454,0 z m 1.453066,1.622905 1.981455,0 0,1.811616 -1.981455,0 z m -0.328305,-1.622905 1.184999,0 c 0.623118,0 1.124761,0.505167 1.124761,1.132661 l 0,1.169199 c 0,0.627494 -0.501643,1.132661 -1.124761,1.132661 l -1.184999,0 c -0.623118,0 -1.124761,-0.505167 -1.124761,-1.132661 l 0,-1.169199 c 0,-0.627494 0.501643,-1.132661 1.124761,-1.132661 z"
         style="fill:url(#linearGradient3511);fill-opacity:1;fill-rule:nonzero;stroke:none"
         id="path3485"
         inkscape:connector-curvature="0" />
      <path
         inkscape:connector-curvature="0"
         id="path3487"
         style="fill:url(#linearGradient3513);fill-opacity:1;fill-rule:nonzero;stroke:none"
         d="m 0.70710699,11.83654 4.84651301,0 0,4.388059 -4.84651301,0 z M 5.7501,17.468973 l 6.876808,0 0,6.287369 -6.876808,0 z m -1.139413,-5.632433 4.112641,0 c 2.162583,0 3.90358,1.753225 3.90358,3.930998 l 0,4.057805 c 0,2.177773 -1.740997,3.930998 -3.90358,3.930998 l -4.112641,0 c -2.162583,0 -3.90358001,-1.753225 -3.90358001,-3.930998 l 0,-4.057805 c 0,-2.177773 1.74099701,-3.930998 3.90358001,-3.930998 z" />
      <path
         inkscape:connector-curvature="0"
         id="path3489"
         style="fill:url(#linearGradient3515);fill-opacity:1;fill-rule:nonzero;stroke:none"
         d="m 14.142135,10.422325 2.546474,0 0,2.305591 -2.546474,0 z m 2.649708,2.959414 3.61324,0 0,3.303534 -3.61324,0 z m -0.598674,-2.959414 2.16088,0 c 1.136274,0 2.051034,0.921186 2.051034,2.06544 l 0,2.132068 c 0,1.144253 -0.91476,2.06544 -2.051034,2.06544 l -2.16088,0 c -1.136274,0 -2.051034,-0.921187 -2.051034,-2.06544 l 0,-2.132068 c 0,-1.144254 0.91476,-2.06544 2.051034,-2.06544 z" />
      <path
         inkscape:connector-curvature="0"
         id="path3491"
         style="fill:url(#linearGradient3517);fill-opacity:1;fill-rule:nonzero;stroke:none"
         d="m 29.294423,2.4421206 1.396454,0 0,1.264357 -1.396454,0 z m 1.453066,1.622905 1.981455,0 0,1.811616 -1.981455,0 z m -0.328305,-1.622905 1.184999,0 c 0.623118,0 1.124761,0.505167 1.124761,1.132661 l 0,1.169199 c 0,0.627494 -0.501643,1.132661 -1.124761,1.132661 l -1.184999,0 c -0.623118,0 -1.124761,-0.505167 -1.124761,-1.132661 l 0,-1.169199 c 0,-0.627494 0.501643,-1.132661 1.124761,-1.132661 z" />
      <path
         d="m 22.122341,7.6949146 2.751834,0 0,2.4915254 -2.751834,0 z m 2.863395,3.1980774 3.904629,0 0,3.569947 -3.904629,0 z m -0.646955,-3.1980774 2.335144,0 c 1.227907,0 2.21644,0.9954754 2.21644,2.2320079 l 0,2.3040085 c 0,1.236532 -0.988533,2.232007 -2.21644,2.232007 l -2.335144,0 c -1.227908,0 -2.21644,-0.995475 -2.21644,-2.232007 l 0,-2.3040085 c 0,-1.2365325 0.988532,-2.2320079 2.21644,-2.2320079 z"
         style="fill:url(#linearGradient3519);fill-opacity:1;fill-rule:nonzero;stroke:none"
         id="path3493"
         inkscape:connector-curvature="0" />
      <path
         inkscape:connector-curvature="0"
         d="m 16.667518,18.301516 5.0108,0 0,4.536806 -5.0108,0 z m 5.213942,5.823363 7.109921,0 0,6.5005 -7.109921,0 z m -1.178038,-5.823363 4.252053,0 c 2.235891,0 4.035906,1.812657 4.035906,4.064251 l 0,4.195358 c 0,2.251596 -1.800015,4.064254 -4.035906,4.064254 l -4.252053,0 c -2.23589,0 -4.035904,-1.812658 -4.035904,-4.064254 l 0,-4.195358 c 0,-2.251594 1.800014,-4.064251 4.035904,-4.064251 z"
         style="fill:url(#linearGradient3521);fill-opacity:1;fill-rule:nonzero;stroke:none"
         id="path3495" />
      <path
         id="path3497"
         style="fill:url(#linearGradient3523);fill-opacity:1;fill-rule:nonzero;stroke:none"
         d="m 4.4446722,26.887813 2.669689,0 0,2.417151 -2.669689,0 z m 2.77792,3.102612 3.7880728,0 0,3.463381 -3.7880728,0 z m -0.627643,-3.102612 2.265438,0 c 1.1912538,0 2.1502778,0.96576 2.1502778,2.16538 l 0,2.235232 c 0,1.199621 -0.959024,2.165381 -2.1502778,2.165381 l -2.265438,0 c -1.191253,0 -2.150277,-0.96576 -2.150277,-2.165381 l 0,-2.235232 c 0,-1.19962 0.959024,-2.16538 2.150277,-2.16538 z"
         inkscape:connector-curvature="0" />
      <path
         d="m 5.6568536,37.494413 3.5732777,0 0,3.235264 -3.5732777,0 z m 3.7181383,4.152726 5.0701921,0 0,4.635603 -5.0701921,0 z m -0.8400748,-4.152726 3.0322019,0 c 1.59445,0 2.878065,1.292632 2.878065,2.898278 l 0,2.991773 c 0,1.605645 -1.283615,2.898278 -2.878065,2.898278 l -3.0322019,0 c -1.5944488,0 -2.8780635,-1.292633 -2.8780635,-2.898278 l 0,-2.991773 c 0,-1.605646 1.2836147,-2.898278 2.8780635,-2.898278 z"
         style="fill:url(#linearGradient3525);fill-opacity:1;fill-rule:nonzero;stroke:none"
         id="path3499"
         inkscape:connector-curvature="0" />
      <path
         inkscape:connector-curvature="0"
         id="path3501"
         style="fill:url(#linearGradient3527);fill-opacity:1;fill-rule:nonzero;stroke:none"
         d="m 18.081731,33.958881 2.751834,0 0,2.491525 -2.751834,0 z m 2.863395,3.198077 3.904629,0 0,3.569947 -3.904629,0 z m -0.646955,-3.198077 2.335144,0 c 1.227907,0 2.21644,0.995475 2.21644,2.232008 l 0,2.304008 c 0,1.236532 -0.988533,2.232007 -2.21644,2.232007 l -2.335144,0 c -1.227908,0 -2.21644,-0.995475 -2.21644,-2.232007 l 0,-2.304008 c 0,-1.236533 0.988532,-2.232008 2.21644,-2.232008 z" />
      <path
         inkscape:connector-curvature="0"
         id="path3503"
         style="fill:url(#linearGradient3529);fill-opacity:1;fill-rule:nonzero;stroke:none"
         d="m 31.92082,9.3111572 5.585813,0 0,5.0574238 -5.585813,0 z m 5.812261,6.4916168 7.925817,0 0,7.246459 -7.925817,0 z m -1.31322,-6.4916168 4.739993,0 c 2.492474,0 4.499044,2.0206658 4.499044,4.5306408 l 0,4.676794 c 0,2.509974 -2.00657,4.530641 -4.499044,4.530641 l -4.739993,0 c -2.492471,0 -4.499041,-2.020667 -4.499041,-4.530641 l 0,-4.676794 c 0,-2.509975 2.00657,-4.5306408 4.499041,-4.5306408 z" />
      <path
         inkscape:connector-curvature="0"
         id="path3505"
         style="fill:url(#linearGradient3531);fill-opacity:1;fill-rule:nonzero;stroke:none"
         d="m 36.264477,1.3309536 2.751834,0 0,2.4915254 -2.751834,0 z m 2.863395,3.1980774 3.904629,0 0,3.569947 -3.904629,0 z m -0.646955,-3.1980774 2.335144,0 c 1.227907,0 2.21644,0.9954754 2.21644,2.2320079 l 0,2.3040085 c 0,1.236532 -0.988533,2.232007 -2.21644,2.232007 l -2.335144,0 c -1.227908,0 -2.21644,-0.995475 -2.21644,-2.232007 l 0,-2.3040085 c 0,-1.2365325 0.988532,-2.2320079 2.21644,-2.2320079 z" />
      <path
         d="m 31.415743,25.776644 1.396454,0 0,1.264357 -1.396454,0 z m 1.453066,1.622905 1.981455,0 0,1.811616 -1.981455,0 z m -0.328305,-1.622905 1.184999,0 c 0.623118,0 1.124761,0.505167 1.124761,1.132661 l 0,1.169199 c 0,0.627494 -0.501643,1.132661 -1.124761,1.132661 l -1.184999,0 c -0.623118,0 -1.124761,-0.505167 -1.124761,-1.132661 l 0,-1.169199 c 0,-0.627494 0.501643,-1.132661 1.124761,-1.132661 z"
         style="fill:url(#linearGradient3533);fill-opacity:1;fill-rule:nonzero;stroke:none"
         id="path3507"
         inkscape:connector-curvature="0" />
    </g>
  </g>
</svg>
