/* XPM */
static char *close_active[] = {
/* columns rows colors chars-per-pixel */
"24 24 41 1 ",
"  c #475ED1",
". c #485FD1",
"X c #4960D1",
"o c #4B62D3",
"O c #4D63D1",
"+ c #4C62D2",
"@ c #4E64D1",
"# c #4F65D2",
"$ c #5065D2",
"% c #596DD4",
"& c #5A6ED5",
"* c #6275D2",
"= c #6375D3",
"- c #6376D3",
"; c #6477D3",
": c #8E9AD5",
"> c #8F9BD5",
", c #A9B0D7",
"< c #A9B1D7",
"1 c #AAB1D6",
"2 c #CCCED8",
"3 c #CDCFD8",
"4 c #CECFD8",
"5 c gray85",
"6 c #C0C6E6",
"7 c #C4C9E7",
"8 c #C5CAE7",
"9 c #C8CDE8",
"0 c #CACFE9",
"q c #CCD1E9",
"w c #D3D7EA",
"e c #D6D9EB",
"r c #D7DAEB",
"t c #D7DBEB",
"y c #D8DBEC",
"u c #D8DCEC",
"i c #DDDFED",
"p c #EEEEEE",
"a c #F5F5F7",
"s c #F7F7F8",
"d c #F8F8F9",
/* pixels */
"pppppppppppppppppppppppp",
"555555555555555555555555",
"555555555555555555555555",
"555555555555555555555555",
"555555555555555555555555",
"555555552:=OO-:255555555",
"5555555,@      @<5555555",
"555555,.        .<555555",
"555552@  &    %  #355555",
"55555:   seXXwd   :55555",
"55555*   8dytd0   -55555",
"55555@    9ddq    @55555",
"55555@   ouddi+   #55555",
"55555=   rd77dr   -55555",
"55555:   a6  6a   >55555",
"555552@          $455555",
"555555<.        .1555555",
"5555555<#      $15555555",
"555555553:;@@;>455555555",
"555555555555555555555555",
"555555555555555555555555",
"555555555555555555555555",
"555555555555555555555555",
"555555555555555555555555"
};
