/* XPM */
static char *close_prelight[] = {
/* columns rows colors chars-per-pixel */
"24 24 42 1 ",
"  c #5599DD",
". c #5699DD",
"X c #579BDD",
"o c #599BDD",
"O c #5A9BDC",
"+ c #5B9CDD",
"@ c #5A9CDE",
"# c #5C9CDD",
"$ c #5C9DDD",
"% c #5D9DDD",
"& c #65A2DF",
"* c #67A3DF",
"= c #6DA5DC",
"- c #6EA5DC",
"; c #6FA6DD",
": c #95B8DB",
"> c #96B8DB",
", c #96B9DC",
"< c #ADC4DB",
"1 c #AEC4DA",
"2 c #AEC4DB",
"3 c #CDD3D9",
"4 c #CED4D9",
"5 c #CFD4D9",
"6 c gray85",
"7 c #C4D6E9",
"8 c #C7D8EA",
"9 c #C8D9EA",
"0 c #CBDBEB",
"q c #CDDCEB",
"w c #CFDDEC",
"e c #D5E0EC",
"r c #D8E2ED",
"t c #D8E3ED",
"y c #D9E3ED",
"u c #DAE4ED",
"i c #DBE4ED",
"p c #DEE6EF",
"a c #EEEEEE",
"s c #F5F5F7",
"d c #F7F7F8",
"f c #F8F8F9",
/* pixels */
"aaaaaaaaaaaaaaaaaaaaaaaa",
"666666666666666666666666",
"666666666666666666666666",
"666666666666666666666666",
"666666666666666666666666",
"666666663:-OO;,366666666",
"6666666<#      #26666666",
"666666<.        .2666666",
"666663#  *    &  $466666",
"66666:   drXXef   :66666",
"66666=   9fuyfq   ;66666",
"66666#    0ffw    #66666",
"66666#   oiffp@   $66666",
"66666-   tf88fy   ;66666",
"66666,   s7  7s   >66666",
"666663#          %566666",
"6666662.        .1666666",
"66666662$      %16666666",
"666666664:;++;>566666666",
"666666666666666666666666",
"666666666666666666666666",
"666666666666666666666666",
"666666666666666666666666",
"666666666666666666666666"
};
