/* XPM */
static char *close_active[] = {
/* columns rows colors chars-per-pixel */
"24 24 36 1 ",
"  c #2F2F2F",
". c gray19",
"X c #313230",
"o c #373737",
"O c #383B36",
"+ c #3D3F3B",
"@ c #3E403C",
"# c #3E413C",
"$ c #535D49",
"% c #56624B",
"& c #58634C",
"* c #59654E",
"= c #5F6D52",
"- c #606E52",
"; c #61675A",
": c #62685B",
"> c #627054",
", c #647355",
"< c #657456",
"1 c #677757",
"2 c #737A6B",
"3 c #747B6C",
"4 c #80827F",
"5 c #81857C",
"6 c #82847F",
"7 c #8B987E",
"8 c #8B987F",
"9 c #94AC7D",
"0 c #95AC7D",
"q c #96AE7D",
"w c #95B178",
"e c #99B77B",
"r c #99B67D",
"t c #9AB87C",
"y c #818280",
"u c #838680",
/* pixels */
"oooooooooooooooooooooooo",
"                        ",
"                        ",
"                        ",
"         .              ",
"        #35y453#        ",
"       :u70rr075:.      ",
"      :u0rttttt05:      ",
"    O#50twttttwt0u@     ",
"    X3utt.*te*.tt72     ",
"     59rt< %* >et05     ",
"     5tttt>  -teer4     ",
"     5rree&. $ertr4     ",
"    .50re* << *et05     ",
"    .37ttO1tt<Oet72     ",
"    .#50tttttttt04+     ",
"      :50ttttte05:      ",
"       :470rr074:.      ",
"        #25u453@.       ",
"                        ",
"                        ",
"                        ",
"                        ",
"                        "
};
