/* XPM */
static char *close_pressed[] = {
/* columns rows colors chars-per-pixel */
"24 24 39 1 ",
"  c #2F2F2F",
". c gray19",
"X c #303130",
"o c #373737",
"O c #353832",
"+ c #3A3D37",
"@ c #3B3E39",
"# c #3C3D39",
"$ c #46523A",
"% c #49553B",
"& c #4A573C",
"* c #4B593D",
"= c #4F5E3E",
"- c #50603F",
"; c #585F50",
": c #526340",
"> c #536541",
", c #5A6152",
"< c #6A7261",
"1 c #6A7361",
"2 c #6A7362",
"3 c #70904F",
"4 c #739551",
"5 c #749651",
"6 c #759553",
"7 c #759554",
"8 c #759654",
"9 c #76925A",
"0 c #77925A",
"q c #77915C",
"w c #77925C",
"e c #7B896C",
"r c #7B8A6C",
"t c #7B8075",
"y c #7B8176",
"u c #7F827B",
"i c #7F817C",
"p c #7F807D",
"a c #7F817E",
/* pixels */
"oooooooooooooooooooooooo",
"                        ",
"                        ",
"                        ",
"                        ",
"        @2tppt2@        ",
"       ,prw889ep;       ",
"      ,u05555559p;      ",
" ... $a854555535wu$     ",
" ... 2r84 *35*X58r<     ",
"  .. <w84-X%%X-5882     ",
"  ..op8855-  =558wa     ",
"     2w855%X $4458a     ",
"    Xtw85%X-> &559yX    ",
"     2r55O>55>O53e2     ",
"     @p9555555559u+     ",
"      ;2w555558wp,      ",
"      o,atq77qtp;       ",
"    ..o.#<p<222#        ",
"     .....o oooo        ",
"                        ",
"                        ",
"                        ",
"                        "
};
