<?xml version="1.0" encoding="UTF-8" standalone="no"?>
<!-- Created with Inkscape (http://www.inkscape.org/) -->

<svg
   xmlns:dc="http://purl.org/dc/elements/1.1/"
   xmlns:cc="http://creativecommons.org/ns#"
   xmlns:rdf="http://www.w3.org/1999/02/22-rdf-syntax-ns#"
   xmlns:svg="http://www.w3.org/2000/svg"
   xmlns="http://www.w3.org/2000/svg"
   xmlns:xlink="http://www.w3.org/1999/xlink"
   version="1.1"
   width="64"
   height="22"
   id="svg3273">
  <defs
     id="defs3275">
    <linearGradient
       id="linearGradient3824-1">
      <stop
         id="stop3826-7"
         style="stop-color:#d7d7d7;stop-opacity:1"
         offset="0" />
      <stop
         id="stop3828-5"
         style="stop-color:#f3f3f3;stop-opacity:1"
         offset="1" />
    </linearGradient>
    <linearGradient
       x1="-29.28952"
       y1="19.021994"
       x2="-29.594671"
       y2="6.0328393"
       id="linearGradient3792"
       xlink:href="#linearGradient3824-1"
       gradientUnits="userSpaceOnUse"
       gradientTransform="matrix(0.97877002,0,0,1.0061319,-0.45641549,-0.35604116)" />
    <linearGradient
       x1="-29.28952"
       y1="19.021994"
       x2="-29.594671"
       y2="6.0328393"
       id="linearGradient3102"
       xlink:href="#linearGradient3824-1-7"
       gradientUnits="userSpaceOnUse"
       gradientTransform="matrix(0.97877002,0,0,1.0061319,-0.45641549,-0.35604116)" />
    <linearGradient
       id="linearGradient3824-1-7">
      <stop
         id="stop3826-7-6"
         style="stop-color:#d7d7d7;stop-opacity:1"
         offset="0" />
      <stop
         id="stop3828-5-0"
         style="stop-color:#f3f3f3;stop-opacity:1"
         offset="1" />
    </linearGradient>
    <linearGradient
       x1="-29.28952"
       y1="19.021994"
       x2="-29.594671"
       y2="6.0328393"
       id="linearGradient4026"
       xlink:href="#linearGradient3824-1-7"
       gradientUnits="userSpaceOnUse"
       gradientTransform="matrix(0.97877002,0,0,1.0061319,1.3294138,-34.372663)" />
    <linearGradient
       x1="-29.28952"
       y1="19.021994"
       x2="-29.594671"
       y2="6.0328393"
       id="linearGradient4047"
       xlink:href="#linearGradient3824-1"
       gradientUnits="userSpaceOnUse"
       gradientTransform="matrix(0.97877002,0,0,1.0061319,-0.45641549,-0.35604116)" />
  </defs>
  <metadata
     id="metadata3278">
    <rdf:RDF>
      <cc:Work
         rdf:about="">
        <dc:format>image/svg+xml</dc:format>
        <dc:type
           rdf:resource="http://purl.org/dc/dcmitype/StillImage" />
        <dc:title></dc:title>
      </cc:Work>
    </rdf:RDF>
  </metadata>
  <g
     id="g4057">
    <rect
       width="63.789986"
       height="21.973034"
       rx="4.0501571"
       ry="4.6259027"
       x="-63.891575"
       y="0.23010544"
       transform="scale(-1,1)"
       id="rect3807-1"
       style="opacity:0.10747663;color:#000000;fill:#000000;fill-opacity:1;stroke:none;stroke-width:0.99999994;marker:none;visibility:visible;display:inline;overflow:visible;enable-background:accumulate" />
    <rect
       width="62.412865"
       height="20.949207"
       rx="3.9627211"
       ry="4.4103599"
       x="-63.162514"
       y="0.70264041"
       transform="scale(-1,1)"
       id="rect3805-6"
       style="opacity:0.20093456;color:#000000;fill:#000000;fill-opacity:1;stroke:none;stroke-width:0.99999994;marker:none;visibility:visible;display:inline;overflow:visible;enable-background:accumulate" />
    <rect
       width="61.197754"
       height="19.76787"
       rx="3.8855712"
       ry="4.1616573"
       x="-62.514454"
       y="1.2539314"
       transform="scale(-1,1)"
       id="rect3803-9"
       style="opacity:0.35514018;color:#000000;fill:#000000;fill-opacity:1;stroke:none;stroke-width:0.99999994;marker:none;visibility:visible;display:inline;overflow:visible;enable-background:accumulate" />
    <rect
       width="60.144665"
       height="18.822802"
       rx="3.8187084"
       ry="3.9626954"
       x="-61.899956"
       y="1.7716398"
       transform="scale(-1,1)"
       id="rect3799-8"
       style="opacity:0.5373832;color:#000000;fill:#000000;fill-opacity:1;stroke:none;stroke-width:0.99999994;marker:none;visibility:visible;display:inline;overflow:visible;enable-background:accumulate" />
    <rect
       width="61.662514"
       height="19.116507"
       rx="3.9150801"
       ry="4.0245275"
       x="-62.810379"
       y="0.80696011"
       transform="scale(-1,1)"
       id="rect17456-1"
       style="color:#000000;fill:url(#linearGradient4047);fill-opacity:1;stroke:#414141;stroke-width:1.09726048;stroke-linecap:round;stroke-linejoin:miter;stroke-miterlimit:4;stroke-opacity:0.77956986;stroke-dasharray:none;stroke-dashoffset:0;marker:none;visibility:visible;display:inline;overflow:visible;enable-background:accumulate" />
    <path
       d="m 27.400457,1.3364366 7.967265,8.8705324 -6.968482,9.362506 30.712939,-0.167187 c 0,0 3.064842,-0.535001 3.129365,-2.97594 0.03951,-1.49481 0,-12.2046954 0,-12.2046954 0,0 -0.322615,-2.7084393 -3.419719,-2.8421894 C 55.724722,1.2457131 27.400457,1.3364366 27.400457,1.3364366 z"
       id="path5209-3"
       style="fill:#cdcdcd;fill-opacity:1;stroke:none" />
    <path
       d="m 27.392552,1.3303558 8.29977,8.9019462 -7.622238,9.150862"
       id="path3795-3"
       style="fill:none;stroke:#666666;stroke-width:1.08945918px;stroke-linecap:round;stroke-linejoin:miter;stroke-opacity:1" />
    <rect
       width="3.0497704"
       height="6.4056797"
       rx="0.48335642"
       ry="0.56324118"
       x="9.0258455"
       y="6.88485"
       id="rect3827-3"
       style="fill:#ffffff;fill-opacity:1;stroke:none" />
    <rect
       width="1.9755003"
       height="5.3534117"
       rx="0.31309599"
       ry="0.47071692"
       x="9.4593344"
       y="7.3881259"
       id="rect5022-7"
       style="fill:#515151;fill-opacity:1;stroke:none" />
    <rect
       width="3.0497704"
       height="6.4056797"
       rx="0.48335642"
       ry="0.56324118"
       x="18.775846"
       y="6.9786"
       id="rect5052-9"
       style="fill:#ffffff;fill-opacity:1;stroke:none" />
    <rect
       width="3.0497704"
       height="6.4056797"
       rx="0.48335642"
       ry="0.56324118"
       x="13.963346"
       y="6.9786"
       id="rect3825-8"
       style="fill:#ffffff;fill-opacity:1;stroke:none" />
    <rect
       width="1.9755003"
       height="5.3534117"
       rx="0.31309599"
       ry="0.47071692"
       x="14.459334"
       y="7.4506259"
       id="rect3821-6"
       style="fill:#515151;fill-opacity:1;stroke:none" />
    <rect
       width="1.9755003"
       height="5.3534117"
       rx="0.31309599"
       ry="0.47071692"
       x="19.334335"
       y="7.4506259"
       id="rect3823-7"
       style="fill:#515151;fill-opacity:1;stroke:none" />
    <g
       transform="matrix(0.99174975,0,0,1.0083189,32.29996,0.89563921)"
       id="g4053"
       style="font-size:16.13866234px;font-style:normal;font-variant:normal;font-weight:normal;font-stretch:normal;line-height:125%;letter-spacing:0px;word-spacing:0px;fill:#fefefe;fill-opacity:0.63020833;stroke:none;font-family:Ubuntu;-inkscape-font-specification:Ubuntu">
      <path
         d="m 11.040132,9.843357 c -10e-7,-0.957554 0.139867,-1.8021432 0.419605,-2.53377 0.290495,-0.7316105 0.677822,-1.3394995 1.161984,-1.8236688 0.494916,-0.4949085 1.065148,-0.8660974 1.710698,-1.1135677 0.656301,-0.2474482 1.350263,-0.3711778 2.081888,-0.3711892 0.720853,1.14e-5 1.398676,0.123741 2.033471,0.3711892 0.645538,0.2474703 1.21039,0.6186592 1.69456,1.1135677 0.484149,0.4841693 0.866097,1.0920583 1.145845,1.8236688 0.290484,0.7316268 0.435732,1.576216 0.435744,2.53377 -1.2e-5,0.957565 -0.14526,1.802154 -0.435744,2.53377 -0.279748,0.731622 -0.661696,1.34489 -1.145845,1.839808 -0.48417,0.48416 -1.049022,0.849969 -1.69456,1.097429 -0.634795,0.247459 -1.312618,0.371189 -2.033471,0.371189 -0.731625,0 -1.425587,-0.12373 -2.081888,-0.371189 -0.64555,-0.24746 -1.215782,-0.613269 -1.710698,-1.097429 -0.484162,-0.494918 -0.871489,-1.108186 -1.161984,-1.839808 -0.279738,-0.731616 -0.419606,-1.576205 -0.419605,-2.53377 m 1.646144,0 c -3e-6,0.677829 0.08607,1.296477 0.258218,1.855946 0.172143,0.548718 0.414223,1.016739 0.72624,1.404064 0.322769,0.38733 0.710097,0.688584 1.161984,0.903765 0.462636,0.204424 0.979073,0.306636 1.549311,0.306634 0.570226,2e-6 1.081283,-0.10221 1.533173,-0.306634 0.451875,-0.215181 0.833823,-0.516435 1.145845,-0.903765 0.322764,-0.387325 0.570224,-0.855346 0.742379,-1.404064 0.172136,-0.559469 0.258208,-1.178117 0.258218,-1.855946 -10e-6,-0.6778175 -0.08608,-1.2910861 -0.258218,-1.8398075 C 19.631271,7.4440839 19.383811,6.9706836 19.061047,6.5833472 18.749025,6.1960286 18.367077,5.9001534 17.915202,5.6957208 17.463312,5.4805486 16.952255,5.3729576 16.382029,5.3729476 c -0.570238,1e-5 -1.086675,0.107601 -1.549311,0.3227732 -0.451887,0.2044326 -0.839215,0.5003078 -1.161984,0.8876264 -0.312017,0.3873364 -0.554097,0.8607367 -0.72624,1.4202023 -0.172148,0.5487214 -0.258221,1.16199 -0.258218,1.8398075"
         id="path4055"
         style="fill:#fefefe;fill-opacity:0.63020833" />
    </g>
    <g
       transform="matrix(0.99174975,0,0,1.0083189,32.368778,-0.06780177)"
       id="text4324"
       style="font-size:16.13866234px;font-style:normal;font-variant:normal;font-weight:normal;font-stretch:normal;line-height:125%;letter-spacing:0px;word-spacing:0px;fill:#5a5a5a;fill-opacity:1;stroke:none;font-family:Ubuntu;-inkscape-font-specification:Ubuntu">
      <path
         d="m 11.040132,9.843357 c -10e-7,-0.957554 0.139867,-1.8021432 0.419605,-2.53377 0.290495,-0.7316105 0.677822,-1.3394995 1.161984,-1.8236688 0.494916,-0.4949085 1.065148,-0.8660974 1.710698,-1.1135677 0.656301,-0.2474482 1.350263,-0.3711778 2.081888,-0.3711892 0.720853,1.14e-5 1.398676,0.123741 2.033471,0.3711892 0.645538,0.2474703 1.21039,0.6186592 1.69456,1.1135677 0.484149,0.4841693 0.866097,1.0920583 1.145845,1.8236688 0.290484,0.7316268 0.435732,1.576216 0.435744,2.53377 -1.2e-5,0.957565 -0.14526,1.802154 -0.435744,2.53377 -0.279748,0.731622 -0.661696,1.34489 -1.145845,1.839808 -0.48417,0.48416 -1.049022,0.849969 -1.69456,1.097429 -0.634795,0.247459 -1.312618,0.371189 -2.033471,0.371189 -0.731625,0 -1.425587,-0.12373 -2.081888,-0.371189 -0.64555,-0.24746 -1.215782,-0.613269 -1.710698,-1.097429 -0.484162,-0.494918 -0.871489,-1.108186 -1.161984,-1.839808 -0.279738,-0.731616 -0.419606,-1.576205 -0.419605,-2.53377 m 1.646144,0 c -3e-6,0.677829 0.08607,1.296477 0.258218,1.855946 0.172143,0.548718 0.414223,1.016739 0.72624,1.404064 0.322769,0.38733 0.710097,0.688584 1.161984,0.903765 0.462636,0.204424 0.979073,0.306636 1.549311,0.306634 0.570226,2e-6 1.081283,-0.10221 1.533173,-0.306634 0.451875,-0.215181 0.833823,-0.516435 1.145845,-0.903765 0.322764,-0.387325 0.570224,-0.855346 0.742379,-1.404064 0.172136,-0.559469 0.258208,-1.178117 0.258218,-1.855946 -10e-6,-0.6778175 -0.08608,-1.2910861 -0.258218,-1.8398075 C 19.631271,7.4440839 19.383811,6.9706836 19.061047,6.5833472 18.749025,6.1960286 18.367077,5.9001534 17.915202,5.6957208 17.463312,5.4805486 16.952255,5.3729576 16.382029,5.3729476 c -0.570238,1e-5 -1.086675,0.107601 -1.549311,0.3227732 -0.451887,0.2044326 -0.839215,0.5003078 -1.161984,0.8876264 -0.312017,0.3873364 -0.554097,0.8607367 -0.72624,1.4202023 -0.172148,0.5487214 -0.258221,1.16199 -0.258218,1.8398075"
         id="path4390"
         style="fill:#5a5a5a;fill-opacity:1" />
    </g>
  </g>
</svg>
