/* XPM */
static char *close_pressed[] = {
/* columns rows colors chars-per-pixel */
"24 24 18 1 ",
"  c #2F2F2F",
". c gray19",
"X c #323232",
"o c gray20",
"O c gray22",
"+ c gray23",
"@ c #3C3C3C",
"# c gray24",
"$ c #3E3E3E",
"% c #3F3F3F",
"& c gray25",
"* c #414141",
"= c gray26",
"- c #4C4C4C",
"; c gray30",
": c #515151",
"> c gray32",
", c #535353",
/* pixels */
"OOOOOOOOOOOOOOOOOOOOOOOO",
"oooooooooooooooooooooooo",
"                        ",
"                        ",
"                        ",
"        X=-::-=X        ",
"       +:,,,,,,:+       ",
"      +,,,,,,,,,,+      ",
"     X:,,:,,,,:,,:X     ",
"     =,,,.$>>$.,,,*     ",
"     ;,,,* @# %,,,-     ",
"     :,,,,&  %,,,,:     ",
"     :,,,,@  +,,,,:     ",
"     -,,,# ** #,,,-     ",
"     =,,,X=,,=X,,,*     ",
"     X:,,,,,,,,,,:X     ",
"      +,,,,,,,,,,+      ",
"       +:,,,,,,:+       ",
"        X*-::-*X        ",
"                        ",
"                        ",
"                        ",
"                        ",
"                        "
};
