/* XPM */
static char *close_active[] = {
/* columns rows colors chars-per-pixel */
"24 24 24 1 ",
"  c #2F2F2F",
". c gray19",
"X c gray20",
"o c #343434",
"O c #353535",
"+ c gray22",
"@ c #464646",
"# c gray28",
"$ c #494949",
"% c gray29",
"& c #4B4B4B",
"* c #4C4C4C",
"= c gray31",
"- c #505050",
"; c #515151",
": c gray32",
"> c #535353",
", c gray33",
"< c #686868",
"1 c DimGray",
"2 c #727272",
"3 c gray45",
"4 c gray46",
"5 c #767676",
/* pixels */
"++++++++++++++++++++++++",
"XXXXXXXXXXXXXXXXXXXXXXXX",
"                        ",
"                        ",
"                        ",
"        O,133<,O        ",
"       @25555552#       ",
"      @5555555555#      ",
"     O255255553553O     ",
"     ,555.&44*.555>     ",
"     1555: $% -555<     ",
"     25555;  =55552     ",
"     25555$  #45553     ",
"     1555& :: %555<     ",
"     ,555O,55,O555>     ",
"     O255555555552o     ",
"      #5555555555@      ",
"       #35555552@       ",
"        O><22<>o        ",
"                        ",
"                        ",
"                        ",
"                        ",
"                        "
};
