<?xml version="1.0" encoding="UTF-8" standalone="no"?>
<!-- Created with Inkscape (http://www.inkscape.org/) -->

<svg
   xmlns:dc="http://purl.org/dc/elements/1.1/"
   xmlns:cc="http://creativecommons.org/ns#"
   xmlns:rdf="http://www.w3.org/1999/02/22-rdf-syntax-ns#"
   xmlns:svg="http://www.w3.org/2000/svg"
   xmlns="http://www.w3.org/2000/svg"
   xmlns:xlink="http://www.w3.org/1999/xlink"
   xmlns:sodipodi="http://sodipodi.sourceforge.net/DTD/sodipodi-0.dtd"
   xmlns:inkscape="http://www.inkscape.org/namespaces/inkscape"
   width="130"
   height="129.9976"
   id="svg2980"
   version="1.1"
   inkscape:version="0.91 r13725"
   sodipodi:docname="corner-ripple.svg">
  <defs
     id="defs2982">
    <inkscape:perspective
       sodipodi:type="inkscape:persp3d"
       inkscape:vp_x="0 : 526.18109 : 1"
       inkscape:vp_y="0 : 1000 : 0"
       inkscape:vp_z="744.09448 : 526.18109 : 1"
       inkscape:persp3d-origin="372.04724 : 350.78739 : 1"
       id="perspective2988" />
    <inkscape:perspective
       id="perspective2955"
       inkscape:persp3d-origin="0.5 : 0.33333333 : 1"
       inkscape:vp_z="1 : 0.5 : 1"
       inkscape:vp_y="0 : 1000 : 0"
       inkscape:vp_x="0 : 0.5 : 1"
       sodipodi:type="inkscape:persp3d" />
    <linearGradient
       id="linearGradient3431">
      <stop
         id="stop3433"
         offset="0"
         style="stop-color:#3d3d3d;stop-opacity:1;" />
      <stop
         id="stop3435"
         offset="1"
         style="stop-color:#000000;stop-opacity:0.11400651;" />
    </linearGradient>
    <linearGradient
       id="linearGradient3312">
      <stop
         style="stop-color:#c7f994;stop-opacity:1;"
         offset="0"
         id="stop3314" />
      <stop
         style="stop-color:#87cf3e;stop-opacity:1;"
         offset="1"
         id="stop3316" />
    </linearGradient>
    <linearGradient
       inkscape:collect="always"
       xlink:href="#linearGradient3312"
       id="linearGradient3048"
       gradientUnits="userSpaceOnUse"
       gradientTransform="matrix(2.7085493,0,0,2.7085493,543.08426,-420.26637)"
       x1="61.42857"
       y1="362.14285"
       x2="116.42857"
       y2="408.57144" />
    <linearGradient
       inkscape:collect="always"
       xlink:href="#linearGradient3431"
       id="linearGradient3050"
       gradientUnits="userSpaceOnUse"
       gradientTransform="translate(0,80)"
       spreadMethod="pad"
       x1="70.491508"
       y1="416.38858"
       x2="113.64215"
       y2="375.87961" />
    <linearGradient
       inkscape:collect="always"
       xlink:href="#linearGradient3312"
       id="linearGradient3012"
       gradientUnits="userSpaceOnUse"
       gradientTransform="matrix(6.3016252,0,0,6.3016252,-247.67412,-1975.5116)"
       x1="61.42857"
       y1="362.14285"
       x2="116.42857"
       y2="408.57144" />
    <filter
       color-interpolation-filters="sRGB"
       id="filter3546-2">
      <feGaussianBlur
         id="feGaussianBlur3548-5"
         stdDeviation="0.15992437" />
    </filter>
    <linearGradient
       id="linearGradient3431-5">
      <stop
         id="stop3433-7"
         style="stop-color:#3d3d3d;stop-opacity:1"
         offset="0" />
      <stop
         id="stop3435-6"
         style="stop-color:#000000;stop-opacity:0.11400651"
         offset="1" />
    </linearGradient>
    <filter
       color-interpolation-filters="sRGB"
       id="filter3291">
      <feGaussianBlur
         id="feGaussianBlur3293"
         stdDeviation="0.400625" />
    </filter>
    <linearGradient
       id="linearGradient3312-6">
      <stop
         id="stop3314-7"
         style="stop-color:#c7f994;stop-opacity:1"
         offset="0" />
      <stop
         id="stop3316-6"
         style="stop-color:#87cf3e;stop-opacity:1"
         offset="1" />
    </linearGradient>
    <filter
       color-interpolation-filters="sRGB"
       id="filter3573">
      <feGaussianBlur
         id="feGaussianBlur3575"
         stdDeviation="1.6284922" />
    </filter>
    <filter
       color-interpolation-filters="sRGB"
       id="filter3546-2-4">
      <feGaussianBlur
         id="feGaussianBlur3548-5-2"
         stdDeviation="0.15992437" />
    </filter>
    <filter
       color-interpolation-filters="sRGB"
       id="filter3291-9">
      <feGaussianBlur
         id="feGaussianBlur3293-6"
         stdDeviation="0.400625" />
    </filter>
    <filter
       color-interpolation-filters="sRGB"
       id="filter3573-1">
      <feGaussianBlur
         id="feGaussianBlur3575-0"
         stdDeviation="1.6284922" />
    </filter>
    <filter
       color-interpolation-filters="sRGB"
       id="filter3546-2-2">
      <feGaussianBlur
         id="feGaussianBlur3548-5-3"
         stdDeviation="0.15992437" />
    </filter>
    <filter
       color-interpolation-filters="sRGB"
       id="filter3291-8">
      <feGaussianBlur
         id="feGaussianBlur3293-64"
         stdDeviation="0.400625" />
    </filter>
    <filter
       color-interpolation-filters="sRGB"
       id="filter3573-5">
      <feGaussianBlur
         id="feGaussianBlur3575-3"
         stdDeviation="1.6284922" />
    </filter>
    <filter
       color-interpolation-filters="sRGB"
       id="filter3546-2-3">
      <feGaussianBlur
         id="feGaussianBlur3548-5-4"
         stdDeviation="0.15992437" />
    </filter>
    <filter
       color-interpolation-filters="sRGB"
       id="filter3291-88">
      <feGaussianBlur
         id="feGaussianBlur3293-0"
         stdDeviation="0.400625" />
    </filter>
    <filter
       color-interpolation-filters="sRGB"
       id="filter3573-2">
      <feGaussianBlur
         id="feGaussianBlur3575-31"
         stdDeviation="1.6284922" />
    </filter>
    <filter
       color-interpolation-filters="sRGB"
       id="filter3573-4">
      <feGaussianBlur
         id="feGaussianBlur3575-2"
         stdDeviation="1.6284922" />
    </filter>
    <linearGradient
       inkscape:collect="always"
       xlink:href="#linearGradient3312-4"
       id="linearGradient3099"
       gradientUnits="userSpaceOnUse"
       gradientTransform="matrix(2.684162,0,0,2.684162,-89.865856,-904.32339)"
       x1="61.42857"
       y1="362.14285"
       x2="116.42857"
       y2="408.57144" />
    <linearGradient
       id="linearGradient3312-4">
      <stop
         id="stop3314-0"
         style="stop-color:#c7f994;stop-opacity:1"
         offset="0" />
      <stop
         id="stop3316-9"
         style="stop-color:#87cf3e;stop-opacity:1"
         offset="1" />
    </linearGradient>
    <linearGradient
       y2="408.57144"
       x2="116.42857"
       y1="362.14285"
       x1="61.42857"
       gradientTransform="matrix(0.69089261,0,0,0.69089261,-105.09373,527.37426)"
       gradientUnits="userSpaceOnUse"
       id="linearGradient3159"
       xlink:href="#linearGradient3312-4"
       inkscape:collect="always" />
    <filter
       color-interpolation-filters="sRGB"
       id="filter3546">
      <feGaussianBlur
         id="feGaussianBlur3548"
         stdDeviation="0.15992437" />
    </filter>
    <linearGradient
       id="linearGradient3431-9">
      <stop
         id="stop3433-3"
         style="stop-color:#3d3d3d;stop-opacity:1"
         offset="0" />
      <stop
         id="stop3435-69"
         style="stop-color:#000000;stop-opacity:0.11400651"
         offset="1" />
    </linearGradient>
    <filter
       color-interpolation-filters="sRGB"
       id="filter3291-4">
      <feGaussianBlur
         id="feGaussianBlur3293-3"
         stdDeviation="0.400625" />
    </filter>
    <linearGradient
       id="linearGradient3312-0">
      <stop
         id="stop3314-3"
         style="stop-color:#c7f994;stop-opacity:1"
         offset="0" />
      <stop
         id="stop3316-95"
         style="stop-color:#87cf3e;stop-opacity:1"
         offset="1" />
    </linearGradient>
    <filter
       color-interpolation-filters="sRGB"
       id="filter3573-3">
      <feGaussianBlur
         id="feGaussianBlur3575-7"
         stdDeviation="1.6284922" />
    </filter>
    <filter
       color-interpolation-filters="sRGB"
       id="filter3573-3-8">
      <feGaussianBlur
         id="feGaussianBlur3575-7-9"
         stdDeviation="1.6284922" />
    </filter>
    <filter
       color-interpolation-filters="sRGB"
       id="filter3573-3-8-7">
      <feGaussianBlur
         id="feGaussianBlur3575-7-9-7"
         stdDeviation="1.6284922" />
    </filter>
    <filter
       color-interpolation-filters="sRGB"
       id="filter3546-0">
      <feGaussianBlur
         id="feGaussianBlur3548-7"
         stdDeviation="0.15992437" />
    </filter>
    <linearGradient
       inkscape:collect="always"
       xlink:href="#linearGradient3431-9-3"
       id="linearGradient3091-2"
       gradientUnits="userSpaceOnUse"
       gradientTransform="translate(0,80)"
       spreadMethod="pad"
       x1="70.491508"
       y1="416.38858"
       x2="113.64215"
       y2="375.87961" />
    <linearGradient
       id="linearGradient3431-9-3">
      <stop
         id="stop3433-3-2"
         style="stop-color:#3d3d3d;stop-opacity:1"
         offset="0" />
      <stop
         id="stop3435-69-6"
         style="stop-color:#000000;stop-opacity:0.11400651"
         offset="1" />
    </linearGradient>
    <filter
       color-interpolation-filters="sRGB"
       id="filter3291-4-3">
      <feGaussianBlur
         id="feGaussianBlur3293-3-2"
         stdDeviation="0.400625" />
    </filter>
    <filter
       color-interpolation-filters="sRGB"
       id="filter3573-3-8-7-2">
      <feGaussianBlur
         id="feGaussianBlur3575-7-9-7-5"
         stdDeviation="1.6284922" />
    </filter>
    <filter
       color-interpolation-filters="sRGB"
       id="filter3546-0-9">
      <feGaussianBlur
         id="feGaussianBlur3548-7-1"
         stdDeviation="0.15992437" />
    </filter>
    <linearGradient
       y2="375.87961"
       x2="113.64215"
       y1="416.38858"
       x1="70.491508"
       spreadMethod="pad"
       gradientTransform="translate(0,80)"
       gradientUnits="userSpaceOnUse"
       id="linearGradient4079-2"
       xlink:href="#linearGradient3431-9-3-4"
       inkscape:collect="always" />
    <linearGradient
       id="linearGradient3431-9-3-4">
      <stop
         id="stop3433-3-2-1"
         style="stop-color:#3d3d3d;stop-opacity:1"
         offset="0" />
      <stop
         id="stop3435-69-6-0"
         style="stop-color:#000000;stop-opacity:0.11400651"
         offset="1" />
    </linearGradient>
    <filter
       color-interpolation-filters="sRGB"
       id="filter3291-4-3-2">
      <feGaussianBlur
         id="feGaussianBlur3293-3-2-5"
         stdDeviation="0.400625" />
    </filter>
    <filter
       color-interpolation-filters="sRGB"
       id="filter3573-3-8-7-9">
      <feGaussianBlur
         id="feGaussianBlur3575-7-9-7-3"
         stdDeviation="1.6284922" />
    </filter>
    <filter
       color-interpolation-filters="sRGB"
       id="filter3546-0-0">
      <feGaussianBlur
         id="feGaussianBlur3548-7-3"
         stdDeviation="0.15992437" />
    </filter>
    <linearGradient
       y2="375.87961"
       x2="113.64215"
       y1="416.38858"
       x1="70.491508"
       spreadMethod="pad"
       gradientTransform="translate(0,80)"
       gradientUnits="userSpaceOnUse"
       id="linearGradient4079-6"
       xlink:href="#linearGradient3431-9-3-5"
       inkscape:collect="always" />
    <linearGradient
       id="linearGradient3431-9-3-5">
      <stop
         id="stop3433-3-2-0"
         style="stop-color:#3d3d3d;stop-opacity:1"
         offset="0" />
      <stop
         id="stop3435-69-6-2"
         style="stop-color:#000000;stop-opacity:0.11400651"
         offset="1" />
    </linearGradient>
    <filter
       color-interpolation-filters="sRGB"
       id="filter3291-4-3-7">
      <feGaussianBlur
         id="feGaussianBlur3293-3-2-8"
         stdDeviation="0.400625" />
    </filter>
    <filter
       inkscape:collect="always"
       id="filter3919"
       color-interpolation-filters="sRGB">
      <feGaussianBlur
         inkscape:collect="always"
         stdDeviation="1.8205649"
         id="feGaussianBlur3921" />
    </filter>
    <filter
       color-interpolation-filters="sRGB"
       inkscape:collect="always"
       id="filter3919-5">
      <feGaussianBlur
         inkscape:collect="always"
         stdDeviation="1.8205649"
         id="feGaussianBlur3921-7" />
    </filter>
    <filter
       color-interpolation-filters="sRGB"
       inkscape:collect="always"
       id="filter3919-0">
      <feGaussianBlur
         inkscape:collect="always"
         stdDeviation="1.8205649"
         id="feGaussianBlur3921-0" />
    </filter>
    <filter
       color-interpolation-filters="sRGB"
       inkscape:collect="always"
       id="filter3919-7">
      <feGaussianBlur
         inkscape:collect="always"
         stdDeviation="1.8205649"
         id="feGaussianBlur3921-8" />
    </filter>
    <filter
       inkscape:collect="always"
       id="filter3909"
       x="-0.34483543"
       width="1.6896709"
       y="-0.36110672"
       height="1.7222134"
       color-interpolation-filters="sRGB">
      <feGaussianBlur
         inkscape:collect="always"
         stdDeviation="5.5112528"
         id="feGaussianBlur3911" />
    </filter>
    <filter
       inkscape:collect="always"
       id="filter3913"
       x="-0.34483543"
       width="1.6896709"
       y="-0.36110672"
       height="1.7222134"
       color-interpolation-filters="sRGB">
      <feGaussianBlur
         inkscape:collect="always"
         stdDeviation="5.5112528"
         id="feGaussianBlur3915" />
    </filter>
    <filter
       inkscape:collect="always"
       id="filter3917"
       x="-0.34483543"
       width="1.6896709"
       y="-0.36110672"
       height="1.7222134"
       color-interpolation-filters="sRGB">
      <feGaussianBlur
         inkscape:collect="always"
         stdDeviation="5.5112528"
         id="feGaussianBlur3919" />
    </filter>
    <filter
       inkscape:collect="always"
       id="filter3921"
       x="-0.34483543"
       width="1.6896709"
       y="-0.36110672"
       height="1.7222134"
       color-interpolation-filters="sRGB">
      <feGaussianBlur
         inkscape:collect="always"
         stdDeviation="5.5112528"
         id="feGaussianBlur3923" />
    </filter>
  </defs>
  <sodipodi:namedview
     id="base"
     pagecolor="#9d9d9d"
     bordercolor="#666666"
     borderopacity="1.0"
     inkscape:pageopacity="1"
     inkscape:pageshadow="2"
     inkscape:zoom="5.6"
     inkscape:cx="52.26912"
     inkscape:cy="77.012235"
     inkscape:document-units="px"
     inkscape:current-layer="layer1"
     showgrid="false"
     showborder="true"
     inkscape:showpageshadow="false"
     inkscape:window-width="1280"
     inkscape:window-height="969"
     inkscape:window-x="0"
     inkscape:window-y="0"
     inkscape:window-maximized="1"
     fit-margin-top="3.08"
     fit-margin-left="0"
     fit-margin-right="0"
     fit-margin-bottom="3.07" />
  <metadata
     id="metadata2985">
    <rdf:RDF>
      <cc:Work
         rdf:about="">
        <dc:format>image/svg+xml</dc:format>
        <dc:type
           rdf:resource="http://purl.org/dc/dcmitype/StillImage" />
        <dc:title />
      </cc:Work>
    </rdf:RDF>
  </metadata>
  <g
     inkscape:label="Layer 1"
     inkscape:groupmode="layer"
     id="layer1"
     transform="translate(38.380918,-737.3124)">
    <path
       d="m 37.415502,715.456 c -2.248711,0 -4.246754,0.83487 -5.852143,2.45661 -1.604599,1.62084 -2.447107,3.64436 -2.447095,5.92796 l 0,11.5431 5.235639,0 0,-11.5431 c 0,-0.87527 0.285586,-1.55968 0.910537,-2.19096 0.627001,-0.63331 1.290952,-0.92001 2.153062,-0.92001 0.880183,0 1.534182,0.28526 2.162532,0.92001 0.624954,0.63128 0.910558,1.31569 0.910558,2.19096 l 0,11.5431 5.235636,0 0,-11.5431 c 0,-0.87527 0.285593,-1.55968 0.910547,-2.19096 0.628372,-0.63475 1.282361,-0.92001 2.162555,-0.92001 0.86212,0 1.526049,0.2867 2.153047,0.92001 0.624949,0.63128 0.910543,1.31569 0.910543,2.19096 l 0.0284,13.48755 c 0,2.87713 -2.739953,5.30198 -6.259992,5.30198 l -16.883036,-0.0664 c -2.716414,0 -5.036453,-2.64402 -5.036453,-6.04186 l 0,-25.39895 -4.951091,0 0,26.37586 c 0,2.79848 1.024035,5.25255 3.016185,7.23698 1.702742,1.68071 3.75052,2.77017 6.051331,3.01624 l 18.798969,-6e-5 c 2.888734,0 5.426622,-1.0741 7.474058,-3.15851 l 0.01021,0 c 1.741325,-1.78906 2.759301,-3.93274 3.006693,-6.34529 l -0.01897,-14.40757 c 0,-2.2836 -0.842479,-4.30711 -2.447091,-5.92796 -1.605386,-1.62173 -3.603438,-2.4566 -5.852134,-2.4566 -2.207291,0 -4.138675,0.8208 -5.700405,2.32376 -1.557163,-1.5005 -3.475044,-2.32376 -5.681424,-2.32376 z"
       id="path4130-0-6-0"
       style="fill:#000000;fill-opacity:1;fill-rule:evenodd;stroke:none;stroke-width:1.00006211;marker:none;visibility:visible;display:inline;overflow:visible;filter:url(#filter3921);enable-background:accumulate"
       inkscape:connector-curvature="0"
       transform="matrix(0.89196267,0,0,0.89196267,-35.998463,119.16269)" />
    <path
       d="m 37.415502,715.456 c -2.248711,0 -4.246754,0.83487 -5.852143,2.45661 -1.604599,1.62084 -2.447107,3.64436 -2.447095,5.92796 l 0,11.5431 5.235639,0 0,-11.5431 c 0,-0.87527 0.285586,-1.55968 0.910537,-2.19096 0.627001,-0.63331 1.290952,-0.92001 2.153062,-0.92001 0.880183,0 1.534182,0.28526 2.162532,0.92001 0.624954,0.63128 0.910558,1.31569 0.910558,2.19096 l 0,11.5431 5.235636,0 0,-11.5431 c 0,-0.87527 0.285593,-1.55968 0.910547,-2.19096 0.628372,-0.63475 1.282361,-0.92001 2.162555,-0.92001 0.86212,0 1.526049,0.2867 2.153047,0.92001 0.624949,0.63128 0.910543,1.31569 0.910543,2.19096 l 0.0284,13.48755 c 0,2.87713 -2.739953,5.30198 -6.259992,5.30198 l -16.883036,-0.0664 c -2.716414,0 -5.036453,-2.64402 -5.036453,-6.04186 l 0,-25.39895 -4.951091,0 0,26.37586 c 0,2.79848 1.024035,5.25255 3.016185,7.23698 1.702742,1.68071 3.75052,2.77017 6.051331,3.01624 l 18.798969,-6e-5 c 2.888734,0 5.426622,-1.0741 7.474058,-3.15851 l 0.01021,0 c 1.741325,-1.78906 2.759301,-3.93274 3.006693,-6.34529 l -0.01897,-14.40757 c 0,-2.2836 -0.842479,-4.30711 -2.447091,-5.92796 -1.605386,-1.62173 -3.603438,-2.4566 -5.852134,-2.4566 -2.207291,0 -4.138675,0.8208 -5.700405,2.32376 -1.557163,-1.5005 -3.475044,-2.32376 -5.681424,-2.32376 z"
       id="path4130-0-6-0-8"
       style="fill:#000000;fill-opacity:1;fill-rule:evenodd;stroke:none;stroke-width:1.00006211;marker:none;visibility:visible;display:inline;overflow:visible;filter:url(#filter3909);enable-background:accumulate"
       inkscape:connector-curvature="0"
       transform="matrix(0.89196267,0,0,0.89196267,-35.998463,184.03673)" />
    <path
       d="m -2.6249853,756.51154 c -2.0057664,0 -3.7879457,0.7447 -5.2198924,2.19123 -1.4312426,1.44573 -2.1827283,3.25063 -2.1827173,5.28753 l 0,10.29601 4.6699939,0 0,-10.29601 c 0,-0.78073 0.2547318,-1.39119 0.812165,-1.95428 0.5592611,-0.56486 1.1514806,-0.82059 1.9204508,-0.82059 0.7850894,0 1.3684329,0.25443 1.92889813,0.82059 0.55743461,0.56309 0.81218335,1.17355 0.81218335,1.95428 l 0,10.29601 4.66998982,0 0,-10.29601 c 0,-0.78073 0.2547411,-1.39119 0.8121742,-1.95428 0.5604854,-0.56616 1.143819,-0.82059 1.9289196,-0.82059 0.7689779,0 1.361178,0.25573 1.9204371,0.82059 0.5574301,0.56309 0.8121691,1.17355 0.8121691,1.95428 l 0.02533,12.03037 c 0,2.5663 -2.4439362,4.72918 -5.5836794,4.72918 l -15.0590356,-0.0592 c -2.422939,0 -4.492327,-2.35836 -4.492327,-5.38913 l 0,-22.65489 -4.416189,0 0,23.52627 c 0,2.49614 0.913402,4.68507 2.690324,6.45512 1.518783,1.49913 3.345324,2.4709 5.397562,2.69036 l 16.7679773,-4e-5 c 2.5766414,0 4.8403427,-0.95806 6.6665807,-2.81729 l 0.0091,0 c 1.553197,-1.59577 2.461193,-3.50784 2.681858,-5.65974 l -0.01693,-12.85102 c 0,-2.0369 -0.751458,-3.84178 -2.182714,-5.28753 -1.431941,-1.44652 -3.2141308,-2.19119 -5.2198831,-2.19119 -1.9688217,0 -3.6915427,0.73213 -5.0845466,2.07271 -1.388933,-1.33838 -3.09961009,-2.07271 -5.0676193,-2.07271 z"
       id="path4130-0-6-0-6"
       style="fill:#000000;fill-opacity:1;fill-rule:evenodd;stroke:#000000;stroke-width:1.52048528;stroke-miterlimit:4;stroke-opacity:1;stroke-dasharray:none;marker:none;visibility:visible;display:inline;overflow:visible;enable-background:accumulate"
       inkscape:connector-curvature="0" />
    <path
       d="m -2.6253985,757.32233 c -2.0057658,0 -3.787945,0.74466 -5.2198923,2.19119 -1.4312417,1.44573 -2.1827272,3.25063 -2.1827172,5.28753 l 0,10.29601 4.6699944,0 0,-10.29601 c 0,-0.78071 0.2547312,-1.39119 0.8121643,-1.95426 0.5592624,-0.5649 1.1514813,-0.82064 1.9204508,-0.82064 0.785091,0 1.3684325,0.25447 1.9288983,0.82064 0.55743545,0.56307 0.81218345,1.17355 0.81218345,1.95426 l 0,10.29601 4.66999195,0 0,-10.29601 c 0,-0.78071 0.2547376,-1.39119 0.8121742,-1.95426 0.5604837,-0.56617 1.1438175,-0.82064 1.9289163,-0.82064 0.7689797,0 1.3611789,0.25574 1.920438,0.82064 0.5574313,0.56307 0.8121703,1.17355 0.8121703,1.95426 l 0.02532,12.03039 c 0,2.5663 -2.4439348,4.72915 -5.5836787,4.72915 l -15.0590363,-0.0592 c -2.422941,0 -4.492328,-2.35836 -4.492328,-5.38911 l 0,-22.65493 -4.416188,0 0,23.5263 c 0,2.49614 0.9134,4.68508 2.690324,6.4551 1.518782,1.49914 3.345324,2.47089 5.397561,2.69037 l 16.7679781,-4e-5 c 2.576642,0 4.8403429,-0.95807 6.6665799,-2.81727 l 0.0091,0 c 1.553197,-1.59578 2.461193,-3.50786 2.681857,-5.65977 l -0.01693,-12.85102 c 0,-2.03687 -0.751459,-3.84178 -2.182714,-5.28751 -1.431943,-1.44652 -3.2141321,-2.19118 -5.2198825,-2.19118 -1.9688199,0 -3.6915435,0.73211 -5.0845482,2.07269 -1.3889289,-1.33839 -3.09960814,-2.07268 -5.0676156,-2.07268 z"
       id="path4130-0-6"
       style="fill:#b2e083;fill-opacity:1;fill-rule:evenodd;stroke:none;stroke-width:1;marker:none;visibility:visible;display:inline;overflow:visible;enable-background:accumulate"
       inkscape:connector-curvature="0" />
    <path
       d="m -2.6249853,821.38559 c -2.0057664,0 -3.7879457,0.74468 -5.2198924,2.19122 -1.4312426,1.44572 -2.1827283,3.25062 -2.1827173,5.28752 l 0,10.296 4.6699939,0 0,-10.296 c 0,-0.78073 0.2547318,-1.39118 0.812165,-1.95427 0.5592611,-0.56487 1.1514806,-0.82059 1.9204508,-0.82059 0.7850894,0 1.3684329,0.25442 1.92889813,0.82059 0.55743461,0.56309 0.81218335,1.17354 0.81218335,1.95427 l 0,10.296 4.66998982,0 0,-10.296 c 0,-0.78073 0.2547411,-1.39118 0.8121742,-1.95427 0.5604854,-0.56617 1.143819,-0.82059 1.9289196,-0.82059 0.7689779,0 1.361178,0.25572 1.9204371,0.82059 0.5574301,0.56309 0.8121691,1.17354 0.8121691,1.95427 l 0.02533,12.03037 c 0,2.56629 -2.4439362,4.72918 -5.5836794,4.72918 l -15.0590346,-0.0592 c -2.422939,0 -4.492328,-2.35837 -4.492328,-5.38911 l 0,-22.65491 -4.416188,0 0,23.52627 c 0,2.49614 0.913401,4.68508 2.690324,6.45511 1.518783,1.49914 3.345324,2.4709 5.397561,2.69038 l 16.7679773,-5e-5 c 2.5766423,0 4.8403437,-0.95806 6.6665807,-2.81728 l 0.0091,0 c 1.553197,-1.59577 2.461193,-3.50785 2.681858,-5.65976 l -0.01693,-12.85104 c 0,-2.03689 -0.751459,-3.84178 -2.182714,-5.28752 -1.431943,-1.44653 -3.2141317,-2.1912 -5.2198831,-2.1912 -1.9688226,0 -3.6915436,0.73213 -5.0845476,2.07271 -1.3889322,-1.33839 -3.09961002,-2.07271 -5.0676193,-2.07271 z"
       id="path4130-0-6-0-8-2"
       style="fill:#000000;fill-opacity:1;fill-rule:evenodd;stroke:#000000;stroke-width:1.52048528;stroke-miterlimit:4;stroke-opacity:1;stroke-dasharray:none;marker:none;visibility:visible;display:inline;overflow:visible;enable-background:accumulate"
       inkscape:connector-curvature="0" />
    <path
       d="m -2.6253985,822.19637 c -2.0057658,0 -3.787945,0.74464 -5.2198923,2.19119 -1.4312417,1.44573 -2.1827272,3.25062 -2.1827172,5.28752 l 0,10.296 4.6699944,0 0,-10.296 c 0,-0.78072 0.2547312,-1.39119 0.8121643,-1.95424 0.5592624,-0.56492 1.1514813,-0.82064 1.9204508,-0.82064 0.785091,0 1.3684325,0.25446 1.9288983,0.82064 0.55743545,0.56305 0.81218345,1.17352 0.81218345,1.95424 l 0,10.296 4.66999195,0 0,-10.296 c 0,-0.78072 0.2547376,-1.39119 0.8121742,-1.95424 0.5604837,-0.56618 1.1438175,-0.82064 1.9289163,-0.82064 0.7689797,0 1.3611789,0.25572 1.920438,0.82064 0.5574313,0.56305 0.8121703,1.17352 0.8121703,1.95424 l 0.02532,12.03039 c 0,2.56631 -2.4439348,4.72916 -5.5836787,4.72916 l -15.0590363,-0.0591 c -2.422941,0 -4.492328,-2.35837 -4.492328,-5.38911 l 0,-22.65492 -4.416188,0 0,23.52629 c 0,2.49614 0.9134,4.68508 2.690324,6.45511 1.518782,1.49912 3.345324,2.47087 5.397561,2.69036 l 16.7679781,-5e-5 c 2.576642,0 4.8403429,-0.95806 6.6665799,-2.81727 l 0.0091,0 c 1.553197,-1.59577 2.461193,-3.50785 2.681857,-5.65975 l -0.01693,-12.85102 c 0,-2.03688 -0.751459,-3.84178 -2.182714,-5.28753 -1.431943,-1.44651 -3.2141321,-2.19118 -5.2198825,-2.19118 -1.9688199,0 -3.6915435,0.73212 -5.0845482,2.0727 -1.3889303,-1.33839 -3.09961056,-2.0727 -5.0676172,-2.0727 z"
       id="path4130-0-6-2"
       style="fill:#b2e083;fill-opacity:1;fill-rule:evenodd;stroke:none;stroke-width:1;marker:none;visibility:visible;display:inline;overflow:visible;enable-background:accumulate"
       inkscape:connector-curvature="0" />
    <path
       d="m 17.309559,789.60759 c -5.62086,-3.87347 -9.6018473,-8.32287 -12.9551969,-14.21314 -6.6102876,-12.21118 -5.0646683,-18.27294 -21.4340721,-19.70234 -4.724014,0 -7.86851,-1.04556 -12.84084,-1.04556 l 0,1.73173 c 0,0 1.964972,0.99718 3.69215,0.99718 2.575591,2e-5 3.022335,1.78669 3.022335,4.24761 l 0.01633,15.24171 c -2e-6,7.91368 6.950471,14.32751 15.5037585,14.32751 l 21.1073355,0 c 1.549307,0 2.941027,-0.61053 3.888192,-1.5847 z"
       id="path3419-2-8-9"
       style="fill:none;display:inline"
       inkscape:connector-curvature="0" />
    <path
       d="m 37.415502,715.456 c -2.248711,0 -4.246754,0.83487 -5.852143,2.45661 -1.604599,1.62084 -2.447107,3.64436 -2.447095,5.92796 l 0,11.5431 5.235639,0 0,-11.5431 c 0,-0.87527 0.285586,-1.55968 0.910537,-2.19096 0.627001,-0.63331 1.290952,-0.92001 2.153062,-0.92001 0.880183,0 1.534182,0.28526 2.162532,0.92001 0.624954,0.63128 0.910558,1.31569 0.910558,2.19096 l 0,11.5431 5.235636,0 0,-11.5431 c 0,-0.87527 0.285593,-1.55968 0.910547,-2.19096 0.628372,-0.63475 1.282361,-0.92001 2.162555,-0.92001 0.86212,0 1.526049,0.2867 2.153047,0.92001 0.624949,0.63128 0.910543,1.31569 0.910543,2.19096 l 0.0284,13.48755 c 0,2.87713 -2.739953,5.30198 -6.259992,5.30198 l -16.883036,-0.0664 c -2.716414,0 -5.036453,-2.64402 -5.036453,-6.04186 l 0,-25.39895 -4.951091,0 0,26.37586 c 0,2.79848 1.024035,5.25255 3.016185,7.23698 1.702742,1.68071 3.75052,2.77017 6.051331,3.01624 l 18.798969,-6e-5 c 2.888734,0 5.426622,-1.0741 7.474058,-3.15851 l 0.01021,0 c 1.741325,-1.78906 2.759301,-3.93274 3.006693,-6.34529 l -0.01897,-14.40757 c 0,-2.2836 -0.842479,-4.30711 -2.447091,-5.92796 -1.605386,-1.62173 -3.603438,-2.4566 -5.852134,-2.4566 -2.207291,0 -4.138675,0.8208 -5.700405,2.32376 -1.557163,-1.5005 -3.475044,-2.32376 -5.681424,-2.32376 z"
       id="path4130-0-6-0-4"
       style="fill:#000000;fill-opacity:1;fill-rule:evenodd;stroke:none;stroke-width:1.00006211;marker:none;visibility:visible;display:inline;overflow:visible;filter:url(#filter3917);enable-background:accumulate"
       inkscape:connector-curvature="0"
       transform="matrix(0.89196267,0,0,0.89196267,28.875574,119.16269)" />
    <path
       style="fill:none;stroke:none;stroke-width:1;marker:none;visibility:visible;display:inline;overflow:visible;filter:url(#filter3919);enable-background:accumulate"
       d="m 1.6983306,700.84437 0,18.3484 7.5552213,0 0,3.69057 0,14.41411 c 0,11.89035 10.3120371,20.92483 22.2130501,20.92483 l 34.224809,0 0,-36.27899 c 0,-11.90102 -10.30134,-20.92483 -22.21305,-20.92483 l -9.957574,-0.0348 -31.8224564,-0.13927 z m 4.8743363,4.87434 26.9481201,0.13927 9.957574,0 c 9.600004,0 17.37353,7.21313 17.37353,16.08531 l 0,26.53032 c 0,2.95414 -2.674669,4.87434 -5.709938,4.87434 l -23.675351,0 c -9.589286,0 -17.338713,-7.1783 -17.338713,-16.0505 l -0.03482,-18.20913 c 0,-2.82632 -2.476687,-4.73507 -4.5261711,-4.73507 l -2.994235,0 0,-8.63454 z"
       id="path3543-78-1-7-2"
       inkscape:connector-curvature="0"
       transform="matrix(0.89196267,0,0,0.89196267,-35.998463,119.16269)" />
    <path
       d="m -7.9178847,795.46574 c -10.6152613,0 -19.8272443,-8.04736 -19.8272443,-18.65314 l -0.0099,-12.87766 0,-3.28379 -6.729981,0 0,-16.36205 28.380505,0.13367 8.8778696,0.0189 c 10.6247974,0 19.8272324,8.03777 19.8272324,18.65306 l 0,32.3708 -30.518855,0 0,0 0,0 z m 26.1944417,-8.68345 c 0,-7.05192 0,-23.68736 0,-23.68736 0,-7.91365 -6.939984,-14.32866 -15.5028271,-14.32866 l -8.8874027,0 0,-0.019 -24.0370422,-0.10504 0,7.68464 c 0,0 0.965444,0 2.692628,0 1.828064,0 4.027792,1.71791 4.027792,4.23889 l 0.01906,16.23749 c 0,7.91366 6.940026,14.32865 15.4933091,14.32865 l 21.1180429,0 c 2.707341,0 5.076402,-1.71455 5.076402,-4.34953 z"
       id="path6141-9-3-3"
       style="fill:none;stroke:none;stroke-width:1;marker:none;visibility:visible;display:inline;overflow:visible;enable-background:accumulate"
       inkscape:connector-curvature="0" />
    <path
       d="m 62.249056,756.51154 c -2.005769,0 -3.787957,0.7447 -5.2199,2.19123 -1.431238,1.44573 -2.182732,3.25063 -2.182719,5.28753 l 0,10.29601 4.67,0 0,-10.29601 c 0,-0.78073 0.254731,-1.39119 0.812162,-1.95428 0.559263,-0.56486 1.151482,-0.82059 1.920457,-0.82059 0.785084,0 1.36843,0.25443 1.928896,0.82059 0.557426,0.56309 0.812175,1.17355 0.812175,1.95428 l 0,10.29601 4.669986,0 0,-10.29601 c 0,-0.78073 0.254747,-1.39119 0.812186,-1.95428 0.560484,-0.56616 1.143817,-0.82059 1.928918,-0.82059 0.768972,0 1.361169,0.25573 1.920427,0.82059 0.557433,0.56309 0.812183,1.17355 0.812183,1.95428 l 0.02528,12.03037 c 0,2.5663 -2.443942,4.72918 -5.583679,4.72918 l -15.059035,-0.0592 c -2.422944,0 -4.492336,-2.35836 -4.492336,-5.38913 l 0,-22.65489 -4.416182,0 0,23.52627 c 0,2.49614 0.9134,4.68507 2.690326,6.45512 1.51878,1.49913 3.345318,2.4709 5.397562,2.69036 l 16.767977,-4e-5 c 2.576632,0 4.840342,-0.95806 6.666581,-2.81729 l 0.0091,0 c 1.553192,-1.59577 2.461194,-3.50784 2.681852,-5.65974 l -0.0169,-12.85102 c 0,-2.0369 -0.751457,-3.84178 -2.182708,-5.28753 -1.431942,-1.44652 -3.214128,-2.19119 -5.219885,-2.19119 -1.968827,0 -3.69154,0.73213 -5.084554,2.07271 -1.388927,-1.33838 -3.099604,-2.07271 -5.067609,-2.07271 z"
       id="path4130-0-6-0-4-9"
       style="fill:#000000;fill-opacity:1;fill-rule:evenodd;stroke:#000000;stroke-width:1.52048528;stroke-miterlimit:4;stroke-opacity:1;stroke-dasharray:none;marker:none;visibility:visible;display:inline;overflow:visible;enable-background:accumulate"
       inkscape:connector-curvature="0" />
    <path
       d="m 62.248644,757.32233 c -2.00577,0 -3.787951,0.74466 -5.219901,2.19119 -1.431237,1.44573 -2.182724,3.25063 -2.182712,5.28753 l 0,10.29601 4.669993,0 0,-10.29601 c 0,-0.78071 0.254732,-1.39119 0.812163,-1.95426 0.559262,-0.5649 1.151481,-0.82064 1.920457,-0.82064 0.785077,0 1.368438,0.25447 1.92889,0.82064 0.557425,0.56307 0.812182,1.17355 0.812182,1.95426 l 0,10.29601 4.67,0 0,-10.29601 c 0,-0.78071 0.254731,-1.39119 0.812171,-1.95426 0.560483,-0.56617 1.143816,-0.82064 1.928909,-0.82064 0.768981,0 1.361177,0.25574 1.920426,0.82064 0.55744,0.56307 0.812183,1.17355 0.812183,1.95426 l 0.02528,12.03039 c 0,2.5663 -2.443948,4.72915 -5.58367,4.72915 l -15.059045,-0.0592 c -2.422938,0 -4.492325,-2.35837 -4.492325,-5.38912 l 0,-22.65493 -4.416191,0 0,23.52631 c 0,2.49614 0.9134,4.68507 2.690328,6.45509 1.518781,1.49914 3.345325,2.47089 5.397556,2.69038 l 16.767978,-5e-5 c 2.576638,0 4.840332,-0.95807 6.66658,-2.81727 l 0.0091,0 c 1.553206,-1.59577 2.461191,-3.50786 2.681851,-5.65977 l -0.0169,-12.85102 c 0,-2.03687 -0.75145,-3.84178 -2.182716,-5.28751 -1.43195,-1.44652 -3.21412,-2.19117 -5.219883,-2.19117 -1.968812,0 -3.69154,0.7321 -5.084546,2.07269 -1.38891,-1.3384 -3.099588,-2.07269 -5.067592,-2.07269 z"
       id="path4130-0-6-1"
       style="fill:#b2e083;fill-opacity:1;fill-rule:evenodd;stroke:none;stroke-width:1;marker:none;visibility:visible;display:inline;overflow:visible;enable-background:accumulate"
       inkscape:connector-curvature="0" />
    <path
       d="m -5.3716691,781.51703 0,4.61206 10.9692117,0 c 2.5766333,0 4.8269694,-0.961 6.6531854,-2.82021 l 0.0156,0 c 1.553196,-1.59577 2.45932,-3.50407 2.679982,-5.65597 l 0,-2.61767 -4.658794,0 0,1.79184 c 0,2.56633 -2.438341,4.72115 -5.5780936,4.72115 l -10.0810721,-0.0312 z"
       id="path4132-3-3"
       style="fill:#52a800;fill-opacity:0.30196078;fill-rule:evenodd;stroke:none;stroke-width:1;marker:none;visibility:visible;display:inline;overflow:visible;enable-background:accumulate"
       inkscape:connector-curvature="0" />
    <path
       d="m 17.309559,854.48163 c -5.62086,-3.87346 -9.6018473,-8.32287 -12.9551969,-14.21314 -6.6102876,-12.2112 -5.0646683,-18.27294 -21.4340721,-19.70234 -4.724014,0 -7.86851,-1.04557 -12.84084,-1.04557 l 0,1.73173 c 0,0 1.964972,0.9972 3.69215,0.9972 2.575591,2e-5 3.022335,1.78668 3.022335,4.24759 l 0.01633,15.24172 c -2e-6,7.91367 6.950471,14.32751 15.5037585,14.32751 l 21.1073355,0 c 1.549307,0 2.941027,-0.61053 3.888192,-1.5847 z"
       id="path3419-2-8-9-3"
       style="fill:none;display:inline"
       inkscape:connector-curvature="0" />
    <path
       d="m 37.415502,715.456 c -2.248711,0 -4.246754,0.83487 -5.852143,2.45661 -1.604599,1.62084 -2.447107,3.64436 -2.447095,5.92796 l 0,11.5431 5.235639,0 0,-11.5431 c 0,-0.87527 0.285586,-1.55968 0.910537,-2.19096 0.627001,-0.63331 1.290952,-0.92001 2.153062,-0.92001 0.880183,0 1.534182,0.28526 2.162532,0.92001 0.624954,0.63128 0.910558,1.31569 0.910558,2.19096 l 0,11.5431 5.235636,0 0,-11.5431 c 0,-0.87527 0.285593,-1.55968 0.910547,-2.19096 0.628372,-0.63475 1.282361,-0.92001 2.162555,-0.92001 0.86212,0 1.526049,0.2867 2.153047,0.92001 0.624949,0.63128 0.910543,1.31569 0.910543,2.19096 l 0.0284,13.48755 c 0,2.87713 -2.739953,5.30198 -6.259992,5.30198 l -16.883036,-0.0664 c -2.716414,0 -5.036453,-2.64402 -5.036453,-6.04186 l 0,-25.39895 -4.951091,0 0,26.37586 c 0,2.79848 1.024035,5.25255 3.016185,7.23698 1.702742,1.68071 3.75052,2.77017 6.051331,3.01624 l 18.798969,-6e-5 c 2.888734,0 5.426622,-1.0741 7.474058,-3.15851 l 0.01021,0 c 1.741325,-1.78906 2.759301,-3.93274 3.006693,-6.34529 l -0.01897,-14.40757 c 0,-2.2836 -0.842479,-4.30711 -2.447091,-5.92796 -1.605386,-1.62173 -3.603438,-2.4566 -5.852134,-2.4566 -2.207291,0 -4.138675,0.8208 -5.700405,2.32376 -1.557163,-1.5005 -3.475044,-2.32376 -5.681424,-2.32376 z"
       id="path4130-0-6-0-5"
       style="fill:#000000;fill-opacity:1;fill-rule:evenodd;stroke:none;stroke-width:1.00006211;marker:none;visibility:visible;display:inline;overflow:visible;filter:url(#filter3913);enable-background:accumulate"
       inkscape:connector-curvature="0"
       transform="matrix(0.89196267,0,0,0.89196267,28.875574,184.03673)" />
    <path
       d="m -7.9178847,860.33979 c -10.6152613,0 -19.8272443,-8.04738 -19.8272443,-18.65315 l -0.0099,-12.87765 0,-3.28379 -6.729981,0 0,-16.36206 28.380505,0.13365 8.8778696,0.0189 c 10.6247974,0 19.8272324,8.03778 19.8272324,18.65307 l 0,32.37079 -30.518855,0 0,0 0,0 z m 26.1944417,-8.68347 c 0,-7.05191 0,-23.68735 0,-23.68735 0,-7.91366 -6.939984,-14.32867 -15.5028271,-14.32867 l -8.8874027,0 0,-0.0189 -24.0370422,-0.10504 0,7.68462 c 0,0 0.965444,0 2.692628,0 1.828064,0 4.027792,1.71793 4.027792,4.23889 l 0.01906,16.2375 c 0,7.91366 6.940026,14.32865 15.4933091,14.32865 l 21.1180429,0 c 2.707341,0 5.076402,-1.71454 5.076402,-4.34953 z"
       id="path6141-9-3-3-0"
       style="fill:none;stroke:none;stroke-width:1;marker:none;visibility:visible;display:inline;overflow:visible;enable-background:accumulate"
       inkscape:connector-curvature="0" />
    <path
       style="fill:none;stroke:none;stroke-width:1;marker:none;visibility:visible;display:inline;overflow:visible;filter:url(#filter3919-5);enable-background:accumulate"
       d="m 1.6983306,700.84437 0,18.3484 7.5552213,0 0,3.69057 0,14.41411 c 0,11.89035 10.3120371,20.92483 22.2130501,20.92483 l 34.224809,0 0,-36.27899 c 0,-11.90102 -10.30134,-20.92483 -22.21305,-20.92483 l -9.957574,-0.0348 -31.8224564,-0.13927 z m 4.8743363,4.87434 26.9481201,0.13927 9.957574,0 c 9.600004,0 17.37353,7.21313 17.37353,16.08531 l 0,26.53032 c 0,2.95414 -2.674669,4.87434 -5.709938,4.87434 l -23.675351,0 c -9.589286,0 -17.338713,-7.1783 -17.338713,-16.0505 l -0.03482,-18.20913 c 0,-2.82632 -2.476687,-4.73507 -4.5261711,-4.73507 l -2.994235,0 0,-8.63454 z"
       id="path3543-78-1-7-2-4"
       inkscape:connector-curvature="0"
       transform="matrix(0.89196267,0,0,0.89196267,-35.998463,184.03673)" />
    <path
       d="m 62.249056,821.38559 c -2.005769,0 -3.787957,0.74468 -5.2199,2.19122 -1.431238,1.44572 -2.182732,3.25062 -2.182719,5.28752 l 0,10.296 4.67,0 0,-10.296 c 0,-0.78073 0.254731,-1.39118 0.812162,-1.95427 0.559263,-0.56487 1.151482,-0.82059 1.920457,-0.82059 0.785084,0 1.36843,0.25442 1.928896,0.82059 0.557426,0.56309 0.812175,1.17354 0.812175,1.95427 l 0,10.296 4.669986,0 0,-10.296 c 0,-0.78073 0.254747,-1.39118 0.812186,-1.95427 0.560484,-0.56617 1.143817,-0.82059 1.928918,-0.82059 0.768972,0 1.361169,0.25572 1.920427,0.82059 0.557433,0.56309 0.812183,1.17354 0.812183,1.95427 l 0.02528,12.03037 c 0,2.56629 -2.443942,4.72918 -5.583679,4.72918 l -15.059067,-0.0592 c -2.422944,0 -4.492337,-2.35837 -4.492337,-5.38911 l 0,-22.65491 -4.416182,0 0,23.52627 c 0,2.49614 0.913401,4.68508 2.690326,6.45511 1.51878,1.49914 3.345318,2.4709 5.397562,2.69038 l 16.767979,-5e-5 c 2.57663,0 4.840341,-0.95806 6.666581,-2.81728 l 0.0091,0 c 1.55319,-1.59577 2.461191,-3.50785 2.68185,-5.65976 l -0.0169,-12.851 c 0,-2.0369 -0.751456,-3.84179 -2.182708,-5.28753 -1.431942,-1.44652 -3.214127,-2.1912 -5.219883,-2.1912 -1.968828,0 -3.691542,0.73212 -5.084556,2.07271 -1.388926,-1.33838 -3.099604,-2.07271 -5.067609,-2.07271 z"
       id="path4130-0-6-0-5-2"
       style="fill:#000000;fill-opacity:1;fill-rule:evenodd;stroke:#000000;stroke-width:1.52048528;stroke-miterlimit:4;stroke-opacity:1;stroke-dasharray:none;marker:none;visibility:visible;display:inline;overflow:visible;enable-background:accumulate"
       inkscape:connector-curvature="0" />
    <path
       d="m 62.248644,822.19637 c -2.00577,0 -3.787951,0.74464 -5.219901,2.19119 -1.431237,1.44573 -2.182724,3.25062 -2.182712,5.28752 l 0,10.296 4.669993,0 0,-10.296 c 0,-0.78072 0.254732,-1.39119 0.812163,-1.95424 0.559262,-0.56492 1.151481,-0.82064 1.920457,-0.82064 0.785077,0 1.368438,0.25446 1.92889,0.82064 0.557425,0.56305 0.812182,1.17352 0.812182,1.95424 l 0,10.296 4.67,0 0,-10.296 c 0,-0.78072 0.254731,-1.39119 0.812171,-1.95424 0.560483,-0.56618 1.143816,-0.82064 1.928917,-0.82064 0.768973,0 1.361184,0.25572 1.920426,0.82064 0.557432,0.56305 0.812183,1.17352 0.812183,1.95424 l 0.02528,12.03039 c 0,2.56631 -2.443938,4.72916 -5.583675,4.72916 l -15.059045,-0.0591 c -2.422936,0 -4.492324,-2.35837 -4.492324,-5.38911 l 0,-22.65492 -4.41619,0 0,23.52629 c 0,2.49614 0.9134,4.68508 2.690328,6.45511 1.518781,1.49912 3.345325,2.47087 5.397556,2.69036 l 16.76798,-5e-5 c 2.576647,0 4.840344,-0.95806 6.666577,-2.81727 l 0.0091,0 c 1.553206,-1.59577 2.4612,-3.50785 2.681866,-5.65975 l -0.0169,-12.85102 c 0,-2.03688 -0.751456,-3.84178 -2.182731,-5.28753 -1.431926,-1.44651 -3.21412,-2.19118 -5.219879,-2.19118 -1.968812,0 -3.691534,0.73212 -5.084542,2.0727 -1.388928,-1.33839 -3.099605,-2.0727 -5.06761,-2.0727 z"
       id="path4130-0-6-6"
       style="fill:#b2e083;fill-opacity:1;fill-rule:evenodd;stroke:none;stroke-width:1;marker:none;visibility:visible;display:inline;overflow:visible;enable-background:accumulate"
       inkscape:connector-curvature="0" />
    <path
       d="m -5.3716691,846.39106 0,4.61206 10.9692117,0 c 2.5766333,0 4.8269694,-0.96099 6.6531854,-2.8202 l 0.0156,0 c 1.553196,-1.59578 2.45932,-3.50409 2.679982,-5.65598 l 0,-2.61768 -4.658794,0 0,1.79187 c 0,2.56632 -2.438341,4.72112 -5.5780936,4.72112 l -10.0810721,-0.0312 z"
       id="path4132-3-3-0"
       style="fill:#52a800;fill-opacity:0.30196078;fill-rule:evenodd;stroke:none;stroke-width:1;marker:none;visibility:visible;display:inline;overflow:visible;enable-background:accumulate"
       inkscape:connector-curvature="0" />
    <path
       style="fill:none;stroke:none;stroke-width:1;marker:none;visibility:visible;display:inline;overflow:visible;filter:url(#filter3919-0);enable-background:accumulate"
       d="m 1.6983306,700.84437 0,18.3484 7.5552213,0 0,3.69057 0,14.41411 c 0,11.89035 10.3120371,20.92483 22.2130501,20.92483 l 34.224809,0 0,-36.27899 c 0,-11.90102 -10.30134,-20.92483 -22.21305,-20.92483 l -9.957574,-0.0348 -31.8224564,-0.13927 z m 4.8743363,4.87434 26.9481201,0.13927 9.957574,0 c 9.600004,0 17.37353,7.21313 17.37353,16.08531 l 0,26.53032 c 0,2.95414 -2.674669,4.87434 -5.709938,4.87434 l -23.675351,0 c -9.589286,0 -17.338713,-7.1783 -17.338713,-16.0505 l -0.03482,-18.20913 c 0,-2.82632 -2.476687,-4.73507 -4.5261711,-4.73507 l -2.994235,0 0,-8.63454 z"
       id="path3543-78-1-7-2-1"
       inkscape:connector-curvature="0"
       transform="matrix(0.89196267,0,0,0.89196267,28.875574,119.16269)" />
    <path
       d="m 82.183601,789.60759 c -5.62087,-3.87347 -9.601853,-8.32287 -12.955202,-14.21314 -6.610295,-12.21118 -5.064667,-18.27294 -21.434073,-19.70234 -4.724013,0 -7.86851,-1.04556 -12.84084,-1.04556 l 0,1.73173 c 1e-6,0 1.964971,0.99718 3.692149,0.99718 2.575592,2e-5 3.022335,1.78669 3.022335,4.24761 l 0.01634,15.24171 c -3e-6,7.91368 6.950473,14.32751 15.503759,14.32751 l 21.107327,0 c 1.549314,0 2.941029,-0.61053 3.888199,-1.5847 z"
       id="path3419-2-8-9-6"
       style="fill:none;display:inline"
       inkscape:connector-curvature="0" />
    <path
       d="m 56.956149,795.46574 c -10.615258,0 -19.82724,-8.04736 -19.82724,-18.65314 l -0.0099,-12.87766 0,-3.28379 -6.729978,0 0,-16.36205 28.380508,0.13367 8.877864,0.0189 c 10.624791,0 19.82723,8.03777 19.82723,18.65306 l 0,32.3708 -30.518857,0 0,0 0,0 z m 26.194436,-8.68345 c 0,-7.05192 0,-23.68736 0,-23.68736 0,-7.91365 -6.939976,-14.32866 -15.50281,-14.32866 l -8.887407,0 0,-0.019 -24.037046,-0.10504 0,7.68464 c 0,0 0.965441,0 2.692628,0 1.828061,0 4.027791,1.71791 4.027791,4.23889 l 0.01907,16.23749 c 0,7.91366 6.940026,14.32865 15.493307,14.32865 l 21.118043,0 c 2.707346,0 5.076393,-1.71455 5.076393,-4.34953 z"
       id="path6141-9-3-3-2"
       style="fill:none;stroke:none;stroke-width:1;marker:none;visibility:visible;display:inline;overflow:visible;enable-background:accumulate"
       inkscape:connector-curvature="0" />
    <path
       d="m 59.502368,781.51703 0,4.61206 10.969205,0 c 2.576638,0 4.82698,-0.961 6.653196,-2.82021 l 0.0156,0 c 1.553192,-1.59577 2.459316,-3.50407 2.679974,-5.65597 l 0,-2.61767 -4.658801,0 0,1.79184 c 0,2.56633 -2.438338,4.72115 -5.578083,4.72115 l -10.081067,-0.0312 z"
       id="path4132-3-3-04"
       style="fill:#52a800;fill-opacity:0.30196078;fill-rule:evenodd;stroke:none;stroke-width:1;marker:none;visibility:visible;display:inline;overflow:visible;enable-background:accumulate"
       inkscape:connector-curvature="0" />
    <path
       d="m 82.183601,854.48163 c -5.62087,-3.87346 -9.601853,-8.32287 -12.955202,-14.21314 -6.610295,-12.2112 -5.064667,-18.27294 -21.434073,-19.70234 -4.724013,0 -7.86851,-1.04557 -12.84084,-1.04557 l 0,1.73173 c 1e-6,0 1.964971,0.9972 3.692149,0.9972 2.575592,2e-5 3.022335,1.78668 3.022335,4.24759 l 0.01634,15.24172 c -3e-6,7.91367 6.950473,14.32751 15.503759,14.32751 l 21.107327,0 c 1.549314,0 2.941029,-0.61053 3.888208,-1.5847 z"
       id="path3419-2-8-9-1"
       style="fill:none;display:inline"
       inkscape:connector-curvature="0" />
    <path
       d="m 56.956149,860.33979 c -10.615258,0 -19.82724,-8.04738 -19.82724,-18.65315 l -0.0099,-12.87765 0,-3.28379 -6.729979,0 0,-16.36206 28.380509,0.13365 8.877864,0.0189 c 10.624799,0 19.827239,8.03778 19.827239,18.65307 l 0,32.37079 -30.518866,0 0,0 0,0 z m 26.194444,-8.68347 c 0,-7.05191 0,-23.68735 0,-23.68735 0,-7.91366 -6.939984,-14.32867 -15.502818,-14.32867 l -8.887407,0 0,-0.0189 -24.037046,-0.10504 0,7.68462 c 0,0 0.965441,0 2.692628,0 1.828061,0 4.027791,1.71793 4.027791,4.23889 l 0.01907,16.2375 c 0,7.91366 6.940026,14.32865 15.493307,14.32865 l 21.118058,0 c 2.707331,0 5.076378,-1.71454 5.076378,-4.34953 z"
       id="path6141-9-3-3-6"
       style="fill:none;stroke:none;stroke-width:1;marker:none;visibility:visible;display:inline;overflow:visible;enable-background:accumulate"
       inkscape:connector-curvature="0" />
    <path
       style="fill:none;stroke:none;stroke-width:1;marker:none;visibility:visible;display:inline;overflow:visible;filter:url(#filter3919-7);enable-background:accumulate"
       d="m 1.6983306,700.84437 0,18.3484 7.5552213,0 0,3.69057 0,14.41411 c 0,11.89035 10.3120371,20.92483 22.2130501,20.92483 l 34.224809,0 0,-36.27899 c 0,-11.90102 -10.30134,-20.92483 -22.21305,-20.92483 l -9.957574,-0.0348 -31.8224564,-0.13927 z m 4.8743363,4.87434 26.9481201,0.13927 9.957574,0 c 9.600004,0 17.37353,7.21313 17.37353,16.08531 l 0,26.53032 c 0,2.95414 -2.674669,4.87434 -5.709938,4.87434 l -23.675351,0 c -9.589286,0 -17.338713,-7.1783 -17.338713,-16.0505 l -0.03482,-18.20913 c 0,-2.82632 -2.476687,-4.73507 -4.5261711,-4.73507 l -2.994235,0 0,-8.63454 z"
       id="path3543-78-1-7-2-18"
       inkscape:connector-curvature="0"
       transform="matrix(0.89196267,0,0,0.89196267,28.875574,184.03673)" />
    <path
       d="m 59.502368,846.39106 0,4.61206 10.969205,0 c 2.576638,0 4.82698,-0.96099 6.653196,-2.8202 l 0.0156,0 c 1.553192,-1.59578 2.459324,-3.50409 2.679982,-5.65598 l 0,-2.61768 -4.658809,0 0,1.79187 c 0,2.56632 -2.438331,4.72112 -5.578083,4.72112 l -10.081067,-0.0312 z"
       id="path4132-3-3-8"
       style="fill:#52a800;fill-opacity:0.30196078;fill-rule:evenodd;stroke:none;stroke-width:1;marker:none;visibility:visible;display:inline;overflow:visible;enable-background:accumulate"
       inkscape:connector-curvature="0" />
  </g>
</svg>
