/* XPM */
static char *close_prelight[] = {
/* columns rows colors chars-per-pixel */
"24 24 38 1 ",
"  c #EA7199",
". c #EA7299",
"X c #EA739B",
"o c #E9759B",
"O c #EA759B",
"+ c #E9749C",
"@ c #E9769C",
"# c #E9779D",
"$ c #EA7EA2",
"% c #EA7FA3",
"& c #E784A5",
"* c #E785A5",
"= c #E785A6",
"- c #E786A6",
"; c #E2A3B8",
": c #E1A4B8",
"> c #E2A4B9",
", c #DEB7C4",
"< c #DFB7C4",
"1 c #DAD0D3",
"2 c #DAD0D4",
"3 c #DAD1D4",
"4 c gray85",
"5 c #EDCBD6",
"6 c #ECCED9",
"7 c #EDCFDA",
"8 c #EDD2DC",
"9 c #EDD3DD",
"0 c #EDD5DE",
"q c #EEDAE0",
"w c #EFDCE2",
"e c #EFDDE3",
"r c #EFDEE4",
"t c #EFE1E7",
"y c #EEEEEE",
"u c #F6F5F6",
"i c #F7F7F8",
"p c #F8F8F9",
/* pixels */
"yyyyyyyyyyyyyyyyyyyyyyyy",
"444444444444444444444444",
"444444444444444444444444",
"444444444444444444444444",
"444444444444444444444444",
"444444441;*oo=>144444444",
"4444444<@      @<4444444",
"444444<.        .<444444",
"444441@  %    $  #244444",
"44444;   iwXXqp   :44444",
"44444&   7prep9   =44444",
"44444@    8pp0    @44444",
"44444@   Orppt+   #44444",
"44444*   ep66pe   =44444",
"44444>   u5  5u   :44444",
"444441@          #344444",
"444444<.        .,444444",
"4444444<#      #,4444444",
"444444442:-@@-:344444444",
"444444444444444444444444",
"444444444444444444444444",
"444444444444444444444444",
"444444444444444444444444",
"444444444444444444444444"
};
