/* XPM */
static char *close_pressed[] = {
/* columns rows colors chars-per-pixel */
"24 24 35 1 ",
"  c #A1365A",
". c #A1375B",
"X c #A2385B",
"o c #A33D5F",
"O c #A33D60",
"+ c #A43E60",
"@ c #A43F61",
"# c #A54062",
"$ c #AB5471",
"% c #AC5572",
"& c #AC5673",
"* c #BC8598",
"= c #BC8698",
"- c #BD8698",
"; c #BC8699",
": c #D29EAF",
"> c #C7A3AF",
", c #C7A4B0",
"< c #D3A0B1",
"1 c #D5A4B5",
"2 c #D5A5B5",
"3 c #D6A7B7",
"4 c #D7A9B8",
"5 c #D7AAB9",
"6 c #D8ABBA",
"7 c #D9AFBD",
"8 c #DAAFBE",
"9 c #DBB3C0",
"0 c #D4CBCE",
"q c #D5CCCF",
"w c gray85",
"e c #EEEEEE",
"r c #FDFAFB",
"t c #FEFCFC",
"y c white",
/* pixels */
"eeeeeeeeeeeeeeeeeeeeeeee",
"wwwwwwwwwwwwwwwwwwwwwwww",
"wwwwwwwwwwwwwwwwwwwwwwww",
"wwwwwwwwwwwwwwwwwwwwwwww",
"wwwwwwwwwwwwwwwwwwwwwwww",
"wwwwwwww0*%oo&-0wwwwwwww",
"wwwwwww>+      +,wwwwwww",
"wwwwww>.        .,wwwwww",
"wwwww0+          @0wwwww",
"wwwww*   r<  :t   =wwwww",
"wwwww$   4y21y8   &wwwww",
"wwwwwO   .6yy9X   +wwwww",
"wwwww+   .3yy7.   @wwwww",
"wwwww%   1y55y2   &wwwww",
"wwwww-   r2..2r   ;wwwww",
"wwwww0+          #qwwwww",
"wwwwww,.        .,wwwwww",
"wwwwwww,@      #,wwwwwww",
"wwwwwwww0=&OO&;qwwwwwwww",
"wwwwwwwwwwwwwwwwwwwwwwww",
"wwwwwwwwwwwwwwwwwwwwwwww",
"wwwwwwwwwwwwwwwwwwwwwwww",
"wwwwwwwwwwwwwwwwwwwwwwww",
"wwwwwwwwwwwwwwwwwwwwwwww"
};
