/* XPM */
static char *dummy[]={
"20 24 8 1",
". c #232323",
"e c #2d2d2d",
"d c #313131",
"c c #323232",
"b c #333333",
"a c #383838",
"f c #3a3a3a",
"# c #404040",
"....................",
"####################",
"aaaaaaaaaaaaaaaaaaaa",
"aaaaaaaaaaaaaaaaaaaa",
"aaaaaaaaaaaaaaaaaaaa",
"aaaaaaaaaaaaaaaaaaaa",
"aaaaaaaaaaaaaaaaaaaa",
"aaaaaaaaaaaaaaaaaaaa",
"aaaaaaaaaaaaaaaaaaaa",
"aaaaaaaaabbaaaaaaaaa",
"aaaaaaaacddbaaaaaaaa",
"aaaaaaabddddbaaaaaaa",
"aaaaaadeddddedaaaaaa",
"aaaaaafffddfffaaaaaa",
"aaaaaaaaaddaaaaaaaaa",
"aaaaaaaaaddaaaaaaaaa",
"aaaaaaaaabbaaaaaaaaa",
"aaaaaaaaaffaaaaaaaaa",
"aaaaaaaaaaaaaaaaaaaa",
"aaaaaaaaaaaaaaaaaaaa",
"aaaaaaaaaaaaaaaaaaaa",
"aaaaaaaaaaaaaaaaaaaa",
"aaaaaaaaaaaaaaaaaaaa",
"aaaaaaaaaaaaaaaaaaaa"};
