<?xml version="1.0" encoding="UTF-8" standalone="no"?>
<!-- Created with Inkscape (http://www.inkscape.org/) -->

<svg
   xmlns:dc="http://purl.org/dc/elements/1.1/"
   xmlns:cc="http://creativecommons.org/ns#"
   xmlns:rdf="http://www.w3.org/1999/02/22-rdf-syntax-ns#"
   xmlns:svg="http://www.w3.org/2000/svg"
   xmlns="http://www.w3.org/2000/svg"
   xmlns:sodipodi="http://sodipodi.sourceforge.net/DTD/sodipodi-0.dtd"
   xmlns:inkscape="http://www.inkscape.org/namespaces/inkscape"
   width="400"
   height="120"
   id="svg2"
   version="1.1"
   inkscape:version="0.91 r13725"
   sodipodi:docname="trash-icon.svg">
  <defs
     id="defs4" />
  <sodipodi:namedview
     id="base"
     pagecolor="#ffffff"
     bordercolor="#666666"
     borderopacity="1.0"
     inkscape:pageopacity="0.0"
     inkscape:pageshadow="2"
     inkscape:zoom="0.90509668"
     inkscape:cx="128.43263"
     inkscape:cy="249.72974"
     inkscape:document-units="px"
     inkscape:current-layer="layer1"
     showgrid="true"
     inkscape:window-width="1920"
     inkscape:window-height="1016"
     inkscape:window-x="0"
     inkscape:window-y="34"
     inkscape:window-maximized="1"
     showguides="true"
     inkscape:guide-bbox="true"
     inkscape:snap-bbox="true"
     inkscape:bbox-paths="true"
     inkscape:bbox-nodes="true"
     inkscape:snap-bbox-edge-midpoints="true">
    <inkscape:grid
       type="xygrid"
       id="grid2985"
       empspacing="5"
       visible="true"
       enabled="true"
       snapvisiblegridlinesonly="true" />
    <sodipodi:guide
       orientation="1,0"
       position="200,105"
       id="guide3920" />
  </sodipodi:namedview>
  <metadata
     id="metadata7">
    <rdf:RDF>
      <cc:Work
         rdf:about="">
        <dc:format>image/svg+xml</dc:format>
        <dc:type
           rdf:resource="http://purl.org/dc/dcmitype/StillImage" />
        <dc:title />
      </cc:Work>
    </rdf:RDF>
  </metadata>
  <g
     inkscape:label="Ebene 1"
     inkscape:groupmode="layer"
     id="layer1"
     transform="translate(0,-932.36218)">
    <path
       style="opacity:0.45;fill:#000000;fill-opacity:1;stroke:none;stroke-width:0.99999994;stroke-linecap:butt;stroke-linejoin:round;stroke-miterlimit:4;stroke-dasharray:none;stroke-dashoffset:0;stroke-opacity:1"
       d="M 8 6 C 6.892 6 6 6.8919999 6 8 L 6 121 C 6 122.108 6.892 123 8 123 L 392 123 C 393.108 123 394 122.108 394 121 L 394 8 C 394 6.8919999 393.108 6 392 6 L 8 6 z M 8 7 L 392 7 C 392.554 7 393 7.446 393 8 L 393 121 C 393 121.554 392.554 122 392 122 L 8 122 C 7.446 122 7 121.554 7 121 L 7 8 C 7 7.446 7.446 7 8 7 z "
       transform="translate(0,932.36218)"
       id="rect4179-2-0-9-8" />
    <rect
       style="opacity:0.3;fill:#cfd8dc;fill-opacity:1;stroke:none;stroke-width:0.99999994;stroke-linecap:butt;stroke-linejoin:round;stroke-miterlimit:4;stroke-dasharray:none;stroke-dashoffset:0;stroke-opacity:1"
       id="rect4179-2-0-9"
       width="386"
       height="115"
       x="7"
       y="939.36218"
       ry="1"
       rx="1" />
    <g
       id="g4160"
       transform="translate(69,4.6817913)">
      <rect
         style="display:inline;opacity:1;fill:#92a6b1;fill-opacity:1;stroke:none;stroke-width:8;stroke-linecap:round;stroke-linejoin:miter;stroke-miterlimit:4;stroke-dasharray:none;stroke-opacity:1;enable-background:new"
         id="rect4259"
         width="16"
         height="5.818182"
         x="123"
         y="962.36218"
         ry="1"
         rx="1" />
      <path
         style="display:inline;opacity:0.2;fill:#000000;fill-opacity:1;stroke:none;enable-background:new"
         d="m 109.90909,966.72582 c -1.61164,0 -2.90909,1.29745 -2.90909,2.90909 l 0,5.81818 1.45455,0 0,43.63641 c 0,1.6116 1.29745,2.9091 2.90909,2.9091 l 39.27272,0 c 1.61164,0 2.90909,-1.2975 2.90909,-2.9091 l 0,-43.63641 1.45455,0 0,-5.81818 c 0,-1.61164 -1.29745,-2.90909 -2.90909,-2.90909 l -42.18182,0 z"
         id="path4241"
         inkscape:connector-curvature="0" />
      <path
         style="display:inline;opacity:1;fill:#cfd8dc;fill-opacity:1;stroke:none;enable-background:new"
         d="m 153.54545,1017.6349 0,-46.54545 -45.0909,0 0,46.54545 c 0,1.6117 1.29745,2.9091 2.90909,2.9091 l 39.27272,0 c 1.61164,0 2.90909,-1.2974 2.90909,-2.9091 z"
         id="rect4203"
         inkscape:connector-curvature="0"
         sodipodi:nodetypes="sccssss" />
      <rect
         style="display:inline;opacity:1;fill:#a2b3bc;fill-opacity:1;stroke:none;stroke-width:8;stroke-linecap:round;stroke-linejoin:miter;stroke-miterlimit:4;stroke-dasharray:none;stroke-opacity:1;enable-background:new"
         id="rect4237"
         width="4.3636365"
         height="43.636364"
         x="128.81818"
         y="969.63489"
         ry="1.5"
         rx="1.5" />
      <rect
         style="display:inline;opacity:1;fill:#a2b3bc;fill-opacity:1;stroke:none;stroke-width:8;stroke-linecap:round;stroke-linejoin:miter;stroke-miterlimit:4;stroke-dasharray:none;stroke-opacity:1;enable-background:new"
         id="rect4233"
         width="4.3636365"
         height="43.636364"
         x="117.18182"
         y="969.63489"
         ry="1.5"
         rx="1.5" />
      <rect
         ry="1.5"
         y="969.63489"
         x="140.45454"
         height="43.636364"
         width="4.3636365"
         id="rect4235"
         style="display:inline;opacity:1;fill:#a2b3bc;fill-opacity:1;stroke:none;stroke-width:8;stroke-linecap:round;stroke-linejoin:miter;stroke-miterlimit:4;stroke-dasharray:none;stroke-opacity:1;enable-background:new"
         rx="1.5" />
      <path
         sodipodi:nodetypes="sccssss"
         inkscape:connector-curvature="0"
         id="path4231"
         d="m 155,968.18036 0,5.81818 -48,0 0,-5.81818 c 0,-1.61164 1.29745,-2.90909 2.90909,-2.90909 l 42.18182,0 c 1.61164,0 2.90909,1.29745 2.90909,2.90909 z"
         style="display:inline;opacity:1;fill:#889ea9;fill-opacity:1;stroke:none;enable-background:new" />
      <path
         style="display:inline;opacity:0.2;fill:#ffffff;fill-opacity:1;stroke:none;enable-background:new"
         d="m 109.90909,965.27127 c -1.61164,0 -2.90909,1.29745 -2.90909,2.90909 l 0,1.45455 c 0,-1.61164 1.29745,-2.90909 2.90909,-2.90909 l 42.18182,0 c 1.61164,0 2.90909,1.29745 2.90909,2.90909 l 0,-1.45455 c 0,-1.61164 -1.29745,-2.90909 -2.90909,-2.90909 l -42.18182,0 z"
         id="path4243"
         inkscape:connector-curvature="0" />
      <rect
         style="display:inline;opacity:0.05;fill:#000000;fill-opacity:1;stroke:none;stroke-width:8;stroke-linecap:round;stroke-linejoin:miter;stroke-miterlimit:4;stroke-dasharray:none;stroke-opacity:1;enable-background:new"
         id="rect4249"
         width="45.090908"
         height="1.4545455"
         x="108.45454"
         y="973.99854" />
    </g>
  </g>
</svg>
