<?xml version="1.0" encoding="UTF-8" standalone="no"?>
<svg
   xmlns:dc="http://purl.org/dc/elements/1.1/"
   xmlns:cc="http://creativecommons.org/ns#"
   xmlns:rdf="http://www.w3.org/1999/02/22-rdf-syntax-ns#"
   xmlns:svg="http://www.w3.org/2000/svg"
   xmlns="http://www.w3.org/2000/svg"
   xmlns:xlink="http://www.w3.org/1999/xlink"
   xmlns:sodipodi="http://sodipodi.sourceforge.net/DTD/sodipodi-0.dtd"
   xmlns:inkscape="http://www.inkscape.org/namespaces/inkscape"
   height="22"
   width="64"
   version="1.1"
   id="svg2"
   inkscape:version="0.48.5 r10040"
   sodipodi:docname="toggle_on_intl.svg">
  <metadata
     id="metadata82">
    <rdf:RDF>
      <cc:Work
         rdf:about="">
        <dc:format>image/svg+xml</dc:format>
        <dc:type
           rdf:resource="http://purl.org/dc/dcmitype/StillImage" />
      </cc:Work>
    </rdf:RDF>
  </metadata>
  <sodipodi:namedview
     pagecolor="#ffffff"
     bordercolor="#666666"
     borderopacity="1"
     objecttolerance="10"
     gridtolerance="10"
     guidetolerance="10"
     inkscape:pageopacity="0"
     inkscape:pageshadow="2"
     inkscape:window-width="1366"
     inkscape:window-height="718"
     id="namedview80"
     showgrid="false"
     inkscape:zoom="13.214058"
     inkscape:cx="28.921487"
     inkscape:cy="8.2298636"
     inkscape:window-x="0"
     inkscape:window-y="0"
     inkscape:window-maximized="1"
     inkscape:current-layer="svg2" />
  <defs
     id="defs4">
    <filter
       id="l"
       height="1.156"
       width="1.52"
       color-interpolation-filters="sRGB"
       y="-0.078"
       x="-0.26">
      <feGaussianBlur
         stdDeviation="0.325"
         id="feGaussianBlur7" />
    </filter>
    <linearGradient
       id="a">
      <stop
         offset="0"
         id="stop10" />
      <stop
         stop-opacity=".70588"
         offset="0.6"
         id="stop12" />
      <stop
         stop-opacity="0"
         offset="1"
         id="stop14" />
    </linearGradient>
    <linearGradient
       id="b"
       stop-color="#fff">
      <stop
         offset="0"
         id="stop17" />
      <stop
         stop-opacity=".70588"
         offset="0.6"
         id="stop19" />
      <stop
         stop-opacity="0"
         offset="1"
         id="stop21" />
    </linearGradient>
    <linearGradient
       id="i"
       y2=".49999"
       gradientUnits="userSpaceOnUse"
       x2="40.812"
       gradientTransform="matrix(-1,0,0,-1,64.5,20.5)"
       y1="18.5"
       x1="40.812">
      <stop
         stop-color="#121212"
         offset="0"
         id="stop24" />
      <stop
         stop-color="#2E2E2E"
         offset="1"
         id="stop26" />
    </linearGradient>
    <radialGradient
       id="h"
       xlink:href="#a"
       gradientUnits="userSpaceOnUse"
       cy="11"
       cx="42.5"
       gradientTransform="matrix(11,0,0,10,-417,-99)" />
    <radialGradient
       id="g"
       xlink:href="#b"
       gradientUnits="userSpaceOnUse"
       cy="11"
       cx="42.5"
       gradientTransform="matrix(11,0,0,10,-416,-99)" />
    <radialGradient
       id="f"
       xlink:href="#a"
       gradientUnits="userSpaceOnUse"
       cy="11"
       cx="42.5"
       gradientTransform="matrix(11,0,0,10,-421,-99)" />
    <radialGradient
       id="e"
       xlink:href="#b"
       gradientUnits="userSpaceOnUse"
       cy="11"
       cx="42.5"
       gradientTransform="matrix(11,0,0,10,-420,-99)" />
    <radialGradient
       id="d"
       xlink:href="#a"
       gradientUnits="userSpaceOnUse"
       cy="11"
       cx="42.5"
       gradientTransform="matrix(11,0,0,10,-425,-99)" />
    <radialGradient
       id="c"
       xlink:href="#b"
       gradientUnits="userSpaceOnUse"
       cy="11"
       cx="42.5"
       gradientTransform="matrix(11,0,0,10,-424,-99)" />
    <linearGradient
       id="k"
       y2="28"
       stop-color="#555"
       gradientUnits="userSpaceOnUse"
       x2="41"
       gradientTransform="translate(-2,-1)"
       y1="1"
       x1="41">
      <stop
         offset="0"
         id="stop35" />
      <stop
         stop-opacity="0"
         offset="1"
         id="stop37" />
    </linearGradient>
    <linearGradient
       id="j"
       y2="2"
       gradientUnits="userSpaceOnUse"
       x2="48"
       gradientTransform="translate(-2,-1)"
       y1="21"
       x1="48">
      <stop
         stop-color="#121212"
         offset="0"
         id="stop40" />
      <stop
         stop-color="#2E2E2E"
         offset="1"
         id="stop42" />
    </linearGradient>
    <radialGradient
       inkscape:collect="always"
       xlink:href="#a"
       id="radialGradient12621"
       gradientUnits="userSpaceOnUse"
       gradientTransform="matrix(11,0,0,10,-417,-99)"
       cx="42.5"
       cy="11" />
    <radialGradient
       inkscape:collect="always"
       xlink:href="#b"
       id="radialGradient12624"
       gradientUnits="userSpaceOnUse"
       gradientTransform="matrix(11,0,0,10,-416,-99)"
       cx="42.5"
       cy="11" />
    <radialGradient
       inkscape:collect="always"
       xlink:href="#a"
       id="radialGradient12627"
       gradientUnits="userSpaceOnUse"
       gradientTransform="matrix(11,0,0,10,-421,-99)"
       cx="42.5"
       cy="11" />
    <radialGradient
       inkscape:collect="always"
       xlink:href="#b"
       id="radialGradient12630"
       gradientUnits="userSpaceOnUse"
       gradientTransform="matrix(11,0,0,10,-420,-99)"
       cx="42.5"
       cy="11" />
    <radialGradient
       inkscape:collect="always"
       xlink:href="#a"
       id="radialGradient12633"
       gradientUnits="userSpaceOnUse"
       gradientTransform="matrix(11,0,0,10,-425,-99)"
       cx="42.5"
       cy="11" />
    <radialGradient
       inkscape:collect="always"
       xlink:href="#b"
       id="radialGradient12636"
       gradientUnits="userSpaceOnUse"
       gradientTransform="matrix(11,0,0,10,-424,-99)"
       cx="42.5"
       cy="11" />
    <linearGradient
       inkscape:collect="always"
       xlink:href="#k"
       id="linearGradient12639"
       gradientUnits="userSpaceOnUse"
       gradientTransform="translate(-2,-1)"
       x1="41"
       y1="1"
       x2="41"
       y2="28" />
    <linearGradient
       inkscape:collect="always"
       xlink:href="#j"
       id="linearGradient12642"
       gradientUnits="userSpaceOnUse"
       gradientTransform="translate(-2,-1)"
       x1="48"
       y1="21"
       x2="48"
       y2="2" />
    <linearGradient
       inkscape:collect="always"
       xlink:href="#i"
       id="linearGradient12653"
       gradientUnits="userSpaceOnUse"
       gradientTransform="matrix(-1,0,0,-1,64.5,20.5)"
       x1="40.812"
       y1="18.5"
       x2="40.812"
       y2=".49999" />
  </defs>
  <path
     inkscape:connector-curvature="0"
     style="color:#000000;fill:url(#linearGradient12653)"
     id="path46"
     d="M 5,3 C 3.8776,3 3,3.8776 3,5 v 12 c 0,1.1224 0.8776,2 2,2 h 54 c 1.1224,0 2,-0.8776 2,-2 V 5 C 61,3.8776 60.122,3 59,3 H 5 z" />
  <path
     style="opacity:0.07999998;color:#000000"
     inkscape:connector-curvature="0"
     id="path48"
     d="M 5,2 C 3.338,2 2,3.338 2,5 v 12 c 0,1.662 1.338,3 3,3 h 54 c 1.662,0 3,-1.338 3,-3 V 5 C 62,3.338 60.662,2 59,2 z M 5,5 H 59 V 17 H 5 z" />
  <path
     style="opacity:0.12000002;color:#000000"
     inkscape:connector-curvature="0"
     id="path50"
     d="M 5,2 C 3.338,2 2,3.338 2,5 v 12 c 0,1.662 1.338,3 3,3 h 54 c 1.662,0 3,-1.338 3,-3 V 5 C 62,3.338 60.662,2 59,2 z m 0,2 h 54 c 0.5825,0 1,0.4175 1,1 v 12 c 0,0.5825 -0.4175,1 -1,1 H 5 C 4.4175,18 4,17.582 4,17 V 5 C 4,4.4175 4.4175,4 5,4 z" />
  <path
     style="opacity:0.2;color:#000000;fill:#ffffff"
     inkscape:connector-curvature="0"
     id="path52"
     d="M 5,2 C 3.338,2 2,3.338 2,5 v 12 c 0,1.662 1.338,3 3,3 h 54 c 1.662,0 3,-1.338 3,-3 V 5 C 62,3.338 60.662,2 59,2 z m 0,1 h 54 c 1.1174,0 2,0.88261 2,2 v 12 c 0,1.1174 -0.88261,2 -2,2 H 5 C 3.8826,19 3,18.117 3,17 V 5 C 3,3.8826 3.8826,3 5,3 z" />
  <path
     style="opacity:0.05;color:#000000"
     inkscape:connector-curvature="0"
     id="path58"
     d="m 35,-0.9375 c -3.3342,-0.084493 -6.2283,3.0589 -5.9375,6.3684 0.01965,4.0571 -0.03992,8.1168 0.03091,12.172 0.25485,3.1387 3.3049,5.6251 6.4237,5.3343 7.9288,-0.0052 15.858,0.01037 23.786,-0.0078 3.2585,-0.09082 5.9425,-3.2203 5.634,-6.4468 -0.01964,-4.0284 0.0399,-8.0593 -0.03091,-12.086 -0.25485,-3.1387 -3.3049,-5.6251 -6.4237,-5.3343 h -23.483 z" />
  <path
     style="opacity:0.1;color:#000000"
     inkscape:connector-curvature="0"
     id="path60"
     d="m 35,0 c -2.823,-0.068816 -5.261,2.6062 -5,5.405 0.017,4.0337 -0.034,8.07 0.026,12.102 0.219,2.662 2.819,4.755 5.46,4.493 7.923,-0.004 15.846,0.009 23.769,-0.007 C 62.019,21.914 64.277,19.246 64,16.514 63.983,12.507 64.034,8.4984 63.974,4.493 63.755,1.8306 61.155,-0.2618 58.514,0 H 35 z" />
  <path
     style="opacity:0.2;color:#000000"
     inkscape:connector-curvature="0"
     id="path62"
     d="m 35,1.0312 c -2.2659,-0.057801 -4.2002,2.1058 -3.9688,4.3452 0.01352,4.0086 -0.02722,8.0189 0.02069,12.026 0.17291,2.1437 2.2828,3.7975 4.3999,3.5659 7.9169,-0.0035 15.834,0.0069 23.751,-0.0052 2.2242,-0.06114 4.0116,-2.2264 3.7661,-4.4153 -0.01352,-3.9835 0.02722,-7.9687 -0.02069,-11.951 -0.173,-2.1437 -2.283,-3.7976 -4.4,-3.566 h -23.548 z" />
  <rect
     style="color:#000000;fill:url(#linearGradient12642)"
     id="rect64"
     x="32"
     y="2"
     width="30"
     height="18"
     ry="3"
     rx="3" />
  <path
     inkscape:connector-curvature="0"
     style="opacity:0.6;color:#000000;fill:url(#linearGradient12639)"
     id="path66"
     d="m 35,2 c -1.662,0 -3,1.338 -3,3 v 12 c 0,1.662 1.338,3 3,3 h 24 c 1.662,0 3,-1.338 3,-3 V 5 C 62,3.338 60.662,2 59,2 z m 0,1 h 24 c 1.1256,0 2,0.87439 2,2 v 12 c 0,1.1256 -0.87439,2 -2,2 H 35 c -1.1256,0 -2,-0.87439 -2,-2 V 5 c 0,-1.1256 0.87439,-2 2,-2 z" />
  <rect
     style="opacity:0.4;color:#000000;fill:url(#radialGradient12636)"
     id="rect68"
     x="43"
     y="6"
     width="1"
     height="10" />
  <rect
     style="opacity:0.2;color:#000000;fill:url(#radialGradient12633)"
     id="rect70"
     x="42"
     y="6"
     width="1"
     height="10" />
  <rect
     style="opacity:0.4;color:#000000;fill:url(#radialGradient12630)"
     id="rect72"
     x="47"
     y="6"
     width="1"
     height="10" />
  <rect
     style="opacity:0.2;color:#000000;fill:url(#radialGradient12627)"
     id="rect74"
     x="46"
     y="6"
     width="1"
     height="10" />
  <rect
     style="opacity:0.4;color:#000000;fill:url(#radialGradient12624)"
     id="rect76"
     x="51"
     y="6"
     width="1"
     height="10" />
  <rect
     style="opacity:0.2;color:#000000;fill:url(#radialGradient12621)"
     id="rect78"
     x="50"
     y="6"
     width="1"
     height="10" />
</svg>
