<?xml version="1.0" encoding="UTF-8" standalone="no"?>
<svg
   xmlns:dc="http://purl.org/dc/elements/1.1/"
   xmlns:cc="http://creativecommons.org/ns#"
   xmlns:rdf="http://www.w3.org/1999/02/22-rdf-syntax-ns#"
   xmlns:svg="http://www.w3.org/2000/svg"
   xmlns="http://www.w3.org/2000/svg"
   xmlns:xlink="http://www.w3.org/1999/xlink"
   xmlns:sodipodi="http://sodipodi.sourceforge.net/DTD/sodipodi-0.dtd"
   xmlns:inkscape="http://www.inkscape.org/namespaces/inkscape"
   height="22"
   width="64"
   version="1.1"
   id="svg2"
   inkscape:version="0.48.5 r10040"
   sodipodi:docname="switch.svg">
  <metadata
     id="metadata84">
    <rdf:RDF>
      <cc:Work
         rdf:about="">
        <dc:format>image/svg+xml</dc:format>
        <dc:type
           rdf:resource="http://purl.org/dc/dcmitype/StillImage" />
      </cc:Work>
    </rdf:RDF>
  </metadata>
  <sodipodi:namedview
     pagecolor="#ffffff"
     bordercolor="#666666"
     borderopacity="1"
     objecttolerance="10"
     gridtolerance="10"
     guidetolerance="10"
     inkscape:pageopacity="0"
     inkscape:pageshadow="2"
     inkscape:window-width="1280"
     inkscape:window-height="999"
     id="namedview82"
     showgrid="true"
     inkscape:zoom="18.6875"
     inkscape:cx="42.945614"
     inkscape:cy="15.170989"
     inkscape:window-x="1366"
     inkscape:window-y="0"
     inkscape:window-maximized="1"
     inkscape:current-layer="svg2">
    <inkscape:grid
       empspacing="5"
       visible="true"
       enabled="true"
       snapvisiblegridlinesonly="true"
       type="xygrid"
       id="grid11823" />
  </sodipodi:namedview>
  <defs
     id="defs4">
    <linearGradient
       id="linearGradient12647">
      <stop
         style="stop-color:#050505;stop-opacity:0.11764706;"
         offset="0"
         id="stop12649" />
      <stop
         id="stop12655"
         offset="0.25"
         style="stop-color:#000000;stop-opacity:0;" />
      <stop
         style="stop-color:#000000;stop-opacity:0;"
         offset="1"
         id="stop12651" />
    </linearGradient>
    <linearGradient
       id="linearGradient12639">
      <stop
         style="stop-color:#ffffff;stop-opacity:0.04705882;"
         offset="0"
         id="stop12641" />
      <stop
         style="stop-color:#ffffff;stop-opacity:0.04705882;"
         offset="1"
         id="stop12643" />
    </linearGradient>
    <linearGradient
       id="linearGradient12631">
      <stop
         style="stop-color:#333333;stop-opacity:1;"
         offset="0"
         id="stop12633" />
      <stop
         style="stop-color:#222222;stop-opacity:1;"
         offset="1"
         id="stop12635" />
    </linearGradient>
    <linearGradient
       x1="48"
       y1="21"
       gradientTransform="translate(-32,-1)"
       x2="48"
       gradientUnits="userSpaceOnUse"
       y2="2"
       id="linearGradient12625">
      <stop
         style="stop-color:#2a2a2a;stop-opacity:1;"
         id="stop12627"
         offset="0"
         stop-color="#121212" />
      <stop
         style="stop-color:#303030;stop-opacity:1;"
         id="stop12629"
         offset="1"
         stop-color="#2E2E2E" />
    </linearGradient>
    <linearGradient
       id="linearGradient12592">
      <stop
         style="stop-color:#787878;stop-opacity:0.27450982;"
         offset="0"
         id="stop12594" />
      <stop
         id="stop12602"
         offset="0.16666667"
         style="stop-color:#0a0a0a;stop-opacity:0.72549021;" />
      <stop
         id="stop12600"
         offset="0.83333331"
         style="stop-color:#0a0a0a;stop-opacity:0.72549021;" />
      <stop
         style="stop-color:#000000;stop-opacity:0.74509805;"
         offset="1"
         id="stop12596" />
    </linearGradient>
    <radialGradient
       id="w"
       xlink:href="#n"
       gradientUnits="userSpaceOnUse"
       cy="11"
       cx="42.5"
       gradientTransform="matrix(11,0,0,10,-447,-99)" />
    <linearGradient
       id="n">
      <stop
         offset="0"
         id="stop8" />
      <stop
         stop-opacity=".70588"
         offset="0.6"
         id="stop10" />
      <stop
         stop-opacity="0"
         offset="1"
         id="stop12" />
    </linearGradient>
    <radialGradient
       id="v"
       xlink:href="#m"
       gradientUnits="userSpaceOnUse"
       cy="11"
       cx="42.5"
       gradientTransform="matrix(11,0,0,10,-446,-99)" />
    <linearGradient
       id="m"
       stop-color="#fff">
      <stop
         offset="0"
         id="stop16" />
      <stop
         stop-opacity=".70588"
         offset="0.6"
         id="stop18" />
      <stop
         stop-opacity="0"
         offset="1"
         id="stop20" />
    </linearGradient>
    <radialGradient
       id="u"
       xlink:href="#n"
       gradientUnits="userSpaceOnUse"
       cy="11"
       cx="42.5"
       gradientTransform="matrix(11,0,0,10,-451,-99)" />
    <radialGradient
       id="t"
       xlink:href="#m"
       gradientUnits="userSpaceOnUse"
       cy="11"
       cx="42.5"
       gradientTransform="matrix(11,0,0,10,-450,-99)" />
    <radialGradient
       id="s"
       xlink:href="#n"
       gradientUnits="userSpaceOnUse"
       cy="11"
       cx="42.5"
       gradientTransform="matrix(11,0,0,10,-455,-99)" />
    <radialGradient
       id="x"
       xlink:href="#m"
       gradientUnits="userSpaceOnUse"
       cy="11"
       cx="42.5"
       gradientTransform="matrix(11,0,0,10,-454,-99)" />
    <linearGradient
       id="p"
       y2="28"
       stop-color="#555"
       gradientUnits="userSpaceOnUse"
       x2="41"
       gradientTransform="translate(-32,-1)"
       y1="1"
       x1="41">
      <stop
         offset="0"
         id="stop27" />
      <stop
         stop-opacity="0"
         offset="1"
         id="stop29" />
    </linearGradient>
    <linearGradient
       id="q"
       y2="2"
       gradientUnits="userSpaceOnUse"
       x2="48"
       gradientTransform="translate(-32,-1)"
       y1="21"
       x1="48">
      <stop
         stop-color="#121212"
         offset="0"
         id="stop32"
         style="stop-color:#2d2d2d;stop-opacity:1;" />
      <stop
         stop-color="#2E2E2E"
         offset="1"
         id="stop34"
         style="stop-color:#303030;stop-opacity:1;" />
    </linearGradient>
    <filter
       id="o"
       height="1.24"
       width="1.24"
       color-interpolation-filters="sRGB"
       y="-.12"
       x="-.12">
      <feGaussianBlur
         stdDeviation="0.5"
         id="feGaussianBlur37" />
    </filter>
    <linearGradient
       id="r"
       y2=".49999"
       gradientUnits="userSpaceOnUse"
       x2="40.812"
       gradientTransform="matrix(-1,0,0,-1,64.5,20.5)"
       y1="18.5"
       x1="40.812">
      <stop
         stop-color="#121212"
         offset="0"
         id="stop40"
         style="stop-color:#000000;stop-opacity:1;" />
      <stop
         stop-color="#2E2E2E"
         offset="1"
         id="stop42"
         style="stop-color:#000000;stop-opacity:1;" />
    </linearGradient>
    <radialGradient
       inkscape:collect="always"
       xlink:href="#n"
       id="radialGradient11855"
       gradientUnits="userSpaceOnUse"
       gradientTransform="matrix(11,0,0,10,-447,-99)"
       cx="42.5"
       cy="11" />
    <radialGradient
       inkscape:collect="always"
       xlink:href="#m"
       id="radialGradient11858"
       gradientUnits="userSpaceOnUse"
       gradientTransform="matrix(11,0,0,10,-446,-99)"
       cx="42.5"
       cy="11" />
    <radialGradient
       inkscape:collect="always"
       xlink:href="#n"
       id="radialGradient11861"
       gradientUnits="userSpaceOnUse"
       gradientTransform="matrix(11,0,0,10,-451,-99)"
       cx="42.5"
       cy="11" />
    <radialGradient
       inkscape:collect="always"
       xlink:href="#m"
       id="radialGradient11864"
       gradientUnits="userSpaceOnUse"
       gradientTransform="matrix(11,0,0,10,-450,-99)"
       cx="42.5"
       cy="11" />
    <radialGradient
       inkscape:collect="always"
       xlink:href="#n"
       id="radialGradient11867"
       gradientUnits="userSpaceOnUse"
       gradientTransform="matrix(11,0,0,10,-455,-99)"
       cx="42.5"
       cy="11" />
    <radialGradient
       inkscape:collect="always"
       xlink:href="#m"
       id="radialGradient11870"
       gradientUnits="userSpaceOnUse"
       gradientTransform="matrix(11,0,0,10,-454,-99)"
       cx="42.5"
       cy="11" />
    <linearGradient
       inkscape:collect="always"
       xlink:href="#r"
       id="linearGradient11888"
       gradientUnits="userSpaceOnUse"
       gradientTransform="matrix(-1,0,0,-1,64.5,20.5)"
       x1="40.812"
       y1="18.5"
       x2="40.812"
       y2=".49999" />
    <linearGradient
       inkscape:collect="always"
       xlink:href="#linearGradient12592"
       id="linearGradient12598"
       x1="48"
       y1="20"
       x2="48"
       y2="2"
       gradientUnits="userSpaceOnUse" />
    <linearGradient
       inkscape:collect="always"
       xlink:href="#r"
       id="linearGradient12621"
       gradientUnits="userSpaceOnUse"
       gradientTransform="matrix(-1,0,0,-1,64.5,20.5)"
       x1="40.812"
       y1="18.5"
       x2="40.812"
       y2=".49999" />
    <linearGradient
       inkscape:collect="always"
       xlink:href="#linearGradient12631"
       id="linearGradient12637"
       x1="17"
       y1="2"
       x2="17"
       y2="20"
       gradientUnits="userSpaceOnUse" />
    <linearGradient
       inkscape:collect="always"
       xlink:href="#linearGradient12639"
       id="linearGradient12645"
       x1="19"
       y1="2"
       x2="19"
       y2="20"
       gradientUnits="userSpaceOnUse" />
    <linearGradient
       inkscape:collect="always"
       xlink:href="#linearGradient12647"
       id="linearGradient12653"
       x1="53"
       y1="3"
       x2="53"
       y2="19"
       gradientUnits="userSpaceOnUse" />
    <filter
       id="o-7"
       height="1.24"
       width="1.24"
       color-interpolation-filters="sRGB"
       y="-0.12"
       x="-0.12">
      <feGaussianBlur
         stdDeviation="0.5"
         id="feGaussianBlur37-7" />
    </filter>
  </defs>
  <path
     inkscape:connector-curvature="0"
     style="opacity:1;color:#000000;fill:#000000;fill-opacity:0.2"
     id="path46"
     d="M 5,3 C 3.8776,3 3,3.8776 3,5 v 12 c 0,1.1224 0.8776,2 2,2 h 54 c 1.1224,0 2,-0.8776 2,-2 V 5 C 61,3.8776 60.122,3 59,3 H 5 z" />
  <path
     style="opacity:0.02;color:#000000"
     inkscape:connector-curvature="0"
     id="path48"
     d="M 5.4816054,3 C 3.8196054,3 3,3.8998729 3,5.5618729 L 3,16.571906 C 3,18.233906 3.8463612,19 5.5083612,19 L 58.545151,19 C 60.207151,19 61,18.287418 61,16.625418 L 61,5.4816054 C 61,3.7534385 60.207151,3 58.545151,3 z M 5,5 59,5 59,17 5,17 z"
     sodipodi:nodetypes="sssssssssccccc" />
  <path
     style="color:#000000;fill:url(#linearGradient12653);fill-opacity:1"
     inkscape:connector-curvature="0"
     id="path50"
     d="M 5.5521739,3 C 3.9455739,3 3,3.9752872 3,5.4526192 L 3,16.574143 C 3,18.051463 3.9188181,19 5.5254181,19 L 58.715385,19 C 60.321985,19 61,18.022471 61,16.545151 L 61,5 C 61,4 60.266054,3 59,3 z M 5,4 59,4 c 0.563083,0 1,0.482222 1,1 l 0,12 c 0,0.51778 -0.436917,1 -1,1 L 5,18 C 4.4369167,18 4,17.51732 4,17 L 4,5 C 4,4.482222 4.4369167,4 5,4 z"
     sodipodi:nodetypes="ssssssssssssssssss" />
  <path
     style="opacity:1;color:#000000;fill:url(#linearGradient12598);fill-opacity:1"
     inkscape:connector-curvature="0"
     id="path52"
     d="M 5,2 C 3.338,2 2,3.338 2,5 v 12 c 0,1.662 1.338,3 3,3 h 54 c 1.662,0 3,-1.338 3,-3 V 5 C 62,3.338 60.662,2 59,2 z m 0,1 h 54 c 1.1174,0 2,0.88261 2,2 v 12 c 0,1.1174 -0.88261,2 -2,2 H 5 C 3.8826,19 3,18.117 3,17 V 5 C 3,3.8826 3.8826,3 5,3 z" />
  <path
     style="opacity:0.05;color:#000000"
     inkscape:connector-curvature="0"
     id="path60"
     d="m 5,-0.9375 c -3.2559,0 -5.9375,2.6816 -5.9375,5.9375 v 12 c 0,3.2559 2.6816,5.9375 5.9375,5.9375 h 24 c 3.2559,0 5.9375,-2.6816 5.9375,-5.9375 V 5 c 0,-3.2559 -2.682,-5.9375 -5.938,-5.9375 h -24 z" />
  <path
     style="opacity:0.1;color:#000000"
     inkscape:connector-curvature="0"
     id="path62"
     d="M 5,0 C 2.2643,0 0,2.2643 0,5 v 12 c 0,2.7357 2.2643,5 5,5 h 24 c 2.7357,0 5,-2.2643 5,-5 V 5 C 34,2.2643 31.736,0 29,0 H 5 z" />
  <path
     style="opacity:0.25;color:#000000"
     inkscape:connector-curvature="0"
     id="path64"
     d="M 5,1.0312 C 2.8258,1.0312 1.0312,2.8258 1.0312,5 v 12 c 0,2.1742 1.7946,3.9688 3.9688,3.9688 h 24 c 2.1742,0 3.9688,-1.7946 3.9688,-3.9688 V 5 c 0,-2.1742 -1.795,-3.9688 -3.969,-3.9688 h -24 z" />
  <rect
     style="color:#000000;fill:url(#linearGradient12637);fill-opacity:1"
     id="rect66"
     x="2"
     y="2"
     width="30"
     height="18"
     ry="3"
     rx="3" />
  <path
     inkscape:connector-curvature="0"
     style="opacity:1;color:#000000;fill:url(#linearGradient12645);fill-opacity:1"
     id="path68"
     d="M 5,2 C 3.338,2 2,3.338 2,5 v 12 c 0,1.662 1.338,3 3,3 h 24 c 1.662,0 3,-1.338 3,-3 V 5 C 32,3.338 30.662,2 29,2 z m 0,1 h 24 c 1.1256,0 2,0.87439 2,2 v 12 c 0,1.1256 -0.87439,2 -2,2 H 5 C 3.8744,19 3,18.126 3,17 V 5 C 3,3.8744 3.8744,3 5,3 z" />
  <rect
     style="opacity:0.4;color:#000000;fill:url(#radialGradient11870)"
     id="rect70"
     x="13"
     y="6"
     width="1"
     height="10" />
  <rect
     style="opacity:0.2;color:#000000;fill:url(#radialGradient11867)"
     id="rect72"
     x="12"
     y="6"
     width="1"
     height="10" />
  <rect
     style="opacity:0.4;color:#000000;fill:url(#radialGradient11864)"
     id="rect74"
     x="17"
     y="6"
     width="1"
     height="10" />
  <rect
     style="opacity:0.2;color:#000000;fill:url(#radialGradient11861)"
     id="rect76"
     x="16"
     y="6"
     width="1"
     height="10" />
  <rect
     style="opacity:0.4;color:#000000;fill:url(#radialGradient11858)"
     id="rect78"
     x="21"
     y="6"
     width="1"
     height="10" />
  <rect
     style="opacity:0.2;color:#000000;fill:url(#radialGradient11855)"
     id="rect80"
     x="20"
     y="6"
     width="1"
     height="10" />
  <g
     transform="translate(-1,0)"
     style="color:#000000"
     id="g54">
    <path
       style="filter:url(#o-7)"
       inkscape:connector-curvature="0"
       id="path56"
       d="m 47,6.5 c -2.7614,0 -5,2.2386 -5,5 0,2.7614 2.2386,5 5,5 2.7614,0 5,-2.2386 5,-5 0,-2.7614 -2.2386,-5 -5,-5 z m 0,2 c 1.6569,0 3,1.3431 3,3 0,1.6569 -1.3431,3 -3,3 -1.6569,0 -3,-1.3431 -3,-3 0,-1.6569 1.3431,-3 3,-3 z" />
    <path
       style="fill:#6ebefe"
       inkscape:connector-curvature="0"
       id="path58"
       d="m 47,6 c -2.7614,0 -5,2.2386 -5,5 0,2.7614 2.2386,5 5,5 2.7614,0 5,-2.2386 5,-5 0,-2.7614 -2.2386,-5 -5,-5 z m 0,2 c 1.6569,0 3,1.3431 3,3 0,1.6569 -1.3431,3 -3,3 -1.6569,0 -3,-1.3431 -3,-3 0,-1.6569 1.3431,-3 3,-3 z" />
  </g>
</svg>
