<?xml version="1.0" encoding="UTF-8" standalone="no"?>
<!-- Created with Inkscape (http://www.inkscape.org/) -->

<svg
   xmlns:dc="http://purl.org/dc/elements/1.1/"
   xmlns:cc="http://creativecommons.org/ns#"
   xmlns:rdf="http://www.w3.org/1999/02/22-rdf-syntax-ns#"
   xmlns:svg="http://www.w3.org/2000/svg"
   xmlns="http://www.w3.org/2000/svg"
   version="1.1"
   width="64"
   height="22"
   id="svg3273">
  <defs
     id="defs3275" />
  <metadata
     id="metadata3278">
    <rdf:RDF>
      <cc:Work
         rdf:about="">
        <dc:format>image/svg+xml</dc:format>
        <dc:type
           rdf:resource="http://purl.org/dc/dcmitype/StillImage" />
        <dc:title></dc:title>
      </cc:Work>
    </rdf:RDF>
  </metadata>
  <g
     transform="translate(-343,-521.36218)"
     id="layer1">
    <g
       transform="translate(-453,448.36218)"
       id="g17454"
       style="display:inline">
      <rect
         width="63.000004"
         height="19"
         rx="4"
         ry="4"
         x="-859.5"
         y="74.5"
         transform="scale(-1,1)"
         id="rect17456"
         style="color:#000000;fill:none;stroke:#aeaeae;stroke-width:0.99999994;stroke-linecap:round;stroke-linejoin:miter;stroke-miterlimit:4;stroke-opacity:0.50785337;stroke-dasharray:none;stroke-dashoffset:0;marker:none;visibility:visible;display:inline;overflow:visible;enable-background:accumulate" />
      <rect
         width="31"
         height="20"
         rx="4"
         ry="4"
         x="-828"
         y="74"
         transform="scale(-1,1)"
         id="rect17458"
         style="fill:#444444;fill-opacity:0.46596859;stroke:#929292;stroke-width:2;stroke-linecap:round;stroke-linejoin:miter;stroke-miterlimit:4;stroke-opacity:0.53403141;stroke-dasharray:none;stroke-dashoffset:0;display:inline" />
      <g
         transform="matrix(-1,0,0,1,1619.1239,-33.986291)"
         id="g17460"
         style="display:inline">
        <path
           d="m 803.6322,115.48629 0,4.29495"
           id="path17462"
           style="fill:none;stroke:#5f5f5f;stroke-width:1px;stroke-linecap:round;stroke-linejoin:miter;stroke-opacity:1" />
        <path
           d="m 806.62805,115.48629 0,4.29495"
           id="path17464"
           style="fill:none;stroke:#5f5f5f;stroke-width:1px;stroke-linecap:round;stroke-linejoin:miter;stroke-opacity:1;display:inline" />
        <path
           d="m 809.6239,115.48629 0,4.29495"
           id="path17466"
           style="fill:none;stroke:#5f5f5f;stroke-width:1px;stroke-linecap:round;stroke-linejoin:miter;stroke-opacity:1;display:inline" />
      </g>
      <g
         id="text3892"
         style="font-size:14px;font-style:normal;font-variant:normal;font-weight:bold;font-stretch:normal;line-height:125%;letter-spacing:0px;word-spacing:0px;fill:#9f9f9f;fill-opacity:0.75392671;stroke:none;font-family:Sans;-inkscape-font-specification:Sans Bold">
        <path
           d="m 844.12109,80.960762 c -0.80208,9e-6 -1.42415,0.296232 -1.86621,0.888672 -0.44206,0.592455 -0.66309,1.426438 -0.66308,2.501953 -1e-5,1.070968 0.22102,1.902672 0.66308,2.495117 0.44206,0.59245 1.06413,0.888674 1.86621,0.888672 0.80664,2e-6 1.43099,-0.296222 1.87305,-0.888672 0.44205,-0.592445 0.66308,-1.424149 0.66309,-2.495117 -10e-6,-1.075515 -0.22104,-1.909498 -0.66309,-2.501953 -0.44206,-0.59244 -1.06641,-0.888663 -1.87305,-0.888672 m 0,-1.907227 c 1.64062,1.1e-5 2.92578,0.469411 3.85547,1.408204 0.92968,0.93881 1.39452,2.235358 1.39453,3.889648 -10e-6,1.649743 -0.46485,2.944013 -1.39453,3.882813 -0.92969,0.938802 -2.21485,1.408202 -3.85547,1.408203 -1.63607,-10e-7 -2.92122,-0.469401 -3.85547,-1.408203 -0.92968,-0.9388 -1.39453,-2.23307 -1.39453,-3.882813 0,-1.65429 0.46485,-2.950838 1.39453,-3.889648 0.93425,-0.938793 2.2194,-1.408193 3.85547,-1.408204"
           id="path4070" />
      </g>
    </g>
  </g>
</svg>
