<?xml version="1.0" encoding="UTF-8" standalone="no"?>
<!-- Created with Inkscape (http://www.inkscape.org/) -->

<svg
   xmlns:dc="http://purl.org/dc/elements/1.1/"
   xmlns:cc="http://creativecommons.org/ns#"
   xmlns:rdf="http://www.w3.org/1999/02/22-rdf-syntax-ns#"
   xmlns:svg="http://www.w3.org/2000/svg"
   xmlns="http://www.w3.org/2000/svg"
   version="1.1"
   width="64"
   height="22"
   id="svg3273">
  <defs
     id="defs3275" />
  <metadata
     id="metadata3278">
    <rdf:RDF>
      <cc:Work
         rdf:about="">
        <dc:format>image/svg+xml</dc:format>
        <dc:type
           rdf:resource="http://purl.org/dc/dcmitype/StillImage" />
        <dc:title></dc:title>
      </cc:Work>
    </rdf:RDF>
  </metadata>
  <g
     transform="translate(-343,-521.36218)"
     id="layer1">
    <g
       transform="translate(-453,448.36218)"
       id="g17454"
       style="display:inline">
      <rect
         width="63.000004"
         height="19"
         rx="4"
         ry="4"
         x="-859.5"
         y="74.5"
         transform="scale(-1,1)"
         id="rect17456"
         style="color:#000000;fill:none;stroke:#aeaeae;stroke-width:0.99999994;stroke-linecap:round;stroke-linejoin:miter;stroke-miterlimit:4;stroke-opacity:0.50785337;stroke-dasharray:none;stroke-dashoffset:0;marker:none;visibility:visible;display:inline;overflow:visible;enable-background:accumulate" />
      <rect
         width="31"
         height="20"
         rx="4"
         ry="4"
         x="-859.18848"
         y="73.873734"
         transform="scale(-1,1)"
         id="rect17458"
         style="fill:#444444;fill-opacity:0.46596859;stroke:#929292;stroke-width:2;stroke-linecap:round;stroke-linejoin:miter;stroke-miterlimit:4;stroke-opacity:0.53403141;stroke-dasharray:none;stroke-dashoffset:0;display:inline" />
      <g
         transform="matrix(-1,0,0,1,1650.3124,-34.11256)"
         id="g17460"
         style="display:inline">
        <path
           d="m 803.6322,115.48629 0,4.29495"
           id="path17462"
           style="fill:none;stroke:#5f5f5f;stroke-width:1px;stroke-linecap:round;stroke-linejoin:miter;stroke-opacity:1" />
        <path
           d="m 806.62805,115.48629 0,4.29495"
           id="path17464"
           style="fill:none;stroke:#5f5f5f;stroke-width:1px;stroke-linecap:round;stroke-linejoin:miter;stroke-opacity:1;display:inline" />
        <path
           d="m 809.6239,115.48629 0,4.29495"
           id="path17466"
           style="fill:none;stroke:#5f5f5f;stroke-width:1px;stroke-linecap:round;stroke-linejoin:miter;stroke-opacity:1;display:inline" />
      </g>
      <g
         id="text3892"
         style="font-size:10px;font-style:normal;font-variant:normal;font-weight:bold;font-stretch:normal;line-height:125%;letter-spacing:0px;word-spacing:0px;fill:#9f9f9f;fill-opacity:0.75392671;stroke:none;font-family:Sans;-inkscape-font-specification:Sans Bold">
        <path
           d="m 807.44531,80.985481 c -0.57292,6e-6 -1.01725,0.211595 -1.33301,0.634766 -0.31575,0.423182 -0.47363,1.018885 -0.47363,1.787109 0,0.764977 0.15788,1.359052 0.47363,1.782227 0.31576,0.423178 0.76009,0.634767 1.33301,0.634765 0.57617,2e-6 1.02213,-0.211587 1.33789,-0.634765 0.31575,-0.423175 0.47363,-1.01725 0.47364,-1.782227 -10e-6,-0.768224 -0.15789,-1.363927 -0.47364,-1.787109 -0.31576,-0.423171 -0.76172,-0.63476 -1.33789,-0.634766 m 0,-1.362304 c 1.17187,7e-6 2.08984,0.335293 2.75391,1.005859 0.66405,0.670579 0.99608,1.596684 0.99609,2.77832 -10e-6,1.178388 -0.33204,2.102866 -0.99609,2.773438 -0.66407,0.670573 -1.58204,1.005859 -2.75391,1.005859 -1.16862,0 -2.08659,-0.335286 -2.7539,-1.005859 -0.66407,-0.670572 -0.9961,-1.59505 -0.9961,-2.773438 0,-1.181636 0.33203,-2.107741 0.9961,-2.77832 0.66731,-0.670566 1.58528,-1.005852 2.7539,-1.005859"
           id="path3997" />
        <path
           d="m 812.61133,79.755013 2.09961,0 2.65136,5 0,-5 1.78223,0 0,7.290039 -2.09961,0 -2.65137,-5 0,5 -1.78222,0 0,-7.290039"
           id="path3999" />
      </g>
    </g>
  </g>
</svg>
