<?xml version="1.0" encoding="UTF-8" standalone="no"?>
<!-- Created with Inkscape (http://www.inkscape.org/) -->

<svg
   xmlns:dc="http://purl.org/dc/elements/1.1/"
   xmlns:cc="http://creativecommons.org/ns#"
   xmlns:rdf="http://www.w3.org/1999/02/22-rdf-syntax-ns#"
   xmlns:svg="http://www.w3.org/2000/svg"
   xmlns="http://www.w3.org/2000/svg"
   xmlns:sodipodi="http://sodipodi.sourceforge.net/DTD/sodipodi-0.dtd"
   xmlns:inkscape="http://www.inkscape.org/namespaces/inkscape"
   width="744.09448819"
   height="1052.3622047"
   id="svg2"
   version="1.1"
   inkscape:version="0.48.3.1 r9886"
   sodipodi:docname="Rainbow Dash Cutie Mark.svg"
   inkscape:export-filename="C:\Documents and Settings\Hawk\Pulpit\CM\Rainbow Dash Cutie Mark.png"
   inkscape:export-xdpi="99"
   inkscape:export-ydpi="99">
  <defs
     id="defs4" />
  <sodipodi:namedview
     id="base"
     pagecolor="#ffffff"
     bordercolor="#666666"
     borderopacity="1.0"
     inkscape:pageopacity="0.0"
     inkscape:pageshadow="2"
     inkscape:zoom="0.175"
     inkscape:cx="789.75365"
     inkscape:cy="15.054627"
     inkscape:document-units="px"
     inkscape:current-layer="layer1"
     showgrid="false"
     inkscape:window-width="1366"
     inkscape:window-height="718"
     inkscape:window-x="0"
     inkscape:window-y="0"
     inkscape:window-maximized="1" />
  <metadata
     id="metadata7">
    <rdf:RDF>
      <cc:Work
         rdf:about="">
        <dc:format>image/svg+xml</dc:format>
        <dc:type
           rdf:resource="http://purl.org/dc/dcmitype/StillImage" />
        <dc:title />
      </cc:Work>
    </rdf:RDF>
  </metadata>
  <g
     inkscape:label="Layer 1"
     inkscape:groupmode="layer"
     id="layer1">
    <g
       id="g3829"
       transform="matrix(1.9866979,0,0,1.4385377,1722.5467,-1531.5486)">
      <path
         sodipodi:nodetypes="ccccccccccccccccccccccccccccccccccc"
         inkscape:connector-curvature="0"
         id="path3059"
         d="m -649.52807,1271.0602 -5.05077,27.2741 5.80838,39.6485 23.48605,31.8198 30.05204,8.5863 32.57741,-6.0609 30.55712,-18.9404 22.10606,-32.5647 5.37727,-28.7408 -2.98713,-31.1234 -12.87945,-25.5064 -14.39467,-17.1726 -21.97082,-12.1218 13.13198,-13.132 15.74928,-25.5212 -5.39521,-42.6715 -30.80965,-26.2565 -18.9312,-8.2787 -22.61813,-2.3279 -29.66643,9.3439 -21.71828,-15.706 -37.1231,-8.7902 -44.95179,25.5063 -20.20305,36.6181 0.27048,24.1391 14.37673,27.6312 26.76904,19.9505 14.64721,5.5558 -19.19289,20.9607 -17.1726,38.6383 4.29315,23.7386 15.9099,13.132 25.50636,-1.5152 32.57741,-19.4455 z"
         style="fill:#f1fbff;fill-opacity:1;stroke:none" />
      <g
         transform="translate(-626.41351,2578.9763)"
         id="g3882">
        <path
           style="fill:#ef4035;fill-opacity:1;stroke:none"
           d="m -98.174784,-1375.8977 -21.657006,-19.9378 -10.85106,-20.0136 c -1.92427,3.0183 -4.12852,6.3454 -5.9121,9.0863 -74.55078,114.6077 -102.97541,255.5952 -94.35361,368.0162 29.63114,-31.882 59.26228,-57.9507 88.89342,-72.731 -18.59529,90.6005 6.60543,190.54001 54.778446,289.78329 0.765092,1.53133 1.496757,3.16849 2.272004,4.75461 l -0.977346,-3.15094 -21.222844,-88.34626 -13.8896,-104.0457 11.80877,-150.8695 -70.71429,37.1429 z"
           id="path3874"
           inkscape:connector-curvature="0"
           sodipodi:nodetypes="cccccccccccccc" />
        <path
           style="fill:#fff797;fill-opacity:1;stroke:none"
           d="m -100.34302,-1378.6016 23.442716,12.0605 -17.172593,17.6777 -14.142133,25.2538 -4.54569,25.2538 7.07107,19.1929 17.172592,10.1015 -43.139362,106.0064 57.786573,-27.7195 -20.20305,86.8731 -6.833133,56.925 2.792522,119.3466 5.369849,51.23009 c 1.39839,16.23351 3.672786,32.35506 5.874618,48.49217 l 1.871733,10.98414 c -40.240682,-111.47982 -60.185362,-236.362 -30.288792,-338.4958 l -77.78174,52.0229 c 12.2125,-88.6444 35.88614,-175.7844 87.15589,-265.5024 2.04995,-3.5873 3.42972,-6.1072 5.56893,-9.7029 z"
           id="path3872"
           inkscape:connector-curvature="0"
           sodipodi:nodetypes="cccccccccccccccccsc" />
        <path
           style="fill:#0093d0;fill-opacity:1;stroke:none"
           d="m -84.998507,-816.93161 c -17.730733,-141.86025 -14.153972,-307.59779 53.511739,-405.39229 l -60.565824,30.7917 c 15.731655,-20.881 31.254143,-41.812 53.908842,-61.0367 8.990885,-7.7565 7.862718,-6.5851 11.494818,-9.5529 -3.347206,-15.8031 -0.555887,-31.2475 3.034175,-46.5881 -18.220905,23.0155 -37.11496,38.8909 -68.437835,38.8909 -18.303728,38.8128 -34.622868,77.2949 -47.224628,115.1574 l 60.609149,-31.3147 c -41.546229,117.3672 -28.133589,242.50787 -6.330436,369.04469 z"
           id="path3870"
           inkscape:connector-curvature="0"
           sodipodi:nodetypes="cccccccccc" />
        <path
           style="font-size:medium;font-style:normal;font-variant:normal;font-weight:normal;font-stretch:normal;text-indent:0;text-align:start;text-decoration:none;line-height:normal;letter-spacing:normal;word-spacing:normal;text-transform:none;direction:ltr;block-progression:tb;writing-mode:lr-tb;text-anchor:start;baseline-shift:baseline;color:#000000;fill:#0093d0;fill-opacity:1;stroke:none;stroke-width:4.5;marker:none;visibility:visible;display:inline;overflow:visible;enable-background:accumulate;font-family:Sans;-inkscape-font-specification:Sans"
           d="m -63.232143,-1507.5357 c -2.631769,0.069 -5.230637,0.2905 -7.8125,0.6562 -20.654901,2.9261 -39.924187,16.3341 -52.098207,32.4599 -12.17402,16.1257 -17.11828,36.5645 -11.19197,56.2812 5.7493,19.1278 22.54962,39.9702 53.655024,52.7154 -3.706667,3.2187 -7.20792,7.2334 -10.056346,10.82 -15.158248,19.108 -22.565058,35.8845 -24.183498,49.6521 -1.74366,14.8327 3.47368,26.2772 13,32.2812 9.526314,6.0041 22.931929,6.5858 37.281247,1.125 11.975786,-4.5575 24.677804,-13.382 36.59375,-26.9062 -5.291308,23.3512 -1.594755,52.0326 10.272322,71.7812 35.609169,57.0275 116.373108,19.8782 135.292331,-26.8529 16.60976,-35.9115 4.24644,-100.7903 -44.252153,-119.397 83.556873,-75.764 -28.947673,-146.7894 -82.0624999,-110.5 -16.5056171,-16.4327 -36.5462421,-24.5868 -54.4375001,-24.1161 z m 50.90625,26.9286 c -9.949016,8.183 -18.910725,19.0213 -20.022321,30.2723 -1.150828,11.648 6.147714,24.7945 22.196428,33.0848 -56.197442,50.9245 -15.096977,110.4756 26.785433,103.3058 5.60025,-0.8542 10.276018,-2.9683 14.032985,-6.7723 12.883843,-13.1839 5.215505,-34.887 -2.900784,-45.8642 35.349307,94.3786 -116.21613,33.8274 -28.59174086,-53.3166 -3.97542104,-1.3634 -8.23232804,-3.1444 -11.47305914,-5.1553 -27.188799,-17.0148 -6.616835,-53.3283 21.6657341,-60.0761 13.5031109,-3.2216 23.7581349,-1.6696 34.0056719,0.8973 42.764845,10.7121 63.549526,60.9315 39.429543,95.2322 -5.38536,7.2943 -10.814849,11.4574 -16.97164,16.6421 l 2.625,1.625 c 31.975033,17.4122 46.828713,43.4112 50.060033,68.8384 0.86619,12.5112 0.50151,24.0129 -2.55477,34.9819 -0.83756,2.953 -1.7719,5.6406 -2.89037,8.2581 -14.764703,34.4539 -58.989322,55.8139 -86.682427,53.2896 -19.7070529,-1.7964 -36.747298,-16.5772 -47.044357,-44.5707 -8.867432,-23.3716 -3.729453,-51.1757 3.755634,-69.2753 -55.537534,87.7074 -143.04518,37.6302 -54.141997,-48.4283 -53.791203,-18.3902 -72.621573,-61.1745 -40.827643,-103.5268 26.471105,-33.2528 70.750424,-36.9389 99.544647,-9.4419 z"
           id="path3876"
           inkscape:connector-curvature="0"
           sodipodi:nodetypes="csssccssscccccccsccccccssccccccsccccc" />
      </g>
    </g>
  </g>
</svg>
