<?xml version="1.0" encoding="UTF-8" standalone="no"?>
<!-- Created with Inkscape (http://www.inkscape.org/) -->

<svg
   xmlns:dc="http://purl.org/dc/elements/1.1/"
   xmlns:cc="http://creativecommons.org/ns#"
   xmlns:rdf="http://www.w3.org/1999/02/22-rdf-syntax-ns#"
   xmlns:svg="http://www.w3.org/2000/svg"
   xmlns="http://www.w3.org/2000/svg"
   xmlns:xlink="http://www.w3.org/1999/xlink"
   xmlns:sodipodi="http://sodipodi.sourceforge.net/DTD/sodipodi-0.dtd"
   xmlns:inkscape="http://www.inkscape.org/namespaces/inkscape"
   width="4"
   height="10"
   id="svg2"
   version="1.1"
   inkscape:version="0.48.3.1 r9886"
   sodipodi:docname="scroll-vhandle.svg">
  <defs
     id="defs2994" />
  <sodipodi:namedview
     pagecolor="#ffffff"
     bordercolor="#666666"
     borderopacity="1"
     objecttolerance="10"
     gridtolerance="10"
     guidetolerance="10"
     inkscape:pageopacity="0"
     inkscape:pageshadow="2"
     inkscape:window-width="1366"
     inkscape:window-height="718"
     id="namedview2992"
     showgrid="false"
     inkscape:zoom="23.6"
     inkscape:cx="-6.0932203"
     inkscape:cy="3.3050847"
     inkscape:window-x="0"
     inkscape:window-y="0"
     inkscape:window-maximized="1"
     inkscape:current-layer="layer1" />
  <metadata
     id="metadata7">
    <rdf:RDF>
      <cc:Work
         rdf:about="">
        <dc:format>image/svg+xml</dc:format>
        <dc:type
           rdf:resource="http://purl.org/dc/dcmitype/StillImage" />
        <dc:title></dc:title>
      </cc:Work>
    </rdf:RDF>
  </metadata>
  <g
     inkscape:label="Layer 1"
     inkscape:groupmode="layer"
     id="layer1">
    <rect
       style="fill:#555555;fill-opacity:1;fill-rule:evenodd;stroke:none"
       id="rect3592"
       width="2"
       height="4"
       x="0"
       y="-4"
       rx="0"
       ry="0"
       transform="matrix(0,1,-1,0,0,0)" />
    <use
       x="0"
       y="0"
       xlink:href="#rect3592"
       id="use3705"
       transform="translate(0,4)"
       width="4"
       height="10"
       style="fill:#ff0000" />
    <use
       x="0"
       y="0"
       xlink:href="#use3705"
       id="use3707"
       transform="translate(0,4)"
       width="4"
       height="10" />
    <path
       style="fill:#ff0000"
       d="m 0.02542377,0.99576271 0,-0.99576271 1.97033903,0 1.9703389,0 0,0.99576271 0,0.99576269 -1.9703389,0 -1.97033903,0 0,-0.99576269 z"
       id="path2985"
       inkscape:connector-curvature="0" />
    <path
       style="fill:#ffff00"
       d="M 3.8983053e-8,4.9957627 3.8983053e-8,4 1.9915255,4 l 1.9915254,0 0,0.9957627 0,0.9957627 -1.9915254,0 -1.991525461016947,0 0,-0.9957627 z"
       id="path2987"
       inkscape:connector-curvature="0" />
    <path
       style="fill:#55ddff"
       d="m 3.8983053e-8,9 0,-0.9745763 1.991525461016947,0 1.9915254,0 0,0.9745763 0,0.9745763 -1.9915254,0 -1.991525461016947,0 0,-0.9745763 z"
       id="path2989"
       inkscape:connector-curvature="0" />
    <path
       style="fill:#00ffff"
       d="m 3.8983053e-8,9 0,-0.9745762 1.991525461016947,0 1.9915254,0 0,0.9745762 0,0.9745763 -1.9915254,0 -1.991525461016947,0 0,-0.9745763 z"
       id="path2988"
       inkscape:connector-curvature="0" />
    <path
       style="fill:#00ffff"
       d="m 3.8983053e-8,9 0,-0.9745762 1.991525461016947,0 1.9915254,0 0,0.9745762 0,0.9745763 -1.9915254,0 -1.991525461016947,0 0,-0.9745763 z"
       id="path2990"
       inkscape:connector-curvature="0" />
  </g>
</svg>
