<?xml version="1.0" encoding="UTF-8" standalone="no"?>
<!-- Created with Inkscape (http://www.inkscape.org/) -->

<svg
   xmlns:dc="http://purl.org/dc/elements/1.1/"
   xmlns:cc="http://creativecommons.org/ns#"
   xmlns:rdf="http://www.w3.org/1999/02/22-rdf-syntax-ns#"
   xmlns:svg="http://www.w3.org/2000/svg"
   xmlns="http://www.w3.org/2000/svg"
   xmlns:xlink="http://www.w3.org/1999/xlink"
   xmlns:sodipodi="http://sodipodi.sourceforge.net/DTD/sodipodi-0.dtd"
   xmlns:inkscape="http://www.inkscape.org/namespaces/inkscape"
   version="1.1"
   width="64"
   height="22"
   id="svg2857"
   inkscape:version="0.48.3.1 r9886"
   sodipodi:docname="toggle-off-us.svg">
  <sodipodi:namedview
     pagecolor="#ffffff"
     bordercolor="#666666"
     borderopacity="1"
     objecttolerance="10"
     gridtolerance="10"
     guidetolerance="10"
     inkscape:pageopacity="0"
     inkscape:pageshadow="2"
     inkscape:window-width="1366"
     inkscape:window-height="711"
     id="namedview10"
     showgrid="false"
     inkscape:zoom="4.7384615"
     inkscape:cx="15.427089"
     inkscape:cy="11"
     inkscape:window-x="0"
     inkscape:window-y="26"
     inkscape:window-maximized="1"
     inkscape:current-layer="svg2857" />
  <defs
     id="defs2859">
    <linearGradient
       id="linearGradient3812">
      <stop
         id="stop3814"
         offset="0"
         style="stop-color:#dfdfdf;stop-opacity:1" />
      <stop
         style="stop-color:#dfdfdf;stop-opacity:0"
         offset="0.07922082"
         id="stop3818" />
      <stop
         id="stop3816"
         offset="1"
         style="stop-color:#e0e0e0;stop-opacity:0" />
    </linearGradient>
    <linearGradient
       inkscape:collect="always"
       xlink:href="#linearGradient3777"
       id="linearGradient3783"
       x1="-3"
       y1="-6"
       x2="-3"
       y2="16"
       gradientUnits="userSpaceOnUse"
       gradientTransform="matrix(0.96875,0,0,0.90909091,-28.125,6.4545456)" />
    <linearGradient
       id="linearGradient3777">
      <stop
         style="stop-color:#ededed;stop-opacity:1"
         offset="0"
         id="stop3779" />
      <stop
         style="stop-color:#e0e0e0;stop-opacity:1"
         offset="1"
         id="stop3781" />
    </linearGradient>
    <linearGradient
       inkscape:collect="always"
       xlink:href="#linearGradient3777-2"
       id="linearGradient3783-8"
       x1="-3"
       y1="-6"
       x2="-3"
       y2="16"
       gradientUnits="userSpaceOnUse"
       gradientTransform="matrix(0.96875,0,0,0.90909091,-28.125,6.4545456)" />
    <linearGradient
       id="linearGradient3777-2">
      <stop
         style="stop-color:#ededed;stop-opacity:1"
         offset="0"
         id="stop3779-8" />
      <stop
         style="stop-color:#e0e0e0;stop-opacity:1"
         offset="1"
         id="stop3781-5" />
    </linearGradient>
    <linearGradient
       y2="16"
       x2="-3"
       y1="-6"
       x1="-3"
       gradientTransform="matrix(0.96875,0,0,0.90909094,-28.125001,6.4545447)"
       gradientUnits="userSpaceOnUse"
       id="linearGradient3793"
       xlink:href="#linearGradient3812"
       inkscape:collect="always" />
  </defs>
  <metadata
     id="metadata2862">
    <rdf:RDF>
      <cc:Work
         rdf:about="">
        <dc:format>image/svg+xml</dc:format>
        <dc:type
           rdf:resource="http://purl.org/dc/dcmitype/StillImage" />
        <dc:title />
      </cc:Work>
    </rdf:RDF>
  </metadata>
  <rect
     width="64"
     height="22"
     rx="2"
     ry="2"
     x="-64"
     y="0"
     transform="scale(-1,1)"
     id="rect16256-9-4-5"
     style="color:#000000;fill:#cccccc;fill-opacity:1;fill-rule:nonzero;stroke:#1d70f8;stroke-width:0;stroke-linecap:round;stroke-linejoin:miter;stroke-miterlimit:0;stroke-opacity:1;stroke-dasharray:none;stroke-dashoffset:0;marker:none;visibility:visible;display:inline;overflow:visible;enable-background:accumulate" />
  <rect
     width="62"
     height="20"
     rx="1"
     ry="1"
     x="-63"
     y="1"
     transform="scale(-1,1)"
     id="rect16256-9-4-6"
     style="color:#000000;fill:url(#linearGradient3783);fill-opacity:1;fill-rule:nonzero;stroke:#1d70f8;stroke-width:0;stroke-linecap:round;stroke-linejoin:miter;stroke-miterlimit:0;stroke-opacity:1;stroke-dasharray:none;stroke-dashoffset:0;marker:none;visibility:visible;display:inline;overflow:visible;enable-background:accumulate" />
  <rect
     width="62"
     height="20"
     rx="1"
     ry="1"
     x="-63"
     y="1"
     transform="scale(-1,1)"
     id="rect16256-9-4-6-2"
     style="color:#000000;fill:url(#linearGradient3793);fill-opacity:1;fill-rule:nonzero;stroke:#1d70f8;stroke-width:0;stroke-linecap:round;stroke-linejoin:miter;stroke-miterlimit:0;stroke-opacity:1;stroke-dasharray:none;stroke-dashoffset:0;marker:none;visibility:visible;display:inline;overflow:visible;enable-background:accumulate" />
  <g
     id="g3768"
     transform="matrix(1.0008369,0,0,1.0039044,-69.678281,0.35708682)">
    <g
       transform="translate(1.7344128,0.08672064)"
       id="text2991"
       style="font-size:13px;font-style:normal;font-variant:normal;font-weight:bold;font-stretch:normal;line-height:125%;letter-spacing:0px;word-spacing:0px;fill:#6a6a6a;fill-opacity:1;stroke:none;font-family:Aller;-inkscape-font-specification:Aller Bold">
      <path
         style="fill:#6a6a6a;fill-opacity:1"
         d="m 107.74947,5.5929253 c -0.39001,9.6e-6 -0.76442,0.066176 -1.09375,0.1875 -0.32067,0.112676 -0.57851,0.2746758 -0.8125,0.5 -0.23401,0.2166754 -0.43251,0.5144251 -0.5625,0.84375 -0.12134,0.3206745 -0.18751,0.6777574 -0.1875,1.09375 l 0,0.3125 -2.40625,0 0,-0.1875 c 0.009,-0.2339929 0.0504,-0.4464093 0.0937,-0.59375 0.052,-0.1473257 0.10083,-0.234492 0.1875,-0.3125 0.0867,-0.086659 0.19983,-0.161492 0.3125,-0.1875 0.12133,-0.034659 0.23633,-0.031242 0.375,-0.03125 0.156,8e-6 0.27966,0.00526 0.375,0.03125 0.0953,0.017341 0.19458,0.036508 0.28125,0.0625 0.0953,-0.2079919 0.19458,-0.4309083 0.28125,-0.65625 0.0953,-0.2253245 0.14416,-0.5004909 0.1875,-0.8125 -0.20801,-0.060657 -0.40834,-0.098991 -0.625,-0.125 -0.21667,-0.025991 -0.464,-0.03124 -0.75,-0.03125 -0.76267,9.6e-6 -1.37575,0.2368427 -1.84375,0.6875 -0.468,0.4506751 -0.71875,1.0968411 -0.71875,1.9375 l 0,0.21875 -1.0625,0 c -0.026,0.1300066 -0.02255,0.2710064 -0.03125,0.375 -0.0087,0.1040062 -0.03125,0.1998395 -0.03125,0.3125 0,0.1213392 0.02255,0.2310891 0.03125,0.34375 0.0087,0.1126724 0.0053,0.2363384 0.03125,0.3750004 l 1.0625,0 0,5.3437493 c 0.312,0.052 0.63416,0.0625 0.9375,0.0625 0.29466,0 0.59425,-0.0105 0.90625,-0.0625 l 0,-5.3437493 2.40625,0 0,5.3437493 c 0.31199,0.052 0.63416,0.0625 0.9375,0.0625 0.29466,0 0.59424,-0.0105 0.90625,-0.0625 l 0,-5.3437493 1.5625,0 c 0.026,-0.129995 0.0538,-0.239745 0.0625,-0.34375 0.009,-0.1039947 -1e-5,-0.1998279 0,-0.3125004 -1e-5,-0.1213272 0.009,-0.2310771 0,-0.34375 -0.009,-0.1126602 -0.0365,-0.2675768 -0.0625,-0.40625 l -1.5625,0 0,-0.28125 c 0.0173,-0.4679926 0.12183,-0.7675756 0.3125,-0.90625 0.19066,-0.147325 0.44666,-0.2187419 0.75,-0.21875 0.17332,8e-6 0.30224,0.00526 0.40625,0.03125 0.10399,0.017341 0.21716,0.045175 0.3125,0.0625 0.0867,-0.2253251 0.15282,-0.4621582 0.1875,-0.6875 0.0433,-0.2339911 0.0452,-0.4952408 0.0625,-0.78125 -0.20801,-0.060657 -0.38051,-0.076407 -0.5625,-0.09375 -0.17334,-0.02599 -0.39626,-0.06249 -0.65625,-0.0625 z m -12.9375,0.15625 c -0.702004,9.5e-6 -1.30117,0.1323427 -1.8125,0.375 -0.511336,0.2426755 -0.951919,0.5979252 -1.28125,1.03125 -0.329335,0.433341 -0.585334,0.9332571 -0.75,1.53125 -0.156,0.5893393 -0.218751,1.2441714 -0.21875,1.9374997 -10e-7,0.693337 0.06275,1.31692 0.21875,1.90625 0.164666,0.580668 0.420665,1.097918 0.75,1.53125 0.329331,0.424667 0.769914,0.757333 1.28125,1 0.51133,0.242666 1.110496,0.375 1.8125,0.375 0.701995,0 1.301161,-0.132334 1.8125,-0.375 0.511326,-0.242667 0.920659,-0.575333 1.25,-1 0.329325,-0.433332 0.593992,-0.950582 0.75,-1.53125 0.16466,-0.58933 0.249991,-1.212913 0.25,-1.90625 -9e-6,-0.6933283 -0.08534,-1.3481604 -0.25,-1.9374997 -0.156008,-0.5979929 -0.420675,-1.097909 -0.75,-1.53125 -0.329341,-0.4333248 -0.738674,-0.7885745 -1.25,-1.03125 -0.511339,-0.2426573 -1.110505,-0.3749905 -1.8125,-0.375 z m 0,1.625 c 0.684661,7.9e-6 1.179327,0.2751742 1.5,0.8125 0.329327,0.5373398 0.499993,1.3628387 0.5,2.4374997 -7e-6,2.149336 -0.656673,3.218751 -2,3.21875 -1.352003,1e-6 -2.031253,-1.069414 -2.03125,-3.21875 -3e-6,-2.1493266 0.67058,-3.2499918 2.03125,-3.2499997 z"
         id="path3764"
         inkscape:connector-curvature="0" />
    </g>
  </g>
  <text
     xml:space="preserve"
     style="font-size:40px;font-style:normal;font-weight:normal;line-height:125%;letter-spacing:0px;word-spacing:0px;fill:#000000;fill-opacity:1;stroke:none;font-family:Sans"
     x="30.38961"
     y="10.392857"
     id="text2987"
     sodipodi:linespacing="125%"><tspan
       sodipodi:role="line"
       id="tspan2989"
       x="30.38961"
       y="10.392857" /></text>
</svg>
