<?xml version="1.0" encoding="UTF-8" standalone="no"?>
<!-- Created with Inkscape (http://www.inkscape.org/) -->

<svg
   xmlns:dc="http://purl.org/dc/elements/1.1/"
   xmlns:cc="http://creativecommons.org/ns#"
   xmlns:rdf="http://www.w3.org/1999/02/22-rdf-syntax-ns#"
   xmlns:svg="http://www.w3.org/2000/svg"
   xmlns="http://www.w3.org/2000/svg"
   xmlns:xlink="http://www.w3.org/1999/xlink"
   xmlns:sodipodi="http://sodipodi.sourceforge.net/DTD/sodipodi-0.dtd"
   xmlns:inkscape="http://www.inkscape.org/namespaces/inkscape"
   version="1.1"
   width="64"
   height="22"
   id="svg2857"
   inkscape:version="0.48.3.1 r9886"
   sodipodi:docname="toggle-on-us.svg">
  <sodipodi:namedview
     pagecolor="#ffffff"
     bordercolor="#666666"
     borderopacity="1"
     objecttolerance="10"
     gridtolerance="10"
     guidetolerance="10"
     inkscape:pageopacity="0"
     inkscape:pageshadow="2"
     inkscape:window-width="1366"
     inkscape:window-height="711"
     id="namedview10"
     showgrid="true"
     inkscape:zoom="4.7384615"
     inkscape:cx="8.3357782"
     inkscape:cy="12.236238"
     inkscape:window-x="0"
     inkscape:window-y="26"
     inkscape:window-maximized="1"
     inkscape:current-layer="g3774">
    <inkscape:grid
       type="xygrid"
       id="grid3754"
       empspacing="5"
       visible="true"
       enabled="true"
       snapvisiblegridlinesonly="true" />
  </sodipodi:namedview>
  <defs
     id="defs2859">
    <linearGradient
       id="linearGradient3777">
      <stop
         style="stop-color:#4d90fe;stop-opacity:1;"
         offset="0"
         id="stop3779" />
      <stop
         style="stop-color:#4787ed;stop-opacity:1;"
         offset="1"
         id="stop3781" />
    </linearGradient>
    <linearGradient
       inkscape:collect="always"
       xlink:href="#linearGradient3777"
       id="linearGradient3783"
       x1="-3"
       y1="-6"
       x2="-3"
       y2="16"
       gradientUnits="userSpaceOnUse"
       gradientTransform="matrix(0.96875,0,0,0.90909091,-28.125,6.4545455)" />
  </defs>
  <metadata
     id="metadata2862">
    <rdf:RDF>
      <cc:Work
         rdf:about="">
        <dc:format>image/svg+xml</dc:format>
        <dc:type
           rdf:resource="http://purl.org/dc/dcmitype/StillImage" />
        <dc:title />
      </cc:Work>
    </rdf:RDF>
  </metadata>
  <g
     id="g3774">
    <rect
       width="64"
       height="22"
       rx="2"
       ry="2"
       x="-64"
       y="-2.220446e-15"
       transform="scale(-1,1)"
       id="rect16256-9-4"
       style="color:#000000;fill:#3079ed;fill-opacity:1;fill-rule:nonzero;stroke:#1d70f8;stroke-width:0;stroke-linecap:round;stroke-linejoin:miter;stroke-miterlimit:0;stroke-opacity:1;stroke-dasharray:none;stroke-dashoffset:0;marker:none;visibility:visible;display:inline;overflow:visible;enable-background:accumulate" />
    <rect
       width="62"
       height="20"
       rx="1"
       ry="1"
       x="-63"
       y="1"
       transform="scale(-1,1)"
       id="rect16256-9-4-6"
       style="color:#000000;fill:url(#linearGradient3783);fill-opacity:1;fill-rule:nonzero;stroke:#1d70f8;stroke-width:0;stroke-linecap:round;stroke-linejoin:miter;stroke-miterlimit:0;stroke-opacity:1;stroke-dasharray:none;stroke-dashoffset:0;marker:none;visibility:visible;display:inline;overflow:visible;enable-background:accumulate" />
    <g
       id="text3820"
       style="font-size:13px;font-style:normal;font-variant:normal;font-weight:bold;font-stretch:normal;line-height:125%;letter-spacing:0px;word-spacing:0px;fill:#fbfbfb;fill-opacity:1;stroke:none;font-family:Aller;-inkscape-font-specification:Aller Bold"
       transform="translate(-0.575937,0.5877131)">
      <path
         d="m 29.321476,15.241787 c -0.702004,0 -1.30867,-0.121334 -1.82,-0.364 -0.511336,-0.242666 -0.931669,-0.576333 -1.261,-1.001 -0.329335,-0.433332 -0.576334,-0.940331 -0.741,-1.521 -0.156001,-0.58933 -0.234001,-1.230663 -0.234,-1.924 -1e-6,-0.6933282 0.078,-1.3346609 0.234,-1.9240002 0.164666,-0.5979928 0.411665,-1.113659 0.741,-1.547 0.329331,-0.4333248 0.749664,-0.7713244 1.261,-1.014 0.51133,-0.2426573 1.117996,-0.3639905 1.82,-0.364 0.701995,9.5e-6 1.308661,0.1213427 1.82,0.364 0.511326,0.2426756 0.931659,0.5806752 1.261,1.014 0.329325,0.433341 0.571992,0.9490072 0.728,1.547 0.164658,0.5893393 0.246991,1.230672 0.247,1.9240002 -9e-6,0.693337 -0.08234,1.33467 -0.247,1.924 -0.156008,0.580669 -0.398675,1.087668 -0.728,1.521 -0.329341,0.424667 -0.749674,0.758334 -1.261,1.001 -0.511339,0.242666 -1.118005,0.364 -1.82,0.364 m 0,-1.586 c 1.343327,10e-7 2.014993,-1.074664 2.015,-3.224 -7e-6,-1.0746611 -0.164673,-1.8806603 -0.494,-2.4180002 -0.320672,-0.5373257 -0.823339,-0.8059921 -1.508,-0.806 -1.36067,7.9e-6 -2.041003,1.0746735 -2.041,3.2240002 -3e-6,2.149336 0.675997,3.224001 2.028,3.224"
         id="path3972"
         inkscape:connector-curvature="0" />
      <path
         d="m 34.932398,8.3647868 c 0.121332,-0.025993 0.242666,-0.043326 0.364,-0.052 0.121332,-0.017326 0.255665,-0.025993 0.403,-0.026 0.147332,6.8e-6 0.277331,0.00867 0.39,0.026 0.112664,0.00867 0.229664,0.026007 0.351,0.052 0.026,0.04334 0.04766,0.10834 0.065,0.195 0.026,0.078007 0.04766,0.164673 0.065,0.26 0.01733,0.086673 0.03033,0.1733394 0.039,0.26 0.01733,0.086673 0.03033,0.1603392 0.039,0.221 0.08666,-0.1299941 0.190664,-0.2599939 0.312,-0.39 0.12133,-0.1299937 0.259997,-0.2469936 0.416,-0.351 0.164663,-0.1039934 0.346663,-0.1863266 0.546,-0.247 0.199329,-0.069326 0.420329,-0.1039931 0.663,-0.104 0.762661,6.9e-6 1.334661,0.2080067 1.716,0.624 0.389993,0.4160059 0.584993,1.0703385 0.585,1.9630002 l 0,4.29 c -0.312007,0.052 -0.619673,0.078 -0.923,0.078 -0.303339,0 -0.611005,-0.026 -0.923,-0.078 l 0,-3.796 c -5e-6,-0.467996 -0.07367,-0.827662 -0.221,-1.079 -0.138671,-0.2513284 -0.385671,-0.3769949 -0.741,-0.3770002 -0.147337,5.3e-6 -0.299004,0.021672 -0.455,0.065 -0.156003,0.043339 -0.299003,0.1300052 -0.429,0.2600002 -0.121336,0.121338 -0.221003,0.294671 -0.299,0.52 -0.078,0.225337 -0.117003,0.520004 -0.117,0.884 l 0,3.523 c -0.312002,0.052 -0.619669,0.078 -0.923,0.078 -0.303335,0 -0.611001,-0.026 -0.923,-0.078 l 0,-6.7210002"
         id="path3974"
         inkscape:connector-curvature="0" />
    </g>
  </g>
</svg>
