<svg xmlns="http://www.w3.org/2000/svg" width="32" height="84"><defs><clipPath id="a" clipPathUnits="userSpaceOnUse"><rect width="43" height="24.5" x="-5.5" y="-992.362" rx="1.5" ry="1.5" style="opacity:1;fill:#5294e2;fill-opacity:1;stroke:none;stroke-width:1;stroke-linecap:round;stroke-linejoin:miter;stroke-miterlimit:4;stroke-dasharray:none;stroke-dashoffset:0;stroke-opacity:1" transform="scale(1 -1)"/></clipPath></defs><g transform="translate(0 -968.362)"><rect width="23" height="73.999" x="4.5" y="972.863" rx="2" ry="2" style="display:inline;opacity:.64;fill:none;fill-opacity:1;stroke:#000;stroke-width:.99999988;stroke-linecap:round;stroke-linejoin:miter;stroke-miterlimit:4;stroke-dasharray:none;stroke-dashoffset:0;stroke-opacity:1"/><rect width="22" height="21" x="5" y="973.363" clip-path="url(#a)" rx="1.4" ry="2.046" style="display:inline;opacity:.99999999;fill:#323644;fill-opacity:1;stroke:none;stroke-width:1;stroke-linecap:round;stroke-linejoin:miter;stroke-miterlimit:4;stroke-dasharray:none;stroke-dashoffset:0;stroke-opacity:1" transform="matrix(1 0 0 .6842 0 307.388)"/><g style="display:inline;opacity:.64999999" transform="translate(-426 606.362)"><rect width="31" height="83" x="426.5" y="362.5" rx="8" ry="8" style="display:inline;opacity:.02;fill:none;fill-opacity:1;stroke:#000;stroke-width:.99999988;stroke-linecap:round;stroke-linejoin:miter;stroke-miterlimit:4;stroke-dasharray:none;stroke-dashoffset:0;stroke-opacity:1"/><rect width="29" height="81" x="427.5" y="363.5" rx="7" ry="7" style="display:inline;opacity:.07;fill:none;fill-opacity:1;stroke:#000;stroke-width:.99999982;stroke-linecap:round;stroke-linejoin:miter;stroke-miterlimit:4;stroke-dasharray:none;stroke-dashoffset:0;stroke-opacity:1"/><rect width="27" height="79" x="428.5" y="364.5" rx="6" ry="6" style="display:inline;opacity:.13;fill:none;fill-opacity:1;stroke:#000;stroke-width:.99999988;stroke-linecap:round;stroke-linejoin:miter;stroke-miterlimit:4;stroke-dasharray:none;stroke-dashoffset:0;stroke-opacity:1"/><rect width="25" height="77" x="429.5" y="365.5" rx="5" ry="5" style="display:inline;opacity:.2;fill:none;fill-opacity:1;stroke:#000;stroke-width:1;stroke-linecap:round;stroke-linejoin:miter;stroke-miterlimit:4;stroke-dasharray:none;stroke-dashoffset:0;stroke-opacity:1"/><path d="M431.648 440.305a3.98 3.98 0 0 0 2.852 1.195h15c1.12 0 2.127-.458 2.852-1.195-.26.122-.545.195-.852.195h-19c-.307 0-.593-.073-.852-.195z" style="display:inline;opacity:.25;fill:none;fill-opacity:1;stroke:#000;stroke-width:1;stroke-linecap:round;stroke-linejoin:miter;stroke-miterlimit:4;stroke-dasharray:none;stroke-dashoffset:0;stroke-opacity:1"/></g></g></svg>