<svg xmlns="http://www.w3.org/2000/svg" width="50" height="20"><g style="display:inline;opacity:1"><g style="display:inline" transform="matrix(-1 0 0 1 51 -1031.362)"><rect width="50" height="20" x="1" y="1031.362" rx="11" ry="11" style="fill:#5b5b5b;fill-opacity:1;fill-rule:nonzero;stroke:none"/><circle cx="41" cy="1041.362" r="9" style="fill:#353535;fill-opacity:1;fill-rule:nonzero;stroke:none"/></g><path d="M1043.003 337h.773a.78.78 0 0 1 .515.234l1.711 1.711 1.735-1.71c.199-.174.335-.23.515-.235h.75v.75c0 .215-.026.413-.187.563l-1.711 1.71 1.687 1.688a.76.76 0 0 1 .211.539v.75h-.75a.76.76 0 0 1-.539-.21l-1.71-1.712-1.712 1.711a.76.76 0 0 1-.539.211h-.75v-.75c0-.199.07-.398.211-.54l1.711-1.687-1.71-1.71a.68.68 0 0 1-.212-.563z" style="color:#bebebe;font-style:normal;font-variant:normal;font-weight:400;font-stretch:normal;font-size:medium;line-height:normal;font-family:&quot;Andale Mono&quot;;-inkscape-font-specification:&quot;Andale Mono&quot;;text-indent:0;text-align:start;text-decoration:none;text-decoration-line:none;letter-spacing:normal;word-spacing:normal;text-transform:none;direction:ltr;block-progression:tb;writing-mode:lr-tb;text-anchor:start;display:inline;overflow:visible;visibility:visible;opacity:1;fill:#353535;fill-opacity:1;fill-rule:nonzero;stroke:none;stroke-width:1.78124988;marker:none" transform="translate(-1006 -330)"/></g></svg>