/* XPM */
static char * menu_pressed_xpm[] = {
"20 24 14 1",
" 	c None",
".	c #232528",
"+	c #2E3137",
"@	c #84A8C3",
"#	c #528AB5",
"$	c #88AAC5",
"%	c #7BA5C8",
"&	c #5C92BC",
"*	c #86AECC",
"=	c #71A2C6",
"-	c #669BC3",
";	c #7CA9CB",
">	c #71A4CB",
",	c #78AACD",
"....................",
"++++++++++++++++++++",
"++++++++++++++++++++",
"++++++++++++++++++++",
"++++++++++++++++++++",
"++++++++++++++++++++",
"++++++++++++++++++++",
"++++++++++++++++++++",
"++++++++++++++++++++",
"++++++++++++++++++++",
"++++++++++++++++++++",
"++++++@######$++++++",
"+++++++%&&&&*+++++++",
"++++++++=--;++++++++",
"+++++++++>,+++++++++",
"++++++++++++++++++++",
"++++++++++++++++++++",
"++++++++++++++++++++",
"++++++++++++++++++++",
"++++++++++++++++++++",
"++++++++++++++++++++",
"++++++++++++++++++++",
"++++++++++++++++++++",
"++++++++++++++++++++"};
