/* XPM */
static char * shade_toggled_inactive_xpm[] = {
"20 24 12 1",
" 	c None",
".	c #232528",
"+	c #2E3137",
"@	c #CFCFCF",
"#	c #C6C6C6",
"$	c #C4C4C4",
"%	c #919193",
"&	c #C5C5C5",
"*	c #CCCCCC",
"=	c #C9C9C9",
"-	c #CDCDCD",
";	c #CACACA",
"....................",
"++++++++++++++++++++",
"++++++++++++++++++++",
"++++++++++++++++++++",
"++++++++++++++++++++",
"++++++++++++++++++++",
"++++++++++++++++++++",
"++++++++++++++++++++",
"++++++++++++++++++++",
"+++++++++@@+++++++++",
"+++++++++##+++++++++",
"+++++++++##+++++++++",
"+++++++++##+++++++++",
"++++++$%&##&%&++++++",
"+++++++*$##$@+++++++",
"++++++++=##-++++++++",
"+++++++++;*+++++++++",
"++++++++++++++++++++",
"++++++++++++++++++++",
"++++++++++++++++++++",
"++++++++++++++++++++",
"++++++++++++++++++++",
"++++++++++++++++++++",
"++++++++++++++++++++"};
