/* XPM */
static char * shade_toggled_pressed_xpm[] = {
"20 24 17 1",
" 	c None",
".	c #232528",
"+	c #2E3137",
"@	c #85ADCC",
"#	c #669BC3",
"$	c #84A8C3",
"%	c #528AB5",
"&	c #89AAC5",
"*	c #7BA5C7",
"=	c #5C92BC",
"-	c #70A1C6",
";	c #7CA8CA",
">	c #46494F",
",	c #43484E",
"'	c #71A4CB",
")	c #78A9CD",
"!	c #45494F",
"....................",
"++++++++++++++++++++",
"++++++++++++++++++++",
"++++++++++++++++++++",
"++++++++++++++++++++",
"++++++++++++++++++++",
"++++++++++++++++++++",
"++++++++++++++++++++",
"++++++++++++++++++++",
"+++++++++@@+++++++++",
"+++++++++##+++++++++",
"+++++++++##+++++++++",
"+++++++++##+++++++++",
"++++++$%&##&%&++++++",
"+++++++*=##=@+++++++",
"++++++++-##;>+++++++",
"++++++++,')!++++++++",
"++++++++++++++++++++",
"++++++++++++++++++++",
"++++++++++++++++++++",
"++++++++++++++++++++",
"++++++++++++++++++++",
"++++++++++++++++++++",
"++++++++++++++++++++"};
