/* XPM */
static char * shade_toggled_active_xpm[] = {
"20 24 4 1",
" 	c None",
".	c #232528",
"+	c #2E3137",
"@	c #FFFFFF",
"....................",
"++++++++++++++++++++",
"++++++++++++++++++++",
"++++++++++++++++++++",
"++++++++++++++++++++",
"++++++++++++++++++++",
"++++++++++++++++++++",
"++++++++++++++++++++",
"++++++++++++++++++++",
"+++++++++@@+++++++++",
"+++++++++@@+++++++++",
"+++++++++@@+++++++++",
"+++++++++@@+++++++++",
"++++++@@@@@@@@++++++",
"+++++++@@@@@@+++++++",
"++++++++@@@@++++++++",
"+++++++++@@+++++++++",
"++++++++++++++++++++",
"++++++++++++++++++++",
"++++++++++++++++++++",
"++++++++++++++++++++",
"++++++++++++++++++++",
"++++++++++++++++++++",
"++++++++++++++++++++"};
