/* XPM */
static char * stick_inactive_xpm[] = {
"20 24 22 1",
" 	c None",
".	c #232528",
"+	c #2E3137",
"@	c #BCBCBC",
"#	c #BCBDBD",
"$	c #BCBDBC",
"%	c #BDBCBC",
"&	c #BFBFC0",
"*	c #C0C0BF",
"=	c #BFC0C0",
"-	c #BFBFBF",
";	c #C2C2C2",
">	c #C3C2C2",
",	c #C5C5C5",
"'	c #C5C5C6",
")	c #C9C9C8",
"!	c #C8C9C8",
"~	c #C8C8C8",
"{	c #C9C8C8",
"]	c #B6B7B7",
"^	c #CBCBCB",
"/	c #8E8F91",
"....................",
"++++++++++++++++++++",
"++++++++++++++++++++",
"++++++++++++++++++++",
"++++++++++++++++++++",
"++++++++++++++++++++",
"++++++++++++++++++++",
"++++++++++++++++++++",
"++++++++++++++++++++",
"++++++++@@@@++++++++",
"+++++++#$@$%@+++++++",
"++++++&*++++=-++++++",
"++++++;;++++>>++++++",
"++++++,'++++''++++++",
"++++++)!++++~{++++++",
"+++++++]]^^^]+++++++",
"++++++++////++++++++",
"++++++++++++++++++++",
"++++++++++++++++++++",
"++++++++++++++++++++",
"++++++++++++++++++++",
"++++++++++++++++++++",
"++++++++++++++++++++",
"++++++++++++++++++++"};
