/* XPM */
static char * stick_active_xpm[] = {
"20 24 5 1",
" 	c None",
".	c #232528",
"+	c #2E3137",
"@	c #FFFFFF",
"#	c #EEEEEE",
"....................",
"++++++++++++++++++++",
"++++++++++++++++++++",
"++++++++++++++++++++",
"++++++++++++++++++++",
"++++++++++++++++++++",
"++++++++++++++++++++",
"++++++++++++++++++++",
"++++++++++++++++++++",
"++++++++@@@@++++++++",
"+++++++@@@@@@+++++++",
"++++++@@++++@@++++++",
"++++++@@++++@@++++++",
"++++++@@++++@@++++++",
"++++++@@++++@@++++++",
"+++++++######+++++++",
"++++++++####++++++++",
"++++++++++++++++++++",
"++++++++++++++++++++",
"++++++++++++++++++++",
"++++++++++++++++++++",
"++++++++++++++++++++",
"++++++++++++++++++++",
"++++++++++++++++++++"};
