<?xml version="1.0" encoding="UTF-8" standalone="no"?>
<!-- Created with Inkscape (http://www.inkscape.org/) -->
<svg id="svg3273" xmlns:rdf="http://www.w3.org/1999/02/22-rdf-syntax-ns#" xmlns="http://www.w3.org/2000/svg" height="22" width="64" version="1.1" xmlns:cc="http://creativecommons.org/ns#" xmlns:xlink="http://www.w3.org/1999/xlink" xmlns:dc="http://purl.org/dc/elements/1.1/">
 <defs id="defs3275">
  <filter id="filter4199-9" width="1.52" y="-0.078" x="-0.26" height="1.156" color-interpolation-filters="sRGB">
   <feGaussianBlur id="feGaussianBlur4201-6" stdDeviation="0.325"/>
  </filter>
  <radialGradient id="radialGradient4013-9-2" xlink:href="#linearGradient3988-5-7" gradientUnits="userSpaceOnUse" cy="11" cx="42.5" gradientTransform="matrix(11,0,0,10,-417,-99)"/>
  <linearGradient id="linearGradient3988-5-7">
   <stop id="stop3990-8-2" offset="0"/>
   <stop id="stop3997-5-7" style="stop-opacity:.70588" offset="0.6"/>
   <stop id="stop3993-8-6" style="stop-opacity:0" offset="1"/>
  </linearGradient>
  <radialGradient id="radialGradient4011-7-2" xlink:href="#linearGradient3976-2-0" gradientUnits="userSpaceOnUse" cy="11" cx="42.5" gradientTransform="matrix(11,0,0,10,-416,-99)"/>
  <linearGradient id="linearGradient3976-2-0">
   <stop id="stop3978-8-5" style="stop-color:#fff" offset="0"/>
   <stop id="stop3995-9-0" style="stop-color:#fff;stop-opacity:.70588" offset="0.6"/>
   <stop id="stop3980-6-1" style="stop-color:#fff;stop-opacity:0" offset="1"/>
  </linearGradient>
  <radialGradient id="radialGradient4005-9-8" xlink:href="#linearGradient3988-5-7" gradientUnits="userSpaceOnUse" cy="11" cx="42.5" gradientTransform="matrix(11,0,0,10,-421,-99)"/>
  <radialGradient id="radialGradient4003-1-6" xlink:href="#linearGradient3976-2-0" gradientUnits="userSpaceOnUse" cy="11" cx="42.5" gradientTransform="matrix(11,0,0,10,-420,-99)"/>
  <radialGradient id="radialGradient3986-1-3" xlink:href="#linearGradient3988-5-7" gradientUnits="userSpaceOnUse" cy="11" cx="42.5" gradientTransform="matrix(11,0,0,10,-425,-99)"/>
  <radialGradient id="radialGradient4077-8-1" gradientUnits="userSpaceOnUse" xlink:href="#linearGradient3976-2-0" cx="42.5" cy="11" gradientTransform="matrix(11,0,0,10,-424,-99)"/>
  <linearGradient id="linearGradient3077-4-9-4" y2="28" gradientUnits="userSpaceOnUse" y1="1" gradientTransform="translate(-2,-1)" x2="41" x1="41">
   <stop id="stop3992-5-7-1" style="stop-color:#fff" offset="0"/>
   <stop id="stop3994-0-8-2" style="stop-color:#fff;stop-opacity:0" offset="1"/>
  </linearGradient>
  <linearGradient id="linearGradient3228-0" y2="2" gradientUnits="userSpaceOnUse" y1="21" gradientTransform="translate(-2,-1)" x2="48" x1="48">
   <stop id="stop3940-9-2" style="stop-color:#a0a0a0" offset="0"/>
   <stop id="stop3942-9-2" style="stop-color:#dcdcdc" offset="1"/>
  </linearGradient>
  <linearGradient id="linearGradient4621" y2=".49999" gradientUnits="userSpaceOnUse" x2="40.812" gradientTransform="matrix(-1 0 0 -1 64.5 20.5)" y1="18.5" x1="40.812">
   <stop id="stop3923-6-1" style="stop-color:#333" offset="0"/>
   <stop id="stop3925-4-6" style="stop-color:#555" offset="1"/>
  </linearGradient>
 </defs>
 <metadata id="metadata3278">
  <rdf:RDF>
   <cc:Work rdf:about="">
    <dc:format>image/svg+xml</dc:format>
    <dc:type rdf:resource="http://purl.org/dc/dcmitype/StillImage"/>
    <dc:title/>
   </cc:Work>
  </rdf:RDF>
 </metadata>
 <g id="layer1">
  <path id="path4619" style="color:#000000;fill:url(#linearGradient4621)" d="m5 3c-1.1224 0-2 0.8776-2 2v12c0 1.1224 0.8776 2 2 2h54c1.1224 0 2-0.8776 2-2v-12c0-1.1224-0.878-2-2-2h-54z"/>
  <path id="rect4052" style="opacity:.08;color:#000000" d="m5 2c-1.662 0-3 1.338-3 3v12c0 1.662 1.338 3 3 3h54c1.662 0 3-1.338 3-3v-12c0-1.662-1.338-3-3-3zm0 3h54v12h-54z"/>
  <path id="rect4042" style="opacity:.12;color:#000000" d="m5 2c-1.662 0-3 1.338-3 3v12c0 1.662 1.338 3 3 3h54c1.662 0 3-1.338 3-3v-12c0-1.662-1.338-3-3-3zm0 2h54c0.5825 0 1 0.4175 1 1v12c0 0.5825-0.4175 1-1 1h-54c-0.5825 0-1-0.418-1-1v-12c0-0.5825 0.4175-1 1-1z"/>
  <path id="rect4038" style="opacity:.2;color:#000000;fill:#fff" d="m5 2c-1.662 0-3 1.338-3 3v12c0 1.662 1.338 3 3 3h54c1.662 0 3-1.338 3-3v-12c0-1.662-1.338-3-3-3zm0 1h54c1.1174 0 2 0.88261 2 2v12c0 1.1174-0.88261 2-2 2h-54c-1.1174 0-2-0.883-2-2v-12c0-1.1174 0.8826-2 2-2z"/>
  <g id="g4579">
   <rect id="rect4197" style="opacity:.5;color:#000000;filter:url(#filter4199-9)" height="10" width="3" y="6.5" x="15"/>
   <rect id="rect4195" style="color:#000000;fill:#fff" height="10" width="3" y="6" x="15"/>
  </g>
 </g>
 <g id="layer2">
  <path id="path4541" style="opacity:.05;color:#000000" d="m5-0.9375c-3.2559 0-5.9375 2.6816-5.9375 5.9375v12c0 3.2559 2.6816 5.9375 5.9375 5.9375h24c3.2559 0 5.9375-2.6816 5.9375-5.9375v-12c0-3.2559-2.6816-5.9375-5.9375-5.9375h-24z" transform="translate(30)"/>
  <path id="path4537" style="opacity:.1;color:#000000" d="m5 0c-2.7357 0-5 2.2643-5 5v12c0 2.7357 2.2643 5 5 5h24c2.7357 0 5-2.2643 5-5v-12c0-2.7357-2.264-5-5-5h-24z" transform="translate(30)"/>
  <path id="path4531" style="opacity:.2;color:#000000" d="m5 1.0312c-2.1742 0-3.9688 1.7946-3.9688 3.9688v12c0 2.1742 1.7946 3.9688 3.9688 3.9688h24c2.1742 0 3.9688-1.7946 3.9688-3.9688v-12c0-2.1742-1.795-3.9688-3.969-3.9688h-24z" transform="translate(30)"/>
  <rect id="rect3936" style="color:#000000;fill:url(#linearGradient3228-0)" rx="3" ry="3" height="18" width="30" y="2" x="32"/>
  <path id="rect4059" style="opacity:.6;color:#000000;fill:url(#linearGradient3077-4-9-4)" d="m35 2c-1.662 0-3 1.338-3 3v12c0 1.662 1.338 3 3 3h24c1.662 0 3-1.338 3-3v-12c0-1.662-1.338-3-3-3zm0 1h24c1.1256 0 2 0.87439 2 2v12c0 1.1256-0.87439 2-2 2h-24c-1.1256 0-2-0.87439-2-2v-12c0-1.1256 0.87439-2 2-2z"/>
  <rect id="rect3206" style="opacity:.4;color:#000000;fill:url(#radialGradient4077-8-1)" height="10" width="1" y="6" x="43"/>
  <rect id="rect3984" style="opacity:.2;color:#000000;fill:url(#radialGradient3986-1-3)" height="10" width="1" y="6" x="42"/>
  <rect id="rect3999" style="opacity:.4;color:#000000;fill:url(#radialGradient4003-1-6)" height="10" width="1" y="6" x="47"/>
  <rect id="rect4001" style="opacity:.2;color:#000000;fill:url(#radialGradient4005-9-8)" height="10" width="1" y="6" x="46"/>
  <rect id="rect4007" style="opacity:.4;color:#000000;fill:url(#radialGradient4011-7-2)" height="10" width="1" y="6" x="51"/>
  <rect id="rect4009" style="opacity:.2;color:#000000;fill:url(#radialGradient4013-9-2)" height="10" width="1" y="6" x="50"/>
 </g>
</svg>
