#define close_width 16
#define close_height 16
static char close_bits[] = {
  0x1F, 0xF8, 0x07, 0xE0, 0x03, 0xC0, 0x01, 0x80, 0x31, 0x8C, 0x70, 0x0E, 
  0xE0, 0x07, 0xC0, 0x03, 0xC0, 0x03, 0xE0, 0x07, 0x70, 0x0E, 0x31, 0x8C, 
  0x01, 0x80, 0x03, 0xC0, 0x07, 0xE0, 0x1F, 0xF8, };
