#define desk_toggled_width 16
#define desk_toggled_height 16
static char desk_toggled_bits[] = {
  0xFF, 0xFF, 0xFF, 0xFF, 0xE3, 0xC7, 0xE3, 0xC7, 0xE3, 0xC7, 0xE7, 0xE7, 
  0xFF, 0xFF, 0xFF, 0xFF, 0xFF, 0xFF, 0xFF, 0xFF, 0xE7, 0xE7, 0xE3, 0xC7, 
  0xE3, 0xC7, 0xE3, 0xC7, 0xFF, 0xFF, 0xFF, 0xFF, };
