#define desk_width 16
#define desk_height 16
static char desk_bits[] = {
  0xFF, 0xFF, 0xFF, 0xFF, 0xDF, 0xFF, 0x8F, 0xFF, 0x07, 0xFF, 0x03, 0xF0, 
  0x07, 0xF0, 0x0F, 0xF8, 0x1F, 0xFC, 0x1F, 0xFC, 0x1F, 0xF3, 0x9F, 0xE7, 
  0xFF, 0xCF, 0xFF, 0xDF, 0xFF, 0xFF, 0xFF, 0xFF, };
