#define iconify_width 16
#define iconify_height 16
static char iconify_bits[] = {
  0x1F, 0xF8, 0x07, 0xE0, 0x03, 0xC0, 0x01, 0x80, 0x01, 0x80, 0x00, 0x00, 
  0x00, 0x00, 0xE0, 0x07, 0xE0, 0x07, 0x00, 0x00, 0x00, 0x00, 0x01, 0x80, 
  0x01, 0x80, 0x03, 0xC0, 0x07, 0xE0, 0x1F, 0xF8, };
