<?xml version="1.0" encoding="utf-8"?>
<!-- Generator: Adobe Illustrator 15.0.0, SVG Export Plug-In . SVG Version: 6.00 Build 0)  -->
<!DOCTYPE svg PUBLIC "-//W3C//DTD SVG 1.1//EN" "http://www.w3.org/Graphics/SVG/1.1/DTD/svg11.dtd">
<svg version="1.1" id="Layer_2" xmlns="http://www.w3.org/2000/svg" xmlns:xlink="http://www.w3.org/1999/xlink" x="0px" y="0px"
	 width="48px" height="20px" viewBox="0 0 48 20" enable-background="new 0 0 48 20" xml:space="preserve">
<g>
	<g>
		<linearGradient id="SVGID_1_" gradientUnits="userSpaceOnUse" x1="14.312" y1="1.542" x2="14.312" y2="18.4585">
			<stop  offset="0.0307" style="stop-color:#BCBEC0"/>
			<stop  offset="0.2653" style="stop-color:#ABAEB0"/>
			<stop  offset="0.7437" style="stop-color:#848688"/>
			<stop  offset="1" style="stop-color:#6D6E71"/>
		</linearGradient>
		<path fill="url(#SVGID_1_)" d="M0.458,10c0,4.671,4.402,8.458,9.833,8.458h11.965l5.911-16.916H0.458
			C0.458,7.916,0.458,5.329,0.458,10L0.458,10z"/>
		<linearGradient id="SVGID_2_" gradientUnits="userSpaceOnUse" x1="34.876" y1="1.542" x2="34.876" y2="18.4585">
			<stop  offset="0" style="stop-color:#FFFFFF"/>
			<stop  offset="0.2624" style="stop-color:#EBEBEB"/>
			<stop  offset="0.7975" style="stop-color:#B7B7B7"/>
			<stop  offset="1" style="stop-color:#A2A2A2"/>
		</linearGradient>
		<path fill="url(#SVGID_2_)" d="M22.209,18.458h15.5c5.431,0,9.833-3.787,9.833-8.458l0,0c0-4.671-4.402-8.458-9.833-8.458h-9.785
			L22.209,18.458z"/>
	</g>
	<g>
		<image overflow="visible" width="80" height="63" xlink:href="ED202726.png"  transform="matrix(0.24 0 0 0.24 4.3784 2.0234)">
		</image>
		<g>
			<polyline fill="none" stroke="#000000" stroke-width="3" stroke-miterlimit="10" points="8.264,8.9 12.623,12.088 19.38,6.15 			
				"/>
		</g>
	</g>
</g>
</svg>
