<?xml version="1.0" encoding="UTF-8" standalone="no"?>
<svg
   xmlns:dc="http://purl.org/dc/elements/1.1/"
   xmlns:cc="http://creativecommons.org/ns#"
   xmlns:rdf="http://www.w3.org/1999/02/22-rdf-syntax-ns#"
   xmlns:svg="http://www.w3.org/2000/svg"
   xmlns="http://www.w3.org/2000/svg"
   style="fill:#000000"
   height="18"
   viewBox="0 0 18 18"
   width="18"
   version="1.1"
   id="svg4">
  <metadata
     id="metadata10">
    <rdf:RDF>
      <cc:Work
         rdf:about="">
        <dc:format>image/svg+xml</dc:format>
        <dc:type
           rdf:resource="http://purl.org/dc/dcmitype/StillImage" />
        <dc:title></dc:title>
      </cc:Work>
    </rdf:RDF>
  </metadata>
  <defs
     id="defs8" />
  <path
     style="opacity:1;fill:#797979;fill-opacity:1;stroke:none;stroke-width:1;stroke-miterlimit:4;stroke-dasharray:none;stroke-opacity:1;paint-order:markers fill stroke"
     d="M 2,0 C 0.892,0 0,0.89200001 0,2 v 14 c 0,1.108 0.892,2 2,2 h 14 c 1.108,0 2,-0.892 2,-2 V 2 C 18,0.89200001 17.108,0 16,0 Z m 1.777,2.0003281 h 10.446 c 0.98489,0 1.777,0.7924549 1.777,1.7773438 V 14.222328 c 0,0.984889 -0.792111,1.777344 -1.777,1.777344 H 3.777 C 2.7921111,15.999672 2,15.207217 2,14.222328 V 3.7776719 C 2,2.792783 2.7921111,2.0003281 3.777,2.0003281 Z"
     id="rect822" />
</svg>
