<?xml version="1.0" encoding="UTF-8" standalone="no"?>
<svg
   xmlns:dc="http://purl.org/dc/elements/1.1/"
   xmlns:cc="http://creativecommons.org/ns#"
   xmlns:rdf="http://www.w3.org/1999/02/22-rdf-syntax-ns#"
   xmlns:svg="http://www.w3.org/2000/svg"
   xmlns="http://www.w3.org/2000/svg"
   xmlns:sodipodi="http://sodipodi.sourceforge.net/DTD/sodipodi-0.dtd"
   xmlns:inkscape="http://www.inkscape.org/namespaces/inkscape"
   height="13"
   viewBox="0 0 13 13"
   width="13"
   version="1.1"
   id="svg4"
   sodipodi:docname="checkboxUncheckedInsensitive_menu.svg"
   inkscape:version="0.92.4 (unknown)"
   style="fill:#000000">
  <metadata
     id="metadata10">
    <rdf:RDF>
      <cc:Work
         rdf:about="">
        <dc:format>image/svg+xml</dc:format>
        <dc:type
           rdf:resource="http://purl.org/dc/dcmitype/StillImage" />
        <dc:title />
      </cc:Work>
    </rdf:RDF>
  </metadata>
  <defs
     id="defs8" />
  <sodipodi:namedview
     pagecolor="#ffffff"
     bordercolor="#666666"
     borderopacity="1"
     objecttolerance="10"
     gridtolerance="10"
     guidetolerance="10"
     inkscape:pageopacity="0"
     inkscape:pageshadow="2"
     inkscape:window-width="1920"
     inkscape:window-height="1010"
     id="namedview6"
     showgrid="false"
     inkscape:zoom="27.812867"
     inkscape:cx="-13.294049"
     inkscape:cy="4.1341919"
     inkscape:window-x="0"
     inkscape:window-y="32"
     inkscape:window-maximized="1"
     inkscape:current-layer="svg4" />
  <rect
     style="opacity:0.1;fill:#000000;fill-opacity:1;stroke:none;stroke-width:1.69611919;stroke-linejoin:round;stroke-miterlimit:4;stroke-dasharray:none;stroke-dashoffset:0;stroke-opacity:1;paint-order:stroke fill markers"
     id="rect812"
     width="11"
     height="11"
     x="1"
     y="1"
     rx="0"
     ry="0" />
  <path
     style="fill:#797979;fill-opacity:1;stroke-width:0.8888889"
     d="M 1.7773438 0 C 0.79956595 0 0 0.79956595 0 1.7773438 L 0 11.222656 C 0 12.200434 0.79956595 13 1.7773438 13 L 11.222656 13 C 12.200434 13 13 12.200434 13 11.222656 L 13 1.7773438 C 13 0.79956595 12.200434 0 11.222656 0 L 1.7773438 0 z M 2.5039062 1 L 10.496094 1 C 11.323445 1 12 1.6765559 12 2.5039062 L 12 10.496094 C 12 11.323445 11.323445 12 10.496094 12 L 2.5039062 12 C 1.6765557 12 1 11.323445 1 10.496094 L 1 2.5039062 C 1 1.6765559 1.6765557 1 2.5039062 1 z "
     id="path2" />
</svg>
