<?xml version="1.0" encoding="UTF-8" standalone="no"?>
<svg
   xmlns:dc="http://purl.org/dc/elements/1.1/"
   xmlns:cc="http://creativecommons.org/ns#"
   xmlns:rdf="http://www.w3.org/1999/02/22-rdf-syntax-ns#"
   xmlns:svg="http://www.w3.org/2000/svg"
   xmlns="http://www.w3.org/2000/svg"
   width="16"
   height="16"
   viewBox="0 0 4.2333334 4.2333334"
   version="1.1"
   id="svg8">
  <defs
     id="defs2" />
  <metadata
     id="metadata5">
    <rdf:RDF>
      <cc:Work
         rdf:about="">
        <dc:format>image/svg+xml</dc:format>
        <dc:type
           rdf:resource="http://purl.org/dc/dcmitype/StillImage" />
        <dc:title></dc:title>
      </cc:Work>
    </rdf:RDF>
  </metadata>
  <path
     style="opacity:1;fill:#797979;fill-opacity:1;stroke:none;stroke-width:0.14521757;stroke-linejoin:round;stroke-miterlimit:4;stroke-dasharray:none;stroke-dashoffset:0;stroke-opacity:1;paint-order:stroke fill markers"
     d="M 2.1166667,0 C 0.94766398,5.522847e-8 5.522847e-8,0.94766398 0,2.1166667 5.5228469e-8,3.2856694 0.94766398,4.2333333 2.1166667,4.2333334 3.2856694,4.2333333 4.2333333,3.2856694 4.2333334,2.1166667 4.2333333,0.94766398 3.2856694,5.522847e-8 2.1166667,0 Z m 0,0.52916667 c 0.9092243,-5e-8 1.5875,0.67827563 1.5875,1.58750003 0,0.9092244 -0.6782756,1.5875001 -1.5875,1.5875 -0.9092243,0 -1.58750002,-0.6782756 -1.58750003,-1.5875 5e-8,-0.9092244 0.67827573,-1.58750004 1.58750003,-1.58750003 z"
     id="path816-3" />
  <path
     style="opacity:1;fill:#797979;fill-opacity:1;stroke:none;stroke-width:0.04808026;stroke-linejoin:round;stroke-miterlimit:4;stroke-dasharray:none;stroke-dashoffset:0;stroke-opacity:1;paint-order:stroke fill markers"
     d="M 0.79375001,1.8520833 H 3.4395834 V 2.38125 H 0.79375001 Z"
     id="rect891" />
</svg>
