<?xml version="1.0" encoding="UTF-8" standalone="no"?>
<svg
   xmlns:dc="http://purl.org/dc/elements/1.1/"
   xmlns:cc="http://creativecommons.org/ns#"
   xmlns:rdf="http://www.w3.org/1999/02/22-rdf-syntax-ns#"
   xmlns:svg="http://www.w3.org/2000/svg"
   xmlns="http://www.w3.org/2000/svg"
   id="svg8"
   version="1.1"
   viewBox="0 0 3.4395834 3.4395834"
   height="13"
   width="13">
  <defs
     id="defs2" />
  <metadata
     id="metadata5">
    <rdf:RDF>
      <cc:Work
         rdf:about="">
        <dc:format>image/svg+xml</dc:format>
        <dc:type
           rdf:resource="http://purl.org/dc/dcmitype/StillImage" />
        <dc:title></dc:title>
      </cc:Work>
    </rdf:RDF>
  </metadata>
  <circle
     r="1.4552085"
     cy="1.7197915"
     cx="1.7197919"
     id="path827-9"
     style="opacity:0.1;fill:#000000;fill-opacity:1;stroke:none;stroke-width:0.29372421;stroke-linejoin:round;stroke-miterlimit:4;stroke-dasharray:none;stroke-dashoffset:0;stroke-opacity:1;paint-order:stroke fill markers" />
  <path
     id="path816-3"
     transform="scale(0.26458334)"
     d="M 6.5 0 C 2.9101492 1.2283464e-07 1.6959924e-07 2.9101492 0 6.5 C 1.6959923e-07 10.089851 2.9101492 13 6.5 13 C 10.089851 13 13 10.089851 13 6.5 C 13 2.9101492 10.089851 1.2283464e-07 6.5 0 z M 6.5 1 A 5.5000002 5.5000002 0 0 1 12 6.5 A 5.5000002 5.5000002 0 0 1 6.5 12 A 5.5000002 5.5000002 0 0 1 1 6.5 A 5.5000002 5.5000002 0 0 1 6.5 1 z "
     style="opacity:1;fill:#797979;fill-opacity:1;stroke:none;stroke-width:0.44594368;stroke-linejoin:round;stroke-miterlimit:4;stroke-dasharray:none;stroke-dashoffset:0;stroke-opacity:1;paint-order:stroke fill markers" />
</svg>
