<?xml version="1.0" encoding="UTF-8" standalone="no"?>
<svg
   xmlns:dc="http://purl.org/dc/elements/1.1/"
   xmlns:cc="http://creativecommons.org/ns#"
   xmlns:rdf="http://www.w3.org/1999/02/22-rdf-syntax-ns#"
   xmlns:svg="http://www.w3.org/2000/svg"
   xmlns="http://www.w3.org/2000/svg"
   xmlns:sodipodi="http://sodipodi.sourceforge.net/DTD/sodipodi-0.dtd"
   xmlns:inkscape="http://www.inkscape.org/namespaces/inkscape"
   width="13"
   height="13"
   viewBox="0 0 3.4395834 3.4395834"
   version="1.1"
   id="svg8"
   sodipodi:docname="radioChecked_menu.svg"
   inkscape:version="0.92.4 (unknown)">
  <sodipodi:namedview
     pagecolor="#ffffff"
     bordercolor="#666666"
     borderopacity="1"
     objecttolerance="10"
     gridtolerance="10"
     guidetolerance="10"
     inkscape:pageopacity="0"
     inkscape:pageshadow="2"
     inkscape:window-width="1920"
     inkscape:window-height="1010"
     id="namedview6"
     showgrid="false"
     inkscape:zoom="25.673415"
     inkscape:cx="4.4986035"
     inkscape:cy="4.6829734"
     inkscape:window-x="0"
     inkscape:window-y="32"
     inkscape:window-maximized="1"
     inkscape:current-layer="svg8" />
  <defs
     id="defs2" />
  <metadata
     id="metadata5">
    <rdf:RDF>
      <cc:Work
         rdf:about="">
        <dc:format>image/svg+xml</dc:format>
        <dc:type
           rdf:resource="http://purl.org/dc/dcmitype/StillImage" />
        <dc:title></dc:title>
      </cc:Work>
    </rdf:RDF>
  </metadata>
  <path
     style="opacity:1;fill:#e6e6e6;fill-opacity:1;stroke:none;stroke-width:0.44594368;stroke-linejoin:round;stroke-miterlimit:4;stroke-dasharray:none;stroke-dashoffset:0;stroke-opacity:1;paint-order:stroke fill markers"
     d="M 6.5 0 C 2.9101492 1.2283464e-07 1.6959924e-07 2.9101492 0 6.5 C 1.6959923e-07 10.089851 2.9101492 13 6.5 13 C 10.089851 13 13 10.089851 13 6.5 C 13 2.9101492 10.089851 1.2283464e-07 6.5 0 z M 6.5 1 A 5.5000002 5.5000002 0 0 1 12 6.5 A 5.5000002 5.5000002 0 0 1 6.5 12 A 5.5000002 5.5000002 0 0 1 1 6.5 A 5.5000002 5.5000002 0 0 1 6.5 1 z "
     transform="scale(0.26458334)"
     id="path816-3" />
  <circle
     style="opacity:1;fill:#e6e6e6;fill-opacity:1;stroke:none;stroke-width:0.50344086;stroke-linejoin:round;stroke-miterlimit:4;stroke-dasharray:none;stroke-dashoffset:0;stroke-opacity:1;paint-order:stroke fill markers"
     id="path815-3"
     cx="1.7197917"
     cy="1.7197918"
     r="0.92604166" />
</svg>
