<?xml version="1.0" encoding="UTF-8" standalone="no"?>
<svg
   xmlns:dc="http://purl.org/dc/elements/1.1/"
   xmlns:cc="http://creativecommons.org/ns#"
   xmlns:rdf="http://www.w3.org/1999/02/22-rdf-syntax-ns#"
   xmlns:svg="http://www.w3.org/2000/svg"
   xmlns="http://www.w3.org/2000/svg"
   width="18"
   height="18"
   viewBox="0 0 4.7625001 4.7625001"
   version="1.1"
   id="svg8">
  <defs
     id="defs2" />
  <metadata
     id="metadata5">
    <rdf:RDF>
      <cc:Work
         rdf:about="">
        <dc:format>image/svg+xml</dc:format>
        <dc:type
           rdf:resource="http://purl.org/dc/dcmitype/StillImage" />
        <dc:title></dc:title>
      </cc:Work>
    </rdf:RDF>
  </metadata>
  <path
     style="opacity:1;fill:#797979;fill-opacity:1;stroke:none;stroke-width:0.16336976;stroke-linejoin:round;stroke-miterlimit:4;stroke-dasharray:none;stroke-dashoffset:0;stroke-opacity:1;paint-order:stroke fill markers"
     d="M 2.3812501,-1.0000001e-8 A 2.3812502,2.3812502 0 0 0 0,2.3812501 a 2.3812502,2.3812502 0 0 0 2.3812501,2.38125 2.3812502,2.3812502 0 0 0 2.38125,-2.38125 A 2.3812502,2.3812502 0 0 0 2.3812501,-1.0000001e-8 Z m 0,0.529166680000001 A 1.8520834,1.8520834 0 0 1 4.2333335,2.3812501 1.8520834,1.8520834 0 0 1 2.3812501,4.2333335 1.8520834,1.8520834 0 0 1 0.52916668,2.3812501 1.8520834,1.8520834 0 0 1 2.3812501,0.52916667 Z"
     id="path816-3" />
</svg>
