<?xml version="1.0" encoding="UTF-8" standalone="no"?>
<svg
   xmlns:dc="http://purl.org/dc/elements/1.1/"
   xmlns:cc="http://creativecommons.org/ns#"
   xmlns:rdf="http://www.w3.org/1999/02/22-rdf-syntax-ns#"
   xmlns:svg="http://www.w3.org/2000/svg"
   xmlns="http://www.w3.org/2000/svg"
   xmlns:sodipodi="http://sodipodi.sourceforge.net/DTD/sodipodi-0.dtd"
   xmlns:inkscape="http://www.inkscape.org/namespaces/inkscape"
   id="svg8"
   version="1.1"
   viewBox="0 0 4.7625001 4.7625001"
   height="18"
   width="18"
   sodipodi:docname="radioMixedInsensitive.svg"
   inkscape:version="0.92.2 2405546, 2018-03-11">
  <sodipodi:namedview
     pagecolor="#ffffff"
     bordercolor="#666666"
     borderopacity="1"
     objecttolerance="10"
     gridtolerance="10"
     guidetolerance="10"
     inkscape:pageopacity="0"
     inkscape:pageshadow="2"
     inkscape:window-width="1920"
     inkscape:window-height="1011"
     id="namedview7"
     showgrid="false"
     inkscape:zoom="9.8333333"
     inkscape:cx="-1.6271186"
     inkscape:cy="12"
     inkscape:window-x="0"
     inkscape:window-y="32"
     inkscape:window-maximized="1"
     inkscape:current-layer="svg8" />
  <defs
     id="defs2" />
  <metadata
     id="metadata5">
    <rdf:RDF>
      <cc:Work
         rdf:about="">
        <dc:format>image/svg+xml</dc:format>
        <dc:type
           rdf:resource="http://purl.org/dc/dcmitype/StillImage" />
        <dc:title></dc:title>
      </cc:Work>
    </rdf:RDF>
  </metadata>
  <path
     id="path816-3"
     d="M 2.3812501,-2.9166667e-8 A 2.3812502,2.3812502 0 0 0 0,2.3812501 a 2.3812502,2.3812502 0 0 0 2.3812501,2.38125 2.3812502,2.3812502 0 0 0 2.38125,-2.38125 A 2.3812502,2.3812502 0 0 0 2.3812501,-2.9166667e-8 Z m 0,0.529166699166667 A 1.8520834,1.8520834 0 0 1 4.2333334,2.3812501 1.8520834,1.8520834 0 0 1 2.3812501,4.2333335 1.8520834,1.8520834 0 0 1 0.52916668,2.3812501 1.8520834,1.8520834 0 0 1 2.3812501,0.52916667 Z"
     style="opacity:1;fill:#797979;fill-opacity:1;stroke:none;stroke-width:0.16336976;stroke-linejoin:round;stroke-miterlimit:4;stroke-dasharray:none;stroke-dashoffset:0;stroke-opacity:1;paint-order:stroke fill markers"
     inkscape:connector-curvature="0" />
  <path
     id="rect891"
     d="M 1.0583334,1.8520834 H 3.7041668 V 2.9104167 H 1.0583334 Z"
     style="opacity:1;fill:#797979;fill-opacity:1;stroke:none;stroke-width:0.06799576;stroke-linejoin:round;stroke-miterlimit:4;stroke-dasharray:none;stroke-dashoffset:0;stroke-opacity:1;paint-order:stroke fill markers"
     inkscape:connector-curvature="0" />
</svg>
