/* XPM */
static char *close_pressed[] = {
/* columns rows colors chars-per-pixel */
"24 24 38 1 ",
"  c #2F2F2F",
". c #2F3030",
"X c #2E3031",
"o c #2C3436",
"O c #2C3537",
"+ c gray20",
"@ c gray22",
"# c #1F4A53",
"$ c #1E4D57",
"% c #1D4E57",
"& c #1D4F59",
"* c #1B505B",
"= c #1B515B",
"- c #1C505B",
"; c #1B515C",
": c #1B525C",
"> c #1A525D",
", c #1B525D",
"< c #23454B",
"1 c #22454C",
"2 c #22454D",
"3 c #23464C",
"4 c #20474F",
"5 c #204850",
"6 c #204951",
"7 c #204A52",
"8 c #0F6576",
"9 c #0F6677",
"0 c #106677",
"q c #0A6E82",
"w c #0B6E82",
"e c #0A6F83",
"r c #0B6F83",
"t c #087186",
"y c #097186",
"u c #087286",
"i c #097286",
"p c #087287",
/* pixels */
"@@@@@@@@@@@@@@@@@@@@@@@@",
"++++++++++++++++++++++++",
"                        ",
"                        ",
"                        ",
"        O,9ee8:O        ",
"       1qppppppq3       ",
"      1uppppppppu3      ",
"     Oqppwpppprppro     ",
"     ,pppX7tt#.ppp;     ",
"     0ppp- 55 %ppp8     ",
"     qpppp&  $ppppq     ",
"     qpppi4  2ypppr     ",
"     9ppp6 ** 6ppp8     ",
"     :pppO>pp>Oppp=     ",
"     Oqppppppppppwo     ",
"      3uppppppppu<      ",
"       3rppppppw<       ",
"        o;8ee8=o        ",
"                        ",
"                        ",
"                        ",
"                        ",
"                        "
};
