/* XPM */
static char *close_active[] = {
/* columns rows colors chars-per-pixel */
"24 24 40 1 ",
"  c #2F2F2F",
". c #2F3030",
"X c #2E3131",
"o c #2C3638",
"O c #2C3739",
"+ c gray20",
"@ c gray22",
"# c #234C54",
"$ c #224D55",
"% c #234D56",
"& c #224E56",
"* c #21505A",
"= c #21515A",
"- c #21515B",
"; c #21525C",
": c #21535C",
"> c #21535D",
", c #20545E",
"< c #1F5864",
"1 c #1E5964",
"2 c #1E5A66",
"3 c #1C5C69",
"4 c #1D5C69",
"5 c #1C5D69",
"6 c #1C5D6A",
"7 c #1C5E6B",
"8 c #1B5F6C",
"9 c #11788C",
"0 c #11788D",
"q c #11798D",
"w c #117A8E",
"e c #0B859D",
"r c #0C859C",
"t c #0C859D",
"y c #0C869D",
"u c #0C869E",
"i c #0B89A1",
"p c #0A89A2",
"a c #0B89A2",
"s c #0A8AA3",
/* pixels */
"@@@@@@@@@@@@@@@@@@@@@@@@",
"++++++++++++++++++++++++",
"                        ",
"                        ",
"                        ",
"        O7quu07O        ",
"       $esssssse%       ",
"      $pssssssssp%      ",
"     Oessrsssstssto     ",
"     7sssX>pp,.sss6     ",
"     wsss4 =- 1sss0     ",
"     essss2  <sssse     ",
"     esssa*  &issst     ",
"     qsss: 33 ;sss0     ",
"     7sssO8ss8Osss5     ",
"     Oessssssssssro     ",
"      %pssssssssp#      ",
"       %tssssssr#       ",
"        o69yy95o        ",
"                        ",
"                        ",
"                        ",
"                        ",
"                        "
};
