<?xml version="1.0" encoding="utf-8"?>
<!-- Generator: Adobe Illustrator 15.0.0, SVG Export Plug-In . SVG Version: 6.00 Build 0)  -->
<!DOCTYPE svg PUBLIC "-//W3C//DTD SVG 1.1//EN" "http://www.w3.org/Graphics/SVG/1.1/DTD/svg11.dtd">
<svg version="1.1" id="Layer_2" xmlns="http://www.w3.org/2000/svg" xmlns:xlink="http://www.w3.org/1999/xlink" x="0px" y="0px"
	 width="48px" height="20px" viewBox="0 0 48 20" enable-background="new 0 0 48 20" xml:space="preserve">
<path display="none" d="M57.062,14.938c0,5.522-4.478,10-10,10H7.688c-5.523,0-10-4.478-10-10V5c0-5.523,4.477-10,10-10h39.375
	c5.522,0,10,4.477,10,10V14.938z"/>
<g>
	<g>
		<linearGradient id="SVGID_1_" gradientUnits="userSpaceOnUse" x1="14.312" y1="1.542" x2="14.312" y2="18.4585">
			<stop  offset="0.0307" style="stop-color:#BCBEC0"/>
			<stop  offset="0.2653" style="stop-color:#ABAEB0"/>
			<stop  offset="0.7437" style="stop-color:#848688"/>
			<stop  offset="1" style="stop-color:#6D6E71"/>
		</linearGradient>
		<path fill="url(#SVGID_1_)" d="M0.458,10c0,4.671,4.402,8.458,9.833,8.458h11.965l5.911-16.916H0.458
			C0.458,7.916,0.458,5.329,0.458,10L0.458,10z"/>
		<linearGradient id="SVGID_2_" gradientUnits="userSpaceOnUse" x1="34.876" y1="1.542" x2="34.876" y2="18.4585">
			<stop  offset="0" style="stop-color:#414042"/>
			<stop  offset="0.8092" style="stop-color:#151516"/>
			<stop  offset="1" style="stop-color:#000000"/>
		</linearGradient>
		<path fill="url(#SVGID_2_)" d="M22.209,18.458h15.5c5.431,0,9.833-3.787,9.833-8.458l0,0c0-4.671-4.402-8.458-9.833-8.458h-9.785
			L22.209,18.458z"/>
	</g>
	<g>
		<image overflow="visible" width="80" height="63" xlink:href="2FCC1D6A.png"  transform="matrix(0.24 0 0 0.24 4.3784 2.0234)">
		</image>
		<g>
			<polyline fill="none" stroke="#000000" stroke-width="3" stroke-miterlimit="10" points="8.264,8.9 12.623,12.088 19.38,6.15 			
				"/>
		</g>
	</g>
</g>
<g>
	<g>
		<linearGradient id="SVGID_3_" gradientUnits="userSpaceOnUse" x1="14.312" y1="1.541" x2="14.312" y2="18.4595">
			<stop  offset="0" style="stop-color:#414042"/>
			<stop  offset="0.8092" style="stop-color:#151516"/>
			<stop  offset="1" style="stop-color:#000000"/>
		</linearGradient>
		<path fill="url(#SVGID_3_)" d="M0.458,10c0,4.672,4.402,8.459,9.833,8.459h17.876V1.541H0.458C0.458,7.916,0.458,5.328,0.458,10
			L0.458,10z"/>
		<linearGradient id="SVGID_4_" gradientUnits="userSpaceOnUse" x1="35.0273" y1="1.541" x2="35.0273" y2="18.4595">
			<stop  offset="0.0307" style="stop-color:#BCBEC0"/>
			<stop  offset="0.2653" style="stop-color:#ABAEB0"/>
			<stop  offset="0.7437" style="stop-color:#848688"/>
			<stop  offset="1" style="stop-color:#6D6E71"/>
		</linearGradient>
		<path fill="url(#SVGID_4_)" d="M27.924,18.459h9.785c5.431,0,9.833-3.787,9.833-8.459l0,0c0-4.672-4.402-8.459-9.833-8.459H22.512
			L27.924,18.459z"/>
	</g>
	<g>
		
			<image overflow="visible" opacity="0.88" width="75" height="72" xlink:href="2FCC1D6B.png"  transform="matrix(0.24 0 0 0.24 26.0166 1.4468)">
		</image>
		<g>
			<g>
				<line fill="none" stroke="#000000" stroke-width="3" stroke-miterlimit="10" x1="39.988" y1="5.575" x2="30.012" y2="14.312"/>
				<line fill="none" stroke="#000000" stroke-width="3" stroke-miterlimit="10" x1="30.012" y1="5.575" x2="39.988" y2="14.425"/>
			</g>
		</g>
	</g>
</g>
</svg>
