<?xml version="1.0" encoding="UTF-8" standalone="no"?>
<!-- Created with Inkscape (http://www.inkscape.org/) -->

<svg
   xmlns:dc="http://purl.org/dc/elements/1.1/"
   xmlns:cc="http://creativecommons.org/ns#"
   xmlns:rdf="http://www.w3.org/1999/02/22-rdf-syntax-ns#"
   xmlns:svg="http://www.w3.org/2000/svg"
   xmlns="http://www.w3.org/2000/svg"
   xmlns:xlink="http://www.w3.org/1999/xlink"
   xmlns:sodipodi="http://sodipodi.sourceforge.net/DTD/sodipodi-0.dtd"
   xmlns:inkscape="http://www.inkscape.org/namespaces/inkscape"
   width="29"
   height="29"
   id="svg2"
   version="1.1"
   inkscape:version="0.48.3.1 r9886"
   sodipodi:docname="close-workspace.svg">
  <defs
     id="defs4">
    <clipPath
       clipPathUnits="userSpaceOnUse"
       id="clipPath3845">
      <rect
         style="opacity:0.1;fill:#000000;fill-opacity:1;stroke:#333333;stroke-width:0;stroke-linejoin:round;stroke-miterlimit:4;stroke-opacity:1;stroke-dasharray:none"
         id="rect3847"
         width="29.999989"
         height="27.931034"
         x="988.40631"
         y="-64.144409"
         transform="matrix(0,1,-1,0,0,0)" />
    </clipPath>
    <clipPath
       clipPathUnits="userSpaceOnUse"
       id="clipPath3849">
      <rect
         style="opacity:0.1;fill:#000000;fill-opacity:1;stroke:#333333;stroke-width:0;stroke-linejoin:round;stroke-miterlimit:4;stroke-opacity:1;stroke-dasharray:none"
         id="rect3851"
         width="29.999989"
         height="28.064516"
         x="988.40631"
         y="-64.107918"
         transform="matrix(0,1,-1,0,0,0)" />
    </clipPath>
    <linearGradient
       id="linearGradient4250-5">
      <stop
         id="stop4252-5"
         offset="0"
         style="stop-color:#ffffff;stop-opacity:0;" />
      <stop
         id="stop4254-2"
         offset="1"
         style="stop-color:#ffffff;stop-opacity:0.2" />
    </linearGradient>
    <linearGradient
       inkscape:collect="always"
       xlink:href="#linearGradient3818-4"
       id="linearGradient3863"
       x1="64.144363"
       y1="1005.4063"
       x2="39.937469"
       y2="1005.4063"
       gradientUnits="userSpaceOnUse" />
    <linearGradient
       inkscape:collect="always"
       xlink:href="#linearGradient4250-5"
       id="linearGradient4058"
       x1="-3"
       y1="-7"
       x2="-3"
       y2="-33"
       gradientUnits="userSpaceOnUse"
       gradientTransform="translate(7.9375024,1063.4063)" />
    <linearGradient
       inkscape:collect="always"
       xlink:href="#linearGradient5001"
       id="linearGradient4420"
       x1="7.9399977"
       y1="35.053188"
       x2="17.939999"
       y2="35.053188"
       gradientUnits="userSpaceOnUse"
       gradientTransform="matrix(0,1,-1,0,43.990691,1030.4663)" />
    <linearGradient
       id="linearGradient5001">
      <stop
         id="stop5003"
         offset="0"
         style="stop-color:#000000;stop-opacity:0.502" />
      <stop
         style="stop-color:#000000;stop-opacity:0.251"
         offset="1"
         id="stop5005" />
    </linearGradient>
    <linearGradient
       inkscape:collect="always"
       xlink:href="#linearGradient4614"
       id="linearGradient3208"
       gradientUnits="userSpaceOnUse"
       gradientTransform="matrix(0,1,-1,0,43.990691,1030.4663)"
       x1="7.9399977"
       y1="35.053188"
       x2="12.939998"
       y2="35.053188" />
    <linearGradient
       id="linearGradient4614">
      <stop
         style="stop-color:#000000;stop-opacity:1;"
         offset="0"
         id="stop4616" />
      <stop
         style="stop-color:#000000;stop-opacity:0;"
         offset="1"
         id="stop4618" />
    </linearGradient>
    <linearGradient
       id="linearGradient3818-4">
      <stop
         style="stop-color:#51bbe9;stop-opacity:1;"
         offset="0"
         id="stop3820-5" />
      <stop
         style="stop-color:#1b62ad;stop-opacity:1;"
         offset="1"
         id="stop3822-5" />
    </linearGradient>
  </defs>
  <sodipodi:namedview
     id="base"
     pagecolor="#000000"
     bordercolor="#666666"
     borderopacity="1.0"
     inkscape:pageopacity="0.78431373"
     inkscape:pageshadow="2"
     inkscape:zoom="1"
     inkscape:cx="36.476137"
     inkscape:cy="18.783487"
     inkscape:document-units="px"
     inkscape:current-layer="layer1"
     showgrid="false"
     inkscape:window-width="1366"
     inkscape:window-height="715"
     inkscape:window-x="0"
     inkscape:window-y="26"
     inkscape:window-maximized="1"
     fit-margin-left="6"
     fit-margin-top="6"
     fit-margin-right="6"
     fit-margin-bottom="6"
     showborder="false"
     inkscape:showpageshadow="false">
    <inkscape:grid
       type="xygrid"
       id="grid3952"
       empspacing="5"
       visible="true"
       enabled="true"
       snapvisiblegridlinesonly="true" />
  </sodipodi:namedview>
  <metadata
     id="metadata7">
    <rdf:RDF>
      <cc:Work
         rdf:about="">
        <dc:format>image/svg+xml</dc:format>
        <dc:type
           rdf:resource="http://purl.org/dc/dcmitype/StillImage" />
        <dc:title />
      </cc:Work>
    </rdf:RDF>
  </metadata>
  <g
     inkscape:label="Layer 1"
     inkscape:groupmode="layer"
     id="layer1"
     transform="translate(6.0625,-1029.4063)">
    <rect
       style="opacity:0.2;fill:#000000;fill-opacity:1;stroke:#333333;stroke-width:0;stroke-linejoin:round;stroke-miterlimit:4;stroke-opacity:1;stroke-dasharray:none"
       id="rect3028-5"
       width="29"
       height="35.00005"
       x="38.9375"
       y="991.40631"
       rx="2.8064516"
       ry="2.9999988"
       clip-path="url(#clipPath3849)"
       transform="matrix(0,-1.0726878,1.0000004,0,-996.46921,1099.1741)" />
    <rect
       style="fill:url(#linearGradient3863);fill-opacity:1.0;stroke:#333333;stroke-width:0;stroke-linejoin:round;stroke-miterlimit:4;stroke-opacity:1;stroke-dasharray:none"
       id="rect3028-5-3"
       width="27"
       height="29"
       x="39.9375"
       y="992.40631"
       rx="1.8620689"
       ry="1.9999992"
       clip-path="url(#clipPath3845)"
       transform="matrix(0,-1.0740741,1.0000004,0,-996.46921,1099.3021)" />
    <path
       style="fill:url(#linearGradient4058);fill-opacity:1;stroke:none"
       d="m -4.0624976,1030.4063 0,26 1,0 0,-25 23.9999996,0 0,25 1,0 0,-26 -25.9999996,0 z"
       id="rect4031"
       inkscape:connector-curvature="0" />
    <path
       style="fill:url(#linearGradient4420);fill-opacity:1;stroke:#000000;stroke-width:0;stroke-miterlimit:4;stroke-opacity:1;stroke-dasharray:none"
       d="m 13.578858,1038.7649 c -0.59338,-0.5933 -1.708019,-0.4341 -2.499192,0.3571 l -2.1421635,2.1421 -2.142164,-2.1421 c -0.791174,-0.7912 -1.905812,-0.9504 -2.499192,-0.3571 -0.59338,0.5934 -0.434146,1.7081 0.357027,2.4992 l 2.142165,2.1422 -2.142165,2.1422 c -0.791173,0.7911 -0.950407,1.9058 -0.357027,2.4992 0.59338,0.5933 1.708018,0.4341 2.499192,-0.3571 l 2.142164,-2.1421 2.1421635,2.1421 c 0.791173,0.7912 1.905812,0.9504 2.499192,0.3571 0.59338,-0.5934 0.434145,-1.7081 -0.357027,-2.4992 l -2.142165,-2.1422 2.142165,-2.1422 c 0.791172,-0.7911 0.950407,-1.9058 0.357027,-2.4992 z"
       id="rect4364-4"
       inkscape:connector-curvature="0" />
    <path
       style="opacity:0.2;fill:url(#linearGradient3208);fill-opacity:1;stroke:#000000;stroke-width:0;stroke-miterlimit:4;stroke-opacity:1;stroke-dasharray:none"
       d="m 13.578858,1038.7649 c -0.59338,-0.5933 -1.708019,-0.4341 -2.499192,0.3571 l -2.1421635,2.1421 -2.142164,-2.1421 c -0.791174,-0.7912 -1.905812,-0.9504 -2.499192,-0.3571 -0.59338,0.5934 -0.434146,1.7081 0.357027,2.4992 l 2.142165,2.1422 -2.142165,2.1422 c -0.791173,0.7911 -0.950407,1.9058 -0.357027,2.4992 0.59338,0.5933 1.708018,0.4341 2.499192,-0.3571 l 2.142164,-2.1421 2.1421635,2.1421 c 0.791173,0.7912 1.905812,0.9504 2.499192,0.3571 0.59338,-0.5934 0.434145,-1.7081 -0.357027,-2.4992 l -2.142165,-2.1422 2.142165,-2.1422 c 0.791172,-0.7911 0.950407,-1.9058 0.357027,-2.4992 z m -0.714055,0.7141 c 0.197794,0.1978 0.03855,0.6755 -0.357027,1.0711 l -2.8562185,2.8562 2.8562185,2.8562 c 0.395586,0.3956 0.554821,0.8733 0.357027,1.0711 -0.197793,0.1978 -0.675496,0.039 -1.071082,-0.357 l -2.8562185,-2.8562 -2.856219,2.8562 c -0.395586,0.3956 -0.87329,0.5548 -1.071082,0.357 -0.197794,-0.1978 -0.03855,-0.6755 0.357027,-1.0711 l 2.856219,-2.8562 -2.856219,-2.8562 c -0.395586,-0.3956 -0.554821,-0.8733 -0.357027,-1.0711 0.197792,-0.1978 0.675496,-0.039 1.071082,0.357 l 2.856219,2.8562 2.8562185,-2.8562 c 0.395586,-0.3956 0.873289,-0.5548 1.071082,-0.357 z"
       id="rect4364-8-5"
       inkscape:connector-curvature="0" />
    <path
       style="opacity:0.1;fill:#ffffff;fill-opacity:1;stroke:#000000;stroke-width:0;stroke-miterlimit:4;stroke-opacity:1;stroke-dasharray:none"
       d="m 4.0308685,1040.2103 c -0.207929,0.6097 0.0085,1.4148 0.625,2.0313 l 1.625,1.6562 0.5,-0.5 -2.125,-2.1562 c -0.314096,-0.3141 -0.517654,-0.668 -0.625,-1.0313 z m 9.8124995,0 c -0.107346,0.3633 -0.310905,0.7172 -0.625,1.0313 l -2.125,2.1562 0.5,0.5 1.625,-1.6562 c 0.616455,-0.6165 0.832928,-1.4216 0.625,-2.0313 z m -4.9062495,5.3438 -2.15625,2.125 c -0.791174,0.7912 -1.90662,0.9684 -2.5,0.375 -0.131038,-0.131 -0.191068,-0.296 -0.25,-0.4688 -0.163048,0.5517 -0.107808,1.111 0.25,1.4688 0.59338,0.5934 1.708826,0.4162 2.5,-0.375 l 2.15625,-2.125 2.1562495,2.125 c 0.791173,0.7912 1.90662,0.9684 2.5,0.375 0.357808,-0.3578 0.413047,-0.9171 0.25,-1.4688 -0.05893,0.1728 -0.118962,0.3378 -0.25,0.4688 -0.59338,0.5934 -1.708827,0.4162 -2.5,-0.375 l -2.1562495,-2.125 z"
       id="rect4364-4-1"
       inkscape:connector-curvature="0" />
  </g>
</svg>
