<?xml version="1.0" encoding="UTF-8" standalone="no"?>
<!-- Created with Inkscape (http://www.inkscape.org/) -->

<svg
   xmlns:dc="http://purl.org/dc/elements/1.1/"
   xmlns:cc="http://creativecommons.org/ns#"
   xmlns:rdf="http://www.w3.org/1999/02/22-rdf-syntax-ns#"
   xmlns:svg="http://www.w3.org/2000/svg"
   xmlns="http://www.w3.org/2000/svg"
   xmlns:xlink="http://www.w3.org/1999/xlink"
   xmlns:sodipodi="http://sodipodi.sourceforge.net/DTD/sodipodi-0.dtd"
   xmlns:inkscape="http://www.inkscape.org/namespaces/inkscape"
   width="26"
   height="26"
   id="svg2985"
   version="1.1"
   inkscape:version="0.48.3.1 r9886"
   sodipodi:docname="entry-run.svg">
  <defs
     id="defs2987">
    <linearGradient
       inkscape:collect="always"
       xlink:href="#linearGradient3818-9"
       id="linearGradient3950"
       gradientUnits="userSpaceOnUse"
       gradientTransform="matrix(1.0619798,0,0,1.0088466,-9.2128135,-2.244022)"
       x1="13.383318"
       y1="29.978811"
       x2="13.383318"
       y2="41.873585" />
    <linearGradient
       id="linearGradient3818-9">
      <stop
         style="stop-color:#51bbe9;stop-opacity:1;"
         offset="0"
         id="stop3820-4" />
      <stop
         style="stop-color:#1b62ad;stop-opacity:1;"
         offset="1"
         id="stop3822-0" />
    </linearGradient>
  </defs>
  <sodipodi:namedview
     id="base"
     pagecolor="#000000"
     bordercolor="#666666"
     borderopacity="1.0"
     inkscape:pageopacity="0.80784314"
     inkscape:pageshadow="2"
     inkscape:zoom="1"
     inkscape:cx="3.5"
     inkscape:cy="13.25"
     inkscape:current-layer="layer1"
     showgrid="false"
     inkscape:grid-bbox="true"
     inkscape:document-units="px"
     inkscape:window-width="1366"
     inkscape:window-height="715"
     inkscape:window-x="0"
     inkscape:window-y="26"
     inkscape:window-maximized="1"
     fit-margin-top="0"
     fit-margin-left="0"
     fit-margin-right="0"
     fit-margin-bottom="0"
     showborder="false"
     inkscape:showpageshadow="false">
    <inkscape:grid
       type="xygrid"
       id="grid3779"
       empspacing="5"
       visible="true"
       enabled="true"
       snapvisiblegridlinesonly="true"
       originx="-0.9999999px"
       originy="-1px" />
  </sodipodi:namedview>
  <metadata
     id="metadata2990">
    <rdf:RDF>
      <cc:Work
         rdf:about="">
        <dc:format>image/svg+xml</dc:format>
        <dc:type
           rdf:resource="http://purl.org/dc/dcmitype/StillImage" />
        <dc:title />
      </cc:Work>
    </rdf:RDF>
  </metadata>
  <g
     id="layer1"
     inkscape:label="Layer 1"
     inkscape:groupmode="layer"
     transform="translate(-0.9999999,-21)">
    <path
       style="font-size:41.40289688000000012px;font-style:normal;font-weight:normal;line-height:125%;letter-spacing:0px;word-spacing:0px;fill:url(#linearGradient3950);fill-opacity:1.0;stroke:none;font-family:Sans"
       d="m 3.9999999,27.5 0,1.03125 c -0.850593,0.06904 -1.54058,0.307594 -2.0625,0.75 -0.6184178,0.524218 -0.9375009,1.238892 -0.9375,2.15625 -9e-7,0.714016 0.1866919,1.293966 0.5625,1.71875 0.3758051,0.420276 1.095425,0.834636 2.15625,1.21875 l 0.28125,0.09375 0,2.84375 c -0.440256,-0.02317 -0.893104,-0.09187 -1.34375,-0.25 -0.523278,-0.185279 -1.0636696,-0.464148 -1.625,-0.84375 l 0,2.0625 c 0.4947318,0.234991 1.003215,0.413755 1.53125,0.53125 0.479593,0.109832 0.961756,0.176534 1.4375,0.1875 l 0,1 1,0 0,-1.0625 c 0.868927,-0.0896 1.545873,-0.302682 2.03125,-0.6875 0.637437,-0.506132 0.968742,-1.259944 0.96875,-2.28125 -8e-6,-0.750158 -0.189408,-1.38242 -0.59375,-1.875 -0.404356,-0.492571 -1.049987,-0.889237 -1.90625,-1.1875 l -0.5,-0.1875 0,-2.53125 c 0.334098,0.03136 0.692111,0.103697 1.03125,0.21875 0.466185,0.158175 0.923073,0.384732 1.375,0.6875 l 0,-1.96875 c -0.480469,-0.207866 -0.97878,-0.364802 -1.46875,-0.46875 -0.316323,-0.07001 -0.621182,-0.100182 -0.9375,-0.125 l 0,-1.03125 -1,0 z m -0.03125,2.71875 c 0.0092,-0.0023 0.021913,0.0022 0.03125,0 l 0,2.125 c -0.290391,-0.128319 -0.531848,-0.262444 -0.65625,-0.375 -0.195042,-0.185274 -0.281253,-0.407312 -0.28125,-0.6875 -3e-6,-0.361516 0.135095,-0.649423 0.40625,-0.84375 0.135574,-0.09716 0.304961,-0.17017 0.5,-0.21875 z m 1.03125,4.65625 c 0.230133,0.115259 0.454854,0.238026 0.59375,0.40625 0.190276,0.225956 0.281244,0.478477 0.28125,0.78125 -6e-6,0.402197 -0.152083,0.71155 -0.4375,0.9375 -0.124142,0.09631 -0.269267,0.164329 -0.4375,0.21875 l 0,-2.34375 z"
       id="text3016"
       inkscape:connector-curvature="0" />
  </g>
</svg>
