<?xml version="1.0" encoding="UTF-8" standalone="no"?>
<!-- Created with Inkscape (http://www.inkscape.org/) -->

<svg
   xmlns:dc="http://purl.org/dc/elements/1.1/"
   xmlns:cc="http://creativecommons.org/ns#"
   xmlns:rdf="http://www.w3.org/1999/02/22-rdf-syntax-ns#"
   xmlns:svg="http://www.w3.org/2000/svg"
   xmlns="http://www.w3.org/2000/svg"
   xmlns:xlink="http://www.w3.org/1999/xlink"
   xmlns:sodipodi="http://sodipodi.sourceforge.net/DTD/sodipodi-0.dtd"
   xmlns:inkscape="http://www.inkscape.org/namespaces/inkscape"
   width="18"
   height="18"
   id="svg2985"
   version="1.1"
   inkscape:version="0.48.3.1 r9886"
   sodipodi:docname="radiobutton-off-focus.svg">
  <defs
     id="defs2987">
    <linearGradient
       inkscape:collect="always"
       xlink:href="#linearGradient3818"
       id="linearGradient3861"
       x1="0"
       y1="5"
       x2="18"
       y2="5"
       gradientUnits="userSpaceOnUse"
       gradientTransform="matrix(0,1,-1,0,15,29)" />
    <linearGradient
       id="linearGradient3818">
      <stop
         style="stop-color:#51bbe9;stop-opacity:1;"
         offset="0"
         id="stop3820" />
      <stop
         style="stop-color:#1b62ad;stop-opacity:1;"
         offset="1"
         id="stop3822" />
    </linearGradient>
  </defs>
  <sodipodi:namedview
     id="base"
     pagecolor="#000000"
     bordercolor="#666666"
     borderopacity="1.0"
     inkscape:pageopacity="0.80784314"
     inkscape:pageshadow="2"
     inkscape:zoom="1"
     inkscape:cx="9.0000001"
     inkscape:cy="9"
     inkscape:current-layer="layer1"
     showgrid="false"
     inkscape:grid-bbox="true"
     inkscape:document-units="px"
     inkscape:window-width="1366"
     inkscape:window-height="715"
     inkscape:window-x="0"
     inkscape:window-y="26"
     inkscape:window-maximized="1"
     fit-margin-top="0"
     fit-margin-left="0"
     fit-margin-right="0"
     fit-margin-bottom="0"
     showborder="false"
     inkscape:showpageshadow="false">
    <inkscape:grid
       type="xygrid"
       id="grid3779"
       empspacing="5"
       visible="true"
       enabled="true"
       snapvisiblegridlinesonly="true"
       originx="-0.9999999px"
       originy="-1px" />
  </sodipodi:namedview>
  <metadata
     id="metadata2990">
    <rdf:RDF>
      <cc:Work
         rdf:about="">
        <dc:format>image/svg+xml</dc:format>
        <dc:type
           rdf:resource="http://purl.org/dc/dcmitype/StillImage" />
        <dc:title />
      </cc:Work>
    </rdf:RDF>
  </metadata>
  <g
     id="layer1"
     inkscape:label="Layer 1"
     inkscape:groupmode="layer"
     transform="translate(-0.9999999,-29)">
    <path
       style="fill:url(#linearGradient3861);fill-opacity:1.0;stroke:none"
       d="m 19,38 c 0,-4.970563 -4.029437,-9 -9.0000001,-9 -4.9705627,0 -9,4.029437 -9,9 0,4.970563 4.0294373,9 9,9 C 14.970563,47 19,42.970563 19,38 z m -1,0 c 0,4.418278 -3.581722,8 -8.0000001,8 -4.418278,0 -8,-3.581722 -8,-8 0,-4.418278 3.581722,-8 8,-8 C 14.418278,30 18,33.581722 18,38 z"
       id="path3781-9-5-7"
       inkscape:connector-curvature="0" />
    <path
       sodipodi:type="arc"
       style="opacity:0.3;fill:#000000;fill-opacity:1"
       id="path3770"
       sodipodi:cx="9.5"
       sodipodi:cy="10"
       sodipodi:rx="5.5"
       sodipodi:ry="7"
       d="m 15,10 c 0,3.865993 -2.462434,7 -5.5,7 C 6.4624339,17 4,13.865993 4,10 4,6.1340068 6.4624339,3 9.5,3 12.537566,3 15,6.1340068 15,10 z"
       transform="matrix(1.4545455,0,0,1.1428571,-3.8181822,26.571429)" />
  </g>
</svg>
