<?xml version="1.0" encoding="UTF-8" standalone="no"?>
<!-- Created with Inkscape (http://www.inkscape.org/) -->

<svg
   xmlns:dc="http://purl.org/dc/elements/1.1/"
   xmlns:cc="http://creativecommons.org/ns#"
   xmlns:rdf="http://www.w3.org/1999/02/22-rdf-syntax-ns#"
   xmlns:svg="http://www.w3.org/2000/svg"
   xmlns="http://www.w3.org/2000/svg"
   xmlns:xlink="http://www.w3.org/1999/xlink"
   xmlns:sodipodi="http://sodipodi.sourceforge.net/DTD/sodipodi-0.dtd"
   xmlns:inkscape="http://www.inkscape.org/namespaces/inkscape"
   width="37"
   height="52"
   id="svg3832"
   version="1.1"
   inkscape:version="0.48.3.1 r9886"
   sodipodi:docname="workspace-add-hover.svg">
  <defs
     id="defs3834">
    <linearGradient
       id="linearGradient4250-5-1">
      <stop
         id="stop4252-5-6"
         offset="0"
         style="stop-color:#ffffff;stop-opacity:0;" />
      <stop
         id="stop4254-2-6"
         offset="1"
         style="stop-color:#ffffff;stop-opacity:0.2" />
    </linearGradient>
    <linearGradient
       inkscape:collect="always"
       xlink:href="#linearGradient3818-9"
       id="linearGradient3806"
       x1="29.9375"
       y1="12.031001"
       x2="29.9375"
       y2="62.031002"
       gradientUnits="userSpaceOnUse" />
    <linearGradient
       gradientTransform="translate(0,-74.062)"
       y2="62.031002"
       x2="29.9375"
       y1="12.031001"
       x1="29.9375"
       gradientUnits="userSpaceOnUse"
       id="linearGradient3823"
       xlink:href="#linearGradient4250-5-1"
       inkscape:collect="always" />
    <linearGradient
       y2="63.072659"
       x2="29.910473"
       y1="10.989327"
       x1="29.910473"
       gradientTransform="matrix(0.94871795,0,0,0.96,1.560898,1.4812471)"
       gradientUnits="userSpaceOnUse"
       id="linearGradient3857"
       xlink:href="#linearGradient3818-9"
       inkscape:collect="always" />
    <linearGradient
       id="linearGradient4509-61-7">
      <stop
         style="stop-color:#000000;stop-opacity:0.6"
         offset="0"
         id="stop4511-7-0" />
      <stop
         id="stop4513-2-8"
         offset="1"
         style="stop-color:#000000;stop-opacity:0.251" />
    </linearGradient>
    <linearGradient
       inkscape:collect="always"
       xlink:href="#linearGradient4894-2"
       id="linearGradient4900-0"
       x1="27.9375"
       y1="30.031"
       x2="27.9375"
       y2="38.031002"
       gradientUnits="userSpaceOnUse"
       gradientTransform="translate(1,-1)" />
    <linearGradient
       id="linearGradient4894-2">
      <stop
         style="stop-color:#000000;stop-opacity:0.2"
         offset="0"
         id="stop4896-6" />
      <stop
         id="stop4902-0"
         offset="0.87499988"
         style="stop-color:#000000;stop-opacity:0.2" />
      <stop
         style="stop-color:#000000;stop-opacity:0;"
         offset="1"
         id="stop4898-5" />
    </linearGradient>
    <linearGradient
       y2="37.031002"
       x2="17.9375"
       y1="37.031002"
       x1="1.9375"
       gradientTransform="matrix(0,1,-1,0,65.968501,27.093501)"
       gradientUnits="userSpaceOnUse"
       id="linearGradient3034"
       xlink:href="#linearGradient4509-61-7"
       inkscape:collect="always" />
    <clipPath
       clipPathUnits="userSpaceOnUse"
       id="clipPath3909">
      <rect
         style="fill:#000000;fill-opacity:1;stroke:#000000;stroke-width:0;stroke-miterlimit:4;stroke-opacity:1;stroke-dasharray:none"
         id="rect3911"
         width="37"
         height="52"
         x="9.9375"
         y="11.031001" />
    </clipPath>
    <clipPath
       clipPathUnits="userSpaceOnUse"
       id="clipPath3913">
      <rect
         style="fill:#000000;fill-opacity:1;stroke:#000000;stroke-width:0;stroke-miterlimit:4;stroke-opacity:1;stroke-dasharray:none"
         id="rect3915"
         width="37"
         height="52"
         x="9.9375"
         y="11.031001" />
    </clipPath>
    <clipPath
       clipPathUnits="userSpaceOnUse"
       id="clipPath3917">
      <rect
         style="fill:#000000;fill-opacity:1;stroke:#000000;stroke-width:0;stroke-miterlimit:4;stroke-opacity:1;stroke-dasharray:none"
         id="rect3919"
         width="37"
         height="52"
         x="9.9375"
         y="11.031001" />
    </clipPath>
    <clipPath
       clipPathUnits="userSpaceOnUse"
       id="clipPath3921">
      <rect
         style="fill:#000000;fill-opacity:1;stroke:#000000;stroke-width:0;stroke-miterlimit:4;stroke-opacity:1;stroke-dasharray:none"
         id="rect3923"
         width="37"
         height="52"
         x="9.9375"
         y="11.031001" />
    </clipPath>
    <clipPath
       clipPathUnits="userSpaceOnUse"
       id="clipPath3925">
      <rect
         style="fill:#000000;fill-opacity:1;stroke:#000000;stroke-width:0;stroke-miterlimit:4;stroke-opacity:1;stroke-dasharray:none"
         id="rect3927"
         width="37"
         height="52"
         x="9.9375"
         y="11.031001"
         transform="scale(1,-1)" />
    </clipPath>
    <clipPath
       clipPathUnits="userSpaceOnUse"
       id="clipPath3929">
      <rect
         style="fill:#000000;fill-opacity:1;stroke:#000000;stroke-width:0;stroke-miterlimit:4;stroke-opacity:1;stroke-dasharray:none"
         id="rect3931"
         width="37"
         height="52"
         x="9.9375"
         y="11.031001" />
    </clipPath>
    <clipPath
       clipPathUnits="userSpaceOnUse"
       id="clipPath3933">
      <rect
         style="fill:#000000;fill-opacity:1;stroke:#000000;stroke-width:0;stroke-miterlimit:4;stroke-opacity:1;stroke-dasharray:none"
         id="rect3935"
         width="37"
         height="52"
         x="0"
         y="0" />
    </clipPath>
    <linearGradient
       id="linearGradient3818-9">
      <stop
         style="stop-color:#51bbe9;stop-opacity:1;"
         offset="0"
         id="stop3820-0" />
      <stop
         style="stop-color:#1b62ad;stop-opacity:1;"
         offset="1"
         id="stop3822-9" />
    </linearGradient>
  </defs>
  <sodipodi:namedview
     id="base"
     pagecolor="#000000"
     bordercolor="#666666"
     borderopacity="1.0"
     inkscape:pageopacity="0.78431373"
     inkscape:pageshadow="2"
     inkscape:zoom="1"
     inkscape:cx="65.264905"
     inkscape:cy="31.845985"
     inkscape:current-layer="layer1"
     showgrid="false"
     inkscape:grid-bbox="true"
     inkscape:document-units="px"
     fit-margin-top="0"
     fit-margin-left="0"
     fit-margin-right="0"
     fit-margin-bottom="0"
     inkscape:window-width="1366"
     inkscape:window-height="715"
     inkscape:window-x="0"
     inkscape:window-y="26"
     inkscape:window-maximized="1"
     showborder="false"
     inkscape:showpageshadow="false">
    <inkscape:grid
       type="xygrid"
       id="grid3761"
       empspacing="5"
       visible="true"
       enabled="true"
       snapvisiblegridlinesonly="true"
       originx="0px"
       originy="0px" />
  </sodipodi:namedview>
  <metadata
     id="metadata3837">
    <rdf:RDF>
      <cc:Work
         rdf:about="">
        <dc:format>image/svg+xml</dc:format>
        <dc:type
           rdf:resource="http://purl.org/dc/dcmitype/StillImage" />
        <dc:title />
      </cc:Work>
    </rdf:RDF>
  </metadata>
  <g
     id="layer1"
     inkscape:label="Layer 1"
     inkscape:groupmode="layer"
     transform="translate(-9.9375,-11.031001)">
    <rect
       style="opacity:0.2;fill:#000000;fill-opacity:1;stroke:#000000;stroke-width:0;stroke-miterlimit:4;stroke-opacity:1;stroke-dasharray:none"
       id="rect3012"
       width="41"
       height="52"
       x="0"
       y="0"
       transform="translate(9.9375,11.031001)"
       rx="4"
       ry="4"
       clip-path="url(#clipPath3933)" />
    <rect
       style="opacity:1;fill:url(#linearGradient3806);fill-opacity:1.0;stroke:#000000;stroke-width:0;stroke-miterlimit:4;stroke-opacity:1;stroke-dasharray:none"
       id="rect3012-4"
       width="39"
       height="50"
       x="10.9375"
       y="12.031001"
       rx="3"
       ry="3"
       clip-path="url(#clipPath3929)" />
    <rect
       style="fill:url(#linearGradient3823);fill-opacity:1;stroke:#000000;stroke-width:0;stroke-miterlimit:4;stroke-opacity:1;stroke-dasharray:none"
       id="rect3012-4-8"
       width="39"
       height="50"
       x="10.9375"
       y="-62.031002"
       rx="3"
       ry="3"
       transform="scale(1,-1)"
       clip-path="url(#clipPath3925)" />
    <rect
       style="fill:url(#linearGradient3857);fill-opacity:1.0;stroke:#000000;stroke-width:0;stroke-miterlimit:4;stroke-opacity:1;stroke-dasharray:none"
       id="rect3012-4-8-1"
       width="37"
       height="48"
       x="11.9375"
       y="13.031002"
       rx="2"
       ry="2"
       clip-path="url(#clipPath3921)" />
    <path
       style="fill:url(#linearGradient3034);fill-opacity:1;stroke:none"
       d="m 36.9375,37.031001 c 0,-1.108 -0.892,-2 -2,-2 l -4,0 0,-4 c 0,-1.108 -0.892,-2 -2,-2 -1.108,0 -2,0.892 -2,2 l 0,4 -4,0 c -1.108,0 -2,0.892 -2,2 0,1.108 0.892,2 2,2 l 4,0 0,4 c 0,1.108 0.892,2 2,2 1.108,0 2,-0.892 2,-2 l 0,-4 4,0 c 1.108,0 2,-0.892 2,-2 z"
       id="rect4697-557"
       inkscape:connector-curvature="0"
       clip-path="url(#clipPath3917)" />
    <path
       style="fill:url(#linearGradient4900-0);fill-opacity:1;stroke:none"
       d="m 28.9375,29.031001 c -1.108,0 -2,0.892 -2,2 l 0,4 -4,0 c -1.108,0 -2,0.892 -2,2 0,1.108 0.892,2 2,2 l 4,0 0,4 c 0,1.108 0.892,2 2,2 1.108,0 2,-0.892 2,-2 l 0,-4 4,0 c 1.108,0 2,-0.892 2,-2 0,-1.108 -0.892,-2 -2,-2 l -4,0 0,-4 c 0,-1.108 -0.892,-2 -2,-2 z m 0,1 c 0.554,0 1,0.446 1,1 l 0,5 5,0 c 0.554,0 1,0.446 1,1 0,0.554 -0.446,1 -1,1 l -5,0 0,5 c 0,0.554 -0.446,1 -1,1 -0.554,0 -1,-0.446 -1,-1 l 0,-5 -5,0 c -0.554,0 -1,-0.446 -1,-1 0,-0.554 0.446,-1 1,-1 l 5,0 0,-5 c 0,-0.554 0.446,-1 1,-1 z"
       id="rect4697-5-9"
       inkscape:connector-curvature="0"
       clip-path="url(#clipPath3913)" />
    <path
       style="opacity:0.1;fill:#ffffff;fill-opacity:1;stroke:none"
       d="m 21,37.531001 c -0.04098,0.159999 -0.0625,0.326875 -0.0625,0.5 0,1.108 0.892,2 2,2 l 4,0 0,-1 -4,0 c -0.934875,0 -1.71623,-0.636003 -1.9375,-1.5 z m 15.875,0 c -0.22127,0.863997 -1.002625,1.5 -1.9375,1.5 l -4,0 0,1 4,0 c 1.108,0 2,-0.892 2,-2 0,-0.173125 -0.02152,-0.340001 -0.0625,-0.5 z m -9.9375,5.5 0,1 c 0,1.108 0.892,2 2,2 1.108,0 2,-0.892 2,-2 l 0,-1 c 0,1.108 -0.892,2 -2,2 -1.108,0 -2,-0.892 -2,-2 z"
       id="rect4697-55-8"
       inkscape:connector-curvature="0"
       clip-path="url(#clipPath3909)" />
  </g>
</svg>
