<?xml version="1.0" encoding="UTF-8" standalone="no"?>
<!-- Created with Inkscape (http://www.inkscape.org/) -->

<svg
   xmlns:dc="http://purl.org/dc/elements/1.1/"
   xmlns:cc="http://creativecommons.org/ns#"
   xmlns:rdf="http://www.w3.org/1999/02/22-rdf-syntax-ns#"
   xmlns:svg="http://www.w3.org/2000/svg"
   xmlns="http://www.w3.org/2000/svg"
   xmlns:xlink="http://www.w3.org/1999/xlink"
   xmlns:sodipodi="http://sodipodi.sourceforge.net/DTD/sodipodi-0.dtd"
   xmlns:inkscape="http://www.inkscape.org/namespaces/inkscape"
   width="37"
   height="52"
   id="svg3832"
   version="1.1"
   inkscape:version="0.48.3.1 r9886"
   sodipodi:docname="workspace-add.svg">
  <defs
     id="defs3834">
    <linearGradient
       id="linearGradient4894">
      <stop
         style="stop-color:#000000;stop-opacity:0.2"
         offset="0"
         id="stop4896" />
      <stop
         id="stop4902"
         offset="0.87499988"
         style="stop-color:#000000;stop-opacity:0.2" />
      <stop
         style="stop-color:#000000;stop-opacity:0;"
         offset="1"
         id="stop4898" />
    </linearGradient>
    <clipPath
       clipPathUnits="userSpaceOnUse"
       id="clipPath3838-3">
      <rect
         style="opacity:0.2;fill:#000000;fill-opacity:1;stroke:none"
         id="rect3840-5"
         width="35"
         height="50"
         x="9.9375"
         y="13.031001" />
    </clipPath>
    <linearGradient
       inkscape:collect="always"
       xlink:href="#linearGradient3818-7"
       id="linearGradient3881-8"
       x1="29.9375"
       y1="62.031002"
       x2="29.9375"
       y2="14.031001"
       gradientUnits="userSpaceOnUse" />
    <clipPath
       clipPathUnits="userSpaceOnUse"
       id="clipPath3834-7">
      <rect
         style="opacity:0.2;fill:#000000;fill-opacity:1;stroke:none"
         id="rect3836-6"
         width="35"
         height="50"
         x="9.9375"
         y="13.031001" />
    </clipPath>
    <linearGradient
       inkscape:collect="always"
       xlink:href="#linearGradient4250-5-1"
       id="linearGradient3938-0"
       x1="-12"
       y1="-51"
       x2="-12"
       y2="-99"
       gradientUnits="userSpaceOnUse" />
    <linearGradient
       id="linearGradient4250-5-1">
      <stop
         id="stop4252-5-6"
         offset="0"
         style="stop-color:#ffffff;stop-opacity:0;" />
      <stop
         id="stop4254-2-6"
         offset="1"
         style="stop-color:#ffffff;stop-opacity:0.2" />
    </linearGradient>
    <clipPath
       clipPathUnits="userSpaceOnUse"
       id="clipPath4011-0">
      <rect
         style="fill:#d76400;fill-opacity:1;stroke:#000000;stroke-width:0;stroke-miterlimit:4;stroke-opacity:1;stroke-dasharray:none"
         id="rect4013-9"
         width="34"
         height="48"
         x="-30"
         y="-99" />
    </clipPath>
    <linearGradient
       id="linearGradient4509-61">
      <stop
         style="stop-color:#000000;stop-opacity:0.6"
         offset="0"
         id="stop4511-7" />
      <stop
         id="stop4513-2"
         offset="1"
         style="stop-color:#000000;stop-opacity:0.251" />
    </linearGradient>
    <linearGradient
       inkscape:collect="always"
       xlink:href="#linearGradient4509-61"
       id="linearGradient4724"
       x1="1.9375"
       y1="37.031002"
       x2="17.9375"
       y2="37.031002"
       gradientUnits="userSpaceOnUse"
       gradientTransform="matrix(0,1,-1,0,65.968501,27.093501)" />
    <linearGradient
       inkscape:collect="always"
       xlink:href="#linearGradient4894"
       id="linearGradient4900"
       x1="27.9375"
       y1="30.031"
       x2="27.9375"
       y2="38.031002"
       gradientUnits="userSpaceOnUse"
       gradientTransform="translate(1,-1.0000001)" />
    <linearGradient
       id="linearGradient3818-7">
      <stop
         style="stop-color:#51bbe9;stop-opacity:1;"
         offset="0"
         id="stop3820-2" />
      <stop
         style="stop-color:#1b62ad;stop-opacity:1;"
         offset="1"
         id="stop3822-1" />
    </linearGradient>
  </defs>
  <sodipodi:namedview
     id="base"
     pagecolor="#000000"
     bordercolor="#666666"
     borderopacity="1.0"
     inkscape:pageopacity="0.78431373"
     inkscape:pageshadow="2"
     inkscape:zoom="1"
     inkscape:cx="-13.887806"
     inkscape:cy="22.097248"
     inkscape:current-layer="layer1"
     showgrid="false"
     inkscape:grid-bbox="true"
     inkscape:document-units="px"
     fit-margin-top="0"
     fit-margin-left="0"
     fit-margin-right="0"
     fit-margin-bottom="0"
     inkscape:window-width="1366"
     inkscape:window-height="715"
     inkscape:window-x="0"
     inkscape:window-y="26"
     inkscape:window-maximized="1"
     showborder="false"
     inkscape:showpageshadow="false">
    <inkscape:grid
       type="xygrid"
       id="grid3761"
       empspacing="5"
       visible="true"
       enabled="true"
       snapvisiblegridlinesonly="true"
       originx="0px"
       originy="0px" />
  </sodipodi:namedview>
  <metadata
     id="metadata3837">
    <rdf:RDF>
      <cc:Work
         rdf:about="">
        <dc:format>image/svg+xml</dc:format>
        <dc:type
           rdf:resource="http://purl.org/dc/dcmitype/StillImage" />
        <dc:title />
      </cc:Work>
    </rdf:RDF>
  </metadata>
  <g
     id="layer1"
     inkscape:label="Layer 1"
     inkscape:groupmode="layer"
     transform="translate(-9.9375,-11.031001)">
    <rect
       style="opacity:0.2;fill:#000000;fill-opacity:1;stroke:none"
       id="rect3044"
       width="39"
       height="50"
       x="9.9375"
       y="13.031001"
       rx="4"
       ry="4"
       clip-path="url(#clipPath3838-3)"
       transform="translate(1,-1.0000001)" />
    <rect
       style="fill:url(#linearGradient3881-8);fill-opacity:1.0;stroke:none"
       id="rect3044-8"
       width="39"
       height="48"
       x="10.9375"
       y="14.031001"
       rx="3"
       ry="3"
       clip-path="url(#clipPath3834-7)"
       transform="matrix(1,0,0,-1,1,75.062002)" />
    <path
       transform="translate(41.9375,112.031)"
       inkscape:connector-curvature="0"
       style="fill:url(#linearGradient3938-0);fill-opacity:1;stroke:#000000;stroke-width:0;stroke-miterlimit:4;stroke-opacity:1;stroke-dasharray:none"
       clip-path="url(#clipPath4011-0)"
       d="m -27,-99 c -1.662,0 -3,1.338 -3,3 l 0,42 c 0,1.662 1.338,3 3,3 l 33,0 c 1.662,0 3,-1.338 3,-3 l 0,-42 c 0,-1.662 -1.338,-3 -3,-3 l -33,0 z m 0,1 30,0 0,46 -30,0 c -1.108,0 -2,-0.892 -2,-2 l 0,-42 c 0,-1.108 0.892,-2 2,-2 z m 31,0 2,0 c 1.108,0 2,0.892 2,2 l 0,42 c 0,1.108 -0.892,2 -2,2 l -2,0 0,-46 z"
       id="rect3988" />
    <path
       style="fill:url(#linearGradient4724);fill-opacity:1;stroke:none"
       d="m 36.9375,37.031001 c 0,-1.108 -0.892,-2 -2,-2 l -4,0 0,-4 c 0,-1.108 -0.892,-2 -2,-2 -1.108,0 -2,0.892 -2,2 l 0,4 -4,0 c -1.108,0 -2,0.892 -2,2 0,1.108 0.892,2 2,2 l 4,0 0,4 c 0,1.108 0.892,2 2,2 1.108,0 2,-0.892 2,-2 l 0,-4 4,0 c 1.108,0 2,-0.892 2,-2 z"
       id="rect4697"
       inkscape:connector-curvature="0" />
    <path
       style="fill:url(#linearGradient4900);fill-opacity:1;stroke:none"
       d="m 28.9375,29.031001 c -1.108,0 -2,0.892 -2,2 l 0,4 -4,0 c -1.108,0 -2,0.892 -2,2 0,1.108 0.892,2 2,2 l 4,0 0,4 c 0,1.108 0.892,2 2,2 1.108,0 2,-0.892 2,-2 l 0,-4 4,0 c 1.108,0 2,-0.892 2,-2 0,-1.108 -0.892,-2 -2,-2 l -4,0 0,-4 c 0,-1.108 -0.892,-2 -2,-2 z m 0,1 c 0.554,0 1,0.446 1,1 l 0,5 5,0 c 0.554,0 1,0.446 1,1 0,0.554 -0.446,1 -1,1 l -5,0 0,5 c 0,0.554 -0.446,1 -1,1 -0.554,0 -1,-0.446 -1,-1 l 0,-5 -5,0 c -0.554,0 -1,-0.446 -1,-1 0,-0.554 0.446,-1 1,-1 l 5,0 0,-5 c 0,-0.554 0.446,-1 1,-1 z"
       id="rect4697-5"
       inkscape:connector-curvature="0" />
    <path
       style="opacity:0.1;fill:#ffffff;fill-opacity:1;stroke:none"
       d="m 21,37.531001 c -0.04098,0.159999 -0.0625,0.326875 -0.0625,0.5 0,1.108 0.892,2 2,2 l 4,0 0,-1 -4,0 c -0.934875,0 -1.71623,-0.636003 -1.9375,-1.5 z m 15.875,0 c -0.22127,0.863997 -1.002625,1.5 -1.9375,1.5 l -4,0 0,1 4,0 c 1.108,0 2,-0.892 2,-2 0,-0.173125 -0.02152,-0.340001 -0.0625,-0.5 z m -9.9375,5.5 0,1 c 0,1.108 0.892,2 2,2 1.108,0 2,-0.892 2,-2 l 0,-1 c 0,1.108 -0.892,2 -2,2 -1.108,0 -2,-0.892 -2,-2 z"
       id="rect4697-55"
       inkscape:connector-curvature="0" />
  </g>
</svg>
