/* XPM */
static char *dummy[]={
"20 24 6 1",
"b c #1e1e1e",
". c #252525",
"d c #2c2c2c",
"a c #383838",
"c c #393939",
"# c #404040",
"....................",
"####################",
"aaaaaaaaaaaaaaaaaaaa",
"aaaaaaaaaaaaaaaaaaaa",
"aaaaaaaaaaaaaaaaaaaa",
"aaaaaaaaaaaaaaaaaaaa",
"aaaaaaaaaaaaaaaaaaaa",
"aaaaaaaaaaaaaaaaaaaa",
"aaaaaaaaaaaaaaaaaaaa",
"aaaaaabbaaaabbaaaaaa",
"aaaaaa..baab..aaaaaa",
"aaaaaac..bb..caaaaaa",
"aaaaaaac....caaaaaaa",
"aaaaaaaad..daaaaaaaa",
"aaaaaaab....baaaaaaa",
"aaaaaab..cc..baaaaaa",
"aaaaaa..caac..aaaaaa",
"aaaaaaccaaaaccaaaaaa",
"aaaaaaaaaaaaaaaaaaaa",
"aaaaaaaaaaaaaaaaaaaa",
"aaaaaaaaaaaaaaaaaaaa",
"aaaaaaaaaaaaaaaaaaaa",
"aaaaaaaaaaaaaaaaaaaa",
"aaaaaaaaaaaaaaaaaaaa"};
