/* XPM */
static char *dummy[]={
"20 24 16 1",
"c c #171717",
"f c #1c1c1c",
"i c #1f1f1f",
"h c #212121",
"k c #222222",
"b c #232323",
"d c #242424",
". c #252525",
"m c #2f2f2f",
"j c #353535",
"n c #363636",
"a c #383838",
"l c #393939",
"e c #3a3a3a",
"g c #3b3b3b",
"# c #404040",
"....................",
"####################",
"aaaaaaaaaaaaaaaaaaaa",
"aaaaaaaaaaaaaaaaaaaa",
"aaaaaaaaaaaaaaaaaaaa",
"aaaaaaaaaaaaaaaaaaaa",
"aaaaaaaaaaaaaaaaaaaa",
"aaaaaaaaaaaaaaaaaaaa",
"aaaaaaaaaaaaaaaaaaaa",
"aaaaaaaaaaaaaaaaaaaa",
"aaaaaaaaaaaaaaaaaaaa",
"aaaaaabccccccdaaaaaa",
"aaaaaaebffff.gaaaaaa",
"aaaaaaaahiideaaaaaaa",
"aaaaaaaajkdaaaaaaaaa",
"aaaaaaaalmnaaaaaaaaa",
"aaaaaaaaaglaaaaaaaaa",
"aaaaaaaaaaaaaaaaaaaa",
"aaaaaaaaaaaaaaaaaaaa",
"aaaaaaaaaaaaaaaaaaaa",
"aaaaaaaaaaaaaaaaaaaa",
"aaaaaaaaaaaaaaaaaaaa",
"aaaaaaaaaaaaaaaaaaaa",
"aaaaaaaaaaaaaaaaaaaa"};
