/* XPM */
static char *dummy[]={
"20 24 10 1",
". c #232323",
"d c #2d2d2d",
"c c #313131",
"f c #323232",
"b c #333333",
"h c #373737",
"a c #383838",
"e c #393939",
"g c #3a3a3a",
"# c #404040",
"....................",
"####################",
"aaaaaaaaaaaaaaaaaaaa",
"aaaaaaaaaaaaaaaaaaaa",
"aaaaaaaaaaaaaaaaaaaa",
"aaaaaaaaaaaaaaaaaaaa",
"aaaaaaaaaaaaaaaaaaaa",
"aaaaaaaaaaaaaaaaaaaa",
"aaaaaaaaaaaaaaaaaaaa",
"aaaaaaaaabbaaaaaaaaa",
"aaaaaaaaaccaaaaaaaaa",
"aaaaaaaaaccaaaaaaaaa",
"aaaaaaaaaccaaaaaaaaa",
"aaaaaacdccccdcaaaaaa",
"aaaaaaebccccbeaaaaaa",
"aaaaaaaefccbgaaaaaaa",
"aaaaaaaaabbeaaaaaaaa",
"aaaaaaaaahaaaaaaaaaa",
"aaaaaaaaaaaaaaaaaaaa",
"aaaaaaaaaaaaaaaaaaaa",
"aaaaaaaaaaaaaaaaaaaa",
"aaaaaaaaaaaaaaaaaaaa",
"aaaaaaaaaaaaaaaaaaaa",
"aaaaaaaaaaaaaaaaaaaa"};
