/* XPM */
static char *dummy[]={
"20 24 16 1",
"d c #0d0d0d",
"f c #111111",
"j c #131313",
"i c #161616",
"c c #171717",
"k c #181818",
"b c #191919",
"g c #1a1a1a",
". c #232323",
"m c #2f2f2f",
"l c #353535",
"n c #363636",
"a c #383838",
"e c #3a3a3a",
"h c #3b3b3b",
"# c #404040",
"....................",
"####################",
"aaaaaaaaaaaaaaaaaaaa",
"aaaaaaaaaaaaaaaaaaaa",
"aaaaaaaaaaaaaaaaaaaa",
"aaaaaaaaaaaaaaaaaaaa",
"aaaaaaaaaaaaaaaaaaaa",
"aaaaaaaaaaaaaaaaaaaa",
"aaaaaaaaaaaaaaaaaaaa",
"aaaaaaaaabbaaaaaaaaa",
"aaaaaaaaabbaaaaaaaaa",
"aaaaaaaaabbaaaaaaaaa",
"aaaaaaaaabbaaaaaaaaa",
"aaaaaacdbbbbdbaaaaaa",
"aaaaaaecfbbfghaaaaaa",
"aaaaaaaaijjkeaaaaaaa",
"aaaaaaaalikaaaaaaaaa",
"aaaaaaaaamnaaaaaaaaa",
"aaaaaaaaaaaaaaaaaaaa",
"aaaaaaaaaaaaaaaaaaaa",
"aaaaaaaaaaaaaaaaaaaa",
"aaaaaaaaaaaaaaaaaaaa",
"aaaaaaaaaaaaaaaaaaaa",
"aaaaaaaaaaaaaaaaaaaa"};
