/* XPM */
static char *dummy[]={
"20 24 11 1",
"h c #171717",
"f c #1c1c1c",
"e c #1f1f1f",
"d c #212121",
"b c #222222",
". c #232323",
"c c #242424",
"g c #252525",
"a c #383838",
"i c #3a3a3a",
"# c #404040",
"....................",
"####################",
"aaaaaaaaaaaaaaaaaaaa",
"aaaaaaaaaaaaaaaaaaaa",
"aaaaaaaaaaaaaaaaaaaa",
"aaaaaaaaaaaaaaaaaaaa",
"aaaaaaaaaaaaaaaaaaaa",
"aaaaaaaaaaaaaaaaaaaa",
"aaaaaaaaaaaaaaaaaaaa",
"aaaaaaaaabcaaaaaaaaa",
"aaaaaaaadeecaaaaaaaa",
"aaaaaaa.f.gfgaaaaaaa",
"aaaaaa.h...chcaaaaaa",
"aaaaaaiii..iiiaaaaaa",
"aaaaaaaaa..aaaaaaaaa",
"aaaaaaaaa..aaaaaaaaa",
"aaaaaaaaa..aaaaaaaaa",
"aaaaaaaaaiiaaaaaaaaa",
"aaaaaaaaaaaaaaaaaaaa",
"aaaaaaaaaaaaaaaaaaaa",
"aaaaaaaaaaaaaaaaaaaa",
"aaaaaaaaaaaaaaaaaaaa",
"aaaaaaaaaaaaaaaaaaaa",
"aaaaaaaaaaaaaaaaaaaa"};
