/* XPM */
static char *dummy[]={
"20 24 15 1",
"d c #171717",
"f c #1c1c1c",
"c c #1f1f1f",
"i c #212121",
"k c #222222",
". c #232323",
"b c #242424",
"g c #252525",
"l c #2f2f2f",
"j c #353535",
"m c #363636",
"a c #383838",
"e c #3a3a3a",
"h c #3b3b3b",
"# c #404040",
"....................",
"####################",
"aaaaaaaaaaaaaaaaaaaa",
"aaaaaaaaaaaaaaaaaaaa",
"aaaaaaaaaaaaaaaaaaaa",
"aaaaaaaaaaaaaaaaaaaa",
"aaaaaaaaaaaaaaaaaaaa",
"aaaaaaaaaaaaaaaaaaaa",
"aaaaaaaaaaaaaaaaaaaa",
"aaaaaaaaabbaaaaaaaaa",
"aaaaaaaaaccaaaaaaaaa",
"aaaaaaaaaccaaaaaaaaa",
"aaaaaaaaaccaaaaaaaaa",
"aaaaaa.dbccbdbaaaaaa",
"aaaaaae.fccfghaaaaaa",
"aaaaaaaaiccbeaaaaaaa",
"aaaaaaaajkbaaaaaaaaa",
"aaaaaaaaalmaaaaaaaaa",
"aaaaaaaaaaaaaaaaaaaa",
"aaaaaaaaaaaaaaaaaaaa",
"aaaaaaaaaaaaaaaaaaaa",
"aaaaaaaaaaaaaaaaaaaa",
"aaaaaaaaaaaaaaaaaaaa",
"aaaaaaaaaaaaaaaaaaaa"};
