/* XPM */
static char *dummy[]={
"20 24 13 1",
". c #232323",
"b c #2e2e2e",
"d c #2e2f2e",
"c c #2e2f2f",
"e c #2f2f30",
"f c #30302f",
"h c #303030",
"i c #313131",
"j c #323232",
"k c #333333",
"a c #383838",
"g c #3b3b3b",
"# c #404040",
"....................",
"####################",
"aaaaaaaaaaaaaaaaaaaa",
"aaaaaaaaaaaaaaaaaaaa",
"aaaaaaaaaaaaaaaaaaaa",
"aaaaaaaaaaaaaaaaaaaa",
"aaaaaaaaaaaaaaaaaaaa",
"aaaaaaaaaaaaaaaaaaaa",
"aaaaaaaaaaaabaaaaaaa",
"aaaaaaaabbaabbaaaaaa",
"aaaaaaacdbaddddaaaaa",
"aaaaaaefggaffggaaaaa",
"aaaaaahhaahggaaaaaaa",
"aaaaaaiiaagaiiaaaaaa",
"aaaaaajjaaaajjaaaaaa",
"aaaaaagkkkkkkgaaaaaa",
"aaaaaaagkkkkgaaaaaaa",
"aaaaaaaaggggaaaaaaaa",
"aaaaaaaaaaaaaaaaaaaa",
"aaaaaaaaaaaaaaaaaaaa",
"aaaaaaaaaaaaaaaaaaaa",
"aaaaaaaaaaaaaaaaaaaa",
"aaaaaaaaaaaaaaaaaaaa",
"aaaaaaaaaaaaaaaaaaaa"};
