<?xml version="1.0" encoding="UTF-8" standalone="no"?>
<!-- Generator: Adobe Illustrator 13.0.2, SVG Export Plug-In . SVG Version: 6.00 Build 14948)  -->

<svg
   version="1.0"
   id="Foreground"
   x="0px"
   y="0px"
   width="26"
   height="26"
   viewBox="0 0 18.909091 18.909091"
   enable-background="new 0 0 16 16"
   xml:space="preserve"
   sodipodi:version="0.32"
   inkscape:version="1.4 (e7c3feb100, 2024-10-09)"
   sodipodi:docname="close.svg"
   inkscape:output_extension="org.inkscape.output.svg.inkscape"
   xmlns:inkscape="http://www.inkscape.org/namespaces/inkscape"
   xmlns:sodipodi="http://sodipodi.sourceforge.net/DTD/sodipodi-0.dtd"
   xmlns="http://www.w3.org/2000/svg"
   xmlns:svg="http://www.w3.org/2000/svg"
   xmlns:rdf="http://www.w3.org/1999/02/22-rdf-syntax-ns#"
   xmlns:cc="http://creativecommons.org/ns#"
   xmlns:dc="http://purl.org/dc/elements/1.1/"><metadata
     id="metadata2399"><rdf:RDF><cc:Work
         rdf:about=""><dc:format>image/svg+xml</dc:format><dc:type
           rdf:resource="http://purl.org/dc/dcmitype/StillImage" /></cc:Work></rdf:RDF></metadata><defs
     id="defs2397" /><sodipodi:namedview
     inkscape:window-height="1040"
     inkscape:window-width="1920"
     inkscape:pageshadow="2"
     inkscape:pageopacity="0"
     guidetolerance="10.0"
     gridtolerance="10.0"
     objecttolerance="10.0"
     borderopacity="1.0"
     bordercolor="#666666"
     pagecolor="#3e3e3e"
     id="base"
     showgrid="false"
     inkscape:zoom="11.313708"
     inkscape:cx="6.8059031"
     inkscape:cy="7.3804274"
     inkscape:window-x="0"
     inkscape:window-y="40"
     inkscape:current-layer="Foreground"
     showguides="true"
     inkscape:guide-bbox="true"
     borderlayer="true"
     inkscape:showpageshadow="false"
     inkscape:window-maximized="1"
     fit-margin-top="0"
     fit-margin-left="0"
     fit-margin-right="0"
     fit-margin-bottom="0"
     inkscape:snap-bbox="true"
     inkscape:bbox-paths="true"
     inkscape:bbox-nodes="true"
     inkscape:snap-bbox-edge-midpoints="true"
     inkscape:pagecheckerboard="1"
     inkscape:deskcolor="#505050"><inkscape:grid
       type="xygrid"
       id="grid11246"
       empspacing="5"
       visible="true"
       enabled="true"
       snapvisiblegridlinesonly="true"
       originx="-3.6363603"
       originy="-2.9090857"
       spacingy="1"
       spacingx="1"
       units="px" /></sodipodi:namedview><circle
     style="opacity:0.1;fill:#000000;fill-opacity:1;stroke:#f70505;stroke-width:0;stroke-linejoin:round;stroke-miterlimit:4;stroke-dasharray:none;stroke-dashoffset:0;stroke-opacity:1"
     id="path3808-4"
     cx="9.4545488"
     cy="10.181814"
     r="8" /><path
     id="path3808"
     style="opacity:1;fill:#f75a61;fill-opacity:1;stroke:#f70505;stroke-width:0;stroke-linejoin:round;stroke-miterlimit:4;stroke-dasharray:none;stroke-dashoffset:0;stroke-opacity:1"
     d="M 9.4545455 1.4545455 A 8 8 0 0 0 1.4545455 9.4545455 A 8 8 0 0 0 9.4545455 17.454546 A 8 8 0 0 0 17.454546 9.4545455 A 8 8 0 0 0 9.4545455 1.4545455 z M 6.5511364 6.5724432 L 7.2784091 6.5724432 C 7.2859509 6.5723559 7.2935291 6.5721087 7.3011364 6.5724432 C 7.4865553 6.5805887 7.6719509 6.6659559 7.8011364 6.7997159 L 9.4602273 8.4588069 L 11.142046 6.7997159 C 11.335227 6.6320796 11.466898 6.5775341 11.642046 6.5724432 L 12.369318 6.5724432 L 12.369318 7.2997159 C 12.369318 7.5080578 12.344344 7.7001887 12.1875 7.8451705 L 10.528409 9.5042614 L 12.164773 11.140625 C 12.301637 11.277476 12.369312 11.470407 12.369318 11.663352 L 12.369318 12.390625 L 11.642046 12.390625 C 11.449099 12.390618 11.256165 12.322916 11.119318 12.18608 L 9.4602273 10.526989 L 7.8011364 12.18608 C 7.6642899 12.322945 7.4713473 12.390625 7.2784091 12.390625 L 6.5511364 12.390625 L 6.5511364 11.663352 C 6.5511342 11.470414 6.6188164 11.277476 6.7556819 11.140625 L 8.4147728 9.5042614 L 6.7556819 7.8451705 C 6.6024149 7.7036214 6.5352018 7.5038978 6.5511364 7.2997159 L 6.5511364 6.5724432 z " /></svg>
