<?xml version="1.0" encoding="UTF-8" standalone="no"?>
<!-- Created with Inkscape (http://www.inkscape.org/) -->

<svg
   xmlns:dc="http://purl.org/dc/elements/1.1/"
   xmlns:cc="http://creativecommons.org/ns#"
   xmlns:rdf="http://www.w3.org/1999/02/22-rdf-syntax-ns#"
   xmlns:svg="http://www.w3.org/2000/svg"
   xmlns="http://www.w3.org/2000/svg"
   xmlns:xlink="http://www.w3.org/1999/xlink"
   xmlns:sodipodi="http://sodipodi.sourceforge.net/DTD/sodipodi-0.dtd"
   xmlns:inkscape="http://www.inkscape.org/namespaces/inkscape"
   inkscape:export-ydpi="90.000000"
   inkscape:export-xdpi="90.000000"
   width="24"
   height="24"
   id="svg11300"
   sodipodi:version="0.32"
   inkscape:version="0.91 r"
   sodipodi:docname="dark-bg-marked-blue.svg"
   inkscape:output_extension="org.inkscape.output.svg.inkscape"
   version="1.0"
   style="display:inline;enable-background:new">
  <sodipodi:namedview
     stroke="#ef2929"
     fill="#f57900"
     id="base"
     pagecolor="#8c8c8c"
     bordercolor="#ff5e00"
     borderopacity="1"
     inkscape:pageopacity="1"
     inkscape:pageshadow="2"
     inkscape:zoom="20.594485"
     inkscape:cx="4.6096633"
     inkscape:cy="11.711076"
     inkscape:current-layer="layer1"
     showgrid="true"
     inkscape:grid-bbox="true"
     inkscape:document-units="px"
     inkscape:showpageshadow="false"
     inkscape:window-width="1600"
     inkscape:window-height="849"
     inkscape:window-x="0"
     inkscape:window-y="25"
     width="400px"
     height="300px"
     inkscape:snap-nodes="true"
     inkscape:snap-bbox="true"
     gridtolerance="10000"
     inkscape:object-nodes="false"
     inkscape:snap-grids="true"
     showguides="true"
     inkscape:guide-bbox="true"
     inkscape:window-maximized="1"
     inkscape:bbox-nodes="true"
     inkscape:bbox-paths="false"
     inkscape:snap-bbox-edge-midpoints="false"
     inkscape:snap-bbox-midpoints="false"
     objecttolerance="10000"
     guidetolerance="10000"
     borderlayer="true"
     showborder="true"
     guidecolor="#ff0b00"
     guideopacity="1"
     guidehicolor="#001aff"
     guidehiopacity="0.49803922">
    <inkscape:grid
       type="xygrid"
       id="grid3123"
       empspacing="4"
       visible="true"
       enabled="true"
       snapvisiblegridlinesonly="true" />
  </sodipodi:namedview>
  <defs
     id="defs3">
    <linearGradient
       id="linearGradient3955">
      <stop
         style="stop-color:#ffffff;stop-opacity:0;"
         offset="0"
         id="stop3957" />
      <stop
         style="stop-color:#ffffff;stop-opacity:1;"
         offset="1"
         id="stop3959" />
    </linearGradient>
    <linearGradient
       id="linearGradient3773">
      <stop
         id="stop3775"
         offset="0"
         style="stop-color:#7ec83c;stop-opacity:1;" />
      <stop
         id="stop3777"
         offset="1"
         style="stop-color:#93d15b;stop-opacity:1;" />
    </linearGradient>
    <linearGradient
       y2="0"
       x2="25"
       y1="23"
       x1="25"
       gradientTransform="matrix(0.91304348,0,0,0.91304348,-22.956522,277)"
       gradientUnits="userSpaceOnUse"
       id="linearGradient3948"
       xlink:href="#linearGradient3773"
       inkscape:collect="always" />
    <linearGradient
       y2="0"
       x2="25"
       y1="23"
       x1="25"
       gradientTransform="matrix(-1,0,0,1,24,0)"
       gradientUnits="userSpaceOnUse"
       id="linearGradient3950"
       xlink:href="#linearGradient3773"
       inkscape:collect="always" />
  </defs>
  <metadata
     id="metadata4">
    <rdf:RDF>
      <cc:Work
         rdf:about="">
        <dc:format>image/svg+xml</dc:format>
        <dc:type
           rdf:resource="http://purl.org/dc/dcmitype/StillImage" />
        <dc:creator>
          <cc:Agent>
            <dc:title />
          </cc:Agent>
        </dc:creator>
        <dc:source />
        <cc:license
           rdf:resource="" />
        <dc:title></dc:title>
        <dc:subject>
          <rdf:Bag />
        </dc:subject>
        <dc:date />
        <dc:rights>
          <cc:Agent>
            <dc:title />
          </cc:Agent>
        </dc:rights>
        <dc:publisher>
          <cc:Agent>
            <dc:title />
          </cc:Agent>
        </dc:publisher>
        <dc:identifier />
        <dc:relation />
        <dc:language />
        <dc:coverage />
        <dc:description />
        <dc:contributor>
          <cc:Agent>
            <dc:title />
          </cc:Agent>
        </dc:contributor>
      </cc:Work>
      <cc:Work
         rdf:about="">
        <dc:format>image/svg+xml</dc:format>
        <dc:type
           rdf:resource="http://purl.org/dc/dcmitype/StillImage" />
      </cc:Work>
    </rdf:RDF>
  </metadata>
  <g
     style="display:inline"
     inkscape:groupmode="layer"
     inkscape:label="Base"
     id="layer1"
     transform="translate(0,-276)">
    <rect
       style="opacity:0.9;fill:#000000;fill-opacity:1;stroke:none"
       id="rect3003"
       width="20"
       height="20"
       x="2"
       y="278"
       ry="3"
       rx="3" />
    <path
       style="opacity:0.9;fill:#56a6de;fill-opacity:1;stroke:none"
       d="M 3 1.5488281 C 1.8060835 2.238072 1 3.5165874 1 5 L 1 19 C 1 20.48199 1.8072285 21.753438 3 22.441406 L 3 1.5488281 z "
       transform="translate(0,276)"
       id="rect2995" />
    <path
       style="opacity:0.07;fill:#ffffff;fill-opacity:1;stroke:none"
       d="M 5 1 C 2.784 1 1 2.784 1 5 L 1 19 C 1 21.216 2.784 23 5 23 L 19 23 C 21.216 23 23 21.216 23 19 L 23 5 C 23 2.784 21.216 1 19 1 L 5 1 z M 5 2 L 19 2 C 20.662 2 22 3.338 22 5 L 22 19 C 22 20.662 20.662 22 19 22 L 5 22 C 3.338 22 2 20.662 2 19 L 2 5 C 2 3.338 3.338 2 5 2 z "
       transform="translate(0,276)"
       id="rect6887" />
    <path
       style="opacity:0.07;fill:#ffffff;fill-opacity:1;stroke:none"
       d="M 3 1.5507812 C 2.9471351 1.5775944 2.8933671 1.6030055 2.84375 1.6347656 C 2.7356704 1.7037558 2.6377195 1.7864848 2.5371094 1.8652344 C 2.4455981 1.9371292 2.354319 2.0084082 2.2695312 2.0878906 C 2.1869805 2.1649926 2.1108904 2.2482211 2.0351562 2.3320312 C 1.9502619 2.4263899 1.8686495 2.5227904 1.7929688 2.625 C 1.7247619 2.7167523 1.6598614 2.8105841 1.5996094 2.9082031 C 1.5328477 3.0168418 1.4743069 3.1308437 1.4179688 3.2460938 C 1.3694367 3.3450193 1.3196751 3.4434871 1.2792969 3.546875 C 1.225114 3.6862056 1.1850422 3.8320098 1.1464844 3.9785156 C 1.1226678 4.0687674 1.0917798 4.1553542 1.0742188 4.2480469 C 1.0281322 4.4918375 1 4.7424118 1 5 L 1 19 C 1 19.253613 1.029512 19.499965 1.0742188 19.740234 C 1.0928359 19.839553 1.1226248 19.934765 1.1484375 20.03125 C 1.1848991 20.168395 1.2232479 20.304694 1.2734375 20.435547 C 1.314915 20.542892 1.3637789 20.645512 1.4140625 20.748047 C 1.4661202 20.85502 1.5229342 20.959228 1.5839844 21.060547 C 1.6499707 21.169081 1.7191383 21.275607 1.7949219 21.376953 C 1.8535282 21.455989 1.9182594 21.529139 1.9824219 21.603516 C 2.0753273 21.710281 2.1677848 21.817743 2.2714844 21.914062 C 2.3134188 21.953319 2.3606902 21.986004 2.4042969 22.023438 C 2.5872435 22.179241 2.791742 22.307327 3 22.429688 L 3 21.21875 C 2.3892726 20.673468 2 19.887935 2 19 L 2 5 C 2 4.1120653 2.3892726 3.3265322 3 2.78125 L 3 1.5507812 z "
       transform="translate(0,276)"
       id="path4192" />
  </g>
</svg>
