<?xml version="1.0" encoding="UTF-8" standalone="no"?>
<!-- Created with Inkscape (http://www.inkscape.org/) -->

<svg
   xmlns:dc="http://purl.org/dc/elements/1.1/"
   xmlns:cc="http://creativecommons.org/ns#"
   xmlns:rdf="http://www.w3.org/1999/02/22-rdf-syntax-ns#"
   xmlns:svg="http://www.w3.org/2000/svg"
   xmlns="http://www.w3.org/2000/svg"
   xmlns:xlink="http://www.w3.org/1999/xlink"
   xmlns:sodipodi="http://sodipodi.sourceforge.net/DTD/sodipodi-0.dtd"
   xmlns:inkscape="http://www.inkscape.org/namespaces/inkscape"
   width="22"
   height="22"
   id="svg2985"
   version="1.1"
   inkscape:version="0.48.3.1 r9886"
   sodipodi:docname="radiobutton-focused.svg">
  <defs
     id="defs2987">
    <linearGradient
       id="linearGradient3832">
      <stop
         style="stop-color:#303030;stop-opacity:0"
         offset="0"
         id="stop3834" />
      <stop
         style="stop-color:#303030;stop-opacity:1;"
         offset="1"
         id="stop3836" />
    </linearGradient>
    <linearGradient
       inkscape:collect="always"
       xlink:href="#linearGradient3832"
       id="linearGradient3838"
       x1="-26"
       y1="8"
       x2="-18"
       y2="8"
       gradientUnits="userSpaceOnUse"
       gradientTransform="matrix(0,1,-1,0,19,66)" />
  </defs>
  <sodipodi:namedview
     id="base"
     pagecolor="#ffffff"
     bordercolor="#666666"
     borderopacity="1.0"
     inkscape:pageopacity="0"
     inkscape:pageshadow="2"
     inkscape:zoom="1"
     inkscape:cx="-16.744677"
     inkscape:cy="14.059079"
     inkscape:current-layer="layer1"
     showgrid="false"
     inkscape:grid-bbox="true"
     inkscape:document-units="px"
     inkscape:window-width="1366"
     inkscape:window-height="715"
     inkscape:window-x="0"
     inkscape:window-y="26"
     inkscape:window-maximized="1"
     showborder="false"
     inkscape:showpageshadow="false">
    <inkscape:grid
       type="xygrid"
       id="grid3779"
       empspacing="5"
       visible="true"
       enabled="true"
       snapvisiblegridlinesonly="true" />
  </sodipodi:namedview>
  <metadata
     id="metadata2990">
    <rdf:RDF>
      <cc:Work
         rdf:about="">
        <dc:format>image/svg+xml</dc:format>
        <dc:type
           rdf:resource="http://purl.org/dc/dcmitype/StillImage" />
        <dc:title />
      </cc:Work>
    </rdf:RDF>
  </metadata>
  <g
     id="layer1"
     inkscape:label="Layer 1"
     inkscape:groupmode="layer"
     transform="translate(0,-26)">
    <path
       sodipodi:type="arc"
       style="opacity:0.4;fill:#000000;fill-opacity:1;stroke:#aaaaaa;stroke-width:0;stroke-miterlimit:4;stroke-opacity:1;stroke-dasharray:none"
       id="path3837-5-08"
       sodipodi:cx="-24"
       sodipodi:cy="3"
       sodipodi:rx="6"
       sodipodi:ry="6"
       d="m -18,3 c 0,3.3137085 -2.686292,6 -6,6 -3.313708,0 -6,-2.6862915 -6,-6 0,-3.3137085 2.686292,-6 6,-6 3.313708,0 6,2.6862915 6,6 z"
       transform="translate(35,34)" />
    <path
       style="opacity:1;fill:#000000;fill-opacity:1;stroke:none"
       d="M 11,27 C 5.477152,27 1,31.477152 1,37 1,42.522847 5.477152,47 11,47 16.522848,47 21,42.522847 21,37 21,31.477152 16.522848,27 11,27 z m 0,1 c 4.970563,0 9,4.029437 9,9 0,4.970563 -4.029437,9 -9,9 -4.970563,0 -9,-4.029437 -9,-9 0,-4.970563 4.029437,-9 9,-9 z"
       id="path3781-9-5-7"
       inkscape:connector-curvature="0" />
    <path
       sodipodi:type="arc"
       style="fill:#aaaaaa;fill-opacity:1;stroke:none"
       id="path3781-9-5-7-9"
       sodipodi:cx="1"
       sodipodi:cy="10"
       sodipodi:rx="6"
       sodipodi:ry="5"
       d="m 7,10 c 0,2.761424 -2.6862915,5 -6,5 -3.3137085,0 -6,-2.238576 -6,-5 0,-2.7614237 2.6862915,-5 6,-5 3.3137085,0 6,2.2385763 6,5 z"
       transform="matrix(0.83333333,0,0,1,10.166667,27)" />
    <path
       style="opacity:0.3;fill:#000000;fill-opacity:1;stroke:#aaaaaa;stroke-width:0;stroke-miterlimit:4;stroke-opacity:1;stroke-dasharray:none"
       d="m 11,28 c -4.970563,0 -9,4.029437 -9,9 0,4.970563 4.029437,9 9,9 4.970563,0 9,-4.029437 9,-9 0,-4.970563 -4.029437,-9 -9,-9 z m 0,1 c 4.418278,0 8,3.581722 8,8 0,4.418278 -3.581722,8 -8,8 -4.418278,0 -8,-3.581722 -8,-8 0,-4.418278 3.581722,-8 8,-8 z"
       id="path3811"
       inkscape:connector-curvature="0" />
    <path
       style="opacity:0.2;fill:#000000;fill-opacity:1;stroke:#aaaaaa;stroke-width:0;stroke-miterlimit:4;stroke-opacity:1;stroke-dasharray:none"
       d="m 11,29 c -4.418278,0 -8,3.581722 -8,8 0,4.418278 3.581722,8 8,8 4.418278,0 8,-3.581722 8,-8 0,-4.418278 -3.581722,-8 -8,-8 z m 0,1 c 3.865993,0 7,3.134007 7,7 0,3.865993 -3.134007,7 -7,7 -3.865993,0 -7,-3.134007 -7,-7 0,-3.865993 3.134007,-7 7,-7 z"
       id="path3835"
       inkscape:connector-curvature="0" />
    <path
       style="opacity:0.1;fill:#000000;fill-opacity:1;stroke:#aaaaaa;stroke-width:0;stroke-miterlimit:4;stroke-opacity:1;stroke-dasharray:none"
       d="m 11,30 c -3.865993,0 -7,3.134007 -7,7 0,3.865993 3.134007,7 7,7 3.865993,0 7,-3.134007 7,-7 0,-3.865993 -3.134007,-7 -7,-7 z m 0,1 c 3.313708,0 6,2.686291 6,6 0,3.313708 -2.686292,6 -6,6 -3.313708,0 -6,-2.686292 -6,-6 0,-3.313709 2.686292,-6 6,-6 z"
       id="path3837-5"
       inkscape:connector-curvature="0" />
    <path
       style="fill:url(#linearGradient3838);fill-opacity:1;stroke:#aaaaaa;stroke-width:0;stroke-miterlimit:4;stroke-opacity:1;stroke-dasharray:none"
       d="M 22,37 C 22,30.924868 17.075132,26 11,26 4.924868,26 0,30.924868 0,37 c 0,6.075132 4.924868,11 11,11 6.075132,0 11,-4.924868 11,-11 z m -1,0 C 21,42.522848 16.522848,47 11,47 5.477153,47 1,42.522848 1,37 1,31.477152 5.477153,27 11,27 c 5.522848,0 10,4.477152 10,10 z"
       id="path3043"
       inkscape:connector-curvature="0" />
  </g>
</svg>
