<?xml version="1.0" encoding="UTF-8" standalone="no"?>
<!-- Created with Inkscape (http://www.inkscape.org/) -->

<svg
   xmlns:dc="http://purl.org/dc/elements/1.1/"
   xmlns:cc="http://creativecommons.org/ns#"
   xmlns:rdf="http://www.w3.org/1999/02/22-rdf-syntax-ns#"
   xmlns:svg="http://www.w3.org/2000/svg"
   xmlns="http://www.w3.org/2000/svg"
   xmlns:xlink="http://www.w3.org/1999/xlink"
   xmlns:sodipodi="http://sodipodi.sourceforge.net/DTD/sodipodi-0.dtd"
   xmlns:inkscape="http://www.inkscape.org/namespaces/inkscape"
   width="26"
   height="26"
   id="svg3832"
   version="1.1"
   inkscape:version="0.48.3.1 r9886"
   sodipodi:docname="close.svg">
  <defs
     id="defs3834">
    <linearGradient
       id="linearGradient4479">
      <stop
         style="stop-color:#333333;stop-opacity:1;"
         offset="0"
         id="stop4481" />
      <stop
         style="stop-color:#333333;stop-opacity:0;"
         offset="1"
         id="stop4483" />
    </linearGradient>
    <linearGradient
       inkscape:collect="always"
       xlink:href="#linearGradient4479"
       id="linearGradient4485"
       x1="10"
       y1="20.5"
       x2="28"
       y2="20.5"
       gradientUnits="userSpaceOnUse" />
    <clipPath
       clipPathUnits="userSpaceOnUse"
       id="clipPath4547">
      <path
         sodipodi:type="arc"
         style="opacity:0.1;fill:#d40000;fill-opacity:1;stroke:#222222;stroke-width:0;stroke-miterlimit:4;stroke-opacity:1;stroke-dasharray:none"
         id="path4549"
         sodipodi:cx="-0.5"
         sodipodi:cy="23.5"
         sodipodi:rx="15.5"
         sodipodi:ry="16.5"
         d="m 15,23.5 a 15.5,16.5 0 1 1 -31,0 15.5,16.5 0 1 1 31,0 z"
         transform="matrix(0.90322587,0,0,0.88888888,-12.048387,12.111111)" />
    </clipPath>
    <clipPath
       clipPathUnits="userSpaceOnUse"
       id="clipPath4551">
      <path
         sodipodi:type="arc"
         style="opacity:0.1;fill:#d40000;fill-opacity:1;stroke:#222222;stroke-width:0;stroke-miterlimit:4;stroke-opacity:1;stroke-dasharray:none"
         id="path4553"
         sodipodi:cx="-0.5"
         sodipodi:cy="23.5"
         sodipodi:rx="15.5"
         sodipodi:ry="16.5"
         d="m 15,23.5 a 15.5,16.5 0 1 1 -31,0 15.5,16.5 0 1 1 31,0 z"
         transform="matrix(0,-0.83374695,0.67132869,0,3.2237757,20.083126)" />
    </clipPath>
    <clipPath
       clipPathUnits="userSpaceOnUse"
       id="clipPath4555">
      <path
         sodipodi:type="arc"
         style="opacity:0.1;fill:#d40000;fill-opacity:1;stroke:#222222;stroke-width:0;stroke-miterlimit:4;stroke-opacity:1;stroke-dasharray:none"
         id="path4557"
         sodipodi:cx="-0.5"
         sodipodi:cy="23.5"
         sodipodi:rx="15.5"
         sodipodi:ry="16.5"
         d="m 15,23.5 a 15.5,16.5 0 1 1 -31,0 15.5,16.5 0 1 1 31,0 z"
         transform="matrix(0.71464025,0,0,0.78321681,19.35732,2.094405)" />
    </clipPath>
    <clipPath
       clipPathUnits="userSpaceOnUse"
       id="clipPath4559">
      <path
         sodipodi:type="arc"
         style="opacity:0.1;fill:#d40000;fill-opacity:1;stroke:#222222;stroke-width:0;stroke-miterlimit:4;stroke-opacity:1;stroke-dasharray:none"
         id="path4561"
         sodipodi:cx="-0.5"
         sodipodi:cy="23.5"
         sodipodi:rx="15.5"
         sodipodi:ry="16.5"
         d="m 15,23.5 a 15.5,16.5 0 1 1 -31,0 15.5,16.5 0 1 1 31,0 z"
         transform="matrix(1.0322581,0,0,0.96969697,21.456127,4.2653102)" />
    </clipPath>
  </defs>
  <sodipodi:namedview
     id="base"
     pagecolor="#ffffff"
     bordercolor="#666666"
     borderopacity="1.0"
     inkscape:pageopacity="1"
     inkscape:pageshadow="2"
     inkscape:zoom="1"
     inkscape:cx="-15.192852"
     inkscape:cy="14.794638"
     inkscape:current-layer="layer1"
     showgrid="false"
     inkscape:grid-bbox="true"
     inkscape:document-units="px"
     fit-margin-top="0"
     fit-margin-left="0"
     fit-margin-right="0"
     fit-margin-bottom="0"
     inkscape:window-width="1366"
     inkscape:window-height="715"
     inkscape:window-x="0"
     inkscape:window-y="26"
     inkscape:window-maximized="1"
     showborder="false"
     inkscape:showpageshadow="false">
    <inkscape:grid
       type="xygrid"
       id="grid3761"
       empspacing="5"
       visible="true"
       enabled="true"
       snapvisiblegridlinesonly="true"
       originx="-4.9999994px"
       originy="-5px" />
  </sodipodi:namedview>
  <metadata
     id="metadata3837">
    <rdf:RDF>
      <cc:Work
         rdf:about="">
        <dc:format>image/svg+xml</dc:format>
        <dc:type
           rdf:resource="http://purl.org/dc/dcmitype/StillImage" />
        <dc:title />
      </cc:Work>
    </rdf:RDF>
  </metadata>
  <g
     id="layer1"
     inkscape:label="Layer 1"
     inkscape:groupmode="layer"
     transform="translate(-4.9399973,-17.053189)">
    <path
       style="fill:#00000f;fill-opacity:0"
       d="m -27.060003,36.053189 -10,-10 0,20 10,-10 z"
       id="rect3079-7"
       inkscape:connector-curvature="0"
       clip-path="url(#clipPath4559)" />
    <path
       sodipodi:type="arc"
       style="fill:#202020;fill-opacity:1;stroke:#222222;stroke-width:0;stroke-miterlimit:4;stroke-opacity:1;stroke-dasharray:none"
       id="path4459"
       sodipodi:cx="19"
       sodipodi:cy="20.5"
       sodipodi:rx="9"
       sodipodi:ry="10.5"
       d="M 28,20.5 C 28,26.29899 23.970563,31 19,31 14.029437,31 10,26.29899 10,20.5 10,14.70101 14.029437,10 19,10 c 4.970563,0 9,4.70101 9,10.5 z"
       transform="matrix(1.4444444,0,0,1.2380952,-9.5044463,4.6722374)"
       clip-path="url(#clipPath4555)" />
    <path
       sodipodi:type="arc"
       style="fill:url(#linearGradient4485);fill-opacity:1;stroke:#222222;stroke-width:0;stroke-miterlimit:4;stroke-opacity:1;stroke-dasharray:none"
       id="path4459-3"
       sodipodi:cx="19"
       sodipodi:cy="20.5"
       sodipodi:rx="9"
       sodipodi:ry="10.5"
       d="M 28,20.5 C 28,26.29899 23.970563,31 19,31 14.029437,31 10,26.29899 10,20.5 10,14.70101 14.029437,10 19,10 c 4.970563,0 9,4.70101 9,10.5 z"
       transform="matrix(0,1.4444444,-1.2380952,0,43.320949,2.6087454)"
       clip-path="url(#clipPath4551)" />
    <path
       sodipodi:type="arc"
       style="fill:#202020;fill-opacity:1;stroke:#222222;stroke-width:0;stroke-miterlimit:4;stroke-opacity:1;stroke-dasharray:none"
       id="path4487"
       sodipodi:cx="-12.5"
       sodipodi:cy="33"
       sodipodi:rx="10.5"
       sodipodi:ry="11"
       d="m -2,33 c 0,6.075132 -4.7010101,11 -10.5,11 -5.79899,0 -10.5,-4.924868 -10.5,-11 0,-6.075132 4.70101,-11 10.5,-11 5.7989899,0 10.5,4.924868 10.5,11 z"
       transform="matrix(1.1428571,0,0,1.0909091,32.225711,-5.9468113)"
       clip-path="url(#clipPath4547)" />
    <rect
       style="fill:#aaaaaa;fill-opacity:1;stroke:#aaaaaa;stroke-width:1;stroke-linejoin:round;stroke-miterlimit:4;stroke-opacity:1;stroke-dasharray:none"
       id="rect4575-3-6-3-0"
       width="1.4598335"
       height="8.7589998"
       x="-34.666225"
       y="-12.944819"
       transform="matrix(-0.70710677,-0.70710679,0.70710677,-0.70710679,0,0)" />
    <rect
       style="fill:#aaaaaa;fill-opacity:1;stroke:#aaaaaa;stroke-width:1;stroke-linejoin:round;stroke-miterlimit:4;stroke-opacity:1;stroke-dasharray:none"
       id="rect4575-3-6-3-0-0"
       width="1.4598335"
       height="8.7589998"
       x="-9.2952356"
       y="-38.315807"
       transform="matrix(0.70710677,-0.70710679,-0.70710677,-0.70710679,0,0)" />
  </g>
</svg>
