<?xml version="1.0" encoding="UTF-8" standalone="no"?>
<!-- Created with Inkscape (http://www.inkscape.org/) -->

<svg
   xmlns:dc="http://purl.org/dc/elements/1.1/"
   xmlns:cc="http://creativecommons.org/ns#"
   xmlns:rdf="http://www.w3.org/1999/02/22-rdf-syntax-ns#"
   xmlns:svg="http://www.w3.org/2000/svg"
   xmlns="http://www.w3.org/2000/svg"
   xmlns:sodipodi="http://sodipodi.sourceforge.net/DTD/sodipodi-0.dtd"
   xmlns:inkscape="http://www.inkscape.org/namespaces/inkscape"
   width="65"
   height="22"
   id="svg3199"
   version="1.1"
   inkscape:version="0.48.2 r9819"
   sodipodi:docname="toggle-on-intl.svg">
  <defs
     id="defs3201">
    <inkscape:perspective
       sodipodi:type="inkscape:persp3d"
       inkscape:vp_x="0 : 526.18109 : 1"
       inkscape:vp_y="0 : 1000 : 0"
       inkscape:vp_z="744.09448 : 526.18109 : 1"
       inkscape:persp3d-origin="372.04724 : 350.78739 : 1"
       id="perspective3207" />
    <inkscape:perspective
       id="perspective3187"
       inkscape:persp3d-origin="0.5 : 0.33333333 : 1"
       inkscape:vp_z="1 : 0.5 : 1"
       inkscape:vp_y="0 : 1000 : 0"
       inkscape:vp_x="0 : 0.5 : 1"
       sodipodi:type="inkscape:persp3d" />
  </defs>
  <sodipodi:namedview
     id="base"
     pagecolor="#ffffff"
     bordercolor="#666666"
     borderopacity="1.0"
     inkscape:pageopacity="0.0"
     inkscape:pageshadow="2"
     inkscape:zoom="8"
     inkscape:cx="46.963167"
     inkscape:cy="-5.535678"
     inkscape:document-units="px"
     inkscape:current-layer="layer1"
     showgrid="false"
     inkscape:window-width="1278"
     inkscape:window-height="718"
     inkscape:window-x="0"
     inkscape:window-y="282"
     inkscape:window-maximized="0" />
  <metadata
     id="metadata3204">
    <rdf:RDF>
      <cc:Work
         rdf:about="">
        <dc:format>image/svg+xml</dc:format>
        <dc:type
           rdf:resource="http://purl.org/dc/dcmitype/StillImage" />
        <dc:title />
      </cc:Work>
    </rdf:RDF>
  </metadata>
  <g
     inkscape:label="Layer 1"
     inkscape:groupmode="layer"
     id="layer1"
     transform="translate(-342.5,-521.36218)">
    <g
       style="display:inline"
       transform="translate(-453.5,448.36218)"
       id="g16453">
      <rect
         style="color:#000000;fill:#4a90d9;fill-opacity:1;fill-rule:nonzero;stroke:#3465a4;stroke-width:0.99999994000000003;stroke-linecap:round;stroke-linejoin:miter;stroke-miterlimit:4;stroke-opacity:1;stroke-dasharray:none;stroke-dashoffset:0;marker:none;visibility:visible;display:inline;overflow:visible;enable-background:accumulate"
         id="rect16256-9-4"
         width="63.000004"
         height="19"
         x="-859.5"
         y="74.5"
         rx="4"
         ry="4"
         transform="scale(-1,1)" />
      <rect
         style="fill:#000000;fill-opacity:1;stroke:#5f5f5f;stroke-width:2;stroke-linecap:round;stroke-linejoin:miter;stroke-miterlimit:4;stroke-opacity:1;stroke-dasharray:none;stroke-dashoffset:0;display:inline"
         id="rect16258-5-4"
         width="31"
         height="20"
         x="-860"
         y="74"
         rx="4"
         ry="4"
         transform="scale(-1,1)" />
      <g
         style="display:inline"
         id="g16298-3-6"
         transform="matrix(-1,0,0,1,1651.1322,-33.986291)">
        <path
           inkscape:connector-curvature="0"
           id="path16265-3-5"
           d="m 803.6322,115.48629 0,4.29495"
           style="fill:none;stroke:#d8ac24;stroke-width:1px;stroke-linecap:round;stroke-linejoin:miter;stroke-opacity:1" />
        <path
           inkscape:connector-curvature="0"
           id="path16265-0-2-0"
           d="m 806.62805,115.48629 0,4.29495"
           style="fill:none;stroke:#d8ac24;stroke-width:1px;stroke-linecap:round;stroke-linejoin:miter;stroke-opacity:1;display:inline" />
        <path
           inkscape:connector-curvature="0"
           id="path16265-8-7-1"
           d="m 809.6239,115.48629 0,4.29495"
           style="fill:none;stroke:#d8ac24;stroke-width:1px;stroke-linecap:round;stroke-linejoin:miter;stroke-opacity:1;display:inline" />
      </g>
      <path
         style="color:#000000;fill:#eeeeec;fill-opacity:1;fill-rule:nonzero;stroke:#ffffff;stroke-width:2;stroke-linecap:square;stroke-linejoin:miter;stroke-miterlimit:4;stroke-opacity:1;stroke-dasharray:none;stroke-dashoffset:0;marker:none;visibility:visible;display:inline;overflow:visible;enable-background:accumulate"
         d="m 16,27.9375 0,10.125"
         id="path19232"
         inkscape:connector-curvature="0"
         transform="translate(796,51.00002)" />
    </g>
    <path
       style="fill:#806600"
       d="m 3.5638928,19.785835 c -0.322726,-0.08688 -0.688351,-0.234838 -0.8125,-0.328792 C 2.1595853,19.009175 1.6669901,18.478283 1.4209637,18.023178 1.1555474,17.532205 1.1500177,17.409209 1.1146829,11.210678 1.0831649,5.6817149 1.1033932,4.8334136 1.2776502,4.3764096 1.6247739,3.4660481 2.1346121,2.8944448 2.9732845,2.4753553 l 0.7798135,-0.3896774 14.554882,0 14.554881,0 -0.256869,0.4353607 C 31.978,3.5854056 31.963072,3.783059 31.96452,11.014615 c 0.0014,7.178073 0.0056,7.234504 0.615262,8.429628 l 0.263467,0.516435 -14.346292,-0.0084 C 7.3514481,19.945687 4.0197528,19.90856 3.5638928,19.785835 z m 13.5242742,-8.825157 0,-6.1250001 -1.0625,0 -1.0625,0 0,6.1250001 0,6.125 1.0625,0 1.0625,0 0,-6.125 z"
       id="path3042"
       inkscape:connector-curvature="0"
       transform="translate(342.5,521.36218)" />
    <path
       style="fill:#d3bc5f"
       d="m 65.021053,11.023178 c 2.3e-5,-3.3687501 0.01613,-4.728909 0.03578,-3.0225755 0.01966,1.7063335 0.01964,4.4625835 -4.3e-5,6.1250005 -0.01968,1.662416 -0.03576,0.266325 -0.03574,-3.102425 z"
       id="path3044"
       inkscape:connector-curvature="0"
       transform="translate(342.5,521.36218)" />
    <path
       style="fill:#a0892c"
       d="M 35.963167,21.788657 C 34.080296,21.36511 32.60541,19.906964 32.21768,18.085678 c -0.104578,-0.49123 -0.135035,-2.632355 -0.106687,-7.5 l 0.03967,-6.8125001 0.398207,-0.8405957 c 0.497773,-1.0507753 1.341798,-1.8893093 2.414293,-2.39858667 l 0.8125,-0.38581768 12.491877,-0.0336146 c 11.279716,-0.03035278 12.553311,-0.0137815 13.125,0.1707749 1.831667,0.5913116 3.120648,2.06488183 3.445801,3.93925743 0.09298,0.5359681 0.125914,2.9361099 0.100159,7.2985824 -0.038,6.436177 -0.04118,6.506941 -0.323907,7.20691 -0.525495,1.301001 -1.580475,2.356079 -2.88202,2.882289 l -0.70691,0.285801 -12.1875,0.02257 c -9.298381,0.01721 -12.350475,-0.0141 -12.875,-0.132086 z m 25.263137,-1.970283 c 0.576118,-0.261831 1.247768,-0.933481 1.557271,-1.557271 0.23036,-0.464278 0.242092,-0.81203 0.242092,-7.175425 0,-5.3093819 -0.03493,-6.7863066 -0.169482,-7.1669714 -0.2408,-0.681231 -0.852265,-1.3254084 -1.579608,-1.664115 L 60.650667,1.9631201 48.579185,1.961899 c -13.398296,-0.00136 -12.777834,-0.038814 -13.667419,0.8251401 -0.932324,0.9054614 -0.882029,0.4697916 -0.921943,7.9861389 -0.03961,7.45882 -0.04951,7.350667 0.757257,8.269526 0.427639,0.487055 0.867425,0.743743 1.555775,0.908055 0.267421,0.06383 5.685667,0.104078 12.472812,0.09264 10.823154,-0.01824 12.044194,-0.04031 12.450637,-0.225025 l 0,0 z"
       id="path3046"
       inkscape:connector-curvature="0"
       transform="translate(342.5,521.36218)" />
    <path
       style="fill:#a0892c"
       d="M 3.6325487,20.830742 C 2.3473032,20.57637 1.1082092,19.598049 0.49833062,18.356135 l -0.34766328,-0.707957 0,-6.625 0,-6.6250001 0.33377279,-0.7120623 C 0.91021982,2.7777682 1.7802577,1.9077303 2.6886051,1.4819506 L 3.4006673,1.1481779 18.582876,1.1154443 33.765085,1.0827107 33.34107,1.5201837 32.917054,1.9576567 18.221361,1.9904173 3.5256673,2.0231779 2.9631673,2.3153381 C 2.2135028,2.7047109 1.690673,3.2220959 1.3261262,3.9353307 l -0.3004589,0.5878472 0,6.5000001 0,6.5 0.2820969,0.52793 c 0.3828665,0.716516 1.077847,1.386945 1.7692293,1.70673 0.5730341,0.265044 0.590031,0.265379 15.2411455,0.299587 l 14.667471,0.03425 0.409789,0.434502 0.409787,0.434503 -14.827259,-0.0137 c -8.154993,-0.0075 -15.060413,-0.05984 -15.3453783,-0.11624 z"
       id="path3048"
       inkscape:connector-curvature="0"
       transform="translate(342.5,521.36218)" />
    <path
       style="fill:#d8ac24"
       d="m 45.939576,10.660678 c 0,-1.2031251 0.01875,-1.6953126 0.04166,-1.0937501 0.02292,0.6015621 0.02292,1.5859371 0,2.1875001 -0.02291,0.601562 -0.04166,0.109375 -0.04166,-1.09375 z"
       id="path3058"
       inkscape:connector-curvature="0"
       transform="translate(342.5,521.36218)" />
  </g>
</svg>
