<?xml version="1.0" encoding="UTF-8" standalone="no"?>
<!-- Created with Inkscape (http://www.inkscape.org/) -->

<svg
   xmlns:dc="http://purl.org/dc/elements/1.1/"
   xmlns:cc="http://creativecommons.org/ns#"
   xmlns:rdf="http://www.w3.org/1999/02/22-rdf-syntax-ns#"
   xmlns:svg="http://www.w3.org/2000/svg"
   xmlns="http://www.w3.org/2000/svg"
   xmlns:sodipodi="http://sodipodi.sourceforge.net/DTD/sodipodi-0.dtd"
   xmlns:inkscape="http://www.inkscape.org/namespaces/inkscape"
   width="64"
   height="22"
   id="svg3273"
   version="1.1"
   inkscape:version="0.48.2 r9819"
   sodipodi:docname="toggle-off-intl.svg">
  <defs
     id="defs3275">
    <inkscape:perspective
       sodipodi:type="inkscape:persp3d"
       inkscape:vp_x="0 : 526.18109 : 1"
       inkscape:vp_y="0 : 1000 : 0"
       inkscape:vp_z="744.09448 : 526.18109 : 1"
       inkscape:persp3d-origin="372.04724 : 350.78739 : 1"
       id="perspective3281" />
    <inkscape:perspective
       id="perspective3261"
       inkscape:persp3d-origin="0.5 : 0.33333333 : 1"
       inkscape:vp_z="1 : 0.5 : 1"
       inkscape:vp_y="0 : 1000 : 0"
       inkscape:vp_x="0 : 0.5 : 1"
       sodipodi:type="inkscape:persp3d" />
  </defs>
  <sodipodi:namedview
     id="base"
     pagecolor="#ffffff"
     bordercolor="#666666"
     borderopacity="1.0"
     inkscape:pageopacity="0.0"
     inkscape:pageshadow="2"
     inkscape:zoom="15.839192"
     inkscape:cx="31.27259"
     inkscape:cy="2.0870809"
     inkscape:document-units="px"
     inkscape:current-layer="layer1"
     showgrid="false"
     inkscape:window-width="1278"
     inkscape:window-height="975"
     inkscape:window-x="0"
     inkscape:window-y="25"
     inkscape:window-maximized="0" />
  <metadata
     id="metadata3278">
    <rdf:RDF>
      <cc:Work
         rdf:about="">
        <dc:format>image/svg+xml</dc:format>
        <dc:type
           rdf:resource="http://purl.org/dc/dcmitype/StillImage" />
        <dc:title />
      </cc:Work>
    </rdf:RDF>
  </metadata>
  <g
     inkscape:label="Layer 1"
     inkscape:groupmode="layer"
     id="layer1"
     transform="translate(-343,-521.36218)">
    <g
       id="g17454"
       transform="translate(-453,448.36218)"
       style="display:inline">
      <rect
         transform="scale(-1,1)"
         ry="4"
         rx="4"
         y="74.5"
         x="-859.5"
         height="19"
         width="63.000004"
         id="rect17456"
         style="color:#000000;fill:none;stroke:#2e3436;stroke-width:0.99999994;stroke-linecap:round;stroke-linejoin:miter;stroke-miterlimit:4;stroke-opacity:1;stroke-dasharray:none;stroke-dashoffset:0;marker:none;visibility:visible;display:inline;overflow:visible;enable-background:accumulate" />
      <rect
         transform="scale(-1,1)"
         ry="4"
         rx="4"
         y="74"
         x="-828"
         height="20"
         width="31"
         id="rect17458"
         style="fill:#000000;fill-opacity:1;stroke:#5f5f5f;stroke-width:2;stroke-linecap:round;stroke-linejoin:miter;stroke-miterlimit:4;stroke-opacity:1;stroke-dasharray:none;stroke-dashoffset:0;display:inline" />
      <g
         transform="matrix(-1,0,0,1,1619.1239,-33.986291)"
         id="g17460"
         style="display:inline">
        <path
           style="fill:none;stroke:#d8ac24;stroke-width:1px;stroke-linecap:round;stroke-linejoin:miter;stroke-opacity:1"
           d="m 803.6322,115.48629 0,4.29495"
           id="path17462"
           inkscape:connector-curvature="0" />
        <path
           style="fill:none;stroke:#d8ac24;stroke-width:1px;stroke-linecap:round;stroke-linejoin:miter;stroke-opacity:1;display:inline"
           d="m 806.62805,115.48629 0,4.29495"
           id="path17464"
           inkscape:connector-curvature="0" />
        <path
           style="fill:none;stroke:#d8ac24;stroke-width:1px;stroke-linecap:round;stroke-linejoin:miter;stroke-opacity:1;display:inline"
           d="m 809.6239,115.48629 0,4.29495"
           id="path17466"
           inkscape:connector-curvature="0" />
      </g>
      <path
         sodipodi:type="arc"
         style="color:#000000;fill:none;stroke:#ffffff;stroke-width:1.96875012;stroke-linecap:round;stroke-linejoin:miter;stroke-miterlimit:4;stroke-opacity:1;stroke-dasharray:none;stroke-dashoffset:0;marker:none;visibility:visible;display:inline;overflow:visible;enable-background:accumulate"
         id="path18722"
         sodipodi:cx="47.6875"
         sodipodi:cy="11.5625"
         sodipodi:rx="3.9375"
         sodipodi:ry="3.9375"
         d="m 51.625,11.5625 c 0,2.174621 -1.762879,3.9375 -3.9375,3.9375 -2.174621,0 -3.9375,-1.762879 -3.9375,-3.9375 0,-2.1746212 1.762879,-3.9375 3.9375,-3.9375 2.174621,0 3.9375,1.7628788 3.9375,3.9375 z"
         transform="matrix(1.0158729,0,0,1.0158729,795.55556,72.25399)" />
    </g>
    <path
       style="fill:#a0892c"
       d="m 31.563956,20.527839 0.473855,-0.473855 14.053101,-0.01687 c 13.513623,-0.01622 14.066431,-0.02138 14.400341,-0.134394 1.120109,-0.379111 1.895111,-1.101688 2.319995,-2.163056 l 0.173819,-0.434203 0.01759,-6.106435 C 63.022197,4.4133644 63.035078,4.6506144 62.602425,3.8272739 62.221252,3.1019006 61.543726,2.5108683 60.712223,2.178378 L 60.333416,2.0269055 46.205112,2.0104385 32.076808,1.9939714 31.62055,1.5211458 31.164293,1.0483202 l 14.426725,0.0011 c 16.160467,0.00123 14.857377,-0.03821 15.910226,0.481525 0.496642,0.2451661 0.693209,0.3895925 1.144614,0.8409972 0.457535,0.4575353 0.591201,0.6407597 0.832892,1.1417025 0.500638,1.037652 0.484902,0.794959 0.484902,7.4783678 0,6.67062 0.01331,6.460128 -0.470977,7.449875 -0.58574,1.197096 -1.632161,2.055153 -2.939246,2.410157 -0.384373,0.104396 -1.297991,0.112374 -14.936372,0.130425 l -14.526956,0.01923 0.473855,-0.473855 0,0 z"
       id="path3066"
       inkscape:connector-curvature="0"
       transform="translate(343,521.36218)" />
    <path
       style="fill:#a0892c"
       d="M 3.9457741,21.85158 C 2.9961944,21.645066 2.2621023,21.229959 1.4887159,20.46219 0.99015307,19.967248 0.87425133,19.808498 0.58988215,19.231066 0.00214603,18.037625 0.03991505,18.603622 0.04008929,10.992009 L 0.0402427,4.2997488 0.18358738,3.7946725 C 0.55058627,2.5015476 1.2409569,1.5424744 2.3226111,0.82310837 2.7823933,0.51732526 3.6424886,0.18923415 4.2143803,0.10147604 4.5112119,0.05592653 8.4871297,0.04078333 16.770588,0.05365279 30.429377,0.07487355 29.0902,0.02274319 30.219992,0.57720022 31.20237,1.0593125 31.979337,1.844486 32.455918,2.836742 c 0.509999,1.0618356 0.47711,0.49967 0.47711,8.155267 l 0,6.81853 -0.142711,0.492398 c -0.251448,0.867571 -0.820149,1.813595 -1.411294,2.347659 -0.36109,0.326223 -1.025343,0.738941 -1.508019,0.936974 -0.920526,0.377673 -0.127023,0.356786 -13.384522,0.352329 -9.8842168,-0.0033 -12.2257129,-0.01981 -12.5407079,-0.08832 l 0,0 z M 28.450476,19.987154 c 1.130919,-0.159066 2.130568,-1.030267 2.456347,-2.140723 0.08921,-0.304085 0.100427,-1.076188 0.09906,-6.81853 C 31.004896,6.8914473 30.981267,4.4522098 30.940468,4.2752385 30.715272,3.2984047 29.890801,2.4176443 28.918243,2.1149504 28.546732,1.9993232 28.133801,1.9953383 16.523884,1.9953383 3.3585958,1.9953383 4.2806336,1.969614 3.5130223,2.3583328 2.8363985,2.7009756 2.2057289,3.5645549 2.0353084,4.3817745 c -0.048227,0.2312614 -0.069769,2.2742712 -0.069769,6.6166635 0,6.982119 -0.00998,6.80262 0.4180488,7.516474 0.496615,0.828233 1.2243005,1.328975 2.1388998,1.47184 0.4773344,0.07456 23.39799,0.07495 23.927988,3.79e-4 l 0,2.3e-5 z"
       id="path3068"
       inkscape:connector-curvature="0"
       transform="translate(343,521.36218)" />
  </g>
</svg>
