<?xml version="1.0" encoding="UTF-8" standalone="no"?>
<!-- Created with Inkscape (http://www.inkscape.org/) -->

<svg
   xmlns:dc="http://purl.org/dc/elements/1.1/"
   xmlns:cc="http://creativecommons.org/ns#"
   xmlns:rdf="http://www.w3.org/1999/02/22-rdf-syntax-ns#"
   xmlns:svg="http://www.w3.org/2000/svg"
   xmlns="http://www.w3.org/2000/svg"
   xmlns:sodipodi="http://sodipodi.sourceforge.net/DTD/sodipodi-0.dtd"
   xmlns:inkscape="http://www.inkscape.org/namespaces/inkscape"
   width="64"
   height="22"
   id="svg3012"
   version="1.1"
   inkscape:version="0.48.2 r9819"
   sodipodi:docname="toggle-off-us.svg">
  <defs
     id="defs3014">
    <inkscape:perspective
       sodipodi:type="inkscape:persp3d"
       inkscape:vp_x="0 : 526.18109 : 1"
       inkscape:vp_y="0 : 1000 : 0"
       inkscape:vp_z="744.09448 : 526.18109 : 1"
       inkscape:persp3d-origin="372.04724 : 350.78739 : 1"
       id="perspective3020" />
    <inkscape:perspective
       id="perspective2997"
       inkscape:persp3d-origin="0.5 : 0.33333333 : 1"
       inkscape:vp_z="1 : 0.5 : 1"
       inkscape:vp_y="0 : 1000 : 0"
       inkscape:vp_x="0 : 0.5 : 1"
       sodipodi:type="inkscape:persp3d" />
  </defs>
  <sodipodi:namedview
     id="base"
     pagecolor="#ffffff"
     bordercolor="#666666"
     borderopacity="1.0"
     inkscape:pageopacity="0.0"
     inkscape:pageshadow="2"
     inkscape:zoom="11.2"
     inkscape:cx="44.857524"
     inkscape:cy="9.8848884"
     inkscape:document-units="px"
     inkscape:current-layer="layer1"
     showgrid="false"
     inkscape:window-width="1278"
     inkscape:window-height="852"
     inkscape:window-x="0"
     inkscape:window-y="148"
     inkscape:window-maximized="0" />
  <metadata
     id="metadata3017">
    <rdf:RDF>
      <cc:Work
         rdf:about="">
        <dc:format>image/svg+xml</dc:format>
        <dc:type
           rdf:resource="http://purl.org/dc/dcmitype/StillImage" />
        <dc:title />
      </cc:Work>
    </rdf:RDF>
  </metadata>
  <g
     inkscape:label="Layer 1"
     inkscape:groupmode="layer"
     id="layer1"
     transform="translate(-343,-521.36218)">
    <g
       id="g17454"
       transform="translate(-453,448.36218)"
       style="display:inline">
      <rect
         transform="scale(-1,1)"
         ry="4"
         rx="4"
         y="74.5"
         x="-859.5"
         height="19"
         width="63.000004"
         id="rect17456"
         style="color:#000000;fill:none;stroke:#2e3436;stroke-width:0.99999994;stroke-linecap:round;stroke-linejoin:miter;stroke-miterlimit:4;stroke-opacity:1;stroke-dasharray:none;stroke-dashoffset:0;marker:none;visibility:visible;display:inline;overflow:visible;enable-background:accumulate" />
      <rect
         transform="scale(-1,1)"
         ry="4"
         rx="4"
         y="74"
         x="-828"
         height="20"
         width="31"
         id="rect17458"
         style="fill:#000000;fill-opacity:1;stroke:#5f5f5f;stroke-width:2;stroke-linecap:round;stroke-linejoin:miter;stroke-miterlimit:4;stroke-opacity:1;stroke-dasharray:none;stroke-dashoffset:0;display:inline" />
      <g
         transform="matrix(-1,0,0,1,1619.1239,-33.986291)"
         id="g17460"
         style="display:inline">
        <path
           style="fill:none;stroke:#d8ac24;stroke-width:1px;stroke-linecap:round;stroke-linejoin:miter;stroke-opacity:1"
           d="m 803.6322,115.48629 0,4.29495"
           id="path17462"
           inkscape:connector-curvature="0" />
        <path
           style="fill:none;stroke:#d8ac24;stroke-width:1px;stroke-linecap:round;stroke-linejoin:miter;stroke-opacity:1;display:inline"
           d="m 806.62805,115.48629 0,4.29495"
           id="path17464"
           inkscape:connector-curvature="0" />
        <path
           style="fill:none;stroke:#d8ac24;stroke-width:1px;stroke-linecap:round;stroke-linejoin:miter;stroke-opacity:1;display:inline"
           d="m 809.6239,115.48629 0,4.29495"
           id="path17466"
           inkscape:connector-curvature="0" />
      </g>
      <g
         style="font-size:8.95877075px;font-style:normal;font-variant:normal;font-weight:bold;font-stretch:normal;text-indent:0;text-align:start;text-decoration:none;line-height:125%;letter-spacing:normal;word-spacing:normal;text-transform:none;direction:ltr;block-progression:tb;writing-mode:lr-tb;text-anchor:start;color:#000000;fill:#ffffff;fill-opacity:1;fill-rule:nonzero;stroke:none;stroke-width:1px;marker:none;visibility:visible;display:inline;overflow:visible;enable-background:accumulate;font-family:Cantarell;-inkscape-font-specification:Cantarell Bold"
         id="text17468"
         transform="translate(0.34375,0)">
        <path
           d="m 837.28518,80.750726 c 0.63282,6e-6 1.19566,0.123947 1.68852,0.371824 0.49284,0.247888 0.8807,0.609505 1.16359,1.084851 0.28287,0.472439 0.42431,1.022155 0.42431,1.649149 0,0.635748 -0.13853,1.200045 -0.41556,1.692892 -0.27706,0.489934 -0.66638,0.870507 -1.16797,1.141719 -0.5016,0.271213 -1.07756,0.406819 -1.72789,0.406819 -0.42869,0 -0.83551,-0.06562 -1.22045,-0.196848 -0.38495,-0.134148 -0.73053,-0.32808 -1.03674,-0.581795 -0.30329,-0.256631 -0.54534,-0.589085 -0.72615,-0.997363 -0.17789,-0.408276 -0.26684,-0.869045 -0.26683,-1.382311 -10e-6,-0.638658 0.13997,-1.200039 0.41994,-1.684144 0.27996,-0.487011 0.66782,-0.858835 1.16359,-1.115472 0.49576,-0.259541 1.06297,-0.389315 1.70164,-0.389321 m 0.57305,1.089225 c -0.20123,-0.05249 -0.40683,-0.07873 -0.61679,-0.07874 -0.20998,5e-6 -0.41412,0.02625 -0.61242,0.07874 -0.19831,0.04958 -0.38933,0.129779 -0.57305,0.240592 -0.18081,0.107907 -0.33974,0.242055 -0.47681,0.402445 -0.13706,0.160399 -0.24642,0.358705 -0.32808,0.594918 -0.0816,0.233306 -0.12248,0.491395 -0.12248,0.774269 0,0.67366 0.20851,1.214627 0.62554,1.622903 0.41702,0.408278 0.93758,0.612416 1.56166,0.612416 0.25954,0 0.51034,-0.04229 0.7524,-0.126858 0.24496,-0.08457 0.47097,-0.20997 0.67803,-0.376198 0.20705,-0.166226 0.37328,-0.392236 0.49868,-0.678032 0.12539,-0.285792 0.18809,-0.610956 0.1881,-0.975492 -10e-6,-0.297455 -0.0437,-0.568668 -0.13123,-0.813638 -0.0875,-0.247878 -0.20415,-0.453475 -0.34995,-0.61679 -0.14291,-0.163307 -0.31059,-0.301829 -0.50306,-0.415568 -0.18956,-0.11373 -0.38641,-0.195385 -0.59054,-0.244967"
           style="line-height:125%;fill:#ffffff;fill-opacity:1;marker:none;font-family:Cantarell;-inkscape-font-specification:Cantarell Bold"
           id="path18599"
           inkscape:connector-curvature="0" />
        <path
           d="m 843.5362,81.831203 0,1.17917 2.94834,0 0,1.014861 -2.94834,0 0,3.00713 -1.10673,0 0,-6.216022 4.31754,0 0,1.014861 -3.21081,0"
           style="line-height:125%;fill:#ffffff;fill-opacity:1;marker:none;font-family:Cantarell;-inkscape-font-specification:Cantarell Bold"
           id="path18601"
           inkscape:connector-curvature="0"
           sodipodi:nodetypes="ccccccccccc" />
        <path
           d="m 849.71285,81.831203 0,1.17917 2.94834,0 0,1.014861 -2.94834,0 0,3.00713 -1.10672,0 0,-6.216022 4.31753,0 0,1.014861 -3.21081,0"
           style="line-height:125%;fill:#ffffff;fill-opacity:1;marker:none;font-family:Cantarell;-inkscape-font-specification:Cantarell Bold"
           id="path18603"
           inkscape:connector-curvature="0"
           sodipodi:nodetypes="ccccccccccc" />
      </g>
    </g>
    <path
       style="fill:#a0892c;stroke:none"
       d="M 3.6700244,21.749754 C 2.8766214,21.518407 2.2766038,21.179563 1.6764764,20.623951 1.0475098,20.041638 0.65166459,19.455438 0.33073935,18.631068 L 0.09859579,18.034755 0.07307919,11.325616 C 0.0514622,5.6418111 0.06799115,4.5185016 0.18123429,3.9753846 0.54135226,2.2482493 1.6854772,0.98635956 3.534089,0.27742046 4.0264282,0.08860933 4.0453943,0.08828922 16.187746,0.06385416 29.58003,0.03690375 29.076,0.01817975 30.195356,0.5842181 c 1.286898,0.6507618 2.140972,1.6931269 2.596258,3.1686356 0.153122,0.4962435 0.164125,0.9808127 0.164125,7.2283293 l 0,6.696429 -0.207348,0.66011 c -0.540045,1.719287 -1.685555,2.877453 -3.356457,3.393542 -0.604327,0.186658 -0.65668,0.187393 -12.896494,0.181058 C 5.0671139,21.906407 4.1681909,21.895013 3.6700244,21.749754 z M 28.643308,19.943396 c 0.26023,-0.05516 0.615832,-0.172436 0.790227,-0.260621 0.477673,-0.24154 1.06654,-0.874152 1.326281,-1.424806 l 0.231637,-0.491072 0.02827,-6.473214 c 0.02072,-4.7448867 4e-5,-6.6043287 -0.07745,-6.9642857 C 30.733967,3.3617931 30.039278,2.5530719 29.084943,2.1671962 l -0.504204,-0.2038703 -12.098215,0 C 5.2774462,1.9633259 4.3562242,1.974594 4.0038651,2.1159613 3.1204962,2.4703709 2.4776338,3.1136586 2.1274727,3.9935952 1.9912411,4.3359377 1.9733156,4.9951267 1.9484897,10.575448 c -0.029237,6.571873 -0.00378,7.102518 0.3763656,7.845352 0.373375,0.729603 1.1553928,1.328845 1.9911036,1.525736 0.5211921,0.122791 23.7473571,0.119794 24.3273491,-0.0031 l 0,3e-6 z"
       id="path3062"
       inkscape:connector-curvature="0"
       transform="translate(343,521.36218)" />
    <path
       style="fill:#a0892c"
       d="m 31.61513,20.491455 0.438393,-0.445085 14.111822,-0.02367 14.111822,-0.02366 0.501044,-0.202687 c 0.67335,-0.272391 1.25917,-0.744582 1.645097,-1.326007 0.599324,-0.902918 0.583214,-0.681763 0.556517,-7.63971 L 62.955739,4.5526116 62.703837,4.0075603 C 62.216448,2.9529745 61.147676,2.1773178 59.9416,2.002877 59.629716,1.9577677 53.356367,1.921483 45.695478,1.9204783 l -13.688833,-0.0018 -0.436839,-0.4484862 -0.436839,-0.4484863 14.616743,0.024379 14.616743,0.024379 0.491072,0.1913019 c 1.503878,0.5858516 2.473665,1.5939389 2.918152,3.0334015 0.150155,0.4862718 0.162205,0.9862977 0.162205,6.7306538 0,6.823137 0.02621,6.461908 -0.552808,7.618008 -0.286891,0.572819 -1.211048,1.475735 -1.816459,1.774709 -1.109515,0.547918 -0.186926,0.517997 -15.972029,0.517997 l -14.419849,0 0.438393,-0.445085 0,0 z"
       id="path3064"
       inkscape:connector-curvature="0"
       transform="translate(343,521.36218)" />
  </g>
</svg>
