/* XPM */
static char *close_active[] = {
/* columns rows colors chars-per-pixel */
"24 24 45 1 ",
"  c #DF2131",
". c #DF2232",
"X c #DF2535",
"o c #DF2735",
"O c #DF2636",
"+ c #DE2938",
"@ c #DF2939",
"# c #DF2A39",
"$ c #DF2B3A",
"% c #DF2C3B",
"& c #E13745",
"* c #E13847",
"= c #DE4350",
"- c #DE4451",
"; c #DE4552",
": c #DE4652",
"> c #DC7A82",
", c #DC7B83",
"< c #DD7B83",
"1 c #DC7C84",
"2 c #DB9CA1",
"3 c #DB9DA2",
"4 c #DB9EA3",
"5 c #EAB5BA",
"6 c #EABABF",
"7 c #EABBC0",
"8 c #D9C9CA",
"9 c #D9CACB",
"0 c #D9CBCC",
"q c gray85",
"w c #EAC0C4",
"e c #EBC2C7",
"r c #EBC4C9",
"t c #ECCDCF",
"y c #EDD0D2",
"u c #EDD1D3",
"i c #EED1D4",
"p c #EDD2D4",
"a c #EDD2D5",
"s c #EED3D5",
"d c #EED8DB",
"f c #EEEEEE",
"g c #F6F4F5",
"h c #F7F7F8",
"j c #F8F8F9",
/* pixels */
"ffffffffffffffffffffffff",
"qqqqqqqqqqqqqqqqqqqqqqqq",
"qqqqqqqqqqqqqqqqqqqqqqqq",
"qqqqqqqqqqqqqqqqqqqqqqqq",
"qqqqqqqqqqqqqqqqqqqqqqqq",
"qqqqqqqq8>-++;<8qqqqqqqq",
"qqqqqqq2#      #3qqqqqqq",
"qqqqqq2.        .3qqqqqq",
"qqqqq8#  *    &  $9qqqqq",
"qqqqq>   hyXXtj   ,qqqqq",
"qqqqq=   7japje   ;qqqqq",
"qqqqq#    wjjr    #qqqqq",
"qqqqq#   osjjdO   $qqqqq",
"qqqqq-   uj66ji   ;qqqqq",
"qqqqq<   g5  5g   1qqqqq",
"qqqqq8#          %0qqqqq",
"qqqqqq3.        .4qqqqqq",
"qqqqqqq3$      %4qqqqqqq",
"qqqqqqqq9,:@@:10qqqqqqqq",
"qqqqqqqqqqqqqqqqqqqqqqqq",
"qqqqqqqqqqqqqqqqqqqqqqqq",
"qqqqqqqqqqqqqqqqqqqqqqqq",
"qqqqqqqqqqqqqqqqqqqqqqqq",
"qqqqqqqqqqqqqqqqqqqqqqqq"
};
