<?xml version="1.0" encoding="UTF-8" standalone="no"?>
<!-- Created with Inkscape (http://www.inkscape.org/) -->

<svg
   xmlns:dc="http://purl.org/dc/elements/1.1/"
   xmlns:cc="http://creativecommons.org/ns#"
   xmlns:rdf="http://www.w3.org/1999/02/22-rdf-syntax-ns#"
   xmlns:svg="http://www.w3.org/2000/svg"
   xmlns="http://www.w3.org/2000/svg"
   xmlns:sodipodi="http://sodipodi.sourceforge.net/DTD/sodipodi-0.dtd"
   xmlns:inkscape="http://www.inkscape.org/namespaces/inkscape"
   sodipodi:docname="calendar-arrow-left.svg"
   inkscape:version="0.48.2 r9819"
   id="svg2"
   height="16"
   width="16"
   version="1.1">
  <sodipodi:namedview
     pagecolor="#ffffff"
     bordercolor="#666666"
     borderopacity="1"
     objecttolerance="10"
     gridtolerance="10"
     guidetolerance="10"
     inkscape:pageopacity="0"
     inkscape:pageshadow="2"
     inkscape:window-width="1920"
     inkscape:window-height="1030"
     id="namedview7"
     showgrid="false"
     inkscape:zoom="14.75"
     inkscape:cx="-2.4067797"
     inkscape:cy="8"
     inkscape:window-x="0"
     inkscape:window-y="25"
     inkscape:window-maximized="1"
     inkscape:current-layer="svg2" />
  <defs
     id="defs4" />
  <metadata
     id="metadata7">
    <rdf:RDF>
      <cc:Work
         rdf:about="">
        <dc:format>image/svg+xml</dc:format>
        <dc:type
           rdf:resource="http://purl.org/dc/dcmitype/StillImage" />
        <dc:title></dc:title>
      </cc:Work>
    </rdf:RDF>
  </metadata>
  <g
     transform="translate(0,-1036.3622)"
     id="layer1">
    <path
       d="M 88.830127,340 80.169873,340 84.5,332.5 z"
       transform="matrix(0,1.3621708,0.99186247,0,-325.48222,929.32667)"
       id="path18028"
       style="fill:#fafafa;fill-opacity:1;stroke:none;display:inline" />
  </g>
  <path
     style="fill:#6eabec;stroke:none;fill-opacity:1"
     d="M 8.0402767,11.023666 C 6.0190391,9.4240393 4.3719209,8.0913545 4.3800141,8.0621437 4.3881073,8.0329329 6.0418472,6.7034388 8.0549917,5.1077122 l 3.6602623,-2.9013211 0.01767,2.9425783 c 0.0097,1.618418 0.0097,4.256697 0,5.8628426 l -0.01767,2.920265 -3.6749773,-2.908411 z"
     id="path4056"
     inkscape:connector-curvature="0" />
  <path
     inkscape:connector-curvature="0"
     id="path4058"
     d="M 8.0402767,11.023665 C 6.0190391,9.4240393 4.3719209,8.0913545 4.3800141,8.0621437 4.3881073,8.0329329 6.0418472,6.7034388 8.0549917,5.1077122 l 3.6602623,-2.9013211 0.01767,2.9425783 c 0.0097,1.618418 0.0097,4.256697 0,5.8628416 l -0.01767,2.920265 -3.6749773,-2.908411 z"
     style="fill:#0ff000;fill-opacity:0;stroke:none" />
</svg>
