<?xml version="1.0" encoding="UTF-8" standalone="no"?>
<!-- Created with Inkscape (http://www.inkscape.org/) -->

<svg
   xmlns:dc="http://purl.org/dc/elements/1.1/"
   xmlns:cc="http://creativecommons.org/ns#"
   xmlns:rdf="http://www.w3.org/1999/02/22-rdf-syntax-ns#"
   xmlns:svg="http://www.w3.org/2000/svg"
   xmlns="http://www.w3.org/2000/svg"
   xmlns:xlink="http://www.w3.org/1999/xlink"
   xmlns:sodipodi="http://sodipodi.sourceforge.net/DTD/sodipodi-0.dtd"
   xmlns:inkscape="http://www.inkscape.org/namespaces/inkscape"
   width="150"
   height="149.99998"
   id="svg2"
   version="1.1"
   inkscape:version="0.48.5 r10040"
   sodipodi:docname="corner-ripple.svg"
   inkscape:export-filename="/home/matthieu/.themes/ICS/gnome-shell/img/corner-ripple-ltr.png"
   inkscape:export-xdpi="90"
   inkscape:export-ydpi="90">
  <defs
     id="defs4">
    <linearGradient
       id="linearGradient3761">
      <stop
         style="stop-color:#33b5e5;stop-opacity:0.39215687;"
         offset="0"
         id="stop3763" />
      <stop
         style="stop-color:#33b5e5;stop-opacity:0.19607843;"
         offset="1"
         id="stop3765" />
    </linearGradient>
    <radialGradient
       inkscape:collect="always"
       xlink:href="#linearGradient3761"
       id="radialGradient3767"
       cx="0"
       cy="4"
       fx="0"
       fy="4"
       r="48"
       gradientUnits="userSpaceOnUse" />
    <clipPath
       clipPathUnits="userSpaceOnUse"
       id="clipPath3785">
      <path
         style="opacity:0.1;color:#000000;fill:#ff00ff;fill-opacity:1;fill-rule:nonzero;stroke:none;stroke-width:1.5;marker:none;visibility:visible;display:inline;overflow:visible;enable-background:accumulate"
         d="m -52.000002,-48.00003 0,104 104,0 0,-104 -104,0 z m 52.00000024,4 c 26.50966776,0 47.99999976,21.490332 47.99999976,48 0,26.509668 -21.490332,48 -47.99999976,48 -26.50966824,0 -48.00000024,-21.490332 -48.00000024,-48 0,-26.509668 21.490332,-48 48.00000024,-48 z"
         id="path3787"
         inkscape:connector-curvature="0" />
    </clipPath>
    <radialGradient
       inkscape:collect="always"
       xlink:href="#linearGradient3761-0"
       id="radialGradient3767-7"
       cx="0"
       cy="4"
       fx="0"
       fy="4"
       r="48"
       gradientUnits="userSpaceOnUse" />
    <linearGradient
       id="linearGradient3761-0">
      <stop
         style="stop-color:#33b5e5;stop-opacity:0.39215687;"
         offset="0"
         id="stop3763-4" />
      <stop
         style="stop-color:#33b5e5;stop-opacity:0.19607843;"
         offset="1"
         id="stop3765-4" />
    </linearGradient>
    <clipPath
       clipPathUnits="userSpaceOnUse"
       id="clipPath3785-4">
      <path
         style="opacity:0.1;color:#000000;fill:#ff00ff;fill-opacity:1;fill-rule:nonzero;stroke:none;stroke-width:1.5;marker:none;visibility:visible;display:inline;overflow:visible;enable-background:accumulate"
         d="m -52.000002,-48.00003 0,104 104,0 0,-104 -104,0 z m 52.00000024,4 c 26.50966776,0 47.99999976,21.490332 47.99999976,48 0,26.509668 -21.490332,48 -47.99999976,48 -26.50966824,0 -48.00000024,-21.490332 -48.00000024,-48 0,-26.509668 21.490332,-48 48.00000024,-48 z"
         id="path3787-1"
         inkscape:connector-curvature="0" />
    </clipPath>
    <radialGradient
       inkscape:collect="always"
       xlink:href="#linearGradient3761-4"
       id="radialGradient3767-74"
       cx="0"
       cy="4"
       fx="0"
       fy="4"
       r="48"
       gradientUnits="userSpaceOnUse" />
    <linearGradient
       id="linearGradient3761-4">
      <stop
         style="stop-color:#33b5e5;stop-opacity:0.39215687;"
         offset="0"
         id="stop3763-9" />
      <stop
         style="stop-color:#33b5e5;stop-opacity:0.19607843;"
         offset="1"
         id="stop3765-2" />
    </linearGradient>
    <clipPath
       clipPathUnits="userSpaceOnUse"
       id="clipPath3785-7">
      <path
         style="opacity:0.1;color:#000000;fill:#ff00ff;fill-opacity:1;fill-rule:nonzero;stroke:none;stroke-width:1.5;marker:none;visibility:visible;display:inline;overflow:visible;enable-background:accumulate"
         d="m -52.000002,-48.00003 0,104 104,0 0,-104 -104,0 z m 52.00000024,4 c 26.50966776,0 47.99999976,21.490332 47.99999976,48 0,26.509668 -21.490332,48 -47.99999976,48 -26.50966824,0 -48.00000024,-21.490332 -48.00000024,-48 0,-26.509668 21.490332,-48 48.00000024,-48 z"
         id="path3787-6"
         inkscape:connector-curvature="0" />
    </clipPath>
    <linearGradient
       id="linearGradient3761-4-1">
      <stop
         style="stop-color:#33b5e5;stop-opacity:0.39215687;"
         offset="0"
         id="stop3763-9-4" />
      <stop
         style="stop-color:#33b5e5;stop-opacity:0.19607843;"
         offset="1"
         id="stop3765-2-9" />
    </linearGradient>
    <clipPath
       clipPathUnits="userSpaceOnUse"
       id="clipPath3785-7-2">
      <path
         style="opacity:0.1;color:#000000;fill:#ff00ff;fill-opacity:1;fill-rule:nonzero;stroke:none;stroke-width:1.5;marker:none;visibility:visible;display:inline;overflow:visible;enable-background:accumulate"
         d="m -52.000002,-48.00003 0,104 104,0 0,-104 -104,0 z m 52.00000024,4 c 26.50966776,0 47.99999976,21.490332 47.99999976,48 0,26.509668 -21.490332,48 -47.99999976,48 -26.50966824,0 -48.00000024,-21.490332 -48.00000024,-48 0,-26.509668 21.490332,-48 48.00000024,-48 z"
         id="path3787-6-8"
         inkscape:connector-curvature="0" />
    </clipPath>
    <clipPath
       clipPathUnits="userSpaceOnUse"
       id="clipPath3785-7-2-5">
      <path
         style="opacity:0.1;color:#000000;fill:#ff00ff;fill-opacity:1;fill-rule:nonzero;stroke:none;stroke-width:1.5;marker:none;visibility:visible;display:inline;overflow:visible;enable-background:accumulate"
         d="m -52.000002,-48.00003 0,104 104,0 0,-104 -104,0 z m 52.00000024,4 c 26.50966776,0 47.99999976,21.490332 47.99999976,48 0,26.509668 -21.490332,48 -47.99999976,48 -26.50966824,0 -48.00000024,-21.490332 -48.00000024,-48 0,-26.509668 21.490332,-48 48.00000024,-48 z"
         id="path3787-6-8-1"
         inkscape:connector-curvature="0" />
    </clipPath>
    <radialGradient
       inkscape:collect="always"
       xlink:href="#linearGradient3761-4-1-8"
       id="radialGradient3767-74-0-8"
       cx="0"
       cy="4"
       fx="0"
       fy="4"
       r="48"
       gradientUnits="userSpaceOnUse" />
    <linearGradient
       id="linearGradient3761-4-1-8">
      <stop
         style="stop-color:#33b5e5;stop-opacity:0.39215687;"
         offset="0"
         id="stop3763-9-4-3" />
      <stop
         style="stop-color:#33b5e5;stop-opacity:0.19607843;"
         offset="1"
         id="stop3765-2-9-0" />
    </linearGradient>
    <linearGradient
       id="linearGradient3761-4-1-8-5">
      <stop
         style="stop-color:#33b5e5;stop-opacity:0.78431374;"
         offset="0"
         id="stop3763-9-4-3-5" />
      <stop
         style="stop-color:#33b5e5;stop-opacity:0.39215687;"
         offset="1"
         id="stop3765-2-9-0-1" />
    </linearGradient>
    <clipPath
       clipPathUnits="userSpaceOnUse"
       id="clipPath3785-7-2-5-1">
      <path
         style="opacity:0.1;color:#000000;fill:#ff00ff;fill-opacity:1;fill-rule:nonzero;stroke:none;stroke-width:1.5;marker:none;visibility:visible;display:inline;overflow:visible;enable-background:accumulate"
         d="m -52.000002,-48.00003 0,104 104,0 0,-104 -104,0 z m 52.00000024,4 c 26.50966776,0 47.99999976,21.490332 47.99999976,48 0,26.509668 -21.490332,48 -47.99999976,48 -26.50966824,0 -48.00000024,-21.490332 -48.00000024,-48 0,-26.509668 21.490332,-48 48.00000024,-48 z"
         id="path3787-6-8-1-5"
         inkscape:connector-curvature="0" />
    </clipPath>
    <filter
       inkscape:collect="always"
       id="filter3789-86-5-3"
       color-interpolation-filters="sRGB">
      <feGaussianBlur
         inkscape:collect="always"
         stdDeviation="2.4"
         id="feGaussianBlur3791-6-6-4" />
    </filter>
    <linearGradient
       id="linearGradient3761-4-1-7">
      <stop
         style="stop-color:#33b5e5;stop-opacity:0.78431374;"
         offset="0"
         id="stop3763-9-4-9" />
      <stop
         style="stop-color:#33b5e5;stop-opacity:0.39215687;"
         offset="1"
         id="stop3765-2-9-6" />
    </linearGradient>
    <clipPath
       clipPathUnits="userSpaceOnUse"
       id="clipPath3785-7-2-9">
      <path
         style="opacity:0.1;color:#000000;fill:#ff00ff;fill-opacity:1;fill-rule:nonzero;stroke:none;stroke-width:1.5;marker:none;visibility:visible;display:inline;overflow:visible;enable-background:accumulate"
         d="m -52.000002,-48.00003 0,104 104,0 0,-104 -104,0 z m 52.00000024,4 c 26.50966776,0 47.99999976,21.490332 47.99999976,48 0,26.509668 -21.490332,48 -47.99999976,48 -26.50966824,0 -48.00000024,-21.490332 -48.00000024,-48 0,-26.509668 21.490332,-48 48.00000024,-48 z"
         id="path3787-6-8-3"
         inkscape:connector-curvature="0" />
    </clipPath>
    <filter
       inkscape:collect="always"
       id="filter3789-86-5"
       color-interpolation-filters="sRGB">
      <feGaussianBlur
         inkscape:collect="always"
         stdDeviation="2.4"
         id="feGaussianBlur3791-6-6" />
    </filter>
    <linearGradient
       id="linearGradient3761-4-3">
      <stop
         style="stop-color:#33b5e5;stop-opacity:0.78431374;"
         offset="0"
         id="stop3763-9-9" />
      <stop
         style="stop-color:#33b5e5;stop-opacity:0.39215687;"
         offset="1"
         id="stop3765-2-1" />
    </linearGradient>
    <clipPath
       clipPathUnits="userSpaceOnUse"
       id="clipPath3785-7-0">
      <path
         style="opacity:0.1;color:#000000;fill:#ff00ff;fill-opacity:1;fill-rule:nonzero;stroke:none;stroke-width:1.5;marker:none;visibility:visible;display:inline;overflow:visible;enable-background:accumulate"
         d="m -52.000002,-48.00003 0,104 104,0 0,-104 -104,0 z m 52.00000024,4 c 26.50966776,0 47.99999976,21.490332 47.99999976,48 0,26.509668 -21.490332,48 -47.99999976,48 -26.50966824,0 -48.00000024,-21.490332 -48.00000024,-48 0,-26.509668 21.490332,-48 48.00000024,-48 z"
         id="path3787-6-7"
         inkscape:connector-curvature="0" />
    </clipPath>
    <filter
       inkscape:collect="always"
       id="filter3789-86"
       color-interpolation-filters="sRGB">
      <feGaussianBlur
         inkscape:collect="always"
         stdDeviation="2.4"
         id="feGaussianBlur3791-6" />
    </filter>
    <linearGradient
       id="linearGradient3761-43">
      <stop
         style="stop-color:#33b5e5;stop-opacity:0.78431374;"
         offset="0"
         id="stop3763-2" />
      <stop
         style="stop-color:#33b5e5;stop-opacity:0.39215687;"
         offset="1"
         id="stop3765-49" />
    </linearGradient>
    <clipPath
       clipPathUnits="userSpaceOnUse"
       id="clipPath3785-6">
      <path
         style="opacity:0.1;color:#000000;fill:#ff00ff;fill-opacity:1;fill-rule:nonzero;stroke:none;stroke-width:1.5;marker:none;visibility:visible;display:inline;overflow:visible;enable-background:accumulate"
         d="m -52.000002,-48.00003 0,104 104,0 0,-104 -104,0 z m 52.00000024,4 c 26.50966776,0 47.99999976,21.490332 47.99999976,48 0,26.509668 -21.490332,48 -47.99999976,48 -26.50966824,0 -48.00000024,-21.490332 -48.00000024,-48 0,-26.509668 21.490332,-48 48.00000024,-48 z"
         id="path3787-8"
         inkscape:connector-curvature="0" />
    </clipPath>
    <filter
       inkscape:collect="always"
       id="filter3789"
       color-interpolation-filters="sRGB">
      <feGaussianBlur
         inkscape:collect="always"
         stdDeviation="2.4"
         id="feGaussianBlur3791" />
    </filter>
  </defs>
  <sodipodi:namedview
     id="base"
     pagecolor="#d7d7d7"
     bordercolor="#666666"
     borderopacity="1.0"
     inkscape:pageopacity="1"
     inkscape:pageshadow="2"
     inkscape:zoom="2.7339524"
     inkscape:cx="119.98718"
     inkscape:cy="56.622125"
     inkscape:document-units="px"
     inkscape:current-layer="layer1"
     showgrid="true"
     inkscape:window-width="1280"
     inkscape:window-height="970"
     inkscape:window-x="0"
     inkscape:window-y="0"
     inkscape:window-maximized="1"
     fit-margin-top="0"
     fit-margin-left="0"
     fit-margin-right="0"
     fit-margin-bottom="0" />
  <metadata
     id="metadata7">
    <rdf:RDF>
      <cc:Work
         rdf:about="">
        <dc:format>image/svg+xml</dc:format>
        <dc:type
           rdf:resource="http://purl.org/dc/dcmitype/StillImage" />
        <dc:title />
      </cc:Work>
    </rdf:RDF>
  </metadata>
  <g
     inkscape:label="Calque 1"
     inkscape:groupmode="layer"
     id="layer1"
     transform="translate(104,-902.36221)">
    <path
       sodipodi:type="arc"
       style="color:#000000;fill:#3c3b37;fill-opacity:0.82399998;fill-rule:nonzero;stroke:#161616;stroke-width:1;stroke-miterlimit:4;stroke-opacity:1;stroke-dasharray:none;marker:none;visibility:visible;display:inline;overflow:visible;enable-background:accumulate"
       id="path3759"
       sodipodi:cx="0"
       sodipodi:cy="4"
       sodipodi:rx="48"
       sodipodi:ry="48"
       d="M 48,4 C 48,30.509668 26.509668,52 0,52 -26.509668,52 -48,30.509668 -48,4 c 0,-26.509668 21.490332,-48 48,-48 26.509668,0 48,21.490332 48,48 z"
       transform="matrix(0.72115384,0,0,0.72115384,8.5000018,1011.9776)" />
    <path
       sodipodi:type="arc"
       style="color:#000000;fill:#3c3b37;fill-opacity:0.82399998;fill-rule:nonzero;stroke:#161616;stroke-width:1;stroke-miterlimit:4;stroke-opacity:1;stroke-dasharray:none;marker:none;visibility:visible;display:inline;overflow:visible;enable-background:accumulate"
       id="path3759-3"
       sodipodi:cx="0"
       sodipodi:cy="4"
       sodipodi:rx="48"
       sodipodi:ry="48"
       d="M 48,4 C 48,30.509668 26.509668,52 0,52 -26.509668,52 -48,30.509668 -48,4 c 0,-26.509668 21.490332,-48 48,-48 26.509668,0 48,21.490332 48,48 z"
       transform="matrix(0.72115384,0,0,0.72115384,-66.499999,1011.9776)" />
    <path
       transform="matrix(0.72115384,0,0,0.72115384,8.5000018,1011.9776)"
       d="M 48,4 C 48,30.509668 26.509668,52 0,52 -26.509668,52 -48,30.509668 -48,4 c 0,-26.509668 21.490332,-48 48,-48 26.509668,0 48,21.490332 48,48 z"
       sodipodi:ry="48"
       sodipodi:rx="48"
       sodipodi:cy="4"
       sodipodi:cx="0"
       id="path3783"
       style="color:#000000;fill:#000000;fill-opacity:1;fill-rule:nonzero;stroke:none;stroke-width:1.5;marker:none;visibility:visible;display:inline;overflow:visible;filter:url(#filter3789);enable-background:accumulate"
       sodipodi:type="arc"
       clip-path="url(#clipPath3785-6)" />
    <path
       style="color:#000000;fill:#161616;fill-opacity:0;fill-rule:nonzero;stroke:none;stroke-width:1.5;marker:none;visibility:visible;display:inline;overflow:visible;enable-background:accumulate"
       d="m 8.5000018,980.24684 c -19.1175498,0 -34.6153848,15.49781 -34.6153848,34.61536 0,19.1176 15.497835,34.6154 34.6153848,34.6154 19.1175502,0 34.6153812,-15.4978 34.6153812,-34.6154 0,-19.11755 -15.497831,-34.61536 -34.6153812,-34.61536 z m 0,0.72115 c 18.7192642,0 33.8942302,15.17495 33.8942302,33.89421 0,18.7192 -15.174966,33.8942 -33.8942302,33.8942 -18.7192638,0 -33.8942308,-15.175 -33.8942308,-33.8942 0,-18.71926 15.174967,-33.89421 33.8942308,-33.89421 z"
       id="path3769"
       inkscape:connector-curvature="0" />
    <path
       sodipodi:type="arc"
       style="color:#000000;fill:#3c3b37;fill-opacity:0.82399998;fill-rule:nonzero;stroke:#161616;stroke-width:1;stroke-miterlimit:4;stroke-opacity:1;stroke-dasharray:none;marker:none;visibility:visible;display:inline;overflow:visible;enable-background:accumulate"
       id="path3759-3-5"
       sodipodi:cx="0"
       sodipodi:cy="4"
       sodipodi:rx="48"
       sodipodi:ry="48"
       d="M 48,4 C 48,30.509668 26.509668,52 0,52 -26.509668,52 -48,30.509668 -48,4 c 0,-26.509668 21.490332,-48 48,-48 26.509668,0 48,21.490332 48,48 z"
       transform="matrix(0.72115384,0,0,0.72115384,-66.499999,936.97762)" />
    <rect
       style="opacity:0;color:#000000;fill:none;stroke:none;stroke-width:1.5;marker:none;visibility:visible;display:inline;overflow:visible;enable-background:accumulate"
       id="rect3793"
       width="37.5"
       height="37.5"
       x="-10.249998"
       y="996.11218"
       inkscape:export-filename="/home/matthieu/.themes/MyDwaita/gnome-shell/corner-ripple-ltr.png"
       inkscape:export-xdpi="90"
       inkscape:export-ydpi="90" />
    <rect
       y="996.11218"
       x="-10.249998"
       height="37.5"
       width="37.5"
       id="rect3795"
       style="opacity:0;color:#000000;fill:none;stroke:none;stroke-width:1.5;marker:none;visibility:visible;display:inline;overflow:visible;enable-background:accumulate"
       inkscape:export-filename="/home/matthieu/.themes/MyDwaita/gnome-shell/corner-ripple-rtl.png"
       inkscape:export-xdpi="90"
       inkscape:export-ydpi="90" />
    <path
       transform="matrix(0.72115384,0,0,0.72115384,-66.499999,1011.9776)"
       d="M 48,4 C 48,30.509668 26.509668,52 0,52 -26.509668,52 -48,30.509668 -48,4 c 0,-26.509668 21.490332,-48 48,-48 26.509668,0 48,21.490332 48,48 z"
       sodipodi:ry="48"
       sodipodi:rx="48"
       sodipodi:cy="4"
       sodipodi:cx="0"
       id="path3783-8"
       style="color:#000000;fill:#000000;fill-opacity:1;fill-rule:nonzero;stroke:none;stroke-width:1.5;marker:none;visibility:visible;display:inline;overflow:visible;filter:url(#filter3789-86);enable-background:accumulate"
       sodipodi:type="arc"
       clip-path="url(#clipPath3785-7-0)" />
    <path
       style="color:#000000;fill:#161616;fill-opacity:0;fill-rule:nonzero;stroke:none;stroke-width:1.5;marker:none;visibility:visible;display:inline;overflow:visible;enable-background:accumulate"
       d="m -66.499999,980.24684 c -19.11755,0 -34.615391,15.49788 -34.615391,34.61536 0,19.1176 15.497841,34.6154 34.615391,34.6154 19.117551,0 34.615386,-15.4978 34.615386,-34.6154 0,-19.11748 -15.497835,-34.61536 -34.615386,-34.61536 z m 0,0.72115 c 18.719264,0 33.894231,15.17495 33.894231,33.89421 0,18.7192 -15.174967,33.8942 -33.894231,33.8942 -18.719264,0 -33.894231,-15.175 -33.894231,-33.8942 0,-18.71926 15.174967,-33.89421 33.894231,-33.89421 z"
       id="path3769-5"
       inkscape:connector-curvature="0" />
    <path
       sodipodi:type="arc"
       style="color:#000000;fill:#3c3b37;fill-opacity:0.82399998;fill-rule:nonzero;stroke:#161616;stroke-width:1;stroke-miterlimit:4;stroke-opacity:1;stroke-dasharray:none;marker:none;visibility:visible;display:inline;overflow:visible;enable-background:accumulate"
       id="path3759-3-5-9"
       sodipodi:cx="0"
       sodipodi:cy="4"
       sodipodi:rx="48"
       sodipodi:ry="48"
       d="M 48,4 C 48,30.509668 26.509668,52 0,52 -26.509668,52 -48,30.509668 -48,4 c 0,-26.509668 21.490332,-48 48,-48 26.509668,0 48,21.490332 48,48 z"
       transform="matrix(0.72115384,0,0,0.72115384,8.5000018,936.97762)" />
    <rect
       style="opacity:0;color:#000000;fill:none;stroke:none;stroke-width:1.5;marker:none;visibility:visible;display:inline;overflow:visible;enable-background:accumulate"
       id="rect3793-6"
       width="37.5"
       height="37.5"
       x="-85.249992"
       y="996.11218"
       inkscape:export-filename="/home/matthieu/.themes/MyDwaita/gnome-shell/corner-ripple-ltr.png"
       inkscape:export-xdpi="90"
       inkscape:export-ydpi="90" />
    <rect
       y="996.11218"
       x="-85.249992"
       height="37.5"
       width="37.5"
       id="rect3795-1"
       style="opacity:0;color:#000000;fill:none;stroke:none;stroke-width:1.5;marker:none;visibility:visible;display:inline;overflow:visible;enable-background:accumulate"
       inkscape:export-filename="/home/matthieu/.themes/MyDwaita/gnome-shell/corner-ripple-rtl.png"
       inkscape:export-xdpi="90"
       inkscape:export-ydpi="90" />
    <path
       transform="matrix(0.72115384,0,0,0.72115384,-66.499999,936.97762)"
       d="M 48,4 C 48,30.509668 26.509668,52 0,52 -26.509668,52 -48,30.509668 -48,4 c 0,-26.509668 21.490332,-48 48,-48 26.509668,0 48,21.490332 48,48 z"
       sodipodi:ry="48"
       sodipodi:rx="48"
       sodipodi:cy="4"
       sodipodi:cx="0"
       id="path3783-8-2"
       style="color:#000000;fill:#000000;fill-opacity:1;fill-rule:nonzero;stroke:none;stroke-width:1.5;marker:none;visibility:visible;display:inline;overflow:visible;filter:url(#filter3789-86-5);enable-background:accumulate"
       sodipodi:type="arc"
       clip-path="url(#clipPath3785-7-2-9)" />
    <path
       style="color:#000000;fill:#161616;fill-opacity:0;fill-rule:nonzero;stroke:none;stroke-width:1.5;marker:none;visibility:visible;display:inline;overflow:visible;enable-background:accumulate"
       d="m -66.499999,905.24688 c -19.11755,0 -34.615391,15.49788 -34.615391,34.61534 0,19.11756 15.497841,34.61539 34.615391,34.61539 19.117551,0 34.615386,-15.49783 34.615386,-34.61539 0,-19.11746 -15.497835,-34.61534 -34.615386,-34.61534 z m 0,0.72115 c 18.719264,0 33.894231,15.17495 33.894231,33.89419 0,18.71928 -15.174967,33.89423 -33.894231,33.89423 -18.719264,0 -33.894231,-15.17495 -33.894231,-33.89423 0,-18.71924 15.174967,-33.89419 33.894231,-33.89419 z"
       id="path3769-5-5"
       inkscape:connector-curvature="0" />
    <rect
       style="opacity:0;color:#000000;fill:none;stroke:none;stroke-width:1.5;marker:none;visibility:visible;display:inline;overflow:visible;enable-background:accumulate"
       id="rect3793-6-9-94"
       width="37.5"
       height="37.5"
       x="-85.249992"
       y="921.11218"
       inkscape:export-filename="/home/matthieu/.themes/MyDwaita/gnome-shell/corner-ripple-ltr.png"
       inkscape:export-xdpi="90"
       inkscape:export-ydpi="90" />
    <rect
       y="921.11218"
       x="-85.249992"
       height="37.5"
       width="37.5"
       id="rect3795-1-1-6"
       style="opacity:0;color:#000000;fill:none;stroke:none;stroke-width:1.5;marker:none;visibility:visible;display:inline;overflow:visible;enable-background:accumulate"
       inkscape:export-filename="/home/matthieu/.themes/MyDwaita/gnome-shell/corner-ripple-rtl.png"
       inkscape:export-xdpi="90"
       inkscape:export-ydpi="90" />
    <path
       transform="matrix(0.72115384,0,0,0.72115384,8.5000018,936.97762)"
       d="M 48,4 C 48,30.509668 26.509668,52 0,52 -26.509668,52 -48,30.509668 -48,4 c 0,-26.509668 21.490332,-48 48,-48 26.509668,0 48,21.490332 48,48 z"
       sodipodi:ry="48"
       sodipodi:rx="48"
       sodipodi:cy="4"
       sodipodi:cx="0"
       id="path3783-8-2-7"
       style="color:#000000;fill:#000000;fill-opacity:1;fill-rule:nonzero;stroke:none;stroke-width:1.5;marker:none;visibility:visible;display:inline;overflow:visible;filter:url(#filter3789-86-5-3);enable-background:accumulate"
       sodipodi:type="arc"
       clip-path="url(#clipPath3785-7-2-5-1)" />
    <path
       style="color:#000000;fill:#161616;fill-opacity:0;fill-rule:nonzero;stroke:none;stroke-width:1.5;marker:none;visibility:visible;display:inline;overflow:visible;enable-background:accumulate"
       d="m 8.5000018,905.24693 c -19.1175498,0 -34.6153848,15.49788 -34.6153848,34.61531 0,19.11757 15.497835,34.61537 34.6153848,34.61537 19.1175502,0 34.6153812,-15.4978 34.6153812,-34.61537 0,-19.11743 -15.497831,-34.61531 -34.6153812,-34.61531 z m 0,0.72115 c 18.7192642,0 33.8942302,15.17495 33.8942302,33.89416 0,18.71928 -15.174966,33.89421 -33.8942302,33.89421 -18.7192638,0 -33.8942308,-15.17493 -33.8942308,-33.89421 0,-18.71921 15.174967,-33.89416 33.8942308,-33.89416 z"
       id="path3769-5-5-0"
       inkscape:connector-curvature="0" />
    <rect
       style="opacity:0;color:#000000;fill:none;stroke:none;stroke-width:1.5;marker:none;visibility:visible;display:inline;overflow:visible;enable-background:accumulate"
       id="rect3793-6-9-5"
       width="37.5"
       height="37.5"
       x="-10.249998"
       y="921.11218"
       inkscape:export-filename="/home/matthieu/.themes/MyDwaita/gnome-shell/corner-ripple-ltr.png"
       inkscape:export-xdpi="90"
       inkscape:export-ydpi="90" />
    <rect
       y="921.11218"
       x="-10.249998"
       height="37.5"
       width="37.5"
       id="rect3795-1-1-7"
       style="opacity:0;color:#000000;fill:none;stroke:none;stroke-width:1.5;marker:none;visibility:visible;display:inline;overflow:visible;enable-background:accumulate"
       inkscape:export-filename="/home/matthieu/.themes/MyDwaita/gnome-shell/corner-ripple-rtl.png"
       inkscape:export-xdpi="90"
       inkscape:export-ydpi="90" />
    <path
       style="opacity:0;color:#000000;fill:none;stroke:#4a90d9;stroke-width:1.08176661;stroke-opacity:1;marker:none;visibility:visible;display:inline;overflow:visible;enable-background:accumulate"
       d="m -86.440191,914.50913 45.312137,0 0,45.27861 -45.312137,0 z"
       id="rect3793-6-9"
       inkscape:connector-curvature="0" />
    <path
       style="opacity:0;color:#000000;fill:none;stroke:#4a90d9;stroke-width:1.08176661;stroke-opacity:1;marker:none;visibility:visible;display:inline;overflow:visible;enable-background:accumulate"
       d="m -86.440191,914.50913 45.312137,0 0,45.27861 -45.312137,0 z"
       id="rect3795-1-1"
       inkscape:connector-curvature="0" />
    <g
       transform="matrix(0,-0.52547062,0.52624658,0,-391.29049,959.09882)"
       style="stroke:#e6e6e6;stroke-opacity:1"
       id="g4155-4-4">
      <path
         style="fill:none;stroke:#e6e6e6;stroke-width:12.72093487;stroke-miterlimit:4;stroke-opacity:1;stroke-dasharray:none"
         id="in-9-6"
         d="m 15.798885,759.68151 c 0,0 20.859485,0 20.859485,0 0,0 0,20.81356 0,20.81356 0,11.48925 -9.345064,20.81381 -20.859485,20.81381 -11.5144335,0 -20.8594855,-9.32456 -20.8594855,-20.81381 0,-11.48901 9.345052,-20.81356 20.8594855,-20.81356 z"
         inkscape:connector-curvature="0" />
      <use
         style="fill:none;stroke:#e6e6e6;stroke-width:10.53199959;stroke-miterlimit:4;stroke-opacity:1;stroke-dasharray:none"
         xlink:href="#in-9-6"
         id="finity-0-5"
         transform="matrix(-0.99999999,0,0,-1,73.216205,1519.4036)"
         x="0"
         y="0"
         width="744.09448"
         height="1052.3622" />
    </g>
    <g
       transform="matrix(-0.52547062,0,0,-0.52624658,-47.263526,1339.6528)"
       style="stroke:#e6e6e6;stroke-opacity:1"
       id="g4155-4-4-5">
      <path
         style="fill:none;stroke:#e6e6e6;stroke-width:12.72093487;stroke-miterlimit:4;stroke-opacity:1;stroke-dasharray:none"
         id="in-9-6-8"
         d="m 15.798885,759.68151 c 0,0 20.859485,0 20.859485,0 0,0 0,20.81356 0,20.81356 0,11.48925 -9.345064,20.81381 -20.859485,20.81381 -11.5144335,0 -20.8594855,-9.32456 -20.8594855,-20.81381 0,-11.48901 9.345052,-20.81356 20.8594855,-20.81356 z"
         inkscape:connector-curvature="0" />
      <use
         style="fill:none;stroke:#e6e6e6;stroke-width:10.53199959;stroke-miterlimit:4;stroke-opacity:1;stroke-dasharray:none"
         xlink:href="#in-9-6-8"
         id="finity-0-5-0"
         transform="matrix(-0.99999999,0,0,-1,73.216205,1519.4036)"
         x="0"
         y="0"
         width="744.09448"
         height="1052.3622" />
    </g>
    <g
       transform="matrix(0,0.52547062,-0.52624658,0,333.29047,995.62582)"
       style="stroke:#e6e6e6;stroke-opacity:1"
       id="g4155-4-4-5-4">
      <path
         style="fill:none;stroke:#e6e6e6;stroke-width:12.72093487;stroke-miterlimit:4;stroke-opacity:1;stroke-dasharray:none"
         id="in-9-6-8-1"
         d="m 15.798885,759.68151 c 0,0 20.859485,0 20.859485,0 0,0 0,20.81356 0,20.81356 0,11.48925 -9.345064,20.81381 -20.859485,20.81381 -11.5144335,0 -20.8594855,-9.32456 -20.8594855,-20.81381 0,-11.48901 9.345052,-20.81356 20.8594855,-20.81356 z"
         inkscape:connector-curvature="0" />
      <use
         style="fill:none;stroke:#e6e6e6;stroke-width:10.53199959;stroke-miterlimit:4;stroke-opacity:1;stroke-dasharray:none"
         xlink:href="#in-9-6-8-1"
         id="finity-0-5-0-8"
         transform="matrix(-0.99999999,0,0,-1,73.216205,1519.4036)"
         x="0"
         y="0"
         width="744.09448"
         height="1052.3622" />
    </g>
    <g
       transform="matrix(-0.52547062,0,0,-0.52624658,27.736473,1414.6528)"
       style="stroke:#e6e6e6;stroke-opacity:1"
       id="g4155-4-4-5-4-9">
      <path
         style="fill:none;stroke:#e6e6e6;stroke-width:12.72093487;stroke-miterlimit:4;stroke-opacity:1;stroke-dasharray:none"
         id="in-9-6-8-1-0"
         d="m 15.798885,759.68151 c 0,0 20.859485,0 20.859485,0 0,0 0,20.81356 0,20.81356 0,11.48925 -9.345064,20.81381 -20.859485,20.81381 -11.5144335,0 -20.8594855,-9.32456 -20.8594855,-20.81381 0,-11.48901 9.345052,-20.81356 20.8594855,-20.81356 z"
         inkscape:connector-curvature="0" />
      <use
         style="fill:none;stroke:#e6e6e6;stroke-width:10.53199959;stroke-miterlimit:4;stroke-opacity:1;stroke-dasharray:none"
         xlink:href="#in-9-6-8-1-0"
         id="finity-0-5-0-8-9"
         transform="matrix(-0.99999999,0,0,-1,73.216205,1519.4036)"
         x="0"
         y="0"
         width="744.09448"
         height="1052.3622" />
    </g>
  </g>
</svg>
