<?xml version="1.0" encoding="UTF-8" standalone="no"?>
<!-- Created with Inkscape (http://www.inkscape.org/) -->

<svg
   xmlns:dc="http://purl.org/dc/elements/1.1/"
   xmlns:cc="http://creativecommons.org/ns#"
   xmlns:rdf="http://www.w3.org/1999/02/22-rdf-syntax-ns#"
   xmlns:svg="http://www.w3.org/2000/svg"
   xmlns="http://www.w3.org/2000/svg"
   xmlns:sodipodi="http://sodipodi.sourceforge.net/DTD/sodipodi-0.dtd"
   xmlns:inkscape="http://www.inkscape.org/namespaces/inkscape"
   width="40"
   height="40"
   id="svg3768"
   version="1.1"
   inkscape:version="0.91 r13725"
   sodipodi:docname="workspace-close.svg">
  <defs
     id="defs3770">
    <clipPath
       clipPathUnits="userSpaceOnUse"
       id="clipPath3760">
      <rect
         style="fill:#3c3b37;fill-opacity:1;stroke:none"
         id="rect3762"
         width="32"
         height="32"
         x="1.8622208e-09"
         y="-4.8535156e-07" />
    </clipPath>
    <clipPath
       clipPathUnits="userSpaceOnUse"
       id="clipPath3764">
      <rect
         style="fill:#3c3b37;fill-opacity:1;stroke:none"
         id="rect3766"
         width="32"
         height="32"
         x="-0.043690428"
         y="32.063828" />
    </clipPath>
  </defs>
  <sodipodi:namedview
     id="base"
     pagecolor="#ffffff"
     bordercolor="#666666"
     borderopacity="1.0"
     inkscape:pageopacity="1"
     inkscape:pageshadow="2"
     inkscape:zoom="15.703664"
     inkscape:cx="18.766216"
     inkscape:cy="20.651351"
     inkscape:current-layer="layer1"
     showgrid="true"
     inkscape:document-units="px"
     inkscape:grid-bbox="true"
     inkscape:window-width="1280"
     inkscape:window-height="966"
     inkscape:window-x="0"
     inkscape:window-y="0"
     inkscape:window-maximized="1"
     fit-margin-top="0"
     fit-margin-left="0"
     fit-margin-right="0"
     fit-margin-bottom="0"
     inkscape:snap-smooth-nodes="true"
     inkscape:object-nodes="true">
    <inkscape:grid
       type="xygrid"
       id="grid4311"
       empspacing="5"
       visible="true"
       enabled="true"
       snapvisiblegridlinesonly="true"
       originx="-0.01244px"
       originy="-0.0013276774px" />
  </sodipodi:namedview>
  <metadata
     id="metadata3773">
    <rdf:RDF>
      <cc:Work
         rdf:about="">
        <dc:format>image/svg+xml</dc:format>
        <dc:type
           rdf:resource="http://purl.org/dc/dcmitype/StillImage" />
        <dc:title />
      </cc:Work>
    </rdf:RDF>
  </metadata>
  <g
     id="layer1"
     inkscape:label="Layer 1"
     inkscape:groupmode="layer"
     transform="translate(0.03125,-24.0625)">
    <rect
       style="fill:#000000;fill-opacity:0.74509805;stroke:none;stroke-width:1.06200004;stroke-linecap:butt;stroke-linejoin:round;stroke-miterlimit:4;stroke-dasharray:none;stroke-opacity:1"
       id="rect4910"
       width="34"
       height="34"
       x="2.96875"
       y="27.0625"
       rx="3.8382049"
       ry="3.8382039" />
  </g>
  <g
     inkscape:groupmode="layer"
     id="layer2"
     inkscape:label="Слой"
     transform="translate(-0.01244,8.001328)">
    <path
       style="color:#000000;fill:#eae3d1;fill-opacity:1;fill-rule:nonzero;stroke:#000000;stroke-width:0;stroke-linejoin:round;stroke-miterlimit:4;stroke-opacity:1;stroke-dasharray:none;marker:none;visibility:visible;display:inline;overflow:visible;enable-background:accumulate"
       d="m 16.382694,6.6862597 c -0.137972,0 -0.282195,0.032555 -0.387913,0.1384353 l -1.136026,1.1352056 c -0.21144,0.2117548 -0.21144,0.5635038 0,0.7752598 l 3.241832,3.2671756 -3.241832,3.239486 c -0.211757,0.211905 -0.211757,0.563362 0,0.775263 l 1.136026,1.135204 c 0.211756,0.211905 0.564067,0.211905 0.775823,0 l 3.241831,-3.239483 3.241834,3.239486 c 0.211439,0.211758 0.564384,0.211758 0.775824,0 l 1.136024,-1.135205 c 0.211441,-0.211756 0.211441,-0.563505 0,-0.775261 l -3.241832,-3.239487 3.241832,-3.2671756 c 0.211757,-0.211901 0.211757,-0.563359 0,-0.7752607 L 24.030093,6.8246982 C 23.924225,6.7187464 23.752649,6.6862629 23.614472,6.6862629 c -0.138181,0 -0.254326,0.032502 -0.360203,0.1384353 L 20.012435,10.064188 16.770604,6.8247014 C 16.664886,6.7188237 16.520663,6.686265 16.382694,6.686265 z"
       id="rect2987"
       inkscape:connector-curvature="0" />
  </g>
</svg>
