/* XPM */
static char * close_active_xpm[] = {
"24 24 89 1",
" 	c None",
".	c #313133",
"+	c #4B5252",
"@	c #4B5151",
"#	c #4A5152",
"$	c #4A5151",
"%	c #4B5152",
"&	c #4A5051",
"*	c #495150",
"=	c #4A5050",
"-	c #495050",
";	c #506350",
">	c #6CAE4C",
",	c #79C84A",
"'	c #7ACA49",
")	c #6CAD4C",
"!	c #4E654F",
"~	c #494F50",
"{	c #49504F",
"]	c #5F924D",
"^	c #7ACD49",
"/	c #78C13F",
"(	c #75BA3D",
"_	c #75B93C",
":	c #79C23F",
"<	c #7ACC4A",
"[	c #5F914D",
"}	c #484F4F",
"|	c #494F4F",
"1	c #7ACA48",
"2	c #76B93C",
"3	c #7BCA48",
"4	c #5E914D",
"5	c #484F4E",
"6	c #484E4E",
"7	c #474F4E",
"8	c #4E624E",
"9	c #4E644E",
"0	c #484E4F",
"a	c #474D4E",
"b	c #474E4E",
"c	c #6CAF4B",
"d	c #78C23F",
"e	c #6BAC4C",
"f	c #484D4E",
"g	c #474D4D",
"h	c #474E4D",
"i	c #464D4D",
"j	c #7BCA49",
"k	c #464D4C",
"l	c #474D4C",
"m	c #464C4C",
"n	c #464C4B",
"o	c #454C4C",
"p	c #79C849",
"q	c #78C849",
"r	c #454C4B",
"s	c #454B4B",
"t	c #6BAD4A",
"u	c #6BAC4A",
"v	c #444B4B",
"w	c #444A4A",
"x	c #444B4A",
"y	c #444A4B",
"z	c #4A604B",
"A	c #7ACB49",
"B	c #4B5F4A",
"C	c #444A49",
"D	c #5D8E4A",
"E	c #7ACA45",
"F	c #7BCA47",
"G	c #5D8F49",
"H	c #434A49",
"I	c #5C8F49",
"J	c #5D8F48",
"K	c #434949",
"L	c #434948",
"M	c #4B5E4A",
"N	c #6BAC49",
"O	c #79CA48",
"P	c #6AAC4A",
"Q	c #496048",
"R	c #424949",
"S	c #424848",
"T	c #424747",
"U	c #414847",
"V	c #414748",
"W	c #424748",
"X	c #414747",
"........................",
"++++++++++++++++++++++++",
"++++++++++++++++++++++++",
"++++++++++++++++++++++++",
"@+@@+@@+@+@+@+@+@+@+@+++",
"#$%#$%#$#$#$#$#$#$#$%#@$",
"&&*&&*&&&&&&&&&&&&&&*&*$",
"=*-=*-=*;>,'',)!=*=*-*-&",
"~{{~{{~]^/(__(:<[{~{{-~~",
"}}|}}|]12______(34}}|||}",
"567568^2________(<967}00",
"abbabcd__________:ebbbf6",
"gghgg,(__________(,ghhgg",
"iigiij____________'igikl",
"mmkmm'____________'mkmkm",
"noonop(__________(qoomrs",
"ssssst:__________dussssv",
"wxywxzA(________(ABxyvsw",
"wwCwwCDE(______(FGwwCwww",
"HHCHHCHIA:(__(:AJHHHCKKw",
"KLKKLKKLMNpOOpPQKLKLKKRK",
"RSSRSSRSRSRSRSRSRSRSSSSS",
"TUVTUVTUTUTUTUTUTUTUVWSS",
"XXXXXXXXXXXXXXXXXXXXXVTX"};
