/* XPM */
static char * close_prelight_xpm[] = {
"24 24 97 2",
"  	c None",
". 	c #313133",
"+ 	c #4B5252",
"@ 	c #4B5151",
"# 	c #4A5152",
"$ 	c #4A5151",
"% 	c #4B5152",
"& 	c #4A5051",
"* 	c #495150",
"= 	c #4A5050",
"- 	c #495050",
"; 	c #506350",
"> 	c #6CAE4C",
", 	c #79C84A",
"' 	c #7ACA49",
") 	c #6CAD4C",
"! 	c #4E654F",
"~ 	c #494F50",
"{ 	c #49504F",
"] 	c #5F924D",
"^ 	c #7ACD49",
"/ 	c #78C13F",
"( 	c #75BA3D",
"_ 	c #75B93C",
": 	c #79C23F",
"< 	c #7ACC4A",
"[ 	c #5F914D",
"} 	c #484F4F",
"| 	c #494F4F",
"1 	c #7ACA48",
"2 	c #76B93C",
"3 	c #7BCA48",
"4 	c #5E914D",
"5 	c #484F4E",
"6 	c #484E4E",
"7 	c #474F4E",
"8 	c #4E624E",
"9 	c #84C151",
"0 	c #A2D07C",
"a 	c #A3D07D",
"b 	c #4E644E",
"c 	c #484E4F",
"d 	c #474D4E",
"e 	c #474E4E",
"f 	c #6CAF4B",
"g 	c #78C23F",
"h 	c #FFFFFF",
"i 	c #B7DA99",
"j 	c #6BAC4C",
"k 	c #484D4E",
"l 	c #474D4D",
"m 	c #474E4D",
"n 	c #464D4D",
"o 	c #7BCA49",
"p 	c #B4D995",
"q 	c #B8DB9B",
"r 	c #464D4C",
"s 	c #474D4C",
"t 	c #464C4C",
"u 	c #B9DB9C",
"v 	c #464C4B",
"w 	c #454C4C",
"x 	c #79C849",
"y 	c #78C849",
"z 	c #454C4B",
"A 	c #454B4B",
"B 	c #6BAD4A",
"C 	c #6BAC4A",
"D 	c #444B4B",
"E 	c #444A4A",
"F 	c #444B4A",
"G 	c #444A4B",
"H 	c #4A604B",
"I 	c #7ACB49",
"J 	c #4B5F4A",
"K 	c #444A49",
"L 	c #5D8E4A",
"M 	c #7ACA45",
"N 	c #7BCA47",
"O 	c #5D8F49",
"P 	c #434A49",
"Q 	c #5C8F49",
"R 	c #5D8F48",
"S 	c #434949",
"T 	c #434948",
"U 	c #4B5E4A",
"V 	c #6BAC49",
"W 	c #79CA48",
"X 	c #6AAC4A",
"Y 	c #496048",
"Z 	c #424949",
"` 	c #424848",
" .	c #424747",
"..	c #414847",
"+.	c #414748",
"@.	c #424748",
"#.	c #414747",
". . . . . . . . . . . . . . . . . . . . . . . . ",
"+ + + + + + + + + + + + + + + + + + + + + + + + ",
"+ + + + + + + + + + + + + + + + + + + + + + + + ",
"+ + + + + + + + + + + + + + + + + + + + + + + + ",
"@ + @ @ + @ @ + @ + @ + @ + @ + @ + @ + @ + + + ",
"# $ % # $ % # $ # $ # $ # $ # $ # $ # $ % # @ $ ",
"& & * & & * & & & & & & & & & & & & & & * & * $ ",
"= * - = * - = * ; > , ' ' , ) ! = * = * - * - & ",
"~ { { ~ { { ~ ] ^ / ( _ _ ( : < [ { ~ { { - ~ ~ ",
"} } | } } | ] 1 2 _ _ _ _ _ _ ( 3 4 } } | | | } ",
"5 6 7 5 6 8 ^ 2 9 0 _ _ _ _ a 9 ( < b 6 7 } c c ",
"d e e d e f g _ a h i _ _ i h a _ : j e e e k 6 ",
"l l m l l , ( _ _ i h i i h i _ _ ( , l m m l l ",
"n n l n n o _ _ _ _ p h h q _ _ _ _ ' n l n r s ",
"t t r t t ' _ _ _ _ p h h u _ _ _ _ ' t r t r t ",
"v w w v w x ( _ _ p h q p h u _ _ ( y w w t z A ",
"A A A A A B : _ a h i _ _ i h a _ g C A A A A D ",
"E F G E F H I ( 9 0 _ _ _ _ 0 9 ( I J F G D A E ",
"E E K E E K L M ( _ _ _ _ _ _ ( N O E E K E E E ",
"P P K P P K P Q I : ( _ _ ( : I R P P P K S S E ",
"S T S S T S S T U V x W W x X Y S T S T S S Z S ",
"Z ` ` Z ` ` Z ` Z ` Z ` Z ` Z ` Z ` Z ` ` ` ` ` ",
" ...+. ...+. ... ... ... ... ... ... ...+.@.` ` ",
"#.#.#.#.#.#.#.#.#.#.#.#.#.#.#.#.#.#.#.#.#.+. .#."};
