/* XPM */
static char * close_active_xpm[] = {
"28 36 98 2",
"  	c None",
". 	c #323A3F",
"+ 	c #414B51",
"@ 	c #414B50",
"# 	c #414A50",
"$ 	c #404A50",
"% 	c #404950",
"& 	c #3F494F",
"* 	c #414D50",
"= 	c #5B8058",
"- 	c #71A260",
"; 	c #7BB765",
"> 	c #80BC67",
", 	c #70A360",
"' 	c #5B7F59",
") 	c #5A7E57",
"! 	c #7DB666",
"~ 	c #7BB762",
"{ 	c #74B05A",
"] 	c #6EA953",
"^ 	c #6CA650",
"/ 	c #75B159",
"( 	c #7CB863",
"_ 	c #7CB866",
": 	c #5B7D58",
"< 	c #414B4F",
"[ 	c #68985D",
"} 	c #80BB65",
"| 	c #70AC55",
"1 	c #6AA44E",
"2 	c #71AC56",
"3 	c #7FBB65",
"4 	c #69975E",
"5 	c #3E494E",
"6 	c #7CB963",
"7 	c #6CA651",
"8 	c #68975C",
"9 	c #3E484E",
"0 	c #6CA750",
"a 	c #80BC66",
"b 	c #587B57",
"c 	c #3D484D",
"d 	c #404A4D",
"e 	c #7CB765",
"f 	c #71AB55",
"g 	c #7DB765",
"h 	c #3F4C4E",
"i 	c #3D474D",
"j 	c #5A7F57",
"k 	c #7BB862",
"l 	c #5A7D57",
"m 	c #3D474E",
"n 	c #74B059",
"o 	c #75B05A",
"p 	c #71A35F",
"q 	c #7BB563",
"r 	c #6EAA53",
"s 	c #7BB565",
"t 	c #3C464D",
"u 	c #80BD67",
"v 	c #6CA64F",
"w 	c #81BC68",
"x 	c #3D474C",
"y 	c #80BD66",
"z 	c #3C464C",
"A 	c #3B464B",
"B 	c #6FA35F",
"C 	c #6FA15F",
"D 	c #3C454B",
"E 	c #5A7E56",
"F 	c #7CB763",
"G 	c #5A7C56",
"H 	c #3B454B",
"I 	c #3E474B",
"J 	c #72AD56",
"K 	c #3D494C",
"L 	c #597C55",
"M 	c #577955",
"N 	c #68965C",
"O 	c #3A444A",
"P 	c #3D464A",
"Q 	c #67965B",
"R 	c #67955B",
"S 	c #3A454A",
"T 	c #567A54",
"U 	c #74B159",
"V 	c #6FA953",
"W 	c #557A54",
"X 	c #3C484B",
"Y 	c #6FA25E",
"Z 	c #7CB563",
"` 	c #6FA15E",
" .	c #597B55",
"..	c #394349",
"+.	c #394449",
"@.	c #384348",
"#.	c #394348",
"$.	c #384248",
". . . . . . . . . . . . . . . . . . . . . . . . . . . . ",
"+ + + + + + + + + + + + + + + + + + + + + + + + + + + + ",
"+ + + + + + + + + + + + + + + + + + + + + + + + + + + + ",
"@ @ @ @ @ @ @ @ @ @ @ @ @ @ @ @ @ @ @ @ @ @ @ @ @ @ @ @ ",
"# # # # # # # # # # # # # # # # # # # # # # # # # # # # ",
"$ $ $ $ $ $ $ $ $ $ $ $ $ $ $ $ $ $ $ $ $ $ $ $ $ $ $ $ ",
"$ $ $ $ $ $ $ $ $ $ $ $ $ $ $ $ $ $ $ $ $ $ $ $ $ $ $ $ ",
"% % % % % % % % % % % % % % % % % % % % % % % % % % % % ",
"& & & & & & & & & * = - ; > > ; , ' * & & & & & & & & & ",
"& & & & & & & & ) ! ~ { ] ^ ^ ] / ( _ : & & & & & & & & ",
"& & & & & & < [ } | 1 1 1 1 1 1 1 1 2 3 4 < & & & & & & ",
"5 5 5 5 5 5 [ 6 ^ 1 1 1 1 1 1 1 1 1 1 7 6 8 5 5 5 5 5 5 ",
"9 9 9 9 9 ) } 7 1 1 1 1 1 1 1 1 1 1 1 1 0 a b 9 9 9 9 9 ",
"c c c c d e f 1 1 1 1 1 1 1 1 1 1 1 1 1 1 2 g h c c c c ",
"i i i i j ~ 1 1 1 1 1 1 1 1 1 1 1 1 1 1 1 1 k l i i i i ",
"m m m m , n 1 1 1 1 1 1 1 1 1 1 1 1 1 1 1 1 o p m m m m ",
"i i i i q ] 1 1 1 1 1 1 1 1 1 1 1 1 1 1 1 1 r s i i i i ",
"t t t t u v 1 1 1 1 1 1 1 1 1 1 1 1 1 1 1 1 ^ w t t t t ",
"x x x x y ^ 1 1 1 1 1 1 1 1 1 1 1 1 1 1 1 1 7 > x x x x ",
"z z z z q ] 1 1 1 1 1 1 1 1 1 1 1 1 1 1 1 1 r s z z z z ",
"A A A A B / 1 1 1 1 1 1 1 1 1 1 1 1 1 1 1 1 / C A A A A ",
"D D D D E ( 1 1 1 1 1 1 1 1 1 1 1 1 1 1 1 1 F G D D D D ",
"H H H H I ; 2 1 1 1 1 1 1 1 1 1 1 1 1 1 1 J e K H H H H ",
"H H H H H L 3 0 1 1 1 1 1 1 1 1 1 1 1 1 0 3 M H H H H H ",
"H H H H H H N 6 0 1 1 1 1 1 1 1 1 1 1 0 6 N H H H H H H ",
"O O O O O O P Q a 2 1 1 1 1 1 1 1 1 2 3 R P O O O O O O ",
"S S S S S S S S T e k U V 7 7 r n F ; W S S S S S S S S ",
"O O O O O O O O O X L Y Z > > Z `  .P O O O O O O O O O ",
"........................................................",
"+.+.+.+.+.+.+.+.+.+.+.+.+.+.+.+.+.+.+.+.+.+.+.+.+.+.+.+.",
"........................................................",
"........................................................",
"@.@.@.@.@.@.@.@.@.@.@.@.@.@.@.@.@.@.@.@.@.@.@.@.@.@.@.@.",
"#.#.#.#.#.#.#.#.#.#.#.#.#.#.#.#.#.#.#.#.#.#.#.#.#.#.#.#.",
"$.$.$.$.$.$.$.$.$.$.$.$.$.$.$.$.$.$.$.$.$.$.$.$.$.$.$.$.",
"$.$.$.$.$.$.$.$.$.$.$.$.$.$.$.$.$.$.$.$.$.$.$.$.$.$.$.$."};
