/* XPM */
static char * close_prelight_xpm[] = {
"28 36 109 2",
"  	c None",
". 	c #323A3F",
"+ 	c #414B51",
"@ 	c #414B50",
"# 	c #414A50",
"$ 	c #404A50",
"% 	c #404950",
"& 	c #3F494F",
"* 	c #414D50",
"= 	c #5B8058",
"- 	c #71A260",
"; 	c #7BB765",
"> 	c #80BC67",
", 	c #70A360",
"' 	c #5B7F59",
") 	c #5A7E57",
"! 	c #7DB666",
"~ 	c #7BB762",
"{ 	c #74B05A",
"] 	c #6EA953",
"^ 	c #6CA650",
"/ 	c #75B159",
"( 	c #7CB863",
"_ 	c #7CB866",
": 	c #5B7D58",
"< 	c #414B4F",
"[ 	c #68985D",
"} 	c #80BB65",
"| 	c #70AC55",
"1 	c #6AA44E",
"2 	c #71AC56",
"3 	c #7FBB65",
"4 	c #69975E",
"5 	c #3E494E",
"6 	c #7CB963",
"7 	c #6CA651",
"8 	c #68975C",
"9 	c #3E484E",
"0 	c #6CA750",
"a 	c #80BC66",
"b 	c #587B57",
"c 	c #3D484D",
"d 	c #404A4D",
"e 	c #7CB765",
"f 	c #71AB55",
"g 	c #CEE1C5",
"h 	c #E2EDDC",
"i 	c #76AB5C",
"j 	c #7DB765",
"k 	c #3F4C4E",
"l 	c #3D474D",
"m 	c #5A7F57",
"n 	c #DDEAD7",
"o 	c #FFFFFF",
"p 	c #E4EEDE",
"q 	c #E1ECDB",
"r 	c #7BB862",
"s 	c #5A7D57",
"t 	c #3D474E",
"u 	c #74B059",
"v 	c #74AA5A",
"w 	c #E1EDDC",
"x 	c #E4EFDF",
"y 	c #75B05A",
"z 	c #71A35F",
"A 	c #7BB563",
"B 	c #6EAA53",
"C 	c #7BB565",
"D 	c #3C464D",
"E 	c #80BD67",
"F 	c #6CA64F",
"G 	c #81BC68",
"H 	c #3D474C",
"I 	c #80BD66",
"J 	c #3C464C",
"K 	c #3B464B",
"L 	c #6FA35F",
"M 	c #6FA15F",
"N 	c #3C454B",
"O 	c #5A7E56",
"P 	c #DEEBD7",
"Q 	c #7CB763",
"R 	c #5A7C56",
"S 	c #3B454B",
"T 	c #3E474B",
"U 	c #72AD56",
"V 	c #3D494C",
"W 	c #597C55",
"X 	c #577955",
"Y 	c #68965C",
"Z 	c #3A444A",
"` 	c #3D464A",
" .	c #67965B",
"..	c #67955B",
"+.	c #3A454A",
"@.	c #567A54",
"#.	c #74B159",
"$.	c #6FA953",
"%.	c #557A54",
"&.	c #3C484B",
"*.	c #6FA25E",
"=.	c #7CB563",
"-.	c #6FA15E",
";.	c #597B55",
">.	c #394349",
",.	c #394449",
"'.	c #384348",
").	c #394348",
"!.	c #384248",
". . . . . . . . . . . . . . . . . . . . . . . . . . . . ",
"+ + + + + + + + + + + + + + + + + + + + + + + + + + + + ",
"+ + + + + + + + + + + + + + + + + + + + + + + + + + + + ",
"@ @ @ @ @ @ @ @ @ @ @ @ @ @ @ @ @ @ @ @ @ @ @ @ @ @ @ @ ",
"# # # # # # # # # # # # # # # # # # # # # # # # # # # # ",
"$ $ $ $ $ $ $ $ $ $ $ $ $ $ $ $ $ $ $ $ $ $ $ $ $ $ $ $ ",
"$ $ $ $ $ $ $ $ $ $ $ $ $ $ $ $ $ $ $ $ $ $ $ $ $ $ $ $ ",
"% % % % % % % % % % % % % % % % % % % % % % % % % % % % ",
"& & & & & & & & & * = - ; > > ; , ' * & & & & & & & & & ",
"& & & & & & & & ) ! ~ { ] ^ ^ ] / ( _ : & & & & & & & & ",
"& & & & & & < [ } | 1 1 1 1 1 1 1 1 2 3 4 < & & & & & & ",
"5 5 5 5 5 5 [ 6 ^ 1 1 1 1 1 1 1 1 1 1 7 6 8 5 5 5 5 5 5 ",
"9 9 9 9 9 ) } 7 1 1 1 1 1 1 1 1 1 1 1 1 0 a b 9 9 9 9 9 ",
"c c c c d e f 1 1 g h i 1 1 1 1 i h g 1 1 2 j k c c c c ",
"l l l l m ~ 1 1 1 n o p i 1 1 i p o q 1 1 1 r s l l l l ",
"t t t t , u 1 1 1 v w o x i v w o p i 1 1 1 y z t t t t ",
"l l l l A ] 1 1 1 1 i p o p p o p i 1 1 1 1 B C l l l l ",
"D D D D E F 1 1 1 1 1 v w o o p i 1 1 1 1 1 ^ G D D D D ",
"H H H H I ^ 1 1 1 1 1 v w o o x i 1 1 1 1 1 7 > H H H H ",
"J J J J A ] 1 1 1 1 i p o p p o p i 1 1 1 1 B C J J J J ",
"K K K K L / 1 1 1 v w o p i v w o x i 1 1 1 / M K K K K ",
"N N N N O ( 1 1 1 P o p i 1 1 i p o q 1 1 1 Q R N N N N ",
"S S S S T ; 2 1 1 g q i 1 1 1 1 i q g 1 1 U e V S S S S ",
"S S S S S W 3 0 1 1 1 1 1 1 1 1 1 1 1 1 0 3 X S S S S S ",
"S S S S S S Y 6 0 1 1 1 1 1 1 1 1 1 1 0 6 Y S S S S S S ",
"Z Z Z Z Z Z `  .a 2 1 1 1 1 1 1 1 1 2 3 ..` Z Z Z Z Z Z ",
"+.+.+.+.+.+.+.+.@.e r #.$.7 7 B u Q ; %.+.+.+.+.+.+.+.+.",
"Z Z Z Z Z Z Z Z Z &.W *.=.> > =.-.;.` Z Z Z Z Z Z Z Z Z ",
">.>.>.>.>.>.>.>.>.>.>.>.>.>.>.>.>.>.>.>.>.>.>.>.>.>.>.>.",
",.,.,.,.,.,.,.,.,.,.,.,.,.,.,.,.,.,.,.,.,.,.,.,.,.,.,.,.",
">.>.>.>.>.>.>.>.>.>.>.>.>.>.>.>.>.>.>.>.>.>.>.>.>.>.>.>.",
">.>.>.>.>.>.>.>.>.>.>.>.>.>.>.>.>.>.>.>.>.>.>.>.>.>.>.>.",
"'.'.'.'.'.'.'.'.'.'.'.'.'.'.'.'.'.'.'.'.'.'.'.'.'.'.'.'.",
").).).).).).).).).).).).).).).).).).).).).).).).).).).).",
"!.!.!.!.!.!.!.!.!.!.!.!.!.!.!.!.!.!.!.!.!.!.!.!.!.!.!.!.",
"!.!.!.!.!.!.!.!.!.!.!.!.!.!.!.!.!.!.!.!.!.!.!.!.!.!.!.!."};
