/* XPM */
static char * hide_active_xpm[] = {
"24 24 80 1",
" 	c None",
".	c #313133",
"+	c #4B5252",
"@	c #4B5151",
"#	c #4A5152",
"$	c #4A5151",
"%	c #4B5152",
"&	c #4A5051",
"*	c #495150",
"=	c #4A5050",
"-	c #495050",
";	c #505656",
">	c #717373",
",	c #808080",
"'	c #808181",
")	c #7F8080",
"!	c #727474",
"~	c #505756",
"{	c #494F50",
"]	c #49504F",
"^	c #646766",
"/	c #747474",
"(	c #6D6D6D",
"_	c #767676",
":	c #818181",
"<	c #656768",
"[	c #484F4F",
"}	c #494F4F",
"|	c #636666",
"1	c #7F7F7F",
"2	c #6E6E6E",
"3	c #7E7E7E",
"4	c #646767",
"5	c #484F4E",
"6	c #484E4E",
"7	c #474F4E",
"8	c #4E5554",
"9	c #505555",
"0	c #484E4F",
"a	c #474D4E",
"b	c #474E4E",
"c	c #757575",
"d	c #707272",
"e	c #484D4E",
"f	c #474D4D",
"g	c #474E4D",
"h	c #464D4D",
"i	c #464D4C",
"j	c #474D4C",
"k	c #464C4C",
"l	c #808180",
"m	c #464C4B",
"n	c #454C4C",
"o	c #7E7F7F",
"p	c #454C4B",
"q	c #454B4B",
"r	c #717272",
"s	c #444B4B",
"t	c #444A4A",
"u	c #444B4A",
"v	c #444A4B",
"w	c #4C5152",
"x	c #4B5050",
"y	c #444A49",
"z	c #626464",
"A	c #7D7E7E",
"B	c #606363",
"C	c #434A49",
"D	c #626565",
"E	c #434949",
"F	c #434948",
"G	c #707271",
"H	c #707171",
"I	c #424949",
"J	c #424848",
"K	c #424747",
"L	c #414847",
"M	c #414748",
"N	c #424748",
"O	c #414747",
"........................",
"++++++++++++++++++++++++",
"++++++++++++++++++++++++",
"++++++++++++++++++++++++",
"@+@@+@@+@+@+@+@+@+@+@+++",
"#$%#$%#$#$#$#$#$#$#$%#@$",
"&&*&&*&&&&&&&&&&&&&&*&*$",
"=*-=*-=*;>,'')!~=*=*-*-&",
"{]]{]]{^'/((((_:<]{]]-{{",
"[[}[[}|12(((((((34[[}}}[",
"567568'2(((((((((:967[00",
"abbab>c((((((((((_dbbbe6",
"ffgff)(((((((((((()fggff",
"hhfhh)(((((((((((('hfhij",
"kkikkl((((((((((((,kikik",
"mnnmn)((((((((((((onnkpq",
"qqqqqr_((((((((((crqqqqs",
"tuvtuw:((((((((((:xuvsqt",
"ttyttyzo((((((((ABttyttt",
"CCyCCyCD:_((((_:BCCCyEEt",
"EFEEFEEFxG1,,AHxEFEFEEIE",
"IJJIJJIJIJIJIJIJIJIJJJJJ",
"KLMKLMKLKLKLKLKLKLKLMNJJ",
"OOOOOOOOOOOOOOOOOOOOOMKO"};
