/* XPM */
static char * hide_inactive_xpm[] = {
"24 24 75 1",
" 	c None",
".	c #313133",
"+	c #4B5252",
"@	c #4B5151",
"#	c #4A5152",
"$	c #4A5151",
"%	c #4B5152",
"&	c #4A5051",
"*	c #495150",
"=	c #4A5050",
"-	c #495050",
";	c #4D5252",
">	c #5C5F5E",
",	c #646565",
"'	c #636464",
")	c #5C5E5E",
"!	c #4D5453",
"~	c #494F50",
"{	c #49504F",
"]	c #555958",
"^	c #565656",
"/	c #4E4E4E",
"(	c #555959",
"_	c #484F4F",
":	c #494F4F",
"<	c #545858",
"[	c #616262",
"}	c #4F4F4F",
"|	c #484F4E",
"1	c #484E4E",
"2	c #474F4E",
"3	c #4C5251",
"4	c #484E4F",
"5	c #474D4E",
"6	c #474E4E",
"7	c #5B5E5E",
"8	c #5B5D5E",
"9	c #484D4E",
"0	c #474D4D",
"a	c #474E4D",
"b	c #646464",
"c	c #464D4D",
"d	c #636363",
"e	c #464D4C",
"f	c #474D4C",
"g	c #464C4C",
"h	c #464C4B",
"i	c #454C4C",
"j	c #454C4B",
"k	c #454B4B",
"l	c #5A5C5C",
"m	c #444B4B",
"n	c #444A4A",
"o	c #444B4A",
"p	c #444A4B",
"q	c #444A49",
"r	c #535656",
"s	c #606060",
"t	c #616161",
"u	c #525555",
"v	c #434A49",
"w	c #525655",
"x	c #515555",
"y	c #434949",
"z	c #434948",
"A	c #474C4C",
"B	c #595B5B",
"C	c #626363",
"D	c #424949",
"E	c #424848",
"F	c #424747",
"G	c #414847",
"H	c #414748",
"I	c #424748",
"J	c #414747",
"........................",
"++++++++++++++++++++++++",
"++++++++++++++++++++++++",
"++++++++++++++++++++++++",
"@+@@+@@+@+@+@+@+@+@+@+++",
"#$%#$%#$#$#$#$#$#$#$%#@$",
"&&*&&*&&&&&&&&&&&&&&*&*$",
"=*-=*-=*;>,'',)!=*=*-*-&",
"~{{~{{~]'^////^,({~{{-~~",
"__:__:<[///////}[(__:::_",
"|12|1$'/////////},312_44",
"566567^//////////^866691",
"00a00b////////////'0aa00",
"cc0ccd////////////dc0cef",
"ggeggb////////////dgegeg",
"hiihi'////////////'iigjk",
"kkkkkl^//////////^)kkkkm",
"nopno1b}////////}d0opmkn",
"nnqnnqrs}//////}tunnqnnn",
"vvqvvqvwb^////^dxvvvqyyn",
"yzyyzyyzAB'CC'lfyzyzyyDy",
"DEEDEEDEDEDEDEDEDEDEEEEE",
"FGHFGHFGFGFGFGFGFGFGHIEE",
"JJJJJJJJJJJJJJJJJJJJJHFJ"};
