/* XPM */
static char * hide_active_xpm[] = {
"28 36 98 2",
"  	c None",
". 	c #323A3F",
"+ 	c #414B51",
"@ 	c #414B50",
"# 	c #414A50",
"$ 	c #404A50",
"% 	c #404950",
"& 	c #3F494F",
"* 	c #58646F",
"= 	c #6C7887",
"- 	c #758493",
"; 	c #7A8997",
"> 	c #6B7986",
", 	c #59636E",
"' 	c #57646C",
") 	c #768693",
"! 	c #748391",
"~ 	c #697787",
"{ 	c #606F7E",
"] 	c #5D6C7B",
"^ 	c #687888",
"/ 	c #748491",
"( 	c #758593",
"_ 	c #58626D",
": 	c #3F4B51",
"< 	c #65727E",
"[ 	c #778796",
"} 	c #647382",
"| 	c #5A6978",
"1 	c #637282",
"2 	c #788796",
"3 	c #65717E",
"4 	c #3E494E",
"5 	c #64727E",
"6 	c #758392",
"7 	c #758492",
"8 	c #64727C",
"9 	c #3E484E",
"0 	c #56636C",
"a 	c #788797",
"b 	c #56626B",
"c 	c #3D484D",
"d 	c #3D4A4F",
"e 	c #768493",
"f 	c #637281",
"g 	c #778693",
"h 	c #3F494E",
"i 	c #3D474D",
"j 	c #57636E",
"k 	c #748392",
"l 	c #3D474E",
"m 	c #697888",
"n 	c #6B7885",
"o 	c #758393",
"p 	c #60707F",
"q 	c #3C464D",
"r 	c #7A8898",
"s 	c #3D474C",
"t 	c #7A8998",
"u 	c #5C6B7B",
"v 	c #7A8996",
"w 	c #3C464C",
"x 	c #3B464B",
"y 	c #697885",
"z 	c #697788",
"A 	c #6B7784",
"B 	c #3C454B",
"C 	c #57626C",
"D 	c #748492",
"E 	c #57616C",
"F 	c #3B454B",
"G 	c #3B474D",
"H 	c #657383",
"I 	c #768593",
"J 	c #3D464C",
"K 	c #56606B",
"L 	c #54616A",
"M 	c #64707D",
"N 	c #64707B",
"O 	c #3A444A",
"P 	c #3A464C",
"Q 	c #63707B",
"R 	c #63717B",
"S 	c #3A454A",
"T 	c #556069",
"U 	c #768492",
"V 	c #616F7E",
"W 	c #687887",
"X 	c #758491",
"Y 	c #546068",
"Z 	c #55626B",
"` 	c #687785",
" .	c #56616B",
"..	c #394349",
"+.	c #394449",
"@.	c #384348",
"#.	c #394348",
"$.	c #384248",
". . . . . . . . . . . . . . . . . . . . . . . . . . . . ",
"+ + + + + + + + + + + + + + + + + + + + + + + + + + + + ",
"+ + + + + + + + + + + + + + + + + + + + + + + + + + + + ",
"@ @ @ @ @ @ @ @ @ @ @ @ @ @ @ @ @ @ @ @ @ @ @ @ @ @ @ @ ",
"# # # # # # # # # # # # # # # # # # # # # # # # # # # # ",
"$ $ $ $ $ $ $ $ $ $ $ $ $ $ $ $ $ $ $ $ $ $ $ $ $ $ $ $ ",
"$ $ $ $ $ $ $ $ $ $ $ $ $ $ $ $ $ $ $ $ $ $ $ $ $ $ $ $ ",
"% % % % % % % % % % % % % % % % % % % % % % % % % % % % ",
"& & & & & & & & & # * = - ; ; - > , # & & & & & & & & & ",
"& & & & & & & & ' ) ! ~ { ] ] { ^ / ( _ & & & & & & & & ",
"& & & & & & : < [ } | | | | | | | | 1 2 3 : & & & & & & ",
"4 4 4 4 4 4 5 6 ] | | | | | | | | | | ] 7 8 4 4 4 4 4 4 ",
"9 9 9 9 9 0 [ ] | | | | | | | | | | | | ] a b 9 9 9 9 9 ",
"c c c c d e f | | | | | | | | | | | | | | } g h c c c c ",
"i i i i j ! | | | | | | | | | | | | | | | | k 0 i i i i ",
"l l l l > ^ | | | | | | | | | | | | | | | | m n l l l l ",
"i i i i o { | | | | | | | | | | | | | | | | p 7 i i i i ",
"q q q q r ] | | | | | | | | | | | | | | | | ] ; q q q q ",
"s s s s t u | | | | | | | | | | | | | | | | ] v s s s s ",
"w w w w 6 { | | | | | | | | | | | | | | | | p ! w w w w ",
"x x x x y ^ | | | | | | | | | | | | | | | | z A x x x x ",
"B B B B C / | | | | | | | | | | | | | | | | D E B B B B ",
"F F F F G 7 1 | | | | | | | | | | | | | | H I J F F F F ",
"F F F F F K 2 ] | | | | | | | | | | | | ] 2 L F F F F F ",
"F F F F F F M 7 ] | | | | | | | | | | ] 7 N F F F F F F ",
"O O O O O O P Q a } | | | | | | | | } 2 R P O O O O O O ",
"S S S S S S S S T U k m V ] ] p W D X Y S S S S S S S S ",
"O O O O O O O O O B Z ` - v v - `  .P O O O O O O O O O ",
"........................................................",
"+.+.+.+.+.+.+.+.+.+.+.+.+.+.+.+.+.+.+.+.+.+.+.+.+.+.+.+.",
"........................................................",
"........................................................",
"@.@.@.@.@.@.@.@.@.@.@.@.@.@.@.@.@.@.@.@.@.@.@.@.@.@.@.@.",
"#.#.#.#.#.#.#.#.#.#.#.#.#.#.#.#.#.#.#.#.#.#.#.#.#.#.#.#.",
"$.$.$.$.$.$.$.$.$.$.$.$.$.$.$.$.$.$.$.$.$.$.$.$.$.$.$.$.",
"$.$.$.$.$.$.$.$.$.$.$.$.$.$.$.$.$.$.$.$.$.$.$.$.$.$.$.$."};
