/* XPM */
static char * hide_prelight_xpm[] = {
"24 24 86 1",
" 	c None",
".	c #313133",
"+	c #4B5252",
"@	c #4B5151",
"#	c #4A5152",
"$	c #4A5151",
"%	c #4B5152",
"&	c #4A5051",
"*	c #495150",
"=	c #4A5050",
"-	c #495050",
";	c #505656",
">	c #717373",
",	c #808080",
"'	c #808181",
")	c #7F8080",
"!	c #727474",
"~	c #505756",
"{	c #494F50",
"]	c #49504F",
"^	c #646766",
"/	c #747474",
"(	c #6D6D6D",
"_	c #767676",
":	c #818181",
"<	c #656768",
"[	c #484F4F",
"}	c #494F4F",
"|	c #636666",
"1	c #7F7F7F",
"2	c #6E6E6E",
"3	c #7E7E7E",
"4	c #646767",
"5	c #484F4E",
"6	c #484E4E",
"7	c #474F4E",
"8	c #4E5554",
"9	c #505555",
"0	c #484E4F",
"a	c #474D4E",
"b	c #474E4E",
"c	c #757575",
"d	c #707272",
"e	c #484D4E",
"f	c #474D4D",
"g	c #474E4D",
"h	c #464D4D",
"i	c #A0A0A0",
"j	c #D3D3D3",
"k	c #464D4C",
"l	c #474D4C",
"m	c #464C4C",
"n	c #808180",
"o	c #B6B6B6",
"p	c #FFFFFF",
"q	c #464C4B",
"r	c #454C4C",
"s	c #8A8A8A",
"t	c #A7A7A7",
"u	c #7E7F7F",
"v	c #454C4B",
"w	c #454B4B",
"x	c #717272",
"y	c #444B4B",
"z	c #444A4A",
"A	c #444B4A",
"B	c #444A4B",
"C	c #4C5152",
"D	c #4B5050",
"E	c #444A49",
"F	c #626464",
"G	c #7D7E7E",
"H	c #606363",
"I	c #434A49",
"J	c #626565",
"K	c #434949",
"L	c #434948",
"M	c #707271",
"N	c #707171",
"O	c #424949",
"P	c #424848",
"Q	c #424747",
"R	c #414847",
"S	c #414748",
"T	c #424748",
"U	c #414747",
"........................",
"++++++++++++++++++++++++",
"++++++++++++++++++++++++",
"++++++++++++++++++++++++",
"@+@@+@@+@+@+@+@+@+@+@+++",
"#$%#$%#$#$#$#$#$#$#$%#@$",
"&&*&&*&&&&&&&&&&&&&&*&*$",
"=*-=*-=*;>,'')!~=*=*-*-&",
"{]]{]]{^'/((((_:<]{]]-{{",
"[[}[[}|12(((((((34[[}}}[",
"567568'2(((((((((:967[00",
"abbab>c((((((((((_dbbbe6",
"ffgff)(((((((((((()fggff",
"hhfhh)((ijjjjjji(('hfhkl",
"mmkmmn((oppppppo((,mkmkm",
"qrrqr)((stttttts((urrmvw",
"wwwwwx_((((((((((cxwwwwy",
"zABzAC:((((((((((:DABywz",
"zzEzzEFu((((((((GHzzEzzz",
"IIEIIEIJ:_((((_:HIIIEKKz",
"KLKKLKKLDM1,,GNDKLKLKKOK",
"OPPOPPOPOPOPOPOPOPOPPPPP",
"QRSQRSQRQRQRQRQRQRQRSTPP",
"UUUUUUUUUUUUUUUUUUUUUSQU"};
