/* XPM */
static char * hide_inactive_xpm[] = {
"28 36 88 1",
" 	c None",
".	c #323A3F",
"+	c #414B51",
"@	c #414B50",
"#	c #414A50",
"$	c #404A50",
"%	c #404950",
"&	c #3F494F",
"*	c #3F4950",
"=	c #454E56",
"-	c #49545C",
";	c #4C5661",
">	c #4E5863",
",	c #4A555D",
"'	c #454F56",
")	c #4D5762",
"!	c #4B545F",
"~	c #444E59",
"{	c #3F4A54",
"]	c #3D4852",
"^	c #454F58",
"/	c #4D5761",
"(	c #454E55",
"_	c #48515A",
":	c #4C5761",
"<	c #424B55",
"[	c #3C4650",
"}	c #424C55",
"|	c #3E494E",
"1	c #47515A",
"2	c #4B555F",
"3	c #3E4751",
"4	c #4B5660",
"5	c #47525A",
"6	c #3E484E",
"7	c #444E56",
"8	c #3E4852",
"9	c #4D5861",
"0	c #444E55",
"a	c #3D484D",
"b	c #414B56",
"c	c #4E5762",
"d	c #3D484E",
"e	c #3D474D",
"f	c #444D55",
"g	c #434E55",
"h	c #3D474E",
"i	c #49545D",
"j	c #444E58",
"k	c #49535C",
"l	c #4D5661",
"m	c #404A53",
"n	c #3C464D",
"o	c #4E5962",
"p	c #4F5863",
"q	c #3D474C",
"r	c #3E4851",
"s	c #3C464C",
"t	c #4C5660",
"u	c #3B464B",
"v	c #454E58",
"w	c #49545B",
"x	c #3C454B",
"y	c #434C54",
"z	c #424C53",
"A	c #3B454B",
"B	c #4D5760",
"C	c #3B454C",
"D	c #434B53",
"E	c #424B53",
"F	c #465059",
"G	c #465058",
"H	c #3A444A",
"I	c #455058",
"J	c #424C56",
"K	c #475059",
"L	c #3A454A",
"M	c #414C53",
"N	c #3F4954",
"O	c #3A444B",
"P	c #48525A",
"Q	c #4D575F",
"R	c #414B53",
"S	c #394349",
"T	c #394449",
"U	c #384348",
"V	c #394348",
"W	c #384248",
"............................",
"++++++++++++++++++++++++++++",
"++++++++++++++++++++++++++++",
"@@@@@@@@@@@@@@@@@@@@@@@@@@@@",
"############################",
"$$$$$$$$$$$$$$$$$$$$$$$$$$$$",
"$$$$$$$$$$$$$$$$$$$$$$$$$$$$",
"%%%%%%%%%%%%%%%%%%%%%%%%%%%%",
"&&&&&&&&&*=-;>>;,'*&&&&&&&&&",
"&&&&&&&&')!~{]]{^!/(&&&&&&&&",
"&&&&&&&_:<[[[[[[[[}/_&&&&&&&",
"||||||12][[[[[[[[[[345||||||",
"666667:3[[[[[[[[[[[[89066666",
"aaaaa/b[[[[[[[[[[[[[[<cdaaaa",
"eeeef![[[[[[[[[[[[[[[[2geeee",
"hhhhij[[[[[[[[[[[[[[[[~khhhh",
"eeeel{[[[[[[[[[[[[[[[[m/eeee",
"nnnno3[[[[[[[[[[[[[[[[]pnnnn",
"qqqq>r[[[[[[[[[[[[[[[[3>qqqq",
"ssssl{[[[[[[[[[[[[[[[[mtssss",
"uuuu-^[[[[[[[[[[[[[[[[vwuuuu",
"xxxxy![[[[[[[[[[[[[[[[!zxxxx",
"AAAAAl}[[[[[[[[[[[[[[<BCAAAA",
"AAAAAD/8[[[[[[[[[[[[8/EAAAAA",
"AAAAAAF48[[[[[[[[[[84GAAAAAA",
"HHHHHHHI9<[[[[[[[[J/KHHHHHHH",
"LLLLLLLLM/2vN33mj!lMLLLLLLLL",
"HHHHHHHHHOMPQ>>QPRHHHHHHHHHH",
"SSSSSSSSSSSSSSSSSSSSSSSSSSSS",
"TTTTTTTTTTTTTTTTTTTTTTTTTTTT",
"SSSSSSSSSSSSSSSSSSSSSSSSSSSS",
"SSSSSSSSSSSSSSSSSSSSSSSSSSSS",
"UUUUUUUUUUUUUUUUUUUUUUUUUUUU",
"VVVVVVVVVVVVVVVVVVVVVVVVVVVV",
"WWWWWWWWWWWWWWWWWWWWWWWWWWWW",
"WWWWWWWWWWWWWWWWWWWWWWWWWWWW"};
