/* XPM */
static char * maximize_pressed_xpm[] = {
"28 36 102 2",
"  	c None",
". 	c #323A3F",
"+ 	c #414B51",
"@ 	c #414B50",
"# 	c #414A50",
"$ 	c #404A50",
"% 	c #404950",
"& 	c #3F494F",
"* 	c #58646F",
"= 	c #6C7887",
"- 	c #758493",
"; 	c #7A8997",
"> 	c #6B7986",
", 	c #59636E",
"' 	c #57646C",
") 	c #768693",
"! 	c #748391",
"~ 	c #697787",
"{ 	c #606F7E",
"] 	c #5D6C7B",
"^ 	c #687888",
"/ 	c #748491",
"( 	c #758593",
"_ 	c #58626D",
": 	c #3F4B51",
"< 	c #65727E",
"[ 	c #778796",
"} 	c #647382",
"| 	c #5A6978",
"1 	c #637282",
"2 	c #788796",
"3 	c #65717E",
"4 	c #3E494E",
"5 	c #64727E",
"6 	c #758392",
"7 	c #758492",
"8 	c #64727C",
"9 	c #3E484E",
"0 	c #56636C",
"a 	c #788797",
"b 	c #56626B",
"c 	c #3D484D",
"d 	c #3D4A4F",
"e 	c #768493",
"f 	c #637281",
"g 	c #A7AFB7",
"h 	c #FFFFFF",
"i 	c #778693",
"j 	c #3F494E",
"k 	c #3D474D",
"l 	c #57636E",
"m 	c #748392",
"n 	c #3D474E",
"o 	c #697888",
"p 	c #6B7885",
"q 	c #758393",
"r 	c #B2B9C0",
"s 	c #60707F",
"t 	c #3C464D",
"u 	c #7A8898",
"v 	c #3D474C",
"w 	c #7A8998",
"x 	c #5C6B7B",
"y 	c #7A8996",
"z 	c #3C464C",
"A 	c #ADB4BC",
"B 	c #3B464B",
"C 	c #697885",
"D 	c #697788",
"E 	c #6B7784",
"F 	c #3C454B",
"G 	c #57626C",
"H 	c #748492",
"I 	c #57616C",
"J 	c #3B454B",
"K 	c #3B474D",
"L 	c #657383",
"M 	c #768593",
"N 	c #3D464C",
"O 	c #56606B",
"P 	c #54616A",
"Q 	c #64707D",
"R 	c #64707B",
"S 	c #3A444A",
"T 	c #3A464C",
"U 	c #63707B",
"V 	c #63717B",
"W 	c #3A454A",
"X 	c #556069",
"Y 	c #768492",
"Z 	c #616F7E",
"` 	c #687887",
" .	c #758491",
"..	c #546068",
"+.	c #55626B",
"@.	c #687785",
"#.	c #56616B",
"$.	c #394349",
"%.	c #394449",
"&.	c #384348",
"*.	c #394348",
"=.	c #384248",
". . . . . . . . . . . . . . . . . . . . . . . . . . . . ",
"+ + + + + + + + + + + + + + + + + + + + + + + + + + + + ",
"+ + + + + + + + + + + + + + + + + + + + + + + + + + + + ",
"@ @ @ @ @ @ @ @ @ @ @ @ @ @ @ @ @ @ @ @ @ @ @ @ @ @ @ @ ",
"# # # # # # # # # # # # # # # # # # # # # # # # # # # # ",
"$ $ $ $ $ $ $ $ $ $ $ $ $ $ $ $ $ $ $ $ $ $ $ $ $ $ $ $ ",
"$ $ $ $ $ $ $ $ $ $ $ $ $ $ $ $ $ $ $ $ $ $ $ $ $ $ $ $ ",
"% % % % % % % % % % % % % % % % % % % % % % % % % % % % ",
"& & & & & & & & & # * = - ; ; - > , # & & & & & & & & & ",
"& & & & & & & & ' ) ! ~ { ] ] { ^ / ( _ & & & & & & & & ",
"& & & & & & : < [ } | | | | | | | | 1 2 3 : & & & & & & ",
"4 4 4 4 4 4 5 6 ] | | | | | | | | | | ] 7 8 4 4 4 4 4 4 ",
"9 9 9 9 9 0 [ ] | | | | | | | | | | | | ] a b 9 9 9 9 9 ",
"c c c c d e f | | | | | g h h h h h h | | } i j c c c c ",
"k k k k l ! | | | | | | | g h h h h h | | | m 0 k k k k ",
"n n n n > ^ | | | | | | | | g h h h h | | | o p n n n n ",
"k k k k q { | | | r | | | | | g h h h | | | s 7 k k k k ",
"t t t t u ] | | | h r | | | | | g h h | | | ] ; t t t t ",
"v v v v w x | | | h h r | | | | | g h | | | ] y v v v v ",
"z z z z 6 { | | | h h h A | | | | | A | | | s ! z z z z ",
"B B B B C ^ | | | h h h h r | | | | | | | | D E B B B B ",
"F F F F G / | | | h h h h h r | | | | | | | H I F F F F ",
"J J J J K 7 1 | | h h h h h h r | | | | | L M N J J J J ",
"J J J J J O 2 ] | | | | | | | | | | | | ] 2 P J J J J J ",
"J J J J J J Q 7 ] | | | | | | | | | | ] 7 R J J J J J J ",
"S S S S S S T U a } | | | | | | | | } 2 V T S S S S S S ",
"W W W W W W W W X Y m o Z ] ] s ` H  ...W W W W W W W W ",
"S S S S S S S S S F +.@.- y y - @.#.T S S S S S S S S S ",
"$.$.$.$.$.$.$.$.$.$.$.$.$.$.$.$.$.$.$.$.$.$.$.$.$.$.$.$.",
"%.%.%.%.%.%.%.%.%.%.%.%.%.%.%.%.%.%.%.%.%.%.%.%.%.%.%.%.",
"$.$.$.$.$.$.$.$.$.$.$.$.$.$.$.$.$.$.$.$.$.$.$.$.$.$.$.$.",
"$.$.$.$.$.$.$.$.$.$.$.$.$.$.$.$.$.$.$.$.$.$.$.$.$.$.$.$.",
"&.&.&.&.&.&.&.&.&.&.&.&.&.&.&.&.&.&.&.&.&.&.&.&.&.&.&.&.",
"*.*.*.*.*.*.*.*.*.*.*.*.*.*.*.*.*.*.*.*.*.*.*.*.*.*.*.*.",
"=.=.=.=.=.=.=.=.=.=.=.=.=.=.=.=.=.=.=.=.=.=.=.=.=.=.=.=.",
"=.=.=.=.=.=.=.=.=.=.=.=.=.=.=.=.=.=.=.=.=.=.=.=.=.=.=.=."};
