/* XPM */
static char * maximize_pressed_xpm[] = {
"24 24 94 2",
"  	c None",
". 	c #313133",
"+ 	c #4B5252",
"@ 	c #4B5151",
"# 	c #4A5152",
"$ 	c #4A5151",
"% 	c #4B5152",
"& 	c #4A5051",
"* 	c #495150",
"= 	c #4A5050",
"- 	c #495050",
"; 	c #505656",
"> 	c #717373",
", 	c #808080",
"' 	c #808181",
") 	c #7F8080",
"! 	c #727474",
"~ 	c #505756",
"{ 	c #494F50",
"] 	c #49504F",
"^ 	c #646766",
"/ 	c #747474",
"( 	c #6D6D6D",
"_ 	c #767676",
": 	c #818181",
"< 	c #656768",
"[ 	c #484F4F",
"} 	c #494F4F",
"| 	c #636666",
"1 	c #7F7F7F",
"2 	c #6E6E6E",
"3 	c #7E7E7E",
"4 	c #646767",
"5 	c #484F4E",
"6 	c #484E4E",
"7 	c #474F4E",
"8 	c #4E5554",
"9 	c #777777",
"0 	c #B1B1B1",
"a 	c #8F8F8F",
"b 	c #505555",
"c 	c #484E4F",
"d 	c #474D4E",
"e 	c #474E4E",
"f 	c #757575",
"g 	c #A6A6A6",
"h 	c #FEFEFE",
"i 	c #FFFFFF",
"j 	c #B6B6B6",
"k 	c #707272",
"l 	c #484D4E",
"m 	c #474D4D",
"n 	c #474E4D",
"o 	c #787878",
"p 	c #464D4D",
"q 	c #AAAAAA",
"r 	c #464D4C",
"s 	c #474D4C",
"t 	c #464C4C",
"u 	c #808180",
"v 	c #B5B5B5",
"w 	c #464C4B",
"x 	c #454C4C",
"y 	c #7E7F7F",
"z 	c #454C4B",
"A 	c #454B4B",
"B 	c #717272",
"C 	c #444B4B",
"D 	c #444A4A",
"E 	c #444B4A",
"F 	c #444A4B",
"G 	c #4C5152",
"H 	c #949494",
"I 	c #BBBBBB",
"J 	c #BABABA",
"K 	c #7B7B7B",
"L 	c #4B5050",
"M 	c #444A49",
"N 	c #626464",
"O 	c #7D7E7E",
"P 	c #606363",
"Q 	c #434A49",
"R 	c #626565",
"S 	c #434949",
"T 	c #434948",
"U 	c #707271",
"V 	c #707171",
"W 	c #424949",
"X 	c #424848",
"Y 	c #424747",
"Z 	c #414847",
"` 	c #414748",
" .	c #424748",
"..	c #414747",
". . . . . . . . . . . . . . . . . . . . . . . . ",
"+ + + + + + + + + + + + + + + + + + + + + + + + ",
"+ + + + + + + + + + + + + + + + + + + + + + + + ",
"+ + + + + + + + + + + + + + + + + + + + + + + + ",
"@ + @ @ + @ @ + @ + @ + @ + @ + @ + @ + @ + + + ",
"# $ % # $ % # $ # $ # $ # $ # $ # $ # $ % # @ $ ",
"& & * & & * & & & & & & & & & & & & & & * & * $ ",
"= * - = * - = * ; > , ' ' ) ! ~ = * = * - * - & ",
"{ ] ] { ] ] { ^ ' / ( ( ( ( _ : < ] { ] ] - { { ",
"[ [ } [ [ } | 1 2 ( ( ( ( ( ( ( 3 4 [ [ } } } [ ",
"5 6 7 5 6 8 ' 2 ( ( 9 0 0 0 0 a ( : b 6 7 [ c c ",
"d e e d e > f ( ( ( ( g h i i j ( _ k e e e l 6 ",
"m m n m m ) ( ( o ( ( ( g h i j ( ( ) m n n m m ",
"p p m p p ) ( ( j q ( ( ( g h j ( ( ' p m p r s ",
"t t r t t u ( ( j h q ( ( ( g v ( ( , t r t r t ",
"w x x w x ) ( ( j i h q ( ( ( o ( ( y x x t z A ",
"A A A A A B _ ( j i i h q ( ( ( ( f B A A A A C ",
"D E F D E G : ( H I I I J K ( ( ( : L E F C A D ",
"D D M D D M N y ( ( ( ( ( ( ( ( O P D D M D D D ",
"Q Q M Q Q M Q R : _ ( ( ( ( _ : P Q Q Q M S S D ",
"S T S S T S S T L U 1 , , O V L S T S T S S W S ",
"W X X W X X W X W X W X W X W X W X W X X X X X ",
"Y Z ` Y Z ` Y Z Y Z Y Z Y Z Y Z Y Z Y Z `  .X X ",
"..........................................` Y .."};
