/* XPM */
static char * menu_active_xpm[] = {
"24 24 74 1",
" 	c None",
".	c #313133",
"+	c #4B5252",
"@	c #4B5151",
"#	c #4B5251",
"$	c #4A5252",
"%	c #4A5251",
"&	c #4A5152",
"*	c #4B5152",
"=	c #4A5151",
"-	c #4A5051",
";	c #495150",
">	c #4A5150",
",	c #4A5050",
"'	c #495051",
")	c #495151",
"!	c #495050",
"~	c #494F50",
"{	c #49504F",
"]	c #485050",
"^	c #494F4F",
"/	c #9A9A9A",
"(	c #48504F",
"_	c #484F4F",
":	c #484F4E",
"<	c #484E4E",
"[	c #474F4E",
"}	c #474E4F",
"|	c #484E4F",
"1	c #474F4F",
"2	c #474D4E",
"3	c #474E4E",
"4	c #484E4D",
"5	c #484D4E",
"6	c #474D4D",
"7	c #474E4D",
"8	c #464E4D",
"9	c #464D4D",
"0	c #464D4E",
"a	c #464D4C",
"b	c #474D4C",
"c	c #464C4C",
"d	c #464C4D",
"e	c #454C4C",
"f	c #454C4D",
"g	c #464C4B",
"h	c #454C4B",
"i	c #454B4B",
"j	c #454B4C",
"k	c #464B4C",
"l	c #444B4B",
"m	c #444A4A",
"n	c #444B4A",
"o	c #444A4B",
"p	c #444A49",
"q	c #43494A",
"r	c #434A4A",
"s	c #434A49",
"t	c #434949",
"u	c #44494A",
"v	c #434948",
"w	c #434848",
"x	c #424949",
"y	c #424849",
"z	c #424948",
"A	c #424848",
"B	c #434849",
"C	c #424747",
"D	c #414847",
"E	c #414748",
"F	c #424748",
"G	c #414848",
"H	c #424847",
"I	c #414747",
"........................",
"++++++++++++++++++++++++",
"++++++++++++++++++++++++",
"++++++++++++++++++++++++",
"@+@+#$#+%&+#####*+++#+++",
"&=*%@=@=*@#&@=@=&@&=@&@=",
"--;>,'))>;=!>==>==)-=-;=",
",;!!!,'!!,!''!!!,!=!,;!-",
"~{{]~^////////////~(!!~~",
"__^_^^////////////___^^_",
":<[}<|1<||_<|_}<<_<<__||",
"233334332<2324233<33335<",
"667837////////////906766",
"99699a////////////9999ab",
"ccadceecccacddefcecfccac",
"geeheihgijgjhiggeehckchi",
"iiiiii////////////llhiil",
"mnonmm////////////llnlim",
"mmpqmmmmrmrrrrrprmmrmmmm",
"ssptssrsrttrtprqsurqtttm",
"tvtwtttxwyxtytzxtzttvtxt",
"xAAwAzAzzAxzAyByyAAAzAAA",
"CDEFFGHAGEHADGFAAAAGGFAA",
"IIIIIIIEECHIIIIICCIEDECI"};
