/* XPM */
static char * menu_inactive_xpm[] = {
"24 24 75 1",
" 	c None",
".	c #313133",
"+	c #4B5252",
"@	c #4B5151",
"#	c #4B5251",
"$	c #4A5252",
"%	c #4A5251",
"&	c #4A5152",
"*	c #4B5152",
"=	c #4A5151",
"-	c #4A5051",
";	c #495150",
">	c #4A5150",
",	c #4A5050",
"'	c #495051",
")	c #495151",
"!	c #495050",
"~	c #5C5C5C",
"{	c #494F50",
"]	c #49504F",
"^	c #485050",
"/	c #48504F",
"(	c #484F4F",
"_	c #494F4F",
":	c #494F4E",
"<	c #484F4E",
"[	c #484E4E",
"}	c #474F4E",
"|	c #474E4F",
"1	c #474F4F",
"2	c #484E4F",
"3	c #474D4E",
"4	c #474E4E",
"5	c #484D4E",
"6	c #474D4D",
"7	c #474E4D",
"8	c #464E4D",
"9	c #464D4D",
"0	c #464D4E",
"a	c #474D4C",
"b	c #464C4C",
"c	c #464C4D",
"d	c #464D4C",
"e	c #454C4C",
"f	c #454C4D",
"g	c #464C4B",
"h	c #454C4B",
"i	c #464B4C",
"j	c #454B4B",
"k	c #444B4B",
"l	c #444A4A",
"m	c #444B4A",
"n	c #444A4B",
"o	c #454B4A",
"p	c #454A4A",
"q	c #444A49",
"r	c #43494A",
"s	c #434A4A",
"t	c #434A49",
"u	c #434949",
"v	c #44494A",
"w	c #434948",
"x	c #434848",
"y	c #424949",
"z	c #424849",
"A	c #424948",
"B	c #424848",
"C	c #434849",
"D	c #424747",
"E	c #414847",
"F	c #414748",
"G	c #424748",
"H	c #414848",
"I	c #424847",
"J	c #414747",
"........................",
"++++++++++++++++++++++++",
"++++++++++++++++++++++++",
"++++++++++++++++++++++++",
"@+@+#$#+%&+#####*+++#+++",
"&=*%@=@=*@#&@=@=&@&=@&@=",
"--;>,'))>;=!>==>==)-=-;=",
",;!!!!~~~~~~~~~~~~=!,;!-",
"{]]^{{~~~~~~~~~~~~{/!!{{",
"((_(__(_((((_(((:((((__(",
"<[}|[[1[22([2(|[[([[((22",
"344444~~~~~~~~~~~~44445[",
"667844~~~~~~~~~~~~906766",
"996999a9a999699bc99999da",
"bbdcbbebbbdbccefbebfbbdb",
"geehee~~~~~~~~~~~~hbibhj",
"jjjjjj~~~~~~~~~~~~kkhjjk",
"lmnmllnlkmonpnnlkokkmkjl",
"llqrllllslsssssqsllsllll",
"ttquttstsuusuqsrtvsruuul",
"uwuxuuuyxzyuzuAyuAuuwuyu",
"yBBxBABAAByABzCzzBBBABBB",
"DEFGGHIBHFIBEHGBBBBHHGBB",
"JJJJJJJFFDIJJJJJDDJFEFDJ"};
