/* XPM */
static char * menu_prelight_xpm[] = {
"24 36 95 2",
"  	c None",
". 	c #323A3F",
"+ 	c #414B51",
"@ 	c #414B50",
"# 	c #414A50",
"$ 	c #404A50",
"% 	c #202323",
"& 	c #0F0F0F",
"* 	c #0A0A0A",
"= 	c #404950",
"- 	c #161818",
"; 	c #444D52",
"> 	c #3F494F",
", 	c #363F45",
"' 	c #343E44",
") 	c #343D44",
"! 	c #343E43",
"~ 	c #3E494E",
"{ 	c #333C41",
"] 	c #333C42",
"^ 	c #3E484E",
"/ 	c #313B41",
"( 	c #313B40",
"_ 	c #313A40",
": 	c #323A40",
"< 	c #323B41",
"[ 	c #313A41",
"} 	c #3D484D",
"| 	c #2F393E",
"1 	c #2F383E",
"2 	c #FFFFFF",
"3 	c #3D474D",
"4 	c #2E373C",
"5 	c #3D474E",
"6 	c #2C353B",
"7 	c #2D353B",
"8 	c #2C353A",
"9 	c #2D353A",
"0 	c #2A3339",
"a 	c #2B3338",
"b 	c #2A3338",
"c 	c #3C464D",
"d 	c #293236",
"e 	c #3D474C",
"f 	c #283035",
"g 	c #273035",
"h 	c #283034",
"i 	c #3C464C",
"j 	c #262D33",
"k 	c #262D32",
"l 	c #252D33",
"m 	c #262E32",
"n 	c #262E33",
"o 	c #3B464B",
"p 	c #242B30",
"q 	c #242C30",
"r 	c #242B31",
"s 	c #242C31",
"t 	c #232C30",
"u 	c #3C454B",
"v 	c #23292E",
"w 	c #232A2E",
"x 	c #3B454B",
"y 	c #21292C",
"z 	c #21292D",
"A 	c #21282D",
"B 	c #1F262A",
"C 	c #1F262B",
"D 	c #1F272B",
"E 	c #20262A",
"F 	c #1E2529",
"G 	c #1F2529",
"H 	c #3A444A",
"I 	c #1C2227",
"J 	c #1C2327",
"K 	c #1D2327",
"L 	c #1C2326",
"M 	c #1D2326",
"N 	c #3A454A",
"O 	c #1B2125",
"P 	c #1A2024",
"Q 	c #394349",
"R 	c #101212",
"S 	c #171B1B",
"T 	c #181D1D",
"U 	c #394449",
"V 	c #202424",
"W 	c #101111",
"X 	c #0B0C0C",
"Y 	c #555B5B",
"Z 	c #5C6161",
"` 	c #5E6363",
" .	c #384348",
"..	c #394348",
"+.	c #384248",
". . . . . . . . . . . . . . . . . . . . . . . . ",
"+ + + + + + + + + + + + + + + + + + + + + + + + ",
"+ + + + + + + + + + + + + + + + + + + + + + + + ",
"@ @ @ @ @ @ @ @ @ @ @ @ @ @ @ @ @ @ @ @ @ @ @ @ ",
"# # # # # # # # # # # # # # # # # # # # # # # # ",
"$ $ $ $ $ $ $ $ $ $ $ $ $ $ $ $ $ $ $ $ $ $ $ $ ",
"$ $ % & * * * * * * * * * * * * * * * * & % $ $ ",
"= % - ; ; ; ; ; ; ; ; ; ; ; ; ; ; ; ; ; ; - % = ",
"> & , , , , , , , , , , , , , , , , , , , , & > ",
"> * , , , , , , , , , , , , , , , , , , , , * > ",
"> * ' ' ) ) ' ' ' ! ' ' ' ! ' ! ' ' ) ) ' ' * > ",
"~ * { ] ] ] { ] ] ] { ] { { ] { { { ] ] ] { * ~ ",
"^ * / ( / / _ ( ( : < _ ( _ _ : [ _ / / ( / * ^ ",
"} * | 1 | | 1 2 2 2 2 2 2 2 2 2 2 1 | | 1 | * } ",
"3 * 4 4 4 4 4 2 2 2 2 2 2 2 2 2 2 4 4 4 4 4 * 3 ",
"5 * 6 7 7 7 8 8 7 9 8 6 8 9 7 9 8 8 7 7 7 6 * 5 ",
"3 * 0 a b a a b a a b a a b a a a a a b a 0 * 3 ",
"c * d d d d d 2 2 2 2 2 2 2 2 2 2 d d d d d * c ",
"e * f g f h h 2 2 2 2 2 2 2 2 2 2 h h f g f * e ",
"i * j k k l m k n l m j m k j l m m l k k j * i ",
"o * p q q r r q q q p r s q p t t r r q q p * o ",
"u * v v v v w 2 2 2 2 2 2 2 2 2 2 w v v v v * u ",
"x * y z A A A 2 2 2 2 2 2 2 2 2 2 A A A z y * x ",
"x * B B C B C B D B B C C B C B E C B C B B * x ",
"x * F F F G F F F G G F F F F F F F G F F F * x ",
"H * I J J K L J K J I K M J M J K L K J J I * H ",
"N * O O O O O O O O O O O O O O O O O O O O * N ",
"H & P P P P P P P P P P P P P P P P P P P P & H ",
"Q % R S T T T T T T T T T T T T T T T T S R % Q ",
"U U V W X X X X X X X X X X X X X X X X W V U U ",
"Q Q Q Y Z ` ` ` ` ` ` ` ` ` ` ` ` ` ` Z Y Q Q Q ",
"Q Q Q Q Q Q Q Q Q Q Q Q Q Q Q Q Q Q Q Q Q Q Q Q ",
" . . . . . . . . . . . . . . . . . . . . . . . .",
"................................................",
"+.+.+.+.+.+.+.+.+.+.+.+.+.+.+.+.+.+.+.+.+.+.+.+.",
"+.+.+.+.+.+.+.+.+.+.+.+.+.+.+.+.+.+.+.+.+.+.+.+."};
