/* XPM */
static char * shade_prelight_xpm[] = {
"24 36 122 2",
"  	c None",
". 	c #323A3F",
"+ 	c #414B51",
"@ 	c #414B50",
"# 	c #414A50",
"$ 	c #404A50",
"% 	c #202323",
"& 	c #0F0F0F",
"* 	c #0A0A0A",
"= 	c #404950",
"- 	c #161818",
"; 	c #4B555A",
"> 	c #3F494F",
", 	c #3C464C",
"' 	c #3A444A",
") 	c #3A434A",
"! 	c #3A4449",
"~ 	c #3E494E",
"{ 	c #384247",
"] 	c #384248",
"^ 	c #394248",
"/ 	c #384147",
"( 	c #394247",
"_ 	c #3E484E",
": 	c #364046",
"< 	c #364045",
"[ 	c #363F45",
"} 	c #373F45",
"| 	c #374046",
"1 	c #363F46",
"2 	c #3D484D",
"3 	c #343E43",
"4 	c #343D43",
"5 	c #FFFFFF",
"6 	c #3D474D",
"7 	c #323B41",
"8 	c #333B41",
"9 	c #323C40",
"0 	c #3D474E",
"a 	c #30393F",
"b 	c #31393F",
"c 	c #30393E",
"d 	c #31393E",
"e 	c #2E373D",
"f 	c #2F373C",
"g 	c #2E373C",
"h 	c #3C464D",
"i 	c #2C353A",
"j 	c #2D353A",
"k 	c #2C3539",
"l 	c #2C3437",
"m 	c #F5F5F5",
"n 	c #F3F3F3",
"o 	c #2C3438",
"p 	c #3D474C",
"q 	c #2B3338",
"r 	c #2A3338",
"s 	c #2B3337",
"t 	c #2B3236",
"u 	c #CBCCCC",
"v 	c #FCFCFC",
"w 	c #C8C8C8",
"x 	c #2B3336",
"y 	c #293036",
"z 	c #293035",
"A 	c #283036",
"B 	c #293135",
"C 	c #293134",
"D 	c #9E9FA0",
"E 	c #9C9D9D",
"F 	c #283035",
"G 	c #3B464B",
"H 	c #272E33",
"I 	c #272F33",
"J 	c #272E34",
"K 	c #717273",
"L 	c #FBFBFB",
"M 	c #6F7171",
"N 	c #3C454B",
"O 	c #252C31",
"P 	c #252D31",
"Q 	c #3C4041",
"R 	c #EFEFEF",
"S 	c #F6F6F6",
"T 	c #3B454B",
"U 	c #232B2E",
"V 	c #232B2F",
"W 	c #232A2F",
"X 	c #21282C",
"Y 	c #21282D",
"Z 	c #21292D",
"` 	c #22282C",
" .	c #1F262A",
"..	c #1F262B",
"+.	c #20262A",
"@.	c #1D2328",
"#.	c #1D2428",
"$.	c #1E2428",
"%.	c #1D2427",
"&.	c #1E2427",
"*.	c #3A454A",
"=.	c #1C2226",
"-.	c #1B2126",
";.	c #1C2125",
">.	c #1B2226",
",.	c #1B2125",
"'.	c #1C2225",
").	c #1B2225",
"!.	c #1A2024",
"~.	c #394349",
"{.	c #101212",
"].	c #171B1B",
"^.	c #181D1D",
"/.	c #394449",
"(.	c #202424",
"_.	c #101111",
":.	c #0B0C0C",
"<.	c #545A5A",
"[.	c #5D6262",
"}.	c #5E6363",
"|.	c #384348",
"1.	c #394348",
". . . . . . . . . . . . . . . . . . . . . . . . ",
"+ + + + + + + + + + + + + + + + + + + + + + + + ",
"+ + + + + + + + + + + + + + + + + + + + + + + + ",
"@ @ @ @ @ @ @ @ @ @ @ @ @ @ @ @ @ @ @ @ @ @ @ @ ",
"# # # # # # # # # # # # # # # # # # # # # # # # ",
"$ $ $ $ $ $ $ $ $ $ $ $ $ $ $ $ $ $ $ $ $ $ $ $ ",
"$ $ % & * * * * * * * * * * * * * * * * & % $ $ ",
"= % - ; ; ; ; ; ; ; ; ; ; ; ; ; ; ; ; ; ; - % = ",
"> & , , , , , , , , , , , , , , , , , , , , & > ",
"> * , , , , , , , , , , , , , , , , , , , , * > ",
"> * ' ' ) ) ' ' ' ! ' ' ' ! ' ! ' ' ) ) ' ' * > ",
"~ * { ] ] ^ { ] ] ] / ] ( / ] { { { ^ ] ] { * ~ ",
"_ * : < : : [ < < } | [ < [ [ } 1 [ : : < : * _ ",
"2 * 3 4 3 3 4 5 5 5 5 5 5 5 5 5 5 4 3 3 4 3 * 2 ",
"6 * 7 8 9 8 7 5 5 5 5 5 5 5 5 5 5 7 8 9 8 7 * 6 ",
"0 * a b b b c c b d c a c d b d c c b b b a * 0 ",
"6 * e f g f f g f f g f f g f f f f f g f e * 6 ",
"h * i j j i k i k i l m n o k i k k i j j i * h ",
"p * q r q s s s s t u v v w x s s s s q r q * p ",
", * y z z A B A C D v v v v E F B B A z z y * , ",
"G * H I I J J J K L v v v v L M J J J I I H * G ",
"N * O O O O P Q R m m L v v v S Q P O O O O * N ",
"T * U V W W W W W W W W W W W W W W W W V U * T ",
"T * X X Y X Y X Z X X Y Y X Y X ` Y X Y X X * T ",
"T *  ... .+... . .+.+... ..... . ...+. ... .* T ",
"' * @.#.#.$.%.#.$.#.@.$.&.#.&.#.$.%.$.#.#.@.* ' ",
"*.* =.-.=.;.>.,.=.=.'.=.-.>.).'.>.>.;.=.-.=.* *.",
"' & !.!.!.!.!.!.!.!.!.!.!.!.!.!.!.!.!.!.!.!.& ' ",
"~.% {.].^.^.^.^.^.^.^.^.^.^.^.^.^.^.^.^.].{.% ~.",
"/./.(._.:.:.:.:.:.:.:.:.:.:.:.:.:.:.:.:._.(././.",
"~.~.~.<.[.}.}.}.}.}.}.}.}.}.}.}.}.}.}.[.<.~.~.~.",
"~.~.~.~.~.~.~.~.~.~.~.~.~.~.~.~.~.~.~.~.~.~.~.~.",
"|.|.|.|.|.|.|.|.|.|.|.|.|.|.|.|.|.|.|.|.|.|.|.|.",
"1.1.1.1.1.1.1.1.1.1.1.1.1.1.1.1.1.1.1.1.1.1.1.1.",
"] ] ] ] ] ] ] ] ] ] ] ] ] ] ] ] ] ] ] ] ] ] ] ] ",
"] ] ] ] ] ] ] ] ] ] ] ] ] ] ] ] ] ] ] ] ] ] ] ] "};
