/* XPM */
static char * shade_toggled_inactive_xpm[] = {
"24 24 86 1",
" 	c None",
".	c #313133",
"+	c #4B5252",
"@	c #4B5151",
"#	c #4B5251",
"$	c #4A5252",
"%	c #4A5251",
"&	c #4A5152",
"*	c #4B5152",
"=	c #4A5151",
"-	c #4A5051",
";	c #495150",
">	c #4A5150",
",	c #4A5050",
"'	c #495051",
")	c #495151",
"!	c #495050",
"~	c #494F50",
"{	c #49504F",
"]	c #485050",
"^	c #494F4F",
"/	c #484F4F",
"(	c #5C6261",
"_	c #717474",
":	c #707474",
"<	c #5D6162",
"[	c #48504F",
"}	c #494F4E",
"|	c #484F4E",
"1	c #484E4E",
"2	c #474F4E",
"3	c #474E4F",
"4	c #484E4F",
"5	c #474F4F",
"6	c #707374",
"7	c #707373",
"8	c #474D4E",
"9	c #474E4E",
"0	c #484E4D",
"a	c #484D4E",
"b	c #474D4D",
"c	c #474E4D",
"d	c #464E4D",
"e	c #464D4E",
"f	c #6F7373",
"g	c #464D4D",
"h	c #464D4C",
"i	c #474D4C",
"j	c #707372",
"k	c #6F7272",
"l	c #464C4D",
"m	c #464C4C",
"n	c #454C4C",
"o	c #6F7372",
"p	c #6F7273",
"q	c #454C4D",
"r	c #464C4B",
"s	c #454C4B",
"t	c #454B4B",
"u	c #464B4C",
"v	c #444B4B",
"w	c #444A4A",
"x	c #444B4A",
"y	c #444A4B",
"z	c #454B4A",
"A	c #454A4A",
"B	c #444A49",
"C	c #43494A",
"D	c #434A4A",
"E	c #434A49",
"F	c #434949",
"G	c #44494A",
"H	c #434948",
"I	c #434848",
"J	c #424949",
"K	c #424849",
"L	c #424948",
"M	c #424848",
"N	c #434849",
"O	c #424747",
"P	c #414847",
"Q	c #414748",
"R	c #424748",
"S	c #414848",
"T	c #424847",
"U	c #414747",
"........................",
"++++++++++++++++++++++++",
"++++++++++++++++++++++++",
"++++++++++++++++++++++++",
"@+@+#$#+%&+#####*+++#+++",
"&=*%@=@=*@#&@=@=&@&=@&@=",
"--;>,'))>;=!>==>==)-=-;=",
",;!!!,'!!,!''!!!,!=!,;!-",
"~{{]~^~/(___::_<{!~[!!~~",
"//^/^^/^::::_:/:}////^^/",
"|123145166:76:671/11//44",
"8999909977898077919999a1",
"bbcd9c8e7fb8bg7788gebcbb",
"ggbgghigjfggbgfklggggghi",
"mmhlmnnmkkokppkpmnmqmmhm",
"rnnsntsrkkkkkkkknnsmumst",
"tttttttttvtttvtvtvvvsttv",
"wxyxwwywvxzyAyywvzvvxvtw",
"wwBCwwwwDwDDDDDBDwwDwwww",
"EEBFEEDEDFFDFBDCEGDCFFFw",
"FHFIFFFJIKJFKFLJFLFFHFJF",
"JMMIMLMLLMJLMKNKKMMMLMMM",
"OPQRRSTMSQTMPSRMMMMSSRMM",
"UUUUUUUQQOTUUUUUOOUQPQOU"};
