/* XPM */
static char * shade_toggled_inactive_xpm[] = {
"24 36 70 1",
" 	c None",
".	c #323A3F",
"+	c #414B51",
"@	c #414B50",
"#	c #414A50",
"$	c #404A50",
"%	c #202323",
"&	c #0F0F0F",
"*	c #0A0A0A",
"=	c #404950",
"-	c #161818",
";	c #323B41",
">	c #3F494F",
",	c #263036",
"'	c #3E494E",
")	c #263035",
"!	c #3E484E",
"~	c #252F35",
"{	c #3D484D",
"]	c #242E33",
"^	c #909090",
"/	c #3D474D",
"(	c #242D32",
"_	c #3D474E",
":	c #232C31",
"<	c #222B30",
"[	c #232B30",
"}	c #3C464D",
"|	c #212A2F",
"1	c #2C3134",
"2	c #3D474C",
"3	c #20282E",
"4	c #434547",
"5	c #454748",
"6	c #3C464C",
"7	c #20272C",
"8	c #5D5E5E",
"9	c #5F6061",
"0	c #3B464B",
"a	c #1E262B",
"b	c #787878",
"c	c #7A7A7A",
"d	c #1F262A",
"e	c #3C454B",
"f	c #1E2429",
"g	c #1E2428",
"h	c #878787",
"i	c #848585",
"j	c #1F2528",
"k	c #3B454B",
"l	c #1D2428",
"m	c #1C2327",
"n	c #1C2226",
"o	c #3A444A",
"p	c #1A2024",
"q	c #3A454A",
"r	c #394349",
"s	c #101212",
"t	c #171B1B",
"u	c #181D1D",
"v	c #394449",
"w	c #202424",
"x	c #101111",
"y	c #0B0C0C",
"z	c #555B5B",
"A	c #5C6161",
"B	c #5E6363",
"C	c #384348",
"D	c #394348",
"E	c #384248",
"........................",
"++++++++++++++++++++++++",
"++++++++++++++++++++++++",
"@@@@@@@@@@@@@@@@@@@@@@@@",
"########################",
"$$$$$$$$$$$$$$$$$$$$$$$$",
"$$%&****************&%$$",
"=%-;;;;;;;;;;;;;;;;;;-%=",
">&,,,,,,,,,,,,,,,,,,,,&>",
">*,,,,,,,,,,,,,,,,,,,,*>",
">*,,,,,,,,,,,,,,,,,,,,*>",
"'*))))))))))))))))))))*'",
"!*~~~~~~~~~~~~~~~~~~~~*!",
"{*]]]]]^^^^^^^^^^]]]]]*{",
"/*(((((^^^^^^^^^^(((((*/",
"_*::::::::::::::::::::*_",
"/*<<<<<<<<<<<[[[[<<<<<*/",
"}*|||||1^^^^^^^^1|||||*}",
"2*3333334^^^^^^5333333*2",
"6*77777778^^^^97777777*6",
"0*aaaaaaaab^^cdaaaaaaa*0",
"e*ffffffffghijffffffff*e",
"k*llllllllllllllllllll*k",
"k*mmmmmmmmmmmmmmmmmmmm*k",
"k*nnnnnnnnnnnnnnnnnnnn*k",
"o*pppppppppppppppppppp*o",
"q*pppppppppppppppppppp*q",
"o&pppppppppppppppppppp&o",
"r%stuuuuuuuuuuuuuuuuts%r",
"vvwxyyyyyyyyyyyyyyyyxwvv",
"rrrzABBBBBBBBBBBBBBAzrrr",
"rrrrrrrrrrrrrrrrrrrrrrrr",
"CCCCCCCCCCCCCCCCCCCCCCCC",
"DDDDDDDDDDDDDDDDDDDDDDDD",
"EEEEEEEEEEEEEEEEEEEEEEEE",
"EEEEEEEEEEEEEEEEEEEEEEEE"};
