/* XPM */
static char * shade_toggled_pressed_xpm[] = {
"24 24 78 1",
" 	c None",
".	c #313133",
"+	c #4B5252",
"@	c #4B5151",
"#	c #4B5251",
"$	c #4A5252",
"%	c #4A5251",
"&	c #4A5152",
"*	c #4B5152",
"=	c #4A5151",
"-	c #4A5051",
";	c #495150",
">	c #4A5150",
",	c #4A5050",
"'	c #495051",
")	c #495151",
"!	c #495050",
"~	c #494F50",
"{	c #49504F",
"]	c #485050",
"^	c #494F4F",
"/	c #484F4F",
"(	c #707474",
"_	c #9A9A9A",
":	c #717474",
"<	c #48504F",
"[	c #494F4E",
"}	c #484F4E",
"|	c #484E4E",
"1	c #474F4E",
"2	c #474E4F",
"3	c #484E4F",
"4	c #474F4F",
"5	c #474D4E",
"6	c #474E4E",
"7	c #484E4D",
"8	c #484D4E",
"9	c #474D4D",
"0	c #474E4D",
"a	c #464E4D",
"b	c #464D4E",
"c	c #464D4D",
"d	c #464D4C",
"e	c #474D4C",
"f	c #464C4D",
"g	c #464C4C",
"h	c #454C4C",
"i	c #454C4D",
"j	c #464C4B",
"k	c #454C4B",
"l	c #454B4B",
"m	c #464B4C",
"n	c #444B4B",
"o	c #444A4A",
"p	c #444B4A",
"q	c #444A4B",
"r	c #454B4A",
"s	c #454A4A",
"t	c #444A49",
"u	c #43494A",
"v	c #434A4A",
"w	c #434A49",
"x	c #434949",
"y	c #44494A",
"z	c #434948",
"A	c #434848",
"B	c #424949",
"C	c #424849",
"D	c #424948",
"E	c #424848",
"F	c #434849",
"G	c #424747",
"H	c #414847",
"I	c #414748",
"J	c #424748",
"K	c #414848",
"L	c #424847",
"M	c #414747",
"........................",
"++++++++++++++++++++++++",
"++++++++++++++++++++++++",
"++++++++++++++++++++++++",
"@+@+#$#+%&+#####*+++#+++",
"&=*%@=@=*@#&@=@=&@&=@&@=",
"--;>,'))>;=!>==>==)-=-;=",
",;!!!,'!!,!''!!!,!=!,;!-",
"~{{]~^~/(______:{!~<!!~~",
"//^/^^/^______/_[////^^/",
"}|12|34|________|/||//33",
"56666766__5657__6|66668|",
"990a605b__959c__55cb9099",
"cc9ccdec__cc9c__fcccccde",
"ggdfghhg________ghgiggdg",
"jhhkhlkj________hhkgmgkl",
"lllllllllnlllnlnlnnnklln",
"opqpooqonprqsqqonrnnpnlo",
"ootuoooovovvvvvtvoovoooo",
"wwtxwwvwvxxvxtvuwyvuxxxo",
"xzxAxxxBACBxCxDBxDxxzxBx",
"BEEAEDEDDEBDECFCCEEEDEEE",
"GHIJJKLEKILEHKJEEEEKKJEE",
"MMMMMMMIIGLMMMMMGGMIHIGM"};
