/* XPM */
static char * shade_pressed_xpm[] = {
"24 36 89 1",
" 	c None",
".	c #323A3F",
"+	c #414B51",
"@	c #414B50",
"#	c #414A50",
"$	c #404A50",
"%	c #3C4242",
"&	c #101010",
"*	c #0A0A0A",
"=	c #404950",
"-	c #3F4646",
";	c #0B0D0D",
">	c #0E1212",
",	c #0F1313",
"'	c #3F494F",
")	c #0F1010",
"!	c #101514",
"~	c #111514",
"{	c #111414",
"]	c #101414",
"^	c #101415",
"/	c #111515",
"(	c #111415",
"_	c #3E494E",
":	c #3E484E",
"<	c #101515",
"[	c #3D484D",
"}	c #FFFFFF",
"|	c #3D474D",
"1	c #121616",
"2	c #121515",
"3	c #121516",
"4	c #3D474E",
"5	c #121716",
"6	c #121717",
"7	c #131716",
"8	c #131616",
"9	c #131817",
"0	c #131717",
"a	c #131718",
"b	c #3C464D",
"c	c #141818",
"d	c #141718",
"e	c #141817",
"f	c #FCFCFC",
"g	c #3D474C",
"h	c #141819",
"i	c #141919",
"j	c #151918",
"k	c #151919",
"l	c #151819",
"m	c #CECECE",
"n	c #3C464C",
"o	c #161919",
"p	c #15191A",
"q	c #A5A5A5",
"r	c #3B464B",
"s	c #161A1A",
"t	c #7A7A7A",
"u	c #FBFBFB",
"v	c #3C454B",
"w	c #171B1B",
"x	c #171A1B",
"y	c #424343",
"z	c #F6F6F6",
"A	c #414343",
"B	c #3B454B",
"C	c #171C1B",
"D	c #181B1B",
"E	c #181C1C",
"F	c #3A444A",
"G	c #181C1D",
"H	c #191D1D",
"I	c #181D1D",
"J	c #3A454A",
"K	c #191C1C",
"L	c #191C1D",
"M	c #181D1C",
"N	c #0F0F0F",
"O	c #161B1B",
"P	c #394349",
"Q	c #0E0F0F",
"R	c #394449",
"S	c #555B5B",
"T	c #5C6161",
"U	c #5E6363",
"V	c #384348",
"W	c #394348",
"X	c #384248",
"........................",
"++++++++++++++++++++++++",
"++++++++++++++++++++++++",
"@@@@@@@@@@@@@@@@@@@@@@@@",
"########################",
"$$$$$$$$$$$$$$$$$$$$$$$$",
"$$%&****************&%$$",
"=-;>,,,,,,,,,,,,,,,,>;-=",
"')!~{]]{]]{]{]]]]]]{~!)'",
"'*~^/]]/]]/]/]]]]]]/^~*'",
"'*({!]]!]]!]!]]]]]]!{(*'",
"_*]{]]]]]]]]]]]]]]]]{]*_",
":*^]{]]{]]{]{]]<<]]{]^*:",
"[*/((<~}}}}}}}}}}~<((/*[",
"|*1/233}}}}}}}}}}332/1*|",
"4*56117117111178871165*4",
"|*900a00a00a0a0000a009*|",
"b*cdec0ec0effc0cc0cedc*b",
"g*hijkljklmffmljjlkjih*g",
"n*kooopooqffffqpppoook*n",
"r*sssssstuffffutssssss*r",
"v*wxwwxyzffffffzAxwwxw*v",
"B*CCDEDDEDDEDEDDDDEDCC*B",
"B*EEEEEEEEEEEEEEEEEEEE*B",
"B*EEEEEEEEEEEEEEEEEEEE*B",
"F*GHIGGIGGIGIGGGGGGIHG*F",
"J*KILKKLKKLKLKKMMKKLIK*J",
"FNOIIIIIIIIIIIIIIIIIIONF",
"PPQOIIIIIIIIIIIIIIIIOQPP",
"RRR)****************)RRR",
"PPPSTUUUUUUUUUUUUUUTSPPP",
"PPPPPPPPPPPPPPPPPPPPPPPP",
"VVVVVVVVVVVVVVVVVVVVVVVV",
"WWWWWWWWWWWWWWWWWWWWWWWW",
"XXXXXXXXXXXXXXXXXXXXXXXX",
"XXXXXXXXXXXXXXXXXXXXXXXX"};
