/* XPM */
static char * shade_inactive_xpm[] = {
"24 24 89 1",
" 	c None",
".	c #313133",
"+	c #4B5252",
"@	c #4B5151",
"#	c #4B5251",
"$	c #4A5252",
"%	c #4A5251",
"&	c #4A5152",
"*	c #4B5152",
"=	c #4A5151",
"-	c #4A5051",
";	c #495150",
">	c #4A5150",
",	c #4A5050",
"'	c #495051",
")	c #495151",
"!	c #495050",
"~	c #494F50",
"{	c #49504F",
"]	c #485050",
"^	c #494F4F",
"/	c #484F4F",
"(	c #585E5E",
"_	c #717474",
":	c #707474",
"<	c #595E5E",
"[	c #48504F",
"}	c #494F4E",
"|	c #484F4E",
"1	c #484E4E",
"2	c #474F4E",
"3	c #474E4F",
"4	c #484E4F",
"5	c #474F4F",
"6	c #707374",
"7	c #707373",
"8	c #474D4E",
"9	c #474E4E",
"0	c #484E4D",
"a	c #575D5D",
"b	c #575C5D",
"c	c #484D4E",
"d	c #474D4D",
"e	c #474E4D",
"f	c #464E4D",
"g	c #464D4E",
"h	c #464D4D",
"i	c #575C5C",
"j	c #565C5C",
"k	c #464D4C",
"l	c #474D4C",
"m	c #6F7373",
"n	c #464C4C",
"o	c #464C4D",
"p	c #454C4C",
"q	c #6F7272",
"r	c #6F7273",
"s	c #454C4D",
"t	c #464C4B",
"u	c #454C4B",
"v	c #454B4B",
"w	c #454B4C",
"x	c #464B4C",
"y	c #444B4B",
"z	c #444A4A",
"A	c #444B4A",
"B	c #444A4B",
"C	c #454B4A",
"D	c #454A4A",
"E	c #444A49",
"F	c #43494A",
"G	c #434A4A",
"H	c #434A49",
"I	c #434949",
"J	c #44494A",
"K	c #434948",
"L	c #434848",
"M	c #424949",
"N	c #424849",
"O	c #424948",
"P	c #424848",
"Q	c #434849",
"R	c #424747",
"S	c #414847",
"T	c #414748",
"U	c #424748",
"V	c #414848",
"W	c #424847",
"X	c #414747",
"........................",
"++++++++++++++++++++++++",
"++++++++++++++++++++++++",
"++++++++++++++++++++++++",
"@+@+#$#+%&+#####*+++#+++",
"&=*%@=@=*@#&@=@=&@&=@&@=",
"--;>,'))>;=!>==>==)-=-;=",
",;!!!,'!!,!''!!!,!=!,;!-",
"~{{]~^~/(___::_<{!~[!!~~",
"//^/^^/^::::_:/:}////^^/",
"|123145166:76:671/11//44",
"89999099818ab089919999c1",
"ddef9e8g8hi77jd888hgdedd",
"hhdhhklhljmm7mjnohhhhhkl",
"nnkonppnnnkqropsnpnsnnkn",
"tppupvutvwtqqvttppunxnuv",
"vvvvvvvvvyvvvyvyvyyyuvvy",
"zABAzzBzyACBDBBzyCyyAyvz",
"zzEFzzzzGzGGGGGEGzzGzzzz",
"HHEIHHGHGIIGIEGFHJGFIIIz",
"IKILIIIMLNMINIOMIOIIKIMI",
"MPPLPOPOOPMOPNQNNPPPOPPP",
"RSTUUVWPVTWPSVUPPPPVVUPP",
"XXXXXXXTTRWXXXXXRRXTSTRX"};
