/* XPM */
static char * shade_pressed_xpm[] = {
"24 24 83 1",
" 	c None",
".	c #313133",
"+	c #4B5252",
"@	c #4B5151",
"#	c #4B5251",
"$	c #4A5252",
"%	c #4A5251",
"&	c #4A5152",
"*	c #4B5152",
"=	c #4A5151",
"-	c #4A5051",
";	c #495150",
">	c #4A5150",
",	c #4A5050",
"'	c #495051",
")	c #495151",
"!	c #495050",
"~	c #494F50",
"{	c #49504F",
"]	c #485050",
"^	c #494F4F",
"/	c #484F4F",
"(	c #686D6D",
"_	c #9A9A9A",
":	c #696D6D",
"<	c #48504F",
"[	c #494F4E",
"}	c #484F4E",
"|	c #484E4E",
"1	c #474F4E",
"2	c #474E4F",
"3	c #484E4F",
"4	c #474F4F",
"5	c #474D4E",
"6	c #474E4E",
"7	c #484E4D",
"8	c #686C6C",
"9	c #686B6C",
"0	c #484D4E",
"a	c #474D4D",
"b	c #474E4D",
"c	c #464E4D",
"d	c #464D4E",
"e	c #464D4D",
"f	c #686B6B",
"g	c #676B6B",
"h	c #464D4C",
"i	c #474D4C",
"j	c #464C4C",
"k	c #464C4D",
"l	c #454C4C",
"m	c #454C4D",
"n	c #464C4B",
"o	c #454C4B",
"p	c #454B4B",
"q	c #454B4C",
"r	c #464B4C",
"s	c #444B4B",
"t	c #444A4A",
"u	c #444B4A",
"v	c #444A4B",
"w	c #454B4A",
"x	c #454A4A",
"y	c #444A49",
"z	c #43494A",
"A	c #434A4A",
"B	c #434A49",
"C	c #434949",
"D	c #44494A",
"E	c #434948",
"F	c #434848",
"G	c #424949",
"H	c #424849",
"I	c #424948",
"J	c #424848",
"K	c #434849",
"L	c #424747",
"M	c #414847",
"N	c #414748",
"O	c #424748",
"P	c #414848",
"Q	c #424847",
"R	c #414747",
"........................",
"++++++++++++++++++++++++",
"++++++++++++++++++++++++",
"++++++++++++++++++++++++",
"@+@+#$#+%&+#####*+++#+++",
"&=*%@=@=*@#&@=@=&@&=@&@=",
"--;>,'))>;=!>==>==)-=-;=",
",;!!!,'!!,!''!!!,!=!,;!-",
"~{{]~^~/(______:{!~<!!~~",
"//^/^^/^______/_[////^^/",
"}|12|34|________|/||//33",
"566667665|5897566|66660|",
"aabc6b5d5ef__ga555edabaa",
"eeaeehieig____gjkeeeeehi",
"jjhkjlljjjh__klmjljmjjhj",
"nllolponpqn__pnnllojrjop",
"pppppppppspppspspsssopps",
"tuvuttvtsuwvxvvtswssuspt",
"ttyzttttAtAAAAAyAttAtttt",
"BByCBBABACCACyAzBDAzCCCt",
"CECFCCCGFHGCHCIGCICCECGC",
"GJJFJIJIIJGIJHKHHJJJIJJJ",
"LMNOOPQJPNQJMPOJJJJPPOJJ",
"RRRRRRRNNLQRRRRRLLRNMNLR"};
