/* XPM */
static char * shade_active_xpm[] = {
"24 36 74 1",
" 	c None",
".	c #323A3F",
"+	c #414B51",
"@	c #414B50",
"#	c #414A50",
"$	c #404A50",
"%	c #202323",
"&	c #0F0F0F",
"*	c #0A0A0A",
"=	c #404950",
"-	c #161818",
";	c #323B41",
">	c #3F494F",
",	c #263036",
"'	c #3E494E",
")	c #263035",
"!	c #3E484E",
"~	c #252F35",
"{	c #3D484D",
"]	c #242E33",
"^	c #FFFFFF",
"/	c #3D474D",
"(	c #242D32",
"_	c #3D474E",
":	c #232C31",
"<	c #222B30",
"[	c #3C464D",
"}	c #212A2F",
"|	c #222A2F",
"1	c #E7E7E7",
"2	c #E4E4E4",
"3	c #3D474C",
"4	c #20282E",
"5	c #C1C1C1",
"6	c #FCFCFC",
"7	c #BEBEBF",
"8	c #3C464C",
"9	c #20272C",
"0	c #959696",
"a	c #929294",
"b	c #3B464B",
"c	c #1E262B",
"d	c #6B6D6D",
"e	c #FBFBFB",
"f	c #676969",
"g	c #3C454B",
"h	c #1E2429",
"i	c #343839",
"j	c #DFDFE0",
"k	c #E5E5E5",
"l	c #EAEAEA",
"m	c #EDEDED",
"n	c #323638",
"o	c #3B454B",
"p	c #1D2428",
"q	c #1C2327",
"r	c #1C2226",
"s	c #3A444A",
"t	c #1A2024",
"u	c #3A454A",
"v	c #394349",
"w	c #101212",
"x	c #171B1B",
"y	c #181D1D",
"z	c #394449",
"A	c #202424",
"B	c #101111",
"C	c #0B0C0C",
"D	c #555B5B",
"E	c #5C6161",
"F	c #5E6363",
"G	c #384348",
"H	c #394348",
"I	c #384248",
"........................",
"++++++++++++++++++++++++",
"++++++++++++++++++++++++",
"@@@@@@@@@@@@@@@@@@@@@@@@",
"########################",
"$$$$$$$$$$$$$$$$$$$$$$$$",
"$$%&****************&%$$",
"=%-;;;;;;;;;;;;;;;;;;-%=",
">&,,,,,,,,,,,,,,,,,,,,&>",
">*,,,,,,,,,,,,,,,,,,,,*>",
">*,,,,,,,,,,,,,,,,,,,,*>",
"'*))))))))))))))))))))*'",
"!*~~~~~~~~~~~~~~~~~~~~*!",
"{*]]]]]^^^^^^^^^^]]]]]*{",
"/*(((((^^^^^^^^^^(((((*/",
"_*::::::::::::::::::::*_",
"/*<<<<<<<<<<<<<<<<<<<<*/",
"[*}}}}}}}}|12|}}}}}}}}*[",
"3*44444444566744444444*3",
"8*999999906666a9999999*8",
"b*ccccccde6666efcccccc*b",
"g*hhhhhijklmmmm1nhhhhh*g",
"o*pppppppppppppppppppp*o",
"o*qqqqqqqqqqqqqqqqqqqq*o",
"o*rrrrrrrrrrrrrrrrrrrr*o",
"s*tttttttttttttttttttt*s",
"u*tttttttttttttttttttt*u",
"s&tttttttttttttttttttt&s",
"v%wxyyyyyyyyyyyyyyyyxw%v",
"zzABCCCCCCCCCCCCCCCCBAzz",
"vvvDEFFFFFFFFFFFFFFEDvvv",
"vvvvvvvvvvvvvvvvvvvvvvvv",
"GGGGGGGGGGGGGGGGGGGGGGGG",
"HHHHHHHHHHHHHHHHHHHHHHHH",
"IIIIIIIIIIIIIIIIIIIIIIII",
"IIIIIIIIIIIIIIIIIIIIIIII"};
