/* XPM */
static char * stick_active_xpm[] = {
"24 36 82 1",
" 	c None",
".	c #323A3F",
"+	c #414B51",
"@	c #414B50",
"#	c #414A50",
"$	c #404A50",
"%	c #202323",
"&	c #0F0F0F",
"*	c #0A0A0A",
"=	c #404950",
"-	c #161818",
";	c #323B41",
">	c #3F494F",
",	c #263036",
"'	c #3E494E",
")	c #263035",
"!	c #3E484E",
"~	c #252F35",
"{	c #4C5050",
"]	c #B8B8B8",
"^	c #E6E6E6",
"/	c #FCFCFC",
"(	c #3D484D",
"_	c #242E33",
":	c #8C8D8D",
"<	c #DFE0E0",
"[	c #D2D2D2",
"}	c #919292",
"|	c #484B4B",
"1	c #3D474D",
"2	c #242D32",
"3	c #4B4E4E",
"4	c #DFDFDF",
"5	c #B7B8B8",
"6	c #3D474E",
"7	c #232C31",
"8	c #D1D2D2",
"9	c #222B30",
"0	c #909191",
"a	c #3C464D",
"b	c #212A2F",
"c	c #454747",
"d	c #3D474C",
"e	c #20282E",
"f	c #444646",
"g	c #3C464C",
"h	c #20272C",
"i	c #8F9090",
"j	c #3B464B",
"k	c #1E262B",
"l	c #B7B7B7",
"m	c #D1D1D1",
"n	c #3C454B",
"o	c #1E2429",
"p	c #464848",
"q	c #3B454B",
"r	c #1D2428",
"s	c #8A8B8B",
"t	c #8F8F8F",
"u	c #414443",
"v	c #1C2327",
"w	c #B6B7B7",
"x	c #E5E6E6",
"y	c #FBFCFC",
"z	c #1C2226",
"A	c #3A444A",
"B	c #1A2024",
"C	c #3A454A",
"D	c #394349",
"E	c #101212",
"F	c #171B1B",
"G	c #181D1D",
"H	c #394449",
"I	c #202424",
"J	c #101111",
"K	c #0B0C0C",
"L	c #555B5B",
"M	c #5C6161",
"N	c #5E6363",
"O	c #384348",
"P	c #394348",
"Q	c #384248",
"........................",
"++++++++++++++++++++++++",
"++++++++++++++++++++++++",
"@@@@@@@@@@@@@@@@@@@@@@@@",
"########################",
"$$$$$$$$$$$$$$$$$$$$$$$$",
"$$%&****************&%$$",
"=%-;;;;;;;;;;;;;;;;;;-%=",
">&,,,,,,,,,,,,,,,,,,,,&>",
">*,,,,,,,,,,,,,,,,,,,,*>",
">*,,,,,,,,,,,,,,,,,,,,*>",
"'*))))))))))))))))))))*'",
"!*~~~~~~{]^//^]{~~~~~~*!",
"(*_____:<[}||}[<:_____*(",
"1*22223452222225432222*1",
"6*77775877777777857777*6",
"1*9999^0999999990^9999*1",
"a*bbbb/cbbbbbbbbc/bbbb*a",
"d*eeee/feeeeeeeef/eeee*d",
"g*hhhh^ihhhhhhhhi^hhhh*g",
"j*kkkklmkkkkkkkkmlkkkk*j",
"n*oooop4looooool4poooo*n",
"q*rrrrrs4mtuutm4srrrrr*q",
"q*vvvvvvcwxyyxwcvvvvvv*q",
"q*zzzzzzzzzzzzzzzzzzzz*q",
"A*BBBBBBBBBBBBBBBBBBBB*A",
"C*BBBBBBBBBBBBBBBBBBBB*C",
"A&BBBBBBBBBBBBBBBBBBBB&A",
"D%EFGGGGGGGGGGGGGGGGFE%D",
"HHIJKKKKKKKKKKKKKKKKJIHH",
"DDDLMNNNNNNNNNNNNNNMLDDD",
"DDDDDDDDDDDDDDDDDDDDDDDD",
"OOOOOOOOOOOOOOOOOOOOOOOO",
"PPPPPPPPPPPPPPPPPPPPPPPP",
"QQQQQQQQQQQQQQQQQQQQQQQQ",
"QQQQQQQQQQQQQQQQQQQQQQQQ"};
