/* XPM */
static char * stick_toggled_pressed_xpm[] = {
"24 24 84 1",
" 	c None",
".	c #313133",
"+	c #4B5252",
"@	c #4B5151",
"#	c #4B5251",
"$	c #4A5252",
"%	c #4A5251",
"&	c #4A5152",
"*	c #4B5152",
"=	c #4A5151",
"-	c #4A5051",
";	c #495150",
">	c #4A5150",
",	c #4A5050",
"'	c #495051",
")	c #495151",
"!	c #495050",
"~	c #9A9A9A",
"{	c #494F50",
"]	c #49504F",
"^	c #485050",
"/	c #494F4F",
"(	c #484F4F",
"_	c #48504F",
":	c #686D6D",
"<	c #494F4E",
"[	c #484F4E",
"}	c #484E4E",
"|	c #474F4E",
"1	c #474E4F",
"2	c #484E4F",
"3	c #474F4F",
"4	c #686C6D",
"5	c #474D4E",
"6	c #474E4E",
"7	c #484E4D",
"8	c #686B6C",
"9	c #686C6B",
"0	c #686C6C",
"a	c #484D4E",
"b	c #474D4D",
"c	c #474E4D",
"d	c #464E4D",
"e	c #464D4E",
"f	c #686B6B",
"g	c #464D4D",
"h	c #464D4C",
"i	c #474D4C",
"j	c #464C4C",
"k	c #464C4D",
"l	c #454C4C",
"m	c #676B6B",
"n	c #454C4D",
"o	c #464C4B",
"p	c #454C4B",
"q	c #454B4B",
"r	c #454B4C",
"s	c #464B4C",
"t	c #444B4B",
"u	c #444A4A",
"v	c #444B4A",
"w	c #444A4B",
"x	c #454B4A",
"y	c #454A4A",
"z	c #444A49",
"A	c #43494A",
"B	c #434A4A",
"C	c #434A49",
"D	c #434949",
"E	c #44494A",
"F	c #434948",
"G	c #434848",
"H	c #424949",
"I	c #424849",
"J	c #424948",
"K	c #424848",
"L	c #434849",
"M	c #424747",
"N	c #414847",
"O	c #414748",
"P	c #424748",
"Q	c #414848",
"R	c #424847",
"S	c #414747",
"........................",
"++++++++++++++++++++++++",
"++++++++++++++++++++++++",
"++++++++++++++++++++++++",
"@+@+#$#+%&+#####*+++#+++",
"&=*%@=@=*@#&@=@=&@&=@&@=",
"--;>,'))>;=!>==>==)-=-;=",
",;!!!,'!~,!''~!!,!=!,;!-",
"{]]^{/{(~~!{~~!{]!{_!!{{",
"((/(//(/(~~:~~((<((((//(",
"[}|1}23}~4~~4~1}}(}}((22",
"56666766~~8~~9~~~06666a}",
"bbcd6c5e~~~8~~f555gebcbb",
"ggbgghig~~~~f~~jkggggghi",
"jjhkjllj~mhm~m~~jljnjjhj",
"ollplqpoqrorpqo~mlpjsjpq",
"qqqqqqqqqtqqqtqtqtttpqqt",
"uvwvuuwutvxwywwutxttvtqu",
"uuzAuuuuBuBBBBBzBuuBuuuu",
"CCzDCCBCBDDBDzBACEBADDDu",
"DFDGDDDHGIHDIDJHDJDDFDHD",
"HKKGKJKJJKHJKILIIKKKJKKK",
"MNOPPQRKQORKNQPKKKKQQPKK",
"SSSSSSSOOMRSSSSSMMSONOMS"};
