/* XPM */
static char * stick_inactive_xpm[] = {
"24 24 87 1",
" 	c None",
".	c #313133",
"+	c #4B5252",
"@	c #4B5151",
"#	c #4B5251",
"$	c #4A5252",
"%	c #4A5251",
"&	c #4A5152",
"*	c #4B5152",
"=	c #4A5151",
"-	c #4A5051",
";	c #495150",
">	c #4A5150",
",	c #4A5050",
"'	c #495051",
")	c #495151",
"!	c #495050",
"~	c #717474",
"{	c #494F50",
"]	c #49504F",
"^	c #485050",
"/	c #494F4F",
"(	c #484F4F",
"_	c #707474",
":	c #595E5E",
"<	c #48504F",
"[	c #494F4E",
"}	c #484F4E",
"|	c #484E4E",
"1	c #474F4E",
"2	c #474E4F",
"3	c #484E4F",
"4	c #474F4F",
"5	c #707374",
"6	c #707373",
"7	c #474D4E",
"8	c #474E4E",
"9	c #484E4D",
"0	c #585D5D",
"a	c #484D4E",
"b	c #474D4D",
"c	c #474E4D",
"d	c #464E4D",
"e	c #464D4E",
"f	c #6F7373",
"g	c #464D4D",
"h	c #464D4C",
"i	c #474D4C",
"j	c #707372",
"k	c #464C4C",
"l	c #464C4D",
"m	c #454C4C",
"n	c #6F7272",
"o	c #565B5B",
"p	c #6F7273",
"q	c #454C4D",
"r	c #464C4B",
"s	c #454C4B",
"t	c #454B4B",
"u	c #454B4C",
"v	c #464B4C",
"w	c #444B4B",
"x	c #444A4A",
"y	c #444B4A",
"z	c #444A4B",
"A	c #454B4A",
"B	c #454A4A",
"C	c #444A49",
"D	c #43494A",
"E	c #434A4A",
"F	c #434A49",
"G	c #434949",
"H	c #44494A",
"I	c #434948",
"J	c #434848",
"K	c #424949",
"L	c #424849",
"M	c #424948",
"N	c #424848",
"O	c #434849",
"P	c #424747",
"Q	c #414847",
"R	c #414748",
"S	c #424748",
"T	c #414848",
"U	c #424847",
"V	c #414747",
"........................",
"++++++++++++++++++++++++",
"++++++++++++++++++++++++",
"++++++++++++++++++++++++",
"@+@+#$#+%&+#####*+++#+++",
"&=*%@=@=*@#&@=@=&@&=@&@=",
"--;>,'))>;=!>==>==)-=-;=",
",;!!!,'!!,!''~!!,!=!,;!-",
"{]]^{/{(_:!:__!{]!{<!!{{",
"((/(//(/____~_(([((((//(",
"}|12|34|55_65_2||(||((33",
"7888898866666666608888a|",
"bbcd8c7e6f666fb777gebcbb",
"ggbgghigjfff6fgklggggghi",
"kkhlkmmknohoppmqkmkqkkhk",
"rmmsmtsrturusnrrmmskvkst",
"tttttttttwtttwtwtwwwsttw",
"xyzyxxzxwyAzBzzxwAwwywtx",
"xxCDxxxxExEEEEECExxExxxx",
"FFCGFFEFEGGEGCEDFHEDGGGx",
"GIGJGGGKJLKGLGMKGMGGIGKG",
"KNNJNMNMMNKMNLOLLNNNMNNN",
"PQRSSTUNTRUNQTSNNNNTTSNN",
"VVVVVVVRRPUVVVVVPPVRQRPV"};
