/* XPM */
static char * top_right_active_xpm[] = {
"8 22 2 1",
" 	c None",
".	c #C0C0FF",
"....    ",
"......  ",
"....... ",
"....... ",
"........",
"........",
"........",
"........",
"........",
"........",
"........",
"........",
"........",
"........",
"........",
"........",
"........",
"........",
"........",
"........",
"........",
"........"};
