/* XPM */
static char * top_left_active_xpm[] = {
"5 24 44 1",
" 	c None",
".	c #313133",
"+	c #474E4E",
"@	c #4B5252",
"#	c #4A5151",
"$	c #4A5050",
"%	c #495050",
"&	c #494F50",
"*	c #49504F",
"=	c #485050",
"-	c #484F4F",
";	c #494F4F",
">	c #484F4E",
",	c #484E4E",
"'	c #474F4E",
")	c #474E4F",
"!	c #474D4E",
"~	c #474D4D",
"{	c #474E4D",
"]	c #464E4D",
"^	c #464D4D",
"/	c #464C4C",
"(	c #464D4C",
"_	c #464C4D",
":	c #464C4B",
"<	c #454C4C",
"[	c #454C4B",
"}	c #454B4B",
"|	c #444A4A",
"1	c #444B4A",
"2	c #444A4B",
"3	c #444A49",
"4	c #43494A",
"5	c #434A49",
"6	c #434949",
"7	c #434948",
"8	c #434848",
"9	c #424949",
"0	c #424848",
"a	c #424747",
"b	c #414847",
"c	c #414748",
"d	c #424748",
"e	c #414747",
"  ...",
" .+@@",
".####",
".####",
".####",
".$$$$",
".%%%%",
".%%%%",
".&**=",
".--;-",
".>,')",
".!+++",
".~~{]",
".^^~^",
".//(_",
".:<<[",
".}}}}",
".|121",
".||34",
".5536",
".6768",
".9008",
".abcd",
".eeee"};
