<?xml version="1.0" encoding="UTF-8" standalone="no"?>
<!-- Created with Inkscape (http://www.inkscape.org/) -->
<svg id="svg7384" xmlns:rdf="http://www.w3.org/1999/02/22-rdf-syntax-ns#" xmlns="http://www.w3.org/2000/svg" height="16" width="16" version="1.1" xmlns:cc="http://creativecommons.org/ns#" xmlns:dc="http://purl.org/dc/elements/1.1/">
 <title id="title9167">Gnome Symbolic Icon Theme</title>
 <metadata id="metadata90">
  <rdf:RDF>
   <cc:Work rdf:about="">
    <dc:format>image/svg+xml</dc:format>
    <dc:type rdf:resource="http://purl.org/dc/dcmitype/StillImage"/>
    <dc:title>Gnome Symbolic Icon Theme</dc:title>
   </cc:Work>
  </rdf:RDF>
 </metadata>
 <g id="g3063" transform="translate(1.1621)">
  <rect id="rect3818" style="fill:#bebebe" rx=".53250" ry=".53250" height="12" width="2" y="1" x="5"/>
  <rect id="rect3820" style="fill:#bebebe" transform="rotate(-90)" rx=".49537" ry=".49537" height="4.6952" width="2" y="5" x="-3"/>
  <path id="path3822" d="m6.4953 12.5a2.9953 2.9953 0 0 1 -5.9905 0 2.9953 2.9953 0 1 1 5.9905 0z" style="stroke-linejoin:round;stroke:#bebebe;stroke-width:1.0095;fill:#bebebe"/>
 </g>
 <g id="layer1">
  <g id="g3106" style="fill:#ef2929" transform="matrix(.55313 0 0 .55313 7.4609 8.619)">
   <g id="layer12-9" style="fill:#ef2929" transform="translate(-140 -606)">
    <path id="path3807-1-1-5-8" d="m144 610v8h8v-8h-8z" style="color:#bebebe;text-indent:0pt;text-transform:none;fill:#ef2929"/>
   </g>
  </g>
 </g>
 <g id="layer2" style="display:none">
  <g id="g3082" style="fill:#8ae234" transform="matrix(.47956 0 0 .47956 7.7552 9.0223)">
   <g id="layer12-6" style="fill:#8ae234" transform="translate(-80 -606)">
    <path id="path3807-1-1-9-38-4" d="m84 609v10h0.90625 0.094c0.17491 0.001 0.34778-0.0388 0.5-0.125l7-4c0.3107-0.17189 0.46875-0.52345 0.46875-0.875s-0.15805-0.70311-0.46875-0.875l-7-4c-0.152-0.09-0.325-0.13-0.5-0.13h-0.09375z" style="block-progression:tb;text-indent:0;color:#000000;text-transform:none;display:inline;fill:#8ae234"/>
   </g>
  </g>
 </g>
 <g id="layer3" style="display:none">
  <g id="g3051" style="fill:#fcaf3e" transform="matrix(.53384 0 0 .53384 7.5381 8.8504)">
   <g id="layer12-0" style="fill:#fcaf3e" transform="translate(-160 -496)">
    <g id="g3221" style="fill:#fcaf3e" transform="translate(40 9)">
     <path id="path3807-1-1-5-8-6" style="color:#bebebe;text-indent:0pt;text-transform:none;display:inline;fill:#fcaf3e" d="m124 491v8h3v-8h-3z"/>
     <path id="path3807-1-1-5-8-6-3" style="color:#bebebe;text-indent:0pt;text-transform:none;display:inline;fill:#fcaf3e" d="m129 491v8h3v-8h-3z"/>
    </g>
   </g>
  </g>
 </g>
</svg>
