<?xml version="1.0" encoding="UTF-8" standalone="no"?>
<!-- Created with Inkscape (http://www.inkscape.org/) -->
<svg id="svg25070" xmlns:rdf="http://www.w3.org/1999/02/22-rdf-syntax-ns#" xmlns="http://www.w3.org/2000/svg" height="96" width="96" version="1.1" xmlns:cc="http://creativecommons.org/ns#" xmlns:xlink="http://www.w3.org/1999/xlink" xmlns:dc="http://purl.org/dc/elements/1.1/">
 <metadata id="metadata3353">
  <rdf:RDF>
   <cc:Work rdf:about="">
    <dc:format>image/svg+xml</dc:format>
    <dc:type rdf:resource="http://purl.org/dc/dcmitype/StillImage"/>
   </cc:Work>
  </rdf:RDF>
 </metadata>
 <g id="layer1" transform="matrix(0 1 -1 0 48 4.1307e-7)">
  <g id="g4030-1-8" style="stroke:#000" transform="matrix(-2 0 0 2 -97.25 -374.97)">
   <path id="path3165-7-3" style="color:#000000;stroke:#000;stroke-linecap:round;stroke-width:7;fill:none" d="m-72.5 173.5-14 14 14 14"/>
  </g>
  <path id="path4050-2-7-9-4" style="color:#000000" d="m-36.5 186.41a2.0938 2.0938 0 1 1 -4.1875 0 2.0938 2.0938 0 1 1 4.1875 0z" transform="matrix(-3.3433 0 0 3.3433 -89.28 -623.18)"/>
  <path id="path4050-2-7-9-4-8" style="color:#000000" d="m-36.5 186.41a2.0938 2.0938 0 1 1 -4.1875 0 2.0938 2.0938 0 1 1 4.1875 0z" transform="matrix(-3.3433 0 0 3.3433 -111.28 -623.18)"/>
  <path id="path4050-2-7-9-4-0" style="color:#000000;stroke:#000;stroke-linecap:round;stroke-width:.69792;fill:none" d="m-36.5 186.41a2.0938 2.0938 0 1 1 -4.1875 0 2.0938 2.0938 0 1 1 4.1875 0z" transform="matrix(-2.8656 0 0 2.8656 -70.846 -534.14)"/>
  <path id="path4050-2-7-9-4-0-9" style="color:#000000;stroke:#000;stroke-linecap:round;stroke-width:.69792;fill:none" d="m-36.5 186.41a2.0938 2.0938 0 1 1 -4.1875 0 2.0938 2.0938 0 1 1 4.1875 0z" transform="matrix(-2.8656 0 0 2.8656 -92.846 -534.14)"/>
  <path id="path3165-7-3-1" style="opacity:.35;color:#000000;text-indent:0pt;stroke:#000;stroke-width:2;text-transform:none;fill:none" d="m47.875-34.03c1.539 0.0448 3.0511 0.70928 4.125 1.8125l32.25 32.25-32.25 32.25c-2.2253 2.2253-6.2747 2.2253-8.5 0s-2.2253-6.2747 0-8.5l23.75-23.75-23.75-23.75c-1.7317-1.6731-2.295-4.4423-1.3546-6.6589 0.94042-2.2167 3.3231-3.736 5.7296-3.6536z"/>
  <path id="path3165-7-3-1-9" style="color:#000000;text-indent:0pt;stroke:#000;stroke-linecap:round;stroke-width:2;text-transform:none;fill:none" d="m41.832 28.094c-0.014-1.589 0.54158-3.1841 1.6687-4.3112l23.75-23.75m-25.105-30.409c0.94042-2.2167 3.3231-3.736 5.7296-3.6536 1.539 0.0448 3.0511 0.70928 4.125 1.8125l32.25 32.25"/>
 </g>
</svg>
