<?xml version="1.0" encoding="UTF-8" standalone="no"?>
<!-- Created with Inkscape (http://www.inkscape.org/) -->

<svg
   xmlns:dc="http://purl.org/dc/elements/1.1/"
   xmlns:cc="http://creativecommons.org/ns#"
   xmlns:rdf="http://www.w3.org/1999/02/22-rdf-syntax-ns#"
   xmlns:svg="http://www.w3.org/2000/svg"
   xmlns="http://www.w3.org/2000/svg"
   xmlns:sodipodi="http://sodipodi.sourceforge.net/DTD/sodipodi-0.dtd"
   xmlns:inkscape="http://www.inkscape.org/namespaces/inkscape"
   width="35"
   height="24"
   id="svg2"
   version="1.1"
   inkscape:version="0.91 r13725"
   sodipodi:docname="add-workspace-bigger.svg">
  <defs
     id="defs4" />
  <sodipodi:namedview
     id="base"
     pagecolor="#ffffff"
     bordercolor="#666666"
     borderopacity="1.0"
     inkscape:pageopacity="0.0"
     inkscape:pageshadow="2"
     inkscape:zoom="15.839192"
     inkscape:cx="11.504567"
     inkscape:cy="11.21135"
     inkscape:document-units="px"
     inkscape:current-layer="layer1"
     showgrid="false"
     fit-margin-top="0"
     fit-margin-left="0"
     fit-margin-right="0"
     fit-margin-bottom="0"
     inkscape:window-width="1280"
     inkscape:window-height="966"
     inkscape:window-x="0"
     inkscape:window-y="0"
     inkscape:window-maximized="1" />
  <metadata
     id="metadata7">
    <rdf:RDF>
      <cc:Work
         rdf:about="">
        <dc:format>image/svg+xml</dc:format>
        <dc:type
           rdf:resource="http://purl.org/dc/dcmitype/StillImage" />
        <dc:title />
      </cc:Work>
    </rdf:RDF>
  </metadata>
  <g
     inkscape:label="Layer 1"
     inkscape:groupmode="layer"
     id="layer1"
     transform="translate(5.6805248e-4,-1028.3437)">
    <path
       style="color:#000000;display:inline;overflow:visible;visibility:visible;fill:#161616;fill-opacity:1;fill-rule:nonzero;stroke:#000000;stroke-width:0;stroke-linejoin:round;stroke-miterlimit:4;stroke-dasharray:none;stroke-opacity:1;marker:none;enable-background:accumulate"
       d="m 7.272068,1039.5206 c -0.15025,0.1518 -0.271384,0.3435 -0.271731,0.5735 l -9.001e-4,2.4734 c 3.95e-4,0.4609 0.3834111,0.8439 0.8443441,0.8443 l 7.088682,0.029 -0.0026,7.0586 c 1.57e-4,0.4614 0.382851,0.8442 0.844235,0.8443 l 2.473484,0 c 0.461386,1e-4 0.845071,-0.3836 0.844914,-0.8449 l 0.0026,-7.0584 7.058521,0 c 0.46093,3e-4 0.845305,-0.384 0.844912,-0.8448 l 8.99e-4,-2.4736 c -2.81e-4,-0.461 -0.383411,-0.844 -0.844235,-0.8443 l -7.058517,0 -0.02763,-7.0887 c -1.57e-4,-0.4614 -0.382958,-0.8442 -0.844342,-0.8443 l -2.473487,9e-4 c -0.230625,0 -0.452875,0.1517 -0.603357,0.302 -0.150483,0.1517 -0.241037,0.3128 -0.241554,0.5428 l -0.0026,7.0584 -7.058516,0 c -0.230355,-10e-5 -0.422925,0.1212 -0.573179,0.2718 z"
       id="rect2987-3"
       inkscape:connector-curvature="0" />
    <path
       style="color:#000000;display:inline;overflow:visible;visibility:visible;fill:#eae3d1;fill-opacity:1;fill-rule:nonzero;stroke:#000000;stroke-width:0;stroke-linejoin:round;stroke-miterlimit:4;stroke-dasharray:none;stroke-opacity:1;marker:none;enable-background:accumulate"
       d="m 8.2720679,1038.2433 c -0.15025,0.1517 -0.271384,0.3434 -0.271731,0.5734 l -9e-4,3.0281 c 3.95e-4,0.461 0.383411,0.8439 0.844344,0.8445 l 6.8113921,0.029 -0.0026,6.7813 c 1.57e-4,0.4614 0.38285,0.8442 0.844235,0.8443 l 3.028408,-10e-4 c 0.461385,10e-5 0.84507,-0.3836 0.844913,-0.8449 l 0.0026,-6.7811 6.780887,0 c 0.46093,3e-4 0.845305,-0.384 0.844912,-0.8448 l 8.99e-4,-3.0283 c -2.81e-4,-0.4609 -0.383411,-0.844 -0.844235,-0.8443 l -6.780883,0 -0.02763,-6.8113 c -1.56e-4,-0.4614 -0.382957,-0.8442 -0.844342,-0.8443 l -3.02841,9e-4 c -0.230625,0 -0.452876,0.1517 -0.603357,0.302 -0.150483,0.1517 -0.241037,0.3128 -0.241554,0.5428 l -0.0026,6.781 -6.7812261,0 c -0.230355,-1e-4 -0.422925,0.1212 -0.573179,0.2718 z"
       id="rect2987"
       inkscape:connector-curvature="0"
       sodipodi:nodetypes="cccccccccccccccccccccccc" />
  </g>
</svg>
