<?xml version="1.0" encoding="UTF-8" standalone="no"?>
<!-- Created with Inkscape (http://www.inkscape.org/) -->

<svg
   xmlns:dc="http://purl.org/dc/elements/1.1/"
   xmlns:cc="http://creativecommons.org/ns#"
   xmlns:rdf="http://www.w3.org/1999/02/22-rdf-syntax-ns#"
   xmlns:svg="http://www.w3.org/2000/svg"
   xmlns="http://www.w3.org/2000/svg"
   xmlns:sodipodi="http://sodipodi.sourceforge.net/DTD/sodipodi-0.dtd"
   xmlns:inkscape="http://www.inkscape.org/namespaces/inkscape"
   id="svg7384"
   version="1.1"
   inkscape:version="0.92.2 2405546, 2018-03-11"
   height="115"
   sodipodi:docname="trash.svg"
   width="320">
  <metadata
     id="metadata90">
    <rdf:RDF>
      <cc:Work
         rdf:about="">
        <dc:format>image/svg+xml</dc:format>
        <dc:type
           rdf:resource="http://purl.org/dc/dcmitype/StillImage" />
        <dc:title>Gnome Symbolic Icon Theme</dc:title>
      </cc:Work>
    </rdf:RDF>
  </metadata>
  <sodipodi:namedview
     inkscape:cy="54.588214"
     inkscape:current-layer="layer13"
     inkscape:window-width="1920"
     pagecolor="#4c4c4c"
     showborder="true"
     showguides="true"
     inkscape:snap-nodes="true"
     objecttolerance="10"
     showgrid="true"
     inkscape:object-nodes="true"
     inkscape:pageshadow="2"
     inkscape:guide-bbox="true"
     inkscape:window-x="0"
     inkscape:snap-bbox="true"
     bordercolor="#666666"
     id="namedview88"
     inkscape:window-maximized="1"
     inkscape:snap-global="true"
     inkscape:window-y="0"
     gridtolerance="10"
     inkscape:zoom="4"
     inkscape:window-height="1009"
     borderopacity="1"
     guidetolerance="10"
     inkscape:cx="155.575"
     inkscape:bbox-paths="false"
     inkscape:snap-grids="true"
     inkscape:pageopacity="1"
     inkscape:snap-to-guides="true"
     fit-margin-top="0"
     fit-margin-left="0"
     fit-margin-right="0"
     fit-margin-bottom="0">
    <inkscape:grid
       visible="true"
       spacingx="1"
       type="xygrid"
       spacingy="1"
       id="grid4866"
       empspacing="2"
       enabled="true"
       snapvisiblegridlinesonly="true"
       originx="-1"
       originy="0" />
  </sodipodi:namedview>
  <title
     id="title9167">Gnome Symbolic Icon Theme</title>
  <defs
     id="defs7386" />
  <g
     transform="translate(-483,-77)"
     inkscape:groupmode="layer"
     id="layer9"
     inkscape:label="status"
     style="display:inline" />
  <g
     transform="translate(-483,-77)"
     inkscape:groupmode="layer"
     id="layer10"
     inkscape:label="devices" />
  <g
     transform="translate(-483,-77)"
     inkscape:groupmode="layer"
     id="layer11"
     inkscape:label="apps" />
  <g
     transform="translate(-483,-77)"
     inkscape:groupmode="layer"
     id="layer12"
     inkscape:label="actions" />
  <g
     transform="translate(-483,-77)"
     inkscape:groupmode="layer"
     id="layer13"
     inkscape:label="places">
    <g
       transform="translate(254.0002,-820)"
       id="g40072"
       inkscape:label="folder-remote" />
    <path
       style="color:#000000;fill:#000000;fill-opacity:1;fill-rule:nonzero;stroke:none;stroke-width:1;marker:none;visibility:visible;display:inline;overflow:visible;enable-background:accumulate"
       d="m 625.48152,130 0,38 c 0,3.324 2.676,6 6,6 l 32,0 c 3.324,0 6,-2.676 6,-6 l 0,-38 -44,0 z m 10,8 c 1.108,0 2,0.892 2,2 l 0,24 c 0,1.108 -0.892,2 -2,2 -1.108,0 -2,-0.892 -2,-2 l 0,-24 c 0,-1.108 0.892,-2 2,-2 z m 8,0 c 1.108,0 2,0.892 2,2 l 0,24 c 0,1.108 -0.892,2 -2,2 -1.108,0 -2,-0.892 -2,-2 l 0,-24 c 0,-1.108 0.892,-2 2,-2 z m 8,0 c 1.108,0 2,0.892 2,2 l 0,24 c 0,1.108 -0.892,2 -2,2 -1.108,0 -2,-0.892 -2,-2 l 0,-24 c 0,-1.108 0.892,-2 2,-2 z m 8,0 c 1.108,0 2,0.892 2,2 l 0,24 c 0,1.108 -0.892,2 -2,2 -1.108,0 -2,-0.892 -2,-2 l 0,-24 c 0,-1.108 0.892,-2 2,-2 z"
       id="path3801-4"
       inkscape:connector-curvature="0" />
    <path
       style="color:#000000;fill:#e6e6e6;fill-opacity:0.90399998;fill-rule:nonzero;stroke:none;stroke-width:1;stroke-miterlimit:4;stroke-opacity:1;stroke-dasharray:none;marker:none;visibility:visible;display:inline;overflow:visible;enable-background:accumulate"
       d="m 621,134.5 0,38 c 0,3.324 2.676,6 6,6 l 32,0 c 3.324,0 6,-2.676 6,-6 l 0,-38 -44,0 z m 10,8 c 1.108,0 2,0.892 2,2 l 0,24 c 0,1.108 -0.892,2 -2,2 -1.108,0 -2,-0.892 -2,-2 l 0,-24 c 0,-1.108 0.892,-2 2,-2 z m 8,0 c 1.108,0 2,0.892 2,2 l 0,24 c 0,1.108 -0.892,2 -2,2 -1.108,0 -2,-0.892 -2,-2 l 0,-24 c 0,-1.108 0.892,-2 2,-2 z m 8,0 c 1.108,0 2,0.892 2,2 l 0,24 c 0,1.108 -0.892,2 -2,2 -1.108,0 -2,-0.892 -2,-2 l 0,-24 c 0,-1.108 0.892,-2 2,-2 z m 8,0 c 1.108,0 2,0.892 2,2 l 0,24 c 0,1.108 -0.892,2 -2,2 -1.108,0 -2,-0.892 -2,-2 l 0,-24 c 0,-1.108 0.892,-2 2,-2 z"
       id="path3801"
       inkscape:connector-curvature="0" />
    <path
       style="color:#000000;fill:#000000;fill-opacity:1;fill-rule:nonzero;stroke:none;stroke-width:1;marker:none;visibility:visible;display:inline;overflow:visible;enable-background:accumulate"
       d="m 660.98152,89.78125 c -0.76968,0.0135 -1.53803,0.24211 -2.21875,0.71875 l -6.5625,4.59375 -2.28125,-3.28125 c -1.27107,-1.81524 -3.77852,-2.2398 -5.59375,-0.96875 l -16.375,11.46875 c -1.81522,1.27104 -2.23979,3.74725 -0.96875,5.5625 l 2.28125,3.28125 -6.5625,4.59375 c -1.81525,1.27104 -2.23979,3.74726 -0.96875,5.5625 l 2.28125,3.28125 L 666.60652,94.75 664.32527,91.5 c -0.7944,-1.13452 -2.06094,-1.74117 -3.34375,-1.71875 z m -17.625,6.625 2.28125,3.28125 -9.8125,6.875 -2.3125,-3.28125 9.84375,-6.875 z"
       id="path3805-2"
       inkscape:connector-curvature="0" />
    <path
       style="color:#000000;fill:#e6e6e6;fill-opacity:0.90399998;fill-rule:nonzero;stroke:none;stroke-width:1;stroke-miterlimit:4;stroke-opacity:1;stroke-dasharray:none;marker:none;visibility:visible;display:inline;overflow:visible;enable-background:accumulate"
       d="M 656.5,94.28125 C 655.73032,94.2947 654.96197,94.523358 654.28125,95 l -6.5625,4.59375 -2.28125,-3.28125 c -1.27107,-1.815236 -3.77852,-2.239795 -5.59375,-0.96875 l -16.375,11.46875 c -1.81522,1.27104 -2.23979,3.74725 -0.96875,5.5625 l 2.28125,3.28125 -6.5625,4.59375 c -1.81525,1.27104 -2.23979,3.74726 -0.96875,5.5625 l 2.28125,3.28125 L 662.125,99.25 659.84375,96 c -0.7944,-1.134518 -2.06094,-1.74117 -3.34375,-1.71875 z m -17.625,6.625 2.28125,3.28125 -9.8125,6.875 -2.3125,-3.28125 9.84375,-6.875 z"
       id="path3805"
       inkscape:connector-curvature="0" />
  </g>
  <g
     transform="translate(-483,-77)"
     inkscape:groupmode="layer"
     id="layer14"
     inkscape:label="mimetypes" />
  <g
     transform="translate(-483,-77)"
     inkscape:groupmode="layer"
     id="layer15"
     inkscape:label="emblems"
     style="display:inline" />
</svg>
