<?xml version="1.0" encoding="UTF-8" standalone="no"?>
<!-- Created with Inkscape (http://www.inkscape.org/) -->

<svg
   xmlns:dc="http://purl.org/dc/elements/1.1/"
   xmlns:cc="http://creativecommons.org/ns#"
   xmlns:rdf="http://www.w3.org/1999/02/22-rdf-syntax-ns#"
   xmlns:svg="http://www.w3.org/2000/svg"
   xmlns="http://www.w3.org/2000/svg"
   xmlns:sodipodi="http://sodipodi.sourceforge.net/DTD/sodipodi-0.dtd"
   xmlns:inkscape="http://www.inkscape.org/namespaces/inkscape"
   width="40"
   height="40"
   id="svg3768"
   version="1.1"
   inkscape:version="0.91 r13725"
   sodipodi:docname="window-close.svg">
  <defs
     id="defs3770" />
  <sodipodi:namedview
     id="base"
     pagecolor="#ffffff"
     bordercolor="#666666"
     borderopacity="1.0"
     inkscape:pageopacity="1"
     inkscape:pageshadow="2"
     inkscape:zoom="16.617009"
     inkscape:cx="14.035093"
     inkscape:cy="19.836817"
     inkscape:current-layer="layer1"
     showgrid="true"
     inkscape:document-units="px"
     inkscape:grid-bbox="true"
     inkscape:window-width="1280"
     inkscape:window-height="966"
     inkscape:window-x="0"
     inkscape:window-y="0"
     inkscape:window-maximized="1"
     fit-margin-top="0"
     fit-margin-left="0"
     fit-margin-right="0"
     fit-margin-bottom="0">
    <inkscape:grid
       type="xygrid"
       id="grid4311"
       empspacing="5"
       visible="true"
       enabled="true"
       snapvisiblegridlinesonly="true"
       originx="0.01236312px"
       originy="-0.0056690875px" />
  </sodipodi:namedview>
  <metadata
     id="metadata3773">
    <rdf:RDF>
      <cc:Work
         rdf:about="">
        <dc:format>image/svg+xml</dc:format>
        <dc:type
           rdf:resource="http://purl.org/dc/dcmitype/StillImage" />
        <dc:title />
      </cc:Work>
    </rdf:RDF>
  </metadata>
  <g
     id="layer1"
     inkscape:label="Layer 1"
     inkscape:groupmode="layer"
     transform="translate(0.05605355,-24.05816)">
    <circle
       style="fill:#000000;fill-opacity:0.74509805;fill-rule:nonzero;stroke:none;stroke-width:0.75662148;stroke-miterlimit:4;stroke-dasharray:none;stroke-opacity:1"
       id="path3776-9"
       cx="19.943947"
       cy="44.058159"
       r="17" />
    <path
       style="color:#000000;fill:#eae3d1;fill-opacity:1;fill-rule:nonzero;stroke:none;stroke-width:4;marker:none;visibility:visible;display:inline;overflow:visible;enable-background:accumulate"
       d="m 16.314204,38.74566 c -0.137971,0 -0.282194,0.03256 -0.387912,0.138435 l -1.136027,1.135211 c -0.211441,0.211756 -0.211441,0.563508 0,0.775264 l 3.241832,3.267188 -3.241832,3.239499 c -0.211757,0.211903 -0.211757,0.563364 0,0.775264 l 1.136027,1.13521 c 0.211755,0.211905 0.564066,0.211905 0.775822,0 l 3.241833,-3.239496 3.241834,3.239499 c 0.211438,0.211757 0.564384,0.211757 0.775823,0 l 1.136026,-1.13521 c 0.211441,-0.211756 0.211441,-0.563508 0,-0.775264 l -3.241833,-3.239499 3.241833,-3.267188 c 0.211757,-0.211903 0.211757,-0.563362 0,-0.775265 l -1.136026,-1.135209 c -0.105867,-0.105952 -0.277444,-0.138436 -0.41562,-0.138436 -0.138182,0 -0.254326,0.0325 -0.360203,0.138436 l -3.241834,3.239503 -3.241833,-3.2395 c -0.105718,-0.105877 -0.24994,-0.138437 -0.38791,-0.138437 z"
       id="rect2987"
       inkscape:connector-curvature="0" />
  </g>
</svg>
