<?xml version="1.0" encoding="UTF-8" standalone="no"?>
<!-- Created with Inkscape (http://www.inkscape.org/) -->

<svg
   xmlns:dc="http://purl.org/dc/elements/1.1/"
   xmlns:cc="http://creativecommons.org/ns#"
   xmlns:rdf="http://www.w3.org/1999/02/22-rdf-syntax-ns#"
   xmlns:svg="http://www.w3.org/2000/svg"
   xmlns="http://www.w3.org/2000/svg"
   xmlns:xlink="http://www.w3.org/1999/xlink"
   xmlns:sodipodi="http://sodipodi.sourceforge.net/DTD/sodipodi-0.dtd"
   xmlns:inkscape="http://www.inkscape.org/namespaces/inkscape"
   width="30"
   height="30"
   id="svg4352"
   version="1.1"
   inkscape:version="0.48.3.1 r9886"
   sodipodi:docname="today.svg">
  <defs
     id="defs4354">
    <linearGradient
       inkscape:collect="always"
       xlink:href="#linearGradient3921-5-9"
       id="linearGradient4336"
       x1="35"
       y1="3"
       x2="35"
       y2="19"
       gradientUnits="userSpaceOnUse"
       gradientTransform="matrix(1.0666667,0,0,1.125,-8.266667,-2.375)" />
    <linearGradient
       id="linearGradient3921-5-9">
      <stop
         offset="0"
         style="stop-color:#6e9941;stop-opacity:1;"
         id="stop3923-6-1" />
      <stop
         offset="1"
         style="stop-color:#d6e8c3;stop-opacity:1;"
         id="stop3925-4-6" />
    </linearGradient>
    <linearGradient
       id="linearGradient4219">
      <stop
         id="stop4221"
         offset="0"
         style="stop-color:#ffffff;stop-opacity:1;" />
      <stop
         id="stop4223"
         offset="1"
         style="stop-color:#f0f0f0;stop-opacity:1;" />
    </linearGradient>
    <linearGradient
       id="linearGradient4259">
      <stop
         style="stop-color:#f4f4f4;stop-opacity:1;"
         offset="0"
         id="stop4261" />
      <stop
         style="stop-color:#c8c8c8;stop-opacity:1;"
         offset="1"
         id="stop4263" />
    </linearGradient>
    <linearGradient
       inkscape:collect="always"
       xlink:href="#linearGradient4071-3-0"
       id="linearGradient4350"
       gradientUnits="userSpaceOnUse"
       gradientTransform="matrix(1.0666667,0,0,1.125,-8.266667,-2.375)"
       x1="35"
       y1="3"
       x2="35"
       y2="19" />
    <linearGradient
       inkscape:collect="always"
       id="linearGradient4071-3-0">
      <stop
         style="stop-color:#000000;stop-opacity:1;"
         offset="0"
         id="stop4073-8-9" />
      <stop
         style="stop-color:#000000;stop-opacity:0;"
         offset="1"
         id="stop4075-4-0" />
    </linearGradient>
    <linearGradient
       y2="34"
       x2="54"
       y1="34"
       x1="37"
       gradientUnits="userSpaceOnUse"
       id="linearGradient4240-5"
       xlink:href="#linearGradient4259-9"
       inkscape:collect="always" />
    <linearGradient
       id="linearGradient4259-9">
      <stop
         style="stop-color:#f4f4f4;stop-opacity:1;"
         offset="0"
         id="stop4261-1" />
      <stop
         style="stop-color:#e1e1e1;stop-opacity:1;"
         offset="1"
         id="stop4263-9" />
    </linearGradient>
    <linearGradient
       y2="19"
       x2="35"
       y1="3"
       x1="35"
       gradientTransform="matrix(1,0,0,1.125,-19,42.625)"
       gradientUnits="userSpaceOnUse"
       id="linearGradient4386-6"
       xlink:href="#linearGradient3921-5-9-5"
       inkscape:collect="always" />
    <linearGradient
       id="linearGradient3921-5-9-5">
      <stop
         offset="0"
         style="stop-color:#6e9941;stop-opacity:1;"
         id="stop3923-6-1-3" />
      <stop
         offset="1"
         style="stop-color:#c2dda7;stop-opacity:1;"
         id="stop3925-4-6-5" />
    </linearGradient>
    <linearGradient
       y2="19"
       x2="35"
       y1="3"
       x1="35"
       gradientTransform="matrix(1,0,0,1.125,-34,-23.375)"
       gradientUnits="userSpaceOnUse"
       id="linearGradient5099"
       xlink:href="#linearGradient3921-5-9-5"
       inkscape:collect="always" />
    <linearGradient
       y2="19"
       x2="35"
       y1="3"
       x1="35"
       gradientTransform="matrix(1,0,0,1.125,-19,42.625)"
       gradientUnits="userSpaceOnUse"
       id="linearGradient4386-1"
       xlink:href="#linearGradient3921-5-9-7"
       inkscape:collect="always" />
    <linearGradient
       id="linearGradient3921-5-9-7">
      <stop
         offset="0"
         style="stop-color:#6e9941;stop-opacity:1;"
         id="stop3923-6-1-5" />
      <stop
         offset="1"
         style="stop-color:#c2dda7;stop-opacity:1;"
         id="stop3925-4-6-8" />
    </linearGradient>
    <linearGradient
       y2="19"
       x2="35"
       y1="3"
       x1="35"
       gradientTransform="matrix(1,0,0,1.125,-19,42.625)"
       gradientUnits="userSpaceOnUse"
       id="linearGradient4386-8"
       xlink:href="#linearGradient3921-5-9-1"
       inkscape:collect="always" />
    <linearGradient
       id="linearGradient3921-5-9-1">
      <stop
         offset="0"
         style="stop-color:#6e9941;stop-opacity:1;"
         id="stop3923-6-1-2" />
      <stop
         offset="1"
         style="stop-color:#c2dda7;stop-opacity:1;"
         id="stop3925-4-6-50" />
    </linearGradient>
    <linearGradient
       y2="19"
       x2="35"
       y1="3"
       x1="35"
       gradientTransform="matrix(1,0,0,1.125,-21,15.625)"
       gradientUnits="userSpaceOnUse"
       id="linearGradient5236"
       xlink:href="#linearGradient3921-5-9-1"
       inkscape:collect="always" />
    <linearGradient
       y2="19"
       x2="35"
       y1="3"
       x1="35"
       gradientTransform="matrix(1,0,0,1.125,-19,42.625)"
       gradientUnits="userSpaceOnUse"
       id="linearGradient4386-64"
       xlink:href="#linearGradient3921-5-9-9"
       inkscape:collect="always" />
    <linearGradient
       id="linearGradient3921-5-9-9">
      <stop
         offset="0"
         style="stop-color:#6e9941;stop-opacity:1;"
         id="stop3923-6-1-50" />
      <stop
         offset="1"
         style="stop-color:#c2dda7;stop-opacity:1;"
         id="stop3925-4-6-2" />
    </linearGradient>
    <linearGradient
       inkscape:collect="always"
       xlink:href="#linearGradient3921-5-9-8"
       id="linearGradient3829-9"
       x1="-20"
       y1="14"
       x2="0"
       y2="14"
       gradientUnits="userSpaceOnUse"
       gradientTransform="translate(58,-30)" />
    <linearGradient
       id="linearGradient3921-5-9-8">
      <stop
         offset="0"
         style="stop-color:#6e9941;stop-opacity:1;"
         id="stop3923-6-1-8" />
      <stop
         offset="1"
         style="stop-color:#d6e8c3;stop-opacity:1;"
         id="stop3925-4-6-24" />
    </linearGradient>
    <linearGradient
       y2="14"
       x2="0"
       y1="14"
       x1="-20"
       gradientTransform="translate(54,5)"
       gradientUnits="userSpaceOnUse"
       id="linearGradient3846-1"
       xlink:href="#linearGradient3921-5-9-8-3"
       inkscape:collect="always" />
    <linearGradient
       id="linearGradient3921-5-9-8-3">
      <stop
         offset="0"
         style="stop-color:#6e9941;stop-opacity:1;"
         id="stop3923-6-1-8-3" />
      <stop
         offset="1"
         style="stop-color:#d6e8c3;stop-opacity:1;"
         id="stop3925-4-6-24-9" />
    </linearGradient>
    <linearGradient
       inkscape:collect="always"
       xlink:href="#linearGradient3921-5-9-4"
       id="linearGradient3829-8"
       x1="-20"
       y1="14"
       x2="6"
       y2="14"
       gradientUnits="userSpaceOnUse"
       gradientTransform="translate(58,-30)" />
    <linearGradient
       id="linearGradient3921-5-9-4">
      <stop
         offset="0"
         style="stop-color:#6e9941;stop-opacity:1;"
         id="stop3923-6-1-7" />
      <stop
         offset="1"
         style="stop-color:#d6e8c3;stop-opacity:1;"
         id="stop3925-4-6-6" />
    </linearGradient>
  </defs>
  <sodipodi:namedview
     id="base"
     pagecolor="#ffffff"
     bordercolor="#666666"
     borderopacity="1.0"
     inkscape:pageopacity="0.0"
     inkscape:pageshadow="2"
     inkscape:zoom="7.9999996"
     inkscape:cx="-18.494386"
     inkscape:cy="13.101048"
     inkscape:current-layer="layer1"
     showgrid="true"
     inkscape:document-units="px"
     inkscape:grid-bbox="true"
     inkscape:window-width="1366"
     inkscape:window-height="715"
     inkscape:window-x="0"
     inkscape:window-y="28"
     inkscape:window-maximized="1">
    <inkscape:grid
       type="xygrid"
       id="grid4388"
       empspacing="5"
       visible="true"
       enabled="true"
       snapvisiblegridlinesonly="true" />
  </sodipodi:namedview>
  <metadata
     id="metadata4357">
    <rdf:RDF>
      <cc:Work
         rdf:about="">
        <dc:format>image/svg+xml</dc:format>
        <dc:type
           rdf:resource="http://purl.org/dc/dcmitype/StillImage" />
        <dc:title />
      </cc:Work>
    </rdf:RDF>
  </metadata>
  <g
     id="layer1"
     inkscape:label="Layer 1"
     inkscape:groupmode="layer"
     transform="translate(0,-34)">
    <path
       style="fill:#81a859;fill-opacity:1;stroke:#81a859;stroke-width:0;stroke-linejoin:round;stroke-miterlimit:4;stroke-opacity:1;stroke-dasharray:none"
       id="path3986"
       d="m 13.128274,39.137 c -0.255306,-0.03323 -0.511532,-0.0541 -0.768042,-0.07153 -0.789053,-0.03234 -1.573812,0.07916 -2.353869,0.200573 -0.6749181,0.120835 -1.3475751,0.276449 -1.9975151,0.521824 -0.441724,0.166767 -0.598651,0.254368 -1.02841,0.461941 -0.171338,0.09258 -0.344939,0.179821 -0.514016,0.277743 -0.17095,0.09901 -0.67077,0.424208 -0.505689,0.312817 0.58027,-0.391546 1.161397,-0.781832 1.751501,-1.153448 0.164498,-0.103593 -0.318494,0.228036 -0.473849,0.348848 -0.432863,0.336618 -0.47621,0.394054 -0.882216,0.773116 -0.726971,0.735444 -1.317927,1.622255 -1.778485,2.599521 -0.09901,0.210083 -0.18636,0.427151 -0.27954,0.640727 -0.45056,1.152406 -0.81043,2.365242 -0.955932,3.622449 -0.02997,0.258953 -0.04105,0.520335 -0.06157,0.780503 -0.03547,1.114103 0.09042,2.228874 0.401367,3.28685 0.217189,0.738962 0.33658,0.952146 0.640875,1.651247 0.700677,1.386126 1.60513,2.63837 2.671474,3.67411 0.221175,0.214828 0.456314,0.409904 0.684471,0.614855 1.263042,1.038499 2.6902971,1.77131 4.1901371,2.22435 0.320539,0.09683 0.646443,0.168431 0.969665,0.252646 1.305055,0.282813 2.637582,0.363223 3.957735,0.17972 0.836505,-0.116274 1.084097,-0.212437 1.902149,-0.436687 1.282838,-0.405995 2.509048,-1.010256 3.677193,-1.738576 0.299664,-0.186836 1.201205,-0.737583 0.887491,-0.584224 -0.382836,0.187151 -0.730698,0.457451 -1.096048,0.686177 1.081401,-0.825958 2.111949,-1.763705 2.940083,-2.922266 0.516375,-0.72241 0.56728,-0.893074 0.973435,-1.689599 0.506708,-1.151634 0.752791,-2.405527 0.736709,-3.695294 -0.0103,-0.825951 -0.07818,-1.106101 -0.195532,-1.920975 -0.33268,-1.738144 -0.959261,-3.385274 -1.801907,-4.876307 -0.191528,-0.338901 -0.402332,-0.662878 -0.603499,-0.994318 -1.003615,-1.497691 -2.249723,-2.735142 -3.655089,-3.712569 -1.098065,-0.7637 -1.493706,-0.919686 -2.677842,-1.53707 -1.481183,-0.641215 -1.650932,-0.754468 -3.196299,-1.25864 -0.57266,-0.18683 -1.152781,-0.342002 -1.729171,-0.513003 0,0 1.441321,-1.14251 1.441321,-1.14251 l 0,0 c 0.58785,0.165639 1.17873,0.317664 1.763551,0.496916 1.580942,0.48457 1.782899,0.597164 3.3127,1.198456 1.220139,0.578963 1.678327,0.747595 2.819212,1.474569 1.479229,0.942568 2.799185,2.165508 3.883342,3.660025 0.216384,0.328571 0.443527,0.648135 0.649153,0.985712 0.903278,1.482918 1.565273,3.150591 1.937207,4.909282 0.134055,0.831059 0.20909,1.11834 0.231941,1.964109 0.03604,1.334057 -0.203775,2.636997 -0.715137,3.835707 -0.41428,0.831669 -0.463565,1.005929 -0.993383,1.761209 -0.835594,1.191178 -1.876821,2.163164 -2.972873,3.019325 -0.948723,0.646168 -1.894196,1.298683 -2.846167,1.938505 -0.604005,0.405952 -1.179775,0.763423 -1.813858,1.103883 -0.908563,0.487835 -1.849754,0.892263 -2.82057,1.183642 -0.828797,0.211444 -1.077608,0.304415 -1.923524,0.402609 -1.331616,0.154573 -2.669622,0.02525 -3.981654,-0.256947 -0.329431,-0.08647 -0.661399,-0.161035 -0.9882961,-0.259397 -1.537671,-0.46268 -3.006871,-1.198295 -4.30434,-2.260298 -0.232947,-0.209712 -0.472718,-0.409775 -0.698841,-0.629135 -1.091031,-1.0584 -2.025981,-2.323935 -2.755004,-3.734132 -0.126441,-0.277773 -0.263363,-0.549567 -0.379325,-0.833318 -0.537838,-1.316059 -0.82009202,-2.744429 -0.802739,-4.19939 0.01602,-0.266787 0.02231,-0.534581 0.04805,-0.800359 0.123011,-1.270338 0.461113,-2.501522 0.885806,-3.677441 0.221702,-0.554046 0.281894,-0.739481 0.546597,-1.264159 0.386611,-0.766323 0.866402,-1.462489 1.424977,-2.072796 0.141642,-0.140719 0.278924,-0.287458 0.424926,-0.422161 0.204264,-0.188454 0.703788,-0.601761 0.927885,-0.753793 1.242435,-0.842895 2.469095,-1.737034 3.795661,-2.398584 0.462965,-0.211073 0.582393,-0.277621 1.0571991,-0.446179 0.670789,-0.238132 1.361244,-0.395141 2.054433,-0.51704 0.831138,-0.137631 1.666477,-0.25262 2.507189,-0.267925 0.312668,-0.0064 0.629748,-0.03356 0.941018,0.0046 0,0 -2.486219,1.991522 -2.486219,1.991522 z"
       inkscape:connector-curvature="0" />
  </g>
</svg>
