/* XPM */
static char *close_pressed[] = {
/* columns rows colors chars-per-pixel */
"24 24 31 1 ",
"  c #535353",
". c gray33",
"X c #585858",
"o c gray35",
"O c #5A5A5A",
"+ c #5B5B5B",
"@ c #6C6C6C",
"# c #6D6D6D",
"$ c gray43",
"% c gray58",
"& c #959595",
"* c #ACACAC",
"= c gray68",
"- c #AEAEAE",
"; c #B1B1B1",
": c #B2B2B2",
"> c gray70",
", c gray71",
"< c #B6B6B6",
"1 c #B7B7B7",
"2 c gray73",
"3 c #BBBBBB",
"4 c gray",
"5 c #CDCDCD",
"6 c #CECECE",
"7 c gray81",
"8 c gray85",
"9 c #EEEEEE",
"0 c #FBFBFB",
"q c gray99",
"w c white",
/* pixels */
"999999999999999999999999",
"888888888888888888888888",
"888888888888888888888888",
"888888888888888888888888",
"888888888888888888888888",
"888888885%@XX#&588888888",
"8888888=O      O=8888888",
"888888=.        .=888888",
"888885O          O688888",
"88888%   0-  *q   %88888",
"88888@   ,w:;w3   #88888",
"88888o   .1ww4.   O88888",
"88888O   .>ww2.   O88888",
"88888@   ;w<<w:   #88888",
"88888&   0:..:0   &88888",
"888885O          +788888",
"888888=.        .-888888",
"8888888=O      +-8888888",
"888888886%$oo$&788888888",
"888888888888888888888888",
"888888888888888888888888",
"888888888888888888888888",
"888888888888888888888888",
"888888888888888888888888"
};
