<?xml version="1.0" encoding="UTF-8"?>
<!-- Created with Inkscape (http://www.inkscape.org/) -->
<svg width="16" height="16" version="1.1" xml:space="preserve" xmlns="http://www.w3.org/2000/svg" xmlns:cc="http://creativecommons.org/ns#" xmlns:dc="http://purl.org/dc/elements/1.1/" xmlns:rdf="http://www.w3.org/1999/02/22-rdf-syntax-ns#" xmlns:xlink="http://www.w3.org/1999/xlink"><defs><radialGradient id="radialGradient5" cx="7.9902" cy="8.0391" r="7.0137" gradientTransform="matrix(.70711 -.70711 .70612 .70612 -.11094 1032.2)" gradientUnits="userSpaceOnUse"><stop stop-color="#00b200" offset="0"/><stop stop-color="#060" offset="1"/></radialGradient><radialGradient id="radialGradient7" cx="7.9902" cy="8.0391" r="7.1637" gradientTransform="matrix(.70711 -.70711 .70615 .70615 -.11111 1032.2)" gradientUnits="userSpaceOnUse"><stop stop-color="#0c0" offset="0"/><stop stop-color="#090" offset="1"/></radialGradient><radialGradient id="radialGradient6" cx="8" cy="8" r="4.2979" gradientTransform="matrix(1 0 0 .3 0 5.6)" gradientUnits="userSpaceOnUse"><stop stop-color="#00b200" offset="0"/><stop stop-color="#060" offset="1"/></radialGradient><radialGradient id="radialGradient8" cx="8" cy="8" r="4.2979" gradientTransform="matrix(1 0 0 .30001 0 5.5999)" gradientUnits="userSpaceOnUse"><stop stop-color="#0c0" offset="0"/><stop stop-color="#090" offset="1"/></radialGradient></defs><metadata><rdf:RDF><cc:Work rdf:about=""><dc:format>image/svg+xml</dc:format><dc:type rdf:resource="http://purl.org/dc/dcmitype/StillImage"/></cc:Work></rdf:RDF></metadata><g transform="rotate(45 1246 516.23)" stroke-width=".3"><path d="m2.9844 1030.5c-0.93069 0.9306-0.93069 2.4308 0 3.3615l6.5435 6.5435c0.93069 0.9307 2.4309 0.9307 3.3616 0l6.5573-6.5572c0.93069-0.9307 0.93069-2.4309 0-3.3616l-6.5435-6.5435c-0.93069-0.9307-2.4309-0.9307-3.3616 0zm0.66704 0.7637 6.6498-6.6499c0.47916-0.4791 1.25-0.4792 1.7292 0l6.7396 6.7396c0.47916 0.4792 0.47918 1.25 0 1.7292l-6.6498 6.6498c-0.47916 0.4792-1.25 0.4792-1.7292 0l-6.7396-6.7396c-0.47916-0.4791-0.47918-1.2499 0-1.7291z" fill="url(#radialGradient5)" stroke="url(#radialGradient7)" stroke-linecap="round"/><rect transform="rotate(-45,1245.9,516.23)" x="3.7021" y="6.7106" width="8.5958" height="2.5788" ry=".050997" fill="url(#radialGradient6)" stroke="url(#radialGradient8)"/></g></svg>
