<?xml version="1.0" encoding="UTF-8"?>
<!-- Created with Inkscape (http://www.inkscape.org/) -->
<svg width="16" height="16" version="1.1" xml:space="preserve" xmlns="http://www.w3.org/2000/svg" xmlns:cc="http://creativecommons.org/ns#" xmlns:dc="http://purl.org/dc/elements/1.1/" xmlns:rdf="http://www.w3.org/1999/02/22-rdf-syntax-ns#" xmlns:xlink="http://www.w3.org/1999/xlink"><defs><radialGradient id="radialGradient5" cx="7.9902" cy="8.0391" r="7.0137" gradientTransform="matrix(1 0 0 .99861 0 .011193)" gradientUnits="userSpaceOnUse"><stop stop-color="#00b200" offset="0"/><stop stop-color="#060" offset="1"/></radialGradient><radialGradient id="radialGradient7" cx="7.9902" cy="8.0391" r="7.1637" gradientTransform="matrix(1 0 0 .99864 0 .010959)" gradientUnits="userSpaceOnUse"><stop stop-color="#0c0" offset="0"/><stop stop-color="#090" offset="1"/></radialGradient></defs><metadata><rdf:RDF><cc:Work rdf:about=""><dc:format>image/svg+xml</dc:format><dc:type rdf:resource="http://purl.org/dc/dcmitype/StillImage"/></cc:Work></rdf:RDF></metadata><path d="m3.3535 1.0352c-1.3162 0-2.377 1.0608-2.377 2.377v9.2539c0 1.3162 1.0608 2.377 2.377 2.377h9.2734c1.3162 0 2.377-1.0608 2.377-2.377v-9.2539c0-1.3162-1.0608-2.377-2.377-2.377h-9.2734zm-0.068359 1.0117h9.4043c0.67763 0 1.2227 0.54503 1.2227 1.2227v9.5312c0 0.67763-0.54503 1.2227-1.2227 1.2227h-9.4043c-0.67763 0-1.2227-0.54503-1.2227-1.2227v-9.5312c0-0.67763 0.54503-1.2227 1.2227-1.2227z" fill="url(#radialGradient5)" stroke="url(#radialGradient7)" stroke-linecap="round" stroke-width=".3"/></svg>
