<?xml version="1.0" encoding="UTF-8"?>
<!-- Created with Inkscape (http://www.inkscape.org/) -->
<svg width="16" height="16" version="1.1" xml:space="preserve" xmlns="http://www.w3.org/2000/svg" xmlns:cc="http://creativecommons.org/ns#" xmlns:dc="http://purl.org/dc/elements/1.1/" xmlns:rdf="http://www.w3.org/1999/02/22-rdf-syntax-ns#"><defs><radialGradient id="radialGradient5" cx="7.9902" cy="8.0391" r="7.0137" gradientTransform="matrix(.70711 -.70711 .70612 .70612 -.11094 1032.2)" gradientUnits="userSpaceOnUse"><stop stop-color="#00b200" offset="0"/><stop stop-color="#060" offset="1"/></radialGradient><radialGradient id="radialGradient7" cx="7.9902" cy="8.0391" r="7.1637" gradientTransform="matrix(.70711 -.70711 .70615 .70615 -.11111 1032.2)" gradientUnits="userSpaceOnUse"><stop stop-color="#0c0" offset="0"/><stop stop-color="#090" offset="1"/></radialGradient><radialGradient id="radialGradient7-7" cx="11.074" cy="1031.8" r="2.5004" gradientTransform="matrix(2.3185 .039426 -.040551 2.3846 27.239 -1428.8)" gradientUnits="userSpaceOnUse"><stop stop-color="#090" stop-opacity=".66667" offset="0"/><stop stop-color="#060" offset="1"/></radialGradient><radialGradient id="radialGradient10" cx="10.499" cy="1031.4" r="2.5004" gradientTransform="matrix(1 0 0 1.5995 0 -618.37)" gradientUnits="userSpaceOnUse"><stop stop-color="#0c0" offset="0"/><stop stop-color="#090" offset="1"/></radialGradient></defs><metadata><rdf:RDF><cc:Work rdf:about=""><dc:format>image/svg+xml</dc:format><dc:type rdf:resource="http://purl.org/dc/dcmitype/StillImage"/></cc:Work></rdf:RDF></metadata><g transform="rotate(45 1246 516.23)" stroke-width=".3"><rect transform="rotate(-45,1246,516.23)" x="1.9168" y="1.6604" width="12.166" height="12.679" ry="1.6725" fill="#004d00" opacity=".5" stroke="#000" stroke-linecap="round" stroke-width=".3"/><path d="m2.9844 1030.5c-0.93069 0.9306-0.93069 2.4308 0 3.3615l6.5435 6.5435c0.93069 0.9307 2.4309 0.9307 3.3616 0l6.5573-6.5572c0.93069-0.9307 0.93069-2.4309 0-3.3616l-6.5435-6.5435c-0.93069-0.9307-2.4309-0.9307-3.3616 0zm0.66704 0.7637 6.6498-6.6499c0.47916-0.4791 1.25-0.4792 1.7292 0l6.7396 6.7396c0.47916 0.4792 0.47918 1.25 0 1.7292l-6.6498 6.6498c-0.47916 0.4792-1.25 0.4792-1.7292 0l-6.7396-6.7396c-0.47916-0.4791-0.47918-1.2499 0-1.7291z" fill="url(#radialGradient5)" stroke="url(#radialGradient7)" stroke-linecap="round"/><path transform="translate(.013299 .035747)" d="m11 1027.4v5.9993h-2.9997v0.9999l-0.00138 0.3329c0 0.3693 0.29773 0.667 0.66706 0.667h4.3338v-7.9991h-1.9998z" fill="url(#radialGradient7-7)" stroke="url(#radialGradient10)"/></g></svg>
