<?xml version="1.0" encoding="UTF-8"?>
<!-- Created with Inkscape (http://www.inkscape.org/) -->
<svg width="16" height="16" version="1.1" viewBox="0 0 4.2333 4.2333" xml:space="preserve" xmlns="http://www.w3.org/2000/svg" xmlns:cc="http://creativecommons.org/ns#" xmlns:dc="http://purl.org/dc/elements/1.1/" xmlns:rdf="http://www.w3.org/1999/02/22-rdf-syntax-ns#" xmlns:xlink="http://www.w3.org/1999/xlink"><defs><radialGradient id="radialGradient4" cx="2.1167" cy="2.1166" r="1.8588" gradientTransform="matrix(3.7272 0 0 3.7272 116.11 .47311)" gradientUnits="userSpaceOnUse"><stop stop-color="#090" offset="0"/><stop stop-color="#060" offset="1"/></radialGradient><radialGradient id="radialGradient6" cx="124" cy="8.3622" r="7.1055" gradientTransform="translate(0)" gradientUnits="userSpaceOnUse"><stop stop-color="#00e500" offset="0"/><stop stop-color="#090" offset="1"/></radialGradient><radialGradient id="radialGradient4-5" cx="2.0856" cy="2.1606" r=".88129" gradientTransform="matrix(3.7796 0 0 1.3522 116.12 5.4406)" gradientUnits="userSpaceOnUse"><stop stop-color="#090" offset="0"/><stop stop-color="#060" offset="1"/></radialGradient><radialGradient id="radialGradient7" cx="124" cy="8.3622" r="3.3309" gradientTransform="matrix(1 0 0 .35777 0 5.3704)" gradientUnits="userSpaceOnUse"><stop stop-color="#00e500" offset="0"/><stop stop-color="#090" offset="1"/></radialGradient></defs><metadata><rdf:RDF><cc:Work rdf:about=""><dc:format>image/svg+xml</dc:format><dc:type rdf:resource="http://purl.org/dc/dcmitype/StillImage"/></cc:Work></rdf:RDF></metadata><g id="radio-checked" transform="matrix(.26458 0 0 .26458 -30.692 -.09583)"><path d="m124 1.4342a6.9276 6.9276 0 0 0-6.928 6.928 6.9276 6.9276 0 0 0 6.928 6.928 6.9276 6.9276 0 0 0 6.928-6.928 6.9276 6.9276 0 0 0-6.928-6.928zm0 0.93799a5.9908 5.9908 0 0 1 5.99 5.99 5.9908 5.9908 0 0 1-5.99 5.99 5.9908 5.9908 0 0 1-5.99-5.99 5.9908 5.9908 0 0 1 5.99-5.99z" fill="url(#radialGradient4)" stroke="url(#radialGradient6)" stroke-linecap="round" stroke-width=".35501"/><rect transform="translate(.0027833 .0017692)" x="120.67" y="7.1705" width="6.6618" height="2.3834" ry="0" fill="url(#radialGradient4-5)" stroke="url(#radialGradient7)" stroke-width=".3"/></g></svg>
