<?xml version="1.0" encoding="UTF-8"?>
<!-- Created with Inkscape (http://www.inkscape.org/) -->
<svg width="16" height="16" version="1.1" viewBox="0 0 4.2333 4.2333" xml:space="preserve" xmlns="http://www.w3.org/2000/svg" xmlns:cc="http://creativecommons.org/ns#" xmlns:dc="http://purl.org/dc/elements/1.1/" xmlns:rdf="http://www.w3.org/1999/02/22-rdf-syntax-ns#" xmlns:xlink="http://www.w3.org/1999/xlink"><defs><radialGradient id="radialGradient5" cx="124" cy="8.3622" r="2" gradientTransform="matrix(.95349 0 0 .95349 5.7697 .38894)" gradientUnits="userSpaceOnUse"><stop stop-color="#0f0" offset=".19799"/><stop stop-color="#090" offset="1"/></radialGradient><radialGradient id="radialGradient4" cx="2.1167" cy="2.1166" r="1.8588" gradientTransform="matrix(3.7272 0 0 3.7272 116.11 .47312)" gradientUnits="userSpaceOnUse"><stop stop-color="#090" offset="0"/><stop stop-color="#060" offset="1"/></radialGradient><radialGradient id="radialGradient6" cx="124" cy="8.3622" r="7.1055" gradientTransform="translate(7.3002e-4)" gradientUnits="userSpaceOnUse"><stop stop-color="#00e500" offset="0"/><stop stop-color="#090" offset="1"/></radialGradient><radialGradient id="radialGradient7" cx="124" cy="8.3622" r="2.05" gradientUnits="userSpaceOnUse"><stop stop-color="#090" offset="0"/><stop stop-color="#060" offset="1"/></radialGradient></defs><metadata><rdf:RDF><cc:Work rdf:about=""><dc:format>image/svg+xml</dc:format><dc:type rdf:resource="http://purl.org/dc/dcmitype/StillImage"/></cc:Work></rdf:RDF></metadata><g id="radio-checked" transform="matrix(.26458 0 0 .26458 -30.692 -.09583)"><path transform="matrix(3.7796 0 0 3.7796 116 .3622)" d="m2.1166 0.28364a1.8329 1.8329 0 0 0-1.833 1.833 1.8329 1.8329 0 0 0 1.833 1.833 1.8329 1.8329 0 0 0 1.833-1.833 1.8329 1.8329 0 0 0-1.833-1.833zm0 0.24817a1.585 1.585 0 0 1 1.5848 1.5848 1.585 1.585 0 0 1-1.5848 1.5848 1.585 1.585 0 0 1-1.5848-1.5848 1.585 1.585 0 0 1 1.5848-1.5848z" fill="url(#radialGradient4)" stroke="url(#radialGradient6)" stroke-linecap="round" stroke-width=".093928"/><rect x="122.1" y="6.4552" width="3.814" height="3.814" rx="1.9059" ry="1.907" color="#000000" fill="url(#radialGradient5)" stroke="url(#radialGradient7)" stroke-width=".286"/></g></svg>
