<?xml version="1.0" encoding="UTF-8"?>
<!-- Created with Inkscape (http://www.inkscape.org/) -->
<svg width="50" height="20" version="1.1" xmlns="http://www.w3.org/2000/svg" xmlns:cc="http://creativecommons.org/ns#" xmlns:dc="http://purl.org/dc/elements/1.1/" xmlns:rdf="http://www.w3.org/1999/02/22-rdf-syntax-ns#">
 <defs>
  <radialGradient id="radialGradient2" cx="41" cy="1041.4" r="9" gradientUnits="userSpaceOnUse">
   <stop stop-color="#0c0" offset="0"/>
   <stop stop-color="#060" offset="1"/>
  </radialGradient>
  <radialGradient id="radialGradient4" cx="41" cy="1041.4" r="9.3067" gradientUnits="userSpaceOnUse">
   <stop stop-color="#0f0" offset="0"/>
   <stop stop-color="#0c0" offset="1"/>
  </radialGradient>
 </defs>
 <metadata>
  <rdf:RDF>
   <cc:Work rdf:about="">
    <dc:format>image/svg+xml</dc:format>
    <dc:type rdf:resource="http://purl.org/dc/dcmitype/StillImage"/>
   </cc:Work>
  </rdf:RDF>
 </metadata>
 <g transform="matrix(.97822 0 0 .97822 -116.84 86.301)">
  <rect transform="matrix(-1,0,0,1,171,-1119.4)" x="1" y="1031.4" width="50" height="20" rx="11" ry="11" fill="#030" fill-opacity=".5" stroke="#090" stroke-width=".5"/>
  <circle transform="matrix(-1,0,0,1,171,-1119.4)" cx="41" cy="1041.4" r="9" fill="url(#radialGradient2)" stroke="url(#radialGradient4)" stroke-width=".61336"/>
  <path transform="translate(-886,-418)" d="m1043 337h0.75c0.01-9e-5 0.016-3.5e-4 0.023 0 0.1912 8e-3 0.3824 0.0964 0.5156 0.23437l1.711 1.7109 1.7343-1.7109c0.1993-0.17287 0.335-0.22912 0.5157-0.23437h0.75v0.75c0 0.21485-0.026 0.41298-0.1875 0.5625l-1.711 1.7109 1.6875 1.6875c0.1412 0.14113 0.211 0.34009 0.211 0.53907v0.75h-0.75c-0.199-1e-5 -0.398-0.0698-0.5391-0.21094l-1.7109-1.7109-1.711 1.7109c-0.1411 0.14114-0.3401 0.21094-0.539 0.21094h-0.75v-0.75c0-0.19897 0.07-0.39794 0.2109-0.53907l1.7109-1.6875-1.7109-1.7109c-0.1581-0.14598-0.2274-0.35194-0.2109-0.5625v-0.75z" color="#bebebe" enable-background="new" fill="#0f0" opacity=".6" style="text-decoration-line:none;text-indent:0;text-transform:none"/>
 </g>
</svg>
