<?xml version="1.0" encoding="UTF-8"?>
<!-- Created with Inkscape (http://www.inkscape.org/) -->
<svg width="50" height="20" version="1.1" xmlns="http://www.w3.org/2000/svg" xmlns:cc="http://creativecommons.org/ns#" xmlns:dc="http://purl.org/dc/elements/1.1/" xmlns:rdf="http://www.w3.org/1999/02/22-rdf-syntax-ns#">
 <defs>
  <radialGradient id="radialGradient2" cx="41" cy="1041.4" r="9" gradientUnits="userSpaceOnUse">
   <stop stop-color="#090" offset="0"/>
   <stop stop-color="#060" offset="1"/>
  </radialGradient>
  <radialGradient id="radialGradient8" cx="41" cy="1041.4" r="9.5" gradientUnits="userSpaceOnUse">
   <stop stop-color="#0c0" offset="0"/>
   <stop stop-color="#00990f" offset="1"/>
  </radialGradient>
 </defs>
 <metadata>
  <rdf:RDF>
   <cc:Work rdf:about="">
    <dc:format>image/svg+xml</dc:format>
    <dc:type rdf:resource="http://purl.org/dc/dcmitype/StillImage"/>
   </cc:Work>
  </rdf:RDF>
 </metadata>
 <g transform="matrix(.97822 0 0 .97822 -116.84 86.301)">
  <rect transform="translate(119,-1119.4)" x="1" y="1031.4" width="50" height="20" rx="11" ry="11" fill="#090" fill-opacity=".3" stroke="#00b200" stroke-width=".5"/>
  <circle transform="translate(119,-1119.4)" cx="41" cy="1041.4" r="9" fill="url(#radialGradient2)" stroke="url(#radialGradient8)" stroke-width=".6"/>
  <path transform="matrix(.70711 .70711 -.70711 .70711 -887 -448)" d="m980.55-462.09v5.9994h-2.334c-0.36933 0-0.66706 0.29772-0.66706 0.66705l1e-3 0.66706c0 0.36933 0.29635 0.66567 0.66568 0.66567h2.334l1.3327 1e-3c8e-3 0 0.0155-1e-3 0.0235-1e-3h0.64358v-7.9991h-1.9998z" fill="#0f0"/>
 </g>
</svg>
