<?xml version="1.0" encoding="UTF-8" standalone="no"?>
<!-- Created with Inkscape (http://www.inkscape.org/) -->

<svg
   xmlns:dc="http://purl.org/dc/elements/1.1/"
   xmlns:cc="http://creativecommons.org/ns#"
   xmlns:rdf="http://www.w3.org/1999/02/22-rdf-syntax-ns#"
   xmlns:svg="http://www.w3.org/2000/svg"
   xmlns="http://www.w3.org/2000/svg"
   xmlns:xlink="http://www.w3.org/1999/xlink"
   version="1.0"
   width="22"
   height="22"
   viewBox="0 0 16 16"
   id="Foreground"
   xml:space="preserve"><metadata
   id="metadata32"><rdf:RDF><cc:Work
       rdf:about=""><dc:format>image/svg+xml</dc:format><dc:type
         rdf:resource="http://purl.org/dc/dcmitype/StillImage" /><dc:title></dc:title></cc:Work></rdf:RDF></metadata><defs
   id="defs2397"><linearGradient
     id="linearGradient3912"><stop
       id="stop3914"
       style="stop-color:#004af5;stop-opacity:1"
       offset="0" /><stop
       id="stop3916"
       style="stop-color:#004af5;stop-opacity:0"
       offset="1" /></linearGradient><filter
     x="-0.044664197"
     y="-0.15185887"
     width="1.0893284"
     height="1.3037177"
     color-interpolation-filters="sRGB"
     id="filter3797"><feGaussianBlur
       stdDeviation="0.83890637"
       id="feGaussianBlur3799" /></filter><radialGradient
     cx="6.3377485"
     cy="14.788079"
     r="8.8145695"
     fx="6.3377485"
     fy="14.788079"
     id="radialGradient3918"
     xlink:href="#linearGradient3912"
     gradientUnits="userSpaceOnUse"
     gradientTransform="matrix(1,0,0,0.95041322,0,0.73329321)" /></defs>

<g
   transform="matrix(1.0405157,0,0,1.0251195,0.94740757,-1.5276931)"
   id="g3707"
   style="opacity:0.63513513;stroke:#ffffff;stroke-opacity:1"><g
     transform="translate(-1.2664093,2.4710425)"
     id="g3695"
     style="stroke:#ffffff;stroke-opacity:1" /><g
     transform="translate(-1.2664093,2.4710425)"
     id="g3701"
     style="stroke:#ffffff;stroke-opacity:1" /></g><g
   transform="matrix(1.0838509,0,0,1.0355382,32.878751,-0.24399471)"
   id="g3721"
   style="opacity:0.77830188" /><g
   transform="matrix(1.0838509,0,0,1.0355382,31.12875,0.06850529)"
   id="g3715"
   style="opacity:0.77830188" />



<rect
   width="13.55812"
   height="5.855145"
   rx="0.46783492"
   ry="0.56128109"
   x="-27.802553"
   y="3.267736"
   id="rect2985"
   style="fill:#000000;fill-opacity:0;stroke:none" /><g
   transform="matrix(0.98683397,0,0,0.98355105,8.9345647e-4,0.26194385)"
   id="g3920"><path
     d="m 15.531678,7.8724392 a 7.4019551,7.4147523 0 1 1 -2e-6,-0.00544"
     id="path3015"
     style="fill:#000000;fill-opacity:1;stroke:#a0a0a0;stroke-width:1.27490914;stroke-miterlimit:4;stroke-opacity:1;stroke-dasharray:none" /><rect
     width="15.904427"
     height="14.768374"
     rx="0.90882438"
     ry="0.84390718"
     x="0.06786073"
     y="1.1329597"
     id="rect3612"
     style="opacity:0.69458127;fill:#ffffff;fill-opacity:0;stroke:none" /><rect
     width="15.904427"
     height="14.768374"
     rx="0.90882438"
     ry="0.84390718"
     x="0.06786073"
     y="1.1329597"
     id="rect3793"
     style="opacity:0.69458127;fill:#ffffff;fill-opacity:0;stroke:none" /><path
     d="M 7.9890362,-0.01243986 A 8.0439972,9.2469939 0 0 0 0.11017448,8.0087297 l 15.93061452,0 A 8.0439972,9.2469939 0 0 0 7.9890362,-0.01243986 z"
     id="path3885"
     style="opacity:0.1842105;fill:#ffffff;fill-opacity:1;stroke:none" /><path
     d="m 15.152318,14.788079 a 8.8145695,8.3774834 0 1 1 -17.6291389,0 8.8145695,8.3774834 0 1 1 17.6291389,0 z"
     transform="matrix(0.72727273,0,0,0.72727273,3.7086093,-2.6490066)"
     id="path3910"
     style="opacity:0.60964912;fill:url(#radialGradient3918);fill-opacity:1;stroke:none" /><path
     d="m 6.8681997,5.5811218 c -0.029857,-0.00646 -0.061733,-0.00177 -0.079235,0.015265 l -1.0142033,0.99224 c -0.035001,0.034072 -0.00897,0.098785 0.047541,0.1526522 L 7.0583629,7.9319662 5.7747618,9.076858 C 5.7165598,9.129027 5.6933238,9.2096835 5.7272208,9.2447754 L 6.7097303,10.25228 c 0.033897,0.03509 0.1161142,0.02163 0.1743162,-0.03053 l 1.331142,-1.1906869 1.299448,1.2364829 c 0.05651,0.05387 0.1234681,0.0646 0.1584692,0.03054 L 10.687309,9.3058397 c 0.035,-0.034071 0.009,-0.098785 -0.04754,-0.1526522 L 9.4037081,7.9624966 10.687309,6.8176049 c 0.05821,-0.052169 0.08144,-0.1328253 0.04754,-0.1679175 L 9.7523399,5.6421827 c -0.033894,-0.035092 -0.116114,-0.021638 -0.174316,0.03053 L 8.2468824,6.8634006 6.9474344,5.6269175 c -0.028254,-0.026934 -0.049378,-0.039337 -0.079235,-0.045796 z"
     id="rect3927"
     style="fill:#195dff;fill-opacity:1;stroke:none" /><g
     transform="matrix(-0.24028699,0,0,0.23300375,20.700625,-229.53654)"
     id="g4558"><g
       transform="matrix(0.76823825,0,0,0.82348015,14.648386,184.94205)"
       id="g4560"><path
         d="m 25.75889,1034.9371 22.854701,13.2582 22.223357,-12.6269"
         id="path4562"
         style="fill:none;stroke:#004ef9;stroke-width:1.20000005;stroke-linecap:butt;stroke-linejoin:miter;stroke-miterlimit:4;stroke-opacity:1;stroke-dasharray:none" /><path
         d="m 25.75889,1035.9473 22.854701,13.2582 22.223357,-12.6269"
         id="path4564"
         style="fill:none;stroke:#067fff;stroke-width:1.20000005;stroke-linecap:butt;stroke-linejoin:miter;stroke-miterlimit:4;stroke-opacity:1;stroke-dasharray:none;filter:url(#filter3797)" /></g><g
       transform="matrix(0.60250395,0,0,0.70778509,22.614926,300.1419)"
       id="g4566"><path
         d="m 25.75889,1034.9371 22.854701,13.2582 22.223357,-12.6269"
         id="path4568"
         style="fill:none;stroke:#004ef9;stroke-width:1.20000005;stroke-linecap:butt;stroke-linejoin:miter;stroke-miterlimit:4;stroke-opacity:1;stroke-dasharray:none" /><path
         d="m 25.75889,1035.9473 22.854701,13.2582 22.223357,-12.6269"
         id="path4570"
         style="fill:none;stroke:#066aff;stroke-width:1.20000005;stroke-linecap:butt;stroke-linejoin:miter;stroke-miterlimit:4;stroke-opacity:1;stroke-dasharray:none;filter:url(#filter3797)" /></g><g
       transform="matrix(0.41869353,0,0,0.41108688,31.530669,604.7742)"
       id="g4572"><path
         d="m 25.75889,1034.9371 22.854701,13.2582 22.223357,-12.6269"
         id="path4574"
         style="fill:none;stroke:#004ef9;stroke-width:1.20000005;stroke-linecap:butt;stroke-linejoin:miter;stroke-miterlimit:4;stroke-opacity:1;stroke-dasharray:none" /><path
         d="m 25.75889,1035.9473 22.854701,13.2582 22.223357,-12.6269"
         id="path4576"
         style="fill:none;stroke:#066aff;stroke-width:1.20000005;stroke-linecap:butt;stroke-linejoin:miter;stroke-miterlimit:4;stroke-opacity:1;stroke-dasharray:none;filter:url(#filter3797)" /></g></g><g
     transform="matrix(0.24028699,0,0,-0.23300375,-4.2763338,245.45968)"
     id="g3890"><g
       transform="matrix(0.76823825,0,0,0.82348015,14.648386,184.94205)"
       id="g3892"><path
         d="m 25.75889,1034.9371 22.854701,13.2582 22.223357,-12.6269"
         id="path3894"
         style="fill:none;stroke:#004ef9;stroke-width:1.20000005;stroke-linecap:butt;stroke-linejoin:miter;stroke-miterlimit:4;stroke-opacity:1;stroke-dasharray:none" /><path
         d="m 25.75889,1035.9473 22.854701,13.2582 22.223357,-12.6269"
         id="path3896"
         style="fill:none;stroke:#067fff;stroke-width:1.20000005;stroke-linecap:butt;stroke-linejoin:miter;stroke-miterlimit:4;stroke-opacity:1;stroke-dasharray:none;filter:url(#filter3797)" /></g><g
       transform="matrix(0.60250395,0,0,0.70778509,22.614926,300.1419)"
       id="g3898"><path
         d="m 25.75889,1034.9371 22.854701,13.2582 22.223357,-12.6269"
         id="path3900"
         style="fill:none;stroke:#004ef9;stroke-width:1.20000005;stroke-linecap:butt;stroke-linejoin:miter;stroke-miterlimit:4;stroke-opacity:1;stroke-dasharray:none" /><path
         d="m 25.75889,1035.9473 22.854701,13.2582 22.223357,-12.6269"
         id="path3902"
         style="fill:none;stroke:#066aff;stroke-width:1.20000005;stroke-linecap:butt;stroke-linejoin:miter;stroke-miterlimit:4;stroke-opacity:1;stroke-dasharray:none;filter:url(#filter3797)" /></g><g
       transform="matrix(0.41869353,0,0,0.41108688,31.530669,604.7742)"
       id="g3904"><path
         d="m 25.75889,1034.9371 22.854701,13.2582 22.223357,-12.6269"
         id="path3906"
         style="fill:none;stroke:#004ef9;stroke-width:1.20000005;stroke-linecap:butt;stroke-linejoin:miter;stroke-miterlimit:4;stroke-opacity:1;stroke-dasharray:none" /><path
         d="m 25.75889,1035.9473 22.854701,13.2582 22.223357,-12.6269"
         id="path3908"
         style="fill:none;stroke:#066aff;stroke-width:1.20000005;stroke-linecap:butt;stroke-linejoin:miter;stroke-miterlimit:4;stroke-opacity:1;stroke-dasharray:none;filter:url(#filter3797)" /></g></g></g></svg>