<?xml version="1.0" encoding="UTF-8" standalone="no"?>
<!-- Created with Inkscape (http://www.inkscape.org/) -->

<svg
   xmlns:dc="http://purl.org/dc/elements/1.1/"
   xmlns:cc="http://creativecommons.org/ns#"
   xmlns:rdf="http://www.w3.org/1999/02/22-rdf-syntax-ns#"
   xmlns:svg="http://www.w3.org/2000/svg"
   xmlns="http://www.w3.org/2000/svg"
   xmlns:sodipodi="http://sodipodi.sourceforge.net/DTD/sodipodi-0.dtd"
   xmlns:inkscape="http://www.inkscape.org/namespaces/inkscape"
   id="svg2"
   version="1.1"
   inkscape:version="0.48.1 r9760"
   width="64"
   height="22"
   sodipodi:docname="toggle-off-us.svg">
  <metadata
     id="metadata8">
    <rdf:RDF>
      <cc:Work
         rdf:about="">
        <dc:format>image/svg+xml</dc:format>
        <dc:type
           rdf:resource="http://purl.org/dc/dcmitype/StillImage" />
        <dc:title></dc:title>
      </cc:Work>
    </rdf:RDF>
  </metadata>
  <defs
     id="defs6" />
  <sodipodi:namedview
     pagecolor="#ffffff"
     bordercolor="#666666"
     borderopacity="1"
     objecttolerance="10"
     gridtolerance="10"
     guidetolerance="10"
     inkscape:pageopacity="0"
     inkscape:pageshadow="2"
     inkscape:window-width="1366"
     inkscape:window-height="719"
     id="namedview4"
     showgrid="false"
     inkscape:zoom="17.607143"
     inkscape:cx="31.919538"
     inkscape:cy="9.4919597"
     inkscape:window-x="0"
     inkscape:window-y="23"
     inkscape:window-maximized="1"
     inkscape:current-layer="svg2" />
  <g
     id="g2987"
     transform="matrix(0.3261535,0,0,0.3261535,-4.7492367,19.452086)">
    <rect
       rx="0"
       y="-50.08654"
       x="15.97725"
       height="48.10548"
       width="193.67145"
       id="rect2987"
       style="fill:#232323;fill-opacity:1" />
    <path
       sodipodi:nodetypes="ccccc"
       inkscape:connector-curvature="0"
       id="rect3759"
       d="m 15.985322,-50.192062 96.778898,0 23.17241,48.048683 -119.951308,0 z"
       style="fill:#474747;fill-opacity:1" />
    <g
       id="flowRoot3762"
       style="font-size:28px;font-style:normal;font-variant:normal;font-weight:normal;font-stretch:normal;line-height:125%;letter-spacing:0px;word-spacing:0px;fill:#bcbcbc;fill-opacity:1;stroke:none;font-family:Roboto;-inkscape-font-specification:Roboto"
       transform="translate(3.5340996,33.38043)">
      <path
         inkscape:connector-curvature="0"
         id="path2995"
         d="m 49.027344,-57.717448 c -1.8e-5,2.4336 -0.756527,4.452478 -2.269532,6.056641 -1.50392,1.604167 -3.458996,2.406249 -5.865234,2.40625 -2.324226,-1e-6 -4.2155,-0.802083 -5.673828,-2.40625 -1.449221,-1.604163 -2.17383,-3.623041 -2.173828,-6.056641 l 0,-3.541016 c -2e-6,-2.424465 0.724607,-4.443343 2.173828,-6.05664 1.458328,-1.613262 3.349602,-2.419902 5.673828,-2.419922 2.406238,2e-5 4.361314,0.80666 5.865234,2.419922 1.513005,1.604183 2.269514,3.623061 2.269532,6.05664 l 0,3.541016 m -2.69336,-3.568359 c -1.4e-5,-1.822903 -0.492201,-3.317694 -1.476562,-4.484375 -0.984387,-1.16665 -2.306001,-1.749982 -3.964844,-1.75 -1.567716,1.8e-5 -2.82097,0.58335 -3.759766,1.75 -0.929692,1.166681 -1.394535,2.661472 -1.394531,4.484375 l 0,3.568359 c -4e-6,1.841152 0.464839,3.345057 1.394531,4.511719 0.938796,1.166669 2.19205,1.750002 3.759766,1.75 1.667958,2e-6 2.989571,-0.578774 3.964844,-1.736328 0.984361,-1.166662 1.476548,-2.675124 1.476562,-4.525391 l 0,-3.568359" />
      <path
         inkscape:connector-curvature="0"
         id="path2997"
         d="m 63.902344,-58.346354 -8.394532,0 0,8.804687 -2.693359,0 0,-19.90625 12.482422,0 0,2.119141 -9.789063,0 0,6.863281 8.394532,0 0,2.119141" />
      <path
         inkscape:connector-curvature="0"
         id="path2999"
         d="m 79.269531,-58.346354 -8.394531,0 0,8.804687 -2.693359,0 0,-19.90625 12.482421,0 0,2.119141 -9.789062,0 0,6.863281 8.394531,0 0,2.119141" />
    </g>
  </g>
</svg>
