<?xml version="1.0" encoding="UTF-8" standalone="no"?>
<!-- Created with Inkscape (http://www.inkscape.org/) -->

<svg
   xmlns:dc="http://purl.org/dc/elements/1.1/"
   xmlns:cc="http://creativecommons.org/ns#"
   xmlns:rdf="http://www.w3.org/1999/02/22-rdf-syntax-ns#"
   xmlns:svg="http://www.w3.org/2000/svg"
   xmlns="http://www.w3.org/2000/svg"
   xmlns:sodipodi="http://sodipodi.sourceforge.net/DTD/sodipodi-0.dtd"
   xmlns:inkscape="http://www.inkscape.org/namespaces/inkscape"
   id="svg2"
   version="1.1"
   inkscape:version="0.48.1 r9760"
   width="64"
   height="22"
   sodipodi:docname="1.svg">
  <metadata
     id="metadata8">
    <rdf:RDF>
      <cc:Work
         rdf:about="">
        <dc:format>image/svg+xml</dc:format>
        <dc:type
           rdf:resource="http://purl.org/dc/dcmitype/StillImage" />
        <dc:title />
      </cc:Work>
    </rdf:RDF>
  </metadata>
  <defs
     id="defs6" />
  <sodipodi:namedview
     pagecolor="#ffffff"
     bordercolor="#666666"
     borderopacity="1"
     objecttolerance="10"
     gridtolerance="10"
     guidetolerance="10"
     inkscape:pageopacity="0"
     inkscape:pageshadow="2"
     inkscape:window-width="1366"
     inkscape:window-height="719"
     id="namedview4"
     showgrid="false"
     inkscape:zoom="9.4807692"
     inkscape:cx="40.607408"
     inkscape:cy="5.6316909"
     inkscape:window-x="0"
     inkscape:window-y="23"
     inkscape:window-maximized="1"
     inkscape:current-layer="svg2" />
  <g
     id="g3754"
     transform="matrix(0.32276105,0,0,0.32276105,-1.5333177,15.517158)">
    <rect
       ry="0"
       rx="9.8476582"
       y="-38.754566"
       x="6.7505035"
       height="49.363083"
       width="194.07709"
       id="rect2987"
       style="fill:#232323;fill-opacity:1" />
    <path
       sodipodi:nodetypes="ccccc"
       inkscape:connector-curvature="0"
       id="rect3757"
       d="m 79.318462,-38.754564 121.509128,0 0,49.152131 -97.80003,0 z"
       style="fill:#227eaf;fill-opacity:1" />
    <g
       id="flowRoot2984"
       style="font-size:28px;font-style:normal;font-variant:normal;font-weight:normal;font-stretch:normal;line-height:125%;letter-spacing:0px;word-spacing:0px;fill:#dad7d7;fill-opacity:1;stroke:none;font-family:Roboto;-inkscape-font-specification:Roboto"
       transform="translate(35.440163,23.146045)">
      <path
         inkscape:connector-curvature="0"
         id="path3007"
         style="fill:#dad7d7;fill-opacity:1"
         d="m 110.33984,-36.029948 c -10e-6,2.4336 -0.75652,4.452478 -2.26953,6.056641 -1.50392,1.604167 -3.45899,2.406249 -5.86523,2.40625 -2.324228,-1e-6 -4.215502,-0.802083 -5.67383,-2.40625 -1.449221,-1.604163 -2.17383,-3.623041 -2.173828,-6.056641 l 0,-3.541016 c -2e-6,-2.424465 0.724607,-4.443343 2.173828,-6.05664 1.458328,-1.613262 3.349602,-2.419902 5.67383,-2.419922 2.40624,2e-5 4.36131,0.80666 5.86523,2.419922 1.51301,1.604183 2.26952,3.623061 2.26953,6.05664 l 0,3.541016 m -2.69336,-3.568359 c -1e-5,-1.822903 -0.4922,-3.317694 -1.47656,-4.484375 -0.98439,-1.16665 -2.306,-1.749982 -3.96484,-1.75 -1.56772,1.8e-5 -2.820972,0.58335 -3.759768,1.75 -0.929692,1.166681 -1.394535,2.661472 -1.394531,4.484375 l 0,3.568359 c -4e-6,1.841152 0.464839,3.345057 1.394531,4.511719 0.938796,1.166669 2.192048,1.750002 3.759768,1.75 1.66796,2e-6 2.98957,-0.578774 3.96484,-1.736328 0.98436,-1.166662 1.47655,-2.675124 1.47656,-4.525391 l 0,-3.568359" />
      <path
         inkscape:connector-curvature="0"
         id="path3009"
         style="fill:#dad7d7;fill-opacity:1"
         d="m 129.26172,-27.854167 -2.69336,0 -9.58398,-15.203125 -0.082,0.02734 0,15.175781 -2.69336,0 0,-19.90625 2.69336,0 9.58399,15.189453 0.082,-0.02734 0,-15.16211 2.69336,0 0,19.90625" />
    </g>
  </g>
</svg>
