<svg width="44" height="26" viewBox="0 0 44 26" fill="none" xmlns="http://www.w3.org/2000/svg">
<path opacity="0.35" d="M28 5H10C6.13401 5 3 8.13401 3 12C3 15.866 6.13401 19 10 19H28C31.866 19 35 15.866 35 12C35 8.13401 31.866 5 28 5Z" fill="#0f9d58"/>
<g opacity="0.25" filter="url(#filter0_f_4_2)">
<path d="M31 23C36.5228 23 41 18.5228 41 13C41 7.47715 36.5228 3 31 3C25.4772 3 21 7.47715 21 13C21 18.5228 25.4772 23 31 23Z" fill="black"/>
</g>
<path d="M31 22C36.5228 22 41 17.5228 41 12C41 6.47715 36.5228 2 31 2C25.4772 2 21 6.47715 21 12C21 17.5228 25.4772 22 31 22Z" fill="#0f9d58"/>
<path d="M26.1679 11.4571C26.5584 11.0666 27.1916 11.0666 27.5821 11.4571L29.0214 12.8964C29.2167 13.0917 29.5333 13.0917 29.7286 12.8964L34.9179 7.70711C35.3084 7.31658 35.9416 7.31658 36.3321 7.70711L36.7929 8.16789C37.1834 8.55842 37.1834 9.19158 36.7929 9.58211L30.0821 16.2929C29.6916 16.6834 29.0584 16.6834 28.6679 16.2929L25.7071 13.3321C25.3166 12.9416 25.3166 12.3084 25.7071 11.9179L26.1679 11.4571Z" fill="#d8d8d8ff"/>
<defs>
<filter id="filter0_f_4_2" x="18.55" y="0.55" width="24.9" height="24.9" filterUnits="userSpaceOnUse" color-interpolation-filters="sRGB">
<feFlood flood-opacity="0" result="BackgroundImageFix"/>
<feBlend mode="normal" in="SourceGraphic" in2="BackgroundImageFix" result="shape"/>
<feGaussianBlur stdDeviation="1.225" result="effect1_foregroundBlur_4_2"/>
</filter>
</defs>
</svg>
