<?xml version="1.0" encoding="UTF-8" standalone="no"?>
<!-- Generator: Adobe Illustrator 13.0.2, SVG Export Plug-In . SVG Version: 6.00 Build 14948)  -->

<svg
   xmlns:dc="http://purl.org/dc/elements/1.1/"
   xmlns:cc="http://creativecommons.org/ns#"
   xmlns:rdf="http://www.w3.org/1999/02/22-rdf-syntax-ns#"
   xmlns:svg="http://www.w3.org/2000/svg"
   xmlns="http://www.w3.org/2000/svg"
   xmlns:xlink="http://www.w3.org/1999/xlink"
   xmlns:sodipodi="http://sodipodi.sourceforge.net/DTD/sodipodi-0.dtd"
   xmlns:inkscape="http://www.inkscape.org/namespaces/inkscape"
   id="Foreground"
   enable-background="new 0 0 16 16"
   xml:space="preserve"
   height="32"
   viewBox="0 0 23.272727 23.272727"
   width="32"
   version="1.0"
   y="0px"
   x="0px"
   inkscape:version="0.48.1 r9760"
   sodipodi:docname="close-window.svg"><sodipodi:namedview
   pagecolor="#ffffff"
   bordercolor="#666666"
   borderopacity="1"
   objecttolerance="10"
   gridtolerance="10"
   guidetolerance="10"
   inkscape:pageopacity="0"
   inkscape:pageshadow="2"
   inkscape:window-width="1920"
   inkscape:window-height="1028"
   id="namedview20"
   showgrid="true"
   inkscape:zoom="22.513369"
   inkscape:cx="8.9993881"
   inkscape:cy="18.031058"
   inkscape:window-x="0"
   inkscape:window-y="25"
   inkscape:window-maximized="1"
   inkscape:current-layer="Foreground"><inkscape:grid
     type="xygrid"
     id="grid3066"
     empspacing="8"
     visible="true"
     enabled="true"
     snapvisiblegridlinesonly="true" /></sodipodi:namedview><metadata
   id="metadata2399"><rdf:RDF><cc:Work
       rdf:about=""><dc:format>image/svg+xml</dc:format><dc:type
         rdf:resource="http://purl.org/dc/dcmitype/StillImage" /><dc:title /></cc:Work></rdf:RDF></metadata><defs
   id="defs2397"><linearGradient
     id="linearGradient3815"><stop
       id="stop3817"
       offset="0"
       style="stop-color:#e6e6e6;stop-opacity:1;" /><stop
       id="stop3819"
       offset="1"
       style="stop-color:#ffffff;stop-opacity:1;" /></linearGradient><linearGradient
     inkscape:collect="always"
     id="linearGradient3833"><stop
       style="stop-color:#000000;stop-opacity:1;"
       offset="0"
       id="stop3836" /><stop
       style="stop-color:#000000;stop-opacity:0;"
       offset="1"
       id="stop3838" /></linearGradient><linearGradient
     id="linearGradient3808"><stop
       style="stop-color:#d2d2d2;stop-opacity:1;"
       offset="0"
       id="stop3810" /><stop
       style="stop-color:#f0f0f0;stop-opacity:1;"
       offset="1"
       id="stop3812" /></linearGradient><linearGradient
     id="linearGradient3786"><stop
       id="stop3788"
       offset="0"
       style="stop-color:#1e1e1e;stop-opacity:1;" /><stop
       id="stop3790"
       offset="1"
       style="stop-color:#505050;stop-opacity:1;" /></linearGradient><filter
     id="filter16494-4"
     width="1.4198"
     y="-.20904"
     x="-.20990"
     height="1.4181"
     color-interpolation-filters="sRGB"><feGaussianBlur
       id="feGaussianBlur16496-8"
       stdDeviation="1.3282637" /></filter><radialGradient
     id="radialGradient16504-1"
     gradientUnits="userSpaceOnUse"
     cy="5.8191"
     cx="7.6583"
     gradientTransform="matrix(1.0474,0,0,1.0517,-0.36326,-0.42032)"
     r="8.6929"><stop
       id="stop16500-8"
       style="stop-color:#7b7b7b"
       offset="0" /><stop
       id="stop16502-0"
       style="stop-color:#101010"
       offset="1" /></radialGradient><filter
     id="filter16524-9"
     width="1.426"
     y="-.21306"
     x="-.21298"
     height="1.4261"
     color-interpolation-filters="sRGB"><feGaussianBlur
       id="feGaussianBlur16526-0"
       stdDeviation="0.71020915" /></filter><clipPath
     clipPathUnits="userSpaceOnUse"
     id="clipPath2849"><rect
       ry="2"
       rx="2"
       y="1"
       x="1"
       height="20"
       width="20"
       id="rect2851"
       style="fill:#ffffff;fill-opacity:1;fill-rule:evenodd;stroke:none;display:inline" /></clipPath><filter
     color-interpolation-filters="sRGB"
     inkscape:collect="always"
     id="filter3194"
     x="-0.18000001"
     width="1.36"
     y="-0.18000001"
     height="1.36"><feGaussianBlur
       inkscape:collect="always"
       stdDeviation="1.2"
       id="feGaussianBlur3196" /></filter><linearGradient
     gradientTransform="matrix(0.87272718,0,0,0.87272718,2.036363,2.0363654)"
     inkscape:collect="always"
     xlink:href="#linearGradient3831"
     id="linearGradient3845"
     x1="11"
     y1="19.5"
     x2="21"
     y2="19.5"
     gradientUnits="userSpaceOnUse"
     spreadMethod="reflect" /><linearGradient
     id="linearGradient3831"><stop
       style="stop-color:#ffffff;stop-opacity:1;"
       offset="0"
       id="stop3833" /><stop
       id="stop3821"
       offset="0.75"
       style="stop-color:#ffffff;stop-opacity:0.49803922;" /><stop
       style="stop-color:#ffffff;stop-opacity:0;"
       offset="1"
       id="stop3835" /></linearGradient><linearGradient
     gradientTransform="matrix(0.87272718,0,0,0.87272718,2.036363,2.0363654)"
     y2="16"
     x2="10"
     y1="1"
     x1="10"
     gradientUnits="userSpaceOnUse"
     id="linearGradient3101"
     xlink:href="#linearGradient3823"
     inkscape:collect="always" /><linearGradient
     id="linearGradient3823"><stop
       id="stop3825"
       offset="0"
       style="stop-color:#ffffff;stop-opacity:1;" /><stop
       id="stop3829"
       offset="1"
       style="stop-color:#ffffff;stop-opacity:0;" /></linearGradient><linearGradient
     inkscape:collect="always"
     xlink:href="#linearGradient3786"
     id="linearGradient3181"
     x1="-3.0607977"
     y1="27.258198"
     x2="-3.0607977"
     y2="7.2536583"
     gradientUnits="userSpaceOnUse"
     gradientTransform="matrix(0.87272718,0,0,0.87272718,11.740542,-3.425334)" /><linearGradient
     id="linearGradient3257"><stop
       style="stop-color:#a50000;stop-opacity:1;"
       offset="0"
       id="stop3259" /><stop
       style="stop-color:#e73800;stop-opacity:1;"
       offset="1"
       id="stop3261" /></linearGradient><linearGradient
     inkscape:collect="always"
     xlink:href="#linearGradient3786"
     id="linearGradient3796"
     gradientUnits="userSpaceOnUse"
     gradientTransform="matrix(0.87272718,0,0,0.87272718,11.740542,-3.425334)"
     x1="-3.0607977"
     y1="27.258198"
     x2="-3.0607977"
     y2="7.2536583" /><linearGradient
     inkscape:collect="always"
     xlink:href="#linearGradient3786"
     id="linearGradient3800"
     gradientUnits="userSpaceOnUse"
     gradientTransform="matrix(0.87272718,0,0,0.87272718,11.740542,-3.425334)"
     x1="-3.0607977"
     y1="27.258198"
     x2="-3.0607977"
     y2="7.2536583" /><linearGradient
     inkscape:collect="always"
     xlink:href="#linearGradient3786"
     id="linearGradient3805"
     gradientUnits="userSpaceOnUse"
     gradientTransform="matrix(1.1999999,0,0,1.1999999,16.143245,-4.7098343)"
     x1="-3.0607977"
     y1="27.258198"
     x2="-3.0607977"
     y2="7.2536583" /><linearGradient
     inkscape:collect="always"
     xlink:href="#linearGradient3808"
     id="linearGradient3814"
     gradientUnits="userSpaceOnUse"
     gradientTransform="matrix(1.1999999,0,0,1.1999999,16.143245,-4.7098343)"
     x1="-3.0607977"
     y1="27.258198"
     x2="-3.0607977"
     y2="7.2536583" /><linearGradient
     inkscape:collect="always"
     xlink:href="#linearGradient3786"
     id="linearGradient3818"
     gradientUnits="userSpaceOnUse"
     gradientTransform="matrix(0.87272718,0,0,0.87272718,11.740542,-3.425334)"
     x1="-3.0607977"
     y1="27.258198"
     x2="-3.0607977"
     y2="7.2536583" /><linearGradient
     inkscape:collect="always"
     xlink:href="#linearGradient3786"
     id="linearGradient3822"
     gradientUnits="userSpaceOnUse"
     gradientTransform="matrix(1.1999999,0,0,1.1999999,16.143245,-4.7098343)"
     x1="-3.0607977"
     y1="27.258198"
     x2="-3.0607977"
     y2="7.2536583" /><linearGradient
     inkscape:collect="always"
     xlink:href="#linearGradient3786"
     id="linearGradient3826"
     gradientUnits="userSpaceOnUse"
     gradientTransform="matrix(0.87272718,0,0,0.87272718,11.740542,-3.425334)"
     x1="-3.0607977"
     y1="27.258198"
     x2="-3.0607977"
     y2="7.2536583" /><linearGradient
     inkscape:collect="always"
     xlink:href="#linearGradient3786"
     id="linearGradient3830"
     gradientUnits="userSpaceOnUse"
     gradientTransform="matrix(0.87272718,0,0,0.87272718,11.740542,-3.425334)"
     x1="-3.0607977"
     y1="27.258198"
     x2="-3.0607977"
     y2="7.2536583" /><linearGradient
     inkscape:collect="always"
     xlink:href="#linearGradient3833"
     id="linearGradient3840"
     x1="15"
     y1="6"
     x2="15"
     y2="35"
     gradientUnits="userSpaceOnUse" /><linearGradient
     inkscape:collect="always"
     xlink:href="#linearGradient3815"
     id="linearGradient3813"
     x1="5.090909"
     y1="11.636364"
     x2="16.727274"
     y2="11.636364"
     gradientUnits="userSpaceOnUse"
     gradientTransform="matrix(0,-1,1,0,9.9999995e-8,23.272727)" /></defs>
<path
   sodipodi:type="inkscape:offset"
   inkscape:radius="0.71068883"
   inkscape:original="M 4.65625 2.25 C 2.9476099 2.25 1.53125 3.6663599 1.53125 5.375 L 1.53125 19.34375 C 1.53125 21.05239 2.94761 22.46875 4.65625 22.46875 L 18.625 22.46875 C 20.33364 22.46875 21.75 21.05239 21.75 19.34375 L 21.75 5.375 C 21.75 3.66636 20.33364 2.25 18.625 2.25 L 4.65625 2.25 z "
   style="opacity:0.05;fill:#000000;fill-opacity:1;fill-rule:evenodd;stroke:none;display:inline"
   id="path3795"
   d="M 4.65625,1.53125 C 2.5548644,1.53125 0.8125,3.2736144 0.8125,5.375 l 0,13.96875 c 0,2.101386 1.7423644,3.84375 3.84375,3.84375 l 13.96875,0 c 2.101386,0 3.84375,-1.742364 3.84375,-3.84375 l 0,-13.96875 c 0,-2.1013856 -1.742364,-3.84375 -3.84375,-3.84375 l -13.96875,0 z" /><path
   sodipodi:type="inkscape:offset"
   inkscape:radius="0.61462623"
   inkscape:original="M 4.65625 2.875 C 3.2847759 2.875 2.15625 4.0035259 2.15625 5.375 L 2.15625 19.34375 C 2.15625 20.715224 3.2847761 21.84375 4.65625 21.84375 L 18.625 21.84375 C 19.996474 21.84375 21.125 20.715224 21.125 19.34375 L 21.125 5.375 C 21.125 4.0035261 19.996474 2.875 18.625 2.875 L 4.65625 2.875 z "
   style="opacity:0.08;fill:#000000;fill-opacity:1;fill-rule:evenodd;stroke:none;display:inline"
   id="path3791"
   d="m 4.65625,2.25 c -1.7086401,0 -3.125,1.4163599 -3.125,3.125 l 0,13.96875 c 0,1.70864 1.41636,3.125 3.125,3.125 l 13.96875,0 c 1.70864,0 3.125,-1.41636 3.125,-3.125 L 21.75,5.375 C 21.75,3.66636 20.33364,2.25 18.625,2.25 l -13.96875,0 z" /><path
   sodipodi:type="inkscape:offset"
   inkscape:radius="0.74928659"
   inkscape:original="M 4.65625 3.625 C 3.6892683 3.625 2.90625 4.4080183 2.90625 5.375 L 2.90625 19.34375 C 2.90625 20.310732 3.6892683 21.09375 4.65625 21.09375 L 18.625 21.09375 C 19.591982 21.09375 20.375 20.310732 20.375 19.34375 L 20.375 5.375 C 20.375 4.4080183 19.591982 3.625 18.625 3.625 L 4.65625 3.625 z "
   style="opacity:0.12;fill:#000000;fill-opacity:1;fill-rule:evenodd;stroke:none;display:inline"
   id="path3787"
   d="m 4.65625,2.875 c -1.3714741,0 -2.5,1.1285259 -2.5,2.5 l 0,13.96875 c 0,1.371474 1.1285261,2.5 2.5,2.5 l 13.96875,0 c 1.371474,0 2.5,-1.128526 2.5,-2.5 l 0,-13.96875 c 0,-1.3714739 -1.128526,-2.5 -2.5,-2.5 l -13.96875,0 z" /><rect
   ry="1.7454543"
   rx="1.7454543"
   y="3.6363661"
   x="2.9090912"
   height="17.454544"
   width="17.454544"
   id="rect3838"
   style="fill:#000000;fill-opacity:1;fill-rule:evenodd;stroke:none;display:inline;opacity:0.3" /><rect
   style="fill:url(#linearGradient3181);fill-opacity:1.0;fill-rule:evenodd;stroke:none;display:inline"
   id="rect3173"
   width="17.454544"
   height="17.454544"
   x="2.9090912"
   y="2.9090934"
   rx="1.7454543"
   ry="1.7454543" /><path
   style="fill:url(#linearGradient3814);fill-opacity:1;fill-rule:evenodd;stroke:none;display:inline"
   d="M 6.40625 4 C 5.0766502 4 4 5.0766502 4 6.40625 L 4 25.59375 C 4 26.92335 5.0766502 28 6.40625 28 L 25.59375 28 C 26.92335 28 28 26.92335 28 25.59375 L 28 6.40625 C 28 5.0766502 26.92335 4 25.59375 4 L 6.40625 4 z M 6.25 6.03125 C 6.2980002 6.0145707 6.3436081 6.03125 6.40625 6.03125 L 25.625 6.03125 C 25.875569 6.03125 26 6.155682 26 6.40625 L 26 25.625 C 26 25.875569 25.875569 26 25.625 26 L 6.40625 26 C 6.155682 26 6.03125 25.875569 6.03125 25.625 L 6.03125 6.40625 C 6.03125 6.2183243 6.1059993 6.0812879 6.25 6.03125 z "
   transform="scale(0.72727272,0.72727272)"
   id="rect3792" /><path
   style="opacity:1;fill:url(#linearGradient3101);fill-opacity:1;fill-rule:evenodd;stroke:none;display:inline"
   d="m 4.6545456,2.9090925 c -0.9669827,0 -1.745455,0.7784726 -1.745455,1.7454544 l 0,13.9636341 c 0,0.966981 0.7784723,1.745455 1.745455,1.745455 l 13.9636344,0 c 0.966982,0 1.745455,-0.778474 1.745455,-1.745455 l 0,-13.9636341 c 0,-0.9669818 -0.778473,-1.7454544 -1.745455,-1.7454544 l -13.9636344,0 z m 0,0.9 13.9636344,0 c 0.479739,0 0.845456,0.3657158 0.845456,0.8454544 l 0,13.9636341 c 0,0.479738 -0.365717,0.845455 -0.845456,0.845455 l -13.9636344,0 c -0.4797396,0 -0.8454551,-0.365717 -0.8454551,-0.845455 l 0,-13.9636341 c 0,-0.4797386 0.3657155,-0.8454544 0.8454551,-0.8454544 z"
   id="rect3050"
   inkscape:connector-curvature="0" /><path
   id="path3235"
   d="m 4.6545456,20.363636 c -0.9669827,0 -1.745455,-0.778474 -1.745455,-1.745455 l 0,-0.872726 c 0,0.966981 0.7784723,1.745453 1.745455,1.745453 l 13.9636344,0 c 0.966982,0 1.745455,-0.778472 1.745455,-1.745453 l 0,0.872726 c 0,0.966981 -0.778473,1.745455 -1.745455,1.745455 l -13.9636344,0 z"
   style="opacity:0.8;fill:url(#linearGradient3845);fill-opacity:1;fill-rule:evenodd;stroke:none;display:inline"
   inkscape:connector-curvature="0" /><rect
   transform="matrix(0.87272718,0,0,0.87272718,2.0363634,2.0363654)"
   style="opacity:0.07999998;fill:#ffffff;fill-opacity:1;fill-rule:nonzero;stroke:none;display:inline;filter:url(#filter3194)"
   id="rect2410"
   width="11.666668"
   height="11.666668"
   x="5.1666651"
   y="5.1666651"
   rx="2"
   ry="2"
   clip-path="url(#clipPath2849)" /><path
   sodipodi:nodetypes="ccccccccccccc"
   inkscape:connector-curvature="0"
   id="path3821"
   d="m 8.2909088,17.454546 3.3454542,-3.345455 3.345455,3.345455 1.745455,-1.745455 -3.345455,-3.345455 3.345455,-3.3454541 -1.745455,-1.745455 -3.345455,3.3454541 -3.345454,-3.3454541 -1.7454546,1.745455 3.3454544,3.3454541 -3.3454546,3.345455 z"
   style="fill:#000000;fill-opacity:1;stroke:none;display:inline;opacity:0.4" /><path
   style="fill:url(#linearGradient3813);fill-opacity:1;stroke:none;display:inline"
   d="m 8.2909088,16.727273 3.3454542,-3.345455 3.345455,3.345455 1.745455,-1.745455 -3.345455,-3.345455 3.345455,-3.3454538 -1.745455,-1.745455 -3.345455,3.345454 -3.345454,-3.345454 -1.7454546,1.745455 3.3454544,3.3454538 -3.3454546,3.345455 z"
   id="rect2498"
   inkscape:connector-curvature="0"
   sodipodi:nodetypes="ccccccccccccc" /><path
   style="fill:url(#linearGradient3840);fill-opacity:1;fill-rule:evenodd;stroke:none;display:inline;opacity:0.3"
   d="M 6.25 6.03125 C 6.1059993 6.0812879 6.03125 6.2183243 6.03125 6.40625 L 6.03125 25.625 C 6.03125 25.875569 6.155682 26 6.40625 26 L 25.625 26 C 25.875569 26 26 25.875569 26 25.625 L 26 6.40625 C 26 6.155682 25.875569 6.03125 25.625 6.03125 L 6.40625 6.03125 C 6.3436081 6.03125 6.2980002 6.0145707 6.25 6.03125 z M 7 7 L 25 7 L 25 25 L 7 25 L 7 7 z "
   transform="scale(0.72727272,0.72727272)"
   id="path3820" /></svg>