<?xml version="1.0" encoding="UTF-8" standalone="no"?>
<!-- Created with Inkscape (http://www.inkscape.org/) -->

<svg
   xmlns:dc="http://purl.org/dc/elements/1.1/"
   xmlns:cc="http://creativecommons.org/ns#"
   xmlns:rdf="http://www.w3.org/1999/02/22-rdf-syntax-ns#"
   xmlns:svg="http://www.w3.org/2000/svg"
   xmlns="http://www.w3.org/2000/svg"
   xmlns:xlink="http://www.w3.org/1999/xlink"
   xmlns:sodipodi="http://sodipodi.sourceforge.net/DTD/sodipodi-0.dtd"
   xmlns:inkscape="http://www.inkscape.org/namespaces/inkscape"
   width="48"
   height="22"
   id="svg3783"
   version="1.1"
   inkscape:version="0.48.1 r9760"
   sodipodi:docname="light-button-active.svg">
  <defs
     id="defs3785">
    <linearGradient
       id="linearGradient3794">
      <stop
         style="stop-color:#000000;stop-opacity:0.39215687;"
         offset="0"
         id="stop3796" />
      <stop
         style="stop-color:#000000;stop-opacity:0.19607843;"
         offset="1"
         id="stop3798" />
    </linearGradient>
    <linearGradient
       id="linearGradient4313">
      <stop
         style="stop-color:#ffffff;stop-opacity:0.19607843;"
         offset="0"
         id="stop4315" />
      <stop
         style="stop-color:#ffffff;stop-opacity:0.05882353;"
         offset="1"
         id="stop4317" />
    </linearGradient>
    <linearGradient
       inkscape:collect="always"
       xlink:href="#linearGradient4313"
       id="linearGradient4319"
       x1="26"
       y1="2"
       x2="26"
       y2="20"
       gradientUnits="userSpaceOnUse" />
    <linearGradient
       inkscape:collect="always"
       xlink:href="#linearGradient4313"
       id="linearGradient4325"
       gradientUnits="userSpaceOnUse"
       x1="26"
       y1="2"
       x2="26"
       y2="20" />
    <linearGradient
       inkscape:collect="always"
       xlink:href="#linearGradient4313"
       id="linearGradient4329"
       gradientUnits="userSpaceOnUse"
       x1="26"
       y1="2"
       x2="26"
       y2="20" />
    <linearGradient
       inkscape:collect="always"
       xlink:href="#linearGradient4313"
       id="linearGradient4331"
       gradientUnits="userSpaceOnUse"
       x1="26"
       y1="2"
       x2="26"
       y2="20" />
    <filter
       inkscape:collect="always"
       id="filter4342">
      <feGaussianBlur
         inkscape:collect="always"
         stdDeviation="0.62"
         id="feGaussianBlur4344" />
    </filter>
    <linearGradient
       inkscape:collect="always"
       xlink:href="#linearGradient4313"
       id="linearGradient4350"
       gradientUnits="userSpaceOnUse"
       x1="26"
       y1="2"
       x2="26"
       y2="20"
       gradientTransform="translate(0,1020.3622)" />
    <linearGradient
       inkscape:collect="always"
       xlink:href="#linearGradient4313"
       id="linearGradient4357"
       gradientUnits="userSpaceOnUse"
       x1="26"
       y1="2"
       x2="26"
       y2="20" />
    <linearGradient
       inkscape:collect="always"
       xlink:href="#linearGradient4313"
       id="linearGradient4359"
       gradientUnits="userSpaceOnUse"
       x1="26"
       y1="2"
       x2="26"
       y2="20" />
    <linearGradient
       inkscape:collect="always"
       xlink:href="#linearGradient4313"
       id="linearGradient4416"
       gradientUnits="userSpaceOnUse"
       x1="26"
       y1="2"
       x2="26"
       y2="20"
       gradientTransform="translate(0,1030.3622)" />
    <linearGradient
       inkscape:collect="always"
       xlink:href="#linearGradient4313"
       id="linearGradient4419"
       gradientUnits="userSpaceOnUse"
       x1="26"
       y1="2"
       x2="26"
       y2="20"
       gradientTransform="translate(0,1030.3622)" />
    <linearGradient
       inkscape:collect="always"
       xlink:href="#linearGradient4313"
       id="linearGradient4433"
       gradientUnits="userSpaceOnUse"
       gradientTransform="translate(0,1030.3622)"
       x1="26"
       y1="2"
       x2="26"
       y2="20" />
    <linearGradient
       inkscape:collect="always"
       xlink:href="#linearGradient4313"
       id="linearGradient4437"
       gradientUnits="userSpaceOnUse"
       gradientTransform="translate(0,1030.3622)"
       x1="26"
       y1="2"
       x2="26"
       y2="20" />
    <linearGradient
       inkscape:collect="always"
       xlink:href="#linearGradient4313"
       id="linearGradient4439"
       gradientUnits="userSpaceOnUse"
       x1="26"
       y1="2"
       x2="26"
       y2="20" />
    <linearGradient
       inkscape:collect="always"
       xlink:href="#linearGradient4313"
       id="linearGradient4442"
       gradientUnits="userSpaceOnUse"
       x1="26"
       y1="2"
       x2="26"
       y2="30" />
    <linearGradient
       inkscape:collect="always"
       xlink:href="#linearGradient4313"
       id="linearGradient4446"
       gradientUnits="userSpaceOnUse"
       gradientTransform="translate(0,1030.3622)"
       x1="26"
       y1="-1"
       x2="26"
       y2="20" />
    <linearGradient
       inkscape:collect="always"
       xlink:href="#linearGradient4313"
       id="linearGradient3780"
       gradientUnits="userSpaceOnUse"
       gradientTransform="translate(0,1050.3622)"
       x1="26"
       y1="-1"
       x2="26"
       y2="20" />
    <clipPath
       clipPathUnits="userSpaceOnUse"
       id="clipPath3783">
      <path
         style="opacity:0.4;color:#000000;fill:#ff00ff;fill-opacity:1;fill-rule:nonzero;stroke:none;stroke-width:1;marker:none;visibility:visible;display:inline;overflow:visible;enable-background:accumulate"
         d="m 0,1040.3622 0,22 48,0 0,-22 -48,0 z m 4.5,2 39,0 c 1.385,0 2.5,1.115 2.5,2.5 l 0,13 c 0,1.385 -1.115,2.5 -2.5,2.5 l -39,0 c -1.385,0 -2.5,-1.115 -2.5,-2.5 l 0,-13 c 0,-1.385 1.115,-2.5 2.5,-2.5 z"
         id="path3785"
         inkscape:connector-curvature="0" />
    </clipPath>
    <linearGradient
       inkscape:collect="always"
       xlink:href="#linearGradient4313"
       id="linearGradient3797"
       gradientUnits="userSpaceOnUse"
       gradientTransform="translate(0,-1052.3622)"
       x1="26"
       y1="2"
       x2="26"
       y2="20" />
    <linearGradient
       inkscape:collect="always"
       xlink:href="#linearGradient4313"
       id="linearGradient3803"
       gradientUnits="userSpaceOnUse"
       gradientTransform="translate(0,1030.3622)"
       x1="26"
       y1="2"
       x2="26"
       y2="20" />
    <linearGradient
       inkscape:collect="always"
       xlink:href="#linearGradient4313"
       id="linearGradient3807"
       gradientUnits="userSpaceOnUse"
       gradientTransform="translate(0,1030.3622)"
       x1="26"
       y1="2"
       x2="26"
       y2="20" />
    <linearGradient
       inkscape:collect="always"
       xlink:href="#linearGradient4313"
       id="linearGradient3809"
       gradientUnits="userSpaceOnUse"
       x1="26"
       y1="2"
       x2="26"
       y2="20" />
    <linearGradient
       inkscape:collect="always"
       xlink:href="#linearGradient4313"
       id="linearGradient3812"
       gradientUnits="userSpaceOnUse"
       x1="26"
       y1="2"
       x2="26"
       y2="30" />
    <linearGradient
       inkscape:collect="always"
       xlink:href="#linearGradient4313"
       id="linearGradient3785"
       gradientUnits="userSpaceOnUse"
       gradientTransform="translate(0,-1052.3622)"
       x1="26"
       y1="2"
       x2="26"
       y2="20" />
    <linearGradient
       inkscape:collect="always"
       xlink:href="#linearGradient4313"
       id="linearGradient3789"
       gradientUnits="userSpaceOnUse"
       gradientTransform="matrix(1,0,0,-1,0,22)"
       x1="26"
       y1="2"
       x2="26"
       y2="20" />
    <linearGradient
       inkscape:collect="always"
       xlink:href="#linearGradient3794"
       id="linearGradient3800"
       x1="21"
       y1="21"
       x2="21"
       y2="1"
       gradientUnits="userSpaceOnUse" />
    <linearGradient
       inkscape:collect="always"
       xlink:href="#linearGradient4313"
       id="linearGradient3804"
       gradientUnits="userSpaceOnUse"
       gradientTransform="translate(0,-1052.3622)"
       x1="26"
       y1="2"
       x2="26"
       y2="20" />
    <linearGradient
       inkscape:collect="always"
       xlink:href="#linearGradient4313"
       id="linearGradient3808"
       gradientUnits="userSpaceOnUse"
       gradientTransform="matrix(1,0,0,-1,0,23)"
       x1="26"
       y1="2"
       x2="26"
       y2="20" />
    <linearGradient
       inkscape:collect="always"
       xlink:href="#linearGradient4313"
       id="linearGradient3813"
       gradientUnits="userSpaceOnUse"
       gradientTransform="translate(0,-1052.3622)"
       x1="26"
       y1="2"
       x2="26"
       y2="20" />
  </defs>
  <sodipodi:namedview
     id="base"
     pagecolor="#ffffff"
     bordercolor="#666666"
     borderopacity="1.0"
     inkscape:pageopacity="0.0"
     inkscape:pageshadow="2"
     inkscape:zoom="15.327746"
     inkscape:cx="10.889537"
     inkscape:cy="14.524641"
     inkscape:document-units="px"
     inkscape:current-layer="layer1"
     showgrid="true"
     inkscape:showpageshadow="false"
     inkscape:window-width="1920"
     inkscape:window-height="1022"
     inkscape:window-x="0"
     inkscape:window-y="25"
     inkscape:window-maximized="1">
    <inkscape:grid
       type="xygrid"
       id="grid4301"
       empspacing="8"
       visible="true"
       enabled="true"
       snapvisiblegridlinesonly="true" />
  </sodipodi:namedview>
  <metadata
     id="metadata3788">
    <rdf:RDF>
      <cc:Work
         rdf:about="">
        <dc:format>image/svg+xml</dc:format>
        <dc:type
           rdf:resource="http://purl.org/dc/dcmitype/StillImage" />
      </cc:Work>
    </rdf:RDF>
  </metadata>
  <g
     inkscape:label="Calque 1"
     inkscape:groupmode="layer"
     id="layer1"
     transform="translate(0,-1030.3622)">
    <path
       style="color:#000000;fill:url(#linearGradient3800);fill-opacity:1;fill-rule:nonzero;stroke:none;stroke-width:1;marker:none;visibility:visible;display:inline;overflow:visible;enable-background:accumulate"
       d="M 4.5 0.96875 C 2.553665 0.96875 0.96875 2.5537 0.96875 4.5 L 0.96875 17.5 C 0.96875 19.4463 2.553665 21.03125 4.5 21.03125 L 43.5 21.03125 C 45.446335 21.03125 47.03125 19.4463 47.03125 17.5 L 47.03125 4.5 C 47.03125 2.5537 45.446335 0.96875 43.5 0.96875 L 4.5 0.96875 z M 4.5 2 L 43.5 2 C 44.885 2 46 3.115 46 4.5 L 46 17.5 C 46 18.885 44.885 20 43.5 20 L 4.5 20 C 3.115 20 2 18.885 2 17.5 L 2 4.5 C 2 3.115 3.115 2 4.5 2 z "
       transform="translate(0,1030.3622)"
       id="path3787" />
    <rect
       ry="2.5"
       y="1042.8622"
       x="2"
       height="18"
       width="44"
       id="rect4334"
       style="opacity:0.5;color:#000000;fill:#000000;fill-opacity:1;fill-rule:nonzero;stroke:none;stroke-width:1;marker:none;visibility:visible;display:inline;overflow:visible;filter:url(#filter4342);enable-background:accumulate"
       clip-path="url(#clipPath3783)"
       transform="translate(0,20)" />
    <rect
       style="color:#000000;fill:url(#linearGradient3797);fill-opacity:1;fill-rule:nonzero;stroke:none;stroke-width:1;marker:none;visibility:visible;display:inline;overflow:visible;enable-background:accumulate"
       id="rect4303"
       width="44"
       height="18"
       x="2"
       y="-1050.3622"
       ry="2.5"
       transform="scale(1,-1)" />
    <path
       style="color:#000000;fill:url(#linearGradient3812);fill-opacity:1;fill-rule:nonzero;stroke:none;stroke-width:1;marker:none;visibility:visible;display:inline;overflow:visible;enable-background:accumulate"
       d="M 4.5 2 C 3.115 2 2 3.115 2 4.5 L 2 17.5 C 2 18.885 3.115 20 4.5 20 L 43.5 20 C 44.885 20 46 18.885 46 17.5 L 46 4.5 C 46 3.115 44.885 2 43.5 2 L 4.5 2 z M 4.5 3.03125 L 43.5 3.03125 C 44.324758 3.03125 44.96875 3.6752 44.96875 4.5 L 44.96875 17.5 C 44.96875 18.3248 44.324758 18.96875 43.5 18.96875 L 4.5 18.96875 C 3.6752418 18.96875 3.03125 18.3248 3.03125 17.5 L 3.03125 4.5 C 3.03125 3.6752 3.6752418 3.03125 4.5 3.03125 z "
       transform="translate(0,1030.3622)"
       id="rect3799" />
    <path
       style="color:#000000;fill:#ffffff;fill-opacity:1;fill-rule:nonzero;stroke:none;stroke-width:1;marker:none;visibility:visible;display:inline;overflow:visible;enable-background:accumulate;opacity:0.07"
       d="M 0.96875 17.5 L 0.96875 18.5 C 0.96875 20.4452 2.5547582 22.03125 4.5 22.03125 L 43.5 22.03125 C 45.445242 22.03125 47.03125 20.4452 47.03125 18.5 L 47.03125 17.5 C 47.03125 19.4452 45.445242 21.03125 43.5 21.03125 L 4.5 21.03125 C 2.5547582 21.03125 0.96875 19.4452 0.96875 17.5 z "
       transform="translate(0,1030.3622)"
       id="path3806" />
  </g>
</svg>
