<?xml version="1.0" encoding="UTF-8" standalone="no"?>
<!-- Created with Inkscape (http://www.inkscape.org/) -->

<svg
   xmlns:dc="http://purl.org/dc/elements/1.1/"
   xmlns:cc="http://creativecommons.org/ns#"
   xmlns:rdf="http://www.w3.org/1999/02/22-rdf-syntax-ns#"
   xmlns:svg="http://www.w3.org/2000/svg"
   xmlns="http://www.w3.org/2000/svg"
   xmlns:xlink="http://www.w3.org/1999/xlink"
   xmlns:sodipodi="http://sodipodi.sourceforge.net/DTD/sodipodi-0.dtd"
   xmlns:inkscape="http://www.inkscape.org/namespaces/inkscape"
   width="48"
   height="22"
   id="svg3783"
   version="1.1"
   inkscape:version="0.48.1 r9760"
   sodipodi:docname="search-entry-focus.svg"
   inkscape:export-filename="/home/matthieu/.themes/MyDwaita/gnome-shell/search-entry.png"
   inkscape:export-xdpi="90"
   inkscape:export-ydpi="90">
  <defs
     id="defs3785">
    <linearGradient
       inkscape:collect="always"
       id="linearGradient3872">
      <stop
         style="stop-color:#ffffff;stop-opacity:1;"
         offset="0"
         id="stop3874" />
      <stop
         style="stop-color:#ffffff;stop-opacity:0;"
         offset="1"
         id="stop3876" />
    </linearGradient>
    <linearGradient
       id="linearGradient4313">
      <stop
         style="stop-color:#ffffff;stop-opacity:0.27450982;"
         offset="0"
         id="stop4315" />
      <stop
         style="stop-color:#ffffff;stop-opacity:0.19607843;"
         offset="1"
         id="stop4317" />
    </linearGradient>
    <linearGradient
       inkscape:collect="always"
       xlink:href="#linearGradient4313"
       id="linearGradient4319"
       x1="26"
       y1="2"
       x2="26"
       y2="20"
       gradientUnits="userSpaceOnUse" />
    <linearGradient
       inkscape:collect="always"
       xlink:href="#linearGradient4313"
       id="linearGradient4325"
       gradientUnits="userSpaceOnUse"
       x1="26"
       y1="2"
       x2="26"
       y2="20" />
    <linearGradient
       inkscape:collect="always"
       xlink:href="#linearGradient4313"
       id="linearGradient4329"
       gradientUnits="userSpaceOnUse"
       x1="26"
       y1="2"
       x2="26"
       y2="20" />
    <linearGradient
       inkscape:collect="always"
       xlink:href="#linearGradient4313"
       id="linearGradient4331"
       gradientUnits="userSpaceOnUse"
       x1="26"
       y1="2"
       x2="26"
       y2="20" />
    <filter
       inkscape:collect="always"
       id="filter4342">
      <feGaussianBlur
         inkscape:collect="always"
         stdDeviation="0.62"
         id="feGaussianBlur4344" />
    </filter>
    <linearGradient
       inkscape:collect="always"
       xlink:href="#linearGradient4313"
       id="linearGradient4350"
       gradientUnits="userSpaceOnUse"
       x1="26"
       y1="2"
       x2="26"
       y2="20"
       gradientTransform="translate(0,1020.3622)" />
    <linearGradient
       inkscape:collect="always"
       xlink:href="#linearGradient4313"
       id="linearGradient4357"
       gradientUnits="userSpaceOnUse"
       x1="26"
       y1="2"
       x2="26"
       y2="20" />
    <linearGradient
       inkscape:collect="always"
       xlink:href="#linearGradient4313"
       id="linearGradient4359"
       gradientUnits="userSpaceOnUse"
       x1="26"
       y1="2"
       x2="26"
       y2="20" />
    <linearGradient
       inkscape:collect="always"
       xlink:href="#linearGradient4313"
       id="linearGradient4416"
       gradientUnits="userSpaceOnUse"
       x1="26"
       y1="2"
       x2="26"
       y2="20"
       gradientTransform="translate(0,1030.3622)" />
    <linearGradient
       inkscape:collect="always"
       xlink:href="#linearGradient4313"
       id="linearGradient4419"
       gradientUnits="userSpaceOnUse"
       x1="26"
       y1="2"
       x2="26"
       y2="20"
       gradientTransform="translate(0,1030.3622)" />
    <clipPath
       clipPathUnits="userSpaceOnUse"
       id="clipPath4425">
      <path
         style="opacity:0.4;color:#000000;fill:#ff00ff;fill-opacity:1;fill-rule:nonzero;stroke:none;stroke-width:1;marker:none;visibility:visible;display:inline;overflow:visible;enable-background:accumulate"
         d="m 0,1040.3622 0,22 48,0 0,-22 -48,0 z m 4,2 1,0 38,0 1,0 c 1.108,0 2,0.892 2,2 l 0,1 0,12 0,1 c 0,1.108 -0.892,2 -2,2 l -1,0 -38,0 -1,0 c -1.108,0 -2,-0.892 -2,-2 l 0,-1 0,-12 0,-1 c 0,-1.108 0.892,-2 2,-2 z"
         id="path4427"
         inkscape:connector-curvature="0" />
    </clipPath>
    <linearGradient
       inkscape:collect="always"
       xlink:href="#linearGradient4313"
       id="linearGradient4433"
       gradientUnits="userSpaceOnUse"
       gradientTransform="translate(0,1030.3622)"
       x1="26"
       y1="2"
       x2="26"
       y2="20" />
    <linearGradient
       inkscape:collect="always"
       xlink:href="#linearGradient4313"
       id="linearGradient4437"
       gradientUnits="userSpaceOnUse"
       gradientTransform="translate(0,1030.3622)"
       x1="26"
       y1="2"
       x2="26"
       y2="20" />
    <linearGradient
       inkscape:collect="always"
       xlink:href="#linearGradient4313"
       id="linearGradient4439"
       gradientUnits="userSpaceOnUse"
       x1="26"
       y1="2"
       x2="26"
       y2="20" />
    <linearGradient
       inkscape:collect="always"
       xlink:href="#linearGradient4313"
       id="linearGradient4442"
       gradientUnits="userSpaceOnUse"
       x1="26"
       y1="2"
       x2="26"
       y2="30" />
    <linearGradient
       inkscape:collect="always"
       xlink:href="#linearGradient4313"
       id="linearGradient3789"
       x1="21"
       y1="21"
       x2="21"
       y2="1"
       gradientUnits="userSpaceOnUse" />
    <clipPath
       clipPathUnits="userSpaceOnUse"
       id="clipPath3795">
      <rect
         ry="2.5"
         y="1032.3622"
         x="2"
         height="18"
         width="44"
         id="rect3797"
         style="opacity:0.1;color:#000000;fill:#ff00ff;fill-opacity:1;fill-rule:nonzero;stroke:none;stroke-width:1;marker:none;visibility:visible;display:inline;overflow:visible;enable-background:accumulate" />
    </clipPath>
    <filter
       inkscape:collect="always"
       id="filter3821"
       x="-0.042272727"
       width="1.0845455"
       y="-0.10333333"
       height="1.2066667">
      <feGaussianBlur
         inkscape:collect="always"
         stdDeviation="0.775"
         id="feGaussianBlur3823" />
    </filter>
    <linearGradient
       inkscape:collect="always"
       xlink:href="#linearGradient3872"
       id="linearGradient3878"
       x1="19"
       y1="2"
       x2="19"
       y2="20"
       gradientUnits="userSpaceOnUse" />
    <clipPath
       clipPathUnits="userSpaceOnUse"
       id="clipPath3891">
      <path
         style="color:#000000;fill:#ff00ff;fill-opacity:1;fill-rule:nonzero;stroke:none;stroke-width:1.5;marker:none;visibility:visible;display:inline;overflow:visible;enable-background:accumulate"
         d="m 0,1060.3622 0,22 48,0 0,-22 -48,0 z m 4.5,2 39,0 c 1.385,0 2.5,1.115 2.5,2.5 l 0,13 c 0,1.385 -1.115,2.5 -2.5,2.5 l -39,0 c -1.385,0 -2.5,-1.115 -2.5,-2.5 l 0,-13 c 0,-1.385 1.115,-2.5 2.5,-2.5 z"
         id="path3893"
         inkscape:connector-curvature="0" />
    </clipPath>
    <filter
       inkscape:collect="always"
       id="filter3895"
       x="-0.050727273"
       width="1.1014545"
       y="-0.124"
       height="1.248">
      <feGaussianBlur
         inkscape:collect="always"
         stdDeviation="0.93"
         id="feGaussianBlur3897" />
    </filter>
  </defs>
  <sodipodi:namedview
     id="base"
     pagecolor="#ffffff"
     bordercolor="#666666"
     borderopacity="1.0"
     inkscape:pageopacity="0.0"
     inkscape:pageshadow="2"
     inkscape:zoom="15.327746"
     inkscape:cx="25.026918"
     inkscape:cy="4.0534337"
     inkscape:document-units="px"
     inkscape:current-layer="layer1"
     showgrid="true"
     inkscape:showpageshadow="false"
     inkscape:window-width="1920"
     inkscape:window-height="1022"
     inkscape:window-x="0"
     inkscape:window-y="25"
     inkscape:window-maximized="1">
    <inkscape:grid
       type="xygrid"
       id="grid4301"
       empspacing="8"
       visible="true"
       enabled="true"
       snapvisiblegridlinesonly="true" />
  </sodipodi:namedview>
  <metadata
     id="metadata3788">
    <rdf:RDF>
      <cc:Work
         rdf:about="">
        <dc:format>image/svg+xml</dc:format>
        <dc:type
           rdf:resource="http://purl.org/dc/dcmitype/StillImage" />
        <dc:title></dc:title>
      </cc:Work>
    </rdf:RDF>
  </metadata>
  <g
     inkscape:label="Calque 1"
     inkscape:groupmode="layer"
     id="layer1"
     transform="translate(0,-1030.3622)">
    <path
       style="opacity:0.1;color:#000000;fill:#000000;fill-opacity:1;fill-rule:nonzero;stroke:none;stroke-width:1;marker:none;visibility:visible;display:inline;overflow:visible;enable-background:accumulate"
       d="M 4.5 -0.03125 C 2.0165545 -0.03125 -0.03125 2.0165 -0.03125 4.5 L -0.03125 17.5 C -0.03125 19.9835 2.0165545 22.03125 4.5 22.03125 L 43.5 22.03125 C 45.983446 22.03125 48.03125 19.9835 48.03125 17.5 L 48.03125 4.5 C 48.03125 2.0165 45.983446 -0.03125 43.5 -0.03125 L 4.5 -0.03125 z M 4.5 2 L 43.5 2 C 44.885 2 46 3.115 46 4.5 L 46 17.5 C 46 18.885 44.885 20 43.5 20 L 4.5 20 C 3.115 20 2 18.885 2 17.5 L 2 4.5 C 2 3.115 3.115 2 4.5 2 z "
       transform="translate(0,1030.3622)"
       id="path3910" />
    <path
       style="opacity:0.15;color:#000000;fill:#000000;fill-opacity:1;fill-rule:nonzero;stroke:none;stroke-width:1;marker:none;visibility:visible;display:inline;overflow:visible;enable-background:accumulate"
       d="M 4.5 0.96875 C 2.5681153 0.96875 0.96875 2.5681 0.96875 4.5 L 0.96875 17.5 C 0.96875 19.4319 2.5681153 21.03125 4.5 21.03125 L 43.5 21.03125 C 45.431885 21.03125 47.03125 19.4319 47.03125 17.5 L 47.03125 4.5 C 47.03125 2.5681 45.431885 0.96875 43.5 0.96875 L 4.5 0.96875 z M 4.5 2 L 43.5 2 C 44.885 2 46 3.115 46 4.5 L 46 17.5 C 46 18.885 44.885 20 43.5 20 L 4.5 20 C 3.115 20 2 18.885 2 17.5 L 2 4.5 C 2 3.115 3.115 2 4.5 2 z "
       transform="translate(0,1030.3622)"
       id="path3906" />
    <rect
       ry="2.5"
       y="1062.5022"
       x="2"
       height="18"
       width="44"
       id="rect3880"
       style="opacity:0.8;color:#000000;fill:#000000;fill-opacity:1;fill-rule:nonzero;stroke:none;stroke-width:1;marker:none;visibility:visible;display:inline;overflow:visible;filter:url(#filter3895);enable-background:accumulate"
       clip-path="url(#clipPath3891)" />
    <rect
       style="color:#000000;fill:#ffffff;fill-opacity:1;fill-rule:nonzero;stroke:none;stroke-width:1;marker:none;visibility:visible;display:inline;overflow:visible;enable-background:accumulate;opacity:0.9"
       id="rect4303"
       width="44"
       height="18"
       x="2"
       y="1032.3622"
       ry="2.5" />
    <path
       style="color:#000000;fill:url(#linearGradient3878);fill-opacity:1;fill-rule:nonzero;stroke:none;stroke-width:1;marker:none;visibility:visible;display:inline;overflow:visible;enable-background:accumulate;opacity:1"
       d="M 4.5 2 C 3.115 2 2 3.115 2 4.5 L 2 17.5 C 2 18.885 3.115 20 4.5 20 L 43.5 20 C 44.885 20 46 18.885 46 17.5 L 46 4.5 C 46 3.115 44.885 2 43.5 2 L 4.5 2 z M 4.5 2.96875 L 43.5 2.96875 C 44.359773 2.96875 45.03125 3.6402 45.03125 4.5 L 45.03125 17.5 C 45.03125 18.3598 44.359773 19.03125 43.5 19.03125 L 4.5 19.03125 C 3.6402267 19.03125 2.96875 18.3598 2.96875 17.5 L 2.96875 4.5 C 2.96875 3.6402 3.6402267 2.96875 4.5 2.96875 z "
       transform="translate(0,1030.3622)"
       id="rect3865" />
    <path
       style="opacity:0.3;color:#000000;fill:#000000;fill-opacity:1;fill-rule:nonzero;stroke:none;stroke-width:1;marker:none;visibility:visible;display:inline;overflow:visible;enable-background:accumulate"
       d="M 2 17.5 L 2 18.5 C 2 19.885 3.115 21 4.5 21 L 43.5 21 C 44.885 21 46 19.885 46 18.5 L 46 17.5 C 46 18.885 44.885 20 43.5 20 L 4.5 20 C 3.115 20 2 18.885 2 17.5 z "
       transform="translate(0,1030.3622)"
       id="rect3899" />
  </g>
</svg>
