<?xml version="1.0" encoding="UTF-8" standalone="no"?>
<!-- Created with Inkscape (http://www.inkscape.org/) -->

<svg
   width="400"
   height="120"
   id="svg2"
   version="1.1"
   inkscape:version="1.4 (e7c3feb100, 2024-10-09)"
   sodipodi:docname="trash-icon.svg"
   xml:space="preserve"
   xmlns:inkscape="http://www.inkscape.org/namespaces/inkscape"
   xmlns:sodipodi="http://sodipodi.sourceforge.net/DTD/sodipodi-0.dtd"
   xmlns:xlink="http://www.w3.org/1999/xlink"
   xmlns="http://www.w3.org/2000/svg"
   xmlns:svg="http://www.w3.org/2000/svg"
   xmlns:rdf="http://www.w3.org/1999/02/22-rdf-syntax-ns#"
   xmlns:cc="http://creativecommons.org/ns#"
   xmlns:dc="http://purl.org/dc/elements/1.1/"><defs
     id="defs4"><linearGradient
       id="linearGradient6"
       inkscape:collect="always"><stop
         style="stop-color:#00ff00;stop-opacity:1;"
         offset="0"
         id="stop6" /><stop
         style="stop-color:#00cc00;stop-opacity:1;"
         offset="1"
         id="stop7" /></linearGradient><linearGradient
       inkscape:collect="always"
       xlink:href="#linearGradient6"
       id="linearGradient7"
       x1="196.71094"
       y1="786.26843"
       x2="196.71094"
       y2="825.72156"
       gradientUnits="userSpaceOnUse" /></defs><sodipodi:namedview
     id="base"
     pagecolor="#ffffff"
     bordercolor="#666666"
     borderopacity="1.0"
     inkscape:pageopacity="0.0"
     inkscape:pageshadow="2"
     inkscape:zoom="2.56"
     inkscape:cx="245.50781"
     inkscape:cy="5.2734375"
     inkscape:document-units="px"
     inkscape:current-layer="layer1"
     showgrid="true"
     inkscape:window-width="1920"
     inkscape:window-height="1040"
     inkscape:window-x="0"
     inkscape:window-y="40"
     inkscape:window-maximized="1"
     showguides="true"
     inkscape:guide-bbox="true"
     inkscape:snap-bbox="true"
     inkscape:bbox-paths="true"
     inkscape:bbox-nodes="true"
     inkscape:snap-bbox-edge-midpoints="true"
     inkscape:showpageshadow="0"
     inkscape:pagecheckerboard="1"
     inkscape:deskcolor="#505050"><inkscape:grid
       type="xygrid"
       id="grid2985"
       empspacing="5"
       visible="true"
       enabled="true"
       snapvisiblegridlinesonly="true"
       originx="0"
       originy="0"
       spacingy="1"
       spacingx="1"
       units="px" /><sodipodi:guide
       orientation="1,0"
       position="200,105"
       id="guide3920"
       inkscape:locked="false" /></sodipodi:namedview><metadata
     id="metadata7"><rdf:RDF><cc:Work
         rdf:about=""><dc:format>image/svg+xml</dc:format><dc:type
           rdf:resource="http://purl.org/dc/dcmitype/StillImage" /></cc:Work></rdf:RDF></metadata><g
     inkscape:label="Ebene 1"
     inkscape:groupmode="layer"
     id="layer1"
     transform="translate(3.09375,-932.36218)"><path
       style="opacity:0.45;fill:#000000;fill-opacity:1;stroke:none;stroke-width:1;stroke-linecap:butt;stroke-linejoin:round;stroke-miterlimit:4;stroke-dasharray:none;stroke-dashoffset:0;stroke-opacity:1"
       d="M 8,6 C 6.892,6 6,6.8919999 6,8 v 113 c 0,1.108 0.892,2 2,2 h 384 c 1.108,0 2,-0.892 2,-2 V 8 c 0,-1.1080001 -0.892,-2 -2,-2 z m 0,1 h 384 c 0.554,0 1,0.446 1,1 v 113 c 0,0.554 -0.446,1 -1,1 H 8 c -0.554,0 -1,-0.446 -1,-1 V 8 C 7,7.446 7.446,7 8,7 Z"
       transform="translate(0,932.36218)"
       id="rect4179-2-0-9-8" /><rect
       style="display:inline;opacity:0.3;fill:#000000;fill-opacity:1;stroke:none;stroke-width:1;stroke-linecap:butt;stroke-linejoin:round;stroke-miterlimit:4;stroke-dasharray:none;stroke-dashoffset:0;stroke-opacity:1"
       id="rect4179-2-0-9"
       width="386"
       height="115"
       x="7"
       y="939.36218"
       ry="1"
       rx="1" /><g
       id="g6"
       transform="translate(0,186.36719)"
       style="fill:url(#linearGradient7)"><path
         id="rect1"
         style="opacity:1;fill:url(#linearGradient7);stroke:none;stroke-width:1.13832;stroke-linecap:round"
         d="m 183.66797,791.34655 c -2.42169,0 -4.37111,1.94941 -4.37109,4.3711 v 33.83594 c 0,2.42168 1.9494,4.37109 4.37109,4.37109 h 26.80469 c 2.42168,0 4.37109,-1.94941 4.37109,-4.37109 v -33.83594 c 0,-2.42169 -1.94941,-4.3711 -4.37109,-4.3711 z m 3.08203,5.07813 c 0.86562,0 1.5625,0.69687 1.5625,1.5625 v 29.29687 c 0,0.86563 -0.69688,1.5625 -1.5625,1.5625 -0.86562,0 -1.5625,-0.69687 -1.5625,-1.5625 v -29.29687 c 0,-0.86563 0.69688,-1.5625 1.5625,-1.5625 z m 10.15625,0 c 0.86562,0 1.5625,0.69687 1.5625,1.5625 v 29.29687 c 0,0.86563 -0.69688,1.5625 -1.5625,1.5625 -0.86562,0 -1.5625,-0.69687 -1.5625,-1.5625 v -29.29687 c 0,-0.86563 0.69688,-1.5625 1.5625,-1.5625 z m 10.15625,0 c 0.86562,0 1.5625,0.69687 1.5625,1.5625 v 29.29687 c 0,0.86563 -0.69688,1.5625 -1.5625,1.5625 -0.86562,0 -1.5625,-0.69687 -1.5625,-1.5625 v -29.29687 c 0,-0.86563 0.69688,-1.5625 1.5625,-1.5625 z"
         inkscape:label="rect1" /><path
         id="rect4"
         style="opacity:1;fill:url(#linearGradient7);fill-opacity:1;stroke:none;stroke-width:1.07232;stroke-linecap:round"
         d="m 182.0625,783.14343 c -2.81328,0 -5.07812,2.26484 -5.07812,5.07812 v 0.39063 c 0,0.40438 0.0521,0.79526 0.14062,1.17187 h 39.17188 c 0.0885,-0.37661 0.14062,-0.76749 0.14062,-1.17187 v -0.39063 c 0,-2.81328 -2.26484,-5.07812 -5.07812,-5.07812 z" /><path
         id="rect5"
         style="opacity:1;fill:url(#linearGradient7);fill-opacity:1;stroke:none;stroke-width:1.067;stroke-linecap:round"
         d="m 195.34375,778.0653 c -2.40933,0 -4.4147,1.66211 -4.94141,3.90625 h 13.39844 c -0.52671,-2.24414 -2.53207,-3.90625 -4.9414,-3.90625 z" /></g></g></svg>
