<?xml version="1.0" encoding="UTF-8" standalone="no"?>
<!-- Created with Inkscape (http://www.inkscape.org/) -->

<svg
   xmlns:dc="http://purl.org/dc/elements/1.1/"
   xmlns:cc="http://creativecommons.org/ns#"
   xmlns:rdf="http://www.w3.org/1999/02/22-rdf-syntax-ns#"
   xmlns:svg="http://www.w3.org/2000/svg"
   xmlns="http://www.w3.org/2000/svg"
   xmlns:sodipodi="http://sodipodi.sourceforge.net/DTD/sodipodi-0.dtd"
   xmlns:inkscape="http://www.inkscape.org/namespaces/inkscape"
   width="24.000002"
   height="24"
   id="svg3768"
   version="1.1"
   inkscape:version="0.48.2 r9819"
   sodipodi:docname="window-close.svg">
  <defs
     id="defs3770" />
  <sodipodi:namedview
     id="base"
     pagecolor="#000000"
     bordercolor="#666666"
     borderopacity="1.0"
     inkscape:pageopacity="1"
     inkscape:pageshadow="2"
     inkscape:zoom="22.208333"
     inkscape:cx="4.3663921"
     inkscape:cy="12.063829"
     inkscape:current-layer="layer1"
     showgrid="true"
     inkscape:document-units="px"
     inkscape:grid-bbox="true"
     inkscape:window-width="1366"
     inkscape:window-height="714"
     inkscape:window-x="0"
     inkscape:window-y="25"
     inkscape:window-maximized="1"
     fit-margin-top="0"
     fit-margin-left="0"
     fit-margin-right="0"
     fit-margin-bottom="0">
    <inkscape:grid
       type="xygrid"
       id="grid4311"
       empspacing="5"
       visible="true"
       enabled="true"
       snapvisiblegridlinesonly="true" />
  </sodipodi:namedview>
  <metadata
     id="metadata3773">
    <rdf:RDF>
      <cc:Work
         rdf:about="">
        <dc:format>image/svg+xml</dc:format>
        <dc:type
           rdf:resource="http://purl.org/dc/dcmitype/StillImage" />
        <dc:title />
      </cc:Work>
    </rdf:RDF>
  </metadata>
  <g
     id="layer1"
     inkscape:label="Layer 1"
     inkscape:groupmode="layer"
     transform="translate(0.04369043,-40.063828)">
    <path
       sodipodi:type="arc"
       style="fill:#000000;fill-opacity:1;fill-rule:nonzero;stroke:#009900;stroke-width:0;stroke-miterlimit:4;stroke-opacity:1;stroke-dasharray:none;opacity:0.5"
       id="path3776"
       sodipodi:cx="17.84091"
       sodipodi:cy="11.75"
       sodipodi:rx="11.704545"
       sodipodi:ry="11.75"
       d="m 29.545455,11.75 c 0,6.489346 -5.240303,11.75 -11.704545,11.75 C 11.376668,23.5 6.1363649,18.239346 6.1363649,11.75 6.1363649,5.2606542 11.376668,0 17.84091,0 24.305152,0 29.545455,5.2606542 29.545455,11.75 z"
       transform="matrix(1.0252428,0,0,1.0212766,-6.3349544,40.063828)" />
    <path
       sodipodi:type="arc"
       style="fill:#3c3b37;fill-opacity:1;fill-rule:nonzero;stroke:#009900;stroke-width:0;stroke-miterlimit:4;stroke-opacity:1;stroke-dasharray:none"
       id="path3776-9"
       sodipodi:cx="17.84091"
       sodipodi:cy="11.75"
       sodipodi:rx="11.704545"
       sodipodi:ry="11.75"
       d="m 29.545455,11.75 c 0,6.489346 -5.240303,11.75 -11.704545,11.75 C 11.376668,23.5 6.1363649,18.239346 6.1363649,11.75 6.1363649,5.2606542 11.376668,0 17.84091,0 24.305152,0 29.545455,5.2606542 29.545455,11.75 z"
       transform="matrix(0.96116508,0,0,0.95744679,-5.1917503,40.813828)" />
    <path
       style="color:#000000;fill:#eae3d1;fill-opacity:1;fill-rule:nonzero;stroke:none;stroke-width:4;marker:none;visibility:visible;display:inline;overflow:visible;enable-background:accumulate"
       d="m 8.5400806,47.063828 c -0.1298547,0 -0.2655942,0.03064 -0.3650931,0.130293 l -1.0692021,1.068433 c -0.1990031,0.1993 -0.1990031,0.53036 0,0.72966 l 3.0511366,3.075001 -3.0511366,3.04894 c -0.1993011,0.199439 -0.1993011,0.530225 0,0.729661 l 1.0692021,1.068432 c 0.1992989,0.19944 0.5308851,0.19944 0.7301853,0 l 3.0511362,-3.048937 3.051138,3.04894 c 0.199001,0.199301 0.531185,0.199301 0.730187,0 l 1.0692,-1.068433 c 0.199004,-0.1993 0.199004,-0.53036 0,-0.72966 l -3.051137,-3.048941 3.051137,-3.075 c 0.199301,-0.199438 0.199301,-0.530223 0,-0.729661 l -1.0692,-1.068432 c -0.09964,-0.09972 -0.261124,-0.130293 -0.391172,-0.130293 -0.130054,0 -0.239366,0.03059 -0.339015,0.130293 l -3.051138,3.048944 -3.0511362,-3.048941 c -0.0995,-0.09965 -0.2352382,-0.130294 -0.3650922,-0.130294 z"
       id="rect2987"
       inkscape:connector-curvature="0" />
  </g>
</svg>
