/* XPM */
static char *close_pressed[] = {
/* columns rows colors chars-per-pixel */
"24 24 37 1 ",
"  c #2F2F2F",
". c #2E3030",
"X c #2F3030",
"o c #2B3432",
"O c #2B3532",
"+ c #2B3533",
"@ c gray20",
"# c gray22",
"$ c #1F463D",
"% c #1F473D",
"& c #1D493E",
"* c #1D493F",
"= c #1D4A3F",
"- c #20463D",
"; c #20473D",
": c #1D4B40",
"> c #1A4F42",
", c #1C4C40",
"< c #175244",
"1 c #175344",
"2 c #165445",
"3 c #175445",
"4 c #195042",
"5 c #195143",
"6 c #185244",
"7 c #096851",
"8 c #096951",
"9 c #096952",
"0 c #027256",
"q c #027257",
"w c #037257",
"e c #027357",
"r c #037357",
"t c #007558",
"y c #017559",
"u c #007659",
"i c #017659",
/* pixels */
"########################",
"@@@@@@@@@@@@@@@@@@@@@@@@",
"                        ",
"                        ",
"                        ",
"        +38ee73+        ",
"       $0uuuuuu0;       ",
"      $uuuuuuuuuu;      ",
"     +0uuwuuuuruurO     ",
"     3uuu.:tt,Xuuu1     ",
"     9uuu6 *= 4uuu7     ",
"     0uuuu5  >uuuu0     ",
"     0uuui&  %yuuur     ",
"     8uuu: << =uuu7     ",
"     3uuu+2uu2+uuu1     ",
"     +0uuuuuuuuuuwo     ",
"      ;uuuuuuuuuu-      ",
"       ;ruuuuuuw-       ",
"        O17qq71o        ",
"                        ",
"                        ",
"                        ",
"                        ",
"                        "
};
