/* XPM */
static char *close_prelight[] = {
/* columns rows colors chars-per-pixel */
"24 24 38 1 ",
"  c #2F2F2F",
". c #2F3030",
"X c #2F3231",
"o c #2F3A37",
"O c #2F3A38",
"+ c #2F3B38",
"@ c gray20",
"# c gray22",
"$ c #305B51",
"% c #305D52",
"& c #315D52",
"* c #305D53",
"= c #306256",
"- c #306357",
"; c #316458",
": c #316558",
"> c #316659",
", c #31675A",
"< c #316D5F",
"1 c #316F60",
"2 c #317162",
"3 c #317364",
"4 c #317464",
"5 c #317564",
"6 c #317565",
"7 c #317666",
"8 c #317766",
"9 c #329E84",
"0 c #329E85",
"q c #329F85",
"w c #33A086",
"e c #33B193",
"r c #32B293",
"t c #33B294",
"y c #33B394",
"u c #33B798",
"i c #33B898",
"p c #33B999",
/* pixels */
"########################",
"@@@@@@@@@@@@@@@@@@@@@@@@",
"                        ",
"                        ",
"                        ",
"        +8qyy07+        ",
"       %rppppppr&       ",
"      %ippppppppi&      ",
"     +rppepppptpptO     ",
"     8pppX>ii,.ppp6     ",
"     wppp3 -- 1ppp0     ",
"     rpppp2  <ppppr     ",
"     rpppi=  *upppt     ",
"     qppp: 44 ;ppp0     ",
"     7ppp+8pp8+ppp5     ",
"     +rppppppppppeo     ",
"      &ippppppppi$      ",
"       &tppppppe$       ",
"        O69tt95o        ",
"                        ",
"                        ",
"                        ",
"                        ",
"                        "
};
