<?xml version="1.0" encoding="UTF-8" standalone="no"?>
<!-- Created with Inkscape (http://www.inkscape.org/) -->

<svg
   xmlns:dc="http://purl.org/dc/elements/1.1/"
   xmlns:cc="http://creativecommons.org/ns#"
   xmlns:rdf="http://www.w3.org/1999/02/22-rdf-syntax-ns#"
   xmlns:svg="http://www.w3.org/2000/svg"
   xmlns="http://www.w3.org/2000/svg"
   xmlns:xlink="http://www.w3.org/1999/xlink"
   xmlns:sodipodi="http://sodipodi.sourceforge.net/DTD/sodipodi-0.dtd"
   xmlns:inkscape="http://www.inkscape.org/namespaces/inkscape"
   width="224"
   height="120"
   id="svg2985"
   version="1.1"
   inkscape:version="0.48.4 r9939"
   sodipodi:docname="trashbox.svg">
  <defs
     id="defs2987">
    <linearGradient
       id="linearGradient3778">
      <stop
         style="stop-color:#000000;stop-opacity:1;"
         offset="0"
         id="stop3780" />
      <stop
         style="stop-color:#000000;stop-opacity:0.68695652;"
         offset="1"
         id="stop3782" />
    </linearGradient>
    <linearGradient
       id="linearGradient3797">
      <stop
         id="stop3799"
         offset="0"
         style="stop-color:#4eb4eb;stop-opacity:1;" />
      <stop
         id="stop3801"
         offset="1"
         style="stop-color:#388ce6;stop-opacity:1;" />
    </linearGradient>
    <linearGradient
       id="linearGradient3759">
      <stop
         style="stop-color:#333333;stop-opacity:1;"
         offset="0"
         id="stop3761" />
      <stop
         style="stop-color:#464646;stop-opacity:1;"
         offset="1"
         id="stop3763" />
    </linearGradient>
    <linearGradient
       id="linearGradient3765">
      <stop
         style="stop-color:#d14836;stop-opacity:1;"
         offset="0"
         id="stop3767" />
      <stop
         style="stop-color:#dd4b39;stop-opacity:1;"
         offset="1"
         id="stop3769" />
    </linearGradient>
    <linearGradient
       inkscape:collect="always"
       xlink:href="#linearGradient3765-6"
       id="linearGradient3771-1"
       x1="50"
       y1="-1"
       x2="50"
       y2="48"
       gradientUnits="userSpaceOnUse"
       gradientTransform="matrix(2.2653064,0,0,2.2962964,-2.3278064,-69.641204)" />
    <linearGradient
       id="linearGradient3765-6">
      <stop
         style="stop-color:#dd4b39;stop-opacity:1;"
         offset="0"
         id="stop3767-7" />
      <stop
         style="stop-color:#d14836;stop-opacity:1;"
         offset="1"
         id="stop3769-6" />
    </linearGradient>
  </defs>
  <sodipodi:namedview
     id="base"
     pagecolor="#ffffff"
     bordercolor="#666666"
     borderopacity="1.0"
     inkscape:pageopacity="0.0"
     inkscape:pageshadow="2"
     inkscape:zoom="3.9999998"
     inkscape:cx="123.38487"
     inkscape:cy="57.735465"
     inkscape:current-layer="layer1"
     showgrid="false"
     inkscape:grid-bbox="true"
     inkscape:document-units="px"
     inkscape:window-width="1280"
     inkscape:window-height="748"
     inkscape:window-x="0"
     inkscape:window-y="26"
     inkscape:window-maximized="1"
     fit-margin-top="0"
     fit-margin-left="0"
     fit-margin-right="0"
     fit-margin-bottom="-4"
     inkscape:showpageshadow="false"
     borderlayer="true">
    <inkscape:grid
       type="xygrid"
       id="grid3773"
       empspacing="5"
       visible="true"
       enabled="true"
       snapvisiblegridlinesonly="true"
       originx="1px"
       originy="5px" />
  </sodipodi:namedview>
  <metadata
     id="metadata2990">
    <rdf:RDF>
      <cc:Work
         rdf:about="">
        <dc:format>image/svg+xml</dc:format>
        <dc:type
           rdf:resource="http://purl.org/dc/dcmitype/StillImage" />
        <dc:title />
      </cc:Work>
    </rdf:RDF>
  </metadata>
  <g
     id="layer1"
     inkscape:label="Layer 1"
     inkscape:groupmode="layer"
     transform="translate(1,67)">
    <g
       transform="matrix(2.2222224,0,0,2.2222224,-431.17316,-2196.8268)"
       id="g40072"
       inkscape:label="folder-remote" />
    <rect
       style="fill:#000000;fill-opacity:0.87843137;stroke:#ffffff;stroke-width:6;stroke-linecap:round;stroke-linejoin:round;stroke-miterlimit:4;stroke-opacity:1;stroke-dasharray:none;stroke-dashoffset:0"
       id="rect3763-5"
       width="218"
       height="124"
       x="2"
       y="-64"
       rx="2.9727273"
       ry="3" />
    <path
       style="color:#000000;fill:#ffffff;fill-opacity:1;fill-rule:nonzero;stroke:none;stroke-width:1.5;marker:none;visibility:visible;display:inline;overflow:visible;enable-background:accumulate"
       d="m 101.38462,-37 c -2.13077,0 -3.84615,1.672504 -3.84615,3.75 l 0,3.749999 -7.69231,0 C 87.71538,-29.500001 86,-27.827495 86,-25.75 l 0,3.75 50,0 0,-3.75 c 0,-2.077496 -1.71538,-3.750001 -3.84613,-3.750001 l -7.69235,0 0,-3.749999 c 0,-2.077496 -1.71538,-3.75 -3.84613,-3.75 z m 3.84615,3.75 11.53848,0 0,3.749999 -11.53848,0 z m -15.38461,15 0,35.624996 C 89.84616,20.491249 92.41923,23 95.61539,23 l 30.76928,0 c 3.19613,0 5.7692,-2.508751 5.7692,-5.625004 l 0,-35.624996 z m 9.61538,7.5 c 1.06539,0 1.92308,0.836252 1.92308,1.875003 l 0,22.499993 c 0,1.038752 -0.85769,1.875004 -1.92308,1.875004 -1.06538,0 -1.92307,-0.836252 -1.92307,-1.875004 l 0,-22.499993 c 0,-1.038751 0.85769,-1.875003 1.92307,-1.875003 z m 7.69231,0 c 1.06537,0 1.92305,0.836252 1.92305,1.875003 l 0,22.499993 c 0,1.038752 -0.85768,1.875004 -1.92305,1.875004 -1.06538,0 -1.92308,-0.836252 -1.92308,-1.875004 l 0,-22.499993 c 0,-1.038751 0.8577,-1.875003 1.92308,-1.875003 z m 7.69234,0 c 1.06538,0 1.92306,0.836252 1.92306,1.875003 l 0,22.499993 c 0,1.038752 -0.85768,1.875004 -1.92306,1.875004 -1.06538,0 -1.92307,-0.836252 -1.92307,-1.875004 l 0,-22.499993 c 0,-1.038751 0.85769,-1.875003 1.92307,-1.875003 z m 7.69226,0 c 1.06538,0 1.92307,0.836252 1.92307,1.875003 l 0,22.499993 c 0,1.038752 -0.85769,1.875004 -1.92307,1.875004 -1.06538,0 -1.92306,-0.836252 -1.92306,-1.875004 l 0,-22.499993 c 0,-1.038751 0.85768,-1.875003 1.92306,-1.875003 z"
       id="rect2993"
       inkscape:connector-curvature="0"
       sodipodi:nodetypes="sscssccsscssscccccccsscccssssssssssssssssssssssssssss" />
  </g>
</svg>
