<?xml version="1.0" encoding="UTF-8" standalone="no"?>
<svg
   xmlns:dc="http://purl.org/dc/elements/1.1/"
   xmlns:cc="http://creativecommons.org/ns#"
   xmlns:rdf="http://www.w3.org/1999/02/22-rdf-syntax-ns#"
   xmlns:svg="http://www.w3.org/2000/svg"
   xmlns="http://www.w3.org/2000/svg"
   xmlns:xlink="http://www.w3.org/1999/xlink"
   xmlns:sodipodi="http://sodipodi.sourceforge.net/DTD/sodipodi-0.dtd"
   xmlns:inkscape="http://www.inkscape.org/namespaces/inkscape"
   height="22"
   width="64"
   version="1.1"
   id="svg2"
   inkscape:version="0.48.4 r9939"
   sodipodi:docname="toggle-on-intl.svg">
  <metadata
     id="metadata82">
    <rdf:RDF>
      <cc:Work
         rdf:about="">
        <dc:format>image/svg+xml</dc:format>
        <dc:type
           rdf:resource="http://purl.org/dc/dcmitype/StillImage" />
      </cc:Work>
    </rdf:RDF>
  </metadata>
  <sodipodi:namedview
     pagecolor="#ffffff"
     bordercolor="#666666"
     borderopacity="1"
     objecttolerance="10"
     gridtolerance="10"
     guidetolerance="10"
     inkscape:pageopacity="0"
     inkscape:pageshadow="2"
     inkscape:window-width="640"
     inkscape:window-height="480"
     id="namedview80"
     showgrid="false"
     inkscape:zoom="4.734375"
     inkscape:cx="32"
     inkscape:cy="11"
     inkscape:window-x="0"
     inkscape:window-y="31"
     inkscape:window-maximized="0"
     inkscape:current-layer="g44" />
  <defs
     id="defs4">
    <filter
       id="l"
       height="1.156"
       width="1.52"
       color-interpolation-filters="sRGB"
       y="-0.078"
       x="-0.26">
      <feGaussianBlur
         stdDeviation="0.325"
         id="feGaussianBlur7" />
    </filter>
    <linearGradient
       id="a">
      <stop
         offset="0"
         id="stop10" />
      <stop
         stop-opacity=".70588"
         offset="0.6"
         id="stop12" />
      <stop
         stop-opacity="0"
         offset="1"
         id="stop14" />
    </linearGradient>
    <linearGradient
       id="b"
       stop-color="#fff">
      <stop
         offset="0"
         id="stop17" />
      <stop
         stop-opacity=".70588"
         offset="0.6"
         id="stop19" />
      <stop
         stop-opacity="0"
         offset="1"
         id="stop21" />
    </linearGradient>
    <linearGradient
       id="i"
       y2=".49999"
       gradientUnits="userSpaceOnUse"
       x2="40.812"
       gradientTransform="matrix(-1 0 0 -1 64.5 20.5)"
       y1="18.5"
       x1="40.812">
      <stop
         stop-color="#333"
         offset="0"
         id="stop24" />
      <stop
         stop-color="#555"
         offset="1"
         id="stop26" />
    </linearGradient>
    <radialGradient
       id="h"
       xlink:href="#a"
       gradientUnits="userSpaceOnUse"
       cy="11"
       cx="42.5"
       gradientTransform="matrix(11,0,0,10,-417,-99)" />
    <radialGradient
       id="g"
       xlink:href="#b"
       gradientUnits="userSpaceOnUse"
       cy="11"
       cx="42.5"
       gradientTransform="matrix(11,0,0,10,-416,-99)" />
    <radialGradient
       id="f"
       xlink:href="#a"
       gradientUnits="userSpaceOnUse"
       cy="11"
       cx="42.5"
       gradientTransform="matrix(11,0,0,10,-421,-99)" />
    <radialGradient
       id="e"
       xlink:href="#b"
       gradientUnits="userSpaceOnUse"
       cy="11"
       cx="42.5"
       gradientTransform="matrix(11,0,0,10,-420,-99)" />
    <radialGradient
       id="d"
       xlink:href="#a"
       gradientUnits="userSpaceOnUse"
       cy="11"
       cx="42.5"
       gradientTransform="matrix(11,0,0,10,-425,-99)" />
    <radialGradient
       id="c"
       xlink:href="#b"
       gradientUnits="userSpaceOnUse"
       cy="11"
       cx="42.5"
       gradientTransform="matrix(11,0,0,10,-424,-99)" />
    <linearGradient
       id="k"
       y2="28"
       stop-color="#fff"
       gradientUnits="userSpaceOnUse"
       x2="41"
       gradientTransform="translate(-2,-1)"
       y1="1"
       x1="41">
      <stop
         offset="0"
         id="stop35" />
      <stop
         stop-opacity="0"
         offset="1"
         id="stop37" />
    </linearGradient>
    <linearGradient
       id="j"
       y2="2"
       gradientUnits="userSpaceOnUse"
       x2="48"
       gradientTransform="translate(-2,-1)"
       y1="21"
       x1="48">
      <stop
         stop-color="#a0a0a0"
         offset="0"
         id="stop40" />
      <stop
         stop-color="#dcdcdc"
         offset="1"
         id="stop42" />
    </linearGradient>
  </defs>
  <g
     style="color:#000000"
     id="g44">
    <path
       d="m5 3c-1.1224 0-2 0.8776-2 2v12c0 1.1224 0.8776 2 2 2h54c1.1224 0 2-0.8776 2-2v-12c0-1.1224-0.878-2-2-2h-54z"
       fill="url(#i)"
       id="path46" />
    <path
       opacity="0.08"
       d="m5 2c-1.662 0-3 1.338-3 3v12c0 1.662 1.338 3 3 3h54c1.662 0 3-1.338 3-3v-12c0-1.662-1.338-3-3-3zm0 3h54v12h-54z"
       id="path48" />
    <path
       opacity="0.12"
       d="m5 2c-1.662 0-3 1.338-3 3v12c0 1.662 1.338 3 3 3h54c1.662 0 3-1.338 3-3v-12c0-1.662-1.338-3-3-3zm0 2h54c0.5825 0 1 0.4175 1 1v12c0 0.5825-0.4175 1-1 1h-54c-0.5825 0-1-0.418-1-1v-12c0-0.5825 0.4175-1 1-1z"
       id="path50" />
    <path
       opacity=".2"
       d="m5 2c-1.662 0-3 1.338-3 3v12c0 1.662 1.338 3 3 3h54c1.662 0 3-1.338 3-3v-12c0-1.662-1.338-3-3-3zm0 1h54c1.1174 0 2 0.88261 2 2v12c0 1.1174-0.88261 2-2 2h-54c-1.1174 0-2-0.883-2-2v-12c0-1.1174 0.8826-2 2-2z"
       fill="#fff"
       id="path52" />
    <rect
       opacity=".5"
       height="10"
       filter="url(#l)"
       width="3"
       y="6.5"
       x="15"
       id="rect54" />
    <rect
       height="10"
       width="3"
       y="6"
       x="15"
       fill="#fff"
       id="rect56"
       style="fill:#00ff00" />
    <path
       opacity=".05"
       d="m35-0.9375c-3.3342-0.084493-6.2283 3.0589-5.9375 6.3684 0.01965 4.0571-0.03992 8.1168 0.03091 12.172 0.25485 3.1387 3.3049 5.6251 6.4237 5.3343 7.9288-0.0052 15.858 0.01037 23.786-0.0078 3.2585-0.09082 5.9425-3.2203 5.634-6.4468-0.01964-4.0284 0.0399-8.0593-0.03091-12.086-0.25485-3.1387-3.3049-5.6251-6.4237-5.3343h-23.483z"
       id="path58" />
    <path
       opacity=".1"
       d="m35 0c-2.823-0.068816-5.261 2.6062-5 5.405 0.017 4.0337-0.034 8.07 0.026 12.102 0.219 2.662 2.819 4.755 5.46 4.493 7.923-0.004 15.846 0.009 23.769-0.007 2.764-0.079 5.022-2.747 4.745-5.479-0.017-4.007 0.034-8.0156-0.026-12.021-0.219-2.6624-2.819-4.7548-5.46-4.493h-23.514z"
       id="path60" />
    <path
       opacity=".2"
       d="m35 1.0312c-2.2659-0.057801-4.2002 2.1058-3.9688 4.3452 0.01352 4.0086-0.02722 8.0189 0.02069 12.026 0.17291 2.1437 2.2828 3.7975 4.3999 3.5659 7.9169-0.0035 15.834 0.0069 23.751-0.0052 2.2242-0.06114 4.0116-2.2264 3.7661-4.4153-0.01352-3.9835 0.02722-7.9687-0.02069-11.951-0.173-2.1437-2.283-3.7976-4.4-3.566h-23.548z"
       id="path62" />
    <rect
       rx="3"
       ry="3"
       height="18"
       width="30"
       y="2"
       x="32"
       fill="url(#j)"
       id="rect64" />
    <path
       opacity=".6"
       d="m35 2c-1.662 0-3 1.338-3 3v12c0 1.662 1.338 3 3 3h24c1.662 0 3-1.338 3-3v-12c0-1.662-1.338-3-3-3zm0 1h24c1.1256 0 2 0.87439 2 2v12c0 1.1256-0.87439 2-2 2h-24c-1.1256 0-2-0.87439-2-2v-12c0-1.1256 0.87439-2 2-2z"
       fill="url(#k)"
       id="path66" />
    <rect
       opacity=".4"
       height="10"
       width="1"
       y="6"
       x="43"
       fill="url(#c)"
       id="rect68" />
    <rect
       opacity=".2"
       height="10"
       width="1"
       y="6"
       x="42"
       fill="url(#d)"
       id="rect70" />
    <rect
       opacity=".4"
       height="10"
       width="1"
       y="6"
       x="47"
       fill="url(#e)"
       id="rect72" />
    <rect
       opacity=".2"
       height="10"
       width="1"
       y="6"
       x="46"
       fill="url(#f)"
       id="rect74" />
    <rect
       opacity=".4"
       height="10"
       width="1"
       y="6"
       x="51"
       fill="url(#g)"
       id="rect76" />
    <rect
       opacity=".2"
       height="10"
       width="1"
       y="6"
       x="50"
       fill="url(#h)"
       id="rect78" />
  </g>
</svg>
