<?xml version="1.0" encoding="UTF-8" standalone="no"?>
<!-- Created with Inkscape (http://www.inkscape.org/) -->

<svg
   xmlns:dc="http://purl.org/dc/elements/1.1/"
   xmlns:cc="http://creativecommons.org/ns#"
   xmlns:rdf="http://www.w3.org/1999/02/22-rdf-syntax-ns#"
   xmlns:svg="http://www.w3.org/2000/svg"
   xmlns="http://www.w3.org/2000/svg"
   xmlns:sodipodi="http://sodipodi.sourceforge.net/DTD/sodipodi-0.dtd"
   xmlns:inkscape="http://www.inkscape.org/namespaces/inkscape"
   width="41"
   height="61"
   id="svg4352"
   version="1.1"
   inkscape:version="0.91 r"
   sodipodi:docname="close.svg">
  <defs
     id="defs4354">
    <linearGradient
       id="linearGradient3921-5-9">
      <stop
         offset="0"
         style="stop-color:#bebebe;stop-opacity:1;"
         id="stop3923-6-1" />
      <stop
         offset="1"
         style="stop-color:#ffffff;stop-opacity:1;"
         id="stop3925-4-6" />
    </linearGradient>
  </defs>
  <sodipodi:namedview
     id="base"
     pagecolor="#909090"
     bordercolor="#666666"
     borderopacity="1.0"
     inkscape:pageopacity="0"
     inkscape:pageshadow="2"
     inkscape:zoom="9.4305555"
     inkscape:cx="-5.2363916"
     inkscape:cy="21.618557"
     inkscape:current-layer="layer1"
     showgrid="true"
     inkscape:document-units="px"
     inkscape:grid-bbox="true"
     inkscape:window-width="1600"
     inkscape:window-height="849"
     inkscape:window-x="0"
     inkscape:window-y="25"
     inkscape:window-maximized="1"
     fit-margin-bottom="0"
     fit-margin-top="0"
     fit-margin-left="0"
     fit-margin-right="0"
     borderlayer="true"
     inkscape:showpageshadow="false"
     inkscape:snap-bbox="true"
     inkscape:bbox-nodes="true">
    <inkscape:grid
       type="xygrid"
       id="grid4388"
       empspacing="4"
       visible="true"
       enabled="true"
       snapvisiblegridlinesonly="true"
       originx="0px"
       originy="0px" />
  </sodipodi:namedview>
  <metadata
     id="metadata4357">
    <rdf:RDF>
      <cc:Work
         rdf:about="">
        <dc:format>image/svg+xml</dc:format>
        <dc:type
           rdf:resource="http://purl.org/dc/dcmitype/StillImage" />
        <dc:title></dc:title>
      </cc:Work>
    </rdf:RDF>
  </metadata>
  <g
     id="layer1"
     inkscape:label="Layer 1"
     inkscape:groupmode="layer"
     transform="translate(-1.4773757,-2.294264)">
    <path
       style="opacity:0.07000002;fill:#2d2d2d;fill-opacity:1;fill-rule:nonzero;stroke:none"
       d="M 20.5,2 A 18.499998,18.499998 0 0 0 2,20.5 18.499998,18.499998 0 0 0 20.5,39 18.499998,18.499998 0 0 0 39,20.5 18.499998,18.499998 0 0 0 20.5,2 Z m 0,1 A 17.499998,17.499998 0 0 1 38,20.5 17.499998,17.499998 0 0 1 20.5,38 17.499998,17.499998 0 0 1 3,20.5 17.499998,17.499998 0 0 1 20.5,3 Z"
       transform="translate(1.4773757,22.294264)"
       id="circle4209"
       inkscape:connector-curvature="0" />
    <circle
       r="17.5"
       cy="42.794266"
       cx="21.977375"
       id="path3836"
       style="opacity:0.45;fill:#2d2d2d;fill-opacity:1;fill-rule:nonzero;stroke:none" />
    <circle
       r="16.5"
       cy="42.794266"
       cx="21.977375"
       id="path3766"
       style="fill:#ffffff;fill-opacity:1;fill-rule:nonzero;stroke:none" />
    <circle
       r="14.5"
       cy="42.794266"
       cx="-21.977375"
       transform="scale(-1,1)"
       id="path3797"
       style="fill:#8abf5c;fill-opacity:1;fill-rule:nonzero;stroke:none" />
    <g
       transform="matrix(0.88893521,0,0,0.88925773,-45.791566,-646.46384)"
       id="g27277-1-1"
       style="display:inline;fill:#ffffff;fill-opacity:1;stroke:none">
      <path
         d="m 71.177839,770.03365 1.26506,0 c 0.01312,-1.5e-4 0.0263,-5.8e-4 0.03953,0 0.322528,0.0142 0.645016,0.16266 0.869729,0.39533 l 2.88592,2.88592 2.925453,-2.88592 c 0.336032,-0.2916 0.565067,-0.38648 0.869729,-0.39533 l 1.265061,0 0,1.26506 c 0,0.3624 -0.04344,0.6966 -0.316265,0.94879 l -2.88592,2.88592 2.846387,2.84639 c 0.238069,0.23805 0.355788,0.57364 0.355798,0.90926 l 0,1.26506 -1.265061,0 c -0.335622,-10e-6 -0.671223,-0.11777 -0.909262,-0.35579 l -2.88592,-2.88592 -2.88592,2.88592 c -0.238039,0.23807 -0.573655,0.35579 -0.909263,0.35579 l -1.26506,0 0,-1.26506 c -4e-6,-0.3356 0.117726,-0.67121 0.355798,-0.90926 l 2.88592,-2.84639 -2.88592,-2.88592 c -0.266601,-0.24621 -0.383516,-0.59363 -0.355798,-0.94879 l 0,-1.26506 z"
         inkscape:connector-curvature="0"
         id="path27279-0-5"
         style="color:#bebebe;font-style:normal;font-variant:normal;font-weight:normal;font-stretch:normal;font-size:medium;line-height:normal;font-family:'Andale Mono';-inkscape-font-specification:'Andale Mono';text-indent:0;text-align:start;text-decoration:none;text-decoration-line:none;letter-spacing:normal;word-spacing:normal;text-transform:none;direction:ltr;block-progression:tb;writing-mode:lr-tb;text-anchor:start;display:inline;overflow:visible;visibility:visible;fill:#ffffff;fill-opacity:1;fill-rule:nonzero;stroke:none;stroke-width:1.78124988;marker:none;enable-background:new"
         sodipodi:nodetypes="ccsccccccccccccccccccccccc" />
    </g>
  </g>
</svg>
