/* XPM */
static char *close_pressed[] = {
/* columns rows colors chars-per-pixel */
"24 24 32 1 ",
"  c #2F2F2F",
". c #2E302E",
"X c #2F302F",
"o c #2D342D",
"O c #2D352D",
"+ c gray20",
"@ c gray22",
"# c #1C691C",
"$ c #1C6A1C",
"% c #1D6A1D",
"& c #197319",
"* c #1A731A",
"= c #197419",
"- c #187618",
"; c #187718",
": c #197619",
"> c #197719",
", c #274727",
"< c #264926",
"1 c #264A26",
"2 c #264B26",
"3 c #264C26",
"4 c #264D26",
"5 c #284628",
"6 c #284728",
"7 c #235323",
"8 c #235423",
"9 c #235523",
"0 c #245024",
"q c #245124",
"w c #255025",
"e c #245324",
/* pixels */
"@@@@@@@@@@@@@@@@@@@@@@@@",
"++++++++++++++++++++++++",
"                        ",
"                        ",
"                        ",
"        O9$==#8O        ",
"       ,&;;;;;;&6       ",
"      ,;;;;;;;;;;6      ",
"     O&;;*;;;;*;;*O     ",
"     9;;;.3--4X;;;8     ",
"     %;;;e 11 0;;;#     ",
"     &;;;;q  w;;;;&     ",
"     &;;;><  ,:;;;*     ",
"     $;;;2 77 2;;;#     ",
"     8;;;O9;;9O;;;7     ",
"     O&;;;;;;;;;;*o     ",
"      6;;;;;;;;;;5      ",
"       6*;;;;;;*5       ",
"        O8#&&#7o        ",
"                        ",
"                        ",
"                        ",
"                        ",
"                        "
};
