/* XPM */
static char *close_active[] = {
/* columns rows colors chars-per-pixel */
"24 24 31 1 ",
"  c #2F2F2F",
". c #2F302F",
"X c #2F312F",
"o c #2D362D",
"O c #2D372D",
"+ c #2D382D",
"@ c gray20",
"# c gray22",
"$ c #294F29",
"% c #275B27",
"& c #265C26",
"* c #275E27",
"= c #295029",
"- c #285328",
"; c #2A502A",
": c #285428",
"> c #285528",
", c #285628",
"< c #285728",
"1 c #256225",
"2 c #266026",
"3 c #266126",
"4 c #266226",
"5 c #207E20",
"6 c #217F21",
"7 c #1E8B1E",
"8 c #1E8C1E",
"9 c #1E8D1E",
"0 c #1D901D",
"q c #1D911D",
"w c #1E901E",
/* pixels */
"########################",
"@@@@@@@@@@@@@@@@@@@@@@@@",
"                        ",
"                        ",
"                        ",
"        +469953+        ",
"       $8qqqqqq8;       ",
"      $0qqqqqqqq0;      ",
"     +8qq7qqqq8qq8O     ",
"     4qqqX,00<.qqq3     ",
"     6qqq2 :: &qqq5     ",
"     8qqqq*  %qqqq8     ",
"     8qqqw-  =wqqq8     ",
"     6qqq> 22 >qqq5     ",
"     3qqq+1qq1+qqq2     ",
"     +8qqqqqqqqqq7o     ",
"      ;0qqqqqqqq0$      ",
"       ;8qqqqqq7$       ",
"        O358852o        ",
"                        ",
"                        ",
"                        ",
"                        ",
"                        "
};
