<?xml version="1.0" encoding="UTF-8" standalone="no"?>
<!-- Created with Inkscape (http://www.inkscape.org/) -->

<svg
   xmlns:dc="http://purl.org/dc/elements/1.1/"
   xmlns:cc="http://creativecommons.org/ns#"
   xmlns:rdf="http://www.w3.org/1999/02/22-rdf-syntax-ns#"
   xmlns:svg="http://www.w3.org/2000/svg"
   xmlns="http://www.w3.org/2000/svg"
   xmlns:sodipodi="http://sodipodi.sourceforge.net/DTD/sodipodi-0.dtd"
   xmlns:inkscape="http://www.inkscape.org/namespaces/inkscape"
   width="35"
   height="24"
   id="svg2"
   version="1.1"
   inkscape:version="0.91 r13725"
   sodipodi:docname="add-workspace.svg">
  <defs
     id="defs4" />
  <sodipodi:namedview
     id="base"
     pagecolor="#ffffff"
     bordercolor="#666666"
     borderopacity="1.0"
     inkscape:pageopacity="0.0"
     inkscape:pageshadow="2"
     inkscape:zoom="15.839192"
     inkscape:cx="15.4179"
     inkscape:cy="18.787494"
     inkscape:document-units="px"
     inkscape:current-layer="layer1"
     showgrid="false"
     fit-margin-top="0"
     fit-margin-left="0"
     fit-margin-right="0"
     fit-margin-bottom="0"
     inkscape:window-width="1280"
     inkscape:window-height="966"
     inkscape:window-x="0"
     inkscape:window-y="0"
     inkscape:window-maximized="1" />
  <metadata
     id="metadata7">
    <rdf:RDF>
      <cc:Work
         rdf:about="">
        <dc:format>image/svg+xml</dc:format>
        <dc:type
           rdf:resource="http://purl.org/dc/dcmitype/StillImage" />
        <dc:title />
      </cc:Work>
    </rdf:RDF>
  </metadata>
  <g
     inkscape:label="Layer 1"
     inkscape:groupmode="layer"
     id="layer1"
     transform="translate(5.6805248e-4,-1028.3437)">
    <path
       style="color:#000000;display:inline;overflow:visible;visibility:visible;fill:#161616;fill-opacity:1;fill-rule:nonzero;stroke:#000000;stroke-width:0;stroke-linejoin:round;stroke-miterlimit:4;stroke-dasharray:none;stroke-opacity:1;marker:none;enable-background:accumulate"
       d="m 8.244805,1039.703 c -0.135225,0.1366 -0.244246,0.3091 -0.244558,0.5161 l -8.101e-4,2.2261 c 3.55e-4,0.4148 0.3450701,0.7595 0.7599091,0.7599 l 6.379814,0.026 -0.0023,6.3527 c 1.41e-4,0.4153 0.344565,0.7598 0.759811,0.7599 l 2.226136,-9e-4 c 0.415247,1e-4 0.760563,-0.3452 0.760422,-0.7604 l 0.0022,-6.3526 6.352668,0 c 0.414837,3e-4 0.760775,-0.3456 0.760421,-0.7603 l 8.09e-4,-2.2262 c -2.53e-4,-0.4149 -0.34507,-0.7596 -0.759811,-0.7599 l -6.352665,0 -0.02487,-6.3798 c -1.41e-4,-0.4153 -0.344662,-0.7598 -0.759908,-0.7599 l -2.226138,8e-4 c -0.207563,0 -0.407588,0.1365 -0.543021,0.2718 -0.135435,0.1365 -0.216934,0.2815 -0.217399,0.4885 l -0.0023,6.3526 -6.352665,0 c -0.207319,-10e-5 -0.380632,0.1091 -0.515861,0.2446 z"
       id="rect2987-3"
       inkscape:connector-curvature="0" />
    <path
       style="color:#000000;display:inline;overflow:visible;visibility:visible;fill:#eae3d1;fill-opacity:1;fill-rule:nonzero;stroke:#000000;stroke-width:0;stroke-linejoin:round;stroke-miterlimit:4;stroke-dasharray:none;stroke-opacity:1;marker:none;enable-background:accumulate"
       d="m 9.2448049,1038.7031 c -0.135225,0.1366 -0.244246,0.3091 -0.244558,0.5161 l -8.1e-4,2.2261 c 3.55e-4,0.4148 0.34507,0.7595 0.759909,0.7599 l 6.3798141,0.026 -0.0023,6.3527 c 1.41e-4,0.4153 0.344565,0.7598 0.759811,0.7599 l 2.226136,-9e-4 c 0.415247,10e-5 0.760563,-0.3452 0.760422,-0.7604 l 0.0023,-6.3526 6.352668,0 c 0.414837,3e-4 0.760775,-0.3456 0.760421,-0.7603 l 8.09e-4,-2.2262 c -2.53e-4,-0.4149 -0.34507,-0.7596 -0.759811,-0.7599 l -6.352665,0 -0.02487,-6.3798 c -1.41e-4,-0.4153 -0.344662,-0.7598 -0.759908,-0.7599 l -2.226138,8e-4 c -0.207563,0 -0.407588,0.1365 -0.543021,0.2718 -0.135435,0.1365 -0.216934,0.2815 -0.217399,0.4885 l -0.0023,6.3526 -6.3526651,0 c -0.207319,-10e-5 -0.380632,0.1091 -0.515861,0.2446 z"
       id="rect2987"
       inkscape:connector-curvature="0" />
  </g>
</svg>
