<svg width="35" height="200" viewBox="0 0 35 200" fill="none" xmlns="http://www.w3.org/2000/svg">
<path d="M5 15C5 9.47715 9.47715 5 15 5H35V195H15C9.47715 195 5 190.523 5 185V15Z" fill="#6D6D6D"/>
<path opacity="0.87" d="M18 94C17.446 94 17 94.446 17 95V98C17 98.5523 16.5523 99 16 99H13C12.446 99 12 99.446 12 100C12 100.554 12.446 101 13 101H16C16.5523 101 17 101.448 17 102V105C17 105.554 17.446 106 18 106C18.554 106 19 105.554 19 105V102C19 101.448 19.4477 101 20 101H23C23.554 101 24 100.554 24 100C24 99.446 23.554 99 23 99H20C19.4477 99 19 98.5523 19 98V95C19 94.446 18.554 94 18 94ZM26 100C26 102.122 25.1571 104.157 23.6569 105.657C22.1566 107.157 20.1217 108 18 108C15.8783 108 13.8434 107.157 12.3431 105.657C10.8429 104.157 10 102.122 10 100C10 97.8783 10.8429 95.8434 12.3431 94.3431C13.8434 92.8429 15.8783 92 18 92C20.1217 92 22.1566 92.8429 23.6569 94.3431C25.1571 95.8434 26 97.8783 26 100Z" fill="white"/>
</svg>
