<svg width="24" height="24" viewBox="0 0 24 24" fill="none" xmlns="http://www.w3.org/2000/svg">
<path d="M12 2C17.5228 2 22 6.47715 22 12C22 17.5228 17.5228 22 12 22C6.47715 22 2 17.5228 2 12C2 6.47715 6.47715 2 12 2ZM16.832 7.70703C16.4415 7.31661 15.8085 7.31661 15.418 7.70703L10.2285 12.8965C10.0333 13.0917 9.71674 13.0917 9.52148 12.8965L8.08203 11.457C7.69153 11.0666 7.05847 11.0666 6.66797 11.457L6.20703 11.918C5.81661 12.3085 5.81661 12.9415 6.20703 13.332L9.16797 16.293C9.55847 16.6834 10.1915 16.6834 10.582 16.293L17.293 9.58203C17.6834 9.19153 17.6834 8.55847 17.293 8.16797L16.832 7.70703Z" fill="#0f9d58"/>
</svg>
