<svg width="26" height="26" viewBox="0 0 26 26" fill="none" xmlns="http://www.w3.org/2000/svg">
<path d="M13 24.0001C19.0752 24.0001 24.0001 19.0752 24.0001 13C24.0001 6.92484 19.0752 1.99995 13 1.99995C6.92484 1.99995 1.99995 6.92484 1.99995 13C1.99995 19.0752 6.92484 24.0001 13 24.0001Z" fill="#FF7A80"/>
<path opacity="0.87" d="M17.2426 8.75736C16.8509 8.36562 16.2202 8.36562 15.8284 8.75736L13.7071 10.8787C13.3166 11.2692 12.6834 11.2692 12.2929 10.8787L10.1716 8.75736C9.77984 8.36562 9.1491 8.36562 8.75736 8.75736C8.36562 9.1491 8.36562 9.77983 8.75736 10.1716L10.8787 12.2929C11.2692 12.6834 11.2692 13.3166 10.8787 13.7071L8.75736 15.8284C8.36562 16.2202 8.36562 16.8509 8.75736 17.2426C9.1491 17.6344 9.77984 17.6344 10.1716 17.2426L12.2929 15.1213C12.6834 14.7308 13.3166 14.7308 13.7071 15.1213L15.8284 17.2426C16.2202 17.6344 16.8509 17.6344 17.2426 17.2426C17.6344 16.8509 17.6344 16.2202 17.2426 15.8284L15.1213 13.7071C14.7308 13.3166 14.7308 12.6834 15.1213 12.2929L17.2426 10.1716C17.6344 9.77983 17.6344 9.1491 17.2426 8.75736ZM18.6569 18.6569C17.1566 20.1571 15.1217 21 13 21C10.8783 21 8.84344 20.1571 7.34315 18.6569C5.84285 17.1566 5 15.1217 5 13C5 10.8783 5.84285 8.84344 7.34315 7.34314C8.84344 5.84285 10.8783 5 13 5C15.1217 5 17.1566 5.84285 18.6569 7.34314C20.1571 8.84344 21 10.8783 21 13C21 15.1217 20.1571 17.1566 18.6569 18.6569Z" fill="white"/>
</svg>
