<svg width="400" height="120" viewBox="0 0 400 120" fill="none" xmlns="http://www.w3.org/2000/svg">
<path d="M10 40C10 23.4315 23.4315 10 40 10H360C376.569 10 390 23.4315 390 40V120H10V40Z" fill="#4D4D4D"/>
<mask id="path-2-inside-1_1_46" fill="white">
<path d="M182.292 46.5833C182.292 45.4788 183.187 44.5833 184.292 44.5833H215.708C216.813 44.5833 217.708 45.4788 217.708 46.5833V79.375C217.708 84.8978 213.231 89.375 207.708 89.375H192.292C186.769 89.375 182.292 84.8978 182.292 79.375V46.5833Z"/>
</mask>
<path d="M182.292 46.5833C182.292 45.4788 183.187 44.5833 184.292 44.5833H215.708C216.813 44.5833 217.708 45.4788 217.708 46.5833V79.375C217.708 84.8978 213.231 89.375 207.708 89.375H192.292C186.769 89.375 182.292 84.8978 182.292 79.375V46.5833Z" stroke="#D9D9D9" stroke-width="10.4" mask="url(#path-2-inside-1_1_46)"/>
<path d="M175 40.6C175 39.1641 176.164 38 177.6 38H222.4C223.836 38 225 39.1641 225 40.6V40.6C225 42.0359 223.836 43.2 222.4 43.2H177.6C176.164 43.2 175 42.0359 175 40.6V40.6Z" fill="#D9D9D9"/>
<path d="M208.333 38.3333C208.333 36.1232 207.455 34.0036 205.893 32.4408C204.33 30.878 202.21 30 200 30C197.79 30 195.67 30.878 194.107 32.4408C192.545 34.0036 191.667 36.1232 191.667 38.3333L195.906 38.3333C195.906 37.2475 196.337 36.2062 197.105 35.4384C197.873 34.6706 198.914 34.2393 200 34.2393C201.086 34.2393 202.127 34.6706 202.895 35.4384C203.663 36.2062 204.094 37.2475 204.094 38.3333H208.333Z" fill="#D9D9D9"/>
</svg>
