<?xml version="1.0" encoding="UTF-8" standalone="no"?>
<!-- Created with Inkscape (http://www.inkscape.org/) -->

<svg
   xmlns:dc="http://purl.org/dc/elements/1.1/"
   xmlns:cc="http://creativecommons.org/ns#"
   xmlns:rdf="http://www.w3.org/1999/02/22-rdf-syntax-ns#"
   xmlns:svg="http://www.w3.org/2000/svg"
   xmlns="http://www.w3.org/2000/svg"
   xmlns:sodipodi="http://sodipodi.sourceforge.net/DTD/sodipodi-0.dtd"
   xmlns:inkscape="http://www.inkscape.org/namespaces/inkscape"
   id="svg7384"
   height="61"
   width="41"
   version="1.1"
   inkscape:version="0.91 r"
   sodipodi:docname="close.svg">
  <defs
     id="defs10" />
  <sodipodi:namedview
     pagecolor="#8c8c8c"
     bordercolor="#666666"
     borderopacity="1"
     objecttolerance="10000"
     gridtolerance="10000"
     guidetolerance="10000"
     inkscape:pageopacity="1"
     inkscape:pageshadow="2"
     inkscape:window-width="1600"
     inkscape:window-height="849"
     id="namedview8"
     showgrid="true"
     inkscape:snap-bbox="true"
     inkscape:zoom="11.710378"
     inkscape:cx="7.178483"
     inkscape:cy="20.5"
     inkscape:window-x="0"
     inkscape:window-y="25"
     inkscape:window-maximized="1"
     inkscape:current-layer="svg7384"
     borderlayer="true"
     inkscape:showpageshadow="false">
    <inkscape:grid
       type="xygrid"
       id="grid3878"
       empspacing="4"
       visible="true"
       enabled="true"
       snapvisiblegridlinesonly="true" />
  </sodipodi:namedview>
  <metadata
     id="metadata90">
    <rdf:RDF>
      <cc:Work
         rdf:about="">
        <dc:format>image/svg+xml</dc:format>
        <dc:type
           rdf:resource="http://purl.org/dc/dcmitype/StillImage" />
        <dc:title></dc:title>
      </cc:Work>
    </rdf:RDF>
  </metadata>
  <circle
     id="path3836"
     style="opacity:0.2;fill:#2d2d2d;fill-opacity:1;fill-rule:nonzero;stroke:none"
     cx="20.5"
     cy="40.5"
     r="17.5" />
  <circle
     id="path3766"
     style="fill:#ffffff;fill-opacity:1;fill-rule:nonzero;stroke:none"
     cx="20.5"
     cy="40.5"
     r="16.5" />
  <circle
     transform="scale(-1,1)"
     id="path3797"
     style="fill:#d64937;fill-opacity:1;fill-rule:nonzero;stroke:none"
     cx="-20.5"
     cy="40.5"
     r="14.5" />
  <g
     transform="matrix(0.88893521,0,0,0.88925773,-47.268944,-648.7581)"
     id="g27277-1-1"
     style="display:inline;fill:#ffffff;fill-opacity:1;stroke:none">
    <path
       d="m 71.177839,770.03365 1.26506,0 c 0.01312,-1.5e-4 0.0263,-5.8e-4 0.03953,0 0.322528,0.0142 0.645016,0.16266 0.869729,0.39533 l 2.88592,2.88592 2.925453,-2.88592 c 0.336032,-0.2916 0.565067,-0.38648 0.869729,-0.39533 l 1.265061,0 0,1.26506 c 0,0.3624 -0.04344,0.6966 -0.316265,0.94879 l -2.88592,2.88592 2.846387,2.84639 c 0.238069,0.23805 0.355788,0.57364 0.355798,0.90926 l 0,1.26506 -1.265061,0 c -0.335622,-10e-6 -0.671223,-0.11777 -0.909262,-0.35579 l -2.88592,-2.88592 -2.88592,2.88592 c -0.238039,0.23807 -0.573655,0.35579 -0.909263,0.35579 l -1.26506,0 0,-1.26506 c -4e-6,-0.3356 0.117726,-0.67121 0.355798,-0.90926 l 2.88592,-2.84639 -2.88592,-2.88592 c -0.266601,-0.24621 -0.383516,-0.59363 -0.355798,-0.94879 l 0,-1.26506 z"
       inkscape:connector-curvature="0"
       id="path27279-0-5"
       style="color:#bebebe;font-style:normal;font-variant:normal;font-weight:normal;font-stretch:normal;font-size:medium;line-height:normal;font-family:'Andale Mono';-inkscape-font-specification:'Andale Mono';text-indent:0;text-align:start;text-decoration:none;text-decoration-line:none;letter-spacing:normal;word-spacing:normal;text-transform:none;direction:ltr;block-progression:tb;writing-mode:lr-tb;text-anchor:start;display:inline;overflow:visible;visibility:visible;fill:#ffffff;fill-opacity:1;fill-rule:nonzero;stroke:none;stroke-width:1.78124988;marker:none;enable-background:new"
       sodipodi:nodetypes="ccsccccccccccccccccccccccc" />
  </g>
</svg>
