<?xml version="1.0" encoding="UTF-8" standalone="no"?>
<!-- Created with Inkscape (http://www.inkscape.org/) -->

<svg
   xmlns:dc="http://purl.org/dc/elements/1.1/"
   xmlns:cc="http://creativecommons.org/ns#"
   xmlns:rdf="http://www.w3.org/1999/02/22-rdf-syntax-ns#"
   xmlns:svg="http://www.w3.org/2000/svg"
   xmlns="http://www.w3.org/2000/svg"
   xmlns:sodipodi="http://sodipodi.sourceforge.net/DTD/sodipodi-0.dtd"
   xmlns:inkscape="http://www.inkscape.org/namespaces/inkscape"
   inkscape:export-ydpi="90.000000"
   inkscape:export-xdpi="90.000000"
   width="24"
   height="24"
   id="svg11300"
   sodipodi:version="0.32"
   inkscape:version="0.91 r"
   sodipodi:docname="entry-focused.svg"
   inkscape:output_extension="org.inkscape.output.svg.inkscape"
   version="1.0"
   style="display:inline;enable-background:new">
  <sodipodi:namedview
     stroke="#ef2929"
     fill="#f57900"
     id="base"
     pagecolor="#8c8c8c"
     bordercolor="#ff5e00"
     borderopacity="1"
     inkscape:pageopacity="1"
     inkscape:pageshadow="2"
     inkscape:zoom="21.823887"
     inkscape:cx="-1.8838696"
     inkscape:cy="13.832854"
     inkscape:current-layer="layer1"
     showgrid="true"
     inkscape:grid-bbox="true"
     inkscape:document-units="px"
     inkscape:showpageshadow="false"
     inkscape:window-width="1600"
     inkscape:window-height="875"
     inkscape:window-x="-1"
     inkscape:window-y="24"
     width="400px"
     height="300px"
     inkscape:snap-nodes="true"
     inkscape:snap-bbox="true"
     gridtolerance="10000"
     inkscape:object-nodes="true"
     inkscape:snap-grids="true"
     showguides="true"
     inkscape:guide-bbox="true"
     inkscape:window-maximized="1"
     inkscape:bbox-nodes="true"
     inkscape:bbox-paths="false"
     inkscape:snap-bbox-edge-midpoints="false"
     inkscape:snap-bbox-midpoints="false"
     objecttolerance="10000"
     guidetolerance="10000"
     borderlayer="true"
     showborder="true"
     guidecolor="#ff0b00"
     guideopacity="1"
     guidehicolor="#001aff"
     guidehiopacity="0.49803922"
     inkscape:snap-smooth-nodes="true">
    <inkscape:grid
       type="xygrid"
       id="grid3123"
       empspacing="4"
       visible="true"
       enabled="true"
       snapvisiblegridlinesonly="true" />
  </sodipodi:namedview>
  <defs
     id="defs3">
    <linearGradient
       id="linearGradient3815">
      <stop
         style="stop-color:#000000;stop-opacity:1;"
         offset="0"
         id="stop3817" />
      <stop
         style="stop-color:#525252;stop-opacity:0;"
         offset="1"
         id="stop3819" />
    </linearGradient>
  </defs>
  <metadata
     id="metadata4">
    <rdf:RDF>
      <cc:Work
         rdf:about="">
        <dc:format>image/svg+xml</dc:format>
        <dc:type
           rdf:resource="http://purl.org/dc/dcmitype/StillImage" />
        <dc:creator>
          <cc:Agent>
            <dc:title />
          </cc:Agent>
        </dc:creator>
        <dc:source />
        <cc:license
           rdf:resource="" />
        <dc:title />
        <dc:subject>
          <rdf:Bag />
        </dc:subject>
        <dc:date />
        <dc:rights>
          <cc:Agent>
            <dc:title />
          </cc:Agent>
        </dc:rights>
        <dc:publisher>
          <cc:Agent>
            <dc:title />
          </cc:Agent>
        </dc:publisher>
        <dc:identifier />
        <dc:relation />
        <dc:language />
        <dc:coverage />
        <dc:description />
        <dc:contributor>
          <cc:Agent>
            <dc:title />
          </cc:Agent>
        </dc:contributor>
      </cc:Work>
      <cc:Work
         rdf:about="">
        <dc:format>image/svg+xml</dc:format>
        <dc:type
           rdf:resource="http://purl.org/dc/dcmitype/StillImage" />
      </cc:Work>
    </rdf:RDF>
  </metadata>
  <g
     style="display:inline"
     inkscape:groupmode="layer"
     inkscape:label="Base"
     id="layer1"
     transform="translate(0,-276)">
    <rect
       style="opacity:0.5;fill:#000000;fill-opacity:1;stroke:none"
       id="rect2999"
       width="22"
       height="22"
       x="1"
       y="1"
       ry="3"
       rx="3"
       transform="translate(0,276)" />
    <rect
       rx="2"
       ry="2"
       y="278"
       x="2"
       height="20"
       width="20"
       id="rect3769"
       style="fill:#232323;fill-opacity:1;stroke:none" />
    <path
       style="fill:#000000;fill-opacity:1;stroke:none;opacity:0.12"
       d="M 4 2 C 2.892 2 2 2.892 2 4 L 2 20 C 2 21.108 2.892 22 4 22 L 20 22 C 21.108 22 22 21.108 22 20 L 22 4 C 22 2.892 21.108 2 20 2 L 4 2 z M 4 3 L 20 3 C 20.554 3 21 3.446 21 4 L 21 20 C 21 20.554 20.554 21 20 21 L 4 21 C 3.446 21 3 20.554 3 20 L 3 4 C 3 3.446 3.446 3 4 3 z "
       transform="translate(0,276)"
       id="rect4772" />
    <path
       style="fill:#000000;fill-opacity:1;stroke:none;opacity:0.04"
       d="M 4 3 C 3.446 3 3 3.446 3 4 L 3 20 C 3 20.554 3.446 21 4 21 L 20 21 C 20.554 21 21 20.554 21 20 L 21 4 C 21 3.446 20.554 3 20 3 L 4 3 z M 5 4 L 19 4 C 19.554 4 20 4.446 20 5 L 20 19 C 20 19.554 19.554 20 19 20 L 5 20 C 4.446 20 4 19.554 4 19 L 4 5 C 4 4.446 4.446 4 5 4 z "
       transform="translate(0,276)"
       id="rect4777" />
  </g>
</svg>
