<?xml version="1.0" encoding="UTF-8" standalone="no"?>
<!-- Created with Inkscape (http://www.inkscape.org/) -->

<svg
   xmlns:dc="http://purl.org/dc/elements/1.1/"
   xmlns:cc="http://creativecommons.org/ns#"
   xmlns:rdf="http://www.w3.org/1999/02/22-rdf-syntax-ns#"
   xmlns:svg="http://www.w3.org/2000/svg"
   xmlns="http://www.w3.org/2000/svg"
   xmlns:xlink="http://www.w3.org/1999/xlink"
   xmlns:sodipodi="http://sodipodi.sourceforge.net/DTD/sodipodi-0.dtd"
   xmlns:inkscape="http://www.inkscape.org/namespaces/inkscape"
   id="svg5369"
   version="1.1"
   inkscape:version="0.48.4 r9939"
   width="96"
   height="48"
   sodipodi:docname="ca.svg"
   style="display:inline">
  <metadata
     id="metadata5375">
    <rdf:RDF>
      <cc:Work
         rdf:about="">
        <dc:format>image/svg+xml</dc:format>
        <dc:type
           rdf:resource="http://purl.org/dc/dcmitype/StillImage" />
        <dc:title />
      </cc:Work>
    </rdf:RDF>
  </metadata>
  <defs
     id="defs5373">
    <linearGradient
       id="linearGradient3934">
      <stop
         style="stop-color:#ffffff;stop-opacity:0.6134454;"
         offset="0"
         id="stop3936" />
      <stop
         style="stop-color:#00ccff;stop-opacity:1;"
         offset="1"
         id="stop3938" />
    </linearGradient>
    <linearGradient
       id="linearGradient3925">
      <stop
         style="stop-color:#ffffff;stop-opacity:0.51260507;"
         offset="0"
         id="stop3927" />
      <stop
         style="stop-color:#00ccff;stop-opacity:1;"
         offset="1"
         id="stop3929" />
    </linearGradient>
    <linearGradient
       id="linearGradient3836">
      <stop
         style="stop-color:#5c99ff;stop-opacity:1;"
         offset="0"
         id="stop3838" />
      <stop
         style="stop-color:#5ca7ff;stop-opacity:0;"
         offset="1"
         id="stop3840" />
    </linearGradient>
    <linearGradient
       inkscape:collect="always"
       xlink:href="#linearGradient3836"
       id="linearGradient3842"
       x1="44.525547"
       y1="48.540146"
       x2="94.358974"
       y2="50"
       gradientUnits="userSpaceOnUse" />
    <linearGradient
       inkscape:collect="always"
       xlink:href="#linearGradient3934"
       id="linearGradient3940"
       x1="11.995225"
       y1="17.72899"
       x2="17"
       y2="17.72899"
       gradientUnits="userSpaceOnUse" />
    <linearGradient
       inkscape:collect="always"
       xlink:href="#linearGradient3836"
       id="linearGradient3976"
       gradientUnits="userSpaceOnUse"
       x1="44.525547"
       y1="48.540146"
       x2="94.358974"
       y2="50" />
    <linearGradient
       inkscape:collect="always"
       xlink:href="#linearGradient3934"
       id="linearGradient3978"
       gradientUnits="userSpaceOnUse"
       x1="11.995225"
       y1="17.72899"
       x2="17"
       y2="17.72899" />
    <linearGradient
       inkscape:collect="always"
       xlink:href="#linearGradient3836"
       id="linearGradient4020"
       gradientUnits="userSpaceOnUse"
       x1="44.525547"
       y1="48.540146"
       x2="94.358974"
       y2="50" />
    <linearGradient
       inkscape:collect="always"
       xlink:href="#linearGradient3934"
       id="linearGradient4022"
       gradientUnits="userSpaceOnUse"
       x1="11.995225"
       y1="17.72899"
       x2="17"
       y2="17.72899" />
    <linearGradient
       inkscape:collect="always"
       xlink:href="#linearGradient3836"
       id="linearGradient4064"
       gradientUnits="userSpaceOnUse"
       x1="44.525547"
       y1="48.540146"
       x2="94.358974"
       y2="50" />
    <linearGradient
       inkscape:collect="always"
       xlink:href="#linearGradient3934"
       id="linearGradient4066"
       gradientUnits="userSpaceOnUse"
       x1="11.995225"
       y1="17.72899"
       x2="17"
       y2="17.72899" />
    <linearGradient
       inkscape:collect="always"
       xlink:href="#linearGradient3836"
       id="linearGradient4108"
       gradientUnits="userSpaceOnUse"
       x1="44.525547"
       y1="48.540146"
       x2="94.358974"
       y2="50" />
    <linearGradient
       inkscape:collect="always"
       xlink:href="#linearGradient3934"
       id="linearGradient4110"
       gradientUnits="userSpaceOnUse"
       x1="11.995225"
       y1="17.72899"
       x2="17"
       y2="17.72899" />
    <linearGradient
       inkscape:collect="always"
       xlink:href="#linearGradient3836"
       id="linearGradient4178"
       gradientUnits="userSpaceOnUse"
       x1="44.525547"
       y1="48.540146"
       x2="94.358974"
       y2="50" />
    <linearGradient
       inkscape:collect="always"
       xlink:href="#linearGradient3934"
       id="linearGradient4180"
       gradientUnits="userSpaceOnUse"
       x1="11.995225"
       y1="17.72899"
       x2="17"
       y2="17.72899" />
    <linearGradient
       inkscape:collect="always"
       xlink:href="#linearGradient3836"
       id="linearGradient4222"
       gradientUnits="userSpaceOnUse"
       x1="44.525547"
       y1="48.540146"
       x2="94.358974"
       y2="50" />
    <linearGradient
       inkscape:collect="always"
       xlink:href="#linearGradient3934"
       id="linearGradient4224"
       gradientUnits="userSpaceOnUse"
       x1="11.995225"
       y1="17.72899"
       x2="17"
       y2="17.72899" />
    <linearGradient
       inkscape:collect="always"
       xlink:href="#linearGradient3836"
       id="linearGradient4266"
       gradientUnits="userSpaceOnUse"
       x1="44.525547"
       y1="48.540146"
       x2="94.358974"
       y2="50" />
    <linearGradient
       inkscape:collect="always"
       xlink:href="#linearGradient3934"
       id="linearGradient4268"
       gradientUnits="userSpaceOnUse"
       x1="11.995225"
       y1="17.72899"
       x2="17"
       y2="17.72899" />
    <linearGradient
       inkscape:collect="always"
       xlink:href="#linearGradient3836"
       id="linearGradient4310"
       gradientUnits="userSpaceOnUse"
       x1="44.525547"
       y1="48.540146"
       x2="94.358974"
       y2="50" />
    <linearGradient
       inkscape:collect="always"
       xlink:href="#linearGradient3934"
       id="linearGradient4312"
       gradientUnits="userSpaceOnUse"
       x1="11.995225"
       y1="17.72899"
       x2="17"
       y2="17.72899" />
  </defs>
  <sodipodi:namedview
     pagecolor="#ffffff"
     bordercolor="#666666"
     borderopacity="1"
     objecttolerance="10"
     gridtolerance="10"
     guidetolerance="10"
     inkscape:pageopacity="0.52156863"
     inkscape:pageshadow="2"
     inkscape:window-width="1364"
     inkscape:window-height="718"
     id="namedview5371"
     showgrid="true"
     borderlayer="true"
     inkscape:showpageshadow="false"
     inkscape:zoom="8"
     inkscape:cx="48.128968"
     inkscape:cy="28.920549"
     inkscape:window-x="0"
     inkscape:window-y="24"
     inkscape:window-maximized="1"
     inkscape:current-layer="layer2">
    <inkscape:grid
       type="xygrid"
       id="grid11933"
       empspacing="5"
       visible="true"
       enabled="true"
       snapvisiblegridlinesonly="true" />
  </sodipodi:namedview>
  <g
     inkscape:groupmode="layer"
     id="layer1"
     inkscape:label="tiles"
     style="display:none">
    <rect
       style="color:#000000;fill:#000000;fill-opacity:1;fill-rule:nonzero;stroke:none;stroke-width:1;marker:none;visibility:visible;display:inline;overflow:visible;enable-background:accumulate"
       id="rect12451"
       width="24"
       height="24"
       x="0"
       y="0" />
    <rect
       y="24"
       x="0"
       height="24"
       width="24"
       id="rect12453"
       style="color:#000000;fill:#000000;fill-opacity:1;fill-rule:nonzero;stroke:none;stroke-width:1;marker:none;visibility:visible;display:inline;overflow:visible;enable-background:accumulate" />
    <rect
       y="0"
       x="24"
       height="24"
       width="24"
       id="rect12455"
       style="color:#000000;fill:#000000;fill-opacity:1;fill-rule:nonzero;stroke:none;stroke-width:1;marker:none;visibility:visible;display:inline;overflow:visible;enable-background:accumulate" />
    <rect
       style="color:#000000;fill:#000000;fill-opacity:1;fill-rule:nonzero;stroke:none;stroke-width:1;marker:none;visibility:visible;display:inline;overflow:visible;enable-background:accumulate"
       id="rect12457"
       width="24"
       height="24"
       x="24"
       y="24" />
    <rect
       style="color:#000000;fill:#000000;fill-opacity:1;fill-rule:nonzero;stroke:none;stroke-width:1;marker:none;visibility:visible;display:inline;overflow:visible;enable-background:accumulate"
       id="rect12459"
       width="24"
       height="24"
       x="48"
       y="0" />
    <rect
       y="24"
       x="48"
       height="24"
       width="24"
       id="rect12461"
       style="color:#000000;fill:#000000;fill-opacity:1;fill-rule:nonzero;stroke:none;stroke-width:1;marker:none;visibility:visible;display:inline;overflow:visible;enable-background:accumulate" />
    <rect
       y="0"
       x="72"
       height="24"
       width="24"
       id="rect12463"
       style="color:#000000;fill:#000000;fill-opacity:1;fill-rule:nonzero;stroke:none;stroke-width:1;marker:none;visibility:visible;display:inline;overflow:visible;enable-background:accumulate" />
    <rect
       style="color:#000000;fill:#000000;fill-opacity:1;fill-rule:nonzero;stroke:none;stroke-width:1;marker:none;visibility:visible;display:inline;overflow:visible;enable-background:accumulate"
       id="rect12465"
       width="24"
       height="24"
       x="72"
       y="24" />
  </g>
  <g
     inkscape:groupmode="layer"
     id="layer2"
     inkscape:label="spinner">
    <g
       id="g3942">
      <g
         id="g3891">
        <rect
           style="fill:none"
           x="3.375"
           y="3.6875"
           width="17.125"
           height="17.125"
           class="bk"
           id="rect4" />
        <circle
           style="fill:none;stroke:#008cff;stroke-width:15.1282053;stroke-linecap:round;stroke-miterlimit:4;stroke-dasharray:none"
           sodipodi:ry="40"
           sodipodi:rx="40"
           sodipodi:cy="50"
           sodipodi:cx="50"
           transform="matrix(0.17125,0,0,0.17125,3.375,3.6875)"
           cx="50"
           cy="50"
           r="40"
           id="circle6" />
        <circle
           style="fill:none;stroke:#5cffd6;stroke-width:8.71794891;stroke-linecap:round;stroke-miterlimit:4;stroke-dasharray:none"
           sodipodi:ry="40"
           sodipodi:rx="40"
           sodipodi:cy="50"
           sodipodi:cx="50"
           transform="matrix(0.17125,0,0,0.17125,3.375,3.6875)"
           cx="50"
           cy="50"
           r="40"
           id="circle8">
          <animate
             attributeName="stroke-dashoffset"
             dur="2s"
             repeatCount="indefinite"
             from="0"
             to="502"
             id="animate10" />
          <animate
             attributeName="stroke-dasharray"
             dur="2s"
             repeatCount="indefinite"
             values="150.6 100.4;1 250;150.6 100.4"
             id="animate12" />
        </circle>
        <circle
           id="circle3830"
           r="40"
           cy="50"
           cx="50"
           transform="matrix(0.17125,0,0,0.17125,3.375,3.6875)"
           sodipodi:cx="50"
           sodipodi:cy="50"
           sodipodi:rx="40"
           sodipodi:ry="40"
           style="fill:none;stroke:url(#linearGradient3842);stroke-width:8.71794891000000050;stroke-linecap:round;stroke-miterlimit:4;stroke-dasharray:none">
          <animate
             id="animate3832"
             to="502"
             from="0"
             repeatCount="indefinite"
             dur="2s"
             attributeName="stroke-dashoffset"
             style="stroke:url(#linearGradient3842)" />
          <animate
             id="animate3834"
             values="150.6 100.4;1 250;150.6 100.4"
             repeatCount="indefinite"
             dur="2s"
             attributeName="stroke-dasharray"
             style="stroke:url(#linearGradient3842)" />
        </circle>
      </g>
      <path
         sodipodi:nodetypes="ccccc"
         inkscape:connector-curvature="0"
         id="rect3923"
         d="M 11.796875,18.371414 C 14.291667,18 15.192708,17.837346 16.796875,16 L 17,18 c -1.494792,1 -3.270833,2 -5,1.801729 z"
         style="fill:url(#linearGradient3940);fill-opacity:1;stroke:none" />
    </g>
    <g
       id="g3954"
       transform="matrix(0.60548475,0.79585691,-0.79585691,0.60548475,38.458773,-4.66773)">
      <g
         id="g3956">
        <rect
           id="rect3958"
           class="bk"
           height="17.125"
           width="17.125"
           y="3.6875"
           x="3.375"
           style="fill:none" />
        <circle
           id="circle3960"
           r="40"
           cy="50"
           cx="50"
           transform="matrix(0.17125,0,0,0.17125,3.375,3.6875)"
           sodipodi:cx="50"
           sodipodi:cy="50"
           sodipodi:rx="40"
           sodipodi:ry="40"
           style="fill:none;stroke:#008cff;stroke-width:15.1282053;stroke-linecap:round;stroke-miterlimit:4;stroke-dasharray:none"
           d="M 90,50 C 90,72.09139 72.09139,90 50,90 27.90861,90 10,72.09139 10,50 10,27.90861 27.90861,10 50,10 72.09139,10 90,27.90861 90,50 z" />
        <circle
           id="circle3962"
           r="40"
           cy="50"
           cx="50"
           transform="matrix(0.17125,0,0,0.17125,3.375,3.6875)"
           sodipodi:cx="50"
           sodipodi:cy="50"
           sodipodi:rx="40"
           sodipodi:ry="40"
           style="fill:none;stroke:#5cffd6;stroke-width:8.71794891;stroke-linecap:round;stroke-miterlimit:4;stroke-dasharray:none"
           d="M 90,50 C 90,72.09139 72.09139,90 50,90 27.90861,90 10,72.09139 10,50 10,27.90861 27.90861,10 50,10 72.09139,10 90,27.90861 90,50 z">
          <animate
             id="animate3964"
             to="502"
             from="0"
             repeatCount="indefinite"
             dur="2s"
             attributeName="stroke-dashoffset" />
          <animate
             id="animate3966"
             values="150.6 100.4;1 250;150.6 100.4"
             repeatCount="indefinite"
             dur="2s"
             attributeName="stroke-dasharray" />
        </circle>
        <circle
           style="fill:none;stroke:url(#linearGradient3976);stroke-width:8.71794891;stroke-linecap:round;stroke-miterlimit:4;stroke-dasharray:none"
           sodipodi:ry="40"
           sodipodi:rx="40"
           sodipodi:cy="50"
           sodipodi:cx="50"
           transform="matrix(0.17125,0,0,0.17125,3.375,3.6875)"
           cx="50"
           cy="50"
           r="40"
           id="circle3968"
           d="M 90,50 C 90,72.09139 72.09139,90 50,90 27.90861,90 10,72.09139 10,50 10,27.90861 27.90861,10 50,10 72.09139,10 90,27.90861 90,50 z">
          <animate
             style="stroke:url(#linearGradient3842)"
             attributeName="stroke-dashoffset"
             dur="2s"
             repeatCount="indefinite"
             from="0"
             to="502"
             id="animate3970" />
          <animate
             style="stroke:url(#linearGradient3842)"
             attributeName="stroke-dasharray"
             dur="2s"
             repeatCount="indefinite"
             values="150.6 100.4;1 250;150.6 100.4"
             id="animate3972" />
        </circle>
      </g>
      <path
         style="fill:url(#linearGradient3978);fill-opacity:1;stroke:none"
         d="M 11.796875,18.371414 C 14.291667,18 15.192708,17.837346 16.796875,16 L 17,18 c -1.494792,1 -3.270833,2 -5,1.801729 z"
         id="path3974"
         inkscape:connector-curvature="0"
         sodipodi:nodetypes="ccccc" />
    </g>
    <g
       transform="matrix(-0.14698838,0.98913822,-0.98913822,-0.14698838,73.809117,2.2427702)"
       id="g3998">
      <g
         id="g4000">
        <rect
           style="fill:none"
           x="3.375"
           y="3.6875"
           width="17.125"
           height="17.125"
           class="bk"
           id="rect4002" />
        <circle
           d="M 90,50 C 90,72.09139 72.09139,90 50,90 27.90861,90 10,72.09139 10,50 10,27.90861 27.90861,10 50,10 72.09139,10 90,27.90861 90,50 z"
           style="fill:none;stroke:#008cff;stroke-width:15.1282053;stroke-linecap:round;stroke-miterlimit:4;stroke-dasharray:none"
           sodipodi:ry="40"
           sodipodi:rx="40"
           sodipodi:cy="50"
           sodipodi:cx="50"
           transform="matrix(0.17125,0,0,0.17125,3.375,3.6875)"
           cx="50"
           cy="50"
           r="40"
           id="circle4004" />
        <circle
           d="M 90,50 C 90,72.09139 72.09139,90 50,90 27.90861,90 10,72.09139 10,50 10,27.90861 27.90861,10 50,10 72.09139,10 90,27.90861 90,50 z"
           style="fill:none;stroke:#5cffd6;stroke-width:8.71794891;stroke-linecap:round;stroke-miterlimit:4;stroke-dasharray:none"
           sodipodi:ry="40"
           sodipodi:rx="40"
           sodipodi:cy="50"
           sodipodi:cx="50"
           transform="matrix(0.17125,0,0,0.17125,3.375,3.6875)"
           cx="50"
           cy="50"
           r="40"
           id="circle4006">
          <animate
             attributeName="stroke-dashoffset"
             dur="2s"
             repeatCount="indefinite"
             from="0"
             to="502"
             id="animate4008" />
          <animate
             attributeName="stroke-dasharray"
             dur="2s"
             repeatCount="indefinite"
             values="150.6 100.4;1 250;150.6 100.4"
             id="animate4010" />
        </circle>
        <circle
           d="M 90,50 C 90,72.09139 72.09139,90 50,90 27.90861,90 10,72.09139 10,50 10,27.90861 27.90861,10 50,10 72.09139,10 90,27.90861 90,50 z"
           id="circle4012"
           r="40"
           cy="50"
           cx="50"
           transform="matrix(0.17125,0,0,0.17125,3.375,3.6875)"
           sodipodi:cx="50"
           sodipodi:cy="50"
           sodipodi:rx="40"
           sodipodi:ry="40"
           style="fill:none;stroke:url(#linearGradient4020);stroke-width:8.71794891;stroke-linecap:round;stroke-miterlimit:4;stroke-dasharray:none">
          <animate
             id="animate4014"
             to="502"
             from="0"
             repeatCount="indefinite"
             dur="2s"
             attributeName="stroke-dashoffset"
             style="stroke:url(#linearGradient3842)" />
          <animate
             id="animate4016"
             values="150.6 100.4;1 250;150.6 100.4"
             repeatCount="indefinite"
             dur="2s"
             attributeName="stroke-dasharray"
             style="stroke:url(#linearGradient3842)" />
        </circle>
      </g>
      <path
         sodipodi:nodetypes="ccccc"
         inkscape:connector-curvature="0"
         id="path4018"
         d="M 11.796875,18.371414 C 14.291667,18 15.192708,17.837346 16.796875,16 L 17,18 c -1.494792,1 -3.270833,2 -5,1.801729 z"
         style="fill:url(#linearGradient4022);fill-opacity:1;stroke:none" />
    </g>
    <g
       id="g4042"
       transform="matrix(-0.83349577,0.55252584,-0.55252584,-0.83349577,100.6558,15.864546)">
      <g
         id="g4044">
        <rect
           id="rect4046"
           class="bk"
           height="17.125"
           width="17.125"
           y="3.6875"
           x="3.375"
           style="fill:none" />
        <circle
           id="circle4048"
           r="40"
           cy="50"
           cx="50"
           transform="matrix(0.17125,0,0,0.17125,3.375,3.6875)"
           sodipodi:cx="50"
           sodipodi:cy="50"
           sodipodi:rx="40"
           sodipodi:ry="40"
           style="fill:none;stroke:#008cff;stroke-width:15.1282053;stroke-linecap:round;stroke-miterlimit:4;stroke-dasharray:none"
           d="M 90,50 C 90,72.09139 72.09139,90 50,90 27.90861,90 10,72.09139 10,50 10,27.90861 27.90861,10 50,10 72.09139,10 90,27.90861 90,50 z" />
        <circle
           id="circle4050"
           r="40"
           cy="50"
           cx="50"
           transform="matrix(0.17125,0,0,0.17125,3.375,3.6875)"
           sodipodi:cx="50"
           sodipodi:cy="50"
           sodipodi:rx="40"
           sodipodi:ry="40"
           style="fill:none;stroke:#5cffd6;stroke-width:8.71794891;stroke-linecap:round;stroke-miterlimit:4;stroke-dasharray:none"
           d="M 90,50 C 90,72.09139 72.09139,90 50,90 27.90861,90 10,72.09139 10,50 10,27.90861 27.90861,10 50,10 72.09139,10 90,27.90861 90,50 z">
          <animate
             id="animate4052"
             to="502"
             from="0"
             repeatCount="indefinite"
             dur="2s"
             attributeName="stroke-dashoffset" />
          <animate
             id="animate4054"
             values="150.6 100.4;1 250;150.6 100.4"
             repeatCount="indefinite"
             dur="2s"
             attributeName="stroke-dasharray" />
        </circle>
        <circle
           style="fill:none;stroke:url(#linearGradient4064);stroke-width:8.71794891;stroke-linecap:round;stroke-miterlimit:4;stroke-dasharray:none"
           sodipodi:ry="40"
           sodipodi:rx="40"
           sodipodi:cy="50"
           sodipodi:cx="50"
           transform="matrix(0.17125,0,0,0.17125,3.375,3.6875)"
           cx="50"
           cy="50"
           r="40"
           id="circle4056"
           d="M 90,50 C 90,72.09139 72.09139,90 50,90 27.90861,90 10,72.09139 10,50 10,27.90861 27.90861,10 50,10 72.09139,10 90,27.90861 90,50 z">
          <animate
             style="stroke:url(#linearGradient3842)"
             attributeName="stroke-dashoffset"
             dur="2s"
             repeatCount="indefinite"
             from="0"
             to="502"
             id="animate4058" />
          <animate
             style="stroke:url(#linearGradient3842)"
             attributeName="stroke-dasharray"
             dur="2s"
             repeatCount="indefinite"
             values="150.6 100.4;1 250;150.6 100.4"
             id="animate4060" />
        </circle>
      </g>
      <path
         style="fill:url(#linearGradient4066);fill-opacity:1;stroke:none"
         d="M 11.796875,18.371414 C 14.291667,18 15.192708,17.837346 16.796875,16 L 17,18 c -1.494792,1 -3.270833,2 -5,1.801729 z"
         id="path4062"
         inkscape:connector-curvature="0"
         sodipodi:nodetypes="ccccc" />
    </g>
    <g
       id="g4086">
      <g
         id="g4088">
        <rect
           id="rect4090"
           class="bk"
           height="17.125"
           width="17.125"
           y="3.6875"
           x="3.375"
           style="fill:none" />
        <circle
           id="circle4092"
           r="40"
           cy="50"
           cx="50"
           transform="matrix(0.17125,0,0,0.17125,3.375,3.6875)"
           sodipodi:cx="50"
           sodipodi:cy="50"
           sodipodi:rx="40"
           sodipodi:ry="40"
           style="fill:none;stroke:#008cff;stroke-width:15.1282053;stroke-linecap:round;stroke-miterlimit:4;stroke-dasharray:none"
           d="M 90,50 C 90,72.09139 72.09139,90 50,90 27.90861,90 10,72.09139 10,50 10,27.90861 27.90861,10 50,10 72.09139,10 90,27.90861 90,50 z" />
        <circle
           id="circle4094"
           r="40"
           cy="50"
           cx="50"
           transform="matrix(0.17125,0,0,0.17125,3.375,3.6875)"
           sodipodi:cx="50"
           sodipodi:cy="50"
           sodipodi:rx="40"
           sodipodi:ry="40"
           style="fill:none;stroke:#5cffd6;stroke-width:8.71794891;stroke-linecap:round;stroke-miterlimit:4;stroke-dasharray:none"
           d="M 90,50 C 90,72.09139 72.09139,90 50,90 27.90861,90 10,72.09139 10,50 10,27.90861 27.90861,10 50,10 72.09139,10 90,27.90861 90,50 z">
          <animate
             id="animate4096"
             to="502"
             from="0"
             repeatCount="indefinite"
             dur="2s"
             attributeName="stroke-dashoffset" />
          <animate
             id="animate4098"
             values="150.6 100.4;1 250;150.6 100.4"
             repeatCount="indefinite"
             dur="2s"
             attributeName="stroke-dasharray" />
        </circle>
        <circle
           style="fill:none;stroke:url(#linearGradient4108);stroke-width:8.71794891;stroke-linecap:round;stroke-miterlimit:4;stroke-dasharray:none"
           sodipodi:ry="40"
           sodipodi:rx="40"
           sodipodi:cy="50"
           sodipodi:cx="50"
           transform="matrix(0.17125,0,0,0.17125,3.375,3.6875)"
           cx="50"
           cy="50"
           r="40"
           id="circle4100"
           d="M 90,50 C 90,72.09139 72.09139,90 50,90 27.90861,90 10,72.09139 10,50 10,27.90861 27.90861,10 50,10 72.09139,10 90,27.90861 90,50 z">
          <animate
             style="stroke:url(#linearGradient3842)"
             attributeName="stroke-dashoffset"
             dur="2s"
             repeatCount="indefinite"
             from="0"
             to="502"
             id="animate4102" />
          <animate
             style="stroke:url(#linearGradient3842)"
             attributeName="stroke-dasharray"
             dur="2s"
             repeatCount="indefinite"
             values="150.6 100.4;1 250;150.6 100.4"
             id="animate4104" />
        </circle>
      </g>
      <path
         style="fill:url(#linearGradient4110);fill-opacity:1;stroke:none"
         d="M 11.796875,18.371414 C 14.291667,18 15.192708,17.837346 16.796875,16 L 17,18 c -1.494792,1 -3.270833,2 -5,1.801729 z"
         id="path4106"
         inkscape:connector-curvature="0"
         sodipodi:nodetypes="ccccc" />
    </g>
    <g
       transform="matrix(-1,0,0,-1,23.875,48.5)"
       id="g4156">
      <g
         id="g4158">
        <rect
           style="fill:none"
           x="3.375"
           y="3.6875"
           width="17.125"
           height="17.125"
           class="bk"
           id="rect4160" />
        <circle
           d="M 90,50 C 90,72.09139 72.09139,90 50,90 27.90861,90 10,72.09139 10,50 10,27.90861 27.90861,10 50,10 72.09139,10 90,27.90861 90,50 z"
           style="fill:none;stroke:#008cff;stroke-width:15.1282053;stroke-linecap:round;stroke-miterlimit:4;stroke-dasharray:none"
           sodipodi:ry="40"
           sodipodi:rx="40"
           sodipodi:cy="50"
           sodipodi:cx="50"
           transform="matrix(0.17125,0,0,0.17125,3.375,3.6875)"
           cx="50"
           cy="50"
           r="40"
           id="circle4162" />
        <circle
           d="M 90,50 C 90,72.09139 72.09139,90 50,90 27.90861,90 10,72.09139 10,50 10,27.90861 27.90861,10 50,10 72.09139,10 90,27.90861 90,50 z"
           style="fill:none;stroke:#5cffd6;stroke-width:8.71794891;stroke-linecap:round;stroke-miterlimit:4;stroke-dasharray:none"
           sodipodi:ry="40"
           sodipodi:rx="40"
           sodipodi:cy="50"
           sodipodi:cx="50"
           transform="matrix(0.17125,0,0,0.17125,3.375,3.6875)"
           cx="50"
           cy="50"
           r="40"
           id="circle4164">
          <animate
             attributeName="stroke-dashoffset"
             dur="2s"
             repeatCount="indefinite"
             from="0"
             to="502"
             id="animate4166" />
          <animate
             attributeName="stroke-dasharray"
             dur="2s"
             repeatCount="indefinite"
             values="150.6 100.4;1 250;150.6 100.4"
             id="animate4168" />
        </circle>
        <circle
           d="M 90,50 C 90,72.09139 72.09139,90 50,90 27.90861,90 10,72.09139 10,50 10,27.90861 27.90861,10 50,10 72.09139,10 90,27.90861 90,50 z"
           id="circle4170"
           r="40"
           cy="50"
           cx="50"
           transform="matrix(0.17125,0,0,0.17125,3.375,3.6875)"
           sodipodi:cx="50"
           sodipodi:cy="50"
           sodipodi:rx="40"
           sodipodi:ry="40"
           style="fill:none;stroke:url(#linearGradient4178);stroke-width:8.71794891;stroke-linecap:round;stroke-miterlimit:4;stroke-dasharray:none">
          <animate
             id="animate4172"
             to="502"
             from="0"
             repeatCount="indefinite"
             dur="2s"
             attributeName="stroke-dashoffset"
             style="stroke:url(#linearGradient3842)" />
          <animate
             id="animate4174"
             values="150.6 100.4;1 250;150.6 100.4"
             repeatCount="indefinite"
             dur="2s"
             attributeName="stroke-dasharray"
             style="stroke:url(#linearGradient3842)" />
        </circle>
      </g>
      <path
         sodipodi:nodetypes="ccccc"
         inkscape:connector-curvature="0"
         id="path4176"
         d="M 11.796875,18.371414 C 14.291667,18 15.192708,17.837346 16.796875,16 L 17,18 c -1.494792,1 -3.270833,2 -5,1.801729 z"
         style="fill:url(#linearGradient4180);fill-opacity:1;stroke:none" />
    </g>
    <g
       id="g4200"
       transform="matrix(-0.63896323,-0.76923728,0.76923728,-0.63896323,34.141967,53.26007)">
      <g
         id="g4202">
        <rect
           id="rect4204"
           class="bk"
           height="17.125"
           width="17.125"
           y="3.6875"
           x="3.375"
           style="fill:none" />
        <circle
           id="circle4206"
           r="40"
           cy="50"
           cx="50"
           transform="matrix(0.17125,0,0,0.17125,3.375,3.6875)"
           sodipodi:cx="50"
           sodipodi:cy="50"
           sodipodi:rx="40"
           sodipodi:ry="40"
           style="fill:none;stroke:#008cff;stroke-width:15.1282053;stroke-linecap:round;stroke-miterlimit:4;stroke-dasharray:none"
           d="M 90,50 C 90,72.09139 72.09139,90 50,90 27.90861,90 10,72.09139 10,50 10,27.90861 27.90861,10 50,10 72.09139,10 90,27.90861 90,50 z" />
        <circle
           id="circle4208"
           r="40"
           cy="50"
           cx="50"
           transform="matrix(0.17125,0,0,0.17125,3.375,3.6875)"
           sodipodi:cx="50"
           sodipodi:cy="50"
           sodipodi:rx="40"
           sodipodi:ry="40"
           style="fill:none;stroke:#5cffd6;stroke-width:8.71794891;stroke-linecap:round;stroke-miterlimit:4;stroke-dasharray:none"
           d="M 90,50 C 90,72.09139 72.09139,90 50,90 27.90861,90 10,72.09139 10,50 10,27.90861 27.90861,10 50,10 72.09139,10 90,27.90861 90,50 z">
          <animate
             id="animate4210"
             to="502"
             from="0"
             repeatCount="indefinite"
             dur="2s"
             attributeName="stroke-dashoffset" />
          <animate
             id="animate4212"
             values="150.6 100.4;1 250;150.6 100.4"
             repeatCount="indefinite"
             dur="2s"
             attributeName="stroke-dasharray" />
        </circle>
        <circle
           style="fill:none;stroke:url(#linearGradient4222);stroke-width:8.71794891;stroke-linecap:round;stroke-miterlimit:4;stroke-dasharray:none"
           sodipodi:ry="40"
           sodipodi:rx="40"
           sodipodi:cy="50"
           sodipodi:cx="50"
           transform="matrix(0.17125,0,0,0.17125,3.375,3.6875)"
           cx="50"
           cy="50"
           r="40"
           id="circle4214"
           d="M 90,50 C 90,72.09139 72.09139,90 50,90 27.90861,90 10,72.09139 10,50 10,27.90861 27.90861,10 50,10 72.09139,10 90,27.90861 90,50 z">
          <animate
             style="stroke:url(#linearGradient3842)"
             attributeName="stroke-dashoffset"
             dur="2s"
             repeatCount="indefinite"
             from="0"
             to="502"
             id="animate4216" />
          <animate
             style="stroke:url(#linearGradient3842)"
             attributeName="stroke-dasharray"
             dur="2s"
             repeatCount="indefinite"
             values="150.6 100.4;1 250;150.6 100.4"
             id="animate4218" />
        </circle>
      </g>
      <path
         style="fill:url(#linearGradient4224);fill-opacity:1;stroke:none"
         d="M 11.796875,18.371414 C 14.291667,18 15.192708,17.837346 16.796875,16 L 17,18 c -1.494792,1 -3.270833,2 -5,1.801729 z"
         id="path4220"
         inkscape:connector-curvature="0"
         sodipodi:nodetypes="ccccc" />
    </g>
    <g
       transform="matrix(0.0967188,-0.99531175,0.99531175,0.0967188,46.590351,46.946729)"
       id="g4244">
      <g
         id="g4246">
        <rect
           style="fill:none"
           x="3.375"
           y="3.6875"
           width="17.125"
           height="17.125"
           class="bk"
           id="rect4248" />
        <circle
           d="M 90,50 C 90,72.09139 72.09139,90 50,90 27.90861,90 10,72.09139 10,50 10,27.90861 27.90861,10 50,10 72.09139,10 90,27.90861 90,50 z"
           style="fill:none;stroke:#008cff;stroke-width:15.1282053;stroke-linecap:round;stroke-miterlimit:4;stroke-dasharray:none"
           sodipodi:ry="40"
           sodipodi:rx="40"
           sodipodi:cy="50"
           sodipodi:cx="50"
           transform="matrix(0.17125,0,0,0.17125,3.375,3.6875)"
           cx="50"
           cy="50"
           r="40"
           id="circle4250" />
        <circle
           d="M 90,50 C 90,72.09139 72.09139,90 50,90 27.90861,90 10,72.09139 10,50 10,27.90861 27.90861,10 50,10 72.09139,10 90,27.90861 90,50 z"
           style="fill:none;stroke:#5cffd6;stroke-width:8.71794891;stroke-linecap:round;stroke-miterlimit:4;stroke-dasharray:none"
           sodipodi:ry="40"
           sodipodi:rx="40"
           sodipodi:cy="50"
           sodipodi:cx="50"
           transform="matrix(0.17125,0,0,0.17125,3.375,3.6875)"
           cx="50"
           cy="50"
           r="40"
           id="circle4252">
          <animate
             attributeName="stroke-dashoffset"
             dur="2s"
             repeatCount="indefinite"
             from="0"
             to="502"
             id="animate4254" />
          <animate
             attributeName="stroke-dasharray"
             dur="2s"
             repeatCount="indefinite"
             values="150.6 100.4;1 250;150.6 100.4"
             id="animate4256" />
        </circle>
        <circle
           d="M 90,50 C 90,72.09139 72.09139,90 50,90 27.90861,90 10,72.09139 10,50 10,27.90861 27.90861,10 50,10 72.09139,10 90,27.90861 90,50 z"
           id="circle4258"
           r="40"
           cy="50"
           cx="50"
           transform="matrix(0.17125,0,0,0.17125,3.375,3.6875)"
           sodipodi:cx="50"
           sodipodi:cy="50"
           sodipodi:rx="40"
           sodipodi:ry="40"
           style="fill:none;stroke:url(#linearGradient4266);stroke-width:8.71794891;stroke-linecap:round;stroke-miterlimit:4;stroke-dasharray:none">
          <animate
             id="animate4260"
             to="502"
             from="0"
             repeatCount="indefinite"
             dur="2s"
             attributeName="stroke-dashoffset"
             style="stroke:url(#linearGradient3842)" />
          <animate
             id="animate4262"
             values="150.6 100.4;1 250;150.6 100.4"
             repeatCount="indefinite"
             dur="2s"
             attributeName="stroke-dasharray"
             style="stroke:url(#linearGradient3842)" />
        </circle>
      </g>
      <path
         sodipodi:nodetypes="ccccc"
         inkscape:connector-curvature="0"
         id="path4264"
         d="M 11.796875,18.371414 C 14.291667,18 15.192708,17.837346 16.796875,16 L 17,18 c -1.494792,1 -3.270833,2 -5,1.801729 z"
         style="fill:url(#linearGradient4268);fill-opacity:1;stroke:none" />
    </g>
    <g
       id="g4288"
       transform="matrix(0.764094,-0.64510493,0.64510493,0.764094,66.913593,34.590789)">
      <g
         id="g4290">
        <rect
           id="rect4292"
           class="bk"
           height="17.125"
           width="17.125"
           y="3.6875"
           x="3.375"
           style="fill:none" />
        <circle
           id="circle4294"
           r="40"
           cy="50"
           cx="50"
           transform="matrix(0.17125,0,0,0.17125,3.375,3.6875)"
           sodipodi:cx="50"
           sodipodi:cy="50"
           sodipodi:rx="40"
           sodipodi:ry="40"
           style="fill:none;stroke:#008cff;stroke-width:15.1282053;stroke-linecap:round;stroke-miterlimit:4;stroke-dasharray:none"
           d="M 90,50 C 90,72.09139 72.09139,90 50,90 27.90861,90 10,72.09139 10,50 10,27.90861 27.90861,10 50,10 72.09139,10 90,27.90861 90,50 z" />
        <circle
           id="circle4296"
           r="40"
           cy="50"
           cx="50"
           transform="matrix(0.17125,0,0,0.17125,3.375,3.6875)"
           sodipodi:cx="50"
           sodipodi:cy="50"
           sodipodi:rx="40"
           sodipodi:ry="40"
           style="fill:none;stroke:#5cffd6;stroke-width:8.71794891;stroke-linecap:round;stroke-miterlimit:4;stroke-dasharray:none"
           d="M 90,50 C 90,72.09139 72.09139,90 50,90 27.90861,90 10,72.09139 10,50 10,27.90861 27.90861,10 50,10 72.09139,10 90,27.90861 90,50 z">
          <animate
             id="animate4298"
             to="502"
             from="0"
             repeatCount="indefinite"
             dur="2s"
             attributeName="stroke-dashoffset" />
          <animate
             id="animate4300"
             values="150.6 100.4;1 250;150.6 100.4"
             repeatCount="indefinite"
             dur="2s"
             attributeName="stroke-dasharray" />
        </circle>
        <circle
           style="fill:none;stroke:url(#linearGradient4310);stroke-width:8.71794891;stroke-linecap:round;stroke-miterlimit:4;stroke-dasharray:none"
           sodipodi:ry="40"
           sodipodi:rx="40"
           sodipodi:cy="50"
           sodipodi:cx="50"
           transform="matrix(0.17125,0,0,0.17125,3.375,3.6875)"
           cx="50"
           cy="50"
           r="40"
           id="circle4302"
           d="M 90,50 C 90,72.09139 72.09139,90 50,90 27.90861,90 10,72.09139 10,50 10,27.90861 27.90861,10 50,10 72.09139,10 90,27.90861 90,50 z">
          <animate
             style="stroke:url(#linearGradient3842)"
             attributeName="stroke-dashoffset"
             dur="2s"
             repeatCount="indefinite"
             from="0"
             to="502"
             id="animate4304" />
          <animate
             style="stroke:url(#linearGradient3842)"
             attributeName="stroke-dasharray"
             dur="2s"
             repeatCount="indefinite"
             values="150.6 100.4;1 250;150.6 100.4"
             id="animate4306" />
        </circle>
      </g>
      <path
         style="fill:url(#linearGradient4312);fill-opacity:1;stroke:none"
         d="M 11.796875,18.371414 C 14.291667,18 15.192708,17.837346 16.796875,16 L 17,18 c -1.494792,1 -3.270833,2 -5,1.801729 z"
         id="path4308"
         inkscape:connector-curvature="0"
         sodipodi:nodetypes="ccccc" />
    </g>
  </g>
</svg>
