/* XPM */
static char *close_pressed[] = {
/* columns rows colors chars-per-pixel */
"24 24 36 1 ",
"  c #2F2F2F",
". c #302F30",
"X c #312F30",
"o c #382F32",
"O c gray20",
"+ c #393033",
"@ c gray22",
"# c #54313D",
"$ c #55313D",
"% c #55323E",
"& c #59313F",
"* c #5A313F",
"= c #5A323F",
"- c #5B3240",
"; c #5C3240",
": c #5E3241",
"> c #633243",
", c #653344",
"< c #683244",
"1 c #683344",
"2 c #683245",
"3 c #693345",
"4 c #6B3245",
"5 c #6A3345",
"6 c #6A3346",
"7 c #8A3451",
"8 c #8B3552",
"9 c #8C3552",
"0 c #9B3557",
"q c #9B3558",
"w c #9B3658",
"e c #9C3658",
"r c #9F365A",
"t c #A03659",
"y c #A0365A",
"u c #A1365A",
/* pixels */
"@@@@@@@@@@@@@@@@@@@@@@@@",
"OOOOOOOOOOOOOOOOOOOOOOOO",
"                        ",
"                        ",
"                        ",
"        +69ee85+        ",
"       $0uuuuuu0%       ",
"      $yuuuuuuuuy%      ",
"     +0uuwuuuuwuuwo     ",
"     6uuuX;tt:.uuu3     ",
"     9uuu1 *= >uuu8     ",
"     0uuuu,  >uuuu0     ",
"     0uuuy&  $ruuuw     ",
"     9uuu; << -uuu8     ",
"     5uuu+4uu4+uuu2     ",
"     +0uuuuuuuuuuwo     ",
"      %yuuuuuuuuy#      ",
"       %wuuuuuuw#       ",
"        o37qq72o        ",
"                        ",
"                        ",
"                        ",
"                        ",
"                        "
};
