/* XPM */
static char *close_active[] = {
/* columns rows colors chars-per-pixel */
"24 24 39 1 ",
"  c #2F2F2F",
". c #322F30",
"X c #313030",
"o c gray20",
"O c #3A3034",
"+ c #3B3034",
"@ c #3C3134",
"# c gray22",
"$ c #5F3543",
"% c #603543",
"& c #613544",
"* c #603644",
"= c #663646",
"- c #673646",
"; c #683647",
": c #693747",
"> c #693748",
", c #6C3748",
"< c #72384B",
"1 c #73384B",
"2 c #76384D",
"3 c #79384E",
"4 c #78394E",
"5 c #7A384E",
"6 c #7A394F",
"7 c #7B394F",
"8 c #7C394F",
"9 c #A63E61",
"0 c #A73E61",
"q c #A73F61",
"w c #A83F62",
"e c #BB4169",
"r c #BB416A",
"t c #BC416A",
"y c #BD416A",
"u c #C1416C",
"i c #C1426C",
"p c #C2426D",
"a c #C3426D",
/* pixels */
"########################",
"oooooooooooooooooooooooo",
"                        ",
"                        ",
"                        ",
"        @8qyy07@        ",
"       %eaaaaaae*       ",
"      %paaaaaaaap*      ",
"     @eaaraaaaraar+     ",
"     8aaa.>uu,Xaaa6     ",
"     waaa4 =- 1aaa0     ",
"     eaaaa2  <aaaae     ",
"     eaaap=  &iaaar     ",
"     qaaa: 33 ;aaa0     ",
"     7aaa@8aa8@aaa5     ",
"     @eaaaaaaaaaarO     ",
"      *paaaaaaaap$      ",
"       *raaaaaar$       ",
"        +69tt95O        ",
"                        ",
"                        ",
"                        ",
"                        ",
"                        "
};
