<?xml version="1.0" encoding="UTF-8" standalone="no"?>
<svg
   xmlns:dc="http://purl.org/dc/elements/1.1/"
   xmlns:cc="http://creativecommons.org/ns#"
   xmlns:rdf="http://www.w3.org/1999/02/22-rdf-syntax-ns#"
   xmlns:svg="http://www.w3.org/2000/svg"
   xmlns="http://www.w3.org/2000/svg"
   xmlns:sodipodi="http://sodipodi.sourceforge.net/DTD/sodipodi-0.dtd"
   xmlns:inkscape="http://www.inkscape.org/namespaces/inkscape"
   height="32"
   width="32"
   version="1.1"
   id="svg2"
   inkscape:version="0.91 r13725"
   sodipodi:docname="close-window.svg">
  <metadata
     id="metadata29">
    <rdf:RDF>
      <cc:Work
         rdf:about="">
        <dc:format>image/svg+xml</dc:format>
        <dc:type
           rdf:resource="http://purl.org/dc/dcmitype/StillImage" />
      </cc:Work>
    </rdf:RDF>
  </metadata>
  <sodipodi:namedview
     pagecolor="#ffffff"
     bordercolor="#666666"
     borderopacity="1"
     objecttolerance="10"
     gridtolerance="10"
     guidetolerance="10"
     inkscape:pageopacity="0"
     inkscape:pageshadow="2"
     inkscape:window-width="1366"
     inkscape:window-height="719"
     id="namedview27"
     showgrid="false"
     inkscape:zoom="3.6875"
     inkscape:cx="-50.642741"
     inkscape:cy="9.6113962"
     inkscape:window-x="0"
     inkscape:window-y="0"
     inkscape:window-maximized="1"
     inkscape:current-layer="g17" />
  <defs
     id="defs4">
    <filter
       id="c"
       height="1.4181"
       width="1.4198"
       color-interpolation-filters="sRGB"
       y="-.20904"
       x="-.20990">
      <feGaussianBlur
         stdDeviation="1.3282637"
         id="feGaussianBlur7" />
    </filter>
    <filter
       id="b"
       height="1.4261"
       width="1.426"
       color-interpolation-filters="sRGB"
       y="-.21306"
       x="-.21298">
      <feGaussianBlur
         stdDeviation="0.71020915"
         id="feGaussianBlur10" />
    </filter>
    <radialGradient
       id="d"
       gradientUnits="userSpaceOnUse"
       cy="5.8191"
       cx="7.6583"
       gradientTransform="matrix(1.4402 0 0 1.4461 4.971 2.8359)"
       r="8.6929">
      <stop
         stop-color="#7b7b7b"
         offset="0"
         id="stop13" />
      <stop
         stop-color="#101010"
         offset="1"
         id="stop15" />
    </radialGradient>
  </defs>
  <g
     style="color:#000000;fill:#ff0000"
     id="g17">
    <path
       opacity=".52994"
       d="m11.636 3.6364c-3.7571-0.0751-7.2534 2.8802-7.8442 6.5836-0.72166 3.6336 1.4565 7.5565 4.9238 8.8611 3.362 1.3998 7.5537 0.08449 9.5273-2.9723 2.173-3.101 1.679-7.6992-1.11-10.263-1.46-1.4086-3.468-2.2196-5.497-2.2096z"
       transform="scale(1.375)"
       filter="url(#c)"
       stroke="#000"
       stroke-width="2.1818"
       id="path19"
       style="fill:#ff0000" />
    <path
       d="m5.0521 14.585c0-6.0748 4.9022-11 10.948-11 6.0463 0 10.948 4.9252 10.948 11s-4.9021 11-10.948 11c-6.0463 0-10.948-4.9252-10.948-11z"
       id="path21"
       style="fill:#ff0000;stroke:#ff0000;stroke-opacity:1"
       stroke-width="2"
       stroke="#eeeeec"
       fill="url(#d)" />
  </g>
  <path
     d="m12.002 11.993v1c-0.02191 0.28075 0.07051 0.55537 0.28125 0.75l2.2812 2.2812-2.2812 2.25c-0.18819 0.18817-0.28125 0.45346-0.28125 0.71875v1h1c0.26529 0 0.53059-0.0931 0.71875-0.28125l2.281-2.29 2.281 2.29c0.18816 0.18815 0.45345 0.28124 0.71875 0.28125h1v-1c-0.000008-0.2653-0.09306-0.53058-0.28125-0.71875l-2.25-2.25 2.2812-2.2812c0.21566-0.19935 0.25-0.46353 0.25-0.75v-1h-1c-0.24083 0.007-0.42188 0.082-0.6875 0.3125l-2.3125 2.2812-2.282-2.28c-0.17763-0.18392-0.43255-0.3013-0.6875-0.3125-0.01046-0.00046-0.02088-0.00012-0.03125 0h-1z"
     id="path23"
     filter="url(#b)" />
  <path
     d="m12.002 10.626h1c0.01031-0.00012 0.02079-0.000459 0.03125 0 0.25495 0.01121 0.50986 0.12858 0.6875 0.3125l2.2811 2.2811 2.3125-2.2811c0.26562-0.2305 0.44667-0.3055 0.6875-0.3125h1v1c0 0.28647-0.03435 0.55065-0.25 0.74999l-2.2811 2.2811 2.25 2.25c0.18818 0.18817 0.28124 0.45345 0.28124 0.71875v1h-1c-0.26529-0.000011-0.53058-0.0931-0.71874-0.28124l-2.2798-2.2798-2.2818 2.2811c-0.18824 0.18838-0.45348 0.2805-0.71885 0.2805h-0.9999v-1c-0.000003-0.26529 0.09306-0.53058 0.28124-0.71875l2.2811-2.2495-2.2811-2.2811c-0.21079-0.19456-0.30319-0.46915-0.28119-0.74992v-1z"
     fill="#fff"
     id="path25" />
</svg>
