<?xml version="1.0" encoding="UTF-8" standalone="no"?>
<!-- Created with Inkscape (http://www.inkscape.org/) -->

<svg
   xmlns:dc="http://purl.org/dc/elements/1.1/"
   xmlns:cc="http://creativecommons.org/ns#"
   xmlns:rdf="http://www.w3.org/1999/02/22-rdf-syntax-ns#"
   xmlns:svg="http://www.w3.org/2000/svg"
   xmlns="http://www.w3.org/2000/svg"
   xmlns:sodipodi="http://sodipodi.sourceforge.net/DTD/sodipodi-0.dtd"
   xmlns:inkscape="http://www.inkscape.org/namespaces/inkscape"
   width="96"
   height="96"
   viewBox="0 0 25.399999 25.400001"
   version="1.1"
   id="svg8"
   inkscape:version="0.92.2 (5c3e80d, 2017-08-06)"
   sodipodi:docname="linuxmint-logo-5.svg">
  <defs
     id="defs2">
    <linearGradient
       id="linearGradient3312-5">
      <stop
         id="stop3314-1"
         offset="0"
         style="stop-color:#c7f994;stop-opacity:1;" />
      <stop
         id="stop3316-5"
         offset="1"
         style="stop-color:#87cf3e;stop-opacity:1;" />
    </linearGradient>
    <linearGradient
       id="linearGradient3431-1">
      <stop
         style="stop-color:#3d3d3d;stop-opacity:1;"
         offset="0"
         id="stop3433-7" />
      <stop
         style="stop-color:#000000;stop-opacity:0.11400651;"
         offset="1"
         id="stop3435-4" />
    </linearGradient>
  </defs>
  <sodipodi:namedview
     id="base"
     pagecolor="#ffffff"
     bordercolor="#666666"
     borderopacity="1.0"
     inkscape:pageopacity="0.0"
     inkscape:pageshadow="2"
     inkscape:zoom="5.6"
     inkscape:cx="1.3510614"
     inkscape:cy="83.435084"
     inkscape:document-units="mm"
     inkscape:current-layer="layer1"
     showgrid="false"
     inkscape:pagecheckerboard="true"
     units="px"
     inkscape:window-width="2560"
     inkscape:window-height="1387"
     inkscape:window-x="0"
     inkscape:window-y="0"
     inkscape:window-maximized="1" />
  <metadata
     id="metadata5">
    <rdf:RDF>
      <cc:Work
         rdf:about="">
        <dc:format>image/svg+xml</dc:format>
        <dc:type
           rdf:resource="http://purl.org/dc/dcmitype/StillImage" />
        <dc:title></dc:title>
      </cc:Work>
    </rdf:RDF>
  </metadata>
  <g
     inkscape:label="Calque 1"
     inkscape:groupmode="layer"
     id="layer1"
     transform="translate(0,-271.59998)">
    <g
       id="g4824-3-4-8"
       transform="matrix(0.12954909,0,0,0.12954909,-63.02904,208.85549)">
      <g
         id="g5159">
        <path
           inkscape:connector-curvature="0"
           sodipodi:nodetypes="cccccccsccccc"
           id="path2576-0-3-7-4-8"
           d="m 671.90956,642.97352 c 0,-25.20809 0,-84.67388 0,-84.67388 0,-28.28854 -24.808,-51.21991 -55.41715,-51.21991 h -31.76933 v -0.0683 L 498.79913,506.636 v 30.8947 c 0,0 7.01578,0 13.18985,0 9.20682,0 10.8333,6.35563 10.8333,15.15255 l 0.0683,54.61836 c 0,28.28856 24.8081,51.21988 55.38309,51.21988 h 75.48956 c 9.67782,0 18.14635,-6.12887 18.14635,-15.548 z"
           style="display:inline;opacity:1;fill:#87cf3e;fill-opacity:1;fill-rule:evenodd;stroke-width:1.12712526" />
        <path
           inkscape:connector-curvature="0"
           id="path4130-3-5-3-4"
           d="m 593.22371,539.24079 c -6.88894,0 -13.00997,2.55763 -17.92811,7.5258 -4.91569,4.9655 -7.49672,11.16456 -7.49671,18.16039 v 35.36244 h 16.03945 v -35.36244 c 0,-2.6814 0.87492,-4.77806 2.78944,-6.71202 1.92081,-1.94016 3.95484,-2.81847 6.59593,-2.81847 2.69644,0 4.69995,0.87389 6.62497,2.81847 1.91453,1.93396 2.78947,4.03062 2.78947,6.71202 v 35.36244 h 16.03942 v -35.36244 c 0,-2.6814 0.87495,-4.77806 2.78949,-6.71202 1.92501,-1.94458 3.92852,-2.81847 6.62501,-2.81847 2.6411,0 4.67509,0.87831 6.59587,2.81847 1.91453,1.93396 2.78948,4.03062 2.78948,6.71202 l 0.0871,41.31923 c 0,8.81416 -8.39387,16.2427 -19.17757,16.2427 l -47.21279,-0.20335 c -8.32178,0 -15.42925,-8.09995 -15.42925,-18.50929 v -77.80995 h -15.16768 v 80.80276 c 0,8.57315 3.13713,16.09118 9.24011,22.17054 5.21636,5.14887 11.48976,8.48646 18.53831,9.24026 l 53.08233,-1.3e-4 c 8.84969,0 16.62455,-3.29059 22.89687,-9.67619 h 0.0291 c 5.33454,-5.48079 8.45314,-12.048 9.21103,-19.43889 l -0.058,-44.13769 c 0,-6.99583 -2.58095,-13.19489 -7.49671,-18.16039 -4.91808,-4.96817 -11.03916,-7.5258 -17.92807,-7.5258 -6.76206,0 -12.67887,2.5145 -17.46325,7.11891 -4.7704,-4.59683 -10.64586,-7.11891 -17.40512,-7.11891 z"
           style="display:inline;overflow:visible;visibility:visible;fill:#ffffff;fill-opacity:1;fill-rule:evenodd;stroke:none;stroke-width:1.12712526;marker:none;enable-background:accumulate"
           sodipodi:nodetypes="ssccccsssccccssscccccccccccccccssccs" />
        <path
           id="path4210-8-6-5-7-3"
           style="display:inline;overflow:visible;visibility:visible;fill:#ffffff;fill-opacity:1;fill-rule:evenodd;stroke:none;stroke-width:1.12712526;marker:none;enable-background:accumulate"
           d="m 577.77171,670.2471 c -36.45888,0 -68.09808,-27.63927 -68.09808,-64.06549 l -0.0327,-44.22927 V 550.67389 H 486.5263 v -56.19662 l 97.47492,0.45904 30.49168,0.0656 c 36.49165,0 68.09808,27.60638 68.09808,64.0653 V 670.24709 H 577.77177 v 0 0 z m 89.96674,-29.82397 c 0,-24.22031 0,-81.35591 0,-81.35591 0,-27.18004 -23.83588,-49.21283 -53.2456,-49.21283 h -30.52444 v -0.0656 l -82.55696,-0.36074 v 26.39336 c 0,0 3.31589,0 9.24802,0 6.27863,0 13.83375,5.9003 13.83375,14.55879 l 0.0656,55.76887 c 0,27.18005 23.83599,49.21281 53.21289,49.21281 h 72.53146 c 9.29857,0 17.43527,-5.88872 17.43527,-14.93876 z"
           sodipodi:nodetypes="ccccccccccccccccccccsccccc"
           inkscape:connector-curvature="0" />
      </g>
    </g>
  </g>
</svg>
