/* XPM */
static char *close_pressed[] = {
/* columns rows colors chars-per-pixel */
"24 24 35 1 ",
"  c #702D86",
". c #712E86",
"X c #712F87",
"o c #743489",
"O c #75358A",
"+ c #75368A",
"@ c #76378B",
"# c #834D95",
"$ c #844E96",
"% c #854F97",
"& c #A380AE",
"* c #A381AE",
"= c #A481AF",
"- c #A482AF",
"; c #B6A0BE",
": c #B7A1BE",
"> c #BA9AC5",
", c #BC9CC6",
"< c #BFA0C8",
"1 c #BFA1C9",
"2 c #C0A3CA",
"3 c #C2A5CB",
"4 c #C2A6CC",
"5 c #C3A7CC",
"6 c #C6ABCF",
"7 c #C6ACCF",
"8 c #C9AFD1",
"9 c #D0CAD2",
"0 c #D0CBD2",
"q c #D1CCD3",
"w c gray85",
"e c #EEEEEE",
"r c #FCFAFC",
"t c #FDFCFD",
"y c white",
/* pixels */
"eeeeeeeeeeeeeeeeeeeeeeee",
"wwwwwwwwwwwwwwwwwwwwwwww",
"wwwwwwwwwwwwwwwwwwwwwwww",
"wwwwwwwwwwwwwwwwwwwwwwww",
"wwwwwwwwwwwwwwwwwwwwwwww",
"wwwwwwww9&$oo$=9wwwwwwww",
"wwwwwww;+      +:wwwwwww",
"wwwwww;.        .:wwwwww",
"wwwww9+          @0wwwww",
"wwwww&   r,  >t   *wwwww",
"wwwww#   3y1<y7   $wwwww",
"wwwwwO   .5yy8X   +wwwww",
"wwwww+   .2yy6.   @wwwww",
"wwwww$   <y44y1   $wwwww",
"wwwww=   r1..1r   -wwwww",
"wwwww9+          @qwwwww",
"wwwwww:.        .:wwwwww",
"wwwwwww:@      @:wwwwwww",
"wwwwwwww0*%OO%-qwwwwwwww",
"wwwwwwwwwwwwwwwwwwwwwwww",
"wwwwwwwwwwwwwwwwwwwwwwww",
"wwwwwwwwwwwwwwwwwwwwwwww",
"wwwwwwwwwwwwwwwwwwwwwwww",
"wwwwwwwwwwwwwwwwwwwwwwww"
};
