/* XPM */
static char *close_prelight[] = {
/* columns rows colors chars-per-pixel */
"24 24 41 1 ",
"  c #B366CC",
". c #B367CC",
"X c #B568CC",
"o c #B469CD",
"O c #B46BCC",
"+ c #B56BCC",
"@ c #B56ACE",
"# c #B56CCD",
"$ c #B56DCD",
"% c #BA7BCE",
"& c #BA7CCF",
"* c #BB7CCF",
"= c #BB7DCF",
"- c #B974D0",
"; c #B976D0",
": c #C59ED2",
"> c #C69FD2",
", c #C69ED3",
"< c #CDB3D5",
"1 c #CDB4D5",
"2 c #D5CFD8",
"3 c #D6CFD8",
"4 c #D6D0D8",
"5 c gray85",
"6 c #DEC8E4",
"7 c #DFCBE6",
"8 c #DFCCE6",
"9 c #E0CFE7",
"0 c #E2D1E8",
"q c #E2D2E8",
"w c #E5D8E9",
"e c #E6DAEA",
"r c #E6DBEA",
"t c #E7DBEA",
"y c #E7DCEB",
"u c #E8DDEB",
"i c #E9E0ED",
"p c #EEEEEE",
"a c #F5F5F7",
"s c #F7F7F8",
"d c #F8F8F9",
/* pixels */
"pppppppppppppppppppppppp",
"555555555555555555555555",
"555555555555555555555555",
"555555555555555555555555",
"555555555555555555555555",
"555555552,&OO*,255555555",
"5555555<#      #15555555",
"555555<.        .1555555",
"555552#  ;    -  #355555",
"55555,   seXXwd   :55555",
"55555%   8dyyd0   *55555",
"55555#    9ddq    #55555",
"55555#   @uddio   #55555",
"55555&   rd77dt   *55555",
"55555,   a6  6a   >55555",
"555552#          $455555",
"5555551.        .1555555",
"55555551#      $15555555",
"555555553:=++=>455555555",
"555555555555555555555555",
"555555555555555555555555",
"555555555555555555555555",
"555555555555555555555555",
"555555555555555555555555"
};
