/* XPM */
static char * bottom_right_active_xpm[] = {
"4 4 2 1",
" 	c None",
".	c #0D151D",
"....",
"....",
"... ",
"..  "};
