/* XPM */
static char * bottom_left_inactive_xpm[] = {
"17 4 3 1",
" 	c None",
".	c #9F440D",
"+	c #0D151D",
"................+",
"................+",
" ...............+",
"  ..............+"};
