/* XPM */
static char * hide_active_xpm[] = {
"13 13 13 1",
" 	c #0D151D",
".	c #0E171F",
"+	c #101A24",
"@	c #111B25",
"#	c #0D151C",
"$	c #0C141B",
"%	c #101922",
"&	c #0C131B",
"*	c #5E6E7D",
"=	c #5A6A79",
"-	c #556574",
";	c #516170",
">	c #0D161E",
"             ",
" .+@@@@@@@+. ",
" +@@@@@@@@@+#",
" @@@@@@@@@@@$",
" @@+%+@+%+@@&",
" @@%*%+%*%@@&",
" @@%==%==%@@&",
" @@+%---%+@@&",
" @@@+%;%+@@@&",
" @@@@+%+@@@@&",
" +@@@@@@@@@+&",
" .+@@@@@@@+>$",
"  #$&&&&&&&$#"};
