/* XPM */
static char * shade_toggled_prelight_xpm[] = {
"13 13 10 1",
" 	c #0D151D",
".	c #492816",
"+	c #95410E",
"@	c #9F440D",
"#	c #16181C",
"$	c #9D430D",
"%	c #271D1A",
"&	c #ABADB0",
"*	c #412617",
"=	c #8A3D0F",
"             ",
" .+@@@@@@@+. ",
"#$@@@@@@@@@$#",
"%@@@@@@@@@@@%",
"%@@@@@@@@@@@%",
"%@@@&&&&&@@@%",
"%@@@&&&&&@@@%",
"%@@@@&&&@@@@%",
"%@@@@@&@@@@@%",
"%@@@@@@@@@@@%",
"#$@@@@@@@@@$#",
" *=@@@@@@@=* ",
"             "};
