/* XPM */
static char * stick_toggled_active_xpm[] = {
"13 13 2 1",
" 	c #0D151D",
".	c #ABADB0",
"             ",
"             ",
"             ",
"             ",
"     ...     ",
"    .....    ",
"    .....    ",
"    .....    ",
"     ...     ",
"             ",
"             ",
"             ",
"             "};
