<?xml version="1.0" encoding="UTF-8" standalone="no"?>
<!-- Created with Inkscape (http://www.inkscape.org/) -->

<svg
   xmlns:dc="http://purl.org/dc/elements/1.1/"
   xmlns:cc="http://creativecommons.org/ns#"
   xmlns:rdf="http://www.w3.org/1999/02/22-rdf-syntax-ns#"
   xmlns:svg="http://www.w3.org/2000/svg"
   xmlns="http://www.w3.org/2000/svg"
   xmlns:xlink="http://www.w3.org/1999/xlink"
   xmlns:sodipodi="http://sodipodi.sourceforge.net/DTD/sodipodi-0.dtd"
   xmlns:inkscape="http://www.inkscape.org/namespaces/inkscape"
   width="150"
   height="149.99998"
   id="svg3097"
   version="1.1"
   inkscape:version="0.48.5 r10040"
   sodipodi:docname="corner-ripple.svg">
  <defs
     id="defs3099">
    <radialGradient
       inkscape:collect="always"
       xlink:href="#linearGradient3761-7"
       id="radialGradient3767-7"
       cx="0"
       cy="4"
       fx="0"
       fy="4"
       r="48"
       gradientUnits="userSpaceOnUse" />
    <linearGradient
       id="linearGradient3761-7">
      <stop
         style="stop-color:#ea703f;stop-opacity:0;"
         offset="0"
         id="stop3763-69" />
      <stop
         style="stop-color:#ea703f;stop-opacity:0.72388059;"
         offset="1"
         id="stop3765-0" />
    </linearGradient>
    <clipPath
       clipPathUnits="userSpaceOnUse"
       id="clipPath3785-94">
      <path
         style="opacity:0.1;color:#000000;fill:#ff00ff;fill-opacity:1;fill-rule:nonzero;stroke:none;stroke-width:1.5;marker:none;visibility:visible;display:inline;overflow:visible;enable-background:accumulate"
         d="m -52.000002,-48.00003 0,104 104,0 0,-104 -104,0 z m 52.00000024,4 c 26.50966776,0 47.99999976,21.490332 47.99999976,48 0,26.509668 -21.490332,48 -47.99999976,48 -26.50966824,0 -48.00000024,-21.490332 -48.00000024,-48 0,-26.509668 21.490332,-48 48.00000024,-48 z"
         id="path3787-4"
         inkscape:connector-curvature="0" />
    </clipPath>
    <filter
       inkscape:collect="always"
       id="filter3789-0"
       color-interpolation-filters="sRGB">
      <feGaussianBlur
         inkscape:collect="always"
         stdDeviation="2.4"
         id="feGaussianBlur3791-4" />
    </filter>
    <radialGradient
       inkscape:collect="always"
       xlink:href="#linearGradient3761-3"
       id="radialGradient3767-1"
       cx="0"
       cy="4"
       fx="0"
       fy="4"
       r="48"
       gradientUnits="userSpaceOnUse" />
    <linearGradient
       id="linearGradient3761-3">
      <stop
         style="stop-color:#ea703f;stop-opacity:0;"
         offset="0"
         id="stop3763-6" />
      <stop
         style="stop-color:#ea703f;stop-opacity:0.72388059;"
         offset="1"
         id="stop3765-9" />
    </linearGradient>
    <clipPath
       clipPathUnits="userSpaceOnUse"
       id="clipPath3785-1">
      <path
         style="opacity:0.1;color:#000000;fill:#ff00ff;fill-opacity:1;fill-rule:nonzero;stroke:none;stroke-width:1.5;marker:none;visibility:visible;display:inline;overflow:visible;enable-background:accumulate"
         d="m -52.000002,-48.00003 0,104 104,0 0,-104 -104,0 z m 52.00000024,4 c 26.50966776,0 47.99999976,21.490332 47.99999976,48 0,26.509668 -21.490332,48 -47.99999976,48 -26.50966824,0 -48.00000024,-21.490332 -48.00000024,-48 0,-26.509668 21.490332,-48 48.00000024,-48 z"
         id="path3787-5"
         inkscape:connector-curvature="0" />
    </clipPath>
    <filter
       inkscape:collect="always"
       id="filter3789-7"
       color-interpolation-filters="sRGB">
      <feGaussianBlur
         inkscape:collect="always"
         stdDeviation="2.4"
         id="feGaussianBlur3791-9" />
    </filter>
    <radialGradient
       inkscape:collect="always"
       xlink:href="#linearGradient3761-4"
       id="radialGradient3767-4"
       cx="0"
       cy="4"
       fx="0"
       fy="4"
       r="48"
       gradientUnits="userSpaceOnUse" />
    <linearGradient
       id="linearGradient3761-4">
      <stop
         style="stop-color:#ea703f;stop-opacity:0;"
         offset="0"
         id="stop3763-3" />
      <stop
         style="stop-color:#ea703f;stop-opacity:0.72388059;"
         offset="1"
         id="stop3765-3" />
    </linearGradient>
    <clipPath
       clipPathUnits="userSpaceOnUse"
       id="clipPath3785-9">
      <path
         style="opacity:0.1;color:#000000;fill:#ff00ff;fill-opacity:1;fill-rule:nonzero;stroke:none;stroke-width:1.5;marker:none;visibility:visible;display:inline;overflow:visible;enable-background:accumulate"
         d="m -52.000002,-48.00003 0,104 104,0 0,-104 -104,0 z m 52.00000024,4 c 26.50966776,0 47.99999976,21.490332 47.99999976,48 0,26.509668 -21.490332,48 -47.99999976,48 -26.50966824,0 -48.00000024,-21.490332 -48.00000024,-48 0,-26.509668 21.490332,-48 48.00000024,-48 z"
         id="path3787-0"
         inkscape:connector-curvature="0" />
    </clipPath>
    <filter
       inkscape:collect="always"
       id="filter3789-2"
       color-interpolation-filters="sRGB">
      <feGaussianBlur
         inkscape:collect="always"
         stdDeviation="2.4"
         id="feGaussianBlur3791-3" />
    </filter>
    <radialGradient
       inkscape:collect="always"
       xlink:href="#linearGradient3761"
       id="radialGradient3767"
       cx="0"
       cy="4"
       fx="0"
       fy="4"
       r="48"
       gradientUnits="userSpaceOnUse" />
    <linearGradient
       id="linearGradient3761">
      <stop
         style="stop-color:#ea703f;stop-opacity:0;"
         offset="0"
         id="stop3763" />
      <stop
         style="stop-color:#ea703f;stop-opacity:0.72388059;"
         offset="1"
         id="stop3765" />
    </linearGradient>
    <clipPath
       clipPathUnits="userSpaceOnUse"
       id="clipPath3785">
      <path
         style="opacity:0.1;color:#000000;fill:#ff00ff;fill-opacity:1;fill-rule:nonzero;stroke:none;stroke-width:1.5;marker:none;visibility:visible;display:inline;overflow:visible;enable-background:accumulate"
         d="m -52.000002,-48.00003 0,104 104,0 0,-104 -104,0 z m 52.00000024,4 c 26.50966776,0 47.99999976,21.490332 47.99999976,48 0,26.509668 -21.490332,48 -47.99999976,48 -26.50966824,0 -48.00000024,-21.490332 -48.00000024,-48 0,-26.509668 21.490332,-48 48.00000024,-48 z"
         id="path3787"
         inkscape:connector-curvature="0" />
    </clipPath>
    <filter
       inkscape:collect="always"
       id="filter3789"
       color-interpolation-filters="sRGB">
      <feGaussianBlur
         inkscape:collect="always"
         stdDeviation="2.4"
         id="feGaussianBlur3791" />
    </filter>
  </defs>
  <sodipodi:namedview
     id="base"
     pagecolor="#ffffff"
     bordercolor="#666666"
     borderopacity="1.0"
     inkscape:pageopacity="0.0"
     inkscape:pageshadow="2"
     inkscape:zoom="2"
     inkscape:cx="135.88133"
     inkscape:cy="112.31196"
     inkscape:document-units="px"
     inkscape:current-layer="layer1"
     showgrid="false"
     inkscape:snap-grids="true"
     inkscape:window-width="1280"
     inkscape:window-height="970"
     inkscape:window-x="0"
     inkscape:window-y="0"
     inkscape:window-maximized="1"
     fit-margin-top="0"
     fit-margin-left="0"
     fit-margin-right="0"
     fit-margin-bottom="0" />
  <metadata
     id="metadata3102">
    <rdf:RDF>
      <cc:Work
         rdf:about="">
        <dc:format>image/svg+xml</dc:format>
        <dc:type
           rdf:resource="http://purl.org/dc/dcmitype/StillImage" />
        <dc:title />
      </cc:Work>
    </rdf:RDF>
  </metadata>
  <g
     inkscape:label="Layer 1"
     inkscape:groupmode="layer"
     id="layer1"
     transform="translate(1.6230772e-7,-902.3622)">
    <path
       transform="matrix(0.72115386,0,0,0.72115386,37.500002,936.97761)"
       d="M 48,4 C 48,30.509668 26.509668,52 0,52 -26.509668,52 -48,30.509668 -48,4 c 0,-26.509668 21.490332,-48 48,-48 26.509668,0 48,21.490332 48,48 z"
       sodipodi:ry="48"
       sodipodi:rx="48"
       sodipodi:cy="4"
       sodipodi:cx="0"
       id="path3783"
       style="opacity:0.2;color:#000000;fill:#000000;fill-opacity:1;fill-rule:nonzero;stroke:none;stroke-width:1.5;marker:none;visibility:visible;display:inline;overflow:visible;filter:url(#filter3789);enable-background:accumulate"
       sodipodi:type="arc"
       clip-path="url(#clipPath3785)" />
    <path
       sodipodi:type="arc"
       style="color:#000000;fill:url(#radialGradient3767);fill-opacity:1;fill-rule:nonzero;stroke:none;stroke-width:1.5;marker:none;visibility:visible;display:inline;overflow:visible;enable-background:accumulate"
       id="path3759"
       sodipodi:cx="0"
       sodipodi:cy="4"
       sodipodi:rx="48"
       sodipodi:ry="48"
       d="M 48,4 C 48,30.509668 26.509668,52 0,52 -26.509668,52 -48,30.509668 -48,4 c 0,-26.509668 21.490332,-48 48,-48 26.509668,0 48,21.490332 48,48 z"
       transform="matrix(0.72115386,0,0,0.72115386,37.500002,936.97759)" />
    <path
       style="opacity:0.31174089;color:#000000;fill:#ea703f;fill-opacity:1;fill-rule:nonzero;stroke:none;stroke-width:1.5;marker:none;visibility:visible;display:inline;overflow:visible;enable-background:accumulate"
       d="m 37.500002,905.24681 c -19.117551,0 -34.6153852,15.49784 -34.6153852,34.61539 0,19.11757 15.4978342,34.61539 34.6153852,34.61539 19.117551,0 34.615384,-15.49782 34.615384,-34.61539 0,-19.11755 -15.497833,-34.61539 -34.615384,-34.61539 z m 0,0.72116 c 18.719264,0 33.89423,15.17497 33.89423,33.89423 0,18.71928 -15.174966,33.89423 -33.89423,33.89423 -18.719265,0 -33.8942313,-15.17495 -33.8942313,-33.89423 0,-18.71926 15.1749663,-33.89423 33.8942313,-33.89423 z"
       id="path3769"
       inkscape:connector-curvature="0" />
    <rect
       style="opacity:0;color:#000000;fill:none;stroke:none;stroke-width:1.5;marker:none;visibility:visible;display:inline;overflow:visible;enable-background:accumulate"
       id="rect3793"
       width="37.5"
       height="37.5"
       x="18.75001"
       y="921.11224"
       inkscape:export-filename="/home/matthieu/.themes/MyDwaita/gnome-shell/corner-ripple-ltr.png"
       inkscape:export-xdpi="90"
       inkscape:export-ydpi="90" />
    <rect
       y="921.11224"
       x="18.75001"
       height="37.5"
       width="37.5"
       id="rect3795"
       style="opacity:0;color:#000000;fill:none;stroke:none;stroke-width:1.5;marker:none;visibility:visible;display:inline;overflow:visible;enable-background:accumulate"
       inkscape:export-filename="/home/matthieu/.themes/MyDwaita/gnome-shell/corner-ripple-rtl.png"
       inkscape:export-xdpi="90"
       inkscape:export-ydpi="90" />
    <path
       transform="matrix(0.72115386,0,0,0.72115386,112.5,936.97761)"
       d="M 48,4 C 48,30.509668 26.509668,52 0,52 -26.509668,52 -48,30.509668 -48,4 c 0,-26.509668 21.490332,-48 48,-48 26.509668,0 48,21.490332 48,48 z"
       sodipodi:ry="48"
       sodipodi:rx="48"
       sodipodi:cy="4"
       sodipodi:cx="0"
       id="path3783-0"
       style="opacity:0.2;color:#000000;fill:#000000;fill-opacity:1;fill-rule:nonzero;stroke:none;stroke-width:1.5;marker:none;visibility:visible;display:inline;overflow:visible;filter:url(#filter3789-2);enable-background:accumulate"
       sodipodi:type="arc"
       clip-path="url(#clipPath3785-9)" />
    <path
       sodipodi:type="arc"
       style="color:#000000;fill:url(#radialGradient3767-4);fill-opacity:1;fill-rule:nonzero;stroke:none;stroke-width:1.5;marker:none;visibility:visible;display:inline;overflow:visible;enable-background:accumulate"
       id="path3759-3"
       sodipodi:cx="0"
       sodipodi:cy="4"
       sodipodi:rx="48"
       sodipodi:ry="48"
       d="M 48,4 C 48,30.509668 26.509668,52 0,52 -26.509668,52 -48,30.509668 -48,4 c 0,-26.509668 21.490332,-48 48,-48 26.509668,0 48,21.490332 48,48 z"
       transform="matrix(0.72115386,0,0,0.72115386,112.5,936.97761)" />
    <path
       style="opacity:0.31174089;color:#000000;fill:#ea703f;fill-opacity:1;fill-rule:nonzero;stroke:none;stroke-width:1.5;marker:none;visibility:visible;display:inline;overflow:visible;enable-background:accumulate"
       d="m 112.5,905.24684 c -19.117549,0 -34.615383,15.49781 -34.615383,34.61536 0,19.11757 15.497834,34.61539 34.615383,34.61539 19.11756,0 34.61539,-15.49782 34.61539,-34.61539 0,-19.11755 -15.49783,-34.61536 -34.61539,-34.61536 z m 0,0.72115 c 18.71927,0 33.89424,15.17495 33.89424,33.89421 0,18.71928 -15.17497,33.89423 -33.89424,33.89423 -18.719259,0 -33.894229,-15.17495 -33.894229,-33.89423 0,-18.71926 15.17497,-33.89421 33.894229,-33.89421 z"
       id="path3769-2"
       inkscape:connector-curvature="0" />
    <rect
       style="opacity:0;color:#000000;fill:none;stroke:none;stroke-width:1.5;marker:none;visibility:visible;display:inline;overflow:visible;enable-background:accumulate"
       id="rect3793-1"
       width="37.5"
       height="37.5"
       x="93.750183"
       y="921.11206"
       inkscape:export-filename="/home/matthieu/.themes/MyDwaita/gnome-shell/corner-ripple-ltr.png"
       inkscape:export-xdpi="90"
       inkscape:export-ydpi="90" />
    <rect
       y="921.11206"
       x="93.750183"
       height="37.5"
       width="37.5"
       id="rect3795-9"
       style="opacity:0;color:#000000;fill:none;stroke:none;stroke-width:1.5;marker:none;visibility:visible;display:inline;overflow:visible;enable-background:accumulate"
       inkscape:export-filename="/home/matthieu/.themes/MyDwaita/gnome-shell/corner-ripple-rtl.png"
       inkscape:export-xdpi="90"
       inkscape:export-ydpi="90" />
    <path
       transform="matrix(0.72115386,0,0,0.72115386,112.5,1011.9776)"
       d="M 48,4 C 48,30.509668 26.509668,52 0,52 -26.509668,52 -48,30.509668 -48,4 c 0,-26.509668 21.490332,-48 48,-48 26.509668,0 48,21.490332 48,48 z"
       sodipodi:ry="48"
       sodipodi:rx="48"
       sodipodi:cy="4"
       sodipodi:cx="0"
       id="path3783-6"
       style="opacity:0.2;color:#000000;fill:#000000;fill-opacity:1;fill-rule:nonzero;stroke:none;stroke-width:1.5;marker:none;visibility:visible;display:inline;overflow:visible;filter:url(#filter3789-7);enable-background:accumulate"
       sodipodi:type="arc"
       clip-path="url(#clipPath3785-1)" />
    <path
       sodipodi:type="arc"
       style="color:#000000;fill:url(#radialGradient3767-1);fill-opacity:1;fill-rule:nonzero;stroke:none;stroke-width:1.5;marker:none;visibility:visible;display:inline;overflow:visible;enable-background:accumulate"
       id="path3759-4"
       sodipodi:cx="0"
       sodipodi:cy="4"
       sodipodi:rx="48"
       sodipodi:ry="48"
       d="M 48,4 C 48,30.509668 26.509668,52 0,52 -26.509668,52 -48,30.509668 -48,4 c 0,-26.509668 21.490332,-48 48,-48 26.509668,0 48,21.490332 48,48 z"
       transform="matrix(0.72115386,0,0,0.72115386,112.5,1011.9776)" />
    <path
       style="opacity:0.31174089;color:#000000;fill:#ea703f;fill-opacity:1;fill-rule:nonzero;stroke:none;stroke-width:1.5;marker:none;visibility:visible;display:inline;overflow:visible;enable-background:accumulate"
       d="m 112.5,980.24682 c -19.117549,0 -34.615383,15.49781 -34.615383,34.61548 0,19.1175 15.497834,34.6153 34.615383,34.6153 19.11756,0 34.61539,-15.4978 34.61539,-34.6154 0,-19.11757 -15.49783,-34.61538 -34.61539,-34.61538 z m 0,0.72115 c 18.71927,0 33.89424,15.17495 33.89424,33.89433 0,18.7192 -15.17497,33.8942 -33.89424,33.8942 -18.719259,0 -33.894229,-15.175 -33.894229,-33.8943 0,-18.71928 15.17497,-33.89423 33.894229,-33.89423 z"
       id="path3769-8"
       inkscape:connector-curvature="0" />
    <rect
       style="opacity:0;color:#000000;fill:none;stroke:none;stroke-width:1.5;marker:none;visibility:visible;display:inline;overflow:visible;enable-background:accumulate"
       id="rect3793-2"
       width="37.5"
       height="37.5"
       x="93.750061"
       y="996.11188"
       inkscape:export-filename="/home/matthieu/.themes/MyDwaita/gnome-shell/corner-ripple-ltr.png"
       inkscape:export-xdpi="90"
       inkscape:export-ydpi="90" />
    <rect
       y="996.11188"
       x="93.750061"
       height="37.5"
       width="37.5"
       id="rect3795-1"
       style="opacity:0;color:#000000;fill:none;stroke:none;stroke-width:1.5;marker:none;visibility:visible;display:inline;overflow:visible;enable-background:accumulate"
       inkscape:export-filename="/home/matthieu/.themes/MyDwaita/gnome-shell/corner-ripple-rtl.png"
       inkscape:export-xdpi="90"
       inkscape:export-ydpi="90" />
    <path
       transform="matrix(0.72115386,0,0,0.72115386,37.500002,1011.9776)"
       d="M 48,4 C 48,30.509668 26.509668,52 0,52 -26.509668,52 -48,30.509668 -48,4 c 0,-26.509668 21.490332,-48 48,-48 26.509668,0 48,21.490332 48,48 z"
       sodipodi:ry="48"
       sodipodi:rx="48"
       sodipodi:cy="4"
       sodipodi:cx="0"
       id="path3783-9"
       style="opacity:0.2;color:#000000;fill:#000000;fill-opacity:1;fill-rule:nonzero;stroke:none;stroke-width:1.5;marker:none;visibility:visible;display:inline;overflow:visible;filter:url(#filter3789-0);enable-background:accumulate"
       sodipodi:type="arc"
       clip-path="url(#clipPath3785-94)" />
    <path
       sodipodi:type="arc"
       style="color:#000000;fill:url(#radialGradient3767-7);fill-opacity:1;fill-rule:nonzero;stroke:none;stroke-width:1.5;marker:none;visibility:visible;display:inline;overflow:visible;enable-background:accumulate"
       id="path3759-1"
       sodipodi:cx="0"
       sodipodi:cy="4"
       sodipodi:rx="48"
       sodipodi:ry="48"
       d="M 48,4 C 48,30.509668 26.509668,52 0,52 -26.509668,52 -48,30.509668 -48,4 c 0,-26.509668 21.490332,-48 48,-48 26.509668,0 48,21.490332 48,48 z"
       transform="matrix(0.72115386,0,0,0.72115386,37.500002,1011.9776)" />
    <path
       style="opacity:0.31174089;color:#000000;fill:#ea703f;fill-opacity:1;fill-rule:nonzero;stroke:none;stroke-width:1.5;marker:none;visibility:visible;display:inline;overflow:visible;enable-background:accumulate"
       d="m 37.500002,980.24682 c -19.117551,0 -34.6153852,15.49781 -34.6153852,34.61548 0,19.1175 15.4978342,34.6153 34.6153852,34.6153 19.117551,0 34.615384,-15.4978 34.615384,-34.6154 0,-19.11757 -15.497833,-34.61538 -34.615384,-34.61538 z m 0,0.72115 c 18.719264,0 33.89423,15.17495 33.89423,33.89433 0,18.7192 -15.174966,33.8942 -33.89423,33.8942 -18.719265,0 -33.8942313,-15.175 -33.8942313,-33.8943 0,-18.71928 15.1749663,-33.89423 33.8942313,-33.89423 z"
       id="path3769-3"
       inkscape:connector-curvature="0" />
    <rect
       style="opacity:0;color:#000000;fill:none;stroke:none;stroke-width:1.5;marker:none;visibility:visible;display:inline;overflow:visible;enable-background:accumulate"
       id="rect3793-5"
       width="37.5"
       height="37.5"
       x="18.75001"
       y="996.11292"
       inkscape:export-filename="/home/matthieu/.themes/MyDwaita/gnome-shell/corner-ripple-ltr.png"
       inkscape:export-xdpi="90"
       inkscape:export-ydpi="90" />
    <rect
       y="996.11292"
       x="18.75001"
       height="37.5"
       width="37.5"
       id="rect3795-4"
       style="opacity:0;color:#000000;fill:none;stroke:none;stroke-width:1.5;marker:none;visibility:visible;display:inline;overflow:visible;enable-background:accumulate"
       inkscape:export-filename="/home/matthieu/.themes/MyDwaita/gnome-shell/corner-ripple-rtl.png"
       inkscape:export-xdpi="90"
       inkscape:export-ydpi="90" />
  </g>
</svg>
