<?xml version="1.0" encoding="UTF-8" standalone="no"?>
<!-- Created with Inkscape (http://www.inkscape.org/) -->

<svg
   xmlns:dc="http://purl.org/dc/elements/1.1/"
   xmlns:cc="http://creativecommons.org/ns#"
   xmlns:rdf="http://www.w3.org/1999/02/22-rdf-syntax-ns#"
   xmlns:svg="http://www.w3.org/2000/svg"
   xmlns="http://www.w3.org/2000/svg"
   xmlns:sodipodi="http://sodipodi.sourceforge.net/DTD/sodipodi-0.dtd"
   xmlns:inkscape="http://www.inkscape.org/namespaces/inkscape"
   version="1.1"
   width="24"
   height="24"
   id="svg2"
   inkscape:version="0.91 r13725"
   sodipodi:docname="hotcorner.svg">
  <sodipodi:namedview
     pagecolor="#ffffff"
     bordercolor="#666666"
     borderopacity="1"
     objecttolerance="10"
     gridtolerance="10"
     guidetolerance="10"
     inkscape:pageopacity="0"
     inkscape:pageshadow="2"
     inkscape:window-width="1280"
     inkscape:window-height="744"
     id="namedview7"
     showgrid="false"
     inkscape:zoom="5.6568542"
     inkscape:cx="24.365089"
     inkscape:cy="-13.3238"
     inkscape:window-x="0"
     inkscape:window-y="30"
     inkscape:window-maximized="1"
     inkscape:current-layer="svg2"
     showguides="false" />
  <defs
     id="defs4">
    <filter
       inkscape:collect="always"
       style="color-interpolation-filters:sRGB"
       id="filter4163"
       x="-0.036"
       width="1.072"
       y="-0.036"
       height="1.072">
      <feGaussianBlur
         inkscape:collect="always"
         stdDeviation="0.3"
         id="feGaussianBlur4165" />
    </filter>
  </defs>
  <metadata
     id="metadata7">
    <rdf:RDF>
      <cc:Work
         rdf:about="">
        <dc:format>image/svg+xml</dc:format>
        <dc:type
           rdf:resource="http://purl.org/dc/dcmitype/StillImage" />
        <dc:title />
      </cc:Work>
    </rdf:RDF>
  </metadata>
  <path
     style="opacity:0.7;fill:#000000;fill-opacity:1;stroke:none;filter:url(#filter4163)"
     id="path2993-2"
     inkscape:connector-curvature="0"
     d="m 11.803,2.6439996 c -5.5228474,0 -10,4.4771529 -10,9.9999974 0,5.522857 4.4771526,10.000002 10,10.000002 5.522847,0 10,-4.477145 10,-10.000002 0,-5.5228445 -4.477153,-9.9999974 -10,-9.9999974 z m 0,0.8333331 c 4.198915,0 7.738462,2.8232828 8.823958,6.6749983 -0.934937,1.92841 -2.265287,3.664661 -3.885417,5.067711 -0.77829,0.674 -1.628028,1.274854 -2.566666,1.697916 -0.938639,0.423063 -1.971072,0.663104 -2.998958,0.604167 -0.772272,-0.04429 -1.5351509,-0.259417 -2.2114591,-0.634375 1.7923371,-0.971208 3.4095301,-2.266118 4.7333341,-3.81667 0.868917,-1.017752 1.629155,-2.174393 1.921875,-3.4802065 0.14636,-0.652906 0.171162,-1.336688 0.03437,-1.991667 C 15.517253,6.9442275 15.214419,6.3200613 14.756125,5.8325406 14.3084,5.3562636 13.72064,5.0188886 13.0905,4.8450408 12.46036,4.671195 11.789781,4.6577345 11.14675,4.7752491 9.860687,5.0102782 8.7124679,5.7577156 7.7915419,6.6856654 6.1682749,8.3213105 5.1647539,10.629237 5.3488333,12.926288 c 0.092039,1.148525 0.4769266,2.277108 1.1364583,3.221879 0.1472171,0.210875 0.3090627,0.41175 0.4822916,0.602083 -0.9607975,0.33625 -1.9556239,0.575604 -2.9645833,0.710417 -0.8662604,-1.39975 -1.3666666,-3.049583 -1.3666666,-4.81667 0,-5.0626085 4.1040562,-9.1666643 9.1666667,-9.1666643 z m 0.05833,1.852083 c 0.64438,8.333e-4 1.293139,0.195952 1.807292,0.5843748 0.463227,0.349952 0.806464,0.847814 1.001042,1.394791 0.194577,0.546977 0.244512,1.140963 0.178125,1.717708 -0.132775,1.1534935 -0.714679,2.2113365 -1.417708,3.1354155 -1.244803,1.636198 -2.899394,2.945774 -4.7395841,3.862503 -0.188358,0.09383 -0.379701,0.183021 -0.571875,0.26875 C 7.7182139,15.942563 7.3750178,15.526959 7.1134166,15.063788 6.566792,14.095963 6.3865299,12.946284 6.4925832,11.83983 6.5986366,10.733379 6.9783432,9.6669935 7.4884169,8.6794155 8.0798239,7.5343635 8.8859619,6.4497508 10.014458,5.8273322 10.578706,5.516124 11.216953,5.3285427 11.861333,5.3294157 Z m 9.026042,6.0874983 c 0.0537,0.401416 0.08229,0.810968 0.08229,1.227083 0,5.062607 -4.104056,9.166669 -9.166668,9.166669 -2.8432131,0 -5.3842574,-1.294333 -7.0656245,-3.326041 1.0377875,-0.235709 2.0520983,-0.574271 3.0250004,-1.005209 0.425457,0.324021 0.895324,0.589771 1.394791,0.78125 1.4383671,0.551438 3.0713951,0.471646 4.5270851,-0.03229 1.455688,-0.503938 2.746556,-1.408458 3.871874,-2.460416 1.340546,-1.253171 2.470802,-2.730239 3.33125,-4.351045 z" />
  <path
     style="fill:#ffffff;fill-opacity:1;stroke:none"
     id="path2993"
     inkscape:connector-curvature="0"
     d="m 11.507365,1.8825286 c -5.5228471,0 -9.9999997,4.4771532 -9.9999997,9.9999974 0,5.522857 4.4771526,10.000002 9.9999997,10.000002 5.522847,0 10,-4.477145 10,-10.000002 0,-5.5228442 -4.477153,-9.9999974 -10,-9.9999974 z m 0,0.8333331 c 4.198915,0 7.738462,2.8232828 8.823958,6.6749986 -0.934937,1.9284097 -2.265287,3.6646607 -3.885417,5.0677107 -0.77829,0.674 -1.628028,1.274854 -2.566666,1.697916 -0.938639,0.423063 -1.971072,0.663104 -2.998958,0.604167 -0.772272,-0.04429 -1.5351509,-0.259417 -2.2114589,-0.634375 1.7923369,-0.971208 3.4095299,-2.266118 4.7333339,-3.81667 0.868917,-1.017752 1.629155,-2.174393 1.921875,-3.4802069 0.14636,-0.6529061 0.171162,-1.3366872 0.03437,-1.9916662 C 15.221618,6.1827568 14.918784,5.5585903 14.46049,5.0710696 14.012765,4.5947926 13.425005,4.2574176 12.794865,4.0835698 12.164725,3.909724 11.494146,3.8962635 10.851115,4.0137781 9.5650521,4.2488072 8.4168331,4.9962446 7.4959069,5.9241944 5.8726402,7.5598399 4.8691192,9.8677665 5.0531986,12.164817 c 0.092039,1.148525 0.4769266,2.277108 1.1364583,3.221879 0.1472171,0.210875 0.3090627,0.41175 0.4822916,0.602083 -0.9607975,0.33625 -1.9556239,0.575604 -2.9645833,0.710417 -0.8662604,-1.39975 -1.3666666,-3.049583 -1.3666666,-4.81667 0,-5.0626089 4.1040562,-9.1666643 9.1666664,-9.1666643 z m 0.05833,1.852083 c 0.64438,8.333e-4 1.293139,0.195952 1.807292,0.5843748 0.463227,0.349952 0.806464,0.8478144 1.001042,1.3947914 0.194577,0.546977 0.244512,1.1409623 0.178125,1.717708 -0.132775,1.1534935 -0.714679,2.2113361 -1.417708,3.1354151 -1.244803,1.636198 -2.899394,2.945774 -4.7395839,3.862503 -0.188358,0.09383 -0.379701,0.183021 -0.571875,0.26875 C 7.4225791,15.181092 7.0793831,14.765488 6.8177819,14.302317 6.2711573,13.334492 6.0908952,12.184813 6.1969485,11.078359 6.3030019,9.9719084 6.6827085,8.9055229 7.1927819,7.917944 7.7841891,6.7728921 8.5903281,5.6882798 9.718823,5.0658612 10.283071,4.754653 10.921318,4.5670717 11.565698,4.5679447 Z m 9.026042,6.0874983 c 0.0537,0.401416 0.08229,0.810968 0.08229,1.227083 0,5.062607 -4.104056,9.166669 -9.166667,9.166669 -2.8432139,0 -5.3842577,-1.294333 -7.0656248,-3.326041 1.0377875,-0.235709 2.0520983,-0.574271 3.025,-1.005209 0.4254569,0.324021 0.8953249,0.589771 1.3947919,0.78125 1.4383669,0.551438 3.0713939,0.471646 4.5270839,-0.03229 1.455688,-0.503938 2.746556,-1.408458 3.871874,-2.460416 1.340546,-1.253171 2.470802,-2.730239 3.33125,-4.351045 z" />
</svg>
